<?xml version="1.0" encoding="utf-8"?>
<!-- Generator: Adobe Illustrator 16.0.0, SVG Export Plug-In . SVG Version: 6.00 Build 0)  -->
<!DOCTYPE svg PUBLIC "-//W3C//DTD SVG 1.1//EN" "http://www.w3.org/Graphics/SVG/1.1/DTD/svg11.dtd">
<svg version="1.1" xmlns="http://www.w3.org/2000/svg" xmlns:xlink="http://www.w3.org/1999/xlink" x="0px" y="0px" width="1824px"
	 height="826px" viewBox="0 0 1824 826" enable-background="new 0 0 1824 826" xml:space="preserve">
<g id="Layer_1" display="none">
</g>
<g id="Cylinder">
</g>
<g id="Layer_6">
</g>
<g id="Pressure_gauge">
</g>
<g id="Chasis__x26__base">
</g>
<g id="Layer_8">
</g>
<g id="Motor__x26__pump">
</g>
<g id="Valves">
	<g>
		<path fill="#E6E6E6" stroke="#E6E6E6" stroke-miterlimit="10" d="M603.5,48.5v384h-74v-384c0-15.69,9.77-29.1,23.549-34.48
			c-0.359-0.85-0.549-1.78-0.549-2.75v-0.54c0-3.68,2.73-6.7,6.279-7.16c-0.18-0.29-0.279-0.63-0.279-0.99V2.42
			c0-1.06,0.845-1.92,1.905-1.92h12.16c1.062,0,1.935,0.86,1.935,1.92v0.16c0,0.36-0.1,0.7-0.279,0.99
			c3.549,0.46,6.279,3.48,6.279,7.16v0.54c0,0.97-0.189,1.9-0.55,2.75C593.73,19.4,603.5,32.81,603.5,48.5z"/>
		<path fill="#E6E6E6" stroke="#E6E6E6" stroke-miterlimit="10" d="M687.5,48.5v384h-74v-384c0-15.69,9.77-29.1,23.549-34.48
			c-0.359-0.85-0.549-1.78-0.549-2.75v-0.54c0-3.68,2.73-6.7,6.279-7.16c-0.18-0.29-0.279-0.63-0.279-0.99V2.42
			c0-1.06,0.845-1.92,1.905-1.92h12.16c1.062,0,1.935,0.86,1.935,1.92v0.16c0,0.36-0.1,0.7-0.279,0.99
			c3.549,0.46,6.279,3.48,6.279,7.16v0.54c0,0.97-0.189,1.9-0.55,2.75C677.73,19.4,687.5,32.81,687.5,48.5z"/>
		<path fill="#E6E6E6" stroke="#E6E6E6" stroke-miterlimit="10" d="M771.5,48.5v384h-74v-384c0-15.69,9.77-29.1,23.549-34.48
			c-0.359-0.85-0.549-1.78-0.549-2.75v-0.54c0-3.68,2.73-6.7,6.279-7.16c-0.18-0.29-0.279-0.63-0.279-0.99V2.42
			c0-1.06,0.845-1.92,1.905-1.92h12.16c1.062,0,1.935,0.86,1.935,1.92v0.16c0,0.36-0.1,0.7-0.279,0.99
			c3.549,0.46,6.279,3.48,6.279,7.16v0.54c0,0.97-0.189,1.9-0.55,2.75C761.73,19.4,771.5,32.81,771.5,48.5z"/>
		<path fill="#E6E6E6" stroke="#E6E6E6" stroke-miterlimit="10" d="M855.5,48.5v384h-74v-384c0-15.69,9.77-29.1,23.549-34.48
			c-0.359-0.85-0.549-1.78-0.549-2.75v-0.54c0-3.68,2.73-6.7,6.279-7.16c-0.18-0.29-0.279-0.63-0.279-0.99V2.42
			c0-1.06,0.845-1.92,1.905-1.92h12.16c1.062,0,1.935,0.86,1.935,1.92v0.16c0,0.36-0.1,0.7-0.279,0.99
			c3.549,0.46,6.279,3.48,6.279,7.16v0.54c0,0.97-0.189,1.9-0.55,2.75C845.73,19.4,855.5,32.81,855.5,48.5z"/>
		<path fill="#E6E6E6" stroke="#E6E6E6" stroke-miterlimit="10" d="M939.5,48.5v384h-74v-384c0-15.69,9.77-29.1,23.549-34.48
			c-0.359-0.85-0.549-1.78-0.549-2.75v-0.54c0-3.68,2.73-6.7,6.279-7.16c-0.18-0.29-0.279-0.63-0.279-0.99V2.42
			c0-1.06,0.845-1.92,1.905-1.92h12.16c1.062,0,1.935,0.86,1.935,1.92v0.16c0,0.36-0.1,0.7-0.279,0.99
			c3.549,0.46,6.279,3.48,6.279,7.16v0.54c0,0.97-0.189,1.9-0.55,2.75C929.73,19.4,939.5,32.81,939.5,48.5z"/>
		<path fill="#E6E6E6" stroke="#E6E6E6" stroke-miterlimit="10" d="M1023.5,48.5v384h-74v-384c0-15.69,9.77-29.1,23.549-34.48
			c-0.359-0.85-0.549-1.78-0.549-2.75v-0.54c0-3.68,2.73-6.7,6.279-7.16c-0.18-0.29-0.279-0.63-0.279-0.99V2.42
			c0-1.06,0.845-1.92,1.905-1.92h12.16c1.062,0,1.935,0.86,1.935,1.92v0.16c0,0.36-0.1,0.7-0.279,0.99
			c3.549,0.46,6.279,3.48,6.279,7.16v0.54c0,0.97-0.189,1.9-0.55,2.75C1013.73,19.4,1023.5,32.81,1023.5,48.5z"/>
		<path fill="#E6E6E6" stroke="#E6E6E6" stroke-miterlimit="10" d="M1107.5,48.5v384h-74v-384c0-15.69,9.77-29.1,23.549-34.48
			c-0.359-0.85-0.549-1.78-0.549-2.75v-0.54c0-3.68,2.73-6.7,6.279-7.16c-0.18-0.29-0.279-0.63-0.279-0.99V2.42
			c0-1.06,0.845-1.92,1.905-1.92h12.16c1.062,0,1.935,0.86,1.935,1.92v0.16c0,0.36-0.1,0.7-0.279,0.99
			c3.549,0.46,6.279,3.48,6.279,7.16v0.54c0,0.97-0.189,1.9-0.55,2.75C1097.73,19.4,1107.5,32.81,1107.5,48.5z"/>
		<path fill="#E6E6E6" stroke="#E6E6E6" stroke-miterlimit="10" d="M1191.5,48.5v384h-74v-384c0-15.69,9.77-29.1,23.549-34.48
			c-0.359-0.85-0.549-1.78-0.549-2.75v-0.54c0-3.68,2.73-6.7,6.279-7.16c-0.18-0.29-0.279-0.63-0.279-0.99V2.42
			c0-1.06,0.845-1.92,1.905-1.92h12.16c1.062,0,1.935,0.86,1.935,1.92v0.16c0,0.36-0.1,0.7-0.279,0.99
			c3.549,0.46,6.279,3.48,6.279,7.16v0.54c0,0.97-0.189,1.9-0.55,2.75C1181.73,19.4,1191.5,32.81,1191.5,48.5z"/>
		<path fill="#E6E6E6" stroke="#E6E6E6" stroke-miterlimit="10" d="M1275.5,48.5v384h-74v-384c0-15.69,9.77-29.1,23.549-34.48
			c-0.359-0.85-0.549-1.78-0.549-2.75v-0.54c0-3.68,2.73-6.7,6.279-7.16c-0.18-0.29-0.279-0.63-0.279-0.99V2.42
			c0-1.06,0.845-1.92,1.905-1.92h12.16c1.062,0,1.935,0.86,1.935,1.92v0.16c0,0.36-0.1,0.7-0.279,0.99
			c3.549,0.46,6.279,3.48,6.279,7.16v0.54c0,0.97-0.189,1.9-0.55,2.75C1265.73,19.4,1275.5,32.81,1275.5,48.5z"/>
		<path fill="#E6E6E6" stroke="#E6E6E6" stroke-miterlimit="10" d="M1359.5,48.5v384h-74v-384c0-15.69,9.77-29.1,23.549-34.48
			c-0.359-0.85-0.549-1.78-0.549-2.75v-0.54c0-3.68,2.73-6.7,6.279-7.16c-0.18-0.29-0.279-0.63-0.279-0.99V2.42
			c0-1.06,0.845-1.92,1.905-1.92h12.16c1.062,0,1.935,0.86,1.935,1.92v0.16c0,0.36-0.1,0.7-0.279,0.99
			c3.549,0.46,6.279,3.48,6.279,7.16v0.54c0,0.97-0.189,1.9-0.55,2.75C1349.73,19.4,1359.5,32.81,1359.5,48.5z"/>
		<path fill="#E6E6E6" stroke="#E6E6E6" stroke-miterlimit="10" d="M1443.5,48.5v384h-74v-384c0-15.69,9.77-29.1,23.549-34.48
			c-0.359-0.85-0.549-1.78-0.549-2.75v-0.54c0-3.68,2.73-6.7,6.279-7.16c-0.18-0.29-0.279-0.63-0.279-0.99V2.42
			c0-1.06,0.845-1.92,1.905-1.92h12.16c1.062,0,1.935,0.86,1.935,1.92v0.16c0,0.36-0.1,0.7-0.279,0.99
			c3.549,0.46,6.279,3.48,6.279,7.16v0.54c0,0.97-0.189,1.9-0.55,2.75C1433.73,19.4,1443.5,32.81,1443.5,48.5z"/>
		<path fill="#E6E6E6" stroke="#E6E6E6" stroke-miterlimit="10" d="M1527.5,48.5v384h-74v-384c0-15.69,9.77-29.1,23.549-34.48
			c-0.359-0.85-0.549-1.78-0.549-2.75v-0.54c0-3.68,2.73-6.7,6.279-7.16c-0.18-0.29-0.279-0.63-0.279-0.99V2.42
			c0-1.06,0.845-1.92,1.905-1.92h12.16c1.062,0,1.935,0.86,1.935,1.92v0.16c0,0.36-0.1,0.7-0.279,0.99
			c3.549,0.46,6.279,3.48,6.279,7.16v0.54c0,0.97-0.189,1.9-0.55,2.75C1517.73,19.4,1527.5,32.81,1527.5,48.5z"/>
		<path fill="#E6E6E6" stroke="#E6E6E6" stroke-miterlimit="10" d="M1611.5,48.5v384h-74v-384c0-15.69,9.77-29.1,23.549-34.48
			c-0.359-0.85-0.549-1.78-0.549-2.75v-0.54c0-3.68,2.73-6.7,6.279-7.16c-0.18-0.29-0.279-0.63-0.279-0.99V2.42
			c0-1.06,0.845-1.92,1.905-1.92h12.16c1.062,0,1.935,0.86,1.935,1.92v0.16c0,0.36-0.1,0.7-0.279,0.99
			c3.549,0.46,6.279,3.48,6.279,7.16v0.54c0,0.97-0.189,1.9-0.55,2.75C1601.73,19.4,1611.5,32.81,1611.5,48.5z"/>
		<path fill="#B3B3B3" stroke="#B3B3B3" stroke-miterlimit="10" d="M597.5,74.5v384h-74v-384c0-15.69,9.77-29.1,23.549-34.48
			c-0.359-0.85-0.549-1.78-0.549-2.75v-0.54c0-3.68,2.73-6.7,6.279-7.16c-0.18-0.29-0.279-0.63-0.279-0.99v-0.16
			c0-1.06,0.845-1.92,1.905-1.92h12.16c1.062,0,1.935,0.86,1.935,1.92v0.16c0,0.36-0.1,0.7-0.279,0.99
			c3.549,0.46,6.279,3.48,6.279,7.16v0.54c0,0.97-0.189,1.9-0.55,2.75C587.73,45.4,597.5,58.81,597.5,74.5z"/>
		<path fill="#B3B3B3" stroke="#B3B3B3" stroke-miterlimit="10" d="M681.5,74.5v384h-74v-384c0-15.69,9.77-29.1,23.549-34.48
			c-0.359-0.85-0.549-1.78-0.549-2.75v-0.54c0-3.68,2.73-6.7,6.279-7.16c-0.18-0.29-0.279-0.63-0.279-0.99v-0.16
			c0-1.06,0.845-1.92,1.905-1.92h12.16c1.062,0,1.935,0.86,1.935,1.92v0.16c0,0.36-0.1,0.7-0.279,0.99
			c3.549,0.46,6.279,3.48,6.279,7.16v0.54c0,0.97-0.189,1.9-0.55,2.75C671.73,45.4,681.5,58.81,681.5,74.5z"/>
		<path fill="#B3B3B3" stroke="#B3B3B3" stroke-miterlimit="10" d="M765.5,74.5v384h-74v-384c0-15.69,9.77-29.1,23.549-34.48
			c-0.359-0.85-0.549-1.78-0.549-2.75v-0.54c0-3.68,2.73-6.7,6.279-7.16c-0.18-0.29-0.279-0.63-0.279-0.99v-0.16
			c0-1.06,0.845-1.92,1.905-1.92h12.16c1.062,0,1.935,0.86,1.935,1.92v0.16c0,0.36-0.1,0.7-0.279,0.99
			c3.549,0.46,6.279,3.48,6.279,7.16v0.54c0,0.97-0.189,1.9-0.55,2.75C755.73,45.4,765.5,58.81,765.5,74.5z"/>
		<path fill="#B3B3B3" stroke="#B3B3B3" stroke-miterlimit="10" d="M849.5,74.5v384h-74v-384c0-15.69,9.77-29.1,23.549-34.48
			c-0.359-0.85-0.549-1.78-0.549-2.75v-0.54c0-3.68,2.73-6.7,6.279-7.16c-0.18-0.29-0.279-0.63-0.279-0.99v-0.16
			c0-1.06,0.845-1.92,1.905-1.92h12.16c1.062,0,1.935,0.86,1.935,1.92v0.16c0,0.36-0.1,0.7-0.279,0.99
			c3.549,0.46,6.279,3.48,6.279,7.16v0.54c0,0.97-0.189,1.9-0.55,2.75C839.73,45.4,849.5,58.81,849.5,74.5z"/>
		<path fill="#B3B3B3" stroke="#B3B3B3" stroke-miterlimit="10" d="M933.5,74.5v384h-74v-384c0-15.69,9.77-29.1,23.549-34.48
			c-0.359-0.85-0.549-1.78-0.549-2.75v-0.54c0-3.68,2.73-6.7,6.279-7.16c-0.18-0.29-0.279-0.63-0.279-0.99v-0.16
			c0-1.06,0.845-1.92,1.905-1.92h12.16c1.062,0,1.935,0.86,1.935,1.92v0.16c0,0.36-0.1,0.7-0.279,0.99
			c3.549,0.46,6.279,3.48,6.279,7.16v0.54c0,0.97-0.189,1.9-0.55,2.75C923.73,45.4,933.5,58.81,933.5,74.5z"/>
		<path fill="#B3B3B3" stroke="#B3B3B3" stroke-miterlimit="10" d="M1017.5,74.5v384h-74v-384c0-15.69,9.77-29.1,23.549-34.48
			c-0.359-0.85-0.549-1.78-0.549-2.75v-0.54c0-3.68,2.73-6.7,6.279-7.16c-0.18-0.29-0.279-0.63-0.279-0.99v-0.16
			c0-1.06,0.845-1.92,1.905-1.92h12.16c1.062,0,1.935,0.86,1.935,1.92v0.16c0,0.36-0.1,0.7-0.279,0.99
			c3.549,0.46,6.279,3.48,6.279,7.16v0.54c0,0.97-0.189,1.9-0.55,2.75C1007.73,45.4,1017.5,58.81,1017.5,74.5z"/>
		<path fill="#B3B3B3" stroke="#B3B3B3" stroke-miterlimit="10" d="M1101.5,74.5v384h-74v-384c0-15.69,9.77-29.1,23.549-34.48
			c-0.359-0.85-0.549-1.78-0.549-2.75v-0.54c0-3.68,2.73-6.7,6.279-7.16c-0.18-0.29-0.279-0.63-0.279-0.99v-0.16
			c0-1.06,0.845-1.92,1.905-1.92h12.16c1.062,0,1.935,0.86,1.935,1.92v0.16c0,0.36-0.1,0.7-0.279,0.99
			c3.549,0.46,6.279,3.48,6.279,7.16v0.54c0,0.97-0.189,1.9-0.55,2.75C1091.73,45.4,1101.5,58.81,1101.5,74.5z"/>
		<path fill="#B3B3B3" stroke="#B3B3B3" stroke-miterlimit="10" d="M1185.5,74.5v384h-74v-384c0-15.69,9.77-29.1,23.549-34.48
			c-0.359-0.85-0.549-1.78-0.549-2.75v-0.54c0-3.68,2.73-6.7,6.279-7.16c-0.18-0.29-0.279-0.63-0.279-0.99v-0.16
			c0-1.06,0.845-1.92,1.905-1.92h12.16c1.062,0,1.935,0.86,1.935,1.92v0.16c0,0.36-0.1,0.7-0.279,0.99
			c3.549,0.46,6.279,3.48,6.279,7.16v0.54c0,0.97-0.189,1.9-0.55,2.75C1175.73,45.4,1185.5,58.81,1185.5,74.5z"/>
		<path fill="#B3B3B3" stroke="#B3B3B3" stroke-miterlimit="10" d="M1269.5,74.5v384h-74v-384c0-15.69,9.77-29.1,23.549-34.48
			c-0.359-0.85-0.549-1.78-0.549-2.75v-0.54c0-3.68,2.73-6.7,6.279-7.16c-0.18-0.29-0.279-0.63-0.279-0.99v-0.16
			c0-1.06,0.845-1.92,1.905-1.92h12.16c1.062,0,1.935,0.86,1.935,1.92v0.16c0,0.36-0.1,0.7-0.279,0.99
			c3.549,0.46,6.279,3.48,6.279,7.16v0.54c0,0.97-0.189,1.9-0.55,2.75C1259.73,45.4,1269.5,58.81,1269.5,74.5z"/>
		<path fill="#B3B3B3" stroke="#B3B3B3" stroke-miterlimit="10" d="M1353.5,74.5v384h-74v-384c0-15.69,9.77-29.1,23.549-34.48
			c-0.359-0.85-0.549-1.78-0.549-2.75v-0.54c0-3.68,2.73-6.7,6.279-7.16c-0.18-0.29-0.279-0.63-0.279-0.99v-0.16
			c0-1.06,0.845-1.92,1.905-1.92h12.16c1.062,0,1.935,0.86,1.935,1.92v0.16c0,0.36-0.1,0.7-0.279,0.99
			c3.549,0.46,6.279,3.48,6.279,7.16v0.54c0,0.97-0.189,1.9-0.55,2.75C1343.73,45.4,1353.5,58.81,1353.5,74.5z"/>
		<path fill="#B3B3B3" stroke="#B3B3B3" stroke-miterlimit="10" d="M1437.5,74.5v384h-74v-384c0-15.69,9.77-29.1,23.549-34.48
			c-0.359-0.85-0.549-1.78-0.549-2.75v-0.54c0-3.68,2.73-6.7,6.279-7.16c-0.18-0.29-0.279-0.63-0.279-0.99v-0.16
			c0-1.06,0.845-1.92,1.905-1.92h12.16c1.062,0,1.935,0.86,1.935,1.92v0.16c0,0.36-0.1,0.7-0.279,0.99
			c3.549,0.46,6.279,3.48,6.279,7.16v0.54c0,0.97-0.189,1.9-0.55,2.75C1427.73,45.4,1437.5,58.81,1437.5,74.5z"/>
		<path fill="#B3B3B3" stroke="#B3B3B3" stroke-miterlimit="10" d="M1521.5,74.5v384h-74v-384c0-15.69,9.77-29.1,23.549-34.48
			c-0.359-0.85-0.549-1.78-0.549-2.75v-0.54c0-3.68,2.73-6.7,6.279-7.16c-0.18-0.29-0.279-0.63-0.279-0.99v-0.16
			c0-1.06,0.845-1.92,1.905-1.92h12.16c1.062,0,1.935,0.86,1.935,1.92v0.16c0,0.36-0.1,0.7-0.279,0.99
			c3.549,0.46,6.279,3.48,6.279,7.16v0.54c0,0.97-0.189,1.9-0.55,2.75C1511.73,45.4,1521.5,58.81,1521.5,74.5z"/>
		<path fill="#B3B3B3" stroke="#B3B3B3" stroke-miterlimit="10" d="M1605.5,74.5v384h-74v-384c0-15.69,9.77-29.1,23.549-34.48
			c-0.359-0.85-0.549-1.78-0.549-2.75v-0.54c0-3.68,2.73-6.7,6.279-7.16c-0.18-0.29-0.279-0.63-0.279-0.99v-0.16
			c0-1.06,0.845-1.92,1.905-1.92h12.16c1.062,0,1.935,0.86,1.935,1.92v0.16c0,0.36-0.1,0.7-0.279,0.99
			c3.549,0.46,6.279,3.48,6.279,7.16v0.54c0,0.97-0.189,1.9-0.55,2.75C1595.73,45.4,1605.5,58.81,1605.5,74.5z"/>
		<rect x="1664.5" y="260.5" fill="#999999" stroke="#999999" stroke-miterlimit="10" width="10" height="60"/>
		<rect x="1529.5" y="260.5" fill="#999999" stroke="#999999" stroke-miterlimit="10" width="10" height="60"/>
		<rect x="1393.5" y="260.5" fill="#999999" stroke="#999999" stroke-miterlimit="10" width="10" height="60"/>
		<rect x="1258.5" y="260.5" fill="#999999" stroke="#999999" stroke-miterlimit="10" width="10" height="60"/>
		<rect x="1123.5" y="260.5" fill="#999999" stroke="#999999" stroke-miterlimit="10" width="10" height="60"/>
		<rect x="988.5" y="260.5" fill="#999999" stroke="#999999" stroke-miterlimit="10" width="10" height="60"/>
		<rect x="853.5" y="260.5" fill="#999999" stroke="#999999" stroke-miterlimit="10" width="10" height="60"/>
		<rect x="718.5" y="260.5" fill="#999999" stroke="#999999" stroke-miterlimit="10" width="10" height="60"/>
		<rect x="583.5" y="260.5" fill="#999999" stroke="#999999" stroke-miterlimit="10" width="10" height="60"/>
		<rect x="448.5" y="260.5" fill="#999999" stroke="#999999" stroke-miterlimit="10" width="10" height="60"/>
		<rect x="314.5" y="260.5" fill="#999999" stroke="#999999" stroke-miterlimit="10" width="10" height="60"/>
		<rect x="179.5" y="260.5" fill="#999999" stroke="#999999" stroke-miterlimit="10" width="10" height="60"/>
		<path fill="#999999" stroke="#999999" stroke-miterlimit="10" d="M1677.5,243.25c0,4.556-5.486,8.25-12.234,8.25h-67.396
			c-6.75,0-12.369-3.694-12.369-8.25v-0.5c0-4.556,5.619-8.25,12.369-8.25h67.396c6.748,0,12.234,3.694,12.234,8.25V243.25z"/>
		<rect x="1666.5" y="247.5" fill="#999999" stroke="#999999" stroke-miterlimit="10" width="6" height="17"/>
		<path fill="#FFFFFF" stroke="#808080" stroke-width="5" stroke-miterlimit="10" d="M1169.5,228.5V143c0,0,1.528-15.5,25.104-15.5
			c23.574,0,286.648,0,308.684,0c22.033,0,19.213,16.167,19.213,16.167V228.5H1169.5z"/>
		<circle fill="#FFFFFF" stroke="#808080" stroke-width="5" stroke-miterlimit="10" cx="1224.862" cy="177.748" r="33.748"/>
		<circle fill="#FFFFFF" stroke="#808080" stroke-width="5" stroke-miterlimit="10" cx="1306.862" cy="177.748" r="33.748"/>
		<circle fill="#FFFFFF" stroke="#808080" stroke-width="5" stroke-miterlimit="10" cx="1388.862" cy="177.748" r="33.748"/>
		<circle fill="#FFFFFF" stroke="#808080" stroke-width="5" stroke-miterlimit="10" cx="1470.862" cy="177.748" r="33.748"/>
		<line fill="none" stroke="#999999" stroke-miterlimit="10" x1="1224.862" y1="177.748" x2="1208.629" y2="193.982"/>
		
			<line fill="none" stroke="#999999" stroke-linecap="round" stroke-miterlimit="10" x1="1224.862" y1="177.748" x2="1240.798" y2="161.813"/>
		<polygon fill="#999999" stroke="#999999" stroke-miterlimit="10" points="1213.127,192.918 1206.799,195.782 1209.663,189.454 		
			"/>
		<circle fill="none" stroke="#999999" stroke-miterlimit="10" cx="1224.922" cy="177.688" r="27.812"/>
		<circle fill="#666666" stroke="#666666" stroke-miterlimit="10" cx="1224.861" cy="177.748" r="1.791"/>
		<line fill="none" stroke="#999999" stroke-miterlimit="10" x1="1306.862" y1="177.748" x2="1290.629" y2="193.982"/>
		
			<line fill="none" stroke="#999999" stroke-linecap="round" stroke-miterlimit="10" x1="1306.862" y1="177.748" x2="1322.798" y2="161.813"/>
		<polygon fill="#999999" stroke="#999999" stroke-miterlimit="10" points="1295.127,192.918 1288.799,195.782 1291.663,189.454 		
			"/>
		<circle fill="none" stroke="#999999" stroke-miterlimit="10" cx="1306.922" cy="177.688" r="27.812"/>
		<circle fill="#666666" stroke="#666666" stroke-miterlimit="10" cx="1306.861" cy="177.748" r="1.791"/>
		<line fill="none" stroke="#999999" stroke-miterlimit="10" x1="1388.862" y1="177.748" x2="1372.629" y2="193.982"/>
		
			<line fill="none" stroke="#999999" stroke-linecap="round" stroke-miterlimit="10" x1="1388.862" y1="177.748" x2="1404.798" y2="161.813"/>
		<polygon fill="#999999" stroke="#999999" stroke-miterlimit="10" points="1377.127,192.918 1370.799,195.782 1373.663,189.454 		
			"/>
		<circle fill="none" stroke="#999999" stroke-miterlimit="10" cx="1388.922" cy="177.688" r="27.812"/>
		<circle fill="#666666" stroke="#666666" stroke-miterlimit="10" cx="1388.861" cy="177.748" r="1.791"/>
		<line fill="none" stroke="#999999" stroke-miterlimit="10" x1="1470.862" y1="177.748" x2="1454.629" y2="193.982"/>
		
			<line fill="none" stroke="#999999" stroke-linecap="round" stroke-miterlimit="10" x1="1470.862" y1="177.748" x2="1486.798" y2="161.813"/>
		<polygon fill="#999999" stroke="#999999" stroke-miterlimit="10" points="1459.127,192.918 1452.799,195.782 1455.663,189.454 		
			"/>
		<circle fill="none" stroke="#999999" stroke-miterlimit="10" cx="1470.922" cy="177.688" r="27.812"/>
		<circle fill="#666666" stroke="#666666" stroke-miterlimit="10" cx="1470.861" cy="177.748" r="1.791"/>
		<g>
			<path fill="#999999" stroke="#999999" stroke-miterlimit="10" d="M195.5,249.5h-40.595c-0.671-1.66-1.405-3.04-3.405-3.92V170.5
				h-15v75.08c-1,0.34-1.178,0.77-1.668,1.26c-0.75,0.75-1.356,1.66-1.767,2.66H71.5v6h61.565c0.669,1.66,1.435,3.04,3.435,3.92
				V387.5h15V259.42c2-0.88,2.734-2.26,3.405-3.92H195.5V249.5z"/>
			<polygon fill="#999999" stroke="#999999" stroke-miterlimit="10" points="297.5,226.5 297.5,260.5 1038.5,260.5 1038.5,227.732 
							"/>
		</g>
		<rect x="1038.5" y="227.5" fill="#999999" stroke="#999999" stroke-miterlimit="10" width="503" height="33"/>
		<rect x="1562.5" y="284.5" fill="#999999" stroke="#999999" stroke-miterlimit="10" width="15" height="103"/>
		<path fill="#999999" stroke="#999999" stroke-miterlimit="10" d="M776.5,197.87v0.26c0,2.5-2,4.59-4,5.19v23.18h-6v-23.18
			c-2-0.39-2.784-1.44-3.454-2.82h-147.74c-0.991,1.22-2.5,2-4.19,2h-3.26c-2.971,0-5.355-2.4-5.355-5.37v-0.26c0-2.5,2-4.59,4-5.19
			v-78.36c-2-0.39-2.784-1.44-3.454-2.82H446.5v-6h157.165c0.99-1.22,2.5-2,4.19-2h3.26c2.971,0,5.385,2.4,5.385,5.37v0.26
			c0,2.5-2,4.59-4,5.19v78.36c2,0.39,2.755,1.44,3.425,2.82h147.74c0.99-1.22,2.5-2,4.19-2h3.26
			C774.086,192.5,776.5,194.9,776.5,197.87z"/>
		<path fill="#999999" stroke="#999999" stroke-miterlimit="10" d="M181.5,130.5H93.306c-0.991-1.22-2.5-2-4.19-2h-3.26
			c-2.971,0-5.355,2.4-5.355,5.37v0.26c0,2.5,2,4.59,4,5.19v79.18h6v-79.18c2-0.39,2.755-1.44,3.425-2.82H181.5V130.5z"/>
		<rect x="0.5" y="793.5" fill="#333333" stroke="#333333" stroke-miterlimit="10" width="1823" height="32"/>
		<rect x="1562.5" y="208.5" fill="#999999" stroke="#999999" stroke-miterlimit="10" width="15" height="11"/>
		<rect x="1548.5" y="278.5" fill="#999999" stroke="#999999" stroke-miterlimit="10" width="43" height="6"/>
		<path fill="#808080" stroke="#808080" stroke-miterlimit="10" d="M1599.5,270.268c0,4.547-3.686,8.232-8.232,8.232h-42.535
			c-4.547,0-8.232-3.686-8.232-8.232v-42.535c0-4.547,3.686-8.232,8.232-8.232h42.535c4.547,0,8.232,3.686,8.232,8.232V270.268z"/>
		<circle fill="#C8C8C8" stroke="#C8C8C8" stroke-miterlimit="10" cx="1570.485" cy="248.5" r="20.924"/>
		<rect x="1552.5" y="107.5" fill="#999999" stroke="#999999" stroke-miterlimit="10" width="34" height="101"/>
		<rect x="1559.5" y="102.5" fill="#999999" stroke="#999999" stroke-miterlimit="10" width="19" height="5"/>
		<path fill="#999999" stroke="#999999" stroke-miterlimit="10" d="M357.5,238.5c0-6.627-7.209-12-16.078-12H182.161
			c-8.87,0-16.661,5.373-16.661,12v10c0,6.627,7.791,12,16.661,12h159.261c8.869,0,16.078-5.373,16.078-12V238.5z"/>
		<rect x="160.5" y="104.5" fill="#999999" stroke="#999999" stroke-miterlimit="10" width="297" height="6"/>
		<rect x="65.5" y="278.5" fill="#999999" stroke="#999999" stroke-miterlimit="10" width="43" height="6"/>
		<path fill="#808080" stroke="#808080" stroke-miterlimit="10" d="M116.5,270.268c0,4.547-3.686,8.232-8.232,8.232H65.732
			c-4.547,0-8.232-3.686-8.232-8.232v-42.535c0-4.547,3.686-8.232,8.232-8.232h42.535c4.547,0,8.232,3.686,8.232,8.232V270.268z"/>
		<circle fill="#C8C8C8" stroke="#C8C8C8" stroke-miterlimit="10" cx="87.485" cy="248.5" r="20.924"/>
		<rect x="79.5" y="284.5" fill="#999999" stroke="#999999" stroke-miterlimit="10" width="15" height="103"/>
		<rect x="66.5" y="385.5" fill="#808080" stroke="#808080" stroke-miterlimit="10" width="1697" height="408"/>
		<rect x="106.5" y="454.5" fill="#999999" stroke="#999999" stroke-miterlimit="10" width="1377" height="11"/>
		<g>
			<path fill="#999999" stroke="#999999" stroke-width="5" stroke-miterlimit="10" d="M1134.5,460.44v94.119
				c0,5.49-4.451,9.94-9.94,9.94H1007.44c-5.49,0-9.94-4.45-9.94-9.94V460.44c0-5.49,4.45-9.94,9.94-9.94h43.3
				c-3.11,1.57-5.24,4.78-5.24,8.5c0.04,3.42,5.88,8.79,9.5,9.5c7.13,2.54,14.92,2.29,21,0c5.96-2.83,9.5-7,9.5-9.5
				c0-3.72-2.131-6.93-5.24-8.5h44.3C1130.049,450.5,1134.5,454.95,1134.5,460.44z"/>
			<path fill="#808080" stroke="#808080" stroke-width="5" stroke-miterlimit="10" d="M1123.5,547.146
				c0,4.614-3.74,8.354-8.354,8.354h-98.291c-4.614,0-8.354-3.74-8.354-8.354v-79.291c0-4.614,3.74-8.354,8.354-8.354h98.291
				c4.614,0,8.354,3.74,8.354,8.354V547.146z"/>
			<rect x="1059.5" y="469.5" fill="#999999" stroke="#999999" stroke-miterlimit="10" width="12" height="170"/>
			<rect x="1021.5" y="481.5" fill="#C8C8C8" stroke="#C8C8C8" stroke-width="5" stroke-miterlimit="10" width="88" height="72"/>
			<rect x="1063.5" y="481.5" fill="#808080" stroke="#808080" stroke-miterlimit="10" width="5" height="72"/>
			<rect x="1103.5" y="481.5" fill="#808080" stroke="#808080" stroke-miterlimit="10" width="4" height="72"/>
			<rect x="1023.5" y="481.5" fill="#808080" stroke="#808080" stroke-miterlimit="10" width="4" height="72"/>
			<path fill="#999999" stroke="#999999" stroke-width="5" stroke-miterlimit="10" d="M1085.5,459c0,2.5-3.54,6.67-9.5,9.5
				c-6.08,2.29-13.87,2.54-21,0c-3.62-0.71-9.46-6.08-9.5-9.5c0-3.72,2.13-6.93,5.24-8.5c1.14-0.57,2.42-0.92,3.76-0.99v-7.01
				c0-6.08,4.92-11,11-11c3.04,0,5.79,1.23,7.78,3.22c1.989,1.99,3.22,4.74,3.22,7.78v7.01c1.34,0.07,2.619,0.42,3.76,0.99
				C1083.369,452.07,1085.5,455.28,1085.5,459z"/>
			<rect x="1039" y="570" fill="none" stroke="#999999" stroke-width="8" stroke-miterlimit="10" width="53" height="25"/>
			<path fill="#999999" stroke="#999999" stroke-miterlimit="10" d="M1097.5,598.23v3.27h4v22h-12v13h6v6h-6v7h-4v-7h-3.36
				c-0.88,4.19-3.29,7.81-6.64,10.24V789.5h-20V652.74c-2.81-2.04-4.951-4.9-6.09-8.24h-3.91v5h-4v-5h-85.21
				c-1.62,1.84-3.99,3-6.64,3h-3.301c-4.89,0-8.85-3.96-8.85-8.85v-0.301c0-3.51,2.04-6.54,5-7.97V460.5h11v169.88
				c1.45,0.7,2.68,1.78,3.549,3.12h84.451v-10h-12v-22h4v-3.27c-2.32-0.74-4-2.91-4-5.48v-10.5c0-3.18,2.57-5.75,5.75-5.75h0.5
				c3.18,0,5.75,2.57,5.75,5.75v10.5c0,2.57-1.68,4.74-4,5.48v3.27h4v11h4v21h3.92c2.271-6.69,8.62-11.5,16.08-11.5
				c8.54,0,15.61,6.3,16.81,14.5h3.19v-24h4v-11h4v-3.27c-2.32-0.74-4-2.91-4-5.48v-10.5c0-3.18,2.57-5.75,5.75-5.75h0.5
				c3.18,0,5.75,2.57,5.75,5.75v10.5C1101.5,595.32,1099.82,597.49,1097.5,598.23z"/>
			<line fill="none" stroke="#999999" stroke-width="5" stroke-miterlimit="10" x1="1065.5" y1="432" x2="1065.5" y2="418"/>
		</g>
		<rect x="106.5" y="730.5" fill="#999999" stroke="#999999" stroke-miterlimit="10" width="408" height="59"/>
		<rect x="106.5" y="607.5" fill="#999999" stroke="#999999" stroke-miterlimit="10" width="226" height="99"/>
		<rect x="106.5" y="712.5" fill="#999999" stroke="#999999" stroke-miterlimit="10" width="461" height="13"/>
		<rect x="514.5" y="635.5" fill="#999999" stroke="#999999" stroke-miterlimit="10" width="37" height="77"/>
		<path fill="#999999" stroke="#999999" stroke-miterlimit="10" d="M595.985,577.51c-0.43,0.391-0.95,0.63-1.49,0.721
			c-0.279,7.5-1.82,14.67-4.409,21.319c0.409,0.16,0.791,0.42,1.109,0.771c1.09,1.22,1,3.09-0.21,4.189
			c-0.93,0.84-2.24,0.99-3.3,0.471c-3.21,6.46-7.44,12.31-12.479,17.35c1.079,1.22,0.989,3.08-0.221,4.18
			c-1.21,1.09-3.07,1.01-4.171-0.18c-11.459,9.57-26.209,15.33-42.301,15.33c-36.468,0-66.058-29.561-66.058-66.03
			c0-17.12,6.529-32.729,17.229-44.46c-0.979-1.21-0.86-3,0.31-4.06c1.1-0.99,2.739-1.011,3.85-0.12
			c4.91-4.51,10.5-8.29,16.601-11.15c-0.711-1.189-0.521-2.76,0.55-3.729c1.221-1.101,3.1-1,4.2,0.21
			c0.33,0.37,0.566,0.81,0.668,1.26c6.17-2.26,12.637-3.61,19.637-3.92v-0.07c0-1.63,1.359-2.96,3-2.96s3,1.33,3,2.96v0.07
			c7,0.29,12.822,1.53,18.732,3.59c0.16-0.42,0.417-0.81,0.767-1.14c1.22-1.101,3.098-1,4.198,0.21
			c0.789,0.88,0.959,2.109,0.529,3.13c6.43,2.899,12.309,6.81,17.439,11.52c1.221-0.95,2.979-0.81,4.029,0.351
			c0.979,1.1,1.011,2.72,0.119,3.83c4.199,4.59,7.751,9.779,10.521,15.42c1.129-0.471,2.489-0.21,3.359,0.75
			c1.09,1.22,1,3.09-0.21,4.189c-0.24,0.21-0.5,0.38-0.779,0.5c2.439,6.38,3.929,13.23,4.27,20.38c0.64,0.101,1.25,0.41,1.72,0.931
			C597.285,574.54,597.195,576.41,595.985,577.51z"/>
		<circle fill="#999999" stroke="#999999" stroke-miterlimit="10" cx="1426.981" cy="513.312" r="2.967"/>
		<path fill="#666666" stroke="#666666" stroke-miterlimit="10" d="M581.485,571.62c0,15.16-7.76,28.51-19.529,36.3l-0.021,0.021
			l-150.1,103.21c-17.761,14.59-40.5,23.34-65.28,23.34c-56.85,0-102.94-46.09-102.94-102.94c0-56.85,46.091-102.939,102.94-102.939
			l191.43-0.49C562.005,528.12,581.485,547.59,581.485,571.62z"/>
		<path fill="#E6E6E6" stroke="#E6E6E6" stroke-width="5" stroke-miterlimit="10" d="M567.43,574.586
			c0,13.899-7.115,26.138-17.904,33.279l-0.019,0.02l-137.612,94.623c-16.282,13.376-37.13,21.397-59.848,21.397
			c-52.12,0-94.376-42.256-94.376-94.375c0-52.121,42.256-94.376,94.376-94.376l175.502-0.449
			C549.568,534.705,567.43,552.556,567.43,574.586z"/>
		<rect x="106.5" y="385.5" fill="#999999" stroke="#999999" stroke-miterlimit="10" width="11" height="80"/>
		<rect x="106.5" y="465.5" fill="#999999" stroke="#999999" stroke-miterlimit="10" width="11" height="142"/>
		<path fill="#999999" stroke="#999999" stroke-miterlimit="10" d="M125.485,458.5c0,5.522-4.735,10-10.577,10h-3.846
			c-5.842,0-10.577-4.478-10.577-10l0,0c0-5.522,4.735-10,10.577-10h3.846C120.75,448.5,125.485,452.978,125.485,458.5
			L125.485,458.5z"/>
		<path fill="#999999" stroke="#999999" stroke-width="5" stroke-miterlimit="10" d="M1343.5,460.44v94.119
			c0,5.49-4.465,9.94-9.955,9.94h-117.119c-5.49,0-9.926-4.45-9.926-9.94V460.44c0-5.49,4.436-9.94,9.926-9.94h43.3
			c-3.11,1.57-5.24,4.78-5.24,8.5c0.04,3.42,5.88,8.79,9.5,9.5c7.13,2.54,14.92,2.29,21,0c5.96-2.83,9.5-7,9.5-9.5
			c0-3.72-2.13-6.93-5.24-8.5h44.3C1339.035,450.5,1343.5,454.95,1343.5,460.44z"/>
		<path fill="#808080" stroke="#808080" stroke-width="5" stroke-miterlimit="10" d="M1332.5,547.146
			c0,4.614-3.74,8.354-8.354,8.354h-98.292c-4.613,0-8.354-3.74-8.354-8.354v-79.291c0-4.614,3.74-8.354,8.354-8.354h98.292
			c4.614,0,8.354,3.74,8.354,8.354V547.146z"/>
		<rect x="1268.5" y="469.5" fill="#999999" stroke="#999999" stroke-miterlimit="10" width="12" height="170"/>
		<rect x="1230.5" y="481.5" fill="#C8C8C8" stroke="#C8C8C8" stroke-width="5" stroke-miterlimit="10" width="88" height="72"/>
		<rect x="1272.5" y="481.5" fill="#808080" stroke="#808080" stroke-miterlimit="10" width="5" height="72"/>
		<rect x="1312.5" y="481.5" fill="#808080" stroke="#808080" stroke-miterlimit="10" width="4" height="72"/>
		<rect x="1232.5" y="481.5" fill="#808080" stroke="#808080" stroke-miterlimit="10" width="4" height="72"/>
		<path fill="#999999" stroke="#999999" stroke-width="5" stroke-miterlimit="10" d="M1294.485,459c0,2.5-3.54,6.67-9.5,9.5
			c-6.08,2.29-13.87,2.54-21,0c-3.62-0.71-9.46-6.08-9.5-9.5c0-3.72,2.138-6.93,5.247-8.5c1.141-0.57,2.768-0.92,3.768-0.99v-7.01
			c0-6.08,4.912-11,10.992-11c3.041,0,5.793,1.23,7.784,3.22c1.989,1.99,3.224,4.74,3.224,7.78v7.01c1,0.07,2.613,0.42,3.752,0.99
			C1292.363,452.07,1294.485,455.28,1294.485,459z"/>
		<rect x="1248" y="570" fill="none" stroke="#999999" stroke-width="8" stroke-miterlimit="10" width="53" height="25"/>
		<path fill="#999999" stroke="#999999" stroke-miterlimit="10" d="M1306.5,598.23v3.27h4v22h-12v13h6v6h-6v7h-4v-7h-3.375
			c-0.88,4.19-3.625,7.81-6.625,10.24V789.5h-20V652.74c-3-2.04-4.965-4.9-6.104-8.24h-3.896v5h-4v-5h-85.225
			c-1.62,1.84-3.99,3-6.641,3h-3.299c-4.891,0-8.836-3.96-8.836-8.85v-0.301c0-3.51,2-6.54,5-7.97V460.5h11v169.88
			c1,0.7,2.666,1.78,3.535,3.12h84.465v-10h-12v-22h4v-3.27c-2-0.74-4-2.91-4-5.48v-10.5c0-3.18,2.556-5.75,5.734-5.75h0.5
			c3.182,0,5.766,2.57,5.766,5.75v10.5c0,2.57-2,4.74-4,5.48v3.27h4v11h4v21h3.905c2.271-6.69,8.62-11.5,16.08-11.5
			c8.54,0,15.61,6.3,16.81,14.5h3.205v-24h4v-11h4v-3.27c-2-0.74-4-2.91-4-5.48v-10.5c0-3.18,2.556-5.75,5.734-5.75h0.5
			c3.182,0,5.766,2.57,5.766,5.75v10.5C1310.5,595.32,1308.5,597.49,1306.5,598.23z"/>
		<path fill="#999999" stroke="#999999" stroke-width="5" stroke-miterlimit="10" d="M1552.5,460.44v94.119
			c0,5.49-4.465,9.94-9.955,9.94h-117.119c-5.49,0-9.926-4.45-9.926-9.94V460.44c0-5.49,4.436-9.94,9.926-9.94h43.3
			c-3.11,1.57-5.24,4.78-5.24,8.5c0.04,3.42,5.88,8.79,9.5,9.5c7.13,2.54,14.92,2.29,21,0c5.96-2.83,9.5-7,9.5-9.5
			c0-3.72-2.13-6.93-5.24-8.5h44.3C1548.035,450.5,1552.5,454.95,1552.5,460.44z"/>
		<path fill="#808080" stroke="#808080" stroke-width="5" stroke-miterlimit="10" d="M1541.5,547.146
			c0,4.614-3.74,8.354-8.354,8.354h-98.292c-4.613,0-8.354-3.74-8.354-8.354v-79.291c0-4.614,3.74-8.354,8.354-8.354h98.292
			c4.614,0,8.354,3.74,8.354,8.354V547.146z"/>
		<rect x="1477.5" y="469.5" fill="#999999" stroke="#999999" stroke-miterlimit="10" width="12" height="170"/>
		<rect x="1439.5" y="481.5" fill="#C8C8C8" stroke="#C8C8C8" stroke-width="5" stroke-miterlimit="10" width="88" height="72"/>
		<rect x="1481.5" y="481.5" fill="#808080" stroke="#808080" stroke-miterlimit="10" width="5" height="72"/>
		<rect x="1521.5" y="481.5" fill="#808080" stroke="#808080" stroke-miterlimit="10" width="4" height="72"/>
		<rect x="1441.5" y="481.5" fill="#808080" stroke="#808080" stroke-miterlimit="10" width="4" height="72"/>
		<path fill="#999999" stroke="#999999" stroke-width="5" stroke-miterlimit="10" d="M1503.485,459c0,2.5-3.54,6.67-9.5,9.5
			c-6.08,2.29-13.87,2.54-21,0c-3.62-0.71-9.46-6.08-9.5-9.5c0-3.72,2.138-6.93,5.247-8.5c1.141-0.57,2.768-0.92,3.768-0.99v-7.01
			c0-6.08,4.912-11,10.992-11c3.041,0,5.793,1.23,7.784,3.22c1.989,1.99,3.224,4.74,3.224,7.78v7.01c1,0.07,2.613,0.42,3.752,0.99
			C1501.363,452.07,1503.485,455.28,1503.485,459z"/>
		<rect x="1457" y="570" fill="none" stroke="#999999" stroke-width="8" stroke-miterlimit="10" width="53" height="25"/>
		<path fill="#999999" stroke="#999999" stroke-miterlimit="10" d="M1515.5,598.23v3.27h4v22h-12v13h6v6h-6v7h-4v-7h-3.375
			c-0.88,4.19-3.625,7.81-6.625,10.24V789.5h-20V652.74c-3-2.04-4.965-4.9-6.104-8.24h-3.896v5h-4v-5h-85.225
			c-1.62,1.84-3.99,3-6.641,3h-3.299c-4.891,0-8.836-3.96-8.836-8.85v-0.301c0-3.51,2-6.54,5-7.97V460.5h11v169.88
			c1,0.7,2.666,1.78,3.535,3.12h84.465v-10h-12v-22h4v-3.27c-2-0.74-4-2.91-4-5.48v-10.5c0-3.18,2.556-5.75,5.734-5.75h0.5
			c3.182,0,5.766,2.57,5.766,5.75v10.5c0,2.57-2,4.74-4,5.48v3.27h4v11h4v21h3.905c2.271-6.69,8.62-11.5,16.08-11.5
			c8.54,0,15.61,6.3,16.81,14.5h3.205v-24h4v-11h4v-3.27c-2-0.74-4-2.91-4-5.48v-10.5c0-3.18,2.556-5.75,5.734-5.75h0.5
			c3.182,0,5.766,2.57,5.766,5.75v10.5C1519.5,595.32,1517.5,597.49,1515.5,598.23z"/>
		<path fill="#999999" stroke="#999999" stroke-miterlimit="10" d="M1675.5,418.917c0-1.887-2.098-3.417-4.43-3.417h-604.34
			c-2.33,0-4.23,1.53-4.23,3.417v0.166c0,1.887,1.9,3.417,4.23,3.417h604.34c2.332,0,4.43-1.53,4.43-3.417V418.917z"/>
		<line fill="none" stroke="#999999" stroke-width="5" stroke-miterlimit="10" x1="1274.5" y1="432" x2="1274.5" y2="418"/>
		<line fill="none" stroke="#999999" stroke-width="5" stroke-miterlimit="10" x1="1483.5" y1="432" x2="1483.5" y2="419"/>
		<path fill="#999999" stroke="#999999" stroke-miterlimit="10" d="M1675.5,614.348c0,3.121-1.567,5.652-3.5,5.652l0,0
			c-1.934,0-3.5-2.531-3.5-5.652V421.152c0-3.121,1.566-5.652,3.5-5.652l0,0c1.933,0,3.5,2.531,3.5,5.652V614.348z"/>
		<rect x="1703.5" y="440.5" fill="#999999" stroke="#999999" stroke-miterlimit="10" width="12" height="10"/>
		<rect x="1679.5" y="425.5" fill="#999999" stroke="#999999" stroke-miterlimit="10" width="4" height="37"/>
		<rect x="1679.5" y="425.5" fill="#999999" stroke="#999999" stroke-miterlimit="10" width="32" height="4"/>
		<rect x="1707.5" y="425.5" fill="#999999" stroke="#999999" stroke-miterlimit="10" width="4" height="19"/>
		<path fill="#999999" stroke="#999999" stroke-miterlimit="10" d="M1728.5,607.5v26c0,6.63-5.385,12-12.015,12h-0.985v144h-12v-144
			c-7,0-12-5.37-12-12v-26c0-4.85,3-9.02,7-10.92V450.5h22v145.69C1725.5,597.83,1728.5,602.27,1728.5,607.5z"/>
		<path fill="#999999" stroke="#999999" stroke-miterlimit="10" d="M1719.544,613.5c0.796,0,1.441,1.567,1.441,3.5l0,0
			c0,1.933-0.646,3.5-1.441,3.5h-49.243c-0.795,0-1.44-1.567-1.44-3.5l0,0c0-1.933,0.646-3.5,1.44-3.5H1719.544z"/>
		<path fill="#999999" stroke="#999999" stroke-miterlimit="10" d="M1680.5,616.5c0,3.313-2.687,6-6,6h-4c-3.314,0-6-2.687-6-6l0,0
			c0-3.313,2.686-6,6-6h4C1677.813,610.5,1680.5,613.187,1680.5,616.5L1680.5,616.5z"/>
		<rect x="1251.5" y="789.5" fill="#333333" stroke="#333333" stroke-miterlimit="10" width="47" height="4"/>
		<rect x="1041.5" y="789.5" fill="#333333" stroke="#333333" stroke-miterlimit="10" width="47" height="4"/>
		<rect x="1460.5" y="789.5" fill="#333333" stroke="#333333" stroke-miterlimit="10" width="47" height="4"/>
		<rect x="1686.5" y="789.5" fill="#333333" stroke="#333333" stroke-miterlimit="10" width="47" height="4"/>
		<rect x="95.5" y="789.5" fill="#333333" stroke="#333333" stroke-miterlimit="10" width="431" height="4"/>
		<rect x="1481.5" y="462.5" fill="#999999" stroke="#999999" stroke-miterlimit="10" width="202" height="6"/>
		<g>
			<path fill="#808080" stroke="#808080" stroke-miterlimit="10" d="M126.5,107.009c0,9.976,0,28.592,0,37.055
				c0,7.66,4.549,6.436,7.473,6.436c8.001,0,85.877,0,85.877,0c2.35-1,2.783-3.132,2.79-4.287c0-6.592-3.377-7.488-3.377-7.488
				l-85.29-34.207c0,0-3.951-2.035-5.865-2.317C126.566,102.201,126.5,103.984,126.5,107.009z"/>
			<path fill="#E6E6E6" stroke="#999999" stroke-width="0.25" stroke-miterlimit="10" d="M143.682,115.141
				c0,0,3.849-0.019,6.491-0.019c2.642,0,2.814,3.384,3.967,5.794c1.22,2.287,3.601,1.696,6.508,0
				c2.418-1.689,13.474-10.216,13.474-10.216s2.196-2.033,0.011-5.286c-11.334-13.316-30.45-13.214-30.45-13.214
				s-19.18-0.102-30.514,13.214c-2.186,3.252,0.018,5.286,0.018,5.286s11.06,8.527,13.478,10.216c2.908,1.696,5.291,2.287,6.51,0
				c1.152-2.41,1.326-5.794,3.969-5.794C139.783,115.122,143.682,115.141,143.682,115.141z"/>
			<rect x="140.5" y="147.5" fill="#808080" stroke="#808080" stroke-miterlimit="10" width="7" height="23"/>
			<circle fill="#999999" stroke="#999999" stroke-width="0.25" stroke-miterlimit="10" cx="143.651" cy="133.342" r="13.846"/>
			<rect x="173.5" y="134.5" fill="#999999" stroke="#999999" stroke-miterlimit="10" width="44" height="20"/>
			<rect x="186.5" y="136.5" fill="#C8C8C8" stroke="#C8C8C8" stroke-miterlimit="10" width="23" height="2"/>
			<rect x="186.5" y="150.5" fill="#C8C8C8" stroke="#C8C8C8" stroke-miterlimit="10" width="23" height="2"/>
			<rect x="181.5" y="131.5" fill="#C8C8C8" stroke="#999999" stroke-miterlimit="10" width="5" height="27"/>
			<rect x="209.5" y="131.5" fill="#C8C8C8" stroke="#999999" stroke-miterlimit="10" width="5" height="27"/>
			<rect x="179.5" y="135.5" fill="#C8C8C8" stroke="#C8C8C8" stroke-miterlimit="10" width="1" height="4"/>
			<rect x="215.5" y="135.5" fill="#C8C8C8" stroke="#C8C8C8" stroke-miterlimit="10" width="1" height="4"/>
			<path fill="#999999" stroke="#999999" stroke-miterlimit="10" d="M227.711,144.702c0,3.284-2.662,5.949-5.946,5.949
				c-0.461,0-0.906-0.15-1.336-0.15H217.5v-12h2.929c0.43,0,0.875,0.052,1.336,0.052
				C225.049,138.552,227.711,141.417,227.711,144.702z"/>
			<path fill="#C8C8C8" stroke="#C8C8C8" stroke-miterlimit="10" d="M172.5,142.5v5h-31.402c-3.133,0-5.764,0.336-6.554,0.62
				c-0.157,0.058-0.243,0.182-0.243,0.243c-0.651,0.442-1.438,0.73-2.285,0.73c-2.264,0-4.098-1.827-4.098-4.101
				c0-2.275,1.834-4.109,4.098-4.109c0.847,0,1.634,0.26,2.285,0.703c0,0.061,0.083,0.243,0.242,0.297
				c0.791,0.287,3.447,0.618,6.604,0.618H172.5z"/>
			<polygon fill="#333333" stroke="#333333" stroke-width="0.25" stroke-miterlimit="10" points="137.797,146.25 182.28,101.422 
				175.497,94.585 131.014,139.414 127.013,150.282 			"/>
			<path fill="#C1272D" stroke="#C1272D" stroke-miterlimit="10" d="M210.697,66.343c2.799,2.799,3.058,7.078,0.577,9.558
				l-27.323,27.324l-10.135-10.135l27.323-27.324C203.619,63.286,207.898,63.544,210.697,66.343z"/>
			<circle fill="#C8C8C8" stroke="#C8C8C8" stroke-width="0.25" stroke-miterlimit="10" cx="143.651" cy="133.342" r="3.02"/>
			<circle fill="#C8C8C8" stroke="#C8C8C8" stroke-width="0.25" stroke-miterlimit="10" cx="129.747" cy="117.942" r="3.049"/>
			<circle fill="#C8C8C8" stroke="#C8C8C8" stroke-width="0.25" stroke-miterlimit="10" cx="222.451" cy="144.702" r="2.973"/>
			<circle fill="#C8C8C8" stroke="#C8C8C8" stroke-width="0.25" stroke-miterlimit="10" cx="132.11" cy="145.007" r="2.439"/>
			<rect x="179.5" y="149.5" fill="#C8C8C8" stroke="#C8C8C8" stroke-miterlimit="10" width="1" height="4"/>
			<rect x="215.5" y="149.5" fill="#C8C8C8" stroke="#C8C8C8" stroke-miterlimit="10" width="1" height="4"/>
		</g>
		<g>
			<path fill="#808080" stroke="#808080" stroke-miterlimit="10" d="M1651.5,324.01c0,9.976,0,28.592,0,37.055
				c0,7.66,4.549,6.436,7.473,6.436c8.001,0,85.877,0,85.877,0c2.35-1,2.783-3.132,2.79-4.287c0-6.592-3.378-7.488-3.378-7.488
				l-85.289-34.207c0,0-3.951-2.034-5.865-2.316C1651.566,319.201,1651.5,320.984,1651.5,324.01z"/>
			<path fill="#E6E6E6" stroke="#999999" stroke-width="0.25" stroke-miterlimit="10" d="M1668.682,332.141
				c0,0,3.849-0.019,6.491-0.019c2.642,0,2.813,3.384,3.967,5.794c1.22,2.287,3.601,1.695,6.508,0
				c2.418-1.689,13.474-10.216,13.474-10.216s2.196-2.033,0.011-5.286c-11.334-13.315-30.45-13.214-30.45-13.214
				s-19.18-0.102-30.514,13.214c-2.186,3.253,0.018,5.286,0.018,5.286s11.06,8.526,13.478,10.216c2.907,1.695,5.29,2.287,6.51,0
				c1.152-2.41,1.327-5.794,3.969-5.794S1668.682,332.141,1668.682,332.141z"/>
			<rect x="1665.5" y="364.5" fill="#808080" stroke="#808080" stroke-miterlimit="10" width="7" height="23"/>
			<circle fill="#999999" stroke="#999999" stroke-width="0.25" stroke-miterlimit="10" cx="1668.651" cy="350.342" r="13.846"/>
			<rect x="1698.5" y="351.5" fill="#999999" stroke="#999999" stroke-miterlimit="10" width="44" height="20"/>
			<rect x="1711.5" y="353.5" fill="#C8C8C8" stroke="#C8C8C8" stroke-miterlimit="10" width="23" height="2"/>
			<rect x="1711.5" y="367.5" fill="#C8C8C8" stroke="#C8C8C8" stroke-miterlimit="10" width="23" height="2"/>
			<rect x="1706.5" y="348.5" fill="#C8C8C8" stroke="#999999" stroke-miterlimit="10" width="5" height="27"/>
			<rect x="1734.5" y="348.5" fill="#C8C8C8" stroke="#999999" stroke-miterlimit="10" width="5" height="27"/>
			<rect x="1704.5" y="352.5" fill="#C8C8C8" stroke="#C8C8C8" stroke-miterlimit="10" width="1" height="4"/>
			<rect x="1740.5" y="352.5" fill="#C8C8C8" stroke="#C8C8C8" stroke-miterlimit="10" width="1" height="4"/>
			<path fill="#999999" stroke="#999999" stroke-miterlimit="10" d="M1752.711,361.701c0,3.285-2.662,5.949-5.946,5.949
				c-0.461,0-0.906-0.15-1.336-0.15h-2.929v-12h2.929c0.43,0,0.875,0.052,1.336,0.052
				C1750.049,355.552,1752.711,358.418,1752.711,361.701z"/>
			<path fill="#C8C8C8" stroke="#C8C8C8" stroke-miterlimit="10" d="M1697.5,359.5v5h-31.402c-3.133,0-5.764,0.336-6.554,0.619
				c-0.157,0.059-0.243,0.183-0.243,0.243c-0.651,0.442-1.438,0.729-2.285,0.729c-2.264,0-4.098-1.826-4.098-4.101
				s1.834-4.109,4.098-4.109c0.847,0,1.634,0.261,2.285,0.702c0,0.062,0.083,0.243,0.242,0.298c0.791,0.287,3.447,0.618,6.604,0.618
				H1697.5z"/>
			<polygon fill="#333333" stroke="#333333" stroke-width="0.25" stroke-miterlimit="10" points="1662.797,363.25 1707.28,318.422 
				1700.497,311.586 1656.014,356.414 1652.013,367.281 			"/>
			<path fill="#C1272D" stroke="#C1272D" stroke-width="0.25" stroke-miterlimit="10" d="M1735.697,283.343
				c2.799,2.799,3.058,7.077,0.577,9.558l-27.323,27.324l-10.135-10.135l27.322-27.324
				C1728.619,280.286,1732.898,280.544,1735.697,283.343z"/>
			<circle fill="#C8C8C8" stroke="#C8C8C8" stroke-width="0.25" stroke-miterlimit="10" cx="1668.651" cy="350.342" r="3.019"/>
			<circle fill="#C8C8C8" stroke="#C8C8C8" stroke-width="0.25" stroke-miterlimit="10" cx="1654.747" cy="334.942" r="3.049"/>
			<circle fill="#C8C8C8" stroke="#C8C8C8" stroke-width="0.25" stroke-miterlimit="10" cx="1747.451" cy="361.701" r="2.973"/>
			<circle fill="#C8C8C8" stroke="#C8C8C8" stroke-width="0.25" stroke-miterlimit="10" cx="1657.109" cy="362.007" r="2.439"/>
			<rect x="1704.5" y="366.5" fill="#C8C8C8" stroke="#C8C8C8" stroke-miterlimit="10" width="1" height="4"/>
			<rect x="1740.5" y="366.5" fill="#C8C8C8" stroke="#C8C8C8" stroke-miterlimit="10" width="1" height="4"/>
			<rect x="1645.5" y="380.5" fill="#333333" stroke="#333333" stroke-miterlimit="10" width="47" height="4"/>
		</g>
		<g>
			<path fill="#808080" stroke="#808080" stroke-miterlimit="10" d="M1516.5,324.01c0,9.976,0,28.592,0,37.055
				c0,7.66,4.549,6.436,7.473,6.436c8.001,0,85.877,0,85.877,0c2.35-1,2.783-3.132,2.79-4.287c0-6.592-3.377-7.488-3.377-7.488
				l-85.29-34.207c0,0-3.951-2.034-5.865-2.316C1516.566,319.201,1516.5,320.984,1516.5,324.01z"/>
			<path fill="#E6E6E6" stroke="#999999" stroke-width="0.25" stroke-miterlimit="10" d="M1533.682,332.141
				c0,0,3.849-0.019,6.491-0.019c2.642,0,2.813,3.384,3.967,5.794c1.22,2.287,3.601,1.695,6.508,0
				c2.418-1.689,13.474-10.216,13.474-10.216s2.196-2.033,0.011-5.286c-11.334-13.315-30.45-13.214-30.45-13.214
				s-19.18-0.102-30.514,13.214c-2.186,3.253,0.018,5.286,0.018,5.286s11.06,8.526,13.478,10.216c2.907,1.695,5.29,2.287,6.51,0
				c1.152-2.41,1.327-5.794,3.969-5.794S1533.682,332.141,1533.682,332.141z"/>
			<rect x="1530.5" y="364.5" fill="#808080" stroke="#808080" stroke-miterlimit="10" width="7" height="23"/>
			<circle fill="#999999" stroke="#999999" stroke-width="0.25" stroke-miterlimit="10" cx="1533.651" cy="350.342" r="13.846"/>
			<rect x="1563.5" y="351.5" fill="#999999" stroke="#999999" stroke-miterlimit="10" width="44" height="20"/>
			<rect x="1576.5" y="353.5" fill="#C8C8C8" stroke="#C8C8C8" stroke-miterlimit="10" width="23" height="2"/>
			<rect x="1576.5" y="367.5" fill="#C8C8C8" stroke="#C8C8C8" stroke-miterlimit="10" width="23" height="2"/>
			<rect x="1571.5" y="348.5" fill="#C8C8C8" stroke="#999999" stroke-miterlimit="10" width="5" height="27"/>
			<rect x="1599.5" y="348.5" fill="#C8C8C8" stroke="#999999" stroke-miterlimit="10" width="5" height="27"/>
			<rect x="1569.5" y="352.5" fill="#C8C8C8" stroke="#C8C8C8" stroke-miterlimit="10" width="1" height="4"/>
			<rect x="1605.5" y="352.5" fill="#C8C8C8" stroke="#C8C8C8" stroke-miterlimit="10" width="1" height="4"/>
			<path fill="#999999" stroke="#999999" stroke-miterlimit="10" d="M1617.711,361.701c0,3.285-2.662,5.949-5.946,5.949
				c-0.462,0-0.906-0.15-1.336-0.15h-2.929v-12h2.929c0.43,0,0.874,0.052,1.336,0.052
				C1615.049,355.552,1617.711,358.418,1617.711,361.701z"/>
			<path fill="#C8C8C8" stroke="#C8C8C8" stroke-miterlimit="10" d="M1562.5,359.5v5h-31.402c-3.133,0-5.764,0.336-6.554,0.619
				c-0.157,0.059-0.243,0.183-0.243,0.243c-0.651,0.442-1.438,0.729-2.285,0.729c-2.264,0-4.098-1.826-4.098-4.101
				s1.834-4.109,4.098-4.109c0.847,0,1.634,0.261,2.285,0.702c0,0.062,0.083,0.243,0.242,0.298c0.791,0.287,3.447,0.618,6.604,0.618
				H1562.5z"/>
			<polygon fill="#333333" stroke="#333333" stroke-width="0.25" stroke-miterlimit="10" points="1527.797,363.25 1572.28,318.422 
				1565.497,311.586 1521.014,356.414 1517.013,367.281 			"/>
			<path fill="#C1272D" stroke="#C1272D" stroke-width="0.25" stroke-miterlimit="10" d="M1600.697,283.343
				c2.799,2.799,3.057,7.077,0.577,9.558l-27.323,27.324l-10.135-10.135l27.323-27.324
				C1593.619,280.286,1597.898,280.544,1600.697,283.343z"/>
			<circle fill="#C8C8C8" stroke="#C8C8C8" stroke-width="0.25" stroke-miterlimit="10" cx="1533.651" cy="350.342" r="3.019"/>
			<circle fill="#C8C8C8" stroke="#C8C8C8" stroke-width="0.25" stroke-miterlimit="10" cx="1519.747" cy="334.942" r="3.049"/>
			<circle fill="#C8C8C8" stroke="#C8C8C8" stroke-width="0.25" stroke-miterlimit="10" cx="1612.451" cy="361.701" r="2.973"/>
			<circle fill="#C8C8C8" stroke="#C8C8C8" stroke-width="0.25" stroke-miterlimit="10" cx="1522.109" cy="362.007" r="2.439"/>
			<rect x="1569.5" y="366.5" fill="#C8C8C8" stroke="#C8C8C8" stroke-miterlimit="10" width="1" height="4"/>
			<rect x="1605.5" y="366.5" fill="#C8C8C8" stroke="#C8C8C8" stroke-miterlimit="10" width="1" height="4"/>
			<rect x="1510.5" y="380.5" fill="#333333" stroke="#333333" stroke-miterlimit="10" width="47" height="4"/>
		</g>
		<g>
			<path fill="#808080" stroke="#808080" stroke-miterlimit="10" d="M1381.5,324.01c0,9.976,0,28.592,0,37.055
				c0,7.66,4.549,6.436,7.473,6.436c8.001,0,85.877,0,85.877,0c2.35-1,2.783-3.132,2.79-4.287c0-6.592-3.377-7.488-3.377-7.488
				l-85.29-34.207c0,0-3.951-2.034-5.865-2.316C1381.566,319.201,1381.5,320.984,1381.5,324.01z"/>
			<path fill="#E6E6E6" stroke="#999999" stroke-width="0.25" stroke-miterlimit="10" d="M1398.682,332.141
				c0,0,3.849-0.019,6.491-0.019c2.642,0,2.813,3.384,3.967,5.794c1.22,2.287,3.601,1.695,6.508,0
				c2.418-1.689,13.474-10.216,13.474-10.216s2.196-2.033,0.011-5.286c-11.334-13.315-30.45-13.214-30.45-13.214
				s-19.18-0.102-30.514,13.214c-2.186,3.253,0.018,5.286,0.018,5.286s11.06,8.526,13.478,10.216c2.907,1.695,5.29,2.287,6.51,0
				c1.152-2.41,1.327-5.794,3.969-5.794S1398.682,332.141,1398.682,332.141z"/>
			<rect x="1395.5" y="364.5" fill="#808080" stroke="#808080" stroke-miterlimit="10" width="7" height="23"/>
			<circle fill="#999999" stroke="#999999" stroke-width="0.25" stroke-miterlimit="10" cx="1398.651" cy="350.342" r="13.846"/>
			<rect x="1428.5" y="351.5" fill="#999999" stroke="#999999" stroke-miterlimit="10" width="44" height="20"/>
			<rect x="1441.5" y="353.5" fill="#C8C8C8" stroke="#C8C8C8" stroke-miterlimit="10" width="23" height="2"/>
			<rect x="1441.5" y="367.5" fill="#C8C8C8" stroke="#C8C8C8" stroke-miterlimit="10" width="23" height="2"/>
			<rect x="1436.5" y="348.5" fill="#C8C8C8" stroke="#999999" stroke-miterlimit="10" width="5" height="27"/>
			<rect x="1464.5" y="348.5" fill="#C8C8C8" stroke="#999999" stroke-miterlimit="10" width="5" height="27"/>
			<rect x="1434.5" y="352.5" fill="#C8C8C8" stroke="#C8C8C8" stroke-miterlimit="10" width="1" height="4"/>
			<rect x="1470.5" y="352.5" fill="#C8C8C8" stroke="#C8C8C8" stroke-miterlimit="10" width="1" height="4"/>
			<path fill="#999999" stroke="#999999" stroke-miterlimit="10" d="M1482.711,361.701c0,3.285-2.662,5.949-5.946,5.949
				c-0.462,0-0.906-0.15-1.336-0.15h-2.929v-12h2.929c0.43,0,0.874,0.052,1.336,0.052
				C1480.049,355.552,1482.711,358.418,1482.711,361.701z"/>
			<path fill="#C8C8C8" stroke="#C8C8C8" stroke-miterlimit="10" d="M1427.5,359.5v5h-31.402c-3.133,0-5.764,0.336-6.554,0.619
				c-0.157,0.059-0.243,0.183-0.243,0.243c-0.651,0.442-1.438,0.729-2.285,0.729c-2.264,0-4.098-1.826-4.098-4.101
				s1.834-4.109,4.098-4.109c0.847,0,1.634,0.261,2.285,0.702c0,0.062,0.083,0.243,0.242,0.298c0.791,0.287,3.447,0.618,6.604,0.618
				H1427.5z"/>
			<polygon fill="#333333" stroke="#333333" stroke-width="0.25" stroke-miterlimit="10" points="1392.797,363.25 1437.28,318.422 
				1430.497,311.586 1386.014,356.414 1382.013,367.281 			"/>
			<path fill="#C1272D" stroke="#C1272D" stroke-width="0.25" stroke-miterlimit="10" d="M1465.697,283.343
				c2.799,2.799,3.057,7.077,0.577,9.558l-27.323,27.324l-10.135-10.135l27.323-27.324
				C1458.619,280.286,1462.898,280.544,1465.697,283.343z"/>
			<circle fill="#C8C8C8" stroke="#C8C8C8" stroke-width="0.25" stroke-miterlimit="10" cx="1398.651" cy="350.342" r="3.019"/>
			<circle fill="#C8C8C8" stroke="#C8C8C8" stroke-width="0.25" stroke-miterlimit="10" cx="1384.747" cy="334.942" r="3.049"/>
			<circle fill="#C8C8C8" stroke="#C8C8C8" stroke-width="0.25" stroke-miterlimit="10" cx="1477.451" cy="361.701" r="2.973"/>
			<circle fill="#C8C8C8" stroke="#C8C8C8" stroke-width="0.25" stroke-miterlimit="10" cx="1387.109" cy="362.007" r="2.439"/>
			<rect x="1434.5" y="366.5" fill="#C8C8C8" stroke="#C8C8C8" stroke-miterlimit="10" width="1" height="4"/>
			<rect x="1470.5" y="366.5" fill="#C8C8C8" stroke="#C8C8C8" stroke-miterlimit="10" width="1" height="4"/>
			<rect x="1375.5" y="380.5" fill="#333333" stroke="#333333" stroke-miterlimit="10" width="47" height="4"/>
		</g>
		<g>
			<path fill="#808080" stroke="#808080" stroke-miterlimit="10" d="M1246.5,324.01c0,9.976,0,28.592,0,37.055
				c0,7.66,4.549,6.436,7.473,6.436c8.001,0,85.877,0,85.877,0c2.35-1,2.783-3.132,2.79-4.287c0-6.592-3.377-7.488-3.377-7.488
				l-85.29-34.207c0,0-3.951-2.034-5.865-2.316C1246.566,319.201,1246.5,320.984,1246.5,324.01z"/>
			<path fill="#E6E6E6" stroke="#999999" stroke-width="0.25" stroke-miterlimit="10" d="M1263.682,332.141
				c0,0,3.849-0.019,6.491-0.019c2.642,0,2.813,3.384,3.967,5.794c1.22,2.287,3.601,1.695,6.508,0
				c2.418-1.689,13.474-10.216,13.474-10.216s2.196-2.033,0.011-5.286c-11.334-13.315-30.45-13.214-30.45-13.214
				s-19.18-0.102-30.514,13.214c-2.186,3.253,0.018,5.286,0.018,5.286s11.06,8.526,13.478,10.216c2.907,1.695,5.29,2.287,6.51,0
				c1.152-2.41,1.327-5.794,3.969-5.794S1263.682,332.141,1263.682,332.141z"/>
			<rect x="1260.5" y="364.5" fill="#808080" stroke="#808080" stroke-miterlimit="10" width="7" height="23"/>
			<circle fill="#999999" stroke="#999999" stroke-width="0.25" stroke-miterlimit="10" cx="1263.651" cy="350.342" r="13.846"/>
			<rect x="1293.5" y="351.5" fill="#999999" stroke="#999999" stroke-miterlimit="10" width="44" height="20"/>
			<rect x="1306.5" y="353.5" fill="#C8C8C8" stroke="#C8C8C8" stroke-miterlimit="10" width="23" height="2"/>
			<rect x="1306.5" y="367.5" fill="#C8C8C8" stroke="#C8C8C8" stroke-miterlimit="10" width="23" height="2"/>
			<rect x="1301.5" y="348.5" fill="#C8C8C8" stroke="#999999" stroke-miterlimit="10" width="5" height="27"/>
			<rect x="1329.5" y="348.5" fill="#C8C8C8" stroke="#999999" stroke-miterlimit="10" width="5" height="27"/>
			<rect x="1299.5" y="352.5" fill="#C8C8C8" stroke="#C8C8C8" stroke-miterlimit="10" width="1" height="4"/>
			<rect x="1335.5" y="352.5" fill="#C8C8C8" stroke="#C8C8C8" stroke-miterlimit="10" width="1" height="4"/>
			<path fill="#999999" stroke="#999999" stroke-miterlimit="10" d="M1347.711,361.701c0,3.285-2.662,5.949-5.946,5.949
				c-0.462,0-0.906-0.15-1.336-0.15h-2.929v-12h2.929c0.43,0,0.874,0.052,1.336,0.052
				C1345.049,355.552,1347.711,358.418,1347.711,361.701z"/>
			<path fill="#C8C8C8" stroke="#C8C8C8" stroke-miterlimit="10" d="M1292.5,359.5v5h-31.402c-3.133,0-5.764,0.336-6.554,0.619
				c-0.157,0.059-0.243,0.183-0.243,0.243c-0.651,0.442-1.438,0.729-2.285,0.729c-2.264,0-4.098-1.826-4.098-4.101
				s1.834-4.109,4.098-4.109c0.847,0,1.634,0.261,2.285,0.702c0,0.062,0.083,0.243,0.242,0.298c0.791,0.287,3.447,0.618,6.604,0.618
				H1292.5z"/>
			<polygon fill="#333333" stroke="#333333" stroke-width="0.25" stroke-miterlimit="10" points="1257.797,363.25 1302.28,318.422 
				1295.497,311.586 1251.014,356.414 1247.013,367.281 			"/>
			<path fill="#C1272D" stroke="#C1272D" stroke-width="0.25" stroke-miterlimit="10" d="M1330.697,283.343
				c2.799,2.799,3.058,7.077,0.577,9.558l-27.323,27.324l-10.135-10.135l27.323-27.324
				C1323.619,280.286,1327.898,280.544,1330.697,283.343z"/>
			<circle fill="#C8C8C8" stroke="#C8C8C8" stroke-width="0.25" stroke-miterlimit="10" cx="1263.651" cy="350.342" r="3.019"/>
			<circle fill="#C8C8C8" stroke="#C8C8C8" stroke-width="0.25" stroke-miterlimit="10" cx="1249.747" cy="334.942" r="3.049"/>
			<circle fill="#C8C8C8" stroke="#C8C8C8" stroke-width="0.25" stroke-miterlimit="10" cx="1342.451" cy="361.701" r="2.973"/>
			<circle fill="#C8C8C8" stroke="#C8C8C8" stroke-width="0.25" stroke-miterlimit="10" cx="1252.109" cy="362.007" r="2.439"/>
			<rect x="1299.5" y="366.5" fill="#C8C8C8" stroke="#C8C8C8" stroke-miterlimit="10" width="1" height="4"/>
			<rect x="1335.5" y="366.5" fill="#C8C8C8" stroke="#C8C8C8" stroke-miterlimit="10" width="1" height="4"/>
			<rect x="1240.5" y="380.5" fill="#333333" stroke="#333333" stroke-miterlimit="10" width="47" height="4"/>
		</g>
		<g>
			<path fill="#808080" stroke="#808080" stroke-miterlimit="10" d="M1111.5,324.01c0,9.976,0,28.592,0,37.055
				c0,7.66,4.549,6.436,7.473,6.436c8.001,0,85.877,0,85.877,0c2.35-1,2.783-3.132,2.79-4.287c0-6.592-3.377-7.488-3.377-7.488
				l-85.29-34.207c0,0-3.951-2.034-5.865-2.316C1111.566,319.201,1111.5,320.984,1111.5,324.01z"/>
			<path fill="#E6E6E6" stroke="#999999" stroke-width="0.25" stroke-miterlimit="10" d="M1128.682,332.141
				c0,0,3.849-0.019,6.491-0.019c2.642,0,2.813,3.384,3.967,5.794c1.22,2.287,3.601,1.695,6.508,0
				c2.418-1.689,13.474-10.216,13.474-10.216s2.196-2.033,0.011-5.286c-11.334-13.315-30.45-13.214-30.45-13.214
				s-19.18-0.102-30.514,13.214c-2.186,3.253,0.018,5.286,0.018,5.286s11.06,8.526,13.478,10.216c2.908,1.695,5.29,2.287,6.51,0
				c1.152-2.41,1.327-5.794,3.969-5.794S1128.682,332.141,1128.682,332.141z"/>
			<rect x="1125.5" y="364.5" fill="#808080" stroke="#808080" stroke-miterlimit="10" width="7" height="23"/>
			<circle fill="#999999" stroke="#999999" stroke-width="0.25" stroke-miterlimit="10" cx="1128.651" cy="350.342" r="13.846"/>
			<rect x="1158.5" y="351.5" fill="#999999" stroke="#999999" stroke-miterlimit="10" width="44" height="20"/>
			<rect x="1171.5" y="353.5" fill="#C8C8C8" stroke="#C8C8C8" stroke-miterlimit="10" width="23" height="2"/>
			<rect x="1171.5" y="367.5" fill="#C8C8C8" stroke="#C8C8C8" stroke-miterlimit="10" width="23" height="2"/>
			<rect x="1166.5" y="348.5" fill="#C8C8C8" stroke="#999999" stroke-miterlimit="10" width="5" height="27"/>
			<rect x="1194.5" y="348.5" fill="#C8C8C8" stroke="#999999" stroke-miterlimit="10" width="5" height="27"/>
			<rect x="1164.5" y="352.5" fill="#C8C8C8" stroke="#C8C8C8" stroke-miterlimit="10" width="1" height="4"/>
			<rect x="1200.5" y="352.5" fill="#C8C8C8" stroke="#C8C8C8" stroke-miterlimit="10" width="1" height="4"/>
			<path fill="#999999" stroke="#999999" stroke-miterlimit="10" d="M1212.711,361.701c0,3.285-2.662,5.949-5.946,5.949
				c-0.462,0-0.906-0.15-1.336-0.15h-2.929v-12h2.929c0.43,0,0.874,0.052,1.336,0.052
				C1210.049,355.552,1212.711,358.418,1212.711,361.701z"/>
			<path fill="#C8C8C8" stroke="#C8C8C8" stroke-miterlimit="10" d="M1157.5,359.5v5h-31.402c-3.133,0-5.764,0.336-6.554,0.619
				c-0.157,0.059-0.243,0.183-0.243,0.243c-0.651,0.442-1.438,0.729-2.285,0.729c-2.264,0-4.098-1.826-4.098-4.101
				s1.834-4.109,4.098-4.109c0.847,0,1.634,0.261,2.285,0.702c0,0.062,0.083,0.243,0.242,0.298c0.791,0.287,3.447,0.618,6.604,0.618
				H1157.5z"/>
			<polygon fill="#333333" stroke="#333333" stroke-width="0.25" stroke-miterlimit="10" points="1122.797,363.25 1167.28,318.422 
				1160.497,311.586 1116.014,356.414 1112.013,367.281 			"/>
			<path fill="#C1272D" stroke="#C1272D" stroke-width="0.25" stroke-miterlimit="10" d="M1195.697,283.343
				c2.799,2.799,3.058,7.077,0.577,9.558l-27.323,27.324l-10.135-10.135l27.323-27.324
				C1188.619,280.286,1192.898,280.544,1195.697,283.343z"/>
			<circle fill="#C8C8C8" stroke="#C8C8C8" stroke-width="0.25" stroke-miterlimit="10" cx="1128.651" cy="350.342" r="3.019"/>
			<circle fill="#C8C8C8" stroke="#C8C8C8" stroke-width="0.25" stroke-miterlimit="10" cx="1114.747" cy="334.942" r="3.049"/>
			<circle fill="#C8C8C8" stroke="#C8C8C8" stroke-width="0.25" stroke-miterlimit="10" cx="1207.451" cy="361.701" r="2.973"/>
			<circle fill="#C8C8C8" stroke="#C8C8C8" stroke-width="0.25" stroke-miterlimit="10" cx="1117.109" cy="362.007" r="2.439"/>
			<rect x="1164.5" y="366.5" fill="#C8C8C8" stroke="#C8C8C8" stroke-miterlimit="10" width="1" height="4"/>
			<rect x="1200.5" y="366.5" fill="#C8C8C8" stroke="#C8C8C8" stroke-miterlimit="10" width="1" height="4"/>
			<rect x="1105.5" y="380.5" fill="#333333" stroke="#333333" stroke-miterlimit="10" width="47" height="4"/>
		</g>
		<g>
			<path fill="#808080" stroke="#808080" stroke-miterlimit="10" d="M976.5,324.01c0,9.976,0,28.592,0,37.055
				c0,7.66,4.549,6.436,7.473,6.436c8.001,0,85.877,0,85.877,0c2.35-1,2.783-3.132,2.79-4.287c0-6.592-3.377-7.488-3.377-7.488
				l-85.29-34.207c0,0-3.951-2.034-5.865-2.316C976.566,319.201,976.5,320.984,976.5,324.01z"/>
			<path fill="#E6E6E6" stroke="#999999" stroke-width="0.25" stroke-miterlimit="10" d="M993.682,332.141
				c0,0,3.849-0.019,6.491-0.019c2.642,0,2.813,3.384,3.967,5.794c1.22,2.287,3.601,1.695,6.508,0
				c2.418-1.689,13.474-10.216,13.474-10.216s2.196-2.033,0.011-5.286c-11.334-13.315-30.45-13.214-30.45-13.214
				s-19.18-0.102-30.514,13.214c-2.186,3.253,0.018,5.286,0.018,5.286s11.06,8.526,13.478,10.216c2.908,1.695,5.29,2.287,6.51,0
				c1.152-2.41,1.327-5.794,3.969-5.794S993.682,332.141,993.682,332.141z"/>
			<rect x="990.5" y="364.5" fill="#808080" stroke="#808080" stroke-miterlimit="10" width="7" height="23"/>
			<circle fill="#999999" stroke="#999999" stroke-width="0.25" stroke-miterlimit="10" cx="993.651" cy="350.342" r="13.846"/>
			<rect x="1023.5" y="351.5" fill="#999999" stroke="#999999" stroke-miterlimit="10" width="44" height="20"/>
			<rect x="1036.5" y="353.5" fill="#C8C8C8" stroke="#C8C8C8" stroke-miterlimit="10" width="23" height="2"/>
			<rect x="1036.5" y="367.5" fill="#C8C8C8" stroke="#C8C8C8" stroke-miterlimit="10" width="23" height="2"/>
			<rect x="1031.5" y="348.5" fill="#C8C8C8" stroke="#999999" stroke-miterlimit="10" width="5" height="27"/>
			<rect x="1059.5" y="348.5" fill="#C8C8C8" stroke="#999999" stroke-miterlimit="10" width="5" height="27"/>
			<rect x="1029.5" y="352.5" fill="#C8C8C8" stroke="#C8C8C8" stroke-miterlimit="10" width="1" height="4"/>
			<rect x="1065.5" y="352.5" fill="#C8C8C8" stroke="#C8C8C8" stroke-miterlimit="10" width="1" height="4"/>
			<path fill="#999999" stroke="#999999" stroke-miterlimit="10" d="M1077.711,361.701c0,3.285-2.662,5.949-5.946,5.949
				c-0.462,0-0.906-0.15-1.336-0.15h-2.929v-12h2.929c0.43,0,0.874,0.052,1.336,0.052
				C1075.049,355.552,1077.711,358.418,1077.711,361.701z"/>
			<path fill="#C8C8C8" stroke="#C8C8C8" stroke-miterlimit="10" d="M1022.5,359.5v5h-31.402c-3.133,0-5.764,0.336-6.554,0.619
				c-0.157,0.059-0.243,0.183-0.243,0.243c-0.651,0.442-1.438,0.729-2.285,0.729c-2.264,0-4.098-1.826-4.098-4.101
				s1.834-4.109,4.098-4.109c0.847,0,1.634,0.261,2.285,0.702c0,0.062,0.083,0.243,0.242,0.298c0.791,0.287,3.447,0.618,6.604,0.618
				H1022.5z"/>
			<polygon fill="#333333" stroke="#333333" stroke-width="0.25" stroke-miterlimit="10" points="987.797,363.25 1032.28,318.422 
				1025.497,311.586 981.014,356.414 977.013,367.281 			"/>
			<path fill="#C1272D" stroke="#C1272D" stroke-width="0.25" stroke-miterlimit="10" d="M1060.697,283.343
				c2.799,2.799,3.058,7.077,0.577,9.558l-27.323,27.324l-10.135-10.135l27.323-27.324
				C1053.619,280.286,1057.898,280.544,1060.697,283.343z"/>
			<circle fill="#C8C8C8" stroke="#C8C8C8" stroke-width="0.25" stroke-miterlimit="10" cx="993.651" cy="350.342" r="3.019"/>
			<circle fill="#C8C8C8" stroke="#C8C8C8" stroke-width="0.25" stroke-miterlimit="10" cx="979.747" cy="334.942" r="3.049"/>
			<circle fill="#C8C8C8" stroke="#C8C8C8" stroke-width="0.25" stroke-miterlimit="10" cx="1072.451" cy="361.701" r="2.973"/>
			<circle fill="#C8C8C8" stroke="#C8C8C8" stroke-width="0.25" stroke-miterlimit="10" cx="982.109" cy="362.007" r="2.439"/>
			<rect x="1029.5" y="366.5" fill="#C8C8C8" stroke="#C8C8C8" stroke-miterlimit="10" width="1" height="4"/>
			<rect x="1065.5" y="366.5" fill="#C8C8C8" stroke="#C8C8C8" stroke-miterlimit="10" width="1" height="4"/>
			<rect x="970.5" y="380.5" fill="#333333" stroke="#333333" stroke-miterlimit="10" width="47" height="4"/>
		</g>
		<g>
			<path fill="#808080" stroke="#808080" stroke-miterlimit="10" d="M841.5,324.01c0,9.976,0,28.592,0,37.055
				c0,7.66,4.549,6.436,7.473,6.436c8.001,0,85.877,0,85.877,0c2.35-1,2.783-3.132,2.79-4.287c0-6.592-3.377-7.488-3.377-7.488
				l-85.29-34.207c0,0-3.951-2.034-5.865-2.316C841.566,319.201,841.5,320.984,841.5,324.01z"/>
			<path fill="#E6E6E6" stroke="#999999" stroke-width="0.25" stroke-miterlimit="10" d="M858.682,332.141
				c0,0,3.849-0.019,6.491-0.019c2.642,0,2.813,3.384,3.967,5.794c1.22,2.287,3.601,1.695,6.508,0
				c2.418-1.689,13.474-10.216,13.474-10.216s2.196-2.033,0.011-5.286c-11.334-13.315-30.45-13.214-30.45-13.214
				s-19.18-0.102-30.514,13.214c-2.186,3.253,0.018,5.286,0.018,5.286s11.06,8.526,13.478,10.216c2.908,1.695,5.29,2.287,6.51,0
				c1.152-2.41,1.327-5.794,3.969-5.794S858.682,332.141,858.682,332.141z"/>
			<rect x="855.5" y="364.5" fill="#808080" stroke="#808080" stroke-miterlimit="10" width="7" height="23"/>
			<circle fill="#999999" stroke="#999999" stroke-width="0.25" stroke-miterlimit="10" cx="858.651" cy="350.342" r="13.846"/>
			<rect x="888.5" y="351.5" fill="#999999" stroke="#999999" stroke-miterlimit="10" width="44" height="20"/>
			<rect x="901.5" y="353.5" fill="#C8C8C8" stroke="#C8C8C8" stroke-miterlimit="10" width="23" height="2"/>
			<rect x="901.5" y="367.5" fill="#C8C8C8" stroke="#C8C8C8" stroke-miterlimit="10" width="23" height="2"/>
			<rect x="896.5" y="348.5" fill="#C8C8C8" stroke="#999999" stroke-miterlimit="10" width="5" height="27"/>
			<rect x="924.5" y="348.5" fill="#C8C8C8" stroke="#999999" stroke-miterlimit="10" width="5" height="27"/>
			<rect x="894.5" y="352.5" fill="#C8C8C8" stroke="#C8C8C8" stroke-miterlimit="10" width="1" height="4"/>
			<rect x="930.5" y="352.5" fill="#C8C8C8" stroke="#C8C8C8" stroke-miterlimit="10" width="1" height="4"/>
			<path fill="#999999" stroke="#999999" stroke-miterlimit="10" d="M942.711,361.701c0,3.285-2.662,5.949-5.946,5.949
				c-0.462,0-0.906-0.15-1.336-0.15H932.5v-12h2.929c0.43,0,0.874,0.052,1.336,0.052
				C940.049,355.552,942.711,358.418,942.711,361.701z"/>
			<path fill="#C8C8C8" stroke="#C8C8C8" stroke-miterlimit="10" d="M887.5,359.5v5h-31.402c-3.133,0-5.764,0.336-6.554,0.619
				c-0.157,0.059-0.243,0.183-0.243,0.243c-0.651,0.442-1.438,0.729-2.285,0.729c-2.264,0-4.098-1.826-4.098-4.101
				s1.834-4.109,4.098-4.109c0.847,0,1.634,0.261,2.285,0.702c0,0.062,0.083,0.243,0.242,0.298c0.791,0.287,3.447,0.618,6.604,0.618
				H887.5z"/>
			<polygon fill="#333333" stroke="#333333" stroke-width="0.25" stroke-miterlimit="10" points="852.797,363.25 897.28,318.422 
				890.497,311.586 846.014,356.414 842.013,367.281 			"/>
			<path fill="#C1272D" stroke="#C1272D" stroke-width="0.25" stroke-miterlimit="10" d="M925.697,283.343
				c2.799,2.799,3.058,7.077,0.577,9.558l-27.323,27.324l-10.135-10.135l27.323-27.324
				C918.619,280.286,922.898,280.544,925.697,283.343z"/>
			<circle fill="#C8C8C8" stroke="#C8C8C8" stroke-width="0.25" stroke-miterlimit="10" cx="858.651" cy="350.342" r="3.019"/>
			<circle fill="#C8C8C8" stroke="#C8C8C8" stroke-width="0.25" stroke-miterlimit="10" cx="844.747" cy="334.942" r="3.049"/>
			<circle fill="#C8C8C8" stroke="#C8C8C8" stroke-width="0.25" stroke-miterlimit="10" cx="937.451" cy="361.701" r="2.973"/>
			<circle fill="#C8C8C8" stroke="#C8C8C8" stroke-width="0.25" stroke-miterlimit="10" cx="847.109" cy="362.007" r="2.439"/>
			<rect x="894.5" y="366.5" fill="#C8C8C8" stroke="#C8C8C8" stroke-miterlimit="10" width="1" height="4"/>
			<rect x="930.5" y="366.5" fill="#C8C8C8" stroke="#C8C8C8" stroke-miterlimit="10" width="1" height="4"/>
			<rect x="835.5" y="380.5" fill="#333333" stroke="#333333" stroke-miterlimit="10" width="47" height="4"/>
		</g>
		<g>
			<path fill="#808080" stroke="#808080" stroke-miterlimit="10" d="M706.5,324.01c0,9.976,0,28.592,0,37.055
				c0,7.66,4.549,6.436,7.473,6.436c8.001,0,85.877,0,85.877,0c2.35-1,2.783-3.132,2.79-4.287c0-6.592-3.377-7.488-3.377-7.488
				l-85.29-34.207c0,0-3.951-2.034-5.865-2.316C706.566,319.201,706.5,320.984,706.5,324.01z"/>
			<path fill="#E6E6E6" stroke="#999999" stroke-width="0.25" stroke-miterlimit="10" d="M723.682,332.141
				c0,0,3.849-0.019,6.491-0.019c2.642,0,2.813,3.384,3.967,5.794c1.22,2.287,3.601,1.695,6.508,0
				c2.418-1.689,13.474-10.216,13.474-10.216s2.196-2.033,0.011-5.286c-11.334-13.315-30.45-13.214-30.45-13.214
				s-19.18-0.102-30.514,13.214c-2.186,3.253,0.018,5.286,0.018,5.286s11.06,8.526,13.478,10.216c2.908,1.695,5.29,2.287,6.51,0
				c1.152-2.41,1.327-5.794,3.969-5.794S723.682,332.141,723.682,332.141z"/>
			<rect x="720.5" y="364.5" fill="#808080" stroke="#808080" stroke-miterlimit="10" width="7" height="23"/>
			<circle fill="#999999" stroke="#999999" stroke-width="0.25" stroke-miterlimit="10" cx="723.651" cy="350.342" r="13.846"/>
			<rect x="753.5" y="351.5" fill="#999999" stroke="#999999" stroke-miterlimit="10" width="44" height="20"/>
			<rect x="766.5" y="353.5" fill="#C8C8C8" stroke="#C8C8C8" stroke-miterlimit="10" width="23" height="2"/>
			<rect x="766.5" y="367.5" fill="#C8C8C8" stroke="#C8C8C8" stroke-miterlimit="10" width="23" height="2"/>
			<rect x="761.5" y="348.5" fill="#C8C8C8" stroke="#999999" stroke-miterlimit="10" width="5" height="27"/>
			<rect x="789.5" y="348.5" fill="#C8C8C8" stroke="#999999" stroke-miterlimit="10" width="5" height="27"/>
			<rect x="759.5" y="352.5" fill="#C8C8C8" stroke="#C8C8C8" stroke-miterlimit="10" width="1" height="4"/>
			<rect x="795.5" y="352.5" fill="#C8C8C8" stroke="#C8C8C8" stroke-miterlimit="10" width="1" height="4"/>
			<path fill="#999999" stroke="#999999" stroke-miterlimit="10" d="M807.711,361.701c0,3.285-2.662,5.949-5.946,5.949
				c-0.462,0-0.906-0.15-1.336-0.15H797.5v-12h2.929c0.43,0,0.874,0.052,1.336,0.052
				C805.049,355.552,807.711,358.418,807.711,361.701z"/>
			<path fill="#C8C8C8" stroke="#C8C8C8" stroke-miterlimit="10" d="M752.5,359.5v5h-31.402c-3.133,0-5.764,0.336-6.554,0.619
				c-0.157,0.059-0.243,0.183-0.243,0.243c-0.651,0.442-1.438,0.729-2.285,0.729c-2.264,0-4.098-1.826-4.098-4.101
				s1.834-4.109,4.098-4.109c0.847,0,1.634,0.261,2.285,0.702c0,0.062,0.083,0.243,0.242,0.298c0.791,0.287,3.447,0.618,6.604,0.618
				H752.5z"/>
			<polygon fill="#333333" stroke="#333333" stroke-width="0.25" stroke-miterlimit="10" points="717.797,363.25 762.28,318.422 
				755.497,311.586 711.014,356.414 707.013,367.281 			"/>
			<path fill="#C1272D" stroke="#C1272D" stroke-width="0.25" stroke-miterlimit="10" d="M790.697,283.343
				c2.799,2.799,3.058,7.077,0.577,9.558l-27.323,27.324l-10.135-10.135l27.323-27.324
				C783.619,280.286,787.898,280.544,790.697,283.343z"/>
			<circle fill="#C8C8C8" stroke="#C8C8C8" stroke-width="0.25" stroke-miterlimit="10" cx="723.651" cy="350.342" r="3.02"/>
			<circle fill="#C8C8C8" stroke="#C8C8C8" stroke-width="0.25" stroke-miterlimit="10" cx="709.747" cy="334.942" r="3.049"/>
			<circle fill="#C8C8C8" stroke="#C8C8C8" stroke-width="0.25" stroke-miterlimit="10" cx="802.451" cy="361.701" r="2.973"/>
			<circle fill="#C8C8C8" stroke="#C8C8C8" stroke-width="0.25" stroke-miterlimit="10" cx="712.11" cy="362.007" r="2.439"/>
			<rect x="759.5" y="366.5" fill="#C8C8C8" stroke="#C8C8C8" stroke-miterlimit="10" width="1" height="4"/>
			<rect x="795.5" y="366.5" fill="#C8C8C8" stroke="#C8C8C8" stroke-miterlimit="10" width="1" height="4"/>
			<rect x="700.5" y="380.5" fill="#333333" stroke="#333333" stroke-miterlimit="10" width="47" height="4"/>
		</g>
		<g>
			<path fill="#808080" stroke="#808080" stroke-miterlimit="10" d="M571.5,324.01c0,9.976,0,28.592,0,37.055
				c0,7.66,4.549,6.436,7.473,6.436c8.001,0,85.877,0,85.877,0c2.35-1,2.783-3.132,2.79-4.287c0-6.592-3.377-7.488-3.377-7.488
				l-85.29-34.207c0,0-3.951-2.034-5.865-2.316C571.566,319.201,571.5,320.984,571.5,324.01z"/>
			<path fill="#E6E6E6" stroke="#999999" stroke-width="0.25" stroke-miterlimit="10" d="M588.682,332.141
				c0,0,3.849-0.019,6.491-0.019c2.642,0,2.813,3.384,3.967,5.794c1.22,2.287,3.601,1.695,6.508,0
				c2.418-1.689,13.474-10.216,13.474-10.216s2.196-2.033,0.011-5.286c-11.334-13.315-30.45-13.214-30.45-13.214
				s-19.18-0.102-30.514,13.214c-2.186,3.253,0.018,5.286,0.018,5.286s11.06,8.526,13.478,10.216c2.908,1.695,5.291,2.287,6.51,0
				c1.152-2.41,1.326-5.794,3.969-5.794C584.783,332.122,588.682,332.141,588.682,332.141z"/>
			<rect x="585.5" y="364.5" fill="#808080" stroke="#808080" stroke-miterlimit="10" width="7" height="23"/>
			<circle fill="#999999" stroke="#999999" stroke-width="0.25" stroke-miterlimit="10" cx="588.651" cy="350.342" r="13.846"/>
			<rect x="618.5" y="351.5" fill="#999999" stroke="#999999" stroke-miterlimit="10" width="44" height="20"/>
			<rect x="631.5" y="353.5" fill="#C8C8C8" stroke="#C8C8C8" stroke-miterlimit="10" width="23" height="2"/>
			<rect x="631.5" y="367.5" fill="#C8C8C8" stroke="#C8C8C8" stroke-miterlimit="10" width="23" height="2"/>
			<rect x="626.5" y="348.5" fill="#C8C8C8" stroke="#999999" stroke-miterlimit="10" width="5" height="27"/>
			<rect x="654.5" y="348.5" fill="#C8C8C8" stroke="#999999" stroke-miterlimit="10" width="5" height="27"/>
			<rect x="624.5" y="352.5" fill="#C8C8C8" stroke="#C8C8C8" stroke-miterlimit="10" width="1" height="4"/>
			<rect x="660.5" y="352.5" fill="#C8C8C8" stroke="#C8C8C8" stroke-miterlimit="10" width="1" height="4"/>
			<path fill="#999999" stroke="#999999" stroke-miterlimit="10" d="M672.711,361.701c0,3.285-2.662,5.949-5.946,5.949
				c-0.462,0-0.906-0.15-1.336-0.15H662.5v-12h2.929c0.43,0,0.874,0.052,1.336,0.052
				C670.049,355.552,672.711,358.418,672.711,361.701z"/>
			<path fill="#C8C8C8" stroke="#C8C8C8" stroke-miterlimit="10" d="M617.5,359.5v5h-31.402c-3.133,0-5.764,0.336-6.554,0.619
				c-0.157,0.059-0.243,0.183-0.243,0.243c-0.651,0.442-1.438,0.729-2.285,0.729c-2.264,0-4.098-1.826-4.098-4.101
				s1.834-4.109,4.098-4.109c0.847,0,1.634,0.261,2.285,0.702c0,0.062,0.083,0.243,0.242,0.298c0.791,0.287,3.447,0.618,6.604,0.618
				H617.5z"/>
			<polygon fill="#333333" stroke="#333333" stroke-width="0.25" stroke-miterlimit="10" points="582.797,363.25 627.28,318.422 
				620.497,311.586 576.014,356.414 572.013,367.281 			"/>
			<path fill="#C1272D" stroke="#C1272D" stroke-width="0.25" stroke-miterlimit="10" d="M655.697,283.343
				c2.799,2.799,3.058,7.077,0.577,9.558l-27.323,27.324l-10.135-10.135l27.323-27.324
				C648.619,280.286,652.898,280.544,655.697,283.343z"/>
			<circle fill="#C8C8C8" stroke="#C8C8C8" stroke-width="0.25" stroke-miterlimit="10" cx="588.651" cy="350.342" r="3.02"/>
			<circle fill="#C8C8C8" stroke="#C8C8C8" stroke-width="0.25" stroke-miterlimit="10" cx="574.747" cy="334.942" r="3.049"/>
			<circle fill="#C8C8C8" stroke="#C8C8C8" stroke-width="0.25" stroke-miterlimit="10" cx="667.451" cy="361.701" r="2.973"/>
			<circle fill="#C8C8C8" stroke="#C8C8C8" stroke-width="0.25" stroke-miterlimit="10" cx="577.11" cy="362.007" r="2.439"/>
			<rect x="624.5" y="366.5" fill="#C8C8C8" stroke="#C8C8C8" stroke-miterlimit="10" width="1" height="4"/>
			<rect x="660.5" y="366.5" fill="#C8C8C8" stroke="#C8C8C8" stroke-miterlimit="10" width="1" height="4"/>
			<rect x="565.5" y="380.5" fill="#333333" stroke="#333333" stroke-miterlimit="10" width="47" height="4"/>
		</g>
		<g>
			<path fill="#808080" stroke="#808080" stroke-miterlimit="10" d="M436.5,324.01c0,9.976,0,28.592,0,37.055
				c0,7.66,4.549,6.436,7.473,6.436c8.001,0,85.877,0,85.877,0c2.35-1,2.783-3.132,2.79-4.287c0-6.592-3.377-7.488-3.377-7.488
				l-85.29-34.207c0,0-3.951-2.034-5.865-2.316C436.566,319.201,436.5,320.984,436.5,324.01z"/>
			<path fill="#E6E6E6" stroke="#999999" stroke-width="0.25" stroke-miterlimit="10" d="M453.682,332.141
				c0,0,3.849-0.019,6.491-0.019c2.642,0,2.814,3.384,3.967,5.794c1.22,2.287,3.601,1.695,6.508,0
				c2.418-1.689,13.474-10.216,13.474-10.216s2.196-2.033,0.011-5.286c-11.334-13.315-30.45-13.214-30.45-13.214
				s-19.18-0.102-30.514,13.214c-2.186,3.253,0.018,5.286,0.018,5.286s11.06,8.526,13.478,10.216c2.908,1.695,5.291,2.287,6.51,0
				c1.152-2.41,1.326-5.794,3.969-5.794C449.783,332.122,453.682,332.141,453.682,332.141z"/>
			<rect x="450.5" y="364.5" fill="#808080" stroke="#808080" stroke-miterlimit="10" width="7" height="23"/>
			<circle fill="#999999" stroke="#999999" stroke-width="0.25" stroke-miterlimit="10" cx="453.651" cy="350.342" r="13.846"/>
			<rect x="483.5" y="351.5" fill="#999999" stroke="#999999" stroke-miterlimit="10" width="44" height="20"/>
			<rect x="496.5" y="353.5" fill="#C8C8C8" stroke="#C8C8C8" stroke-miterlimit="10" width="23" height="2"/>
			<rect x="496.5" y="367.5" fill="#C8C8C8" stroke="#C8C8C8" stroke-miterlimit="10" width="23" height="2"/>
			<rect x="491.5" y="348.5" fill="#C8C8C8" stroke="#999999" stroke-miterlimit="10" width="5" height="27"/>
			<rect x="519.5" y="348.5" fill="#C8C8C8" stroke="#999999" stroke-miterlimit="10" width="5" height="27"/>
			<rect x="489.5" y="352.5" fill="#C8C8C8" stroke="#C8C8C8" stroke-miterlimit="10" width="1" height="4"/>
			<rect x="525.5" y="352.5" fill="#C8C8C8" stroke="#C8C8C8" stroke-miterlimit="10" width="1" height="4"/>
			<path fill="#999999" stroke="#999999" stroke-miterlimit="10" d="M537.711,361.701c0,3.285-2.662,5.949-5.946,5.949
				c-0.462,0-0.906-0.15-1.336-0.15H527.5v-12h2.929c0.43,0,0.874,0.052,1.336,0.052
				C535.049,355.552,537.711,358.418,537.711,361.701z"/>
			<path fill="#C8C8C8" stroke="#C8C8C8" stroke-miterlimit="10" d="M482.5,359.5v5h-31.402c-3.133,0-5.764,0.336-6.554,0.619
				c-0.157,0.059-0.243,0.183-0.243,0.243c-0.651,0.442-1.438,0.729-2.285,0.729c-2.264,0-4.098-1.826-4.098-4.101
				s1.834-4.109,4.098-4.109c0.847,0,1.634,0.261,2.285,0.702c0,0.062,0.083,0.243,0.242,0.298c0.791,0.287,3.447,0.618,6.604,0.618
				H482.5z"/>
			<polygon fill="#333333" stroke="#333333" stroke-width="0.25" stroke-miterlimit="10" points="447.797,363.25 492.28,318.422 
				485.497,311.586 441.014,356.414 437.013,367.281 			"/>
			<path fill="#C1272D" stroke="#C1272D" stroke-width="0.25" stroke-miterlimit="10" d="M520.697,283.343
				c2.799,2.799,3.058,7.077,0.577,9.558l-27.323,27.324l-10.135-10.135l27.323-27.324
				C513.619,280.286,517.898,280.544,520.697,283.343z"/>
			<circle fill="#C8C8C8" stroke="#C8C8C8" stroke-width="0.25" stroke-miterlimit="10" cx="453.651" cy="350.342" r="3.02"/>
			<circle fill="#C8C8C8" stroke="#C8C8C8" stroke-width="0.25" stroke-miterlimit="10" cx="439.747" cy="334.942" r="3.049"/>
			<circle fill="#C8C8C8" stroke="#C8C8C8" stroke-width="0.25" stroke-miterlimit="10" cx="532.451" cy="361.701" r="2.973"/>
			<circle fill="#C8C8C8" stroke="#C8C8C8" stroke-width="0.25" stroke-miterlimit="10" cx="442.11" cy="362.007" r="2.439"/>
			<rect x="489.5" y="366.5" fill="#C8C8C8" stroke="#C8C8C8" stroke-miterlimit="10" width="1" height="4"/>
			<rect x="525.5" y="366.5" fill="#C8C8C8" stroke="#C8C8C8" stroke-miterlimit="10" width="1" height="4"/>
			<rect x="430.5" y="380.5" fill="#333333" stroke="#333333" stroke-miterlimit="10" width="47" height="4"/>
		</g>
		<g>
			<path fill="#808080" stroke="#808080" stroke-miterlimit="10" d="M301.5,324.01c0,9.976,0,28.592,0,37.055
				c0,7.66,4.549,6.436,7.473,6.436c8.001,0,85.877,0,85.877,0c2.35-1,2.783-3.132,2.79-4.287c0-6.592-3.377-7.488-3.377-7.488
				l-85.29-34.207c0,0-3.951-2.034-5.865-2.316C301.566,319.201,301.5,320.984,301.5,324.01z"/>
			<path fill="#E6E6E6" stroke="#999999" stroke-width="0.25" stroke-miterlimit="10" d="M318.682,332.141
				c0,0,3.849-0.019,6.491-0.019c2.642,0,2.814,3.384,3.967,5.794c1.22,2.287,3.601,1.695,6.508,0
				c2.418-1.689,13.474-10.216,13.474-10.216s2.196-2.033,0.011-5.286c-11.334-13.315-30.45-13.214-30.45-13.214
				s-19.18-0.102-30.514,13.214c-2.186,3.253,0.018,5.286,0.018,5.286s11.06,8.526,13.478,10.216c2.908,1.695,5.291,2.287,6.51,0
				c1.152-2.41,1.326-5.794,3.969-5.794C314.783,332.122,318.682,332.141,318.682,332.141z"/>
			<rect x="315.5" y="364.5" fill="#808080" stroke="#808080" stroke-miterlimit="10" width="7" height="23"/>
			<circle fill="#999999" stroke="#999999" stroke-width="0.25" stroke-miterlimit="10" cx="318.651" cy="350.342" r="13.846"/>
			<rect x="348.5" y="351.5" fill="#999999" stroke="#999999" stroke-miterlimit="10" width="44" height="20"/>
			<rect x="361.5" y="353.5" fill="#C8C8C8" stroke="#C8C8C8" stroke-miterlimit="10" width="23" height="2"/>
			<rect x="361.5" y="367.5" fill="#C8C8C8" stroke="#C8C8C8" stroke-miterlimit="10" width="23" height="2"/>
			<rect x="356.5" y="348.5" fill="#C8C8C8" stroke="#999999" stroke-miterlimit="10" width="5" height="27"/>
			<rect x="384.5" y="348.5" fill="#C8C8C8" stroke="#999999" stroke-miterlimit="10" width="5" height="27"/>
			<rect x="354.5" y="352.5" fill="#C8C8C8" stroke="#C8C8C8" stroke-miterlimit="10" width="1" height="4"/>
			<rect x="390.5" y="352.5" fill="#C8C8C8" stroke="#C8C8C8" stroke-miterlimit="10" width="1" height="4"/>
			<path fill="#999999" stroke="#999999" stroke-miterlimit="10" d="M402.711,361.701c0,3.285-2.662,5.949-5.946,5.949
				c-0.462,0-0.906-0.15-1.336-0.15H392.5v-12h2.929c0.43,0,0.874,0.052,1.336,0.052
				C400.049,355.552,402.711,358.418,402.711,361.701z"/>
			<path fill="#C8C8C8" stroke="#C8C8C8" stroke-miterlimit="10" d="M347.5,359.5v5h-31.402c-3.133,0-5.764,0.336-6.554,0.619
				c-0.157,0.059-0.243,0.183-0.243,0.243c-0.651,0.442-1.438,0.729-2.285,0.729c-2.264,0-4.098-1.826-4.098-4.101
				s1.834-4.109,4.098-4.109c0.847,0,1.634,0.261,2.285,0.702c0,0.062,0.083,0.243,0.242,0.298c0.791,0.287,3.447,0.618,6.604,0.618
				H347.5z"/>
			<polygon fill="#333333" stroke="#333333" stroke-width="0.25" stroke-miterlimit="10" points="312.797,363.25 357.28,318.422 
				350.497,311.586 306.014,356.414 302.013,367.281 			"/>
			<path fill="#C1272D" stroke="#C1272D" stroke-width="0.25" stroke-miterlimit="10" d="M385.697,283.343
				c2.799,2.799,3.058,7.077,0.577,9.558l-27.323,27.324l-10.135-10.135l27.323-27.324
				C378.619,280.286,382.898,280.544,385.697,283.343z"/>
			<circle fill="#C8C8C8" stroke="#C8C8C8" stroke-width="0.25" stroke-miterlimit="10" cx="318.651" cy="350.342" r="3.02"/>
			<circle fill="#C8C8C8" stroke="#C8C8C8" stroke-width="0.25" stroke-miterlimit="10" cx="304.747" cy="334.942" r="3.049"/>
			<circle fill="#C8C8C8" stroke="#C8C8C8" stroke-width="0.25" stroke-miterlimit="10" cx="397.451" cy="361.701" r="2.973"/>
			<circle fill="#C8C8C8" stroke="#C8C8C8" stroke-width="0.25" stroke-miterlimit="10" cx="307.11" cy="362.007" r="2.439"/>
			<rect x="354.5" y="366.5" fill="#C8C8C8" stroke="#C8C8C8" stroke-miterlimit="10" width="1" height="4"/>
			<rect x="390.5" y="366.5" fill="#C8C8C8" stroke="#C8C8C8" stroke-miterlimit="10" width="1" height="4"/>
			<rect x="295.5" y="380.5" fill="#333333" stroke="#333333" stroke-miterlimit="10" width="47" height="4"/>
		</g>
		<g>
			<path fill="#808080" stroke="#808080" stroke-miterlimit="10" d="M166.5,324.01c0,9.976,0,28.592,0,37.055
				c0,7.66,4.549,6.436,7.473,6.436c8.001,0,85.877,0,85.877,0c2.35-1,2.783-3.132,2.79-4.287c0-6.592-3.377-7.488-3.377-7.488
				l-85.29-34.207c0,0-3.951-2.034-5.865-2.316C166.566,319.201,166.5,320.984,166.5,324.01z"/>
			<path fill="#E6E6E6" stroke="#999999" stroke-width="0.25" stroke-miterlimit="10" d="M183.682,332.141
				c0,0,3.849-0.019,6.491-0.019c2.642,0,2.814,3.384,3.967,5.794c1.22,2.287,3.601,1.695,6.508,0
				c2.418-1.689,13.474-10.216,13.474-10.216s2.196-2.033,0.011-5.286c-11.334-13.315-30.45-13.214-30.45-13.214
				s-19.18-0.102-30.514,13.214c-2.186,3.253,0.018,5.286,0.018,5.286s11.06,8.526,13.478,10.216c2.908,1.695,5.291,2.287,6.51,0
				c1.152-2.41,1.326-5.794,3.969-5.794C179.783,332.122,183.682,332.141,183.682,332.141z"/>
			<rect x="180.5" y="364.5" fill="#808080" stroke="#808080" stroke-miterlimit="10" width="7" height="23"/>
			<circle fill="#999999" stroke="#999999" stroke-width="0.25" stroke-miterlimit="10" cx="183.651" cy="350.342" r="13.846"/>
			<rect x="213.5" y="351.5" fill="#999999" stroke="#999999" stroke-miterlimit="10" width="44" height="20"/>
			<rect x="226.5" y="353.5" fill="#C8C8C8" stroke="#C8C8C8" stroke-miterlimit="10" width="23" height="2"/>
			<rect x="226.5" y="367.5" fill="#C8C8C8" stroke="#C8C8C8" stroke-miterlimit="10" width="23" height="2"/>
			<rect x="221.5" y="348.5" fill="#C8C8C8" stroke="#999999" stroke-miterlimit="10" width="5" height="27"/>
			<rect x="249.5" y="348.5" fill="#C8C8C8" stroke="#999999" stroke-miterlimit="10" width="5" height="27"/>
			<rect x="219.5" y="352.5" fill="#C8C8C8" stroke="#C8C8C8" stroke-miterlimit="10" width="1" height="4"/>
			<rect x="255.5" y="352.5" fill="#C8C8C8" stroke="#C8C8C8" stroke-miterlimit="10" width="1" height="4"/>
			<path fill="#999999" stroke="#999999" stroke-miterlimit="10" d="M267.711,361.701c0,3.285-2.662,5.949-5.946,5.949
				c-0.461,0-0.906-0.15-1.336-0.15H257.5v-12h2.929c0.43,0,0.875,0.052,1.336,0.052
				C265.049,355.552,267.711,358.418,267.711,361.701z"/>
			<path fill="#C8C8C8" stroke="#C8C8C8" stroke-miterlimit="10" d="M212.5,359.5v5h-31.402c-3.133,0-5.764,0.336-6.554,0.619
				c-0.157,0.059-0.243,0.183-0.243,0.243c-0.651,0.442-1.438,0.729-2.285,0.729c-2.264,0-4.098-1.826-4.098-4.101
				s1.834-4.109,4.098-4.109c0.847,0,1.634,0.261,2.285,0.702c0,0.062,0.083,0.243,0.242,0.298c0.791,0.287,3.447,0.618,6.604,0.618
				H212.5z"/>
			<polygon fill="#333333" stroke="#333333" stroke-width="0.25" stroke-miterlimit="10" points="177.797,363.25 222.28,318.422 
				215.497,311.586 171.014,356.414 167.013,367.281 			"/>
			<path fill="#C1272D" stroke="#C1272D" stroke-width="0.25" stroke-miterlimit="10" d="M250.697,283.343
				c2.799,2.799,3.058,7.077,0.577,9.558l-27.323,27.324l-10.135-10.135l27.323-27.324
				C243.619,280.286,247.898,280.544,250.697,283.343z"/>
			<circle fill="#C8C8C8" stroke="#C8C8C8" stroke-width="0.25" stroke-miterlimit="10" cx="183.651" cy="350.342" r="3.02"/>
			<circle fill="#C8C8C8" stroke="#C8C8C8" stroke-width="0.25" stroke-miterlimit="10" cx="169.747" cy="334.942" r="3.049"/>
			<circle fill="#C8C8C8" stroke="#C8C8C8" stroke-width="0.25" stroke-miterlimit="10" cx="262.451" cy="361.701" r="2.973"/>
			<circle fill="#C8C8C8" stroke="#C8C8C8" stroke-width="0.25" stroke-miterlimit="10" cx="172.11" cy="362.007" r="2.439"/>
			<rect x="219.5" y="366.5" fill="#C8C8C8" stroke="#C8C8C8" stroke-miterlimit="10" width="1" height="4"/>
			<rect x="255.5" y="366.5" fill="#C8C8C8" stroke="#C8C8C8" stroke-miterlimit="10" width="1" height="4"/>
			<rect x="160.5" y="380.5" fill="#333333" stroke="#333333" stroke-miterlimit="10" width="47" height="4"/>
		</g>
	</g>
</g>
</svg>
