<?xml version="1.0" encoding="utf-8"?>
<!-- Generator: Adobe Illustrator 16.0.0, SVG Export Plug-In . SVG Version: 6.00 Build 0)  -->
<!DOCTYPE svg PUBLIC "-//W3C//DTD SVG 1.1//EN" "http://www.w3.org/Graphics/SVG/1.1/DTD/svg11.dtd">
<svg version="1.1" xmlns="http://www.w3.org/2000/svg" xmlns:xlink="http://www.w3.org/1999/xlink" x="0px" y="0px" width="1539px"
	 height="826px" viewBox="0 0 1539 826" enable-background="new 0 0 1539 826" xml:space="preserve">
<g id="Layer_1" display="none">
</g>
<g id="Cylinder">
</g>
<g id="Layer_6">
</g>
<g id="Pressure_gauge">
</g>
<g id="Chasis__x26__base">
</g>
<g id="Layer_8">
</g>
<g id="Motor__x26__pump">
</g>
<g id="Valves">
	<g>
		<path fill="#E6E6E6" stroke="#E6E6E6" stroke-miterlimit="10" d="M308.5,48.396V432.5h-74V48.396c0-15.689,9.77-29.1,23.55-34.479
			c-0.36-0.851-0.55-1.78-0.55-2.75v-0.54c0-3.68,2.73-6.7,6.28-7.16c-0.18-0.29-0.28-0.63-0.28-0.99v-0.16
			c0-1.06,0.86-1.816,1.92-1.816h12.16c1.06,0,1.92,0.757,1.92,1.816v0.16c0,0.36-0.1,0.7-0.28,0.99c3.55,0.46,6.28,3.48,6.28,7.16
			v0.54c0,0.97-0.19,1.899-0.55,2.75C298.73,19.297,308.5,32.707,308.5,48.396z"/>
		<path fill="#E6E6E6" stroke="#E6E6E6" stroke-miterlimit="10" d="M392.5,48.396V432.5h-74V48.396c0-15.689,9.77-29.1,23.55-34.479
			c-0.36-0.851-0.55-1.78-0.55-2.75v-0.54c0-3.68,2.73-6.7,6.28-7.16c-0.18-0.29-0.28-0.63-0.28-0.99v-0.16
			c0-1.06,0.86-1.816,1.92-1.816h12.16c1.06,0,1.92,0.757,1.92,1.816v0.16c0,0.36-0.1,0.7-0.28,0.99c3.55,0.46,6.28,3.48,6.28,7.16
			v0.54c0,0.97-0.19,1.899-0.55,2.75C382.73,19.297,392.5,32.707,392.5,48.396z"/>
		<path fill="#E6E6E6" stroke="#E6E6E6" stroke-miterlimit="10" d="M476.5,48.396V432.5h-74V48.396c0-15.689,9.77-29.1,23.55-34.479
			c-0.36-0.851-0.55-1.78-0.55-2.75v-0.54c0-3.68,2.73-6.7,6.28-7.16c-0.18-0.29-0.28-0.63-0.28-0.99v-0.16
			c0-1.06,0.86-1.816,1.92-1.816h12.16c1.06,0,1.92,0.757,1.92,1.816v0.16c0,0.36-0.1,0.7-0.28,0.99c3.55,0.46,6.28,3.48,6.28,7.16
			v0.54c0,0.97-0.19,1.899-0.55,2.75C466.73,19.297,476.5,32.707,476.5,48.396z"/>
		<path fill="#E6E6E6" stroke="#E6E6E6" stroke-miterlimit="10" d="M560.5,48.396V432.5h-74V48.396c0-15.689,9.77-29.1,23.55-34.479
			c-0.36-0.851-0.55-1.78-0.55-2.75v-0.54c0-3.68,2.73-6.7,6.28-7.16c-0.18-0.29-0.28-0.63-0.28-0.99v-0.16
			c0-1.06,0.86-1.816,1.92-1.816h12.16c1.06,0,1.92,0.757,1.92,1.816v0.16c0,0.36-0.1,0.7-0.28,0.99c3.55,0.46,6.28,3.48,6.28,7.16
			v0.54c0,0.97-0.19,1.899-0.55,2.75C550.73,19.297,560.5,32.707,560.5,48.396z"/>
		<path fill="#E6E6E6" stroke="#E6E6E6" stroke-miterlimit="10" d="M644.5,48.396V432.5h-74V48.396c0-15.689,9.77-29.1,23.55-34.479
			c-0.36-0.851-0.55-1.78-0.55-2.75v-0.54c0-3.68,2.73-6.7,6.28-7.16c-0.18-0.29-0.28-0.63-0.28-0.99v-0.16
			c0-1.06,0.86-1.816,1.92-1.816h12.16c1.06,0,1.92,0.757,1.92,1.816v0.16c0,0.36-0.1,0.7-0.28,0.99c3.55,0.46,6.28,3.48,6.28,7.16
			v0.54c0,0.97-0.19,1.899-0.55,2.75C634.73,19.297,644.5,32.707,644.5,48.396z"/>
		<path fill="#E6E6E6" stroke="#E6E6E6" stroke-miterlimit="10" d="M728.5,48.396V432.5h-74V48.396c0-15.689,9.77-29.1,23.55-34.479
			c-0.36-0.851-0.55-1.78-0.55-2.75v-0.54c0-3.68,2.73-6.7,6.28-7.16c-0.18-0.29-0.28-0.63-0.28-0.99v-0.16
			c0-1.06,0.86-1.816,1.92-1.816h12.16c1.06,0,1.92,0.757,1.92,1.816v0.16c0,0.36-0.1,0.7-0.28,0.99c3.55,0.46,6.28,3.48,6.28,7.16
			v0.54c0,0.97-0.19,1.899-0.55,2.75C718.73,19.297,728.5,32.707,728.5,48.396z"/>
		<path fill="#E6E6E6" stroke="#E6E6E6" stroke-miterlimit="10" d="M812.5,48.396V432.5h-74V48.396c0-15.689,9.77-29.1,23.55-34.479
			c-0.36-0.851-0.55-1.78-0.55-2.75v-0.54c0-3.68,2.73-6.7,6.279-7.16c-0.18-0.29-0.279-0.63-0.279-0.99v-0.16
			c0-1.06,0.859-1.816,1.92-1.816h12.16c1.061,0,1.92,0.757,1.92,1.816v0.16c0,0.36-0.1,0.7-0.279,0.99
			c3.549,0.46,6.279,3.48,6.279,7.16v0.54c0,0.97-0.189,1.899-0.55,2.75C802.73,19.297,812.5,32.707,812.5,48.396z"/>
		<path fill="#E6E6E6" stroke="#E6E6E6" stroke-miterlimit="10" d="M896.5,48.396V432.5h-74V48.396c0-15.689,9.77-29.1,23.55-34.479
			c-0.36-0.851-0.55-1.78-0.55-2.75v-0.54c0-3.68,2.73-6.7,6.279-7.16c-0.18-0.29-0.279-0.63-0.279-0.99v-0.16
			c0-1.06,0.859-1.816,1.92-1.816h12.16c1.061,0,1.92,0.757,1.92,1.816v0.16c0,0.36-0.1,0.7-0.279,0.99
			c3.549,0.46,6.279,3.48,6.279,7.16v0.54c0,0.97-0.189,1.899-0.55,2.75C886.73,19.297,896.5,32.707,896.5,48.396z"/>
		<path fill="#E6E6E6" stroke="#E6E6E6" stroke-miterlimit="10" d="M980.5,48.396V432.5h-74V48.396c0-15.689,9.77-29.1,23.55-34.479
			c-0.36-0.851-0.55-1.78-0.55-2.75v-0.54c0-3.68,2.73-6.7,6.279-7.16c-0.18-0.29-0.279-0.63-0.279-0.99v-0.16
			c0-1.06,0.859-1.816,1.92-1.816h12.16c1.061,0,1.92,0.757,1.92,1.816v0.16c0,0.36-0.1,0.7-0.279,0.99
			c3.549,0.46,6.279,3.48,6.279,7.16v0.54c0,0.97-0.189,1.899-0.55,2.75C970.73,19.297,980.5,32.707,980.5,48.396z"/>
		<path fill="#E6E6E6" stroke="#E6E6E6" stroke-miterlimit="10" d="M1064.5,48.396V432.5h-74V48.396
			c0-15.689,9.77-29.1,23.55-34.479c-0.36-0.851-0.55-1.78-0.55-2.75v-0.54c0-3.68,2.73-6.7,6.279-7.16
			c-0.18-0.29-0.279-0.63-0.279-0.99v-0.16c0-1.06,0.859-1.816,1.92-1.816h12.16c1.061,0,1.92,0.757,1.92,1.816v0.16
			c0,0.36-0.1,0.7-0.279,0.99c3.549,0.46,6.279,3.48,6.279,7.16v0.54c0,0.97-0.189,1.899-0.55,2.75
			C1054.73,19.297,1064.5,32.707,1064.5,48.396z"/>
		<path fill="#E6E6E6" stroke="#E6E6E6" stroke-miterlimit="10" d="M1148.5,48.396V432.5h-74V48.396
			c0-15.689,9.77-29.1,23.55-34.479c-0.36-0.851-0.55-1.78-0.55-2.75v-0.54c0-3.68,2.73-6.7,6.279-7.16
			c-0.18-0.29-0.279-0.63-0.279-0.99v-0.16c0-1.06,0.859-1.816,1.92-1.816h12.16c1.061,0,1.92,0.757,1.92,1.816v0.16
			c0,0.36-0.1,0.7-0.279,0.99c3.549,0.46,6.279,3.48,6.279,7.16v0.54c0,0.97-0.189,1.899-0.55,2.75
			C1138.73,19.297,1148.5,32.707,1148.5,48.396z"/>
		<path fill="#E6E6E6" stroke="#E6E6E6" stroke-miterlimit="10" d="M1232.5,48.396V432.5h-74V48.396
			c0-15.689,9.77-29.1,23.55-34.479c-0.36-0.851-0.55-1.78-0.55-2.75v-0.54c0-3.68,2.73-6.7,6.279-7.16
			c-0.18-0.29-0.279-0.63-0.279-0.99v-0.16c0-1.06,0.859-1.816,1.92-1.816h12.16c1.061,0,1.92,0.757,1.92,1.816v0.16
			c0,0.36-0.1,0.7-0.279,0.99c3.549,0.46,6.279,3.48,6.279,7.16v0.54c0,0.97-0.189,1.899-0.55,2.75
			C1222.73,19.297,1232.5,32.707,1232.5,48.396z"/>
		<path fill="#E6E6E6" stroke="#E6E6E6" stroke-miterlimit="10" d="M1316.5,48.396V432.5h-74V48.396
			c0-15.689,9.77-29.1,23.55-34.479c-0.36-0.851-0.55-1.78-0.55-2.75v-0.54c0-3.68,2.73-6.7,6.279-7.16
			c-0.18-0.29-0.279-0.63-0.279-0.99v-0.16c0-1.06,0.859-1.816,1.92-1.816h12.16c1.061,0,1.92,0.757,1.92,1.816v0.16
			c0,0.36-0.1,0.7-0.279,0.99c3.549,0.46,6.279,3.48,6.279,7.16v0.54c0,0.97-0.189,1.899-0.55,2.75
			C1306.73,19.297,1316.5,32.707,1316.5,48.396z"/>
		<path fill="#B3B3B3" stroke="#B3B3B3" stroke-miterlimit="10" d="M302.5,74.396V458.5h-74V74.396c0-15.689,9.77-29.1,23.55-34.479
			c-0.36-0.851-0.55-1.78-0.55-2.75v-0.54c0-3.68,2.73-6.7,6.28-7.16c-0.18-0.29-0.28-0.63-0.28-0.99v-0.16
			c0-1.06,0.86-1.816,1.92-1.816h12.16c1.06,0,1.92,0.757,1.92,1.816v0.16c0,0.36-0.1,0.7-0.28,0.99c3.55,0.46,6.28,3.48,6.28,7.16
			v0.54c0,0.97-0.19,1.899-0.55,2.75C292.73,45.297,302.5,58.707,302.5,74.396z"/>
		<path fill="#B3B3B3" stroke="#B3B3B3" stroke-miterlimit="10" d="M386.5,74.396V458.5h-74V74.396c0-15.689,9.77-29.1,23.55-34.479
			c-0.36-0.851-0.55-1.78-0.55-2.75v-0.54c0-3.68,2.73-6.7,6.28-7.16c-0.18-0.29-0.28-0.63-0.28-0.99v-0.16
			c0-1.06,0.86-1.816,1.92-1.816h12.16c1.06,0,1.92,0.757,1.92,1.816v0.16c0,0.36-0.1,0.7-0.28,0.99c3.55,0.46,6.28,3.48,6.28,7.16
			v0.54c0,0.97-0.19,1.899-0.55,2.75C376.73,45.297,386.5,58.707,386.5,74.396z"/>
		<path fill="#B3B3B3" stroke="#B3B3B3" stroke-miterlimit="10" d="M470.5,74.396V458.5h-74V74.396c0-15.689,9.77-29.1,23.55-34.479
			c-0.36-0.851-0.55-1.78-0.55-2.75v-0.54c0-3.68,2.73-6.7,6.28-7.16c-0.18-0.29-0.28-0.63-0.28-0.99v-0.16
			c0-1.06,0.86-1.816,1.92-1.816h12.16c1.06,0,1.92,0.757,1.92,1.816v0.16c0,0.36-0.1,0.7-0.28,0.99c3.55,0.46,6.28,3.48,6.28,7.16
			v0.54c0,0.97-0.19,1.899-0.55,2.75C460.73,45.297,470.5,58.707,470.5,74.396z"/>
		<path fill="#B3B3B3" stroke="#B3B3B3" stroke-miterlimit="10" d="M554.5,74.396V458.5h-74V74.396c0-15.689,9.77-29.1,23.55-34.479
			c-0.36-0.851-0.55-1.78-0.55-2.75v-0.54c0-3.68,2.73-6.7,6.28-7.16c-0.18-0.29-0.28-0.63-0.28-0.99v-0.16
			c0-1.06,0.86-1.816,1.92-1.816h12.16c1.06,0,1.92,0.757,1.92,1.816v0.16c0,0.36-0.1,0.7-0.28,0.99c3.55,0.46,6.28,3.48,6.28,7.16
			v0.54c0,0.97-0.19,1.899-0.55,2.75C544.73,45.297,554.5,58.707,554.5,74.396z"/>
		<path fill="#B3B3B3" stroke="#B3B3B3" stroke-miterlimit="10" d="M638.5,74.396V458.5h-74V74.396c0-15.689,9.77-29.1,23.55-34.479
			c-0.36-0.851-0.55-1.78-0.55-2.75v-0.54c0-3.68,2.73-6.7,6.28-7.16c-0.18-0.29-0.28-0.63-0.28-0.99v-0.16
			c0-1.06,0.86-1.816,1.92-1.816h12.16c1.06,0,1.92,0.757,1.92,1.816v0.16c0,0.36-0.1,0.7-0.28,0.99c3.55,0.46,6.28,3.48,6.28,7.16
			v0.54c0,0.97-0.19,1.899-0.55,2.75C628.73,45.297,638.5,58.707,638.5,74.396z"/>
		<path fill="#B3B3B3" stroke="#B3B3B3" stroke-miterlimit="10" d="M722.5,74.396V458.5h-74V74.396c0-15.689,9.77-29.1,23.55-34.479
			c-0.36-0.851-0.55-1.78-0.55-2.75v-0.54c0-3.68,2.73-6.7,6.28-7.16c-0.18-0.29-0.28-0.63-0.28-0.99v-0.16
			c0-1.06,0.86-1.816,1.92-1.816h12.16c1.06,0,1.92,0.757,1.92,1.816v0.16c0,0.36-0.1,0.7-0.28,0.99c3.55,0.46,6.28,3.48,6.28,7.16
			v0.54c0,0.97-0.19,1.899-0.55,2.75C712.73,45.297,722.5,58.707,722.5,74.396z"/>
		<path fill="#B3B3B3" stroke="#B3B3B3" stroke-miterlimit="10" d="M806.5,74.396V458.5h-74V74.396c0-15.689,9.77-29.1,23.55-34.479
			c-0.36-0.851-0.55-1.78-0.55-2.75v-0.54c0-3.68,2.73-6.7,6.28-7.16c-0.18-0.29-0.28-0.63-0.28-0.99v-0.16
			c0-1.06,0.86-1.816,1.92-1.816h12.16c1.061,0,1.92,0.757,1.92,1.816v0.16c0,0.36-0.1,0.7-0.279,0.99
			c3.549,0.46,6.279,3.48,6.279,7.16v0.54c0,0.97-0.189,1.899-0.55,2.75C796.73,45.297,806.5,58.707,806.5,74.396z"/>
		<path fill="#B3B3B3" stroke="#B3B3B3" stroke-miterlimit="10" d="M890.5,74.396V458.5h-74V74.396c0-15.689,9.77-29.1,23.55-34.479
			c-0.36-0.851-0.55-1.78-0.55-2.75v-0.54c0-3.68,2.73-6.7,6.279-7.16c-0.18-0.29-0.279-0.63-0.279-0.99v-0.16
			c0-1.06,0.859-1.816,1.92-1.816h12.16c1.061,0,1.92,0.757,1.92,1.816v0.16c0,0.36-0.1,0.7-0.279,0.99
			c3.549,0.46,6.279,3.48,6.279,7.16v0.54c0,0.97-0.189,1.899-0.55,2.75C880.73,45.297,890.5,58.707,890.5,74.396z"/>
		<path fill="#B3B3B3" stroke="#B3B3B3" stroke-miterlimit="10" d="M974.5,74.396V458.5h-74V74.396c0-15.689,9.77-29.1,23.55-34.479
			c-0.36-0.851-0.55-1.78-0.55-2.75v-0.54c0-3.68,2.73-6.7,6.279-7.16c-0.18-0.29-0.279-0.63-0.279-0.99v-0.16
			c0-1.06,0.859-1.816,1.92-1.816h12.16c1.061,0,1.92,0.757,1.92,1.816v0.16c0,0.36-0.1,0.7-0.279,0.99
			c3.549,0.46,6.279,3.48,6.279,7.16v0.54c0,0.97-0.189,1.899-0.55,2.75C964.73,45.297,974.5,58.707,974.5,74.396z"/>
		<path fill="#B3B3B3" stroke="#B3B3B3" stroke-miterlimit="10" d="M1058.5,74.396V458.5h-74V74.396
			c0-15.689,9.77-29.1,23.55-34.479c-0.36-0.851-0.55-1.78-0.55-2.75v-0.54c0-3.68,2.73-6.7,6.279-7.16
			c-0.18-0.29-0.279-0.63-0.279-0.99v-0.16c0-1.06,0.859-1.816,1.92-1.816h12.16c1.061,0,1.92,0.757,1.92,1.816v0.16
			c0,0.36-0.1,0.7-0.279,0.99c3.549,0.46,6.279,3.48,6.279,7.16v0.54c0,0.97-0.189,1.899-0.55,2.75
			C1048.73,45.297,1058.5,58.707,1058.5,74.396z"/>
		<path fill="#B3B3B3" stroke="#B3B3B3" stroke-miterlimit="10" d="M1142.5,74.396V458.5h-74V74.396
			c0-15.689,9.77-29.1,23.55-34.479c-0.36-0.851-0.55-1.78-0.55-2.75v-0.54c0-3.68,2.73-6.7,6.279-7.16
			c-0.18-0.29-0.279-0.63-0.279-0.99v-0.16c0-1.06,0.859-1.816,1.92-1.816h12.16c1.061,0,1.92,0.757,1.92,1.816v0.16
			c0,0.36-0.1,0.7-0.279,0.99c3.549,0.46,6.279,3.48,6.279,7.16v0.54c0,0.97-0.189,1.899-0.55,2.75
			C1132.73,45.297,1142.5,58.707,1142.5,74.396z"/>
		<path fill="#B3B3B3" stroke="#B3B3B3" stroke-miterlimit="10" d="M1226.5,74.396V458.5h-74V74.396
			c0-15.689,9.77-29.1,23.55-34.479c-0.36-0.851-0.55-1.78-0.55-2.75v-0.54c0-3.68,2.73-6.7,6.279-7.16
			c-0.18-0.29-0.279-0.63-0.279-0.99v-0.16c0-1.06,0.859-1.816,1.92-1.816h12.16c1.061,0,1.92,0.757,1.92,1.816v0.16
			c0,0.36-0.1,0.7-0.279,0.99c3.549,0.46,6.279,3.48,6.279,7.16v0.54c0,0.97-0.189,1.899-0.55,2.75
			C1216.73,45.297,1226.5,58.707,1226.5,74.396z"/>
		<path fill="#B3B3B3" stroke="#B3B3B3" stroke-miterlimit="10" d="M1310.5,74.396V458.5h-74V74.396
			c0-15.689,9.77-29.1,23.55-34.479c-0.36-0.851-0.55-1.78-0.55-2.75v-0.54c0-3.68,2.73-6.7,6.279-7.16
			c-0.18-0.29-0.279-0.63-0.279-0.99v-0.16c0-1.06,0.859-1.816,1.92-1.816h12.16c1.061,0,1.92,0.757,1.92,1.816v0.16
			c0,0.36-0.1,0.7-0.279,0.99c3.549,0.46,6.279,3.48,6.279,7.16v0.54c0,0.97-0.189,1.899-0.55,2.75
			C1300.73,45.297,1310.5,58.707,1310.5,74.396z"/>
		<g>
			<rect x="142.5" y="278.5" fill="#999999" stroke="#999999" stroke-miterlimit="10" width="43" height="6"/>
			<path fill="#808080" stroke="#808080" stroke-miterlimit="10" d="M193.5,270.268c0,4.547-3.686,8.232-8.232,8.232h-42.535
				c-4.547,0-8.232-3.686-8.232-8.232v-42.535c0-4.547,3.686-8.232,8.232-8.232h42.535c4.547,0,8.232,3.686,8.232,8.232V270.268z"/>
			<circle fill="#C8C8C8" stroke="#C8C8C8" stroke-miterlimit="10" cx="164.5" cy="248.396" r="20.924"/>
			<rect x="156.5" y="284.5" fill="#999999" stroke="#999999" stroke-miterlimit="10" width="15" height="103"/>
		</g>
		<path fill="#999999" stroke="#999999" stroke-miterlimit="10" d="M1297.5,242.75v0.5c0,3.4-2.06,6.32-5,7.58v13.67h-6v-13h-42.75
			c-4.56,0-8.25-3.69-8.25-8.25v-0.5c0-4.56,3.69-8.25,8.25-8.25h45.5C1293.81,234.5,1297.5,238.19,1297.5,242.75z"/>
		<path fill="#FFFFFF" stroke="#808080" stroke-width="5" stroke-miterlimit="10" d="M789.5,228.5v-85.604
			c0,0,1.542-15.396,25.118-15.396c23.574,0,286.649,0,308.684,0c22.033,0,19.198,16.064,19.198,16.064V228.5H789.5z"/>
		<circle fill="#FFFFFF" stroke="#808080" stroke-width="5" stroke-miterlimit="10" cx="926.877" cy="177.645" r="33.748"/>
		<circle fill="#FFFFFF" stroke="#808080" stroke-width="5" stroke-miterlimit="10" cx="1008.877" cy="177.645" r="33.748"/>
		<circle fill="#FFFFFF" stroke="#808080" stroke-width="5" stroke-miterlimit="10" cx="1090.877" cy="177.645" r="33.748"/>
		<g>
			<circle fill="#FFFFFF" stroke="#808080" stroke-width="5" stroke-miterlimit="10" cx="844.877" cy="177.645" r="33.748"/>
			<line fill="none" stroke="#999999" stroke-miterlimit="10" x1="844.877" y1="177.645" x2="828.644" y2="193.879"/>
			
				<line fill="none" stroke="#999999" stroke-linecap="round" stroke-miterlimit="10" x1="844.877" y1="177.645" x2="860.813" y2="161.709"/>
			<polygon fill="#999999" stroke="#999999" stroke-miterlimit="10" points="833.142,192.815 826.813,195.679 829.678,189.352 			
				"/>
			<circle fill="none" stroke="#999999" stroke-miterlimit="10" cx="844.938" cy="177.584" r="27.813"/>
			<circle fill="#666666" stroke="#666666" stroke-miterlimit="10" cx="844.876" cy="177.645" r="1.791"/>
		</g>
		<line fill="none" stroke="#999999" stroke-miterlimit="10" x1="926.877" y1="177.645" x2="910.644" y2="193.879"/>
		
			<line fill="none" stroke="#999999" stroke-linecap="round" stroke-miterlimit="10" x1="926.877" y1="177.645" x2="942.813" y2="161.709"/>
		<polygon fill="#999999" stroke="#999999" stroke-miterlimit="10" points="915.142,192.815 908.813,195.679 911.678,189.352 		"/>
		<circle fill="none" stroke="#999999" stroke-miterlimit="10" cx="926.938" cy="177.584" r="27.813"/>
		<circle fill="#666666" stroke="#666666" stroke-miterlimit="10" cx="926.876" cy="177.645" r="1.791"/>
		<line fill="none" stroke="#999999" stroke-miterlimit="10" x1="1008.877" y1="177.645" x2="992.644" y2="193.879"/>
		
			<line fill="none" stroke="#999999" stroke-linecap="round" stroke-miterlimit="10" x1="1008.877" y1="177.645" x2="1024.813" y2="161.709"/>
		<polygon fill="#999999" stroke="#999999" stroke-miterlimit="10" points="997.142,192.815 990.813,195.679 993.678,189.352 		"/>
		<circle fill="none" stroke="#999999" stroke-miterlimit="10" cx="1008.938" cy="177.584" r="27.813"/>
		<circle fill="#666666" stroke="#666666" stroke-miterlimit="10" cx="1008.876" cy="177.645" r="1.791"/>
		<line fill="none" stroke="#999999" stroke-miterlimit="10" x1="1090.877" y1="177.645" x2="1074.644" y2="193.879"/>
		
			<line fill="none" stroke="#999999" stroke-linecap="round" stroke-miterlimit="10" x1="1090.877" y1="177.645" x2="1106.813" y2="161.709"/>
		<polygon fill="#999999" stroke="#999999" stroke-miterlimit="10" points="1079.142,192.815 1072.813,195.679 1075.678,189.352 		
			"/>
		<circle fill="none" stroke="#999999" stroke-miterlimit="10" cx="1090.938" cy="177.584" r="27.813"/>
		<circle fill="#666666" stroke="#666666" stroke-miterlimit="10" cx="1090.876" cy="177.645" r="1.791"/>
		<path fill="#999999" stroke="#999999" stroke-miterlimit="10" d="M1243.5,226.5H494.94c-7.42,0-13.44,3.027-13.44,7.518V249.5
			H369.92c-0.67-2-1.88-3.143-3.42-4.023V170.5h-15v74.977c-0.61,0.34-1.17,0.822-1.66,1.312c-0.75,0.75-1.35,1.712-1.76,2.712
			H194.5v6h153.58c0.67,2,1.88,2.938,3.42,3.816V387.5h15V259.316c1.54-0.879,2.75-1.816,3.42-3.816h112.61c2.02,3,6.82,5,12.41,5
			h748.56V226.5z"/>
		<rect x="67.5" y="385.5" fill="#808080" stroke="#808080" stroke-miterlimit="10" width="1404" height="408"/>
		<path fill="#999999" stroke="#999999" stroke-miterlimit="10" d="M705.5,197.768v0.26c0,2.5-1.7,4.59-4,5.189V226.5h-6v-23.283
			c-1.52-0.39-2.77-1.717-3.44-2.717H544.32c-0.99,1-2.5,2-4.19,2h-3.26c-2.97,0-5.37-2.503-5.37-5.473v-0.26
			c0-2.5,1.7-4.591,4-5.19v-78.36c-1.52-0.39-2.77-1.717-3.44-2.717H375.5v-6h157.18c0.99-1,2.5-2,4.19-2h3.26
			c2.97,0,5.37,2.297,5.37,5.268v0.26c0,2.5-1.7,4.59-4,5.189v78.36c1.52,0.39,2.77,1.923,3.44,2.923h147.74c0.99-1,2.5-2,4.19-2
			h3.26C703.1,192.5,705.5,194.797,705.5,197.768z"/>
		<path fill="#999999" stroke="#999999" stroke-miterlimit="10" d="M341.5,130.5v6H170.94c-0.67,1-1.92,2.327-3.44,2.717V218.5h-6
			v-79.283c-2.3-0.6-4-2.689-4-5.189v-0.26c0-2.971,2.4-5.268,5.37-5.268h3.26c1.69,0,3.2,1,4.19,2H341.5z"/>
		<rect x="0.5" y="793.5" fill="#333333" stroke="#333333" stroke-miterlimit="10" width="1538" height="32"/>
		<g>
			<rect x="1182.5" y="284.5" fill="#999999" stroke="#999999" stroke-miterlimit="10" width="15" height="103"/>
			<rect x="1168.5" y="278.5" fill="#999999" stroke="#999999" stroke-miterlimit="10" width="43" height="6"/>
			<path fill="#808080" stroke="#808080" stroke-miterlimit="10" d="M1219.5,270.268c0,4.547-3.686,8.232-8.232,8.232h-42.535
				c-4.547,0-8.232-3.686-8.232-8.232v-42.535c0-4.547,3.686-8.232,8.232-8.232h42.535c4.547,0,8.232,3.686,8.232,8.232V270.268z"/>
			<circle fill="#C8C8C8" stroke="#C8C8C8" stroke-miterlimit="10" cx="1190.5" cy="248.396" r="20.924"/>
			<polygon fill="#999999" stroke="#999999" stroke-miterlimit="10" points="1206.5,113.5 1206.5,208.5 1197.5,208.5 1197.5,219.5 
				1182.5,219.5 1182.5,208.5 1172.5,208.5 1172.5,113.5 1179.5,113.5 1179.5,108.5 1198.5,108.5 1198.5,113.5 			"/>
		</g>
		<rect x="335.5" y="380.5" fill="#333333" stroke="#333333" stroke-miterlimit="10" width="47" height="4"/>
		<rect x="115.5" y="730.5" fill="#999999" stroke="#999999" stroke-miterlimit="10" width="408" height="59"/>
		<rect x="115.5" y="607.5" fill="#999999" stroke="#999999" stroke-miterlimit="10" width="226" height="99"/>
		<rect x="115.5" y="712.5" fill="#999999" stroke="#999999" stroke-miterlimit="10" width="461" height="13"/>
		<rect x="523.5" y="635.5" fill="#999999" stroke="#999999" stroke-miterlimit="10" width="37" height="77"/>
		<path fill="#999999" stroke="#999999" stroke-miterlimit="10" d="M605,577.406c-0.43,0.391-0.95,0.631-1.49,0.721
			c-0.28,7.5-1.82,14.67-4.41,21.32c0.41,0.16,0.79,0.42,1.11,0.77c1.09,1.221,1,3.09-0.21,4.189c-0.93,0.84-2.24,0.99-3.3,0.471
			c-3.21,6.461-7.44,12.311-12.48,17.35c1.08,1.221,0.99,3.08-0.22,4.18c-1.21,1.09-3.07,1.01-4.17-0.18
			c-11.46,9.57-26.21,15.33-42.3,15.33c-36.47,0-66.06-29.561-66.06-66.029c0-17.121,6.53-32.73,17.23-44.461
			c-0.98-1.209-0.86-3,0.31-4.059c1.1-0.99,2.74-1.012,3.85-0.121c4.91-4.51,10.5-8.289,16.6-11.15
			c-0.71-1.189-0.52-2.76,0.55-3.729c1.22-1.102,3.1-1,4.2,0.209c0.33,0.371,0.56,0.811,0.66,1.26c6.17-2.26,12.76-3.609,19.63-3.92
			v-0.07c0-1.629,1.36-2.959,3-2.959s3,1.33,3,2.959v0.07c6.54,0.291,12.83,1.531,18.74,3.59c0.16-0.42,0.42-0.809,0.77-1.139
			c1.22-1.102,3.1-1,4.2,0.209c0.79,0.881,0.96,2.109,0.53,3.131c6.43,2.898,12.31,6.809,17.44,11.52
			c1.22-0.951,2.98-0.811,4.03,0.35c0.98,1.1,1.01,2.721,0.12,3.83c4.2,4.59,7.75,9.779,10.52,15.42
			c1.13-0.471,2.49-0.209,3.36,0.75c1.09,1.221,1,3.09-0.21,4.189c-0.24,0.211-0.5,0.381-0.78,0.5
			c2.44,6.381,3.93,13.23,4.27,20.381c0.64,0.1,1.25,0.41,1.72,0.93C606.3,574.438,606.21,576.307,605,577.406z"/>
		<circle fill="#999999" stroke="#999999" stroke-miterlimit="10" cx="1023.996" cy="513.208" r="2.967"/>
		<path fill="#666666" stroke="#666666" stroke-miterlimit="10" d="M590.5,571.518c0,15.16-7.76,28.51-19.53,36.299l-0.02,0.021
			l-150.1,103.209c-17.76,14.59-40.5,23.34-65.28,23.34c-56.85,0-102.94-46.09-102.94-102.939s46.09-102.939,102.94-102.939
			l191.43-0.49C571.02,528.018,590.5,547.486,590.5,571.518z"/>
		<path fill="#E6E6E6" stroke="#E6E6E6" stroke-width="5" stroke-miterlimit="10" d="M576.444,574.482
			c0,13.9-7.114,26.139-17.904,33.279l-0.02,0.02l-137.611,94.623c-16.283,13.377-37.13,21.398-59.848,21.398
			c-52.121,0-94.376-42.256-94.376-94.375c0-52.121,42.255-94.377,94.376-94.377l175.502-0.449
			C558.584,534.602,576.444,552.453,576.444,574.482z"/>
		<rect x="115.5" y="385.5" fill="#999999" stroke="#999999" stroke-miterlimit="10" width="11" height="80"/>
		<rect x="115.5" y="465.5" fill="#999999" stroke="#999999" stroke-miterlimit="10" width="11" height="142"/>
		<rect x="115.5" y="454.5" fill="#999999" stroke="#999999" stroke-miterlimit="10" width="1108" height="11"/>
		<path fill="#999999" stroke="#999999" stroke-miterlimit="10" d="M134.5,458.5c0,5.523-4.735,10-10.577,10h-3.846
			c-5.842,0-10.577-4.477-10.577-10l0,0c0-5.521,4.735-10,10.577-10h3.846C129.765,448.5,134.5,452.979,134.5,458.5L134.5,458.5z"/>
		<path fill="#999999" stroke="#999999" stroke-width="5" stroke-miterlimit="10" d="M940.5,460.338v94.119
			c0,5.49-4.45,10.043-9.94,10.043H813.44c-5.49,0-9.94-4.553-9.94-10.043v-94.119c0-5.49,4.45-9.838,9.94-9.838h43.3
			c-3.11,1-5.24,4.729-5.24,8.448c0.04,3.42,5.88,8.765,9.5,9.474c7.13,2.541,14.92,2.278,21-0.013c5.96-2.83,9.5-6.954,9.5-9.454
			c0-3.719-2.13-7.455-5.24-8.455h44.3C936.05,450.5,940.5,454.848,940.5,460.338z"/>
		<path fill="#808080" stroke="#808080" stroke-width="5" stroke-miterlimit="10" d="M929.5,547.043c0,4.613-3.74,8.457-8.354,8.457
			h-98.291c-4.614,0-8.354-3.844-8.354-8.457v-79.291c0-4.615,3.74-8.252,8.354-8.252h98.291c4.614,0,8.354,3.637,8.354,8.252
			V547.043z"/>
		<rect x="865.5" y="469.5" fill="#999999" stroke="#999999" stroke-miterlimit="10" width="12" height="170"/>
		<rect x="827.5" y="481.5" fill="#C8C8C8" stroke="#C8C8C8" stroke-width="5" stroke-miterlimit="10" width="88" height="72"/>
		<rect x="869.5" y="481.5" fill="#808080" stroke="#808080" stroke-miterlimit="10" width="5" height="72"/>
		<rect x="909.5" y="481.5" fill="#808080" stroke="#808080" stroke-miterlimit="10" width="4" height="72"/>
		<rect x="829.5" y="481.5" fill="#808080" stroke="#808080" stroke-miterlimit="10" width="4" height="72"/>
		<path fill="#999999" stroke="#999999" stroke-width="5" stroke-miterlimit="10" d="M891.5,458.896c0,2.5-3.54,6.67-9.5,9.5
			c-6.08,2.291-13.87,2.541-21,0c-3.62-0.709-9.46-6.08-9.5-9.5c0-3.719,2.13-6.93,5.24-8.5c1.14-0.57,2.42-0.92,3.76-0.99v-7.01
			c0-6.08,4.92-11,11-11c3.04,0,5.79,1.23,7.78,3.221c1.989,1.99,3.22,4.74,3.22,7.779v7.01c1.34,0.07,2.62,0.42,3.76,0.99
			C889.37,451.967,891.5,455.178,891.5,458.896z"/>
		<rect x="845" y="570" fill="none" stroke="#999999" stroke-width="8" stroke-miterlimit="10" width="53" height="25"/>
		<path fill="#999999" stroke="#999999" stroke-miterlimit="10" d="M903.5,598.127v3.373h4v22h-12v13h6v6h-6v7h-4v-7h-3.36
			c-0.88,4-3.29,7.707-6.64,10.137V789.5h-20V652.637c-2.81-2.039-4.95-5.137-6.09-8.137h-3.91v5h-4v-5h-85.21
			c-1.62,2-3.99,3-6.64,3h-3.3c-4.89,0-8.85-4.063-8.85-8.953v-0.301c0-3.51,2.04-6.539,5-7.969V460.5h11v169.777
			c1.45,0.699,2.68,2.223,3.55,3.223h84.45v-10h-12v-22h4v-3.373c-2.32-0.74-4-2.91-4-5.48v-10.5c0-3.18,2.57-5.646,5.75-5.646h0.5
			c3.18,0,5.75,2.467,5.75,5.646v10.5c0,2.57-1.68,4.74-4,5.48v3.373h4v11h4v21h3.92c2.271-7,8.62-11.5,16.08-11.5
			c8.54,0,15.61,6.5,16.81,14.5h3.19v-24h4v-11h4v-3.373c-2.32-0.74-4-2.91-4-5.48v-10.5c0-3.18,2.57-5.646,5.75-5.646h0.5
			c3.18,0,5.75,2.467,5.75,5.646v10.5C907.5,595.217,905.82,597.387,903.5,598.127z"/>
		<path fill="#999999" stroke="#999999" stroke-width="5" stroke-miterlimit="10" d="M1149.5,460.338v94.119
			c0,5.49-4.45,10.043-9.94,10.043H1022.44c-5.49,0-9.94-4.553-9.94-10.043v-94.119c0-5.49,4.45-9.838,9.94-9.838h43.3
			c-3.11,1-5.24,4.729-5.24,8.448c0.04,3.42,5.88,8.765,9.5,9.474c7.13,2.541,14.92,2.278,21-0.013c5.96-2.83,9.5-6.954,9.5-9.454
			c0-3.719-2.13-7.455-5.24-8.455h44.3C1145.05,450.5,1149.5,454.848,1149.5,460.338z"/>
		<path fill="#808080" stroke="#808080" stroke-width="5" stroke-miterlimit="10" d="M1138.5,547.043
			c0,4.613-3.74,8.457-8.354,8.457h-98.291c-4.614,0-8.354-3.844-8.354-8.457v-79.291c0-4.615,3.74-8.252,8.354-8.252h98.291
			c4.614,0,8.354,3.637,8.354,8.252V547.043z"/>
		<rect x="1074.5" y="469.5" fill="#999999" stroke="#999999" stroke-miterlimit="10" width="12" height="170"/>
		<rect x="1036.5" y="481.5" fill="#C8C8C8" stroke="#C8C8C8" stroke-width="5" stroke-miterlimit="10" width="88" height="72"/>
		<rect x="1078.5" y="481.5" fill="#808080" stroke="#808080" stroke-miterlimit="10" width="5" height="72"/>
		<rect x="1118.5" y="481.5" fill="#808080" stroke="#808080" stroke-miterlimit="10" width="4" height="72"/>
		<rect x="1038.5" y="481.5" fill="#808080" stroke="#808080" stroke-miterlimit="10" width="4" height="72"/>
		<path fill="#999999" stroke="#999999" stroke-width="5" stroke-miterlimit="10" d="M1100.5,458.896c0,2.5-3.54,6.67-9.5,9.5
			c-6.08,2.291-13.87,2.541-21,0c-3.62-0.709-9.46-6.08-9.5-9.5c0-3.719,2.13-6.93,5.24-8.5c1.14-0.57,2.42-0.92,3.76-0.99v-7.01
			c0-6.08,4.92-11,11-11c3.04,0,5.79,1.23,7.78,3.221c1.989,1.99,3.22,4.74,3.22,7.779v7.01c1.34,0.07,2.62,0.42,3.76,0.99
			C1098.37,451.967,1100.5,455.178,1100.5,458.896z"/>
		<rect x="1054" y="570" fill="none" stroke="#999999" stroke-width="8" stroke-miterlimit="10" width="53" height="25"/>
		<path fill="#999999" stroke="#999999" stroke-miterlimit="10" d="M1112.5,598.127v3.373h4v22h-12v13h6v6h-6v7h-4v-7h-3.36
			c-0.88,4-3.29,7.707-6.64,10.137V789.5h-20V652.637c-2.81-2.039-4.95-5.137-6.09-8.137h-3.91v5h-4v-5h-85.21
			c-1.62,2-3.99,3-6.64,3h-3.301c-4.89,0-8.85-4.063-8.85-8.953v-0.301c0-3.51,2.04-6.539,5-7.969V460.5h11v169.777
			c1.45,0.699,2.68,2.223,3.55,3.223h84.45v-10h-12v-22h4v-3.373c-2.32-0.74-4-2.91-4-5.48v-10.5c0-3.18,2.57-5.646,5.75-5.646h0.5
			c3.18,0,5.75,2.467,5.75,5.646v10.5c0,2.57-1.68,4.74-4,5.48v3.373h4v11h4v21h3.92c2.271-7,8.62-11.5,16.08-11.5
			c8.54,0,15.61,6.5,16.81,14.5h3.19v-24h4v-11h4v-3.373c-2.32-0.74-4-2.91-4-5.48v-10.5c0-3.18,2.57-5.646,5.75-5.646h0.5
			c3.18,0,5.75,2.467,5.75,5.646v10.5C1116.5,595.217,1114.82,597.387,1112.5,598.127z"/>
		<path fill="#999999" stroke="#999999" stroke-width="5" stroke-miterlimit="10" d="M1358.5,460.338v94.119
			c0,5.49-4.45,10.043-9.94,10.043H1231.44c-5.49,0-9.94-4.553-9.94-10.043v-94.119c0-5.49,4.45-9.838,9.94-9.838h43.3
			c-3.11,1-5.24,4.729-5.24,8.448c0.04,3.42,5.88,8.765,9.5,9.474c7.13,2.541,14.92,2.278,21-0.013c5.96-2.83,9.5-6.954,9.5-9.454
			c0-3.719-2.13-7.455-5.24-8.455h44.3C1354.05,450.5,1358.5,454.848,1358.5,460.338z"/>
		<path fill="#808080" stroke="#808080" stroke-width="5" stroke-miterlimit="10" d="M1347.5,547.043
			c0,4.613-3.74,8.457-8.354,8.457h-98.291c-4.614,0-8.354-3.844-8.354-8.457v-79.291c0-4.615,3.74-8.252,8.354-8.252h98.291
			c4.614,0,8.354,3.637,8.354,8.252V547.043z"/>
		<rect x="1283.5" y="469.5" fill="#999999" stroke="#999999" stroke-miterlimit="10" width="12" height="170"/>
		<rect x="1245.5" y="481.5" fill="#C8C8C8" stroke="#C8C8C8" stroke-width="5" stroke-miterlimit="10" width="88" height="72"/>
		<rect x="1287.5" y="481.5" fill="#808080" stroke="#808080" stroke-miterlimit="10" width="5" height="72"/>
		<rect x="1327.5" y="481.5" fill="#808080" stroke="#808080" stroke-miterlimit="10" width="4" height="72"/>
		<rect x="1247.5" y="481.5" fill="#808080" stroke="#808080" stroke-miterlimit="10" width="4" height="72"/>
		<path fill="#999999" stroke="#999999" stroke-width="5" stroke-miterlimit="10" d="M1309.5,458.896c0,2.5-3.54,6.67-9.5,9.5
			c-6.08,2.291-13.87,2.541-21,0c-3.62-0.709-9.46-6.08-9.5-9.5c0-3.719,2.13-6.93,5.24-8.5c1.14-0.57,2.42-0.92,3.76-0.99v-7.01
			c0-6.08,4.92-11,11-11c3.04,0,5.79,1.23,7.78,3.221c1.989,1.99,3.22,4.74,3.22,7.779v7.01c1.34,0.07,2.62,0.42,3.76,0.99
			C1307.37,451.967,1309.5,455.178,1309.5,458.896z"/>
		<rect x="1263" y="570" fill="none" stroke="#999999" stroke-width="8" stroke-miterlimit="10" width="53" height="25"/>
		<path fill="#999999" stroke="#999999" stroke-miterlimit="10" d="M1321.5,598.127v3.373h4v22h-12v13h6v6h-6v7h-4v-7h-3.36
			c-0.88,4-3.29,7.707-6.64,10.137V789.5h-20V652.637c-2.81-2.039-4.95-5.137-6.09-8.137h-3.91v5h-4v-5h-85.21
			c-1.62,2-3.99,3-6.64,3h-3.301c-4.89,0-8.85-4.063-8.85-8.953v-0.301c0-3.51,2.04-6.539,5-7.969V460.5h11v169.777
			c1.45,0.699,2.68,2.223,3.55,3.223h84.45v-10h-12v-22h4v-3.373c-2.32-0.74-4-2.91-4-5.48v-10.5c0-3.18,2.57-5.646,5.75-5.646h0.5
			c3.18,0,5.75,2.467,5.75,5.646v10.5c0,2.57-1.68,4.74-4,5.48v3.373h4v11h4v21h3.92c2.271-7,8.62-11.5,16.08-11.5
			c8.54,0,15.61,6.5,16.81,14.5h3.19v-24h4v-11h4v-3.373c-2.32-0.74-4-2.91-4-5.48v-10.5c0-3.18,2.57-5.646,5.75-5.646h0.5
			c3.18,0,5.75,2.467,5.75,5.646v10.5C1325.5,595.217,1323.82,597.387,1321.5,598.127z"/>
		<path fill="#999999" stroke="#999999" stroke-miterlimit="10" d="M1382.5,418.814c0-1.887-1.747-3.314-3.709-3.314H870.053
			c-1.962,0-3.553,1.428-3.553,3.314v0.166c0,1.887,1.591,3.52,3.553,3.52h508.738c1.962,0,3.709-1.633,3.709-3.52V418.814z"/>
		<line fill="none" stroke="#999999" stroke-width="5" stroke-miterlimit="10" x1="871.5" y1="432" x2="871.5" y2="418"/>
		<line fill="none" stroke="#999999" stroke-width="5" stroke-miterlimit="10" x1="1080.5" y1="432" x2="1080.5" y2="419"/>
		<line fill="none" stroke="#999999" stroke-width="5" stroke-miterlimit="10" x1="1289.5" y1="432" x2="1289.5" y2="419"/>
		<path fill="#999999" stroke="#999999" stroke-miterlimit="10" d="M1383.5,614.244c0,3.121-1.567,5.652-3.5,5.652l0,0
			c-1.933,0-3.5-2.531-3.5-5.652V421.049c0-3.121,1.567-5.652,3.5-5.652l0,0c1.933,0,3.5,2.531,3.5,5.652V614.244z"/>
		<rect x="1411.5" y="440.5" fill="#999999" stroke="#999999" stroke-miterlimit="10" width="12" height="10"/>
		<rect x="1299.5" y="458.5" fill="#999999" stroke="#999999" stroke-miterlimit="10" width="92" height="4"/>
		<rect x="1387.5" y="425.5" fill="#999999" stroke="#999999" stroke-miterlimit="10" width="4" height="37"/>
		<rect x="1387.5" y="425.5" fill="#999999" stroke="#999999" stroke-miterlimit="10" width="32" height="4"/>
		<rect x="1415.5" y="425.5" fill="#999999" stroke="#999999" stroke-miterlimit="10" width="4" height="19"/>
		<path fill="#999999" stroke="#999999" stroke-miterlimit="10" d="M1436.5,607.396v26c0,6.631-5.37,12.104-12,12.104h-1v144h-12
			V645.396c-6.63,0-12-5.369-12-12v-26c0-4.85,2.87-9.02,7-10.92V450.5h22v145.588C1433.16,597.727,1436.5,602.166,1436.5,607.396z"
			/>
		<path fill="#999999" stroke="#999999" stroke-miterlimit="10" d="M1427.559,613.5c0.796,0,1.441,1.568,1.441,3.5l0,0
			c0,1.934-0.646,3.5-1.441,3.5h-49.243c-0.795,0-1.441-1.566-1.441-3.5l0,0c0-1.932,0.646-3.5,1.441-3.5H1427.559z"/>
		<path fill="#999999" stroke="#999999" stroke-miterlimit="10" d="M1388.5,616.5c0,3.314-2.687,6-6,6h-4c-3.313,0-6-2.686-6-6l0,0
			c0-3.313,2.687-6,6-6h4C1385.813,610.5,1388.5,613.188,1388.5,616.5L1388.5,616.5z"/>
		<rect x="848.5" y="789.5" fill="#333333" stroke="#333333" stroke-miterlimit="10" width="47" height="4"/>
		<rect x="1057.5" y="789.5" fill="#333333" stroke="#333333" stroke-miterlimit="10" width="47" height="4"/>
		<rect x="1266.5" y="789.5" fill="#333333" stroke="#333333" stroke-miterlimit="10" width="47" height="4"/>
		<rect x="1394.5" y="789.5" fill="#333333" stroke="#333333" stroke-miterlimit="10" width="47" height="4"/>
		<rect x="104.5" y="789.5" fill="#333333" stroke="#333333" stroke-miterlimit="10" width="431" height="4"/>
		<g>
			<path fill="#808080" stroke="#808080" stroke-miterlimit="10" d="M341.5,106.906c0,9.977,0,28.592,0,37.055
				c0,7.66,4.564,6.539,7.487,6.539c8.001,0,85.878,0,85.878,0c2.349-1,2.783-3.183,2.789-4.339c0-6.592-3.377-7.513-3.377-7.513
				l-85.29-34.221c0,0-3.958-2.041-5.872-2.324C341.573,102.104,341.5,103.881,341.5,106.906z"/>
			<path fill="#E6E6E6" stroke="#999999" stroke-width="0.25" stroke-miterlimit="10" d="M358.697,115.038
				c0,0,3.848-0.019,6.49-0.019s2.814,3.383,3.967,5.793c1.219,2.287,3.601,1.696,6.508,0c2.418-1.688,13.474-10.215,13.474-10.215
				s2.196-2.033,0.011-5.286c-11.334-13.315-30.449-13.214-30.449-13.214s-19.18-0.102-30.514,13.214
				c-2.186,3.253,0.018,5.286,0.018,5.286s11.059,8.526,13.477,10.215c2.908,1.696,5.291,2.287,6.51,0
				c1.152-2.41,1.326-5.793,3.969-5.793S358.697,115.038,358.697,115.038z"/>
			<rect x="355.5" y="147.5" fill="#808080" stroke="#808080" stroke-miterlimit="10" width="7" height="23"/>
			<circle fill="#999999" stroke="#999999" stroke-width="0.25" stroke-miterlimit="10" cx="358.666" cy="133.239" r="13.846"/>
			<rect x="388.5" y="134.5" fill="#999999" stroke="#999999" stroke-miterlimit="10" width="44" height="20"/>
			<rect x="401.5" y="136.5" fill="#C8C8C8" stroke="#C8C8C8" stroke-miterlimit="10" width="23" height="2"/>
			<rect x="401.5" y="150.5" fill="#C8C8C8" stroke="#C8C8C8" stroke-miterlimit="10" width="23" height="2"/>
			<rect x="396.5" y="131.5" fill="#C8C8C8" stroke="#999999" stroke-miterlimit="10" width="5" height="27"/>
			<rect x="424.5" y="131.5" fill="#C8C8C8" stroke="#999999" stroke-miterlimit="10" width="5" height="27"/>
			<rect x="394.5" y="135.5" fill="#C8C8C8" stroke="#C8C8C8" stroke-miterlimit="10" width="1" height="4"/>
			<rect x="430.5" y="135.5" fill="#C8C8C8" stroke="#C8C8C8" stroke-miterlimit="10" width="1" height="4"/>
			<path fill="#999999" stroke="#999999" stroke-miterlimit="10" d="M442.726,144.599c0,3.284-2.662,6-5.946,6
				c-0.461,0-0.907-0.099-1.336-0.099H432.5v-12h2.943c0.429,0,0.875,0.001,1.336,0.001
				C440.063,138.501,442.726,141.314,442.726,144.599z"/>
			<path fill="#C8C8C8" stroke="#C8C8C8" stroke-miterlimit="10" d="M387.5,142.5v5h-31.387c-3.133,0-5.765,0.285-6.555,0.568
				c-0.157,0.058-0.242,0.156-0.242,0.217c-0.652,0.441-1.44,0.717-2.286,0.717c-2.265,0-4.099-1.834-4.099-4.107
				c0-2.275,1.834-4.111,4.099-4.111c0.846,0,1.634,0.258,2.286,0.699c0,0.063,0.082,0.295,0.24,0.35
				c0.792,0.287,3.448,0.668,6.605,0.668H387.5z"/>
			<polygon fill="#333333" stroke="#333333" stroke-width="0.25" stroke-miterlimit="10" points="352.812,146.146 397.295,101.318 
				390.512,94.482 346.028,139.311 342.027,150.179 			"/>
			<path fill="#C1272D" stroke="#C1272D" stroke-miterlimit="10" d="M425.712,66.24c2.799,2.799,3.058,7.077,0.577,9.557
				l-27.323,27.324l-10.135-10.135l27.323-27.324C418.635,63.183,422.913,63.441,425.712,66.24z"/>
			<circle fill="#C8C8C8" stroke="#C8C8C8" stroke-width="0.25" stroke-miterlimit="10" cx="358.666" cy="133.239" r="3.02"/>
			<circle fill="#C8C8C8" stroke="#C8C8C8" stroke-width="0.25" stroke-miterlimit="10" cx="344.761" cy="117.84" r="3.049"/>
			<circle fill="#C8C8C8" stroke="#C8C8C8" stroke-width="0.25" stroke-miterlimit="10" cx="437.465" cy="144.599" r="2.973"/>
			<circle fill="#C8C8C8" stroke="#C8C8C8" stroke-width="0.25" stroke-miterlimit="10" cx="347.125" cy="144.904" r="2.439"/>
			<rect x="394.5" y="149.5" fill="#C8C8C8" stroke="#C8C8C8" stroke-miterlimit="10" width="1" height="4"/>
			<rect x="430.5" y="149.5" fill="#C8C8C8" stroke="#C8C8C8" stroke-miterlimit="10" width="1" height="4"/>
		</g>
		<g>
			<rect x="504.5" y="260.5" fill="#999999" stroke="#999999" stroke-miterlimit="10" width="10" height="60"/>
			<path fill="#808080" stroke="#808080" stroke-miterlimit="10" d="M491.5,323.906c0,9.977,0,28.592,0,37.055
				c0,7.66,4.564,6.539,7.487,6.539c8.001,0,85.878,0,85.878,0c2.349-1,2.783-3.183,2.789-4.339c0-6.592-3.377-7.515-3.377-7.515
				l-85.29-34.22c0,0-3.958-2.04-5.872-2.323C491.573,319.104,491.5,320.881,491.5,323.906z"/>
			<path fill="#E6E6E6" stroke="#999999" stroke-width="0.25" stroke-miterlimit="10" d="M508.697,332.037
				c0,0,3.848-0.018,6.49-0.018s2.814,3.383,3.967,5.793c1.219,2.287,3.601,1.695,6.508,0c2.418-1.689,13.474-10.215,13.474-10.215
				s2.196-2.033,0.011-5.287c-11.334-13.314-30.449-13.213-30.449-13.213s-19.18-0.102-30.514,13.213
				c-2.186,3.254,0.018,5.287,0.018,5.287s11.059,8.525,13.477,10.215c2.908,1.695,5.291,2.287,6.51,0
				c1.152-2.41,1.326-5.793,3.969-5.793S508.697,332.037,508.697,332.037z"/>
			<rect x="505.5" y="364.5" fill="#808080" stroke="#808080" stroke-miterlimit="10" width="7" height="23"/>
			<circle fill="#999999" stroke="#999999" stroke-width="0.25" stroke-miterlimit="10" cx="508.666" cy="350.238" r="13.846"/>
			<rect x="538.5" y="351.5" fill="#999999" stroke="#999999" stroke-miterlimit="10" width="44" height="20"/>
			<rect x="551.5" y="353.5" fill="#C8C8C8" stroke="#C8C8C8" stroke-miterlimit="10" width="23" height="2"/>
			<rect x="551.5" y="367.5" fill="#C8C8C8" stroke="#C8C8C8" stroke-miterlimit="10" width="23" height="2"/>
			<rect x="546.5" y="348.5" fill="#C8C8C8" stroke="#999999" stroke-miterlimit="10" width="5" height="27"/>
			<rect x="574.5" y="348.5" fill="#C8C8C8" stroke="#999999" stroke-miterlimit="10" width="5" height="27"/>
			<rect x="544.5" y="352.5" fill="#C8C8C8" stroke="#C8C8C8" stroke-miterlimit="10" width="1" height="4"/>
			<rect x="580.5" y="352.5" fill="#C8C8C8" stroke="#C8C8C8" stroke-miterlimit="10" width="1" height="4"/>
			<path fill="#999999" stroke="#999999" stroke-miterlimit="10" d="M592.726,361.598c0,3.285-2.662,6.001-5.946,6.001
				c-0.461,0-0.907-0.099-1.336-0.099H582.5v-12h2.943c0.429,0,0.875,0.001,1.336,0.001
				C590.063,355.501,592.726,358.314,592.726,361.598z"/>
			<path fill="#C8C8C8" stroke="#C8C8C8" stroke-miterlimit="10" d="M537.5,359.5v5h-31.387c-3.133,0-5.765,0.284-6.555,0.567
				c-0.157,0.059-0.242,0.157-0.242,0.218c-0.652,0.441-1.439,0.716-2.286,0.716c-2.265,0-4.099-1.833-4.099-4.106
				c0-2.275,1.834-4.111,4.099-4.111c0.847,0,1.634,0.258,2.286,0.699c0,0.063,0.082,0.295,0.24,0.35
				c0.792,0.287,3.448,0.668,6.605,0.668H537.5z"/>
			<polygon fill="#333333" stroke="#333333" stroke-width="0.25" stroke-miterlimit="10" points="502.812,363.146 547.295,318.318 
				540.512,311.482 496.028,356.311 492.027,367.178 			"/>
			<path fill="#C1272D" stroke="#C1272D" stroke-width="0.25" stroke-miterlimit="10" d="M575.712,283.24
				c2.799,2.799,3.058,7.076,0.577,9.557l-27.323,27.324l-10.135-10.135l27.323-27.324
				C568.635,280.183,572.913,280.441,575.712,283.24z"/>
			<circle fill="#C8C8C8" stroke="#C8C8C8" stroke-width="0.25" stroke-miterlimit="10" cx="508.666" cy="350.238" r="3.02"/>
			<circle fill="#C8C8C8" stroke="#C8C8C8" stroke-width="0.25" stroke-miterlimit="10" cx="494.761" cy="334.84" r="3.049"/>
			<circle fill="#C8C8C8" stroke="#C8C8C8" stroke-width="0.25" stroke-miterlimit="10" cx="587.465" cy="361.598" r="2.973"/>
			<circle fill="#C8C8C8" stroke="#C8C8C8" stroke-width="0.25" stroke-miterlimit="10" cx="497.125" cy="361.904" r="2.439"/>
			<rect x="544.5" y="366.5" fill="#C8C8C8" stroke="#C8C8C8" stroke-miterlimit="10" width="1" height="4"/>
			<rect x="580.5" y="366.5" fill="#C8C8C8" stroke="#C8C8C8" stroke-miterlimit="10" width="1" height="4"/>
			<rect x="485.5" y="380.5" fill="#333333" stroke="#333333" stroke-miterlimit="10" width="47" height="4"/>
		</g>
		<g>
			<rect x="660.5" y="260.5" fill="#999999" stroke="#999999" stroke-miterlimit="10" width="10" height="60"/>
			<path fill="#808080" stroke="#808080" stroke-miterlimit="10" d="M647.5,323.906c0,9.977,0,28.592,0,37.055
				c0,7.66,4.564,6.539,7.487,6.539c8.001,0,85.878,0,85.878,0c2.349-1,2.783-3.183,2.789-4.339c0-6.592-3.377-7.515-3.377-7.515
				l-85.29-34.22c0,0-3.958-2.04-5.872-2.323C647.573,319.104,647.5,320.881,647.5,323.906z"/>
			<path fill="#E6E6E6" stroke="#999999" stroke-width="0.25" stroke-miterlimit="10" d="M664.697,332.037
				c0,0,3.848-0.018,6.49-0.018s2.814,3.383,3.967,5.793c1.219,2.287,3.601,1.695,6.508,0c2.418-1.689,13.474-10.215,13.474-10.215
				s2.196-2.033,0.011-5.287c-11.334-13.314-30.449-13.213-30.449-13.213s-19.18-0.102-30.514,13.213
				c-2.186,3.254,0.018,5.287,0.018,5.287s11.059,8.525,13.477,10.215c2.908,1.695,5.291,2.287,6.51,0
				c1.152-2.41,1.326-5.793,3.969-5.793S664.697,332.037,664.697,332.037z"/>
			<rect x="661.5" y="364.5" fill="#808080" stroke="#808080" stroke-miterlimit="10" width="7" height="23"/>
			<circle fill="#999999" stroke="#999999" stroke-width="0.25" stroke-miterlimit="10" cx="664.666" cy="350.238" r="13.846"/>
			<rect x="694.5" y="351.5" fill="#999999" stroke="#999999" stroke-miterlimit="10" width="44" height="20"/>
			<rect x="707.5" y="353.5" fill="#C8C8C8" stroke="#C8C8C8" stroke-miterlimit="10" width="23" height="2"/>
			<rect x="707.5" y="367.5" fill="#C8C8C8" stroke="#C8C8C8" stroke-miterlimit="10" width="23" height="2"/>
			<rect x="702.5" y="348.5" fill="#C8C8C8" stroke="#999999" stroke-miterlimit="10" width="5" height="27"/>
			<rect x="730.5" y="348.5" fill="#C8C8C8" stroke="#999999" stroke-miterlimit="10" width="5" height="27"/>
			<rect x="700.5" y="352.5" fill="#C8C8C8" stroke="#C8C8C8" stroke-miterlimit="10" width="1" height="4"/>
			<rect x="736.5" y="352.5" fill="#C8C8C8" stroke="#C8C8C8" stroke-miterlimit="10" width="1" height="4"/>
			<path fill="#999999" stroke="#999999" stroke-miterlimit="10" d="M748.726,361.598c0,3.285-2.662,6.001-5.946,6.001
				c-0.461,0-0.907-0.099-1.336-0.099H738.5v-12h2.943c0.429,0,0.875,0.001,1.336,0.001
				C746.063,355.501,748.726,358.314,748.726,361.598z"/>
			<path fill="#C8C8C8" stroke="#C8C8C8" stroke-miterlimit="10" d="M693.5,359.5v5h-31.387c-3.133,0-5.765,0.284-6.555,0.567
				c-0.157,0.059-0.242,0.157-0.242,0.218c-0.652,0.441-1.439,0.716-2.286,0.716c-2.265,0-4.099-1.833-4.099-4.106
				c0-2.275,1.834-4.111,4.099-4.111c0.847,0,1.634,0.258,2.286,0.699c0,0.063,0.082,0.295,0.24,0.35
				c0.792,0.287,3.448,0.668,6.605,0.668H693.5z"/>
			<polygon fill="#333333" stroke="#333333" stroke-width="0.25" stroke-miterlimit="10" points="658.812,363.146 703.295,318.318 
				696.512,311.482 652.028,356.311 648.027,367.178 			"/>
			<path fill="#C1272D" stroke="#C1272D" stroke-width="0.25" stroke-miterlimit="10" d="M731.712,283.24
				c2.799,2.799,3.058,7.076,0.577,9.557l-27.323,27.324l-10.135-10.135l27.323-27.324
				C724.635,280.183,728.913,280.441,731.712,283.24z"/>
			<circle fill="#C8C8C8" stroke="#C8C8C8" stroke-width="0.25" stroke-miterlimit="10" cx="664.666" cy="350.238" r="3.02"/>
			<circle fill="#C8C8C8" stroke="#C8C8C8" stroke-width="0.25" stroke-miterlimit="10" cx="650.761" cy="334.84" r="3.049"/>
			<circle fill="#C8C8C8" stroke="#C8C8C8" stroke-width="0.25" stroke-miterlimit="10" cx="743.465" cy="361.598" r="2.973"/>
			<circle fill="#C8C8C8" stroke="#C8C8C8" stroke-width="0.25" stroke-miterlimit="10" cx="653.125" cy="361.904" r="2.439"/>
			<rect x="700.5" y="366.5" fill="#C8C8C8" stroke="#C8C8C8" stroke-miterlimit="10" width="1" height="4"/>
			<rect x="736.5" y="366.5" fill="#C8C8C8" stroke="#C8C8C8" stroke-miterlimit="10" width="1" height="4"/>
			<rect x="641.5" y="380.5" fill="#333333" stroke="#333333" stroke-miterlimit="10" width="47" height="4"/>
		</g>
		<g>
			<rect x="816.5" y="260.5" fill="#999999" stroke="#999999" stroke-miterlimit="10" width="10" height="60"/>
			<path fill="#808080" stroke="#808080" stroke-miterlimit="10" d="M803.5,323.906c0,9.977,0,28.592,0,37.055
				c0,7.66,4.564,6.539,7.487,6.539c8.001,0,85.878,0,85.878,0c2.349-1,2.783-3.183,2.789-4.339c0-6.592-3.377-7.515-3.377-7.515
				l-85.29-34.22c0,0-3.958-2.04-5.872-2.323C803.573,319.104,803.5,320.881,803.5,323.906z"/>
			<path fill="#E6E6E6" stroke="#999999" stroke-width="0.25" stroke-miterlimit="10" d="M820.697,332.037
				c0,0,3.848-0.018,6.49-0.018s2.814,3.383,3.967,5.793c1.219,2.287,3.601,1.695,6.508,0c2.418-1.689,13.474-10.215,13.474-10.215
				s2.196-2.033,0.011-5.287c-11.334-13.314-30.449-13.213-30.449-13.213s-19.18-0.102-30.514,13.213
				c-2.186,3.254,0.018,5.287,0.018,5.287s11.059,8.525,13.477,10.215c2.908,1.695,5.291,2.287,6.51,0
				c1.152-2.41,1.326-5.793,3.969-5.793S820.697,332.037,820.697,332.037z"/>
			<rect x="817.5" y="364.5" fill="#808080" stroke="#808080" stroke-miterlimit="10" width="7" height="23"/>
			<circle fill="#999999" stroke="#999999" stroke-width="0.25" stroke-miterlimit="10" cx="820.666" cy="350.238" r="13.846"/>
			<rect x="850.5" y="351.5" fill="#999999" stroke="#999999" stroke-miterlimit="10" width="44" height="20"/>
			<rect x="863.5" y="353.5" fill="#C8C8C8" stroke="#C8C8C8" stroke-miterlimit="10" width="23" height="2"/>
			<rect x="863.5" y="367.5" fill="#C8C8C8" stroke="#C8C8C8" stroke-miterlimit="10" width="23" height="2"/>
			<rect x="858.5" y="348.5" fill="#C8C8C8" stroke="#999999" stroke-miterlimit="10" width="5" height="27"/>
			<rect x="886.5" y="348.397" fill="#C8C8C8" stroke="#999999" stroke-miterlimit="10" width="5" height="27"/>
			<rect x="856.5" y="352.5" fill="#C8C8C8" stroke="#C8C8C8" stroke-miterlimit="10" width="1" height="4"/>
			<rect x="892.5" y="352.5" fill="#C8C8C8" stroke="#C8C8C8" stroke-miterlimit="10" width="1" height="4"/>
			<path fill="#999999" stroke="#999999" stroke-miterlimit="10" d="M904.726,361.598c0,3.285-2.662,6.001-5.946,6.001
				c-0.461,0-0.907-0.099-1.336-0.099H894.5v-12h2.943c0.429,0,0.875,0.001,1.336,0.001
				C902.063,355.501,904.726,358.314,904.726,361.598z"/>
			<path fill="#C8C8C8" stroke="#C8C8C8" stroke-miterlimit="10" d="M849.5,359.5v5h-31.387c-3.133,0-5.765,0.284-6.555,0.567
				c-0.157,0.059-0.242,0.157-0.242,0.218c-0.652,0.441-1.439,0.716-2.286,0.716c-2.265,0-4.099-1.833-4.099-4.106
				c0-2.275,1.834-4.111,4.099-4.111c0.847,0,1.634,0.258,2.286,0.699c0,0.063,0.082,0.295,0.24,0.35
				c0.792,0.287,3.448,0.668,6.605,0.668H849.5z"/>
			<polygon fill="#333333" stroke="#333333" stroke-width="0.25" stroke-miterlimit="10" points="814.812,363.146 859.295,318.318 
				852.512,311.482 808.028,356.311 804.027,367.178 			"/>
			<path fill="#C1272D" stroke="#C1272D" stroke-width="0.25" stroke-miterlimit="10" d="M887.712,283.24
				c2.799,2.799,3.058,7.076,0.577,9.557l-27.323,27.324l-10.135-10.135l27.323-27.324
				C880.635,280.183,884.913,280.441,887.712,283.24z"/>
			<circle fill="#C8C8C8" stroke="#C8C8C8" stroke-width="0.25" stroke-miterlimit="10" cx="820.666" cy="350.238" r="3.02"/>
			<circle fill="#C8C8C8" stroke="#C8C8C8" stroke-width="0.25" stroke-miterlimit="10" cx="806.761" cy="334.84" r="3.049"/>
			<circle fill="#C8C8C8" stroke="#C8C8C8" stroke-width="0.25" stroke-miterlimit="10" cx="899.465" cy="361.598" r="2.973"/>
			<circle fill="#C8C8C8" stroke="#C8C8C8" stroke-width="0.25" stroke-miterlimit="10" cx="809.125" cy="361.904" r="2.439"/>
			<rect x="856.5" y="366.5" fill="#C8C8C8" stroke="#C8C8C8" stroke-miterlimit="10" width="1" height="4"/>
			<rect x="892.5" y="366.5" fill="#C8C8C8" stroke="#C8C8C8" stroke-miterlimit="10" width="1" height="4"/>
			<rect x="797.5" y="380.5" fill="#333333" stroke="#333333" stroke-miterlimit="10" width="47" height="4"/>
		</g>
		<g>
			<rect x="971.5" y="260.5" fill="#999999" stroke="#999999" stroke-miterlimit="10" width="10" height="60"/>
			<path fill="#808080" stroke="#808080" stroke-miterlimit="10" d="M959.5,323.906c0,9.977,0,28.592,0,37.055
				c0,7.66,4.564,6.539,7.487,6.539c8.001,0,85.878,0,85.878,0c2.349-1,2.783-3.183,2.789-4.339c0-6.592-3.377-7.515-3.377-7.515
				l-85.29-34.22c0,0-3.958-2.04-5.872-2.323C959.573,319.104,959.5,320.881,959.5,323.906z"/>
			<path fill="#E6E6E6" stroke="#999999" stroke-width="0.25" stroke-miterlimit="10" d="M976.697,332.037
				c0,0,3.848-0.018,6.49-0.018s2.814,3.383,3.967,5.793c1.219,2.287,3.601,1.695,6.508,0c2.418-1.689,13.474-10.215,13.474-10.215
				s2.196-2.033,0.011-5.287c-11.334-13.314-30.449-13.213-30.449-13.213s-19.18-0.102-30.514,13.213
				c-2.186,3.254,0.018,5.287,0.018,5.287s11.059,8.525,13.477,10.215c2.908,1.695,5.291,2.287,6.51,0
				c1.152-2.41,1.326-5.793,3.969-5.793S976.697,332.037,976.697,332.037z"/>
			<rect x="973.5" y="364.5" fill="#808080" stroke="#808080" stroke-miterlimit="10" width="7" height="23"/>
			<circle fill="#999999" stroke="#999999" stroke-width="0.25" stroke-miterlimit="10" cx="976.666" cy="350.238" r="13.846"/>
			<rect x="1006.5" y="351.5" fill="#999999" stroke="#999999" stroke-miterlimit="10" width="44" height="20"/>
			<rect x="1019.5" y="353.5" fill="#C8C8C8" stroke="#C8C8C8" stroke-miterlimit="10" width="23" height="2"/>
			<rect x="1019.5" y="367.5" fill="#C8C8C8" stroke="#C8C8C8" stroke-miterlimit="10" width="23" height="2"/>
			<rect x="1014.5" y="348.5" fill="#C8C8C8" stroke="#999999" stroke-miterlimit="10" width="5" height="27"/>
			<rect x="1042.5" y="348.5" fill="#C8C8C8" stroke="#999999" stroke-miterlimit="10" width="5" height="27"/>
			<rect x="1012.5" y="352.5" fill="#C8C8C8" stroke="#C8C8C8" stroke-miterlimit="10" width="1" height="4"/>
			<rect x="1048.5" y="352.5" fill="#C8C8C8" stroke="#C8C8C8" stroke-miterlimit="10" width="1" height="4"/>
			<path fill="#999999" stroke="#999999" stroke-miterlimit="10" d="M1060.726,361.598c0,3.285-2.662,6.001-5.946,6.001
				c-0.461,0-0.907-0.099-1.336-0.099h-2.943v-12h2.943c0.429,0,0.875,0.001,1.336,0.001
				C1058.063,355.501,1060.726,358.314,1060.726,361.598z"/>
			<path fill="#C8C8C8" stroke="#C8C8C8" stroke-miterlimit="10" d="M1005.5,359.5v5h-31.387c-3.133,0-5.765,0.284-6.555,0.567
				c-0.157,0.059-0.242,0.157-0.242,0.218c-0.652,0.441-1.439,0.716-2.286,0.716c-2.265,0-4.099-1.833-4.099-4.106
				c0-2.275,1.834-4.111,4.099-4.111c0.847,0,1.634,0.258,2.286,0.699c0,0.063,0.082,0.295,0.24,0.35
				c0.792,0.287,3.448,0.668,6.605,0.668H1005.5z"/>
			<polygon fill="#333333" stroke="#333333" stroke-width="0.25" stroke-miterlimit="10" points="970.812,363.146 1015.295,318.318 
				1008.512,311.482 964.028,356.311 960.027,367.178 			"/>
			<path fill="#C1272D" stroke="#C1272D" stroke-width="0.25" stroke-miterlimit="10" d="M1043.712,283.24
				c2.799,2.799,3.058,7.076,0.577,9.557l-27.323,27.324l-10.135-10.135l27.323-27.324
				C1036.635,280.183,1040.913,280.441,1043.712,283.24z"/>
			<circle fill="#C8C8C8" stroke="#C8C8C8" stroke-width="0.25" stroke-miterlimit="10" cx="976.666" cy="350.238" r="3.02"/>
			<circle fill="#C8C8C8" stroke="#C8C8C8" stroke-width="0.25" stroke-miterlimit="10" cx="962.761" cy="334.84" r="3.049"/>
			<circle fill="#C8C8C8" stroke="#C8C8C8" stroke-width="0.25" stroke-miterlimit="10" cx="1055.465" cy="361.598" r="2.973"/>
			<circle fill="#C8C8C8" stroke="#C8C8C8" stroke-width="0.25" stroke-miterlimit="10" cx="965.125" cy="361.904" r="2.439"/>
			<rect x="1012.5" y="366.5" fill="#C8C8C8" stroke="#C8C8C8" stroke-miterlimit="10" width="1" height="4"/>
			<rect x="1048.5" y="366.5" fill="#C8C8C8" stroke="#C8C8C8" stroke-miterlimit="10" width="1" height="4"/>
			<rect x="953.5" y="380.5" fill="#333333" stroke="#333333" stroke-miterlimit="10" width="47" height="4"/>
		</g>
		<g>
			<rect x="1128.5" y="260.5" fill="#999999" stroke="#999999" stroke-miterlimit="10" width="10" height="60"/>
			<path fill="#808080" stroke="#808080" stroke-miterlimit="10" d="M1115.5,323.906c0,9.977,0,28.592,0,37.055
				c0,7.66,4.564,6.539,7.487,6.539c8.001,0,85.878,0,85.878,0c2.349-1,2.783-3.183,2.789-4.339c0-6.592-3.377-7.515-3.377-7.515
				l-85.29-34.22c0,0-3.958-2.04-5.872-2.323C1115.573,319.104,1115.5,320.881,1115.5,323.906z"/>
			<path fill="#E6E6E6" stroke="#999999" stroke-width="0.25" stroke-miterlimit="10" d="M1132.697,332.037
				c0,0,3.848-0.018,6.49-0.018s2.814,3.383,3.967,5.793c1.219,2.287,3.601,1.695,6.508,0c2.418-1.689,13.474-10.215,13.474-10.215
				s2.196-2.033,0.011-5.287c-11.334-13.314-30.449-13.213-30.449-13.213s-19.18-0.102-30.514,13.213
				c-2.186,3.254,0.018,5.287,0.018,5.287s11.059,8.525,13.477,10.215c2.908,1.695,5.291,2.287,6.51,0
				c1.152-2.41,1.326-5.793,3.969-5.793S1132.697,332.037,1132.697,332.037z"/>
			<rect x="1129.5" y="364.5" fill="#808080" stroke="#808080" stroke-miterlimit="10" width="7" height="23"/>
			<circle fill="#999999" stroke="#999999" stroke-width="0.25" stroke-miterlimit="10" cx="1132.666" cy="350.238" r="13.846"/>
			<rect x="1162.5" y="351.5" fill="#999999" stroke="#999999" stroke-miterlimit="10" width="44" height="20"/>
			<rect x="1175.5" y="353.5" fill="#C8C8C8" stroke="#C8C8C8" stroke-miterlimit="10" width="23" height="2"/>
			<rect x="1175.5" y="367.5" fill="#C8C8C8" stroke="#C8C8C8" stroke-miterlimit="10" width="23" height="2"/>
			<rect x="1170.5" y="348.5" fill="#C8C8C8" stroke="#999999" stroke-miterlimit="10" width="5" height="27"/>
			<rect x="1198.5" y="348.5" fill="#C8C8C8" stroke="#999999" stroke-miterlimit="10" width="5" height="27"/>
			<rect x="1168.5" y="352.5" fill="#C8C8C8" stroke="#C8C8C8" stroke-miterlimit="10" width="1" height="4"/>
			<rect x="1204.5" y="352.5" fill="#C8C8C8" stroke="#C8C8C8" stroke-miterlimit="10" width="1" height="4"/>
			<path fill="#999999" stroke="#999999" stroke-miterlimit="10" d="M1216.726,361.598c0,3.285-2.662,6.001-5.946,6.001
				c-0.461,0-0.907-0.099-1.336-0.099h-2.943v-12h2.943c0.429,0,0.875,0.001,1.336,0.001
				C1214.063,355.501,1216.726,358.314,1216.726,361.598z"/>
			<path fill="#C8C8C8" stroke="#C8C8C8" stroke-miterlimit="10" d="M1161.5,359.5v5h-31.387c-3.133,0-5.765,0.284-6.555,0.567
				c-0.157,0.059-0.242,0.157-0.242,0.218c-0.652,0.441-1.439,0.716-2.286,0.716c-2.265,0-4.099-1.833-4.099-4.106
				c0-2.275,1.834-4.111,4.099-4.111c0.847,0,1.634,0.258,2.286,0.699c0,0.063,0.082,0.295,0.24,0.35
				c0.792,0.287,3.448,0.668,6.605,0.668H1161.5z"/>
			<polygon fill="#333333" stroke="#333333" stroke-width="0.25" stroke-miterlimit="10" points="1126.812,363.146 
				1171.295,318.318 1164.512,311.482 1120.028,356.311 1116.027,367.178 			"/>
			<path fill="#C1272D" stroke="#C1272D" stroke-width="0.25" stroke-miterlimit="10" d="M1199.712,283.24
				c2.799,2.799,3.058,7.076,0.577,9.557l-27.323,27.324l-10.135-10.135l27.323-27.324
				C1192.635,280.183,1196.913,280.441,1199.712,283.24z"/>
			<circle fill="#C8C8C8" stroke="#C8C8C8" stroke-width="0.25" stroke-miterlimit="10" cx="1132.666" cy="350.238" r="3.02"/>
			<circle fill="#C8C8C8" stroke="#C8C8C8" stroke-width="0.25" stroke-miterlimit="10" cx="1118.761" cy="334.84" r="3.049"/>
			<circle fill="#C8C8C8" stroke="#C8C8C8" stroke-width="0.25" stroke-miterlimit="10" cx="1211.465" cy="361.598" r="2.973"/>
			<circle fill="#C8C8C8" stroke="#C8C8C8" stroke-width="0.25" stroke-miterlimit="10" cx="1121.125" cy="361.904" r="2.439"/>
			<rect x="1168.5" y="366.5" fill="#C8C8C8" stroke="#C8C8C8" stroke-miterlimit="10" width="1" height="4"/>
			<rect x="1204.5" y="366.5" fill="#C8C8C8" stroke="#C8C8C8" stroke-miterlimit="10" width="1" height="4"/>
			<rect x="1109.5" y="380.5" fill="#333333" stroke="#333333" stroke-miterlimit="10" width="47" height="4"/>
		</g>
		<g>
			<rect x="1284.5" y="260.5" fill="#999999" stroke="#999999" stroke-miterlimit="10" width="10" height="60"/>
			<path fill="#808080" stroke="#808080" stroke-miterlimit="10" d="M1271.5,323.906c0,9.977,0,28.592,0,37.055
				c0,7.66,4.564,6.539,7.487,6.539c8.001,0,85.878,0,85.878,0c2.349-1,2.783-3.183,2.789-4.339c0-6.592-3.377-7.515-3.377-7.515
				l-85.29-34.22c0,0-3.958-2.04-5.872-2.323C1271.573,319.104,1271.5,320.881,1271.5,323.906z"/>
			<path fill="#E6E6E6" stroke="#999999" stroke-width="0.25" stroke-miterlimit="10" d="M1288.697,332.037
				c0,0,3.848-0.018,6.49-0.018s2.814,3.383,3.967,5.793c1.219,2.287,3.601,1.695,6.508,0c2.418-1.689,13.474-10.215,13.474-10.215
				s2.196-2.033,0.011-5.287c-11.334-13.314-30.449-13.213-30.449-13.213s-19.18-0.102-30.514,13.213
				c-2.186,3.254,0.018,5.287,0.018,5.287s11.059,8.525,13.477,10.215c2.908,1.695,5.291,2.287,6.51,0
				c1.152-2.41,1.326-5.793,3.969-5.793S1288.697,332.037,1288.697,332.037z"/>
			<rect x="1285.5" y="364.5" fill="#808080" stroke="#808080" stroke-miterlimit="10" width="7" height="16"/>
			<circle fill="#999999" stroke="#999999" stroke-width="0.25" stroke-miterlimit="10" cx="1288.666" cy="350.238" r="13.846"/>
			<rect x="1318.5" y="351.5" fill="#999999" stroke="#999999" stroke-miterlimit="10" width="44" height="20"/>
			<rect x="1331.5" y="353.5" fill="#C8C8C8" stroke="#C8C8C8" stroke-miterlimit="10" width="23" height="2"/>
			<rect x="1331.5" y="367.5" fill="#C8C8C8" stroke="#C8C8C8" stroke-miterlimit="10" width="23" height="2"/>
			<rect x="1326.5" y="348.5" fill="#C8C8C8" stroke="#999999" stroke-miterlimit="10" width="5" height="27"/>
			<rect x="1354.5" y="348.5" fill="#C8C8C8" stroke="#999999" stroke-miterlimit="10" width="5" height="27"/>
			<rect x="1324.5" y="352.5" fill="#C8C8C8" stroke="#C8C8C8" stroke-miterlimit="10" width="1" height="4"/>
			<rect x="1360.5" y="352.5" fill="#C8C8C8" stroke="#C8C8C8" stroke-miterlimit="10" width="1" height="4"/>
			<path fill="#999999" stroke="#999999" stroke-miterlimit="10" d="M1372.726,361.598c0,3.285-2.662,6.001-5.946,6.001
				c-0.461,0-0.907-0.099-1.336-0.099h-2.943v-12h2.943c0.429,0,0.875,0.001,1.336,0.001
				C1370.063,355.501,1372.726,358.314,1372.726,361.598z"/>
			<path fill="#C8C8C8" stroke="#C8C8C8" stroke-miterlimit="10" d="M1317.5,359.5v5h-31.387c-3.133,0-5.765,0.284-6.555,0.567
				c-0.157,0.059-0.242,0.157-0.242,0.218c-0.652,0.441-1.439,0.716-2.286,0.716c-2.265,0-4.099-1.833-4.099-4.106
				c0-2.275,1.834-4.111,4.099-4.111c0.847,0,1.634,0.258,2.286,0.699c0,0.063,0.082,0.295,0.24,0.35
				c0.792,0.287,3.448,0.668,6.605,0.668H1317.5z"/>
			<polygon fill="#333333" stroke="#333333" stroke-width="0.25" stroke-miterlimit="10" points="1282.812,363.146 
				1327.295,318.318 1320.512,311.482 1276.028,356.311 1272.027,367.178 			"/>
			<path fill="#C1272D" stroke="#C1272D" stroke-width="0.25" stroke-miterlimit="10" d="M1355.712,283.24
				c2.799,2.799,3.058,7.076,0.577,9.557l-27.323,27.324l-10.135-10.135l27.323-27.324
				C1348.635,280.183,1352.913,280.441,1355.712,283.24z"/>
			<circle fill="#C8C8C8" stroke="#C8C8C8" stroke-width="0.25" stroke-miterlimit="10" cx="1288.666" cy="350.238" r="3.02"/>
			<circle fill="#C8C8C8" stroke="#C8C8C8" stroke-width="0.25" stroke-miterlimit="10" cx="1274.761" cy="334.84" r="3.049"/>
			<circle fill="#C8C8C8" stroke="#C8C8C8" stroke-width="0.25" stroke-miterlimit="10" cx="1367.465" cy="361.598" r="2.973"/>
			<circle fill="#C8C8C8" stroke="#C8C8C8" stroke-width="0.25" stroke-miterlimit="10" cx="1277.125" cy="361.904" r="2.439"/>
			<rect x="1324.5" y="366.5" fill="#C8C8C8" stroke="#C8C8C8" stroke-miterlimit="10" width="1" height="4"/>
			<rect x="1360.5" y="366.5" fill="#C8C8C8" stroke="#C8C8C8" stroke-miterlimit="10" width="1" height="4"/>
			<rect x="1265.5" y="380.5" fill="#333333" stroke="#333333" stroke-miterlimit="10" width="47" height="4"/>
		</g>
	</g>
</g>
</svg>
