<?xml version="1.0" encoding="utf-8"?>
<!-- Generator: Adobe Illustrator 16.0.0, SVG Export Plug-In . SVG Version: 6.00 Build 0)  -->
<!DOCTYPE svg PUBLIC "-//W3C//DTD SVG 1.1//EN" "http://www.w3.org/Graphics/SVG/1.1/DTD/svg11.dtd">
<svg version="1.1" xmlns="http://www.w3.org/2000/svg" xmlns:xlink="http://www.w3.org/1999/xlink" x="0px" y="0px" width="1164px"
	 height="286px" viewBox="0 0 1164 286" enable-background="new 0 0 1164 286" xml:space="preserve">
<g id="Layer_1" display="none">
</g>
<g id="Cylinder">
</g>
<g id="Layer_6">
</g>
<g id="Pressure_gauge">
</g>
<g id="Chasis__x26__base">
	<g>
		<g>
			<rect x="8.5" y="176.5" fill="#999999" stroke="#999999" stroke-miterlimit="10" width="43" height="6"/>
			<path fill="#808080" stroke="#808080" stroke-miterlimit="10" d="M59.5,168.268c0,4.547-3.686,8.232-8.232,8.232H8.732
				c-4.547,0-8.232-3.686-8.232-8.232v-42.535c0-4.547,3.686-8.232,8.232-8.232h42.535c4.547,0,8.232,3.686,8.232,8.232V168.268z"/>
			<circle fill="#C8C8C8" stroke="#C8C8C8" stroke-miterlimit="10" cx="30.5" cy="146.396" r="20.924"/>
			<rect x="22.5" y="182.5" fill="#999999" stroke="#999999" stroke-miterlimit="10" width="15" height="103"/>
		</g>
		<path fill="#999999" stroke="#999999" stroke-miterlimit="10" d="M1163.5,140.75v0.5c0,3.4-2.06,6.32-5,7.58v13.67h-6v-13h-42.75
			c-4.56,0-8.25-3.69-8.25-8.25v-0.5c0-4.56,3.69-8.25,8.25-8.25h45.5C1159.81,132.5,1163.5,136.19,1163.5,140.75z"/>
		<path fill="#999999" stroke="#999999" stroke-miterlimit="10" d="M1109.5,124.5H360.94c-7.42,0-13.44,3.027-13.44,7.518V147.5
			H235.92c-0.67-2-1.88-3.143-3.42-4.023V68.5h-15v74.977c-0.61,0.34-1.17,0.822-1.66,1.312c-0.75,0.75-1.35,1.712-1.76,2.712H60.5
			v6h153.58c0.67,2,1.88,2.938,3.42,3.816V278.5h15V157.316c1.54-0.879,2.75-1.816,3.42-3.816h112.61c2.02,3,6.82,5,12.41,5h748.56
			V124.5z"/>
		<path fill="#999999" stroke="#999999" stroke-miterlimit="10" d="M571.5,95.768v0.26c0,2.5-1.7,4.59-4,5.189V124.5h-6v-23.283
			c-1.52-0.39-2.77-1.717-3.44-2.717H410.32c-0.99,1-2.5,2-4.19,2h-3.26c-2.97,0-5.37-2.503-5.37-5.473v-0.26
			c0-2.5,1.7-4.591,4-5.19v-78.36c-1.52-0.39-2.77-1.717-3.44-2.717H241.5v-6h157.18c0.99-1,2.5-2,4.19-2h3.26
			c2.97,0,5.37,2.297,5.37,5.268v0.26c0,2.5-1.7,4.59-4,5.189v78.36c1.52,0.39,2.77,1.923,3.44,2.923h147.74c0.99-1,2.5-2,4.19-2
			h3.26C569.1,90.5,571.5,92.797,571.5,95.768z"/>
		<path fill="#999999" stroke="#999999" stroke-miterlimit="10" d="M207.5,28.5v6H36.94c-0.67,1-1.92,2.327-3.44,2.717V116.5h-6
			V37.217c-2.3-0.6-4-2.689-4-5.189v-0.26c0-2.971,2.4-5.268,5.37-5.268h3.26c1.69,0,3.2,1,4.19,2H207.5z"/>
		<g>
			<rect x="1048.5" y="182.5" fill="#999999" stroke="#999999" stroke-miterlimit="10" width="15" height="103"/>
			<rect x="1034.5" y="176.5" fill="#999999" stroke="#999999" stroke-miterlimit="10" width="43" height="6"/>
			<path fill="#808080" stroke="#808080" stroke-miterlimit="10" d="M1085.5,168.268c0,4.547-3.686,8.232-8.232,8.232h-42.535
				c-4.547,0-8.232-3.686-8.232-8.232v-42.535c0-4.547,3.686-8.232,8.232-8.232h42.535c4.547,0,8.232,3.686,8.232,8.232V168.268z"/>
			<circle fill="#C8C8C8" stroke="#C8C8C8" stroke-miterlimit="10" cx="1056.5" cy="146.396" r="20.924"/>
			<polygon fill="#999999" stroke="#999999" stroke-miterlimit="10" points="1072.5,11.5 1072.5,106.5 1063.5,106.5 1063.5,117.5 
				1048.5,117.5 1048.5,106.5 1038.5,106.5 1038.5,11.5 1045.5,11.5 1045.5,6.5 1064.5,6.5 1064.5,11.5 			"/>
		</g>
		<rect x="201.5" y="278.5" fill="#333333" stroke="#333333" stroke-miterlimit="10" width="47" height="4"/>
	</g>
</g>
<g id="Layer_8">
</g>
<g id="Motor__x26__pump">
</g>
<g id="Valves">
</g>
</svg>
