<?xml version="1.0" encoding="utf-8"?>
<!-- Generator: Adobe Illustrator 16.0.0, SVG Export Plug-In . SVG Version: 6.00 Build 0)  -->
<!DOCTYPE svg PUBLIC "-//W3C//DTD SVG 1.1//EN" "http://www.w3.org/Graphics/SVG/1.1/DTD/svg11.dtd">
<svg version="1.1" xmlns="http://www.w3.org/2000/svg" xmlns:xlink="http://www.w3.org/1999/xlink" x="0px" y="0px" width="1539px"
	 height="826px" viewBox="0 0 1539 826" enable-background="new 0 0 1539 826" xml:space="preserve">
<g id="Layer_1" display="none">
</g>
<g id="Cylinder">
</g>
<g id="Layer_6">
</g>
<g id="Pressure_gauge">
</g>
<g id="Chasis__x26__base">
</g>
<g id="Layer_8">
</g>
<g id="Motor__x26__pump">
</g>
<g id="Valves">
	<g>
		<path fill="#E6E6E6" stroke="#E6E6E6" stroke-miterlimit="10" d="M308.5,48.5v384h-74v-384c0-15.69,9.77-29.1,23.55-34.48
			c-0.36-0.85-0.55-1.78-0.55-2.75v-0.54c0-3.68,2.73-6.7,6.279-7.16c-0.18-0.29-0.279-0.63-0.279-0.99V2.42
			c0-1.06,0.859-1.92,1.92-1.92h12.16c1.061,0,1.92,0.86,1.92,1.92v0.16c0,0.36-0.1,0.7-0.279,0.99
			c3.549,0.46,6.279,3.48,6.279,7.16v0.54c0,0.97-0.189,1.9-0.55,2.75C298.73,19.4,308.5,32.81,308.5,48.5z"/>
		<path fill="#E6E6E6" stroke="#E6E6E6" stroke-miterlimit="10" d="M392.5,48.5v384h-74v-384c0-15.69,9.77-29.1,23.55-34.48
			c-0.36-0.85-0.55-1.78-0.55-2.75v-0.54c0-3.68,2.73-6.7,6.279-7.16c-0.18-0.29-0.279-0.63-0.279-0.99V2.42
			c0-1.06,0.859-1.92,1.92-1.92h12.16c1.061,0,1.92,0.86,1.92,1.92v0.16c0,0.36-0.1,0.7-0.279,0.99
			c3.549,0.46,6.279,3.48,6.279,7.16v0.54c0,0.97-0.189,1.9-0.55,2.75C382.73,19.4,392.5,32.81,392.5,48.5z"/>
		<path fill="#E6E6E6" stroke="#E6E6E6" stroke-miterlimit="10" d="M476.5,48.5v384h-74v-384c0-15.69,9.77-29.1,23.55-34.48
			c-0.36-0.85-0.55-1.78-0.55-2.75v-0.54c0-3.68,2.73-6.7,6.279-7.16c-0.18-0.29-0.279-0.63-0.279-0.99V2.42
			c0-1.06,0.859-1.92,1.92-1.92h12.16c1.061,0,1.92,0.86,1.92,1.92v0.16c0,0.36-0.1,0.7-0.279,0.99
			c3.549,0.46,6.279,3.48,6.279,7.16v0.54c0,0.97-0.189,1.9-0.55,2.75C466.73,19.4,476.5,32.81,476.5,48.5z"/>
		<path fill="#E6E6E6" stroke="#E6E6E6" stroke-miterlimit="10" d="M560.5,48.5v384h-74v-384c0-15.69,9.77-29.1,23.55-34.48
			c-0.36-0.85-0.55-1.78-0.55-2.75v-0.54c0-3.68,2.73-6.7,6.279-7.16c-0.18-0.29-0.279-0.63-0.279-0.99V2.42
			c0-1.06,0.859-1.92,1.92-1.92h12.16c1.061,0,1.92,0.86,1.92,1.92v0.16c0,0.36-0.1,0.7-0.279,0.99
			c3.549,0.46,6.279,3.48,6.279,7.16v0.54c0,0.97-0.189,1.9-0.55,2.75C550.73,19.4,560.5,32.81,560.5,48.5z"/>
		<path fill="#E6E6E6" stroke="#E6E6E6" stroke-miterlimit="10" d="M644.5,48.5v384h-74v-384c0-15.69,9.77-29.1,23.55-34.48
			c-0.36-0.85-0.55-1.78-0.55-2.75v-0.54c0-3.68,2.73-6.7,6.279-7.16c-0.18-0.29-0.279-0.63-0.279-0.99V2.42
			c0-1.06,0.859-1.92,1.92-1.92h12.16c1.061,0,1.92,0.86,1.92,1.92v0.16c0,0.36-0.1,0.7-0.279,0.99
			c3.549,0.46,6.279,3.48,6.279,7.16v0.54c0,0.97-0.189,1.9-0.55,2.75C634.73,19.4,644.5,32.81,644.5,48.5z"/>
		<path fill="#E6E6E6" stroke="#E6E6E6" stroke-miterlimit="10" d="M728.5,48.5v384h-74v-384c0-15.69,9.77-29.1,23.55-34.48
			c-0.36-0.85-0.55-1.78-0.55-2.75v-0.54c0-3.68,2.73-6.7,6.279-7.16c-0.18-0.29-0.279-0.63-0.279-0.99V2.42
			c0-1.06,0.859-1.92,1.92-1.92h12.16c1.061,0,1.92,0.86,1.92,1.92v0.16c0,0.36-0.1,0.7-0.279,0.99
			c3.549,0.46,6.279,3.48,6.279,7.16v0.54c0,0.97-0.189,1.9-0.55,2.75C718.73,19.4,728.5,32.81,728.5,48.5z"/>
		<path fill="#E6E6E6" stroke="#E6E6E6" stroke-miterlimit="10" d="M812.5,48.5v384h-74v-384c0-15.69,9.77-29.1,23.55-34.48
			c-0.36-0.85-0.55-1.78-0.55-2.75v-0.54c0-3.68,2.73-6.7,6.279-7.16c-0.18-0.29-0.279-0.63-0.279-0.99V2.42
			c0-1.06,0.859-1.92,1.92-1.92h12.16c1.061,0,1.92,0.86,1.92,1.92v0.16c0,0.36-0.1,0.7-0.279,0.99
			c3.549,0.46,6.279,3.48,6.279,7.16v0.54c0,0.97-0.189,1.9-0.55,2.75C802.73,19.4,812.5,32.81,812.5,48.5z"/>
		<path fill="#E6E6E6" stroke="#E6E6E6" stroke-miterlimit="10" d="M896.5,48.5v384h-74v-384c0-15.69,9.77-29.1,23.55-34.48
			c-0.36-0.85-0.55-1.78-0.55-2.75v-0.54c0-3.68,2.73-6.7,6.279-7.16c-0.18-0.29-0.279-0.63-0.279-0.99V2.42
			c0-1.06,0.859-1.92,1.92-1.92h12.16c1.061,0,1.92,0.86,1.92,1.92v0.16c0,0.36-0.1,0.7-0.279,0.99
			c3.549,0.46,6.279,3.48,6.279,7.16v0.54c0,0.97-0.189,1.9-0.55,2.75C886.73,19.4,896.5,32.81,896.5,48.5z"/>
		<path fill="#E6E6E6" stroke="#E6E6E6" stroke-miterlimit="10" d="M980.5,48.5v384h-74v-384c0-15.69,9.77-29.1,23.55-34.48
			c-0.36-0.85-0.55-1.78-0.55-2.75v-0.54c0-3.68,2.73-6.7,6.279-7.16c-0.18-0.29-0.279-0.63-0.279-0.99V2.42
			c0-1.06,0.859-1.92,1.92-1.92h12.16c1.061,0,1.92,0.86,1.92,1.92v0.16c0,0.36-0.1,0.7-0.279,0.99
			c3.549,0.46,6.279,3.48,6.279,7.16v0.54c0,0.97-0.189,1.9-0.55,2.75C970.73,19.4,980.5,32.81,980.5,48.5z"/>
		<path fill="#E6E6E6" stroke="#E6E6E6" stroke-miterlimit="10" d="M1064.5,48.5v384h-74v-384c0-15.69,9.77-29.1,23.55-34.48
			c-0.36-0.85-0.55-1.78-0.55-2.75v-0.54c0-3.68,2.73-6.7,6.279-7.16c-0.18-0.29-0.279-0.63-0.279-0.99V2.42
			c0-1.06,0.859-1.92,1.92-1.92h12.16c1.061,0,1.92,0.86,1.92,1.92v0.16c0,0.36-0.1,0.7-0.279,0.99
			c3.549,0.46,6.279,3.48,6.279,7.16v0.54c0,0.97-0.189,1.9-0.55,2.75C1054.73,19.4,1064.5,32.81,1064.5,48.5z"/>
		<path fill="#E6E6E6" stroke="#E6E6E6" stroke-miterlimit="10" d="M1148.5,48.5v384h-74v-384c0-15.69,9.77-29.1,23.55-34.48
			c-0.36-0.85-0.55-1.78-0.55-2.75v-0.54c0-3.68,2.73-6.7,6.279-7.16c-0.18-0.29-0.279-0.63-0.279-0.99V2.42
			c0-1.06,0.859-1.92,1.92-1.92h12.16c1.061,0,1.92,0.86,1.92,1.92v0.16c0,0.36-0.1,0.7-0.279,0.99
			c3.549,0.46,6.279,3.48,6.279,7.16v0.54c0,0.97-0.189,1.9-0.55,2.75C1138.73,19.4,1148.5,32.81,1148.5,48.5z"/>
		<path fill="#E6E6E6" stroke="#E6E6E6" stroke-miterlimit="10" d="M1232.5,48.5v384h-74v-384c0-15.69,9.77-29.1,23.55-34.48
			c-0.36-0.85-0.55-1.78-0.55-2.75v-0.54c0-3.68,2.73-6.7,6.279-7.16c-0.18-0.29-0.279-0.63-0.279-0.99V2.42
			c0-1.06,0.859-1.92,1.92-1.92h12.16c1.061,0,1.92,0.86,1.92,1.92v0.16c0,0.36-0.1,0.7-0.279,0.99
			c3.549,0.46,6.279,3.48,6.279,7.16v0.54c0,0.97-0.189,1.9-0.55,2.75C1222.73,19.4,1232.5,32.81,1232.5,48.5z"/>
		<path fill="#E6E6E6" stroke="#E6E6E6" stroke-miterlimit="10" d="M1316.5,48.5v384h-74v-384c0-15.69,9.77-29.1,23.55-34.48
			c-0.36-0.85-0.55-1.78-0.55-2.75v-0.54c0-3.68,2.73-6.7,6.279-7.16c-0.18-0.29-0.279-0.63-0.279-0.99V2.42
			c0-1.06,0.859-1.92,1.92-1.92h12.16c1.061,0,1.92,0.86,1.92,1.92v0.16c0,0.36-0.1,0.7-0.279,0.99
			c3.549,0.46,6.279,3.48,6.279,7.16v0.54c0,0.97-0.189,1.9-0.55,2.75C1306.73,19.4,1316.5,32.81,1316.5,48.5z"/>
		<path fill="#B3B3B3" stroke="#B3B3B3" stroke-miterlimit="10" d="M302.5,74.5v384h-74v-384c0-15.69,9.77-29.1,23.55-34.48
			c-0.36-0.85-0.55-1.78-0.55-2.75v-0.54c0-3.68,2.73-6.7,6.279-7.16c-0.18-0.29-0.279-0.63-0.279-0.99v-0.16
			c0-1.06,0.859-1.92,1.92-1.92h12.16c1.061,0,1.92,0.86,1.92,1.92v0.16c0,0.36-0.1,0.7-0.279,0.99
			c3.549,0.46,6.279,3.48,6.279,7.16v0.54c0,0.97-0.189,1.9-0.55,2.75C292.73,45.4,302.5,58.81,302.5,74.5z"/>
		<path fill="#B3B3B3" stroke="#B3B3B3" stroke-miterlimit="10" d="M386.5,74.5v384h-74v-384c0-15.69,9.77-29.1,23.55-34.48
			c-0.36-0.85-0.55-1.78-0.55-2.75v-0.54c0-3.68,2.73-6.7,6.279-7.16c-0.18-0.29-0.279-0.63-0.279-0.99v-0.16
			c0-1.06,0.859-1.92,1.92-1.92h12.16c1.061,0,1.92,0.86,1.92,1.92v0.16c0,0.36-0.1,0.7-0.279,0.99
			c3.549,0.46,6.279,3.48,6.279,7.16v0.54c0,0.97-0.189,1.9-0.55,2.75C376.73,45.4,386.5,58.81,386.5,74.5z"/>
		<path fill="#B3B3B3" stroke="#B3B3B3" stroke-miterlimit="10" d="M470.5,74.5v384h-74v-384c0-15.69,9.77-29.1,23.55-34.48
			c-0.36-0.85-0.55-1.78-0.55-2.75v-0.54c0-3.68,2.73-6.7,6.279-7.16c-0.18-0.29-0.279-0.63-0.279-0.99v-0.16
			c0-1.06,0.859-1.92,1.92-1.92h12.16c1.061,0,1.92,0.86,1.92,1.92v0.16c0,0.36-0.1,0.7-0.279,0.99
			c3.549,0.46,6.279,3.48,6.279,7.16v0.54c0,0.97-0.189,1.9-0.55,2.75C460.73,45.4,470.5,58.81,470.5,74.5z"/>
		<path fill="#B3B3B3" stroke="#B3B3B3" stroke-miterlimit="10" d="M554.5,74.5v384h-74v-384c0-15.69,9.77-29.1,23.55-34.48
			c-0.36-0.85-0.55-1.78-0.55-2.75v-0.54c0-3.68,2.73-6.7,6.279-7.16c-0.18-0.29-0.279-0.63-0.279-0.99v-0.16
			c0-1.06,0.859-1.92,1.92-1.92h12.16c1.061,0,1.92,0.86,1.92,1.92v0.16c0,0.36-0.1,0.7-0.279,0.99
			c3.549,0.46,6.279,3.48,6.279,7.16v0.54c0,0.97-0.189,1.9-0.55,2.75C544.73,45.4,554.5,58.81,554.5,74.5z"/>
		<path fill="#B3B3B3" stroke="#B3B3B3" stroke-miterlimit="10" d="M638.5,74.5v384h-74v-384c0-15.69,9.77-29.1,23.55-34.48
			c-0.36-0.85-0.55-1.78-0.55-2.75v-0.54c0-3.68,2.73-6.7,6.279-7.16c-0.18-0.29-0.279-0.63-0.279-0.99v-0.16
			c0-1.06,0.859-1.92,1.92-1.92h12.16c1.061,0,1.92,0.86,1.92,1.92v0.16c0,0.36-0.1,0.7-0.279,0.99
			c3.549,0.46,6.279,3.48,6.279,7.16v0.54c0,0.97-0.189,1.9-0.55,2.75C628.73,45.4,638.5,58.81,638.5,74.5z"/>
		<path fill="#B3B3B3" stroke="#B3B3B3" stroke-miterlimit="10" d="M722.5,74.5v384h-74v-384c0-15.69,9.77-29.1,23.55-34.48
			c-0.36-0.85-0.55-1.78-0.55-2.75v-0.54c0-3.68,2.73-6.7,6.279-7.16c-0.18-0.29-0.279-0.63-0.279-0.99v-0.16
			c0-1.06,0.859-1.92,1.92-1.92h12.16c1.061,0,1.92,0.86,1.92,1.92v0.16c0,0.36-0.1,0.7-0.279,0.99
			c3.549,0.46,6.279,3.48,6.279,7.16v0.54c0,0.97-0.189,1.9-0.55,2.75C712.73,45.4,722.5,58.81,722.5,74.5z"/>
		<path fill="#B3B3B3" stroke="#B3B3B3" stroke-miterlimit="10" d="M806.5,74.5v384h-74v-384c0-15.69,9.77-29.1,23.55-34.48
			c-0.36-0.85-0.55-1.78-0.55-2.75v-0.54c0-3.68,2.73-6.7,6.279-7.16c-0.18-0.29-0.279-0.63-0.279-0.99v-0.16
			c0-1.06,0.859-1.92,1.92-1.92h12.16c1.061,0,1.92,0.86,1.92,1.92v0.16c0,0.36-0.1,0.7-0.279,0.99
			c3.549,0.46,6.279,3.48,6.279,7.16v0.54c0,0.97-0.189,1.9-0.55,2.75C796.73,45.4,806.5,58.81,806.5,74.5z"/>
		<path fill="#B3B3B3" stroke="#B3B3B3" stroke-miterlimit="10" d="M890.5,74.5v384h-74v-384c0-15.69,9.77-29.1,23.55-34.48
			c-0.36-0.85-0.55-1.78-0.55-2.75v-0.54c0-3.68,2.73-6.7,6.279-7.16c-0.18-0.29-0.279-0.63-0.279-0.99v-0.16
			c0-1.06,0.859-1.92,1.92-1.92h12.16c1.061,0,1.92,0.86,1.92,1.92v0.16c0,0.36-0.1,0.7-0.279,0.99
			c3.549,0.46,6.279,3.48,6.279,7.16v0.54c0,0.97-0.189,1.9-0.55,2.75C880.73,45.4,890.5,58.81,890.5,74.5z"/>
		<path fill="#B3B3B3" stroke="#B3B3B3" stroke-miterlimit="10" d="M974.5,74.5v384h-74v-384c0-15.69,9.77-29.1,23.55-34.48
			c-0.36-0.85-0.55-1.78-0.55-2.75v-0.54c0-3.68,2.73-6.7,6.279-7.16c-0.18-0.29-0.279-0.63-0.279-0.99v-0.16
			c0-1.06,0.859-1.92,1.92-1.92h12.16c1.061,0,1.92,0.86,1.92,1.92v0.16c0,0.36-0.1,0.7-0.279,0.99
			c3.549,0.46,6.279,3.48,6.279,7.16v0.54c0,0.97-0.189,1.9-0.55,2.75C964.73,45.4,974.5,58.81,974.5,74.5z"/>
		<path fill="#B3B3B3" stroke="#B3B3B3" stroke-miterlimit="10" d="M1058.5,74.5v384h-74v-384c0-15.69,9.77-29.1,23.55-34.48
			c-0.36-0.85-0.55-1.78-0.55-2.75v-0.54c0-3.68,2.73-6.7,6.279-7.16c-0.18-0.29-0.279-0.63-0.279-0.99v-0.16
			c0-1.06,0.859-1.92,1.92-1.92h12.16c1.061,0,1.92,0.86,1.92,1.92v0.16c0,0.36-0.1,0.7-0.279,0.99
			c3.549,0.46,6.279,3.48,6.279,7.16v0.54c0,0.97-0.189,1.9-0.55,2.75C1048.73,45.4,1058.5,58.81,1058.5,74.5z"/>
		<path fill="#B3B3B3" stroke="#B3B3B3" stroke-miterlimit="10" d="M1142.5,74.5v384h-74v-384c0-15.69,9.77-29.1,23.55-34.48
			c-0.36-0.85-0.55-1.78-0.55-2.75v-0.54c0-3.68,2.73-6.7,6.279-7.16c-0.18-0.29-0.279-0.63-0.279-0.99v-0.16
			c0-1.06,0.859-1.92,1.92-1.92h12.16c1.061,0,1.92,0.86,1.92,1.92v0.16c0,0.36-0.1,0.7-0.279,0.99
			c3.549,0.46,6.279,3.48,6.279,7.16v0.54c0,0.97-0.189,1.9-0.55,2.75C1132.73,45.4,1142.5,58.81,1142.5,74.5z"/>
		<path fill="#B3B3B3" stroke="#B3B3B3" stroke-miterlimit="10" d="M1226.5,74.5v384h-74v-384c0-15.69,9.77-29.1,23.55-34.48
			c-0.36-0.85-0.55-1.78-0.55-2.75v-0.54c0-3.68,2.73-6.7,6.279-7.16c-0.18-0.29-0.279-0.63-0.279-0.99v-0.16
			c0-1.06,0.859-1.92,1.92-1.92h12.16c1.061,0,1.92,0.86,1.92,1.92v0.16c0,0.36-0.1,0.7-0.279,0.99
			c3.549,0.46,6.279,3.48,6.279,7.16v0.54c0,0.97-0.189,1.9-0.55,2.75C1216.73,45.4,1226.5,58.81,1226.5,74.5z"/>
		<path fill="#B3B3B3" stroke="#B3B3B3" stroke-miterlimit="10" d="M1310.5,74.5v384h-74v-384c0-15.69,9.77-29.1,23.55-34.48
			c-0.36-0.85-0.55-1.78-0.55-2.75v-0.54c0-3.68,2.73-6.7,6.279-7.16c-0.18-0.29-0.279-0.63-0.279-0.99v-0.16
			c0-1.06,0.859-1.92,1.92-1.92h12.16c1.061,0,1.92,0.86,1.92,1.92v0.16c0,0.36-0.1,0.7-0.279,0.99
			c3.549,0.46,6.279,3.48,6.279,7.16v0.54c0,0.97-0.189,1.9-0.55,2.75C1300.73,45.4,1310.5,58.81,1310.5,74.5z"/>
		<rect x="142.5" y="278.5" fill="#999999" stroke="#999999" stroke-miterlimit="10" width="43" height="6"/>
		<path fill="#808080" stroke="#808080" stroke-miterlimit="10" d="M193.5,270.268c0,4.547-3.686,8.232-8.232,8.232h-42.535
			c-4.547,0-8.232-3.686-8.232-8.232v-42.535c0-4.547,3.686-8.232,8.232-8.232h42.535c4.547,0,8.232,3.686,8.232,8.232V270.268z"/>
		<circle fill="#C8C8C8" stroke="#C8C8C8" stroke-miterlimit="10" cx="164.5" cy="248.5" r="20.924"/>
		<rect x="156.5" y="284.5" fill="#999999" stroke="#999999" stroke-miterlimit="10" width="15" height="103"/>
		<path fill="#999999" stroke="#999999" stroke-miterlimit="10" d="M1297.5,243.25c0,4.557-5.471,8.25-12.22,8.25h-67.396
			c-6.75,0-12.385-3.693-12.385-8.25v-0.5c0-4.557,5.635-8.25,12.385-8.25h67.396c6.749,0,12.22,3.693,12.22,8.25V243.25z"/>
		<rect x="1286.5" y="247.5" fill="#999999" stroke="#999999" stroke-miterlimit="10" width="6" height="17"/>
		<path fill="#FFFFFF" stroke="#808080" stroke-width="5" stroke-miterlimit="10" d="M789.5,228.5V143c0,0,1.543-15.5,25.118-15.5
			c23.574,0,286.649,0,308.684,0c22.033,0,19.198,16.167,19.198,16.167V228.5H789.5z"/>
		<circle fill="#FFFFFF" stroke="#808080" stroke-width="5" stroke-miterlimit="10" cx="844.877" cy="177.748" r="33.748"/>
		<circle fill="#FFFFFF" stroke="#808080" stroke-width="5" stroke-miterlimit="10" cx="926.877" cy="177.748" r="33.748"/>
		<circle fill="#FFFFFF" stroke="#808080" stroke-width="5" stroke-miterlimit="10" cx="1008.877" cy="177.748" r="33.748"/>
		<circle fill="#FFFFFF" stroke="#808080" stroke-width="5" stroke-miterlimit="10" cx="1090.877" cy="177.748" r="33.748"/>
		<line fill="none" stroke="#999999" stroke-miterlimit="10" x1="844.877" y1="177.748" x2="828.644" y2="193.982"/>
		
			<line fill="none" stroke="#999999" stroke-linecap="round" stroke-miterlimit="10" x1="844.877" y1="177.748" x2="860.813" y2="161.813"/>
		<polygon fill="#999999" stroke="#999999" stroke-miterlimit="10" points="833.142,192.918 826.813,195.782 829.678,189.454 		"/>
		<circle fill="none" stroke="#999999" stroke-miterlimit="10" cx="844.938" cy="177.688" r="27.813"/>
		<circle fill="#666666" stroke="#666666" stroke-miterlimit="10" cx="844.876" cy="177.748" r="1.791"/>
		<line fill="none" stroke="#999999" stroke-miterlimit="10" x1="926.877" y1="177.748" x2="910.644" y2="193.982"/>
		
			<line fill="none" stroke="#999999" stroke-linecap="round" stroke-miterlimit="10" x1="926.877" y1="177.748" x2="942.813" y2="161.813"/>
		<polygon fill="#999999" stroke="#999999" stroke-miterlimit="10" points="915.142,192.918 908.813,195.782 911.678,189.454 		"/>
		<circle fill="none" stroke="#999999" stroke-miterlimit="10" cx="926.938" cy="177.688" r="27.813"/>
		<circle fill="#666666" stroke="#666666" stroke-miterlimit="10" cx="926.876" cy="177.748" r="1.791"/>
		<line fill="none" stroke="#999999" stroke-miterlimit="10" x1="1008.877" y1="177.748" x2="992.644" y2="193.982"/>
		
			<line fill="none" stroke="#999999" stroke-linecap="round" stroke-miterlimit="10" x1="1008.877" y1="177.748" x2="1024.813" y2="161.813"/>
		<polygon fill="#999999" stroke="#999999" stroke-miterlimit="10" points="997.142,192.918 990.813,195.782 993.678,189.454 		"/>
		<circle fill="none" stroke="#999999" stroke-miterlimit="10" cx="1008.938" cy="177.688" r="27.813"/>
		<circle fill="#666666" stroke="#666666" stroke-miterlimit="10" cx="1008.876" cy="177.748" r="1.791"/>
		<line fill="none" stroke="#999999" stroke-miterlimit="10" x1="1090.877" y1="177.748" x2="1074.644" y2="193.982"/>
		
			<line fill="none" stroke="#999999" stroke-linecap="round" stroke-miterlimit="10" x1="1090.877" y1="177.748" x2="1106.813" y2="161.813"/>
		<polygon fill="#999999" stroke="#999999" stroke-miterlimit="10" points="1079.142,192.918 1072.813,195.782 1075.678,189.454 		
			"/>
		<circle fill="none" stroke="#999999" stroke-miterlimit="10" cx="1090.938" cy="177.688" r="27.813"/>
		<circle fill="#666666" stroke="#666666" stroke-miterlimit="10" cx="1090.876" cy="177.748" r="1.791"/>
		<g>
			<path fill="#999999" stroke="#999999" stroke-miterlimit="10" d="M317.5,249.5h-40.58c-0.67-1.66-1.88-3.04-3.42-3.92V170.5h-15
				v75.08c-0.609,0.34-1.17,0.77-1.66,1.26c-0.75,0.75-1.35,1.66-1.76,2.66H193.5v6h61.58c0.67,1.66,1.88,3.04,3.42,3.92V387.5h15
				V259.42c1.54-0.88,2.75-2.26,3.42-3.92h40.58V249.5z"/>
			<polygon fill="#999999" stroke="#999999" stroke-miterlimit="10" points="419.5,226.5 419.5,260.5 1160.5,260.5 1160.5,227.732 
							"/>
		</g>
		<rect x="1182.5" y="284.5" fill="#999999" stroke="#999999" stroke-miterlimit="10" width="15" height="103"/>
		<rect x="67.5" y="385.5" fill="#808080" stroke="#808080" stroke-miterlimit="10" width="1404" height="408"/>
		<path fill="#999999" stroke="#999999" stroke-miterlimit="10" d="M705.5,197.87v0.26c0,2.5-1.7,4.59-4,5.19v23.18h-6v-23.18
			c-1.52-0.39-2.77-1.44-3.439-2.82H544.32c-0.99,1.22-2.5,2-4.19,2h-3.26c-2.97,0-5.37-2.4-5.37-5.37v-0.26c0-2.5,1.7-4.59,4-5.19
			v-78.36c-1.52-0.39-2.77-1.44-3.439-2.82H375.5v-6h157.18c0.99-1.22,2.5-2,4.19-2h3.26c2.97,0,5.37,2.4,5.37,5.37v0.26
			c0,2.5-1.7,4.59-4,5.19v78.36c1.52,0.39,2.77,1.44,3.439,2.82h147.74c0.99-1.22,2.5-2,4.19-2h3.26
			C703.1,192.5,705.5,194.9,705.5,197.87z"/>
		<path fill="#999999" stroke="#999999" stroke-miterlimit="10" d="M258.5,130.5h-88.18c-0.99-1.22-2.5-2-4.19-2h-3.26
			c-2.97,0-5.37,2.4-5.37,5.37v0.26c0,2.5,1.7,4.59,4,5.19v79.18h6v-79.18c1.52-0.39,2.77-1.44,3.439-2.82H258.5V130.5z"/>
		<rect x="0.5" y="793.5" fill="#333333" stroke="#333333" stroke-miterlimit="10" width="1538" height="32"/>
		<rect x="1182.5" y="208.5" fill="#999999" stroke="#999999" stroke-miterlimit="10" width="15" height="11"/>
		<rect x="1168.5" y="278.5" fill="#999999" stroke="#999999" stroke-miterlimit="10" width="43" height="6"/>
		<path fill="#808080" stroke="#808080" stroke-miterlimit="10" d="M1219.5,270.268c0,4.547-3.686,8.232-8.232,8.232h-42.535
			c-4.547,0-8.232-3.686-8.232-8.232v-42.535c0-4.547,3.686-8.232,8.232-8.232h42.535c4.547,0,8.232,3.686,8.232,8.232V270.268z"/>
		<circle fill="#C8C8C8" stroke="#C8C8C8" stroke-miterlimit="10" cx="1190.5" cy="248.5" r="20.924"/>
		<rect x="1172.5" y="55.5" fill="#999999" stroke="#999999" stroke-miterlimit="10" width="34" height="153"/>
		<rect x="1179.5" y="47.5" fill="#999999" stroke="#999999" stroke-miterlimit="10" width="19" height="8"/>
		<rect x="335.5" y="380.5" fill="#333333" stroke="#333333" stroke-miterlimit="10" width="47" height="4"/>
		<path fill="#999999" stroke="#999999" stroke-miterlimit="10" d="M460.5,238.5c0-6.627-5.805-12-12.965-12h-128.57
			c-7.16,0-13.465,5.373-13.465,12v10c0,6.627,6.305,12,13.465,12h128.57c7.16,0,12.965-5.373,12.965-12V238.5z"/>
		<rect x="284.5" y="104.5" fill="#999999" stroke="#999999" stroke-miterlimit="10" width="91" height="6"/>
		<rect x="115.5" y="730.5" fill="#999999" stroke="#999999" stroke-miterlimit="10" width="408" height="59"/>
		<rect x="115.5" y="607.5" fill="#999999" stroke="#999999" stroke-miterlimit="10" width="226" height="99"/>
		<rect x="115.5" y="712.5" fill="#999999" stroke="#999999" stroke-miterlimit="10" width="461" height="13"/>
		<rect x="523.5" y="635.5" fill="#999999" stroke="#999999" stroke-miterlimit="10" width="37" height="77"/>
		<path fill="#999999" stroke="#999999" stroke-miterlimit="10" d="M605,577.51c-0.43,0.391-0.95,0.63-1.49,0.721
			c-0.279,7.5-1.82,14.67-4.41,21.319c0.41,0.16,0.791,0.42,1.11,0.771c1.09,1.22,1,3.09-0.21,4.189c-0.93,0.84-2.24,0.99-3.3,0.471
			c-3.21,6.46-7.44,12.31-12.479,17.35c1.079,1.22,0.989,3.08-0.221,4.18c-1.21,1.09-3.07,1.01-4.17-0.18
			c-11.46,9.57-26.21,15.33-42.301,15.33c-36.469,0-66.059-29.561-66.059-66.03c0-17.12,6.529-32.729,17.229-44.46
			c-0.979-1.21-0.86-3,0.31-4.06c1.1-0.99,2.74-1.011,3.85-0.12c4.91-4.51,10.5-8.29,16.601-11.15
			c-0.71-1.189-0.521-2.76,0.55-3.729c1.221-1.101,3.1-1,4.2,0.21c0.33,0.37,0.56,0.81,0.66,1.26c6.17-2.26,12.76-3.61,19.63-3.92
			v-0.07c0-1.63,1.359-2.96,3-2.96s3,1.33,3,2.96v0.07c6.54,0.29,12.83,1.53,18.74,3.59c0.16-0.42,0.42-0.81,0.77-1.14
			c1.221-1.101,3.1-1,4.2,0.21c0.79,0.88,0.96,2.109,0.53,3.13c6.43,2.899,12.31,6.81,17.439,11.52c1.221-0.95,2.98-0.81,4.03,0.351
			c0.979,1.1,1.011,2.72,0.12,3.83c4.199,4.59,7.75,9.779,10.52,15.42c1.131-0.471,2.49-0.21,3.36,0.75c1.09,1.22,1,3.09-0.21,4.189
			c-0.24,0.21-0.5,0.38-0.779,0.5c2.439,6.38,3.93,13.23,4.27,20.38c0.64,0.101,1.25,0.41,1.72,0.931
			C606.3,574.54,606.21,576.41,605,577.51z"/>
		<circle fill="#999999" stroke="#999999" stroke-miterlimit="10" cx="1134.996" cy="513.312" r="2.967"/>
		<path fill="#666666" stroke="#666666" stroke-miterlimit="10" d="M590.5,571.62c0,15.16-7.76,28.51-19.529,36.3l-0.021,0.021
			L420.85,711.15c-17.76,14.59-40.5,23.34-65.279,23.34c-56.85,0-102.94-46.09-102.94-102.94c0-56.85,46.091-102.939,102.94-102.939
			L547,528.12C571.02,528.12,590.5,547.59,590.5,571.62z"/>
		<path fill="#E6E6E6" stroke="#E6E6E6" stroke-width="5" stroke-miterlimit="10" d="M576.444,574.586
			c0,13.899-7.114,26.138-17.904,33.279l-0.019,0.02l-137.612,94.623c-16.282,13.376-37.13,21.397-59.848,21.397
			c-52.12,0-94.376-42.256-94.376-94.375c0-52.121,42.256-94.376,94.376-94.376l175.502-0.449
			C558.584,534.705,576.444,552.556,576.444,574.586z"/>
		<rect x="115.5" y="385.5" fill="#999999" stroke="#999999" stroke-miterlimit="10" width="11" height="80"/>
		<rect x="115.5" y="465.5" fill="#999999" stroke="#999999" stroke-miterlimit="10" width="11" height="142"/>
		<rect x="115.5" y="454.5" fill="#999999" stroke="#999999" stroke-miterlimit="10" width="1028" height="11"/>
		<path fill="#999999" stroke="#999999" stroke-miterlimit="10" d="M134.5,458.5c0,5.522-4.735,10-10.577,10h-3.846
			c-5.842,0-10.577-4.478-10.577-10l0,0c0-5.522,4.735-10,10.577-10h3.846C129.765,448.5,134.5,452.978,134.5,458.5L134.5,458.5z"/>
		<path fill="#999999" stroke="#999999" stroke-width="5" stroke-miterlimit="10" d="M1051.5,460.44v94.119
			c0,5.49-4.45,9.94-9.94,9.94H924.44c-5.49,0-9.94-4.45-9.94-9.94V460.44c0-5.49,4.45-9.94,9.94-9.94h43.3
			c-3.11,1.57-5.24,4.78-5.24,8.5c0.04,3.42,5.88,8.79,9.5,9.5c7.13,2.54,14.92,2.29,21,0c5.96-2.83,9.5-7,9.5-9.5
			c0-3.72-2.13-6.93-5.24-8.5h44.3C1047.05,450.5,1051.5,454.95,1051.5,460.44z"/>
		<path fill="#808080" stroke="#808080" stroke-width="5" stroke-miterlimit="10" d="M1040.5,547.146
			c0,4.614-3.74,8.354-8.354,8.354h-98.291c-4.614,0-8.354-3.74-8.354-8.354v-79.291c0-4.614,3.74-8.354,8.354-8.354h98.291
			c4.614,0,8.354,3.74,8.354,8.354V547.146z"/>
		<rect x="976.5" y="469.5" fill="#999999" stroke="#999999" stroke-miterlimit="10" width="12" height="170"/>
		<rect x="938.5" y="481.5" fill="#C8C8C8" stroke="#C8C8C8" stroke-width="5" stroke-miterlimit="10" width="88" height="72"/>
		<rect x="980.5" y="481.5" fill="#808080" stroke="#808080" stroke-miterlimit="10" width="5" height="72"/>
		<rect x="1020.5" y="481.5" fill="#808080" stroke="#808080" stroke-miterlimit="10" width="4" height="72"/>
		<rect x="940.5" y="481.5" fill="#808080" stroke="#808080" stroke-miterlimit="10" width="4" height="72"/>
		<path fill="#999999" stroke="#999999" stroke-width="5" stroke-miterlimit="10" d="M1002.5,459c0,2.5-3.54,6.67-9.5,9.5
			c-6.08,2.29-13.87,2.54-21,0c-3.62-0.71-9.46-6.08-9.5-9.5c0-3.72,2.13-6.93,5.24-8.5c1.14-0.57,2.42-0.92,3.76-0.99v-7.01
			c0-6.08,4.92-11,11-11c3.04,0,5.79,1.23,7.78,3.22c1.989,1.99,3.22,4.74,3.22,7.78v7.01c1.34,0.07,2.62,0.42,3.76,0.99
			C1000.37,452.07,1002.5,455.28,1002.5,459z"/>
		<rect x="956" y="570" fill="none" stroke="#999999" stroke-width="8" stroke-miterlimit="10" width="53" height="25"/>
		<path fill="#999999" stroke="#999999" stroke-miterlimit="10" d="M1014.5,598.23v3.27h4v22h-12v13h6v6h-6v7h-4v-7h-3.36
			c-0.88,4.19-3.29,7.81-6.64,10.24V789.5h-20V652.74c-2.81-2.04-4.95-4.9-6.09-8.24h-3.91v5h-4v-5h-85.21c-1.62,1.84-3.99,3-6.64,3
			h-3.301c-4.89,0-8.85-3.96-8.85-8.85v-0.301c0-3.51,2.04-6.54,5-7.97V460.5h11v169.88c1.45,0.7,2.68,1.78,3.55,3.12h84.45v-10h-12
			v-22h4v-3.27c-2.32-0.74-4-2.91-4-5.48v-10.5c0-3.18,2.57-5.75,5.75-5.75h0.5c3.18,0,5.75,2.57,5.75,5.75v10.5
			c0,2.57-1.68,4.74-4,5.48v3.27h4v11h4v21h3.92c2.271-6.69,8.62-11.5,16.08-11.5c8.54,0,15.61,6.3,16.81,14.5h3.19v-24h4v-11h4
			v-3.27c-2.32-0.74-4-2.91-4-5.48v-10.5c0-3.18,2.57-5.75,5.75-5.75h0.5c3.18,0,5.75,2.57,5.75,5.75v10.5
			C1018.5,595.32,1016.82,597.49,1014.5,598.23z"/>
		<path fill="#999999" stroke="#999999" stroke-width="5" stroke-miterlimit="10" d="M1260.5,460.44v94.119
			c0,5.49-4.45,9.94-9.94,9.94H1133.44c-5.49,0-9.94-4.45-9.94-9.94V460.44c0-5.49,4.45-9.94,9.94-9.94h43.3
			c-3.11,1.57-5.24,4.78-5.24,8.5c0.04,3.42,5.88,8.79,9.5,9.5c7.13,2.54,14.92,2.29,21,0c5.96-2.83,9.5-7,9.5-9.5
			c0-3.72-2.13-6.93-5.24-8.5h44.3C1256.05,450.5,1260.5,454.95,1260.5,460.44z"/>
		<path fill="#808080" stroke="#808080" stroke-width="5" stroke-miterlimit="10" d="M1249.5,547.146
			c0,4.614-3.74,8.354-8.354,8.354h-98.291c-4.614,0-8.354-3.74-8.354-8.354v-79.291c0-4.614,3.74-8.354,8.354-8.354h98.291
			c4.614,0,8.354,3.74,8.354,8.354V547.146z"/>
		<rect x="1185.5" y="469.5" fill="#999999" stroke="#999999" stroke-miterlimit="10" width="12" height="170"/>
		<rect x="1147.5" y="481.5" fill="#C8C8C8" stroke="#C8C8C8" stroke-width="5" stroke-miterlimit="10" width="88" height="72"/>
		<rect x="1189.5" y="481.5" fill="#808080" stroke="#808080" stroke-miterlimit="10" width="5" height="72"/>
		<rect x="1229.5" y="481.5" fill="#808080" stroke="#808080" stroke-miterlimit="10" width="4" height="72"/>
		<rect x="1149.5" y="481.5" fill="#808080" stroke="#808080" stroke-miterlimit="10" width="4" height="72"/>
		<path fill="#999999" stroke="#999999" stroke-width="5" stroke-miterlimit="10" d="M1211.5,459c0,2.5-3.54,6.67-9.5,9.5
			c-6.08,2.29-13.87,2.54-21,0c-3.62-0.71-9.46-6.08-9.5-9.5c0-3.72,2.13-6.93,5.24-8.5c1.14-0.57,2.42-0.92,3.76-0.99v-7.01
			c0-6.08,4.92-11,11-11c3.04,0,5.79,1.23,7.78,3.22c1.989,1.99,3.22,4.74,3.22,7.78v7.01c1.34,0.07,2.62,0.42,3.76,0.99
			C1209.37,452.07,1211.5,455.28,1211.5,459z"/>
		<rect x="1165" y="570" fill="none" stroke="#999999" stroke-width="8" stroke-miterlimit="10" width="53" height="25"/>
		<path fill="#999999" stroke="#999999" stroke-miterlimit="10" d="M1223.5,598.23v3.27h4v22h-12v13h6v6h-6v7h-4v-7h-3.36
			c-0.88,4.19-3.29,7.81-6.64,10.24V789.5h-20V652.74c-2.81-2.04-4.95-4.9-6.09-8.24h-3.91v5h-4v-5h-85.21c-1.62,1.84-3.99,3-6.64,3
			h-3.301c-4.89,0-8.85-3.96-8.85-8.85v-0.301c0-3.51,2.04-6.54,5-7.97V460.5h11v169.88c1.45,0.7,2.68,1.78,3.55,3.12h84.45v-10h-12
			v-22h4v-3.27c-2.32-0.74-4-2.91-4-5.48v-10.5c0-3.18,2.57-5.75,5.75-5.75h0.5c3.18,0,5.75,2.57,5.75,5.75v10.5
			c0,2.57-1.68,4.74-4,5.48v3.27h4v11h4v21h3.92c2.271-6.69,8.62-11.5,16.08-11.5c8.54,0,15.61,6.3,16.81,14.5h3.19v-24h4v-11h4
			v-3.27c-2.32-0.74-4-2.91-4-5.48v-10.5c0-3.18,2.57-5.75,5.75-5.75h0.5c3.18,0,5.75,2.57,5.75,5.75v10.5
			C1227.5,595.32,1225.82,597.49,1223.5,598.23z"/>
		<path fill="#999999" stroke="#999999" stroke-miterlimit="10" d="M1382.5,418.917c0-1.887-1.364-3.417-2.896-3.417H982.459
			c-1.531,0-2.959,1.53-2.959,3.417v0.166c0,1.887,1.428,3.417,2.959,3.417h397.146c1.531,0,2.896-1.53,2.896-3.417V418.917z"/>
		<line fill="none" stroke="#999999" stroke-width="5" stroke-miterlimit="10" x1="982.5" y1="432" x2="982.5" y2="418"/>
		<line fill="none" stroke="#999999" stroke-width="5" stroke-miterlimit="10" x1="1191.5" y1="432" x2="1191.5" y2="419"/>
		<path fill="#999999" stroke="#999999" stroke-miterlimit="10" d="M1383.5,614.348c0,3.121-1.567,5.652-3.5,5.652l0,0
			c-1.933,0-3.5-2.531-3.5-5.652V421.152c0-3.121,1.567-5.652,3.5-5.652l0,0c1.933,0,3.5,2.531,3.5,5.652V614.348z"/>
		<rect x="1411.5" y="440.5" fill="#999999" stroke="#999999" stroke-miterlimit="10" width="12" height="10"/>
		<rect x="1387.5" y="425.5" fill="#999999" stroke="#999999" stroke-miterlimit="10" width="4" height="37"/>
		<rect x="1387.5" y="425.5" fill="#999999" stroke="#999999" stroke-miterlimit="10" width="32" height="4"/>
		<rect x="1415.5" y="425.5" fill="#999999" stroke="#999999" stroke-miterlimit="10" width="4" height="19"/>
		<path fill="#999999" stroke="#999999" stroke-miterlimit="10" d="M1436.5,607.5v26c0,6.63-5.37,12-12,12h-1v144h-12v-144
			c-6.63,0-12-5.37-12-12v-26c0-4.85,2.87-9.02,7-10.92V450.5h22v145.69C1433.16,597.83,1436.5,602.27,1436.5,607.5z"/>
		<path fill="#999999" stroke="#999999" stroke-miterlimit="10" d="M1427.559,613.5c0.796,0,1.441,1.567,1.441,3.5l0,0
			c0,1.933-0.646,3.5-1.441,3.5h-49.243c-0.795,0-1.44-1.567-1.44-3.5l0,0c0-1.933,0.646-3.5,1.44-3.5H1427.559z"/>
		<path fill="#999999" stroke="#999999" stroke-miterlimit="10" d="M1388.5,616.5c0,3.313-2.687,6-6,6h-4c-3.313,0-6-2.687-6-6l0,0
			c0-3.313,2.687-6,6-6h4C1385.813,610.5,1388.5,613.187,1388.5,616.5L1388.5,616.5z"/>
		<rect x="959.5" y="789.5" fill="#333333" stroke="#333333" stroke-miterlimit="10" width="47" height="4"/>
		<rect x="1168.5" y="789.5" fill="#333333" stroke="#333333" stroke-miterlimit="10" width="47" height="4"/>
		<rect x="1394.5" y="789.5" fill="#333333" stroke="#333333" stroke-miterlimit="10" width="47" height="4"/>
		<rect x="104.5" y="789.5" fill="#333333" stroke="#333333" stroke-miterlimit="10" width="431" height="4"/>
		<rect x="1189.5" y="462.5" fill="#999999" stroke="#999999" stroke-miterlimit="10" width="202" height="6"/>
		<g>
			<path fill="#808080" stroke="#808080" stroke-miterlimit="10" d="M341.5,324.01c0,9.976,0,28.592,0,37.055
				c0,7.66,4.564,6.436,7.487,6.436c8.001,0,85.878,0,85.878,0c2.349-1,2.783-3.132,2.789-4.287c0-6.592-3.377-7.488-3.377-7.488
				l-85.29-34.207c0,0-3.958-2.034-5.872-2.316C341.573,319.201,341.5,320.984,341.5,324.01z"/>
			<path fill="#E6E6E6" stroke="#999999" stroke-width="0.25" stroke-miterlimit="10" d="M358.697,332.141
				c0,0,3.848-0.019,6.49-0.019s2.814,3.384,3.967,5.794c1.22,2.287,3.601,1.695,6.508,0c2.418-1.689,13.474-10.216,13.474-10.216
				s2.196-2.033,0.011-5.286c-11.334-13.315-30.449-13.214-30.449-13.214s-19.18-0.102-30.514,13.214
				c-2.186,3.253,0.018,5.286,0.018,5.286s11.059,8.526,13.477,10.216c2.908,1.695,5.291,2.287,6.51,0
				c1.152-2.41,1.326-5.794,3.969-5.794S358.697,332.141,358.697,332.141z"/>
			<rect x="355.5" y="364.5" fill="#808080" stroke="#808080" stroke-miterlimit="10" width="7" height="23"/>
			<circle fill="#999999" stroke="#999999" stroke-width="0.25" stroke-miterlimit="10" cx="358.666" cy="350.342" r="13.846"/>
			<rect x="388.5" y="351.5" fill="#999999" stroke="#999999" stroke-miterlimit="10" width="44" height="20"/>
			<rect x="401.5" y="353.5" fill="#C8C8C8" stroke="#C8C8C8" stroke-miterlimit="10" width="23" height="2"/>
			<rect x="401.5" y="367.5" fill="#C8C8C8" stroke="#C8C8C8" stroke-miterlimit="10" width="23" height="2"/>
			<rect x="396.5" y="348.5" fill="#C8C8C8" stroke="#999999" stroke-miterlimit="10" width="5" height="27"/>
			<rect x="424.5" y="348.5" fill="#C8C8C8" stroke="#999999" stroke-miterlimit="10" width="5" height="27"/>
			<rect x="394.5" y="352.5" fill="#C8C8C8" stroke="#C8C8C8" stroke-miterlimit="10" width="1" height="4"/>
			<rect x="430.5" y="352.5" fill="#C8C8C8" stroke="#C8C8C8" stroke-miterlimit="10" width="1" height="4"/>
			<path fill="#999999" stroke="#999999" stroke-miterlimit="10" d="M442.726,361.701c0,3.285-2.662,5.949-5.946,5.949
				c-0.461,0-0.906-0.15-1.336-0.15H432.5v-12h2.943c0.43,0,0.875,0.052,1.336,0.052
				C440.063,355.552,442.726,358.418,442.726,361.701z"/>
			<path fill="#C8C8C8" stroke="#C8C8C8" stroke-miterlimit="10" d="M387.5,359.5v5h-31.387c-3.133,0-5.765,0.336-6.555,0.619
				c-0.157,0.059-0.242,0.183-0.242,0.243c-0.652,0.442-1.439,0.729-2.286,0.729c-2.265,0-4.099-1.826-4.099-4.101
				s1.834-4.109,4.099-4.109c0.847,0,1.634,0.261,2.286,0.702c0,0.062,0.082,0.243,0.24,0.298c0.792,0.287,3.448,0.618,6.605,0.618
				H387.5z"/>
			<polygon fill="#333333" stroke="#333333" stroke-width="0.25" stroke-miterlimit="10" points="352.812,363.25 397.295,318.422 
				390.512,311.586 346.028,356.414 342.027,367.281 			"/>
			<path fill="#C1272D" stroke="#C1272D" stroke-miterlimit="10" d="M425.712,283.343c2.799,2.799,3.058,7.077,0.577,9.558
				l-27.323,27.324l-10.135-10.135l27.323-27.324C418.635,280.285,422.913,280.544,425.712,283.343z"/>
			<circle fill="#C8C8C8" stroke="#C8C8C8" stroke-width="0.25" stroke-miterlimit="10" cx="358.666" cy="350.342" r="3.02"/>
			<circle fill="#C8C8C8" stroke="#C8C8C8" stroke-width="0.25" stroke-miterlimit="10" cx="344.761" cy="334.942" r="3.049"/>
			<circle fill="#C8C8C8" stroke="#C8C8C8" stroke-width="0.25" stroke-miterlimit="10" cx="437.465" cy="361.701" r="2.973"/>
			<circle fill="#C8C8C8" stroke="#C8C8C8" stroke-width="0.25" stroke-miterlimit="10" cx="347.125" cy="362.007" r="2.439"/>
			<rect x="394.5" y="366.5" fill="#C8C8C8" stroke="#C8C8C8" stroke-miterlimit="10" width="1" height="4"/>
			<rect x="430.5" y="366.5" fill="#C8C8C8" stroke="#C8C8C8" stroke-miterlimit="10" width="1" height="4"/>
		</g>
		<g>
			<path fill="#808080" stroke="#808080" stroke-miterlimit="10" d="M248.5,107.009c0,9.976,0,28.592,0,37.055
				c0,7.66,4.564,6.436,7.487,6.436c8.001,0,85.878,0,85.878,0c2.349-1,2.783-3.132,2.789-4.287c0-6.592-3.377-7.488-3.377-7.488
				l-85.29-34.207c0,0-3.958-2.035-5.872-2.317C248.573,102.201,248.5,103.984,248.5,107.009z"/>
			<path fill="#E6E6E6" stroke="#999999" stroke-width="0.25" stroke-miterlimit="10" d="M265.697,115.141
				c0,0,3.848-0.019,6.49-0.019s2.814,3.384,3.967,5.794c1.22,2.287,3.601,1.696,6.508,0c2.418-1.689,13.474-10.216,13.474-10.216
				s2.196-2.033,0.011-5.286C284.813,92.099,265.697,92.2,265.697,92.2s-19.18-0.102-30.514,13.214
				c-2.186,3.252,0.018,5.286,0.018,5.286s11.059,8.527,13.477,10.216c2.908,1.696,5.291,2.287,6.51,0
				c1.152-2.41,1.326-5.794,3.969-5.794S265.697,115.141,265.697,115.141z"/>
			<rect x="262.5" y="147.5" fill="#808080" stroke="#808080" stroke-miterlimit="10" width="7" height="23"/>
			<circle fill="#999999" stroke="#999999" stroke-width="0.25" stroke-miterlimit="10" cx="265.666" cy="133.342" r="13.846"/>
			<rect x="295.5" y="134.5" fill="#999999" stroke="#999999" stroke-miterlimit="10" width="44" height="20"/>
			<rect x="308.5" y="136.5" fill="#C8C8C8" stroke="#C8C8C8" stroke-miterlimit="10" width="23" height="2"/>
			<rect x="308.5" y="150.5" fill="#C8C8C8" stroke="#C8C8C8" stroke-miterlimit="10" width="23" height="2"/>
			<rect x="303.5" y="131.5" fill="#C8C8C8" stroke="#999999" stroke-miterlimit="10" width="5" height="27"/>
			<rect x="331.5" y="131.5" fill="#C8C8C8" stroke="#999999" stroke-miterlimit="10" width="5" height="27"/>
			<rect x="301.5" y="135.5" fill="#C8C8C8" stroke="#C8C8C8" stroke-miterlimit="10" width="1" height="4"/>
			<rect x="337.5" y="135.5" fill="#C8C8C8" stroke="#C8C8C8" stroke-miterlimit="10" width="1" height="4"/>
			<path fill="#999999" stroke="#999999" stroke-miterlimit="10" d="M349.726,144.702c0,3.284-2.662,5.949-5.946,5.949
				c-0.461,0-0.906-0.15-1.336-0.15H339.5v-12h2.943c0.43,0,0.875,0.052,1.336,0.052
				C347.063,138.552,349.726,141.417,349.726,144.702z"/>
			<path fill="#C8C8C8" stroke="#C8C8C8" stroke-miterlimit="10" d="M294.5,142.5v5h-31.387c-3.133,0-5.765,0.336-6.555,0.62
				c-0.157,0.058-0.242,0.182-0.242,0.243c-0.652,0.442-1.439,0.73-2.286,0.73c-2.265,0-4.099-1.827-4.099-4.101
				c0-2.275,1.834-4.109,4.099-4.109c0.847,0,1.634,0.26,2.286,0.703c0,0.061,0.082,0.243,0.24,0.297
				c0.792,0.287,3.448,0.618,6.605,0.618H294.5z"/>
			<polygon fill="#333333" stroke="#333333" stroke-width="0.25" stroke-miterlimit="10" points="259.812,146.25 304.295,101.422 
				297.512,94.585 253.028,139.414 249.027,150.282 			"/>
			<path fill="#C1272D" stroke="#C1272D" stroke-miterlimit="10" d="M332.712,66.343c2.799,2.799,3.058,7.078,0.577,9.558
				l-27.323,27.324l-10.135-10.135l27.323-27.324C325.635,63.286,329.913,63.544,332.712,66.343z"/>
			<circle fill="#C8C8C8" stroke="#C8C8C8" stroke-width="0.25" stroke-miterlimit="10" cx="265.666" cy="133.342" r="3.02"/>
			<circle fill="#C8C8C8" stroke="#C8C8C8" stroke-width="0.25" stroke-miterlimit="10" cx="251.761" cy="117.942" r="3.049"/>
			<circle fill="#C8C8C8" stroke="#C8C8C8" stroke-width="0.25" stroke-miterlimit="10" cx="344.465" cy="144.702" r="2.973"/>
			<circle fill="#C8C8C8" stroke="#C8C8C8" stroke-width="0.25" stroke-miterlimit="10" cx="254.125" cy="145.007" r="2.439"/>
			<rect x="301.5" y="149.5" fill="#C8C8C8" stroke="#C8C8C8" stroke-miterlimit="10" width="1" height="4"/>
			<rect x="337.5" y="149.5" fill="#C8C8C8" stroke="#C8C8C8" stroke-miterlimit="10" width="1" height="4"/>
		</g>
		<g>
			<rect x="504.5" y="260.5" fill="#999999" stroke="#999999" stroke-miterlimit="10" width="10" height="60"/>
			<path fill="#808080" stroke="#808080" stroke-miterlimit="10" d="M491.5,324.01c0,9.976,0,28.592,0,37.055
				c0,7.66,4.564,6.436,7.487,6.436c8.001,0,85.878,0,85.878,0c2.349-1,2.783-3.132,2.789-4.287c0-6.592-3.377-7.488-3.377-7.488
				l-85.29-34.207c0,0-3.958-2.034-5.872-2.316C491.573,319.201,491.5,320.984,491.5,324.01z"/>
			<path fill="#E6E6E6" stroke="#999999" stroke-width="0.25" stroke-miterlimit="10" d="M508.697,332.141
				c0,0,3.848-0.019,6.49-0.019s2.814,3.384,3.967,5.794c1.22,2.287,3.601,1.695,6.508,0c2.418-1.689,13.474-10.216,13.474-10.216
				s2.196-2.033,0.011-5.286c-11.334-13.315-30.449-13.214-30.449-13.214s-19.18-0.102-30.514,13.214
				c-2.186,3.253,0.018,5.286,0.018,5.286s11.059,8.526,13.477,10.216c2.908,1.695,5.291,2.287,6.51,0
				c1.152-2.41,1.326-5.794,3.969-5.794S508.697,332.141,508.697,332.141z"/>
			<rect x="505.5" y="364.5" fill="#808080" stroke="#808080" stroke-miterlimit="10" width="7" height="23"/>
			<circle fill="#999999" stroke="#999999" stroke-width="0.25" stroke-miterlimit="10" cx="508.666" cy="350.342" r="13.846"/>
			<rect x="538.5" y="351.5" fill="#999999" stroke="#999999" stroke-miterlimit="10" width="44" height="20"/>
			<rect x="551.5" y="353.5" fill="#C8C8C8" stroke="#C8C8C8" stroke-miterlimit="10" width="23" height="2"/>
			<rect x="551.5" y="367.5" fill="#C8C8C8" stroke="#C8C8C8" stroke-miterlimit="10" width="23" height="2"/>
			<rect x="546.5" y="348.5" fill="#C8C8C8" stroke="#999999" stroke-miterlimit="10" width="5" height="27"/>
			<rect x="574.5" y="348.5" fill="#C8C8C8" stroke="#999999" stroke-miterlimit="10" width="5" height="27"/>
			<rect x="544.5" y="352.5" fill="#C8C8C8" stroke="#C8C8C8" stroke-miterlimit="10" width="1" height="4"/>
			<rect x="580.5" y="352.5" fill="#C8C8C8" stroke="#C8C8C8" stroke-miterlimit="10" width="1" height="4"/>
			<path fill="#999999" stroke="#999999" stroke-miterlimit="10" d="M592.726,361.701c0,3.285-2.662,5.949-5.946,5.949
				c-0.461,0-0.906-0.15-1.336-0.15H582.5v-12h2.943c0.43,0,0.875,0.052,1.336,0.052
				C590.063,355.552,592.726,358.418,592.726,361.701z"/>
			<path fill="#C8C8C8" stroke="#C8C8C8" stroke-miterlimit="10" d="M537.5,359.5v5h-31.387c-3.133,0-5.765,0.336-6.555,0.619
				c-0.157,0.059-0.242,0.183-0.242,0.243c-0.652,0.442-1.439,0.729-2.286,0.729c-2.265,0-4.099-1.826-4.099-4.101
				s1.834-4.109,4.099-4.109c0.847,0,1.634,0.261,2.286,0.702c0,0.062,0.082,0.243,0.24,0.298c0.792,0.287,3.448,0.618,6.605,0.618
				H537.5z"/>
			<polygon fill="#333333" stroke="#333333" stroke-width="0.25" stroke-miterlimit="10" points="502.812,363.25 547.295,318.422 
				540.512,311.586 496.028,356.414 492.027,367.281 			"/>
			<path fill="#C1272D" stroke="#C1272D" stroke-width="0.25" stroke-miterlimit="10" d="M575.712,283.343
				c2.799,2.799,3.058,7.077,0.577,9.558l-27.323,27.324l-10.135-10.135l27.323-27.324
				C568.635,280.285,572.913,280.544,575.712,283.343z"/>
			<circle fill="#C8C8C8" stroke="#C8C8C8" stroke-width="0.25" stroke-miterlimit="10" cx="508.666" cy="350.342" r="3.02"/>
			<circle fill="#C8C8C8" stroke="#C8C8C8" stroke-width="0.25" stroke-miterlimit="10" cx="494.761" cy="334.942" r="3.049"/>
			<circle fill="#C8C8C8" stroke="#C8C8C8" stroke-width="0.25" stroke-miterlimit="10" cx="587.465" cy="361.701" r="2.973"/>
			<circle fill="#C8C8C8" stroke="#C8C8C8" stroke-width="0.25" stroke-miterlimit="10" cx="497.125" cy="362.007" r="2.439"/>
			<rect x="544.5" y="366.5" fill="#C8C8C8" stroke="#C8C8C8" stroke-miterlimit="10" width="1" height="4"/>
			<rect x="580.5" y="366.5" fill="#C8C8C8" stroke="#C8C8C8" stroke-miterlimit="10" width="1" height="4"/>
			<rect x="485.5" y="380.5" fill="#333333" stroke="#333333" stroke-miterlimit="10" width="47" height="4"/>
		</g>
		<g>
			<rect x="660.5" y="260.5" fill="#999999" stroke="#999999" stroke-miterlimit="10" width="10" height="60"/>
			<path fill="#808080" stroke="#808080" stroke-miterlimit="10" d="M647.5,324.01c0,9.976,0,28.592,0,37.055
				c0,7.66,4.564,6.436,7.487,6.436c8.001,0,85.878,0,85.878,0c2.349-1,2.783-3.132,2.789-4.287c0-6.592-3.377-7.488-3.377-7.488
				l-85.29-34.207c0,0-3.958-2.034-5.872-2.316C647.573,319.201,647.5,320.984,647.5,324.01z"/>
			<path fill="#E6E6E6" stroke="#999999" stroke-width="0.25" stroke-miterlimit="10" d="M664.697,332.141
				c0,0,3.848-0.019,6.49-0.019s2.814,3.384,3.967,5.794c1.22,2.287,3.601,1.695,6.508,0c2.418-1.689,13.474-10.216,13.474-10.216
				s2.196-2.033,0.011-5.286c-11.334-13.315-30.449-13.214-30.449-13.214s-19.18-0.102-30.514,13.214
				c-2.186,3.253,0.018,5.286,0.018,5.286s11.059,8.526,13.477,10.216c2.908,1.695,5.291,2.287,6.51,0
				c1.152-2.41,1.326-5.794,3.969-5.794S664.697,332.141,664.697,332.141z"/>
			<rect x="661.5" y="364.5" fill="#808080" stroke="#808080" stroke-miterlimit="10" width="7" height="23"/>
			<circle fill="#999999" stroke="#999999" stroke-width="0.25" stroke-miterlimit="10" cx="664.666" cy="350.342" r="13.846"/>
			<rect x="694.5" y="351.5" fill="#999999" stroke="#999999" stroke-miterlimit="10" width="44" height="20"/>
			<rect x="707.5" y="353.5" fill="#C8C8C8" stroke="#C8C8C8" stroke-miterlimit="10" width="23" height="2"/>
			<rect x="707.5" y="367.5" fill="#C8C8C8" stroke="#C8C8C8" stroke-miterlimit="10" width="23" height="2"/>
			<rect x="702.5" y="348.5" fill="#C8C8C8" stroke="#999999" stroke-miterlimit="10" width="5" height="27"/>
			<rect x="730.5" y="348.5" fill="#C8C8C8" stroke="#999999" stroke-miterlimit="10" width="5" height="27"/>
			<rect x="700.5" y="352.5" fill="#C8C8C8" stroke="#C8C8C8" stroke-miterlimit="10" width="1" height="4"/>
			<rect x="736.5" y="352.5" fill="#C8C8C8" stroke="#C8C8C8" stroke-miterlimit="10" width="1" height="4"/>
			<path fill="#999999" stroke="#999999" stroke-miterlimit="10" d="M748.726,361.701c0,3.285-2.662,5.949-5.946,5.949
				c-0.461,0-0.906-0.15-1.336-0.15H738.5v-12h2.943c0.43,0,0.875,0.052,1.336,0.052
				C746.063,355.552,748.726,358.418,748.726,361.701z"/>
			<path fill="#C8C8C8" stroke="#C8C8C8" stroke-miterlimit="10" d="M693.5,359.5v5h-31.387c-3.133,0-5.765,0.336-6.555,0.619
				c-0.157,0.059-0.242,0.183-0.242,0.243c-0.652,0.442-1.439,0.729-2.286,0.729c-2.265,0-4.099-1.826-4.099-4.101
				s1.834-4.109,4.099-4.109c0.847,0,1.634,0.261,2.286,0.702c0,0.062,0.082,0.243,0.24,0.298c0.792,0.287,3.448,0.618,6.605,0.618
				H693.5z"/>
			<polygon fill="#333333" stroke="#333333" stroke-width="0.25" stroke-miterlimit="10" points="658.812,363.25 703.295,318.422 
				696.512,311.586 652.028,356.414 648.027,367.281 			"/>
			<path fill="#C1272D" stroke="#C1272D" stroke-width="0.25" stroke-miterlimit="10" d="M731.712,283.343
				c2.799,2.799,3.058,7.077,0.577,9.558l-27.323,27.324l-10.135-10.135l27.323-27.324
				C724.635,280.285,728.913,280.544,731.712,283.343z"/>
			<circle fill="#C8C8C8" stroke="#C8C8C8" stroke-width="0.25" stroke-miterlimit="10" cx="664.666" cy="350.342" r="3.02"/>
			<circle fill="#C8C8C8" stroke="#C8C8C8" stroke-width="0.25" stroke-miterlimit="10" cx="650.761" cy="334.942" r="3.049"/>
			<circle fill="#C8C8C8" stroke="#C8C8C8" stroke-width="0.25" stroke-miterlimit="10" cx="743.465" cy="361.701" r="2.973"/>
			<circle fill="#C8C8C8" stroke="#C8C8C8" stroke-width="0.25" stroke-miterlimit="10" cx="653.125" cy="362.007" r="2.439"/>
			<rect x="700.5" y="366.5" fill="#C8C8C8" stroke="#C8C8C8" stroke-miterlimit="10" width="1" height="4"/>
			<rect x="736.5" y="366.5" fill="#C8C8C8" stroke="#C8C8C8" stroke-miterlimit="10" width="1" height="4"/>
			<rect x="641.5" y="380.5" fill="#333333" stroke="#333333" stroke-miterlimit="10" width="47" height="4"/>
		</g>
		<g>
			<rect x="816.5" y="260.5" fill="#999999" stroke="#999999" stroke-miterlimit="10" width="10" height="60"/>
			<path fill="#808080" stroke="#808080" stroke-miterlimit="10" d="M803.5,324.01c0,9.976,0,28.592,0,37.055
				c0,7.66,4.564,6.436,7.487,6.436c8.001,0,85.878,0,85.878,0c2.349-1,2.783-3.132,2.789-4.287c0-6.592-3.377-7.488-3.377-7.488
				l-85.29-34.207c0,0-3.958-2.034-5.872-2.316C803.573,319.201,803.5,320.984,803.5,324.01z"/>
			<path fill="#E6E6E6" stroke="#999999" stroke-width="0.25" stroke-miterlimit="10" d="M820.697,332.141
				c0,0,3.848-0.019,6.49-0.019s2.814,3.384,3.967,5.794c1.22,2.287,3.601,1.695,6.508,0c2.418-1.689,13.474-10.216,13.474-10.216
				s2.196-2.033,0.011-5.286c-11.334-13.315-30.449-13.214-30.449-13.214s-19.18-0.102-30.514,13.214
				c-2.186,3.253,0.018,5.286,0.018,5.286s11.059,8.526,13.477,10.216c2.908,1.695,5.291,2.287,6.51,0
				c1.152-2.41,1.326-5.794,3.969-5.794S820.697,332.141,820.697,332.141z"/>
			<rect x="817.5" y="364.5" fill="#808080" stroke="#808080" stroke-miterlimit="10" width="7" height="23"/>
			<circle fill="#999999" stroke="#999999" stroke-width="0.25" stroke-miterlimit="10" cx="820.666" cy="350.342" r="13.846"/>
			<rect x="850.5" y="351.5" fill="#999999" stroke="#999999" stroke-miterlimit="10" width="44" height="20"/>
			<rect x="863.5" y="353.5" fill="#C8C8C8" stroke="#C8C8C8" stroke-miterlimit="10" width="23" height="2"/>
			<rect x="863.5" y="367.5" fill="#C8C8C8" stroke="#C8C8C8" stroke-miterlimit="10" width="23" height="2"/>
			<rect x="858.5" y="348.5" fill="#C8C8C8" stroke="#999999" stroke-miterlimit="10" width="5" height="27"/>
			<rect x="886.5" y="348.5" fill="#C8C8C8" stroke="#999999" stroke-miterlimit="10" width="5" height="27"/>
			<rect x="856.5" y="352.5" fill="#C8C8C8" stroke="#C8C8C8" stroke-miterlimit="10" width="1" height="4"/>
			<rect x="892.5" y="352.5" fill="#C8C8C8" stroke="#C8C8C8" stroke-miterlimit="10" width="1" height="4"/>
			<path fill="#999999" stroke="#999999" stroke-miterlimit="10" d="M904.726,361.701c0,3.285-2.662,5.949-5.946,5.949
				c-0.461,0-0.906-0.15-1.336-0.15H894.5v-12h2.943c0.43,0,0.875,0.052,1.336,0.052
				C902.063,355.552,904.726,358.418,904.726,361.701z"/>
			<path fill="#C8C8C8" stroke="#C8C8C8" stroke-miterlimit="10" d="M849.5,359.5v5h-31.387c-3.133,0-5.765,0.336-6.555,0.619
				c-0.157,0.059-0.242,0.183-0.242,0.243c-0.652,0.442-1.439,0.729-2.286,0.729c-2.265,0-4.099-1.826-4.099-4.101
				s1.834-4.109,4.099-4.109c0.847,0,1.634,0.261,2.286,0.702c0,0.062,0.082,0.243,0.24,0.298c0.792,0.287,3.448,0.618,6.605,0.618
				H849.5z"/>
			<polygon fill="#333333" stroke="#333333" stroke-width="0.25" stroke-miterlimit="10" points="814.812,363.25 859.295,318.422 
				852.512,311.586 808.028,356.414 804.027,367.281 			"/>
			<path fill="#C1272D" stroke="#C1272D" stroke-width="0.25" stroke-miterlimit="10" d="M887.712,283.343
				c2.799,2.799,3.058,7.077,0.577,9.558l-27.323,27.324l-10.135-10.135l27.323-27.324
				C880.635,280.285,884.913,280.544,887.712,283.343z"/>
			<circle fill="#C8C8C8" stroke="#C8C8C8" stroke-width="0.25" stroke-miterlimit="10" cx="820.666" cy="350.342" r="3.02"/>
			<circle fill="#C8C8C8" stroke="#C8C8C8" stroke-width="0.25" stroke-miterlimit="10" cx="806.761" cy="334.942" r="3.049"/>
			<circle fill="#C8C8C8" stroke="#C8C8C8" stroke-width="0.25" stroke-miterlimit="10" cx="899.465" cy="361.701" r="2.973"/>
			<circle fill="#C8C8C8" stroke="#C8C8C8" stroke-width="0.25" stroke-miterlimit="10" cx="809.125" cy="362.007" r="2.439"/>
			<rect x="856.5" y="366.5" fill="#C8C8C8" stroke="#C8C8C8" stroke-miterlimit="10" width="1" height="4"/>
			<rect x="892.5" y="366.5" fill="#C8C8C8" stroke="#C8C8C8" stroke-miterlimit="10" width="1" height="4"/>
			<rect x="797.5" y="380.5" fill="#333333" stroke="#333333" stroke-miterlimit="10" width="47" height="4"/>
		</g>
		<g>
			<rect x="971.5" y="260.5" fill="#999999" stroke="#999999" stroke-miterlimit="10" width="10" height="60"/>
			<path fill="#808080" stroke="#808080" stroke-miterlimit="10" d="M959.5,324.01c0,9.976,0,28.592,0,37.055
				c0,7.66,4.564,6.436,7.487,6.436c8.001,0,85.878,0,85.878,0c2.349-1,2.783-3.132,2.789-4.287c0-6.592-3.377-7.488-3.377-7.488
				l-85.29-34.207c0,0-3.958-2.034-5.872-2.316C959.573,319.201,959.5,320.984,959.5,324.01z"/>
			<path fill="#E6E6E6" stroke="#999999" stroke-width="0.25" stroke-miterlimit="10" d="M976.697,332.141
				c0,0,3.848-0.019,6.49-0.019s2.814,3.384,3.967,5.794c1.22,2.287,3.601,1.695,6.508,0c2.418-1.689,13.474-10.216,13.474-10.216
				s2.196-2.033,0.011-5.286c-11.334-13.315-30.449-13.214-30.449-13.214s-19.18-0.102-30.514,13.214
				c-2.186,3.253,0.018,5.286,0.018,5.286s11.059,8.526,13.477,10.216c2.908,1.695,5.291,2.287,6.51,0
				c1.152-2.41,1.326-5.794,3.969-5.794S976.697,332.141,976.697,332.141z"/>
			<rect x="973.5" y="364.5" fill="#808080" stroke="#808080" stroke-miterlimit="10" width="7" height="23"/>
			<circle fill="#999999" stroke="#999999" stroke-width="0.25" stroke-miterlimit="10" cx="976.666" cy="350.342" r="13.846"/>
			<rect x="1006.5" y="351.5" fill="#999999" stroke="#999999" stroke-miterlimit="10" width="44" height="20"/>
			<rect x="1019.5" y="353.5" fill="#C8C8C8" stroke="#C8C8C8" stroke-miterlimit="10" width="23" height="2"/>
			<rect x="1019.5" y="367.5" fill="#C8C8C8" stroke="#C8C8C8" stroke-miterlimit="10" width="23" height="2"/>
			<rect x="1014.5" y="348.5" fill="#C8C8C8" stroke="#999999" stroke-miterlimit="10" width="5" height="27"/>
			<rect x="1042.5" y="348.5" fill="#C8C8C8" stroke="#999999" stroke-miterlimit="10" width="5" height="27"/>
			<rect x="1012.5" y="352.5" fill="#C8C8C8" stroke="#C8C8C8" stroke-miterlimit="10" width="1" height="4"/>
			<rect x="1048.5" y="352.5" fill="#C8C8C8" stroke="#C8C8C8" stroke-miterlimit="10" width="1" height="4"/>
			<path fill="#999999" stroke="#999999" stroke-miterlimit="10" d="M1060.726,361.701c0,3.285-2.662,5.949-5.946,5.949
				c-0.461,0-0.906-0.15-1.336-0.15h-2.943v-12h2.943c0.43,0,0.875,0.052,1.336,0.052
				C1058.063,355.552,1060.726,358.418,1060.726,361.701z"/>
			<path fill="#C8C8C8" stroke="#C8C8C8" stroke-miterlimit="10" d="M1005.5,359.5v5h-31.387c-3.133,0-5.765,0.336-6.555,0.619
				c-0.157,0.059-0.242,0.183-0.242,0.243c-0.652,0.442-1.439,0.729-2.286,0.729c-2.265,0-4.099-1.826-4.099-4.101
				s1.834-4.109,4.099-4.109c0.847,0,1.634,0.261,2.286,0.702c0,0.062,0.082,0.243,0.24,0.298c0.792,0.287,3.448,0.618,6.605,0.618
				H1005.5z"/>
			<polygon fill="#333333" stroke="#333333" stroke-width="0.25" stroke-miterlimit="10" points="970.812,363.25 1015.295,318.422 
				1008.512,311.586 964.028,356.414 960.027,367.281 			"/>
			<path fill="#C1272D" stroke="#C1272D" stroke-width="0.25" stroke-miterlimit="10" d="M1043.712,283.343
				c2.799,2.799,3.058,7.077,0.577,9.558l-27.323,27.324l-10.135-10.135l27.323-27.324
				C1036.635,280.285,1040.913,280.544,1043.712,283.343z"/>
			<circle fill="#C8C8C8" stroke="#C8C8C8" stroke-width="0.25" stroke-miterlimit="10" cx="976.666" cy="350.342" r="3.02"/>
			<circle fill="#C8C8C8" stroke="#C8C8C8" stroke-width="0.25" stroke-miterlimit="10" cx="962.761" cy="334.942" r="3.049"/>
			<circle fill="#C8C8C8" stroke="#C8C8C8" stroke-width="0.25" stroke-miterlimit="10" cx="1055.465" cy="361.701" r="2.973"/>
			<circle fill="#C8C8C8" stroke="#C8C8C8" stroke-width="0.25" stroke-miterlimit="10" cx="965.125" cy="362.007" r="2.439"/>
			<rect x="1012.5" y="366.5" fill="#C8C8C8" stroke="#C8C8C8" stroke-miterlimit="10" width="1" height="4"/>
			<rect x="1048.5" y="366.5" fill="#C8C8C8" stroke="#C8C8C8" stroke-miterlimit="10" width="1" height="4"/>
			<rect x="953.5" y="380.5" fill="#333333" stroke="#333333" stroke-miterlimit="10" width="47" height="4"/>
		</g>
		<g>
			<rect x="1128.5" y="260.5" fill="#999999" stroke="#999999" stroke-miterlimit="10" width="10" height="60"/>
			<path fill="#808080" stroke="#808080" stroke-miterlimit="10" d="M1115.5,324.01c0,9.976,0,28.592,0,37.055
				c0,7.66,4.564,6.436,7.487,6.436c8.001,0,85.878,0,85.878,0c2.349-1,2.783-3.132,2.789-4.287c0-6.592-3.377-7.488-3.377-7.488
				l-85.29-34.207c0,0-3.958-2.034-5.872-2.316C1115.573,319.201,1115.5,320.984,1115.5,324.01z"/>
			<path fill="#E6E6E6" stroke="#999999" stroke-width="0.25" stroke-miterlimit="10" d="M1132.697,332.141
				c0,0,3.848-0.019,6.49-0.019s2.814,3.384,3.967,5.794c1.22,2.287,3.601,1.695,6.508,0c2.418-1.689,13.474-10.216,13.474-10.216
				s2.196-2.033,0.011-5.286c-11.334-13.315-30.449-13.214-30.449-13.214s-19.18-0.102-30.514,13.214
				c-2.186,3.253,0.018,5.286,0.018,5.286s11.059,8.526,13.477,10.216c2.908,1.695,5.291,2.287,6.51,0
				c1.152-2.41,1.326-5.794,3.969-5.794S1132.697,332.141,1132.697,332.141z"/>
			<rect x="1129.5" y="364.5" fill="#808080" stroke="#808080" stroke-miterlimit="10" width="7" height="23"/>
			<circle fill="#999999" stroke="#999999" stroke-width="0.25" stroke-miterlimit="10" cx="1132.666" cy="350.342" r="13.846"/>
			<rect x="1162.5" y="351.5" fill="#999999" stroke="#999999" stroke-miterlimit="10" width="44" height="20"/>
			<rect x="1175.5" y="353.5" fill="#C8C8C8" stroke="#C8C8C8" stroke-miterlimit="10" width="23" height="2"/>
			<rect x="1175.5" y="367.5" fill="#C8C8C8" stroke="#C8C8C8" stroke-miterlimit="10" width="23" height="2"/>
			<rect x="1170.5" y="348.5" fill="#C8C8C8" stroke="#999999" stroke-miterlimit="10" width="5" height="27"/>
			<rect x="1198.5" y="348.5" fill="#C8C8C8" stroke="#999999" stroke-miterlimit="10" width="5" height="27"/>
			<rect x="1168.5" y="352.5" fill="#C8C8C8" stroke="#C8C8C8" stroke-miterlimit="10" width="1" height="4"/>
			<rect x="1204.5" y="352.5" fill="#C8C8C8" stroke="#C8C8C8" stroke-miterlimit="10" width="1" height="4"/>
			<path fill="#999999" stroke="#999999" stroke-miterlimit="10" d="M1216.726,361.701c0,3.285-2.662,5.949-5.946,5.949
				c-0.461,0-0.906-0.15-1.336-0.15h-2.943v-12h2.943c0.43,0,0.875,0.052,1.336,0.052
				C1214.063,355.552,1216.726,358.418,1216.726,361.701z"/>
			<path fill="#C8C8C8" stroke="#C8C8C8" stroke-miterlimit="10" d="M1161.5,359.5v5h-31.387c-3.133,0-5.765,0.336-6.555,0.619
				c-0.157,0.059-0.242,0.183-0.242,0.243c-0.652,0.442-1.439,0.729-2.286,0.729c-2.265,0-4.099-1.826-4.099-4.101
				s1.834-4.109,4.099-4.109c0.847,0,1.634,0.261,2.286,0.702c0,0.062,0.082,0.243,0.24,0.298c0.792,0.287,3.448,0.618,6.605,0.618
				H1161.5z"/>
			<polygon fill="#333333" stroke="#333333" stroke-width="0.25" stroke-miterlimit="10" points="1126.812,363.25 1171.295,318.422 
				1164.512,311.586 1120.028,356.414 1116.027,367.281 			"/>
			<path fill="#C1272D" stroke="#C1272D" stroke-width="0.25" stroke-miterlimit="10" d="M1199.712,283.343
				c2.799,2.799,3.058,7.077,0.577,9.558l-27.323,27.324l-10.135-10.135l27.323-27.324
				C1192.635,280.285,1196.913,280.544,1199.712,283.343z"/>
			<circle fill="#C8C8C8" stroke="#C8C8C8" stroke-width="0.25" stroke-miterlimit="10" cx="1132.666" cy="350.342" r="3.02"/>
			<circle fill="#C8C8C8" stroke="#C8C8C8" stroke-width="0.25" stroke-miterlimit="10" cx="1118.761" cy="334.942" r="3.049"/>
			<circle fill="#C8C8C8" stroke="#C8C8C8" stroke-width="0.25" stroke-miterlimit="10" cx="1211.465" cy="361.701" r="2.973"/>
			<circle fill="#C8C8C8" stroke="#C8C8C8" stroke-width="0.25" stroke-miterlimit="10" cx="1121.125" cy="362.007" r="2.439"/>
			<rect x="1168.5" y="366.5" fill="#C8C8C8" stroke="#C8C8C8" stroke-miterlimit="10" width="1" height="4"/>
			<rect x="1204.5" y="366.5" fill="#C8C8C8" stroke="#C8C8C8" stroke-miterlimit="10" width="1" height="4"/>
			<rect x="1109.5" y="380.5" fill="#333333" stroke="#333333" stroke-miterlimit="10" width="47" height="4"/>
		</g>
		<g>
			<rect x="1284.5" y="260.5" fill="#999999" stroke="#999999" stroke-miterlimit="10" width="10" height="60"/>
			<path fill="#808080" stroke="#808080" stroke-miterlimit="10" d="M1271.5,324.01c0,9.976,0,28.592,0,37.055
				c0,7.66,4.564,6.436,7.487,6.436c8.001,0,85.878,0,85.878,0c2.349-1,2.783-3.132,2.789-4.287c0-6.592-3.377-7.488-3.377-7.488
				l-85.29-34.207c0,0-3.958-2.034-5.872-2.316C1271.573,319.201,1271.5,320.984,1271.5,324.01z"/>
			<path fill="#E6E6E6" stroke="#999999" stroke-width="0.25" stroke-miterlimit="10" d="M1288.697,332.141
				c0,0,3.848-0.019,6.49-0.019s2.814,3.384,3.967,5.794c1.22,2.287,3.601,1.695,6.508,0c2.418-1.689,13.474-10.216,13.474-10.216
				s2.196-2.033,0.011-5.286c-11.334-13.315-30.449-13.214-30.449-13.214s-19.18-0.102-30.514,13.214
				c-2.186,3.253,0.018,5.286,0.018,5.286s11.059,8.526,13.477,10.216c2.908,1.695,5.291,2.287,6.51,0
				c1.152-2.41,1.326-5.794,3.969-5.794S1288.697,332.141,1288.697,332.141z"/>
			<rect x="1285.5" y="364.5" fill="#808080" stroke="#808080" stroke-miterlimit="10" width="7" height="23"/>
			<circle fill="#999999" stroke="#999999" stroke-width="0.25" stroke-miterlimit="10" cx="1288.666" cy="350.342" r="13.846"/>
			<rect x="1318.5" y="351.5" fill="#999999" stroke="#999999" stroke-miterlimit="10" width="44" height="20"/>
			<rect x="1331.5" y="353.5" fill="#C8C8C8" stroke="#C8C8C8" stroke-miterlimit="10" width="23" height="2"/>
			<rect x="1331.5" y="367.5" fill="#C8C8C8" stroke="#C8C8C8" stroke-miterlimit="10" width="23" height="2"/>
			<rect x="1326.5" y="348.5" fill="#C8C8C8" stroke="#999999" stroke-miterlimit="10" width="5" height="27"/>
			<rect x="1354.5" y="348.5" fill="#C8C8C8" stroke="#999999" stroke-miterlimit="10" width="5" height="27"/>
			<rect x="1324.5" y="352.5" fill="#C8C8C8" stroke="#C8C8C8" stroke-miterlimit="10" width="1" height="4"/>
			<rect x="1360.5" y="352.5" fill="#C8C8C8" stroke="#C8C8C8" stroke-miterlimit="10" width="1" height="4"/>
			<path fill="#999999" stroke="#999999" stroke-miterlimit="10" d="M1372.726,361.701c0,3.285-2.662,5.949-5.946,5.949
				c-0.461,0-0.906-0.15-1.336-0.15h-2.943v-12h2.943c0.43,0,0.875,0.052,1.336,0.052
				C1370.063,355.552,1372.726,358.418,1372.726,361.701z"/>
			<path fill="#C8C8C8" stroke="#C8C8C8" stroke-miterlimit="10" d="M1317.5,359.5v5h-31.387c-3.133,0-5.765,0.336-6.555,0.619
				c-0.157,0.059-0.242,0.183-0.242,0.243c-0.652,0.442-1.439,0.729-2.286,0.729c-2.265,0-4.099-1.826-4.099-4.101
				s1.834-4.109,4.099-4.109c0.847,0,1.634,0.261,2.286,0.702c0,0.062,0.082,0.243,0.24,0.298c0.792,0.287,3.448,0.618,6.605,0.618
				H1317.5z"/>
			<polygon fill="#333333" stroke="#333333" stroke-width="0.25" stroke-miterlimit="10" points="1282.812,363.25 1327.295,318.422 
				1320.512,311.586 1276.028,356.414 1272.027,367.281 			"/>
			<path fill="#C1272D" stroke="#C1272D" stroke-width="0.25" stroke-miterlimit="10" d="M1355.712,283.343
				c2.799,2.799,3.058,7.077,0.577,9.558l-27.323,27.324l-10.135-10.135l27.323-27.324
				C1348.635,280.285,1352.913,280.544,1355.712,283.343z"/>
			<circle fill="#C8C8C8" stroke="#C8C8C8" stroke-width="0.25" stroke-miterlimit="10" cx="1288.666" cy="350.342" r="3.02"/>
			<circle fill="#C8C8C8" stroke="#C8C8C8" stroke-width="0.25" stroke-miterlimit="10" cx="1274.761" cy="334.942" r="3.049"/>
			<circle fill="#C8C8C8" stroke="#C8C8C8" stroke-width="0.25" stroke-miterlimit="10" cx="1367.465" cy="361.701" r="2.973"/>
			<circle fill="#C8C8C8" stroke="#C8C8C8" stroke-width="0.25" stroke-miterlimit="10" cx="1277.125" cy="362.007" r="2.439"/>
			<rect x="1324.5" y="366.5" fill="#C8C8C8" stroke="#C8C8C8" stroke-miterlimit="10" width="1" height="4"/>
			<rect x="1360.5" y="366.5" fill="#C8C8C8" stroke="#C8C8C8" stroke-miterlimit="10" width="1" height="4"/>
			<rect x="1265.5" y="380.5" fill="#333333" stroke="#333333" stroke-miterlimit="10" width="47" height="4"/>
		</g>
	</g>
</g>
</svg>
