<?xml version="1.0" encoding="utf-8"?>
<!-- Generator: Adobe Illustrator 16.0.0, SVG Export Plug-In . SVG Version: 6.00 Build 0)  -->
<!DOCTYPE svg PUBLIC "-//W3C//DTD SVG 1.1//EN" "http://www.w3.org/Graphics/SVG/1.1/DTD/svg11.dtd">
<svg version="1.1" xmlns="http://www.w3.org/2000/svg" xmlns:xlink="http://www.w3.org/1999/xlink" x="0px" y="0px" width="1288px"
	 height="288px" viewBox="0 0 1288 288" enable-background="new 0 0 1288 288" xml:space="preserve">
<g id="Layer_1" display="none">
</g>
<g id="Cylinder">
</g>
<g id="Layer_6">
</g>
<g id="Pressure_gauge">
</g>
<g id="Chasis__x26__base">
	<g>
		<rect x="8.5" y="178.5" fill="#999999" stroke="#999999" stroke-miterlimit="10" width="43" height="6"/>
		<path fill="#808080" stroke="#808080" stroke-miterlimit="10" d="M59.5,170.268c0,4.547-3.686,8.232-8.232,8.232H8.732
			c-4.547,0-8.232-3.686-8.232-8.232v-42.535c0-4.547,3.686-8.232,8.232-8.232h42.535c4.547,0,8.232,3.686,8.232,8.232V170.268z"/>
		<circle fill="#C8C8C8" stroke="#C8C8C8" stroke-miterlimit="10" cx="30.485" cy="148.5" r="20.924"/>
		<rect x="22.5" y="184.5" fill="#999999" stroke="#999999" stroke-miterlimit="10" width="15" height="103"/>
		<path fill="#999999" stroke="#999999" stroke-miterlimit="10" d="M1287.5,143.25c0,4.556-5.485,8.25-12.234,8.25h-67.396
			c-6.75,0-12.37-3.694-12.37-8.25v-0.5c0-4.556,5.62-8.25,12.37-8.25h67.396c6.749,0,12.234,3.694,12.234,8.25V143.25z"/>
		<rect x="1276.5" y="147.5" fill="#999999" stroke="#999999" stroke-miterlimit="10" width="6" height="17"/>
		<rect x="1026.5" y="127.5" fill="#999999" stroke="#999999" stroke-miterlimit="10" width="125" height="33"/>
		<g>
			<path fill="#999999" stroke="#999999" stroke-miterlimit="10" d="M183.5,149.5h-40.595c-0.67-1.66-1.405-3.04-3.405-3.92V70.5
				h-15v75.08c-1,0.34-1.178,0.77-1.668,1.26c-0.75,0.75-1.356,1.66-1.767,2.66H59.5v6h61.565c0.67,1.66,1.435,3.04,3.435,3.92
				V287.5h15V159.42c2-0.88,2.735-2.26,3.405-3.92H183.5V149.5z"/>
			<polygon fill="#999999" stroke="#999999" stroke-miterlimit="10" points="285.5,126.5 285.5,160.5 1026.5,160.5 1026.5,127.732 
							"/>
		</g>
		<rect x="1172.5" y="184.5" fill="#999999" stroke="#999999" stroke-miterlimit="10" width="15" height="103"/>
		<path fill="#999999" stroke="#999999" stroke-miterlimit="10" d="M695.5,97.87v0.26c0,2.5-2,4.59-4,5.19v23.18h-6v-23.18
			c-2-0.39-2.784-1.44-3.454-2.82h-147.74c-0.99,1.22-2.5,2-4.19,2h-3.26c-2.97,0-5.355-2.4-5.355-5.37v-0.26c0-2.5,2-4.59,4-5.19
			V13.32c-2-0.39-2.784-1.44-3.454-2.82H365.5v-6h157.165c0.99-1.22,2.5-2,4.19-2h3.26c2.97,0,5.385,2.4,5.385,5.37v0.26
			c0,2.5-2,4.59-4,5.19v78.36c2,0.39,2.755,1.44,3.425,2.82h147.74c0.99-1.22,2.5-2,4.19-2h3.26
			C693.085,92.5,695.5,94.9,695.5,97.87z"/>
		<path fill="#999999" stroke="#999999" stroke-miterlimit="10" d="M124.5,30.5H36.306c-0.99-1.22-2.5-2-4.19-2h-3.26
			c-2.97,0-5.355,2.4-5.355,5.37v0.26c0,2.5,2,4.59,4,5.19v79.18h6V39.32c2-0.39,2.755-1.44,3.425-2.82H124.5V30.5z"/>
		<rect x="1172.5" y="108.5" fill="#999999" stroke="#999999" stroke-miterlimit="10" width="15" height="11"/>
		<rect x="1158.5" y="178.5" fill="#999999" stroke="#999999" stroke-miterlimit="10" width="43" height="6"/>
		<path fill="#808080" stroke="#808080" stroke-miterlimit="10" d="M1209.5,170.268c0,4.547-3.686,8.232-8.232,8.232h-42.535
			c-4.547,0-8.232-3.686-8.232-8.232v-42.535c0-4.547,3.686-8.232,8.232-8.232h42.535c4.547,0,8.232,3.686,8.232,8.232V170.268z"/>
		<circle fill="#C8C8C8" stroke="#C8C8C8" stroke-miterlimit="10" cx="1180.485" cy="148.5" r="20.924"/>
		<g>
			<rect x="1162.5" y="5.5" fill="#999999" stroke="#999999" stroke-miterlimit="10" width="34" height="103"/>
			<rect x="1169.5" y="0.5" fill="#999999" stroke="#999999" stroke-miterlimit="10" width="19" height="5"/>
		</g>
		<path fill="#999999" stroke="#999999" stroke-miterlimit="10" d="M326.5,138.5c0-6.627-5.819-12-12.979-12H184.95
			c-7.16,0-13.45,5.373-13.45,12v10c0,6.627,6.29,12,13.45,12h128.57c7.16,0,12.979-5.373,12.979-12V138.5z"/>
		<rect x="152.5" y="4.5" fill="#999999" stroke="#999999" stroke-miterlimit="10" width="213" height="6"/>
		<rect x="108.5" y="283.5" fill="#333333" stroke="#333333" stroke-miterlimit="10" width="47" height="4"/>
	</g>
</g>
<g id="Layer_8">
</g>
<g id="Motor__x26__pump">
</g>
<g id="Valves">
</g>
</svg>
