<?xml version="1.0" encoding="utf-8"?>
<!-- Generator: Adobe Illustrator 16.0.0, SVG Export Plug-In . SVG Version: 6.00 Build 0)  -->
<!DOCTYPE svg PUBLIC "-//W3C//DTD SVG 1.1//EN" "http://www.w3.org/Graphics/SVG/1.1/DTD/svg11.dtd">
<svg version="1.1" xmlns="http://www.w3.org/2000/svg" xmlns:xlink="http://www.w3.org/1999/xlink" x="0px" y="0px" width="1699px"
	 height="826px" viewBox="0 0 1699 826" enable-background="new 0 0 1699 826" xml:space="preserve">
<g id="Layer_1" display="none">
	<g display="inline" opacity="0.4">
		<g>
			<defs>
				<rect id="SVGID_1_" x="-549" y="113" width="557" height="418"/>
			</defs>
			<clipPath id="SVGID_2_">
				<use xlink:href="#SVGID_1_"  overflow="visible"/>
			</clipPath>
			<g transform="matrix(1 0 0 1 0 -7.629395e-006)" clip-path="url(#SVGID_2_)">
				
					<image overflow="visible" width="2592" height="1944" xlink:href="5C9B1748.jpg"  transform="matrix(0.2148 0 0 0.2148 -548.8911 113.3618)">
				</image>
			</g>
		</g>
	</g>
</g>
<g id="Cylinder">
</g>
<g id="Layer_6">
</g>
<g id="Pressure_gauge">
</g>
<g id="Chasis__x26__base">
</g>
<g id="Layer_8">
</g>
<g id="Motor__x26__pump">
</g>
<g id="Valves">
	<g>
		<path fill="#E6E6E6" stroke="#E6E6E6" stroke-miterlimit="10" d="M468.5,48.5v384h-74v-384c0-15.69,9.77-29.1,23.55-34.48
			c-0.36-0.85-0.55-1.78-0.55-2.75v-0.54c0-3.68,2.73-6.7,6.279-7.16c-0.18-0.29-0.279-0.63-0.279-0.99V2.42
			c0-1.06,1.345-1.92,2.405-1.92h12.16c1.061,0,1.435,0.86,1.435,1.92v0.16c0,0.36-0.1,0.7-0.279,0.99
			c3.549,0.46,6.279,3.48,6.279,7.16v0.54c0,0.97-0.189,1.9-0.55,2.75C458.73,19.4,468.5,32.81,468.5,48.5z"/>
		<path fill="#E6E6E6" stroke="#E6E6E6" stroke-miterlimit="10" d="M552.5,48.5v384h-74v-384c0-15.69,9.77-29.1,23.55-34.48
			c-0.36-0.85-0.55-1.78-0.55-2.75v-0.54c0-3.68,2.73-6.7,6.279-7.16c-0.18-0.29-0.279-0.63-0.279-0.99V2.42
			c0-1.06,1.345-1.92,2.405-1.92h12.16c1.061,0,1.435,0.86,1.435,1.92v0.16c0,0.36-0.1,0.7-0.279,0.99
			c3.549,0.46,6.279,3.48,6.279,7.16v0.54c0,0.97-0.189,1.9-0.55,2.75C542.73,19.4,552.5,32.81,552.5,48.5z"/>
		<path fill="#E6E6E6" stroke="#E6E6E6" stroke-miterlimit="10" d="M636.5,48.5v384h-74v-384c0-15.69,9.77-29.1,23.55-34.48
			c-0.36-0.85-0.55-1.78-0.55-2.75v-0.54c0-3.68,2.73-6.7,6.279-7.16c-0.18-0.29-0.279-0.63-0.279-0.99V2.42
			c0-1.06,1.345-1.92,2.405-1.92h12.16c1.061,0,1.435,0.86,1.435,1.92v0.16c0,0.36-0.1,0.7-0.279,0.99
			c3.549,0.46,6.279,3.48,6.279,7.16v0.54c0,0.97-0.189,1.9-0.55,2.75C626.73,19.4,636.5,32.81,636.5,48.5z"/>
		<path fill="#E6E6E6" stroke="#E6E6E6" stroke-miterlimit="10" d="M720.5,48.5v384h-74v-384c0-15.69,9.77-29.1,23.55-34.48
			c-0.36-0.85-0.55-1.78-0.55-2.75v-0.54c0-3.68,2.73-6.7,6.279-7.16c-0.18-0.29-0.279-0.63-0.279-0.99V2.42
			c0-1.06,1.345-1.92,2.405-1.92h12.16c1.061,0,1.435,0.86,1.435,1.92v0.16c0,0.36-0.1,0.7-0.279,0.99
			c3.549,0.46,6.279,3.48,6.279,7.16v0.54c0,0.97-0.189,1.9-0.55,2.75C710.73,19.4,720.5,32.81,720.5,48.5z"/>
		<path fill="#E6E6E6" stroke="#E6E6E6" stroke-miterlimit="10" d="M804.5,48.5v384h-74v-384c0-15.69,9.77-29.1,23.55-34.48
			c-0.36-0.85-0.55-1.78-0.55-2.75v-0.54c0-3.68,2.73-6.7,6.279-7.16c-0.18-0.29-0.279-0.63-0.279-0.99V2.42
			c0-1.06,1.345-1.92,2.405-1.92h12.16c1.061,0,1.435,0.86,1.435,1.92v0.16c0,0.36-0.1,0.7-0.279,0.99
			c3.549,0.46,6.279,3.48,6.279,7.16v0.54c0,0.97-0.189,1.9-0.55,2.75C794.73,19.4,804.5,32.81,804.5,48.5z"/>
		<path fill="#E6E6E6" stroke="#E6E6E6" stroke-miterlimit="10" d="M888.5,48.5v384h-74v-384c0-15.69,9.77-29.1,23.55-34.48
			c-0.36-0.85-0.55-1.78-0.55-2.75v-0.54c0-3.68,2.73-6.7,6.279-7.16c-0.18-0.29-0.279-0.63-0.279-0.99V2.42
			c0-1.06,1.345-1.92,2.405-1.92h12.16c1.061,0,1.435,0.86,1.435,1.92v0.16c0,0.36-0.1,0.7-0.279,0.99
			c3.549,0.46,6.279,3.48,6.279,7.16v0.54c0,0.97-0.189,1.9-0.55,2.75C878.73,19.4,888.5,32.81,888.5,48.5z"/>
		<path fill="#E6E6E6" stroke="#E6E6E6" stroke-miterlimit="10" d="M972.5,48.5v384h-74v-384c0-15.69,9.77-29.1,23.55-34.48
			c-0.36-0.85-0.55-1.78-0.55-2.75v-0.54c0-3.68,2.73-6.7,6.279-7.16c-0.18-0.29-0.279-0.63-0.279-0.99V2.42
			c0-1.06,1.345-1.92,2.405-1.92h12.16c1.061,0,1.435,0.86,1.435,1.92v0.16c0,0.36-0.1,0.7-0.279,0.99
			c3.549,0.46,6.279,3.48,6.279,7.16v0.54c0,0.97-0.189,1.9-0.55,2.75C962.73,19.4,972.5,32.81,972.5,48.5z"/>
		<path fill="#E6E6E6" stroke="#E6E6E6" stroke-miterlimit="10" d="M1056.5,48.5v384h-74v-384c0-15.69,9.77-29.1,23.55-34.48
			c-0.36-0.85-0.55-1.78-0.55-2.75v-0.54c0-3.68,2.73-6.7,6.279-7.16c-0.18-0.29-0.279-0.63-0.279-0.99V2.42
			c0-1.06,1.345-1.92,2.405-1.92h12.16c1.061,0,1.435,0.86,1.435,1.92v0.16c0,0.36-0.1,0.7-0.279,0.99
			c3.549,0.46,6.279,3.48,6.279,7.16v0.54c0,0.97-0.189,1.9-0.55,2.75C1046.73,19.4,1056.5,32.81,1056.5,48.5z"/>
		<path fill="#E6E6E6" stroke="#E6E6E6" stroke-miterlimit="10" d="M1140.5,48.5v384h-74v-384c0-15.69,9.77-29.1,23.55-34.48
			c-0.36-0.85-0.55-1.78-0.55-2.75v-0.54c0-3.68,2.73-6.7,6.279-7.16c-0.18-0.29-0.279-0.63-0.279-0.99V2.42
			c0-1.06,1.345-1.92,2.405-1.92h12.16c1.061,0,1.435,0.86,1.435,1.92v0.16c0,0.36-0.1,0.7-0.279,0.99
			c3.549,0.46,6.279,3.48,6.279,7.16v0.54c0,0.97-0.189,1.9-0.55,2.75C1130.73,19.4,1140.5,32.81,1140.5,48.5z"/>
		<path fill="#E6E6E6" stroke="#E6E6E6" stroke-miterlimit="10" d="M1224.5,48.5v384h-74v-384c0-15.69,9.77-29.1,23.55-34.48
			c-0.36-0.85-0.55-1.78-0.55-2.75v-0.54c0-3.68,2.73-6.7,6.279-7.16c-0.18-0.29-0.279-0.63-0.279-0.99V2.42
			c0-1.06,1.345-1.92,2.405-1.92h12.16c1.061,0,1.435,0.86,1.435,1.92v0.16c0,0.36-0.1,0.7-0.279,0.99
			c3.549,0.46,6.279,3.48,6.279,7.16v0.54c0,0.97-0.189,1.9-0.55,2.75C1214.73,19.4,1224.5,32.81,1224.5,48.5z"/>
		<path fill="#E6E6E6" stroke="#E6E6E6" stroke-miterlimit="10" d="M1308.5,48.5v384h-74v-384c0-15.69,9.77-29.1,23.55-34.48
			c-0.36-0.85-0.55-1.78-0.55-2.75v-0.54c0-3.68,2.73-6.7,6.279-7.16c-0.18-0.29-0.279-0.63-0.279-0.99V2.42
			c0-1.06,1.345-1.92,2.405-1.92h12.16c1.061,0,1.435,0.86,1.435,1.92v0.16c0,0.36-0.1,0.7-0.279,0.99
			c3.549,0.46,6.279,3.48,6.279,7.16v0.54c0,0.97-0.189,1.9-0.55,2.75C1298.73,19.4,1308.5,32.81,1308.5,48.5z"/>
		<path fill="#E6E6E6" stroke="#E6E6E6" stroke-miterlimit="10" d="M1392.5,48.5v384h-74v-384c0-15.69,9.77-29.1,23.55-34.48
			c-0.36-0.85-0.55-1.78-0.55-2.75v-0.54c0-3.68,2.73-6.7,6.279-7.16c-0.18-0.29-0.279-0.63-0.279-0.99V2.42
			c0-1.06,1.345-1.92,2.405-1.92h12.16c1.061,0,1.435,0.86,1.435,1.92v0.16c0,0.36-0.1,0.7-0.279,0.99
			c3.549,0.46,6.279,3.48,6.279,7.16v0.54c0,0.97-0.189,1.9-0.55,2.75C1382.73,19.4,1392.5,32.81,1392.5,48.5z"/>
		<path fill="#E6E6E6" stroke="#E6E6E6" stroke-miterlimit="10" d="M1476.5,48.5v384h-74v-384c0-15.69,9.77-29.1,23.55-34.48
			c-0.36-0.85-0.55-1.78-0.55-2.75v-0.54c0-3.68,2.73-6.7,6.279-7.16c-0.18-0.29-0.279-0.63-0.279-0.99V2.42
			c0-1.06,1.345-1.92,2.405-1.92h12.16c1.061,0,1.435,0.86,1.435,1.92v0.16c0,0.36-0.1,0.7-0.279,0.99
			c3.549,0.46,6.279,3.48,6.279,7.16v0.54c0,0.97-0.189,1.9-0.55,2.75C1466.73,19.4,1476.5,32.81,1476.5,48.5z"/>
		<path fill="#B3B3B3" stroke="#B3B3B3" stroke-miterlimit="10" d="M462.5,74.5v384h-74v-384c0-15.69,9.77-29.1,23.55-34.48
			c-0.36-0.85-0.55-1.78-0.55-2.75v-0.54c0-3.68,2.73-6.7,6.279-7.16c-0.18-0.29-0.279-0.63-0.279-0.99v-0.16
			c0-1.06,1.345-1.92,2.405-1.92h12.16c1.061,0,1.435,0.86,1.435,1.92v0.16c0,0.36-0.1,0.7-0.279,0.99
			c3.549,0.46,6.279,3.48,6.279,7.16v0.54c0,0.97-0.189,1.9-0.55,2.75C452.73,45.4,462.5,58.81,462.5,74.5z"/>
		<path fill="#B3B3B3" stroke="#B3B3B3" stroke-miterlimit="10" d="M546.5,74.5v384h-74v-384c0-15.69,9.77-29.1,23.55-34.48
			c-0.36-0.85-0.55-1.78-0.55-2.75v-0.54c0-3.68,2.73-6.7,6.279-7.16c-0.18-0.29-0.279-0.63-0.279-0.99v-0.16
			c0-1.06,1.345-1.92,2.405-1.92h12.16c1.061,0,1.435,0.86,1.435,1.92v0.16c0,0.36-0.1,0.7-0.279,0.99
			c3.549,0.46,6.279,3.48,6.279,7.16v0.54c0,0.97-0.189,1.9-0.55,2.75C536.73,45.4,546.5,58.81,546.5,74.5z"/>
		<path fill="#B3B3B3" stroke="#B3B3B3" stroke-miterlimit="10" d="M630.5,74.5v384h-74v-384c0-15.69,9.77-29.1,23.55-34.48
			c-0.36-0.85-0.55-1.78-0.55-2.75v-0.54c0-3.68,2.73-6.7,6.279-7.16c-0.18-0.29-0.279-0.63-0.279-0.99v-0.16
			c0-1.06,1.345-1.92,2.405-1.92h12.16c1.061,0,1.435,0.86,1.435,1.92v0.16c0,0.36-0.1,0.7-0.279,0.99
			c3.549,0.46,6.279,3.48,6.279,7.16v0.54c0,0.97-0.189,1.9-0.55,2.75C620.73,45.4,630.5,58.81,630.5,74.5z"/>
		<path fill="#B3B3B3" stroke="#B3B3B3" stroke-miterlimit="10" d="M714.5,74.5v384h-74v-384c0-15.69,9.77-29.1,23.55-34.48
			c-0.36-0.85-0.55-1.78-0.55-2.75v-0.54c0-3.68,2.73-6.7,6.279-7.16c-0.18-0.29-0.279-0.63-0.279-0.99v-0.16
			c0-1.06,1.345-1.92,2.405-1.92h12.16c1.061,0,1.435,0.86,1.435,1.92v0.16c0,0.36-0.1,0.7-0.279,0.99
			c3.549,0.46,6.279,3.48,6.279,7.16v0.54c0,0.97-0.189,1.9-0.55,2.75C704.73,45.4,714.5,58.81,714.5,74.5z"/>
		<path fill="#B3B3B3" stroke="#B3B3B3" stroke-miterlimit="10" d="M798.5,74.5v384h-74v-384c0-15.69,9.77-29.1,23.55-34.48
			c-0.36-0.85-0.55-1.78-0.55-2.75v-0.54c0-3.68,2.73-6.7,6.279-7.16c-0.18-0.29-0.279-0.63-0.279-0.99v-0.16
			c0-1.06,1.345-1.92,2.405-1.92h12.16c1.061,0,1.435,0.86,1.435,1.92v0.16c0,0.36-0.1,0.7-0.279,0.99
			c3.549,0.46,6.279,3.48,6.279,7.16v0.54c0,0.97-0.189,1.9-0.55,2.75C788.73,45.4,798.5,58.81,798.5,74.5z"/>
		<path fill="#B3B3B3" stroke="#B3B3B3" stroke-miterlimit="10" d="M882.5,74.5v384h-74v-384c0-15.69,9.77-29.1,23.55-34.48
			c-0.36-0.85-0.55-1.78-0.55-2.75v-0.54c0-3.68,2.73-6.7,6.279-7.16c-0.18-0.29-0.279-0.63-0.279-0.99v-0.16
			c0-1.06,1.345-1.92,2.405-1.92h12.16c1.061,0,1.435,0.86,1.435,1.92v0.16c0,0.36-0.1,0.7-0.279,0.99
			c3.549,0.46,6.279,3.48,6.279,7.16v0.54c0,0.97-0.189,1.9-0.55,2.75C872.73,45.4,882.5,58.81,882.5,74.5z"/>
		<path fill="#B3B3B3" stroke="#B3B3B3" stroke-miterlimit="10" d="M966.5,74.5v384h-74v-384c0-15.69,9.77-29.1,23.55-34.48
			c-0.36-0.85-0.55-1.78-0.55-2.75v-0.54c0-3.68,2.73-6.7,6.279-7.16c-0.18-0.29-0.279-0.63-0.279-0.99v-0.16
			c0-1.06,1.345-1.92,2.405-1.92h12.16c1.061,0,1.435,0.86,1.435,1.92v0.16c0,0.36-0.1,0.7-0.279,0.99
			c3.549,0.46,6.279,3.48,6.279,7.16v0.54c0,0.97-0.189,1.9-0.55,2.75C956.73,45.4,966.5,58.81,966.5,74.5z"/>
		<path fill="#B3B3B3" stroke="#B3B3B3" stroke-miterlimit="10" d="M1050.5,74.5v384h-74v-384c0-15.69,9.77-29.1,23.55-34.48
			c-0.36-0.85-0.55-1.78-0.55-2.75v-0.54c0-3.68,2.73-6.7,6.279-7.16c-0.18-0.29-0.279-0.63-0.279-0.99v-0.16
			c0-1.06,1.345-1.92,2.405-1.92h12.16c1.061,0,1.435,0.86,1.435,1.92v0.16c0,0.36-0.1,0.7-0.279,0.99
			c3.549,0.46,6.279,3.48,6.279,7.16v0.54c0,0.97-0.189,1.9-0.55,2.75C1040.73,45.4,1050.5,58.81,1050.5,74.5z"/>
		<path fill="#B3B3B3" stroke="#B3B3B3" stroke-miterlimit="10" d="M1134.5,74.5v384h-74v-384c0-15.69,9.77-29.1,23.55-34.48
			c-0.36-0.85-0.55-1.78-0.55-2.75v-0.54c0-3.68,2.73-6.7,6.279-7.16c-0.18-0.29-0.279-0.63-0.279-0.99v-0.16
			c0-1.06,1.345-1.92,2.405-1.92h12.16c1.061,0,1.435,0.86,1.435,1.92v0.16c0,0.36-0.1,0.7-0.279,0.99
			c3.549,0.46,6.279,3.48,6.279,7.16v0.54c0,0.97-0.189,1.9-0.55,2.75C1124.73,45.4,1134.5,58.81,1134.5,74.5z"/>
		<path fill="#B3B3B3" stroke="#B3B3B3" stroke-miterlimit="10" d="M1218.5,74.5v384h-74v-384c0-15.69,9.77-29.1,23.55-34.48
			c-0.36-0.85-0.55-1.78-0.55-2.75v-0.54c0-3.68,2.73-6.7,6.279-7.16c-0.18-0.29-0.279-0.63-0.279-0.99v-0.16
			c0-1.06,1.345-1.92,2.405-1.92h12.16c1.061,0,1.435,0.86,1.435,1.92v0.16c0,0.36-0.1,0.7-0.279,0.99
			c3.549,0.46,6.279,3.48,6.279,7.16v0.54c0,0.97-0.189,1.9-0.55,2.75C1208.73,45.4,1218.5,58.81,1218.5,74.5z"/>
		<path fill="#B3B3B3" stroke="#B3B3B3" stroke-miterlimit="10" d="M1302.5,74.5v384h-74v-384c0-15.69,9.77-29.1,23.55-34.48
			c-0.36-0.85-0.55-1.78-0.55-2.75v-0.54c0-3.68,2.73-6.7,6.279-7.16c-0.18-0.29-0.279-0.63-0.279-0.99v-0.16
			c0-1.06,1.345-1.92,2.405-1.92h12.16c1.061,0,1.435,0.86,1.435,1.92v0.16c0,0.36-0.1,0.7-0.279,0.99
			c3.549,0.46,6.279,3.48,6.279,7.16v0.54c0,0.97-0.189,1.9-0.55,2.75C1292.73,45.4,1302.5,58.81,1302.5,74.5z"/>
		<path fill="#B3B3B3" stroke="#B3B3B3" stroke-miterlimit="10" d="M1386.5,74.5v384h-74v-384c0-15.69,9.77-29.1,23.55-34.48
			c-0.36-0.85-0.55-1.78-0.55-2.75v-0.54c0-3.68,2.73-6.7,6.279-7.16c-0.18-0.29-0.279-0.63-0.279-0.99v-0.16
			c0-1.06,1.345-1.92,2.405-1.92h12.16c1.061,0,1.435,0.86,1.435,1.92v0.16c0,0.36-0.1,0.7-0.279,0.99
			c3.549,0.46,6.279,3.48,6.279,7.16v0.54c0,0.97-0.189,1.9-0.55,2.75C1376.73,45.4,1386.5,58.81,1386.5,74.5z"/>
		<path fill="#B3B3B3" stroke="#B3B3B3" stroke-miterlimit="10" d="M1470.5,74.5v384h-74v-384c0-15.69,9.77-29.1,23.55-34.48
			c-0.36-0.85-0.55-1.78-0.55-2.75v-0.54c0-3.68,2.73-6.7,6.279-7.16c-0.18-0.29-0.279-0.63-0.279-0.99v-0.16
			c0-1.06,1.345-1.92,2.405-1.92h12.16c1.061,0,1.435,0.86,1.435,1.92v0.16c0,0.36-0.1,0.7-0.279,0.99
			c3.549,0.46,6.279,3.48,6.279,7.16v0.54c0,0.97-0.189,1.9-0.55,2.75C1460.73,45.4,1470.5,58.81,1470.5,74.5z"/>
		<rect x="54.5" y="278.5" fill="#999999" stroke="#999999" stroke-miterlimit="10" width="43" height="6"/>
		<path fill="#808080" stroke="#808080" stroke-miterlimit="10" d="M105.5,270.268c0,4.547-3.686,8.232-8.232,8.232H54.732
			c-4.547,0-8.232-3.686-8.232-8.232v-42.535c0-4.547,3.686-8.232,8.232-8.232h42.535c4.547,0,8.232,3.686,8.232,8.232V270.268z"/>
		<circle fill="#C8C8C8" stroke="#C8C8C8" stroke-miterlimit="10" cx="76.985" cy="248.5" r="20.924"/>
		<rect x="68.5" y="284.5" fill="#999999" stroke="#999999" stroke-miterlimit="10" width="15" height="103"/>
		<rect x="1444.5" y="260.5" fill="#999999" stroke="#999999" stroke-miterlimit="10" width="10" height="60"/>
		<rect x="1288.5" y="260.5" fill="#999999" stroke="#999999" stroke-miterlimit="10" width="10" height="60"/>
		<rect x="1131.5" y="260.5" fill="#999999" stroke="#999999" stroke-miterlimit="10" width="10" height="60"/>
		<rect x="976.5" y="260.5" fill="#999999" stroke="#999999" stroke-miterlimit="10" width="10" height="60"/>
		<rect x="820.5" y="260.5" fill="#999999" stroke="#999999" stroke-miterlimit="10" width="10" height="60"/>
		<rect x="664.5" y="260.5" fill="#999999" stroke="#999999" stroke-miterlimit="10" width="10" height="60"/>
		<rect x="513.5" y="260.5" fill="#999999" stroke="#999999" stroke-miterlimit="10" width="10" height="60"/>
		<rect x="362.5" y="260.5" fill="#999999" stroke="#999999" stroke-miterlimit="10" width="10" height="60"/>
		<rect x="208.5" y="260.5" fill="#999999" stroke="#999999" stroke-miterlimit="10" width="10" height="60"/>
		<path fill="#999999" stroke="#999999" stroke-miterlimit="10" d="M1457.5,243.25c0,4.556-4.985,8.25-11.734,8.25h-67.396
			c-6.75,0-12.87-3.694-12.87-8.25v-0.5c0-4.556,6.12-8.25,12.87-8.25h67.396c6.749,0,11.734,3.694,11.734,8.25V243.25z"/>
		<rect x="1446.5" y="247.5" fill="#999999" stroke="#999999" stroke-miterlimit="10" width="6" height="17"/>
		<path fill="#FFFFFF" stroke="#808080" stroke-width="5" stroke-miterlimit="10" d="M949.5,228.5V143c0,0,2.028-15.5,25.604-15.5
			c23.574,0,286.649,0,308.684,0c22.033,0,18.713,16.167,18.713,16.167V228.5H949.5z"/>
		<circle fill="#FFFFFF" stroke="#808080" stroke-width="5" stroke-miterlimit="10" cx="1005.362" cy="177.748" r="33.748"/>
		<circle fill="#FFFFFF" stroke="#808080" stroke-width="5" stroke-miterlimit="10" cx="1087.362" cy="177.748" r="33.748"/>
		<circle fill="#FFFFFF" stroke="#808080" stroke-width="5" stroke-miterlimit="10" cx="1169.362" cy="177.748" r="33.748"/>
		<circle fill="#FFFFFF" stroke="#808080" stroke-width="5" stroke-miterlimit="10" cx="1251.362" cy="177.748" r="33.748"/>
		<line fill="none" stroke="#999999" stroke-miterlimit="10" x1="1005.362" y1="177.748" x2="989.129" y2="193.982"/>
		
			<line fill="none" stroke="#999999" stroke-linecap="round" stroke-miterlimit="10" x1="1005.362" y1="177.748" x2="1021.298" y2="161.813"/>
		<polygon fill="#999999" stroke="#999999" stroke-miterlimit="10" points="993.627,192.918 987.299,195.782 990.163,189.454 		"/>
		<circle fill="none" stroke="#999999" stroke-miterlimit="10" cx="1005.423" cy="177.688" r="27.813"/>
		<circle fill="#666666" stroke="#666666" stroke-miterlimit="10" cx="1005.362" cy="177.748" r="1.791"/>
		<line fill="none" stroke="#999999" stroke-miterlimit="10" x1="1087.362" y1="177.748" x2="1071.129" y2="193.982"/>
		
			<line fill="none" stroke="#999999" stroke-linecap="round" stroke-miterlimit="10" x1="1087.362" y1="177.748" x2="1103.298" y2="161.813"/>
		<polygon fill="#999999" stroke="#999999" stroke-miterlimit="10" points="1075.627,192.918 1069.299,195.782 1072.163,189.454 		
			"/>
		<circle fill="none" stroke="#999999" stroke-miterlimit="10" cx="1087.423" cy="177.688" r="27.813"/>
		<circle fill="#666666" stroke="#666666" stroke-miterlimit="10" cx="1087.362" cy="177.748" r="1.791"/>
		<line fill="none" stroke="#999999" stroke-miterlimit="10" x1="1169.362" y1="177.748" x2="1153.129" y2="193.982"/>
		
			<line fill="none" stroke="#999999" stroke-linecap="round" stroke-miterlimit="10" x1="1169.362" y1="177.748" x2="1185.298" y2="161.813"/>
		<polygon fill="#999999" stroke="#999999" stroke-miterlimit="10" points="1157.627,192.918 1151.299,195.782 1154.163,189.454 		
			"/>
		<circle fill="none" stroke="#999999" stroke-miterlimit="10" cx="1169.423" cy="177.688" r="27.813"/>
		<circle fill="#666666" stroke="#666666" stroke-miterlimit="10" cx="1169.362" cy="177.748" r="1.791"/>
		<line fill="none" stroke="#999999" stroke-miterlimit="10" x1="1251.362" y1="177.748" x2="1235.129" y2="193.982"/>
		
			<line fill="none" stroke="#999999" stroke-linecap="round" stroke-miterlimit="10" x1="1251.362" y1="177.748" x2="1267.298" y2="161.813"/>
		<polygon fill="#999999" stroke="#999999" stroke-miterlimit="10" points="1239.627,192.918 1233.299,195.782 1236.163,189.454 		
			"/>
		<circle fill="none" stroke="#999999" stroke-miterlimit="10" cx="1251.423" cy="177.688" r="27.813"/>
		<circle fill="#666666" stroke="#666666" stroke-miterlimit="10" cx="1251.362" cy="177.748" r="1.791"/>
		<rect x="1072.5" y="227.5" fill="#999999" stroke="#999999" stroke-miterlimit="10" width="249" height="33"/>
		<g>
			<path fill="#999999" stroke="#999999" stroke-miterlimit="10" d="M229.5,249.5h-40.095c-0.67-1.66-1.905-3.04-3.905-3.92V170.5
				h-15v75.08c-1,0.34-0.928,0.77-1.418,1.26c-0.75,0.75-1.106,1.66-1.517,2.66H105.5v6h62.065c0.67,1.66,0.935,3.04,2.935,3.92
				V387.5h15V259.42c2-0.88,3.235-2.26,3.905-3.92H229.5V249.5z"/>
			<polygon fill="#999999" stroke="#999999" stroke-miterlimit="10" points="331.5,226.5 331.5,260.5 1072.5,260.5 1072.5,227.732 
							"/>
		</g>
		<rect x="1342.5" y="284.5" fill="#999999" stroke="#999999" stroke-miterlimit="10" width="15" height="103"/>
		<rect x="66.5" y="385.5" fill="#808080" stroke="#808080" stroke-miterlimit="10" width="1565" height="408"/>
		<path fill="#999999" stroke="#999999" stroke-miterlimit="10" d="M865.5,197.87v0.26c0,2.5-2,4.59-4,5.19v23.18h-6v-23.18
			c-2-0.39-2.284-1.44-2.954-2.82h-147.74c-0.99,1.22-2.5,2-4.19,2h-3.26c-2.97,0-5.855-2.4-5.855-5.37v-0.26c0-2.5,2-4.59,4-5.19
			v-78.36c-2-0.39-2.284-1.44-2.954-2.82H535.5v-6h157.665c0.99-1.22,2.5-2,4.19-2h3.26c2.97,0,4.885,2.4,4.885,5.37v0.26
			c0,2.5-2,4.59-4,5.19v78.36c2,0.39,3.255,1.44,3.925,2.82h147.74c0.99-1.22,2.5-2,4.19-2h3.26
			C863.585,192.5,865.5,194.9,865.5,197.87z"/>
		<path fill="#999999" stroke="#999999" stroke-miterlimit="10" d="M170.5,130.5H82.806c-0.99-1.22-2.5-2-4.19-2h-3.26
			c-2.97,0-5.855,2.4-5.855,5.37v0.26c0,2.5,2,4.59,4,5.19v79.18h6v-79.18c2-0.39,3.255-1.44,3.925-2.82H170.5V130.5z"/>
		<rect x="0.5" y="793.5" fill="#333333" stroke="#333333" stroke-miterlimit="10" width="1698" height="32"/>
		<rect x="1342.5" y="208.5" fill="#999999" stroke="#999999" stroke-miterlimit="10" width="15" height="11"/>
		<rect x="1328.5" y="278.5" fill="#999999" stroke="#999999" stroke-miterlimit="10" width="43" height="6"/>
		<path fill="#808080" stroke="#808080" stroke-miterlimit="10" d="M1379.5,270.268c0,4.547-3.686,8.232-8.232,8.232h-42.535
			c-4.547,0-8.232-3.686-8.232-8.232v-42.535c0-4.547,3.686-8.232,8.232-8.232h42.535c4.547,0,8.232,3.686,8.232,8.232V270.268z"/>
		<circle fill="#C8C8C8" stroke="#C8C8C8" stroke-miterlimit="10" cx="1350.985" cy="248.5" r="20.924"/>
		<rect x="1332.5" y="107.5" fill="#999999" stroke="#999999" stroke-miterlimit="10" width="34" height="101"/>
		<rect x="1339.5" y="102.5" fill="#999999" stroke="#999999" stroke-miterlimit="10" width="19" height="5"/>
		<path fill="#999999" stroke="#999999" stroke-miterlimit="10" d="M388.5,238.5c0-6.627-6.709-12-15.578-12H213.661
			c-8.87,0-17.161,5.373-17.161,12v10c0,6.627,8.291,12,17.161,12h159.261c8.869,0,15.578-5.373,15.578-12V238.5z"/>
		<rect x="198.5" y="104.5" fill="#999999" stroke="#999999" stroke-miterlimit="10" width="337" height="6"/>
		<rect x="275.5" y="730.5" fill="#999999" stroke="#999999" stroke-miterlimit="10" width="408" height="59"/>
		<rect x="275.5" y="607.5" fill="#999999" stroke="#999999" stroke-miterlimit="10" width="226" height="99"/>
		<rect x="275.5" y="712.5" fill="#999999" stroke="#999999" stroke-miterlimit="10" width="461" height="13"/>
		<rect x="683.5" y="635.5" fill="#999999" stroke="#999999" stroke-miterlimit="10" width="37" height="77"/>
		<path fill="#999999" stroke="#999999" stroke-miterlimit="10" d="M765.485,577.51c-0.43,0.391-0.95,0.63-1.49,0.721
			c-0.279,7.5-1.82,14.67-4.41,21.319c0.41,0.16,0.791,0.42,1.11,0.771c1.09,1.22,1,3.09-0.21,4.189c-0.93,0.84-2.24,0.99-3.3,0.471
			c-3.21,6.46-7.44,12.31-12.479,17.35c1.079,1.22,0.989,3.08-0.221,4.18c-1.21,1.09-3.07,1.01-4.17-0.18
			c-11.46,9.57-26.21,15.33-42.301,15.33c-36.469,0-66.059-29.561-66.059-66.03c0-17.12,6.529-32.729,17.229-44.46
			c-0.979-1.21-0.86-3,0.31-4.06c1.1-0.99,2.74-1.011,3.85-0.12c4.91-4.51,10.5-8.29,16.601-11.15
			c-0.71-1.189-0.521-2.76,0.55-3.729c1.221-1.101,3.1-1,4.2,0.21c0.33,0.37,0.316,0.81,0.418,1.26
			c6.17-2.26,12.387-3.61,19.387-3.92v-0.07c0-1.63,1.359-2.96,3-2.96s3,1.33,3,2.96v0.07c7,0.29,13.072,1.53,18.982,3.59
			c0.16-0.42,0.542-0.81,0.892-1.14c1.221-1.101,3.16-1,4.261,0.21c0.79,0.88,0.99,2.109,0.561,3.13
			c6.43,2.899,12.324,6.81,17.455,11.52c1.221-0.95,2.987-0.81,4.037,0.351c0.979,1.1,1.015,2.72,0.124,3.83
			c4.199,4.59,7.752,9.779,10.521,15.42c1.131-0.471,2.491-0.21,3.361,0.75c1.09,1.22,1.001,3.09-0.21,4.189
			c-0.24,0.21-0.499,0.38-0.778,0.5c2.439,6.38,3.93,13.23,4.27,20.38c0.64,0.101,1.25,0.41,1.72,0.931
			C766.785,574.54,766.695,576.41,765.485,577.51z"/>
		<circle fill="#999999" stroke="#999999" stroke-miterlimit="10" cx="1295.481" cy="513.312" r="2.967"/>
		<path fill="#666666" stroke="#666666" stroke-miterlimit="10" d="M750.985,571.62c0,15.16-7.76,28.51-19.529,36.3l-0.021,0.021
			L581.335,711.15c-17.76,14.59-40.5,23.34-65.279,23.34c-56.85,0-102.94-46.09-102.94-102.94
			c0-56.85,46.091-102.939,102.94-102.939l191.43-0.49C731.505,528.12,750.985,547.59,750.985,571.62z"/>
		<path fill="#E6E6E6" stroke="#E6E6E6" stroke-width="5" stroke-miterlimit="10" d="M736.93,574.586
			c0,13.899-7.114,26.138-17.904,33.279l-0.019,0.02l-137.612,94.623c-16.282,13.376-37.13,21.397-59.848,21.397
			c-52.12,0-94.376-42.256-94.376-94.375c0-52.121,42.256-94.376,94.376-94.376l175.502-0.449
			C719.069,534.705,736.93,552.556,736.93,574.586z"/>
		<rect x="275.5" y="385.5" fill="#999999" stroke="#999999" stroke-miterlimit="10" width="11" height="80"/>
		<rect x="275.5" y="465.5" fill="#999999" stroke="#999999" stroke-miterlimit="10" width="11" height="142"/>
		<rect x="275.5" y="454.5" fill="#999999" stroke="#999999" stroke-miterlimit="10" width="1028" height="11"/>
		<path fill="#999999" stroke="#999999" stroke-miterlimit="10" d="M294.985,458.5c0,5.522-4.735,10-10.577,10h-3.846
			c-5.842,0-10.577-4.478-10.577-10l0,0c0-5.522,4.735-10,10.577-10h3.846C290.25,448.5,294.985,452.978,294.985,458.5
			L294.985,458.5z"/>
		<path fill="#999999" stroke="#999999" stroke-width="5" stroke-miterlimit="10" d="M1211.5,460.44v94.119
			c0,5.49-3.965,9.94-9.455,9.94h-117.119c-5.49,0-10.426-4.45-10.426-9.94V460.44c0-5.49,4.936-9.94,10.426-9.94h43.3
			c-3.11,1.57-5.24,4.78-5.24,8.5c0.04,3.42,5.88,8.79,9.5,9.5c7.13,2.54,14.92,2.29,21,0c5.96-2.83,9.5-7,9.5-9.5
			c0-3.72-2.13-6.93-5.24-8.5h44.3C1207.535,450.5,1211.5,454.95,1211.5,460.44z"/>
		<path fill="#808080" stroke="#808080" stroke-width="5" stroke-miterlimit="10" d="M1200.5,547.146
			c0,4.614-3.74,8.354-8.354,8.354h-98.291c-4.614,0-8.354-3.74-8.354-8.354v-79.291c0-4.614,3.74-8.354,8.354-8.354h98.291
			c4.614,0,8.354,3.74,8.354,8.354V547.146z"/>
		<rect x="1136.5" y="469.5" fill="#999999" stroke="#999999" stroke-miterlimit="10" width="12" height="170"/>
		<rect x="1098.5" y="481.5" fill="#C8C8C8" stroke="#C8C8C8" stroke-width="5" stroke-miterlimit="10" width="88" height="72"/>
		<rect x="1140.5" y="481.5" fill="#808080" stroke="#808080" stroke-miterlimit="10" width="5" height="72"/>
		<rect x="1180.5" y="481.5" fill="#808080" stroke="#808080" stroke-miterlimit="10" width="4" height="72"/>
		<rect x="1100.5" y="481.5" fill="#808080" stroke="#808080" stroke-miterlimit="10" width="4" height="72"/>
		<path fill="#999999" stroke="#999999" stroke-width="5" stroke-miterlimit="10" d="M1162.985,459c0,2.5-3.54,6.67-9.5,9.5
			c-6.08,2.29-13.87,2.54-21,0c-3.62-0.71-9.46-6.08-9.5-9.5c0-3.72,1.888-6.93,4.997-8.5c1.141-0.57,2.518-0.92,3.518-0.99v-7.01
			c0-6.08,5.162-11,11.242-11c3.041,0,5.669,1.23,7.659,3.22c1.989,1.99,3.099,4.74,3.099,7.78v7.01c1,0.07,2.863,0.42,4.002,0.99
			C1160.613,452.07,1162.985,455.28,1162.985,459z"/>
		<rect x="1116" y="570" fill="none" stroke="#999999" stroke-width="8" stroke-miterlimit="10" width="53" height="25"/>
		<path fill="#999999" stroke="#999999" stroke-miterlimit="10" d="M1174.5,598.23v3.27h4v22h-12v13h6v6h-6v7h-4v-7h-2.875
			c-0.88,4.19-4.125,7.81-7.125,10.24V789.5h-20V652.74c-3-2.04-4.465-4.9-5.604-8.24h-4.396v5h-4v-5h-84.725
			c-1.62,1.84-3.99,3-6.64,3h-3.301c-4.89,0-9.335-3.96-9.335-8.85v-0.301c0-3.51,2-6.54,5-7.97V460.5h11v169.88
			c1,0.7,3.165,1.78,4.035,3.12h83.965v-10h-12v-22h4v-3.27c-2-0.74-4-2.91-4-5.48v-10.5c0-3.18,3.056-5.75,6.235-5.75h0.5
			c3.18,0,5.265,2.57,5.265,5.75v10.5c0,2.57-2,4.74-4,5.48v3.27h4v11h4v21h4.405c2.271-6.69,8.62-11.5,16.08-11.5
			c8.54,0,15.61,6.3,16.81,14.5h2.705v-24h4v-11h4v-3.27c-2-0.74-4-2.91-4-5.48v-10.5c0-3.18,3.056-5.75,6.235-5.75h0.5
			c3.18,0,5.265,2.57,5.265,5.75v10.5C1178.5,595.32,1176.5,597.49,1174.5,598.23z"/>
		<path fill="#999999" stroke="#999999" stroke-width="5" stroke-miterlimit="10" d="M1420.5,460.44v94.119
			c0,5.49-3.965,9.94-9.455,9.94h-117.119c-5.49,0-10.426-4.45-10.426-9.94V460.44c0-5.49,4.936-9.94,10.426-9.94h43.3
			c-3.11,1.57-5.24,4.78-5.24,8.5c0.04,3.42,5.88,8.79,9.5,9.5c7.13,2.54,14.92,2.29,21,0c5.96-2.83,9.5-7,9.5-9.5
			c0-3.72-2.13-6.93-5.24-8.5h44.3C1416.535,450.5,1420.5,454.95,1420.5,460.44z"/>
		<path fill="#808080" stroke="#808080" stroke-width="5" stroke-miterlimit="10" d="M1409.5,547.146
			c0,4.614-3.74,8.354-8.354,8.354h-98.291c-4.614,0-8.354-3.74-8.354-8.354v-79.291c0-4.614,3.74-8.354,8.354-8.354h98.291
			c4.614,0,8.354,3.74,8.354,8.354V547.146z"/>
		<rect x="1345.5" y="469.5" fill="#999999" stroke="#999999" stroke-miterlimit="10" width="12" height="170"/>
		<rect x="1307.5" y="481.5" fill="#C8C8C8" stroke="#C8C8C8" stroke-width="5" stroke-miterlimit="10" width="88" height="72"/>
		<rect x="1349.5" y="481.5" fill="#808080" stroke="#808080" stroke-miterlimit="10" width="5" height="72"/>
		<rect x="1389.5" y="481.5" fill="#808080" stroke="#808080" stroke-miterlimit="10" width="4" height="72"/>
		<rect x="1309.5" y="481.5" fill="#808080" stroke="#808080" stroke-miterlimit="10" width="4" height="72"/>
		<path fill="#999999" stroke="#999999" stroke-width="5" stroke-miterlimit="10" d="M1371.985,459c0,2.5-3.54,6.67-9.5,9.5
			c-6.08,2.29-13.87,2.54-21,0c-3.62-0.71-9.46-6.08-9.5-9.5c0-3.72,1.888-6.93,4.997-8.5c1.141-0.57,2.518-0.92,3.518-0.99v-7.01
			c0-6.08,5.162-11,11.242-11c3.041,0,5.669,1.23,7.659,3.22c1.989,1.99,3.099,4.74,3.099,7.78v7.01c1,0.07,2.863,0.42,4.002,0.99
			C1369.613,452.07,1371.985,455.28,1371.985,459z"/>
		<rect x="1325" y="570" fill="none" stroke="#999999" stroke-width="8" stroke-miterlimit="10" width="53" height="25"/>
		<path fill="#999999" stroke="#999999" stroke-miterlimit="10" d="M1383.5,598.23v3.27h4v22h-12v13h6v6h-6v7h-4v-7h-2.875
			c-0.88,4.19-4.125,7.81-7.125,10.24V789.5h-20V652.74c-3-2.04-4.465-4.9-5.604-8.24h-4.396v5h-4v-5h-84.725
			c-1.62,1.84-3.99,3-6.64,3h-3.301c-4.89,0-9.335-3.96-9.335-8.85v-0.301c0-3.51,2-6.54,5-7.97V460.5h11v169.88
			c1,0.7,3.165,1.78,4.035,3.12h83.965v-10h-12v-22h4v-3.27c-2-0.74-4-2.91-4-5.48v-10.5c0-3.18,3.056-5.75,6.235-5.75h0.5
			c3.18,0,5.265,2.57,5.265,5.75v10.5c0,2.57-2,4.74-4,5.48v3.27h4v11h4v21h4.405c2.271-6.69,8.62-11.5,16.08-11.5
			c8.54,0,15.61,6.3,16.81,14.5h2.705v-24h4v-11h4v-3.27c-2-0.74-4-2.91-4-5.48v-10.5c0-3.18,3.056-5.75,6.235-5.75h0.5
			c3.18,0,5.265,2.57,5.265,5.75v10.5C1387.5,595.32,1385.5,597.49,1383.5,598.23z"/>
		<path fill="#999999" stroke="#999999" stroke-miterlimit="10" d="M1542.5,418.917c0-1.887-0.879-3.417-2.41-3.417h-397.146
			c-1.531,0-3.444,1.53-3.444,3.417v0.166c0,1.887,1.913,3.417,3.444,3.417h397.146c1.531,0,2.41-1.53,2.41-3.417V418.917z"/>
		<line fill="none" stroke="#999999" stroke-width="5" stroke-miterlimit="10" x1="1142.5" y1="432" x2="1142.5" y2="418"/>
		<line fill="none" stroke="#999999" stroke-width="5" stroke-miterlimit="10" x1="1351.5" y1="432" x2="1351.5" y2="419"/>
		<path fill="#999999" stroke="#999999" stroke-miterlimit="10" d="M1543.5,614.348c0,3.121-1.567,5.652-3.5,5.652l0,0
			c-1.933,0-3.5-2.531-3.5-5.652V421.152c0-3.121,1.567-5.652,3.5-5.652l0,0c1.933,0,3.5,2.531,3.5,5.652V614.348z"/>
		<rect x="1571.5" y="440.5" fill="#999999" stroke="#999999" stroke-miterlimit="10" width="12" height="10"/>
		<rect x="1547.5" y="425.5" fill="#999999" stroke="#999999" stroke-miterlimit="10" width="4" height="37"/>
		<rect x="1547.5" y="425.5" fill="#999999" stroke="#999999" stroke-miterlimit="10" width="32" height="4"/>
		<rect x="1575.5" y="425.5" fill="#999999" stroke="#999999" stroke-miterlimit="10" width="4" height="19"/>
		<path fill="#999999" stroke="#999999" stroke-miterlimit="10" d="M1596.5,607.5v26c0,6.63-4.885,12-11.515,12h-1.485v144h-12v-144
			c-7,0-12-5.37-12-12v-26c0-4.85,3-9.02,7-10.92V450.5h22v145.69C1593.5,597.83,1596.5,602.27,1596.5,607.5z"/>
		<path fill="#999999" stroke="#999999" stroke-miterlimit="10" d="M1588.044,613.5c0.796,0,1.441,1.567,1.441,3.5l0,0
			c0,1.933-0.646,3.5-1.441,3.5h-49.243c-0.795,0-1.44-1.567-1.44-3.5l0,0c0-1.933,0.646-3.5,1.44-3.5H1588.044z"/>
		<path fill="#999999" stroke="#999999" stroke-miterlimit="10" d="M1548.5,616.5c0,3.313-2.687,6-6,6h-4c-3.313,0-6-2.687-6-6l0,0
			c0-3.313,2.687-6,6-6h4C1545.813,610.5,1548.5,613.187,1548.5,616.5L1548.5,616.5z"/>
		<rect x="1119.5" y="789.5" fill="#333333" stroke="#333333" stroke-miterlimit="10" width="47" height="4"/>
		<rect x="1328.5" y="789.5" fill="#333333" stroke="#333333" stroke-miterlimit="10" width="47" height="4"/>
		<rect x="1554.5" y="789.5" fill="#333333" stroke="#333333" stroke-miterlimit="10" width="47" height="4"/>
		<rect x="264.5" y="789.5" fill="#333333" stroke="#333333" stroke-miterlimit="10" width="431" height="4"/>
		<rect x="1349.5" y="462.5" fill="#999999" stroke="#999999" stroke-miterlimit="10" width="202" height="6"/>
		<g>
			<path fill="#808080" stroke="#808080" stroke-miterlimit="10" d="M160.5,107.009c0,9.976,0,28.592,0,37.055
				c0,7.66,5.05,6.436,7.973,6.436c8.001,0,85.878,0,85.878,0c2.349-1,2.783-3.132,2.789-4.287c0-6.592-3.377-7.488-3.377-7.488
				l-85.29-34.207c0,0-4.201-2.035-6.115-2.317C160.816,102.201,160.5,103.984,160.5,107.009z"/>
			<path fill="#E6E6E6" stroke="#999999" stroke-width="0.25" stroke-miterlimit="10" d="M178.183,115.141
				c0,0,3.848-0.019,6.49-0.019s2.814,3.384,3.967,5.794c1.22,2.287,3.601,1.696,6.508,0c2.418-1.689,13.474-10.216,13.474-10.216
				s2.196-2.033,0.011-5.286C197.298,92.099,178.183,92.2,178.183,92.2s-19.18-0.102-30.514,13.214
				c-2.186,3.252,0.018,5.286,0.018,5.286s11.059,8.527,13.477,10.216c2.908,1.696,5.291,2.287,6.51,0
				c1.152-2.41,1.326-5.794,3.969-5.794S178.183,115.141,178.183,115.141z"/>
			<rect x="174.5" y="147.5" fill="#808080" stroke="#808080" stroke-miterlimit="10" width="7" height="23"/>
			<circle fill="#999999" stroke="#999999" stroke-width="0.25" stroke-miterlimit="10" cx="178.151" cy="133.342" r="13.846"/>
			<rect x="207.5" y="134.5" fill="#999999" stroke="#999999" stroke-miterlimit="10" width="44" height="20"/>
			<rect x="220.5" y="136.5" fill="#C8C8C8" stroke="#C8C8C8" stroke-miterlimit="10" width="23" height="2"/>
			<rect x="220.5" y="150.5" fill="#C8C8C8" stroke="#C8C8C8" stroke-miterlimit="10" width="23" height="2"/>
			<rect x="215.5" y="131.5" fill="#C8C8C8" stroke="#999999" stroke-miterlimit="10" width="5" height="27"/>
			<rect x="243.5" y="131.5" fill="#C8C8C8" stroke="#999999" stroke-miterlimit="10" width="5" height="27"/>
			<rect x="213.5" y="135.5" fill="#C8C8C8" stroke="#C8C8C8" stroke-miterlimit="10" width="1" height="4"/>
			<rect x="249.5" y="135.5" fill="#C8C8C8" stroke="#C8C8C8" stroke-miterlimit="10" width="1" height="4"/>
			<path fill="#999999" stroke="#999999" stroke-miterlimit="10" d="M262.211,144.702c0,3.284-2.662,5.949-5.946,5.949
				c-0.461,0-0.906-0.15-1.336-0.15H251.5v-12h3.429c0.43,0,0.875,0.052,1.336,0.052
				C259.549,138.552,262.211,141.417,262.211,144.702z"/>
			<path fill="#C8C8C8" stroke="#C8C8C8" stroke-miterlimit="10" d="M206.5,142.5v5h-30.901c-3.133,0-5.765,0.336-6.555,0.62
				c-0.157,0.058-0.242,0.182-0.242,0.243c-0.652,0.442-1.439,0.73-2.286,0.73c-2.265,0-4.099-1.827-4.099-4.101
				c0-2.275,1.834-4.109,4.099-4.109c0.847,0,1.634,0.26,2.286,0.703c0,0.061,0.082,0.243,0.24,0.297
				c0.792,0.287,3.448,0.618,6.605,0.618H206.5z"/>
			<polygon fill="#333333" stroke="#333333" stroke-width="0.25" stroke-miterlimit="10" points="172.297,146.25 216.78,101.422 
				209.997,94.585 165.514,139.414 161.513,150.282 			"/>
			<path fill="#C1272D" stroke="#C1272D" stroke-miterlimit="10" d="M245.197,66.343c2.799,2.799,3.058,7.078,0.577,9.558
				l-27.323,27.324l-10.135-10.135l27.323-27.324C238.12,63.286,242.398,63.544,245.197,66.343z"/>
			<circle fill="#C8C8C8" stroke="#C8C8C8" stroke-width="0.25" stroke-miterlimit="10" cx="178.151" cy="133.342" r="3.02"/>
			<circle fill="#C8C8C8" stroke="#C8C8C8" stroke-width="0.25" stroke-miterlimit="10" cx="164.247" cy="117.942" r="3.049"/>
			<circle fill="#C8C8C8" stroke="#C8C8C8" stroke-width="0.25" stroke-miterlimit="10" cx="256.951" cy="144.702" r="2.973"/>
			<circle fill="#C8C8C8" stroke="#C8C8C8" stroke-width="0.25" stroke-miterlimit="10" cx="166.61" cy="145.007" r="2.439"/>
			<rect x="213.5" y="149.5" fill="#C8C8C8" stroke="#C8C8C8" stroke-miterlimit="10" width="1" height="4"/>
			<rect x="249.5" y="149.5" fill="#C8C8C8" stroke="#C8C8C8" stroke-miterlimit="10" width="1" height="4"/>
		</g>
		<g>
			<path fill="#808080" stroke="#808080" stroke-miterlimit="10" d="M651.5,324.01c0,9.976,0,28.592,0,37.055
				c0,7.66,5.05,6.436,7.973,6.436c8.001,0,85.878,0,85.878,0c2.349-1,2.783-3.132,2.789-4.287c0-6.592-3.377-7.488-3.377-7.488
				l-85.29-34.207c0,0-4.201-2.034-6.115-2.316C651.816,319.201,651.5,320.984,651.5,324.01z"/>
			<path fill="#E6E6E6" stroke="#999999" stroke-width="0.25" stroke-miterlimit="10" d="M669.183,332.141
				c0,0,3.848-0.019,6.49-0.019s2.814,3.384,3.967,5.794c1.22,2.287,3.601,1.695,6.508,0c2.418-1.689,13.474-10.216,13.474-10.216
				s2.196-2.033,0.011-5.286c-11.334-13.315-30.449-13.214-30.449-13.214s-19.18-0.102-30.514,13.214
				c-2.186,3.253,0.018,5.286,0.018,5.286s11.059,8.526,13.477,10.216c2.908,1.695,5.291,2.287,6.51,0
				c1.152-2.41,1.326-5.794,3.969-5.794S669.183,332.141,669.183,332.141z"/>
			<rect x="665.5" y="364.5" fill="#808080" stroke="#808080" stroke-miterlimit="10" width="7" height="23"/>
			<circle fill="#999999" stroke="#999999" stroke-width="0.25" stroke-miterlimit="10" cx="669.151" cy="350.342" r="13.846"/>
			<rect x="698.5" y="351.5" fill="#999999" stroke="#999999" stroke-miterlimit="10" width="44" height="20"/>
			<rect x="711.5" y="353.5" fill="#C8C8C8" stroke="#C8C8C8" stroke-miterlimit="10" width="23" height="2"/>
			<rect x="711.5" y="367.5" fill="#C8C8C8" stroke="#C8C8C8" stroke-miterlimit="10" width="23" height="2"/>
			<rect x="706.5" y="348.5" fill="#C8C8C8" stroke="#999999" stroke-miterlimit="10" width="5" height="27"/>
			<rect x="734.5" y="348.5" fill="#C8C8C8" stroke="#999999" stroke-miterlimit="10" width="5" height="27"/>
			<rect x="704.5" y="352.5" fill="#C8C8C8" stroke="#C8C8C8" stroke-miterlimit="10" width="1" height="4"/>
			<rect x="740.5" y="352.5" fill="#C8C8C8" stroke="#C8C8C8" stroke-miterlimit="10" width="1" height="4"/>
			<path fill="#999999" stroke="#999999" stroke-miterlimit="10" d="M753.211,361.701c0,3.285-2.662,5.949-5.946,5.949
				c-0.461,0-0.906-0.15-1.336-0.15H742.5v-12h3.429c0.43,0,0.875,0.052,1.336,0.052
				C750.549,355.552,753.211,358.418,753.211,361.701z"/>
			<path fill="#C8C8C8" stroke="#C8C8C8" stroke-miterlimit="10" d="M697.5,359.5v5h-30.901c-3.133,0-5.765,0.336-6.555,0.619
				c-0.157,0.059-0.242,0.183-0.242,0.243c-0.652,0.442-1.439,0.729-2.286,0.729c-2.265,0-4.099-1.826-4.099-4.101
				s1.834-4.109,4.099-4.109c0.847,0,1.634,0.261,2.286,0.702c0,0.062,0.082,0.243,0.24,0.298c0.792,0.287,3.448,0.618,6.605,0.618
				H697.5z"/>
			<polygon fill="#333333" stroke="#333333" stroke-width="0.25" stroke-miterlimit="10" points="663.297,363.25 707.78,318.422 
				700.997,311.586 656.514,356.414 652.513,367.281 			"/>
			<path fill="#C1272D" stroke="#C1272D" stroke-width="0.25" stroke-miterlimit="10" d="M736.197,283.343
				c2.799,2.799,3.058,7.077,0.577,9.558l-27.323,27.324l-10.135-10.135l27.323-27.324
				C729.12,280.286,733.398,280.544,736.197,283.343z"/>
			<circle fill="#C8C8C8" stroke="#C8C8C8" stroke-width="0.25" stroke-miterlimit="10" cx="669.151" cy="350.342" r="3.02"/>
			<circle fill="#C8C8C8" stroke="#C8C8C8" stroke-width="0.25" stroke-miterlimit="10" cx="655.247" cy="334.942" r="3.049"/>
			<circle fill="#C8C8C8" stroke="#C8C8C8" stroke-width="0.25" stroke-miterlimit="10" cx="747.951" cy="361.701" r="2.973"/>
			<circle fill="#C8C8C8" stroke="#C8C8C8" stroke-width="0.25" stroke-miterlimit="10" cx="657.61" cy="362.007" r="2.439"/>
			<rect x="704.5" y="366.5" fill="#C8C8C8" stroke="#C8C8C8" stroke-miterlimit="10" width="1" height="4"/>
			<rect x="740.5" y="366.5" fill="#C8C8C8" stroke="#C8C8C8" stroke-miterlimit="10" width="1" height="4"/>
			<rect x="645.5" y="380.5" fill="#333333" stroke="#333333" stroke-miterlimit="10" width="47" height="4"/>
		</g>
		<g>
			<path fill="#808080" stroke="#808080" stroke-miterlimit="10" d="M807.5,324.01c0,9.976,0,28.592,0,37.055
				c0,7.66,5.05,6.436,7.973,6.436c8.001,0,85.878,0,85.878,0c2.349-1,2.783-3.132,2.789-4.287c0-6.592-3.377-7.488-3.377-7.488
				l-85.29-34.207c0,0-4.201-2.034-6.115-2.316C807.816,319.201,807.5,320.984,807.5,324.01z"/>
			<path fill="#E6E6E6" stroke="#999999" stroke-width="0.25" stroke-miterlimit="10" d="M825.183,332.141
				c0,0,3.848-0.019,6.49-0.019s2.814,3.384,3.967,5.794c1.22,2.287,3.601,1.695,6.508,0c2.418-1.689,13.474-10.216,13.474-10.216
				s2.196-2.033,0.011-5.286c-11.334-13.315-30.449-13.214-30.449-13.214s-19.18-0.102-30.514,13.214
				c-2.186,3.253,0.018,5.286,0.018,5.286s11.059,8.526,13.477,10.216c2.908,1.695,5.291,2.287,6.51,0
				c1.152-2.41,1.326-5.794,3.969-5.794S825.183,332.141,825.183,332.141z"/>
			<rect x="821.5" y="364.5" fill="#808080" stroke="#808080" stroke-miterlimit="10" width="7" height="23"/>
			<circle fill="#999999" stroke="#999999" stroke-width="0.25" stroke-miterlimit="10" cx="825.151" cy="350.342" r="13.846"/>
			<rect x="854.5" y="351.5" fill="#999999" stroke="#999999" stroke-miterlimit="10" width="44" height="20"/>
			<rect x="867.5" y="353.5" fill="#C8C8C8" stroke="#C8C8C8" stroke-miterlimit="10" width="23" height="2"/>
			<rect x="867.5" y="367.5" fill="#C8C8C8" stroke="#C8C8C8" stroke-miterlimit="10" width="23" height="2"/>
			<rect x="862.5" y="348.5" fill="#C8C8C8" stroke="#999999" stroke-miterlimit="10" width="5" height="27"/>
			<rect x="890.5" y="348.5" fill="#C8C8C8" stroke="#999999" stroke-miterlimit="10" width="5" height="27"/>
			<rect x="860.5" y="352.5" fill="#C8C8C8" stroke="#C8C8C8" stroke-miterlimit="10" width="1" height="4"/>
			<rect x="896.5" y="352.5" fill="#C8C8C8" stroke="#C8C8C8" stroke-miterlimit="10" width="1" height="4"/>
			<path fill="#999999" stroke="#999999" stroke-miterlimit="10" d="M909.211,361.701c0,3.285-2.662,5.949-5.946,5.949
				c-0.461,0-0.906-0.15-1.336-0.15H898.5v-12h3.429c0.43,0,0.875,0.052,1.336,0.052
				C906.549,355.552,909.211,358.418,909.211,361.701z"/>
			<path fill="#C8C8C8" stroke="#C8C8C8" stroke-miterlimit="10" d="M853.5,359.5v5h-30.901c-3.133,0-5.765,0.336-6.555,0.619
				c-0.157,0.059-0.242,0.183-0.242,0.243c-0.652,0.442-1.439,0.729-2.286,0.729c-2.265,0-4.099-1.826-4.099-4.101
				s1.834-4.109,4.099-4.109c0.847,0,1.634,0.261,2.286,0.702c0,0.062,0.082,0.243,0.24,0.298c0.792,0.287,3.448,0.618,6.605,0.618
				H853.5z"/>
			<polygon fill="#333333" stroke="#333333" stroke-width="0.25" stroke-miterlimit="10" points="819.297,363.25 863.78,318.422 
				856.997,311.586 812.514,356.414 808.513,367.281 			"/>
			<path fill="#C1272D" stroke="#C1272D" stroke-width="0.25" stroke-miterlimit="10" d="M892.197,283.343
				c2.799,2.799,3.058,7.077,0.577,9.558l-27.323,27.324l-10.135-10.135l27.323-27.324
				C885.12,280.286,889.398,280.544,892.197,283.343z"/>
			<circle fill="#C8C8C8" stroke="#C8C8C8" stroke-width="0.25" stroke-miterlimit="10" cx="825.151" cy="350.342" r="3.02"/>
			<circle fill="#C8C8C8" stroke="#C8C8C8" stroke-width="0.25" stroke-miterlimit="10" cx="811.247" cy="334.942" r="3.049"/>
			<circle fill="#C8C8C8" stroke="#C8C8C8" stroke-width="0.25" stroke-miterlimit="10" cx="903.951" cy="361.701" r="2.973"/>
			<circle fill="#C8C8C8" stroke="#C8C8C8" stroke-width="0.25" stroke-miterlimit="10" cx="813.61" cy="362.007" r="2.439"/>
			<rect x="860.5" y="366.5" fill="#C8C8C8" stroke="#C8C8C8" stroke-miterlimit="10" width="1" height="4"/>
			<rect x="896.5" y="366.5" fill="#C8C8C8" stroke="#C8C8C8" stroke-miterlimit="10" width="1" height="4"/>
			<rect x="801.5" y="380.5" fill="#333333" stroke="#333333" stroke-miterlimit="10" width="47" height="4"/>
		</g>
		<g>
			<path fill="#808080" stroke="#808080" stroke-miterlimit="10" d="M963.5,324.01c0,9.976,0,28.592,0,37.055
				c0,7.66,5.05,6.436,7.973,6.436c8.001,0,85.878,0,85.878,0c2.349-1,2.783-3.132,2.789-4.287c0-6.592-3.377-7.488-3.377-7.488
				l-85.29-34.207c0,0-4.201-2.034-6.115-2.316C963.816,319.201,963.5,320.984,963.5,324.01z"/>
			<path fill="#E6E6E6" stroke="#999999" stroke-width="0.25" stroke-miterlimit="10" d="M981.183,332.141
				c0,0,3.848-0.019,6.49-0.019s2.814,3.384,3.967,5.794c1.22,2.287,3.601,1.695,6.508,0c2.418-1.689,13.474-10.216,13.474-10.216
				s2.196-2.033,0.011-5.286c-11.334-13.315-30.449-13.214-30.449-13.214s-19.18-0.102-30.514,13.214
				c-2.186,3.253,0.018,5.286,0.018,5.286s11.059,8.526,13.477,10.216c2.908,1.695,5.291,2.287,6.51,0
				c1.152-2.41,1.326-5.794,3.969-5.794S981.183,332.141,981.183,332.141z"/>
			<rect x="977.5" y="364.5" fill="#808080" stroke="#808080" stroke-miterlimit="10" width="7" height="23"/>
			<circle fill="#999999" stroke="#999999" stroke-width="0.25" stroke-miterlimit="10" cx="981.151" cy="350.342" r="13.846"/>
			<rect x="1010.5" y="351.5" fill="#999999" stroke="#999999" stroke-miterlimit="10" width="44" height="20"/>
			<rect x="1023.5" y="353.5" fill="#C8C8C8" stroke="#C8C8C8" stroke-miterlimit="10" width="23" height="2"/>
			<rect x="1023.5" y="367.5" fill="#C8C8C8" stroke="#C8C8C8" stroke-miterlimit="10" width="23" height="2"/>
			<rect x="1018.5" y="348.5" fill="#C8C8C8" stroke="#999999" stroke-miterlimit="10" width="5" height="27"/>
			<rect x="1046.985" y="348.5" fill="#C8C8C8" stroke="#999999" stroke-miterlimit="10" width="5" height="27"/>
			<rect x="1016.5" y="352.5" fill="#C8C8C8" stroke="#C8C8C8" stroke-miterlimit="10" width="1" height="4"/>
			<rect x="1052.5" y="352.5" fill="#C8C8C8" stroke="#C8C8C8" stroke-miterlimit="10" width="1" height="4"/>
			<path fill="#999999" stroke="#999999" stroke-miterlimit="10" d="M1065.211,361.701c0,3.285-2.662,5.949-5.946,5.949
				c-0.461,0-0.906-0.15-1.336-0.15h-3.429v-12h3.429c0.43,0,0.875,0.052,1.336,0.052
				C1062.549,355.552,1065.211,358.418,1065.211,361.701z"/>
			<path fill="#C8C8C8" stroke="#C8C8C8" stroke-miterlimit="10" d="M1009.5,359.5v5h-30.901c-3.133,0-5.765,0.336-6.555,0.619
				c-0.157,0.059-0.242,0.183-0.242,0.243c-0.652,0.442-1.439,0.729-2.286,0.729c-2.265,0-4.099-1.826-4.099-4.101
				s1.834-4.109,4.099-4.109c0.847,0,1.634,0.261,2.286,0.702c0,0.062,0.082,0.243,0.24,0.298c0.792,0.287,3.448,0.618,6.605,0.618
				H1009.5z"/>
			<polygon fill="#333333" stroke="#333333" stroke-width="0.25" stroke-miterlimit="10" points="975.297,363.25 1019.78,318.422 
				1012.997,311.586 968.514,356.414 964.513,367.281 			"/>
			<path fill="#C1272D" stroke="#C1272D" stroke-width="0.25" stroke-miterlimit="10" d="M1048.197,283.343
				c2.799,2.799,3.058,7.077,0.577,9.558l-27.323,27.324l-10.135-10.135l27.323-27.324
				C1041.12,280.286,1045.398,280.544,1048.197,283.343z"/>
			<circle fill="#C8C8C8" stroke="#C8C8C8" stroke-width="0.25" stroke-miterlimit="10" cx="981.151" cy="350.342" r="3.02"/>
			<circle fill="#C8C8C8" stroke="#C8C8C8" stroke-width="0.25" stroke-miterlimit="10" cx="967.247" cy="334.942" r="3.049"/>
			<circle fill="#C8C8C8" stroke="#C8C8C8" stroke-width="0.25" stroke-miterlimit="10" cx="1059.951" cy="361.701" r="2.973"/>
			<circle fill="#C8C8C8" stroke="#C8C8C8" stroke-width="0.25" stroke-miterlimit="10" cx="969.61" cy="362.007" r="2.439"/>
			<rect x="1016.5" y="366.5" fill="#C8C8C8" stroke="#C8C8C8" stroke-miterlimit="10" width="1" height="4"/>
			<rect x="1052.5" y="366.5" fill="#C8C8C8" stroke="#C8C8C8" stroke-miterlimit="10" width="1" height="4"/>
			<rect x="957.5" y="380.5" fill="#333333" stroke="#333333" stroke-miterlimit="10" width="47" height="4"/>
		</g>
		<g>
			<path fill="#808080" stroke="#808080" stroke-miterlimit="10" d="M1119.5,324.01c0,9.976,0,28.592,0,37.055
				c0,7.66,5.05,6.436,7.973,6.436c8.001,0,85.878,0,85.878,0c2.349-1,2.783-3.132,2.789-4.287c0-6.592-3.377-7.488-3.377-7.488
				l-85.29-34.207c0,0-4.201-2.034-6.115-2.316C1119.816,319.201,1119.5,320.984,1119.5,324.01z"/>
			<path fill="#E6E6E6" stroke="#999999" stroke-width="0.25" stroke-miterlimit="10" d="M1137.183,332.141
				c0,0,3.848-0.019,6.49-0.019s2.814,3.384,3.967,5.794c1.22,2.287,3.601,1.695,6.508,0c2.418-1.689,13.474-10.216,13.474-10.216
				s2.196-2.033,0.011-5.286c-11.334-13.315-30.449-13.214-30.449-13.214s-19.18-0.102-30.514,13.214
				c-2.186,3.253,0.018,5.286,0.018,5.286s11.059,8.526,13.477,10.216c2.908,1.695,5.291,2.287,6.51,0
				c1.152-2.41,1.326-5.794,3.969-5.794S1137.183,332.141,1137.183,332.141z"/>
			<rect x="1133.5" y="364.5" fill="#808080" stroke="#808080" stroke-miterlimit="10" width="7" height="23"/>
			<circle fill="#999999" stroke="#999999" stroke-width="0.25" stroke-miterlimit="10" cx="1137.151" cy="350.342" r="13.846"/>
			<rect x="1166.5" y="351.5" fill="#999999" stroke="#999999" stroke-miterlimit="10" width="44" height="20"/>
			<rect x="1179.5" y="353.5" fill="#C8C8C8" stroke="#C8C8C8" stroke-miterlimit="10" width="23" height="2"/>
			<rect x="1179.5" y="367.5" fill="#C8C8C8" stroke="#C8C8C8" stroke-miterlimit="10" width="23" height="2"/>
			<rect x="1174.5" y="348.5" fill="#C8C8C8" stroke="#999999" stroke-miterlimit="10" width="5" height="27"/>
			<rect x="1202.5" y="348.5" fill="#C8C8C8" stroke="#999999" stroke-miterlimit="10" width="5" height="27"/>
			<rect x="1172.5" y="352.5" fill="#C8C8C8" stroke="#C8C8C8" stroke-miterlimit="10" width="1" height="4"/>
			<rect x="1208.5" y="352.5" fill="#C8C8C8" stroke="#C8C8C8" stroke-miterlimit="10" width="1" height="4"/>
			<path fill="#999999" stroke="#999999" stroke-miterlimit="10" d="M1221.211,361.701c0,3.285-2.662,5.949-5.946,5.949
				c-0.461,0-0.906-0.15-1.336-0.15h-3.429v-12h3.429c0.43,0,0.875,0.052,1.336,0.052
				C1218.549,355.552,1221.211,358.418,1221.211,361.701z"/>
			<path fill="#C8C8C8" stroke="#C8C8C8" stroke-miterlimit="10" d="M1165.5,359.5v5h-30.901c-3.133,0-5.765,0.336-6.555,0.619
				c-0.157,0.059-0.242,0.183-0.242,0.243c-0.652,0.442-1.439,0.729-2.286,0.729c-2.265,0-4.099-1.826-4.099-4.101
				s1.834-4.109,4.099-4.109c0.847,0,1.634,0.261,2.286,0.702c0,0.062,0.082,0.243,0.24,0.298c0.792,0.287,3.448,0.618,6.605,0.618
				H1165.5z"/>
			<polygon fill="#333333" stroke="#333333" stroke-width="0.25" stroke-miterlimit="10" points="1131.297,363.25 1175.78,318.422 
				1168.997,311.586 1124.514,356.414 1120.513,367.281 			"/>
			<path fill="#C1272D" stroke="#C1272D" stroke-width="0.25" stroke-miterlimit="10" d="M1204.197,283.343
				c2.799,2.799,3.058,7.077,0.577,9.558l-27.323,27.324l-10.135-10.135l27.323-27.324
				C1197.12,280.286,1201.398,280.544,1204.197,283.343z"/>
			<circle fill="#C8C8C8" stroke="#C8C8C8" stroke-width="0.25" stroke-miterlimit="10" cx="1137.151" cy="350.342" r="3.02"/>
			<circle fill="#C8C8C8" stroke="#C8C8C8" stroke-width="0.25" stroke-miterlimit="10" cx="1123.247" cy="334.942" r="3.049"/>
			<circle fill="#C8C8C8" stroke="#C8C8C8" stroke-width="0.25" stroke-miterlimit="10" cx="1215.951" cy="361.701" r="2.973"/>
			<circle fill="#C8C8C8" stroke="#C8C8C8" stroke-width="0.25" stroke-miterlimit="10" cx="1125.61" cy="362.007" r="2.439"/>
			<rect x="1172.5" y="366.5" fill="#C8C8C8" stroke="#C8C8C8" stroke-miterlimit="10" width="1" height="4"/>
			<rect x="1208.5" y="366.5" fill="#C8C8C8" stroke="#C8C8C8" stroke-miterlimit="10" width="1" height="4"/>
			<rect x="1113.5" y="380.5" fill="#333333" stroke="#333333" stroke-miterlimit="10" width="47" height="4"/>
		</g>
		<g>
			<path fill="#808080" stroke="#808080" stroke-miterlimit="10" d="M1275.5,324.01c0,9.976,0,28.592,0,37.055
				c0,7.66,5.05,6.436,7.973,6.436c8.001,0,85.878,0,85.878,0c2.349-1,2.783-3.132,2.789-4.287c0-6.592-3.377-7.488-3.377-7.488
				l-85.29-34.207c0,0-4.201-2.034-6.115-2.316C1275.816,319.201,1275.5,320.984,1275.5,324.01z"/>
			<path fill="#E6E6E6" stroke="#999999" stroke-width="0.25" stroke-miterlimit="10" d="M1293.183,332.141
				c0,0,3.848-0.019,6.49-0.019s2.814,3.384,3.967,5.794c1.22,2.287,3.601,1.695,6.508,0c2.418-1.689,13.474-10.216,13.474-10.216
				s2.196-2.033,0.011-5.286c-11.334-13.315-30.449-13.214-30.449-13.214s-19.18-0.102-30.514,13.214
				c-2.186,3.253,0.018,5.286,0.018,5.286s11.059,8.526,13.477,10.216c2.908,1.695,5.291,2.287,6.51,0
				c1.152-2.41,1.326-5.794,3.969-5.794S1293.183,332.141,1293.183,332.141z"/>
			<rect x="1289.5" y="364.5" fill="#808080" stroke="#808080" stroke-miterlimit="10" width="7" height="23"/>
			<circle fill="#999999" stroke="#999999" stroke-width="0.25" stroke-miterlimit="10" cx="1293.151" cy="350.342" r="13.846"/>
			<rect x="1322.5" y="351.5" fill="#999999" stroke="#999999" stroke-miterlimit="10" width="44" height="20"/>
			<rect x="1335.5" y="353.5" fill="#C8C8C8" stroke="#C8C8C8" stroke-miterlimit="10" width="23" height="2"/>
			<rect x="1335.5" y="367.5" fill="#C8C8C8" stroke="#C8C8C8" stroke-miterlimit="10" width="23" height="2"/>
			<rect x="1330.5" y="348.5" fill="#C8C8C8" stroke="#999999" stroke-miterlimit="10" width="5" height="27"/>
			<rect x="1358.5" y="348.5" fill="#C8C8C8" stroke="#999999" stroke-miterlimit="10" width="5" height="27"/>
			<rect x="1328.5" y="352.5" fill="#C8C8C8" stroke="#C8C8C8" stroke-miterlimit="10" width="1" height="4"/>
			<rect x="1364.5" y="352.5" fill="#C8C8C8" stroke="#C8C8C8" stroke-miterlimit="10" width="1" height="4"/>
			<path fill="#999999" stroke="#999999" stroke-miterlimit="10" d="M1377.211,361.701c0,3.285-2.662,5.949-5.946,5.949
				c-0.461,0-0.906-0.15-1.336-0.15h-3.429v-12h3.429c0.43,0,0.875,0.052,1.336,0.052
				C1374.549,355.552,1377.211,358.418,1377.211,361.701z"/>
			<path fill="#C8C8C8" stroke="#C8C8C8" stroke-miterlimit="10" d="M1321.5,359.5v5h-30.901c-3.133,0-5.765,0.336-6.555,0.619
				c-0.157,0.059-0.242,0.183-0.242,0.243c-0.652,0.442-1.439,0.729-2.286,0.729c-2.265,0-4.099-1.826-4.099-4.101
				s1.834-4.109,4.099-4.109c0.847,0,1.634,0.261,2.286,0.702c0,0.062,0.082,0.243,0.24,0.298c0.792,0.287,3.448,0.618,6.605,0.618
				H1321.5z"/>
			<polygon fill="#333333" stroke="#333333" stroke-width="0.25" stroke-miterlimit="10" points="1287.297,363.25 1331.78,318.422 
				1324.997,311.586 1280.514,356.414 1276.513,367.281 			"/>
			<path fill="#C1272D" stroke="#C1272D" stroke-width="0.25" stroke-miterlimit="10" d="M1360.197,283.343
				c2.799,2.799,3.058,7.077,0.577,9.558l-27.323,27.324l-10.135-10.135l27.323-27.324
				C1353.12,280.286,1357.398,280.544,1360.197,283.343z"/>
			<circle fill="#C8C8C8" stroke="#C8C8C8" stroke-width="0.25" stroke-miterlimit="10" cx="1293.151" cy="350.342" r="3.02"/>
			<circle fill="#C8C8C8" stroke="#C8C8C8" stroke-width="0.25" stroke-miterlimit="10" cx="1279.247" cy="334.942" r="3.049"/>
			<circle fill="#C8C8C8" stroke="#C8C8C8" stroke-width="0.25" stroke-miterlimit="10" cx="1371.951" cy="361.701" r="2.973"/>
			<circle fill="#C8C8C8" stroke="#C8C8C8" stroke-width="0.25" stroke-miterlimit="10" cx="1281.61" cy="362.007" r="2.439"/>
			<rect x="1328.5" y="366.5" fill="#C8C8C8" stroke="#C8C8C8" stroke-miterlimit="10" width="1" height="4"/>
			<rect x="1364.5" y="366.5" fill="#C8C8C8" stroke="#C8C8C8" stroke-miterlimit="10" width="1" height="4"/>
			<rect x="1269.5" y="380.5" fill="#333333" stroke="#333333" stroke-miterlimit="10" width="47" height="4"/>
		</g>
		<g>
			<path fill="#808080" stroke="#808080" stroke-miterlimit="10" d="M1431.5,324.01c0,9.976,0,28.592,0,37.055
				c0,7.66,5.05,6.436,7.973,6.436c8.001,0,85.878,0,85.878,0c2.349-1,2.783-3.132,2.789-4.287c0-6.592-3.377-7.488-3.377-7.488
				l-85.29-34.207c0,0-4.201-2.034-6.115-2.316C1431.816,319.201,1431.5,320.984,1431.5,324.01z"/>
			<path fill="#E6E6E6" stroke="#999999" stroke-width="0.25" stroke-miterlimit="10" d="M1449.183,332.141
				c0,0,3.848-0.019,6.49-0.019s2.814,3.384,3.967,5.794c1.22,2.287,3.601,1.695,6.508,0c2.418-1.689,13.474-10.216,13.474-10.216
				s2.196-2.033,0.011-5.286c-11.334-13.315-30.449-13.214-30.449-13.214s-19.18-0.102-30.514,13.214
				c-2.186,3.253,0.018,5.286,0.018,5.286s11.059,8.526,13.477,10.216c2.908,1.695,5.291,2.287,6.51,0
				c1.152-2.41,1.326-5.794,3.969-5.794S1449.183,332.141,1449.183,332.141z"/>
			<rect x="1445.5" y="364.5" fill="#808080" stroke="#808080" stroke-miterlimit="10" width="7" height="23"/>
			<circle fill="#999999" stroke="#999999" stroke-width="0.25" stroke-miterlimit="10" cx="1449.151" cy="350.342" r="13.846"/>
			<rect x="1478.5" y="351.5" fill="#999999" stroke="#999999" stroke-miterlimit="10" width="44" height="20"/>
			<rect x="1491.5" y="353.5" fill="#C8C8C8" stroke="#C8C8C8" stroke-miterlimit="10" width="23" height="2"/>
			<rect x="1491.5" y="367.5" fill="#C8C8C8" stroke="#C8C8C8" stroke-miterlimit="10" width="23" height="2"/>
			<rect x="1486.5" y="348.5" fill="#C8C8C8" stroke="#999999" stroke-miterlimit="10" width="5" height="27"/>
			<rect x="1514.5" y="348.5" fill="#C8C8C8" stroke="#999999" stroke-miterlimit="10" width="5" height="27"/>
			<rect x="1484.5" y="352.5" fill="#C8C8C8" stroke="#C8C8C8" stroke-miterlimit="10" width="1" height="4"/>
			<rect x="1520.5" y="352.5" fill="#C8C8C8" stroke="#C8C8C8" stroke-miterlimit="10" width="1" height="4"/>
			<path fill="#999999" stroke="#999999" stroke-miterlimit="10" d="M1533.211,361.701c0,3.285-2.662,5.949-5.946,5.949
				c-0.461,0-0.906-0.15-1.336-0.15h-3.429v-12h3.429c0.43,0,0.875,0.052,1.336,0.052
				C1530.549,355.552,1533.211,358.418,1533.211,361.701z"/>
			<path fill="#C8C8C8" stroke="#C8C8C8" stroke-miterlimit="10" d="M1477.5,359.5v5h-30.901c-3.133,0-5.765,0.336-6.555,0.619
				c-0.157,0.059-0.242,0.183-0.242,0.243c-0.652,0.442-1.439,0.729-2.286,0.729c-2.265,0-4.099-1.826-4.099-4.101
				s1.834-4.109,4.099-4.109c0.847,0,1.634,0.261,2.286,0.702c0,0.062,0.082,0.243,0.24,0.298c0.792,0.287,3.448,0.618,6.605,0.618
				H1477.5z"/>
			<polygon fill="#333333" stroke="#333333" stroke-width="0.25" stroke-miterlimit="10" points="1443.297,363.25 1487.78,318.422 
				1480.997,311.586 1436.514,356.414 1432.513,367.281 			"/>
			<path fill="#C1272D" stroke="#C1272D" stroke-width="0.25" stroke-miterlimit="10" d="M1516.197,283.343
				c2.799,2.799,3.058,7.077,0.577,9.558l-27.323,27.324l-10.135-10.135l27.323-27.324
				C1509.12,280.286,1513.398,280.544,1516.197,283.343z"/>
			<circle fill="#C8C8C8" stroke="#C8C8C8" stroke-width="0.25" stroke-miterlimit="10" cx="1449.151" cy="350.342" r="3.02"/>
			<circle fill="#C8C8C8" stroke="#C8C8C8" stroke-width="0.25" stroke-miterlimit="10" cx="1435.247" cy="334.942" r="3.049"/>
			<circle fill="#C8C8C8" stroke="#C8C8C8" stroke-width="0.25" stroke-miterlimit="10" cx="1527.951" cy="361.701" r="2.973"/>
			<circle fill="#C8C8C8" stroke="#C8C8C8" stroke-width="0.25" stroke-miterlimit="10" cx="1437.61" cy="362.007" r="2.439"/>
			<rect x="1484.5" y="366.5" fill="#C8C8C8" stroke="#C8C8C8" stroke-miterlimit="10" width="1" height="4"/>
			<rect x="1520.5" y="366.5" fill="#C8C8C8" stroke="#C8C8C8" stroke-miterlimit="10" width="1" height="4"/>
			<rect x="1425.5" y="380.5" fill="#333333" stroke="#333333" stroke-miterlimit="10" width="47" height="4"/>
		</g>
		<g>
			<path fill="#808080" stroke="#808080" stroke-miterlimit="10" d="M501.5,324.009c0,9.976,0,28.592,0,37.055
				c0,7.661,5.05,6.436,7.973,6.436c8.001,0,85.878,0,85.878,0c2.349-1,2.783-3.132,2.789-4.287c0-6.592-3.377-7.488-3.377-7.488
				l-85.29-34.207c0,0-4.201-2.035-6.115-2.317C501.816,319.201,501.5,320.984,501.5,324.009z"/>
			<path fill="#E6E6E6" stroke="#999999" stroke-width="0.25" stroke-miterlimit="10" d="M519.183,332.141
				c0,0,3.848-0.019,6.49-0.019s2.814,3.384,3.967,5.794c1.22,2.287,3.601,1.696,6.508,0c2.418-1.689,13.474-10.216,13.474-10.216
				s2.196-2.033,0.011-5.286c-11.334-13.316-30.449-13.214-30.449-13.214s-19.18-0.102-30.514,13.214
				c-2.186,3.252,0.018,5.286,0.018,5.286s11.059,8.527,13.477,10.216c2.908,1.696,5.291,2.287,6.51,0
				c1.152-2.41,1.326-5.794,3.969-5.794S519.183,332.141,519.183,332.141z"/>
			<rect x="515.5" y="364.5" fill="#808080" stroke="#808080" stroke-miterlimit="10" width="7" height="23"/>
			<circle fill="#999999" stroke="#999999" stroke-width="0.25" stroke-miterlimit="10" cx="519.151" cy="350.342" r="13.846"/>
			<rect x="548.5" y="351.5" fill="#999999" stroke="#999999" stroke-miterlimit="10" width="44" height="20"/>
			<rect x="561.5" y="353.5" fill="#C8C8C8" stroke="#C8C8C8" stroke-miterlimit="10" width="23" height="2"/>
			<rect x="561.5" y="367.5" fill="#C8C8C8" stroke="#C8C8C8" stroke-miterlimit="10" width="23" height="2"/>
			<rect x="556.5" y="348.5" fill="#C8C8C8" stroke="#999999" stroke-miterlimit="10" width="5" height="27"/>
			<rect x="584.5" y="348.5" fill="#C8C8C8" stroke="#999999" stroke-miterlimit="10" width="5" height="27"/>
			<rect x="554.5" y="352.5" fill="#C8C8C8" stroke="#C8C8C8" stroke-miterlimit="10" width="1" height="4"/>
			<rect x="590.5" y="352.5" fill="#C8C8C8" stroke="#C8C8C8" stroke-miterlimit="10" width="1" height="4"/>
			<path fill="#999999" stroke="#999999" stroke-miterlimit="10" d="M603.211,361.702c0,3.284-2.662,5.949-5.946,5.949
				c-0.461,0-0.906-0.15-1.336-0.15H592.5v-12h3.429c0.43,0,0.875,0.052,1.336,0.052
				C600.549,355.552,603.211,358.417,603.211,361.702z"/>
			<path fill="#C8C8C8" stroke="#C8C8C8" stroke-miterlimit="10" d="M547.5,359.5v5h-30.901c-3.133,0-5.765,0.336-6.555,0.62
				c-0.157,0.058-0.242,0.182-0.242,0.243c-0.652,0.442-1.439,0.729-2.286,0.729c-2.265,0-4.099-1.826-4.099-4.101
				c0-2.275,1.834-4.109,4.099-4.109c0.847,0,1.634,0.26,2.286,0.703c0,0.061,0.082,0.243,0.24,0.297
				c0.792,0.287,3.448,0.618,6.605,0.618H547.5z"/>
			<polygon fill="#333333" stroke="#333333" stroke-width="0.25" stroke-miterlimit="10" points="513.297,363.25 557.78,318.422 
				550.997,311.585 506.514,356.414 502.513,367.281 			"/>
			<path fill="#C1272D" stroke="#C1272D" stroke-miterlimit="10" d="M586.197,283.343c2.799,2.799,3.058,7.078,0.577,9.558
				l-27.323,27.324l-10.135-10.135l27.323-27.324C579.12,280.286,583.398,280.544,586.197,283.343z"/>
			<circle fill="#C8C8C8" stroke="#C8C8C8" stroke-width="0.25" stroke-miterlimit="10" cx="519.151" cy="350.342" r="3.02"/>
			<circle fill="#C8C8C8" stroke="#C8C8C8" stroke-width="0.25" stroke-miterlimit="10" cx="505.247" cy="334.942" r="3.049"/>
			<circle fill="#C8C8C8" stroke="#C8C8C8" stroke-width="0.25" stroke-miterlimit="10" cx="597.951" cy="361.702" r="2.973"/>
			<circle fill="#C8C8C8" stroke="#C8C8C8" stroke-width="0.25" stroke-miterlimit="10" cx="507.61" cy="362.007" r="2.439"/>
			<rect x="554.5" y="366.5" fill="#C8C8C8" stroke="#C8C8C8" stroke-miterlimit="10" width="1" height="4"/>
			<rect x="590.5" y="366.5" fill="#C8C8C8" stroke="#C8C8C8" stroke-miterlimit="10" width="1" height="4"/>
			<rect x="495.5" y="380.5" fill="#333333" stroke="#333333" stroke-miterlimit="10" width="47" height="4"/>
		</g>
		<g>
			<path fill="#808080" stroke="#808080" stroke-miterlimit="10" d="M350.5,325.009c0,9.976,0,28.592,0,37.055
				c0,7.661,5.05,6.436,7.973,6.436c8.001,0,85.878,0,85.878,0c2.349-1,2.783-3.132,2.789-4.287c0-6.592-3.377-7.488-3.377-7.488
				l-85.29-34.207c0,0-4.201-2.035-6.115-2.317C350.816,320.201,350.5,321.984,350.5,325.009z"/>
			<path fill="#E6E6E6" stroke="#999999" stroke-width="0.25" stroke-miterlimit="10" d="M368.183,333.141
				c0,0,3.848-0.019,6.49-0.019s2.814,3.384,3.967,5.794c1.22,2.287,3.601,1.696,6.508,0c2.418-1.689,13.474-10.216,13.474-10.216
				s2.196-2.033,0.011-5.286c-11.334-13.316-30.449-13.214-30.449-13.214s-19.18-0.102-30.514,13.214
				c-2.186,3.252,0.018,5.286,0.018,5.286s11.059,8.527,13.477,10.216c2.908,1.696,5.291,2.287,6.51,0
				c1.152-2.41,1.326-5.794,3.969-5.794S368.183,333.141,368.183,333.141z"/>
			<rect x="364.5" y="365.5" fill="#808080" stroke="#808080" stroke-miterlimit="10" width="7" height="23"/>
			<circle fill="#999999" stroke="#999999" stroke-width="0.25" stroke-miterlimit="10" cx="368.151" cy="351.342" r="13.846"/>
			<rect x="397.5" y="352.5" fill="#999999" stroke="#999999" stroke-miterlimit="10" width="44" height="20"/>
			<rect x="410.5" y="354.5" fill="#C8C8C8" stroke="#C8C8C8" stroke-miterlimit="10" width="23" height="2"/>
			<rect x="410.5" y="368.5" fill="#C8C8C8" stroke="#C8C8C8" stroke-miterlimit="10" width="23" height="2"/>
			<rect x="405.5" y="349.5" fill="#C8C8C8" stroke="#999999" stroke-miterlimit="10" width="5" height="27"/>
			<rect x="433.5" y="349.5" fill="#C8C8C8" stroke="#999999" stroke-miterlimit="10" width="5" height="27"/>
			<rect x="403.5" y="353.5" fill="#C8C8C8" stroke="#C8C8C8" stroke-miterlimit="10" width="1" height="4"/>
			<rect x="439.5" y="353.5" fill="#C8C8C8" stroke="#C8C8C8" stroke-miterlimit="10" width="1" height="4"/>
			<path fill="#999999" stroke="#999999" stroke-miterlimit="10" d="M452.211,362.702c0,3.284-2.662,5.949-5.946,5.949
				c-0.461,0-0.906-0.15-1.336-0.15H441.5v-12h3.429c0.43,0,0.875,0.052,1.336,0.052
				C449.549,356.552,452.211,359.417,452.211,362.702z"/>
			<path fill="#C8C8C8" stroke="#C8C8C8" stroke-miterlimit="10" d="M396.5,360.5v5h-30.901c-3.133,0-5.765,0.336-6.555,0.619
				c-0.157,0.059-0.242,0.183-0.242,0.243c-0.652,0.442-1.439,0.729-2.286,0.729c-2.265,0-4.099-1.826-4.099-4.101
				c0-2.275,1.834-4.109,4.099-4.109c0.847,0,1.634,0.26,2.286,0.703c0,0.061,0.082,0.243,0.24,0.297
				c0.792,0.287,3.448,0.618,6.605,0.618H396.5z"/>
			<polygon fill="#333333" stroke="#333333" stroke-width="0.25" stroke-miterlimit="10" points="362.297,364.25 406.78,319.422 
				399.997,312.585 355.514,357.414 351.513,368.281 			"/>
			<path fill="#C1272D" stroke="#C1272D" stroke-miterlimit="10" d="M435.197,284.343c2.799,2.799,3.058,7.078,0.577,9.558
				l-27.323,27.324l-10.135-10.135l27.323-27.324C428.12,281.286,432.398,281.544,435.197,284.343z"/>
			<circle fill="#C8C8C8" stroke="#C8C8C8" stroke-width="0.25" stroke-miterlimit="10" cx="368.151" cy="351.342" r="3.02"/>
			<circle fill="#C8C8C8" stroke="#C8C8C8" stroke-width="0.25" stroke-miterlimit="10" cx="354.247" cy="335.942" r="3.049"/>
			<circle fill="#C8C8C8" stroke="#C8C8C8" stroke-width="0.25" stroke-miterlimit="10" cx="446.951" cy="362.702" r="2.973"/>
			<circle fill="#C8C8C8" stroke="#C8C8C8" stroke-width="0.25" stroke-miterlimit="10" cx="356.61" cy="363.007" r="2.439"/>
			<rect x="403.5" y="367.5" fill="#C8C8C8" stroke="#C8C8C8" stroke-miterlimit="10" width="1" height="4"/>
			<rect x="439.5" y="367.5" fill="#C8C8C8" stroke="#C8C8C8" stroke-miterlimit="10" width="1" height="4"/>
			<rect x="344.5" y="380.5" fill="#333333" stroke="#333333" stroke-miterlimit="10" width="47" height="4"/>
		</g>
		<g>
			<path fill="#808080" stroke="#808080" stroke-miterlimit="10" d="M196.5,325.009c0,9.976,0,28.592,0,37.055
				c0,7.661,5.05,6.436,7.973,6.436c8.001,0,85.878,0,85.878,0c2.349-1,2.783-3.132,2.789-4.287c0-6.592-3.377-7.488-3.377-7.488
				l-85.29-34.207c0,0-4.201-2.035-6.115-2.317C196.816,320.201,196.5,321.984,196.5,325.009z"/>
			<path fill="#E6E6E6" stroke="#999999" stroke-width="0.25" stroke-miterlimit="10" d="M214.183,333.141
				c0,0,3.848-0.019,6.49-0.019s2.814,3.384,3.967,5.794c1.22,2.287,3.601,1.696,6.508,0c2.418-1.689,13.474-10.216,13.474-10.216
				s2.196-2.033,0.011-5.286c-11.334-13.316-30.449-13.214-30.449-13.214s-19.18-0.102-30.514,13.214
				c-2.186,3.252,0.018,5.286,0.018,5.286s11.059,8.527,13.477,10.216c2.908,1.696,5.291,2.287,6.51,0
				c1.152-2.41,1.326-5.794,3.969-5.794S214.183,333.141,214.183,333.141z"/>
			<rect x="210.5" y="365.5" fill="#808080" stroke="#808080" stroke-miterlimit="10" width="7" height="23"/>
			<circle fill="#999999" stroke="#999999" stroke-width="0.25" stroke-miterlimit="10" cx="214.151" cy="351.342" r="13.846"/>
			<rect x="243.5" y="352.5" fill="#999999" stroke="#999999" stroke-miterlimit="10" width="44" height="20"/>
			<rect x="256.5" y="354.5" fill="#C8C8C8" stroke="#C8C8C8" stroke-miterlimit="10" width="23" height="2"/>
			<rect x="256.5" y="368.5" fill="#C8C8C8" stroke="#C8C8C8" stroke-miterlimit="10" width="23" height="2"/>
			<rect x="251.5" y="349.5" fill="#C8C8C8" stroke="#999999" stroke-miterlimit="10" width="5" height="27"/>
			<rect x="279.5" y="349.5" fill="#C8C8C8" stroke="#999999" stroke-miterlimit="10" width="5" height="27"/>
			<rect x="249.5" y="353.5" fill="#C8C8C8" stroke="#C8C8C8" stroke-miterlimit="10" width="1" height="4"/>
			<rect x="285.5" y="353.5" fill="#C8C8C8" stroke="#C8C8C8" stroke-miterlimit="10" width="1" height="4"/>
			<path fill="#999999" stroke="#999999" stroke-miterlimit="10" d="M298.211,362.702c0,3.284-2.662,5.949-5.946,5.949
				c-0.461,0-0.906-0.15-1.336-0.15H287.5v-12h3.429c0.43,0,0.875,0.052,1.336,0.052
				C295.549,356.552,298.211,359.417,298.211,362.702z"/>
			<path fill="#C8C8C8" stroke="#C8C8C8" stroke-miterlimit="10" d="M242.5,360.5v5h-30.901c-3.133,0-5.765,0.336-6.555,0.619
				c-0.157,0.059-0.242,0.183-0.242,0.243c-0.652,0.442-1.439,0.729-2.286,0.729c-2.265,0-4.099-1.826-4.099-4.101
				c0-2.275,1.834-4.109,4.099-4.109c0.847,0,1.634,0.26,2.286,0.703c0,0.061,0.082,0.243,0.24,0.297
				c0.792,0.287,3.448,0.618,6.605,0.618H242.5z"/>
			<polygon fill="#333333" stroke="#333333" stroke-width="0.25" stroke-miterlimit="10" points="208.297,364.25 252.78,319.422 
				245.997,312.585 201.514,357.414 197.513,368.281 			"/>
			<path fill="#C1272D" stroke="#C1272D" stroke-miterlimit="10" d="M281.197,284.343c2.799,2.799,3.058,7.078,0.577,9.558
				l-27.323,27.324l-10.135-10.135l27.323-27.324C274.12,281.286,278.398,281.544,281.197,284.343z"/>
			<circle fill="#C8C8C8" stroke="#C8C8C8" stroke-width="0.25" stroke-miterlimit="10" cx="214.151" cy="351.342" r="3.02"/>
			<circle fill="#C8C8C8" stroke="#C8C8C8" stroke-width="0.25" stroke-miterlimit="10" cx="200.247" cy="335.942" r="3.049"/>
			<circle fill="#C8C8C8" stroke="#C8C8C8" stroke-width="0.25" stroke-miterlimit="10" cx="292.951" cy="362.702" r="2.973"/>
			<circle fill="#C8C8C8" stroke="#C8C8C8" stroke-width="0.25" stroke-miterlimit="10" cx="202.61" cy="363.007" r="2.439"/>
			<rect x="249.5" y="367.5" fill="#C8C8C8" stroke="#C8C8C8" stroke-miterlimit="10" width="1" height="4"/>
			<rect x="285.5" y="367.5" fill="#C8C8C8" stroke="#C8C8C8" stroke-miterlimit="10" width="1" height="4"/>
			<rect x="190.5" y="380.5" fill="#333333" stroke="#333333" stroke-miterlimit="10" width="47" height="4"/>
		</g>
	</g>
</g>
</svg>
