<?xml version="1.0" encoding="utf-8"?>
<!-- Generator: Adobe Illustrator 16.0.0, SVG Export Plug-In . SVG Version: 6.00 Build 0)  -->
<!DOCTYPE svg PUBLIC "-//W3C//DTD SVG 1.1//EN" "http://www.w3.org/Graphics/SVG/1.1/DTD/svg11.dtd">
<svg version="1.1" xmlns="http://www.w3.org/2000/svg" xmlns:xlink="http://www.w3.org/1999/xlink" x="0px" y="0px" width="1766px"
	 height="826px" viewBox="0 0 1766 826" enable-background="new 0 0 1766 826" xml:space="preserve">
<g id="Layer_1" display="none">
</g>
<g id="Cylinder">
</g>
<g id="Layer_6">
</g>
<g id="Pressure_gauge">
</g>
<g id="Chasis__x26__base">
</g>
<g id="Layer_8">
</g>
<g id="Motor__x26__pump">
</g>
<g id="Valves">
	<g>
		<path fill="#E6E6E6" stroke="#E6E6E6" stroke-miterlimit="10" d="M538.5,48.5v384h-74v-384c0-15.69,9.77-29.1,23.55-34.48
			c-0.36-0.85-0.55-1.78-0.55-2.75v-0.54c0-3.68,2.73-6.7,6.279-7.16c-0.18-0.29-0.279-0.63-0.279-0.99V2.42
			c0-1.06,0.845-1.92,1.905-1.92h12.16c1.061,0,1.935,0.86,1.935,1.92v0.16c0,0.36-0.1,0.7-0.279,0.99
			c3.549,0.46,6.279,3.48,6.279,7.16v0.54c0,0.97-0.189,1.9-0.55,2.75C528.73,19.4,538.5,32.81,538.5,48.5z"/>
		<path fill="#E6E6E6" stroke="#E6E6E6" stroke-miterlimit="10" d="M622.5,48.5v384h-74v-384c0-15.69,9.77-29.1,23.55-34.48
			c-0.36-0.85-0.55-1.78-0.55-2.75v-0.54c0-3.68,2.73-6.7,6.279-7.16c-0.18-0.29-0.279-0.63-0.279-0.99V2.42
			c0-1.06,0.845-1.92,1.905-1.92h12.16c1.061,0,1.935,0.86,1.935,1.92v0.16c0,0.36-0.1,0.7-0.279,0.99
			c3.549,0.46,6.279,3.48,6.279,7.16v0.54c0,0.97-0.189,1.9-0.55,2.75C612.73,19.4,622.5,32.81,622.5,48.5z"/>
		<path fill="#E6E6E6" stroke="#E6E6E6" stroke-miterlimit="10" d="M706.5,48.5v384h-74v-384c0-15.69,9.77-29.1,23.55-34.48
			c-0.36-0.85-0.55-1.78-0.55-2.75v-0.54c0-3.68,2.73-6.7,6.279-7.16c-0.18-0.29-0.279-0.63-0.279-0.99V2.42
			c0-1.06,0.845-1.92,1.905-1.92h12.16c1.061,0,1.935,0.86,1.935,1.92v0.16c0,0.36-0.1,0.7-0.279,0.99
			c3.549,0.46,6.279,3.48,6.279,7.16v0.54c0,0.97-0.189,1.9-0.55,2.75C696.73,19.4,706.5,32.81,706.5,48.5z"/>
		<path fill="#E6E6E6" stroke="#E6E6E6" stroke-miterlimit="10" d="M790.5,48.5v384h-74v-384c0-15.69,9.77-29.1,23.55-34.48
			c-0.36-0.85-0.55-1.78-0.55-2.75v-0.54c0-3.68,2.73-6.7,6.279-7.16c-0.18-0.29-0.279-0.63-0.279-0.99V2.42
			c0-1.06,0.845-1.92,1.905-1.92h12.16c1.061,0,1.935,0.86,1.935,1.92v0.16c0,0.36-0.1,0.7-0.279,0.99
			c3.549,0.46,6.279,3.48,6.279,7.16v0.54c0,0.97-0.189,1.9-0.55,2.75C780.73,19.4,790.5,32.81,790.5,48.5z"/>
		<path fill="#E6E6E6" stroke="#E6E6E6" stroke-miterlimit="10" d="M874.5,48.5v384h-74v-384c0-15.69,9.77-29.1,23.55-34.48
			c-0.36-0.85-0.55-1.78-0.55-2.75v-0.54c0-3.68,2.73-6.7,6.279-7.16c-0.18-0.29-0.279-0.63-0.279-0.99V2.42
			c0-1.06,0.845-1.92,1.905-1.92h12.16c1.061,0,1.935,0.86,1.935,1.92v0.16c0,0.36-0.1,0.7-0.279,0.99
			c3.549,0.46,6.279,3.48,6.279,7.16v0.54c0,0.97-0.189,1.9-0.55,2.75C864.73,19.4,874.5,32.81,874.5,48.5z"/>
		<path fill="#E6E6E6" stroke="#E6E6E6" stroke-miterlimit="10" d="M958.5,48.5v384h-74v-384c0-15.69,9.77-29.1,23.55-34.48
			c-0.36-0.85-0.55-1.78-0.55-2.75v-0.54c0-3.68,2.73-6.7,6.279-7.16c-0.18-0.29-0.279-0.63-0.279-0.99V2.42
			c0-1.06,0.845-1.92,1.905-1.92h12.16c1.061,0,1.935,0.86,1.935,1.92v0.16c0,0.36-0.1,0.7-0.279,0.99
			c3.549,0.46,6.279,3.48,6.279,7.16v0.54c0,0.97-0.189,1.9-0.55,2.75C948.73,19.4,958.5,32.81,958.5,48.5z"/>
		<path fill="#E6E6E6" stroke="#E6E6E6" stroke-miterlimit="10" d="M1042.5,48.5v384h-74v-384c0-15.69,9.77-29.1,23.55-34.48
			c-0.36-0.85-0.55-1.78-0.55-2.75v-0.54c0-3.68,2.73-6.7,6.279-7.16c-0.18-0.29-0.279-0.63-0.279-0.99V2.42
			c0-1.06,0.845-1.92,1.905-1.92h12.16c1.061,0,1.935,0.86,1.935,1.92v0.16c0,0.36-0.1,0.7-0.279,0.99
			c3.549,0.46,6.279,3.48,6.279,7.16v0.54c0,0.97-0.189,1.9-0.55,2.75C1032.73,19.4,1042.5,32.81,1042.5,48.5z"/>
		<path fill="#E6E6E6" stroke="#E6E6E6" stroke-miterlimit="10" d="M1126.5,48.5v384h-74v-384c0-15.69,9.77-29.1,23.549-34.48
			c-0.359-0.85-0.549-1.78-0.549-2.75v-0.54c0-3.68,2.73-6.7,6.279-7.16c-0.18-0.29-0.279-0.63-0.279-0.99V2.42
			c0-1.06,0.845-1.92,1.905-1.92h12.16c1.061,0,1.935,0.86,1.935,1.92v0.16c0,0.36-0.1,0.7-0.279,0.99
			c3.549,0.46,6.279,3.48,6.279,7.16v0.54c0,0.97-0.189,1.9-0.55,2.75C1116.73,19.4,1126.5,32.81,1126.5,48.5z"/>
		<path fill="#E6E6E6" stroke="#E6E6E6" stroke-miterlimit="10" d="M1210.5,48.5v384h-74v-384c0-15.69,9.77-29.1,23.549-34.48
			c-0.359-0.85-0.549-1.78-0.549-2.75v-0.54c0-3.68,2.73-6.7,6.279-7.16c-0.18-0.29-0.279-0.63-0.279-0.99V2.42
			c0-1.06,0.845-1.92,1.905-1.92h12.16c1.061,0,1.935,0.86,1.935,1.92v0.16c0,0.36-0.1,0.7-0.279,0.99
			c3.549,0.46,6.279,3.48,6.279,7.16v0.54c0,0.97-0.189,1.9-0.55,2.75C1200.73,19.4,1210.5,32.81,1210.5,48.5z"/>
		<path fill="#E6E6E6" stroke="#E6E6E6" stroke-miterlimit="10" d="M1294.5,48.5v384h-74v-384c0-15.69,9.77-29.1,23.549-34.48
			c-0.359-0.85-0.549-1.78-0.549-2.75v-0.54c0-3.68,2.73-6.7,6.279-7.16c-0.18-0.29-0.279-0.63-0.279-0.99V2.42
			c0-1.06,0.845-1.92,1.905-1.92h12.16c1.061,0,1.935,0.86,1.935,1.92v0.16c0,0.36-0.1,0.7-0.279,0.99
			c3.549,0.46,6.279,3.48,6.279,7.16v0.54c0,0.97-0.189,1.9-0.55,2.75C1284.73,19.4,1294.5,32.81,1294.5,48.5z"/>
		<path fill="#E6E6E6" stroke="#E6E6E6" stroke-miterlimit="10" d="M1378.5,48.5v384h-74v-384c0-15.69,9.77-29.1,23.549-34.48
			c-0.359-0.85-0.549-1.78-0.549-2.75v-0.54c0-3.68,2.73-6.7,6.279-7.16c-0.18-0.29-0.279-0.63-0.279-0.99V2.42
			c0-1.06,0.845-1.92,1.905-1.92h12.16c1.061,0,1.935,0.86,1.935,1.92v0.16c0,0.36-0.1,0.7-0.279,0.99
			c3.549,0.46,6.279,3.48,6.279,7.16v0.54c0,0.97-0.189,1.9-0.55,2.75C1368.73,19.4,1378.5,32.81,1378.5,48.5z"/>
		<path fill="#E6E6E6" stroke="#E6E6E6" stroke-miterlimit="10" d="M1462.5,48.5v384h-74v-384c0-15.69,9.77-29.1,23.549-34.48
			c-0.359-0.85-0.549-1.78-0.549-2.75v-0.54c0-3.68,2.73-6.7,6.279-7.16c-0.18-0.29-0.279-0.63-0.279-0.99V2.42
			c0-1.06,0.845-1.92,1.905-1.92h12.16c1.061,0,1.935,0.86,1.935,1.92v0.16c0,0.36-0.1,0.7-0.279,0.99
			c3.549,0.46,6.279,3.48,6.279,7.16v0.54c0,0.97-0.189,1.9-0.55,2.75C1452.73,19.4,1462.5,32.81,1462.5,48.5z"/>
		<path fill="#E6E6E6" stroke="#E6E6E6" stroke-miterlimit="10" d="M1546.5,48.5v384h-74v-384c0-15.69,9.77-29.1,23.549-34.48
			c-0.359-0.85-0.549-1.78-0.549-2.75v-0.54c0-3.68,2.73-6.7,6.279-7.16c-0.18-0.29-0.279-0.63-0.279-0.99V2.42
			c0-1.06,0.845-1.92,1.905-1.92h12.16c1.061,0,1.935,0.86,1.935,1.92v0.16c0,0.36-0.1,0.7-0.279,0.99
			c3.549,0.46,6.279,3.48,6.279,7.16v0.54c0,0.97-0.189,1.9-0.55,2.75C1536.73,19.4,1546.5,32.81,1546.5,48.5z"/>
		<path fill="#B3B3B3" stroke="#B3B3B3" stroke-miterlimit="10" d="M532.5,74.5v384h-74v-384c0-15.69,9.77-29.1,23.55-34.48
			c-0.36-0.85-0.55-1.78-0.55-2.75v-0.54c0-3.68,2.73-6.7,6.279-7.16c-0.18-0.29-0.279-0.63-0.279-0.99v-0.16
			c0-1.06,0.845-1.92,1.905-1.92h12.16c1.061,0,1.935,0.86,1.935,1.92v0.16c0,0.36-0.1,0.7-0.279,0.99
			c3.549,0.46,6.279,3.48,6.279,7.16v0.54c0,0.97-0.189,1.9-0.55,2.75C522.73,45.4,532.5,58.81,532.5,74.5z"/>
		<path fill="#B3B3B3" stroke="#B3B3B3" stroke-miterlimit="10" d="M616.5,74.5v384h-74v-384c0-15.69,9.77-29.1,23.55-34.48
			c-0.36-0.85-0.55-1.78-0.55-2.75v-0.54c0-3.68,2.73-6.7,6.279-7.16c-0.18-0.29-0.279-0.63-0.279-0.99v-0.16
			c0-1.06,0.845-1.92,1.905-1.92h12.16c1.061,0,1.935,0.86,1.935,1.92v0.16c0,0.36-0.1,0.7-0.279,0.99
			c3.549,0.46,6.279,3.48,6.279,7.16v0.54c0,0.97-0.189,1.9-0.55,2.75C606.73,45.4,616.5,58.81,616.5,74.5z"/>
		<path fill="#B3B3B3" stroke="#E6E6E6" stroke-miterlimit="10" d="M700.5,74.5v384h-74v-384c0-15.69,9.77-29.1,23.55-34.48
			c-0.36-0.85-0.55-1.78-0.55-2.75v-0.54c0-3.68,2.73-6.7,6.279-7.16c-0.18-0.29-0.279-0.63-0.279-0.99v-0.16
			c0-1.06,0.845-1.92,1.905-1.92h12.16c1.061,0,1.935,0.86,1.935,1.92v0.16c0,0.36-0.1,0.7-0.279,0.99
			c3.549,0.46,6.279,3.48,6.279,7.16v0.54c0,0.97-0.189,1.9-0.55,2.75C690.73,45.4,700.5,58.81,700.5,74.5z"/>
		<path fill="#B3B3B3" stroke="#B3B3B3" stroke-miterlimit="10" d="M784.5,74.5v384h-74v-384c0-15.69,9.77-29.1,23.55-34.48
			c-0.36-0.85-0.55-1.78-0.55-2.75v-0.54c0-3.68,2.73-6.7,6.279-7.16c-0.18-0.29-0.279-0.63-0.279-0.99v-0.16
			c0-1.06,0.845-1.92,1.905-1.92h12.16c1.061,0,1.935,0.86,1.935,1.92v0.16c0,0.36-0.1,0.7-0.279,0.99
			c3.549,0.46,6.279,3.48,6.279,7.16v0.54c0,0.97-0.189,1.9-0.55,2.75C774.73,45.4,784.5,58.81,784.5,74.5z"/>
		<path fill="#B3B3B3" stroke="#B3B3B3" stroke-miterlimit="10" d="M868.5,74.5v384h-74v-384c0-15.69,9.77-29.1,23.55-34.48
			c-0.36-0.85-0.55-1.78-0.55-2.75v-0.54c0-3.68,2.73-6.7,6.279-7.16c-0.18-0.29-0.279-0.63-0.279-0.99v-0.16
			c0-1.06,0.845-1.92,1.905-1.92h12.16c1.061,0,1.935,0.86,1.935,1.92v0.16c0,0.36-0.1,0.7-0.279,0.99
			c3.549,0.46,6.279,3.48,6.279,7.16v0.54c0,0.97-0.189,1.9-0.55,2.75C858.73,45.4,868.5,58.81,868.5,74.5z"/>
		<path fill="#B3B3B3" stroke="#B3B3B3" stroke-miterlimit="10" d="M952.5,74.5v384h-74v-384c0-15.69,9.77-29.1,23.55-34.48
			c-0.36-0.85-0.55-1.78-0.55-2.75v-0.54c0-3.68,2.73-6.7,6.279-7.16c-0.18-0.29-0.279-0.63-0.279-0.99v-0.16
			c0-1.06,0.845-1.92,1.905-1.92h12.16c1.061,0,1.935,0.86,1.935,1.92v0.16c0,0.36-0.1,0.7-0.279,0.99
			c3.549,0.46,6.279,3.48,6.279,7.16v0.54c0,0.97-0.189,1.9-0.55,2.75C942.73,45.4,952.5,58.81,952.5,74.5z"/>
		<path fill="#B3B3B3" stroke="#B3B3B3" stroke-miterlimit="10" d="M1036.5,74.5v384h-74v-384c0-15.69,9.77-29.1,23.55-34.48
			c-0.36-0.85-0.55-1.78-0.55-2.75v-0.54c0-3.68,2.73-6.7,6.279-7.16c-0.18-0.29-0.279-0.63-0.279-0.99v-0.16
			c0-1.06,0.845-1.92,1.905-1.92h12.16c1.061,0,1.935,0.86,1.935,1.92v0.16c0,0.36-0.1,0.7-0.279,0.99
			c3.549,0.46,6.279,3.48,6.279,7.16v0.54c0,0.97-0.189,1.9-0.55,2.75C1026.73,45.4,1036.5,58.81,1036.5,74.5z"/>
		<path fill="#B3B3B3" stroke="#B3B3B3" stroke-miterlimit="10" d="M1120.5,74.5v384h-74v-384c0-15.69,9.77-29.1,23.549-34.48
			c-0.359-0.85-0.549-1.78-0.549-2.75v-0.54c0-3.68,2.73-6.7,6.279-7.16c-0.18-0.29-0.279-0.63-0.279-0.99v-0.16
			c0-1.06,0.845-1.92,1.905-1.92h12.16c1.061,0,1.935,0.86,1.935,1.92v0.16c0,0.36-0.1,0.7-0.279,0.99
			c3.549,0.46,6.279,3.48,6.279,7.16v0.54c0,0.97-0.189,1.9-0.55,2.75C1110.73,45.4,1120.5,58.81,1120.5,74.5z"/>
		<path fill="#B3B3B3" stroke="#B3B3B3" stroke-miterlimit="10" d="M1204.5,74.5v384h-74v-384c0-15.69,9.77-29.1,23.549-34.48
			c-0.359-0.85-0.549-1.78-0.549-2.75v-0.54c0-3.68,2.73-6.7,6.279-7.16c-0.18-0.29-0.279-0.63-0.279-0.99v-0.16
			c0-1.06,0.845-1.92,1.905-1.92h12.16c1.061,0,1.935,0.86,1.935,1.92v0.16c0,0.36-0.1,0.7-0.279,0.99
			c3.549,0.46,6.279,3.48,6.279,7.16v0.54c0,0.97-0.189,1.9-0.55,2.75C1194.73,45.4,1204.5,58.81,1204.5,74.5z"/>
		<path fill="#B3B3B3" stroke="#B3B3B3" stroke-miterlimit="10" d="M1288.5,74.5v384h-74v-384c0-15.69,9.77-29.1,23.549-34.48
			c-0.359-0.85-0.549-1.78-0.549-2.75v-0.54c0-3.68,2.73-6.7,6.279-7.16c-0.18-0.29-0.279-0.63-0.279-0.99v-0.16
			c0-1.06,0.845-1.92,1.905-1.92h12.16c1.061,0,1.935,0.86,1.935,1.92v0.16c0,0.36-0.1,0.7-0.279,0.99
			c3.549,0.46,6.279,3.48,6.279,7.16v0.54c0,0.97-0.189,1.9-0.55,2.75C1278.73,45.4,1288.5,58.81,1288.5,74.5z"/>
		<path fill="#B3B3B3" stroke="#B3B3B3" stroke-miterlimit="10" d="M1372.5,74.5v384h-74v-384c0-15.69,9.77-29.1,23.549-34.48
			c-0.359-0.85-0.549-1.78-0.549-2.75v-0.54c0-3.68,2.73-6.7,6.279-7.16c-0.18-0.29-0.279-0.63-0.279-0.99v-0.16
			c0-1.06,0.845-1.92,1.905-1.92h12.16c1.061,0,1.935,0.86,1.935,1.92v0.16c0,0.36-0.1,0.7-0.279,0.99
			c3.549,0.46,6.279,3.48,6.279,7.16v0.54c0,0.97-0.189,1.9-0.55,2.75C1362.73,45.4,1372.5,58.81,1372.5,74.5z"/>
		<path fill="#B3B3B3" stroke="#B3B3B3" stroke-miterlimit="10" d="M1456.5,74.5v384h-74v-384c0-15.69,9.77-29.1,23.549-34.48
			c-0.359-0.85-0.549-1.78-0.549-2.75v-0.54c0-3.68,2.73-6.7,6.279-7.16c-0.18-0.29-0.279-0.63-0.279-0.99v-0.16
			c0-1.06,0.845-1.92,1.905-1.92h12.16c1.061,0,1.935,0.86,1.935,1.92v0.16c0,0.36-0.1,0.7-0.279,0.99
			c3.549,0.46,6.279,3.48,6.279,7.16v0.54c0,0.97-0.189,1.9-0.55,2.75C1446.73,45.4,1456.5,58.81,1456.5,74.5z"/>
		<path fill="#B3B3B3" stroke="#E6E6E6" stroke-miterlimit="10" d="M1540.5,74.5v384h-74v-384c0-15.69,9.77-29.1,23.549-34.48
			c-0.359-0.85-0.549-1.78-0.549-2.75v-0.54c0-3.68,2.73-6.7,6.279-7.16c-0.18-0.29-0.279-0.63-0.279-0.99v-0.16
			c0-1.06,0.845-1.92,1.905-1.92h12.16c1.061,0,1.935,0.86,1.935,1.92v0.16c0,0.36-0.1,0.7-0.279,0.99
			c3.549,0.46,6.279,3.48,6.279,7.16v0.54c0,0.97-0.189,1.9-0.55,2.75C1530.73,45.4,1540.5,58.81,1540.5,74.5z"/>
		<rect x="1599.5" y="260.5" fill="#999999" stroke="#999999" stroke-miterlimit="10" width="10" height="60"/>
		<rect x="1443.5" y="260.5" fill="#999999" stroke="#999999" stroke-miterlimit="10" width="10" height="60"/>
		<rect x="1286.5" y="260.5" fill="#999999" stroke="#999999" stroke-miterlimit="10" width="10" height="60"/>
		<rect x="1131.5" y="260.5" fill="#999999" stroke="#999999" stroke-miterlimit="10" width="10" height="60"/>
		<rect x="975.5" y="260.5" fill="#999999" stroke="#999999" stroke-miterlimit="10" width="10" height="60"/>
		<rect x="819.5" y="260.5" fill="#999999" stroke="#999999" stroke-miterlimit="10" width="10" height="60"/>
		<rect x="668.5" y="260.5" fill="#999999" stroke="#999999" stroke-miterlimit="10" width="10" height="60"/>
		<rect x="517.5" y="260.5" fill="#999999" stroke="#999999" stroke-miterlimit="10" width="10" height="60"/>
		<rect x="363.5" y="260.5" fill="#999999" stroke="#999999" stroke-miterlimit="10" width="10" height="60"/>
		<rect x="213.5" y="260.5" fill="#999999" stroke="#999999" stroke-miterlimit="10" width="10" height="60"/>
		<path fill="#999999" stroke="#999999" stroke-miterlimit="10" d="M1612.5,243.25c0,4.556-5.486,8.25-12.234,8.25h-67.396
			c-6.75,0-12.37-3.694-12.37-8.25v-0.5c0-4.556,5.62-8.25,12.37-8.25h67.396c6.748,0,12.234,3.694,12.234,8.25V243.25z"/>
		<rect x="1601.5" y="247.5" fill="#999999" stroke="#999999" stroke-miterlimit="10" width="6" height="17"/>
		<path fill="#FFFFFF" stroke="#808080" stroke-width="5" stroke-miterlimit="10" d="M1104.5,228.5V143c0,0,1.528-15.5,25.104-15.5
			c23.574,0,286.649,0,308.684,0c22.033,0,19.213,16.167,19.213,16.167V228.5H1104.5z"/>
		<circle fill="#FFFFFF" stroke="#808080" stroke-width="5" stroke-miterlimit="10" cx="1159.862" cy="177.748" r="33.748"/>
		<circle fill="#FFFFFF" stroke="#808080" stroke-width="5" stroke-miterlimit="10" cx="1241.862" cy="177.748" r="33.748"/>
		<circle fill="#FFFFFF" stroke="#808080" stroke-width="5" stroke-miterlimit="10" cx="1323.862" cy="177.748" r="33.748"/>
		<circle fill="#FFFFFF" stroke="#808080" stroke-width="5" stroke-miterlimit="10" cx="1405.862" cy="177.748" r="33.748"/>
		<line fill="none" stroke="#999999" stroke-miterlimit="10" x1="1159.862" y1="177.748" x2="1143.629" y2="193.982"/>
		
			<line fill="none" stroke="#999999" stroke-linecap="round" stroke-miterlimit="10" x1="1159.862" y1="177.748" x2="1175.798" y2="161.813"/>
		<polygon fill="#999999" stroke="#999999" stroke-miterlimit="10" points="1148.127,192.918 1141.799,195.782 1144.663,189.454 		
			"/>
		<circle fill="none" stroke="#999999" stroke-miterlimit="10" cx="1159.922" cy="177.688" r="27.812"/>
		<circle fill="#666666" stroke="#666666" stroke-miterlimit="10" cx="1159.862" cy="177.748" r="1.791"/>
		<line fill="none" stroke="#999999" stroke-miterlimit="10" x1="1241.862" y1="177.748" x2="1225.629" y2="193.982"/>
		
			<line fill="none" stroke="#999999" stroke-linecap="round" stroke-miterlimit="10" x1="1241.862" y1="177.748" x2="1257.798" y2="161.813"/>
		<polygon fill="#999999" stroke="#999999" stroke-miterlimit="10" points="1230.127,192.918 1223.799,195.782 1226.663,189.454 		
			"/>
		<circle fill="none" stroke="#999999" stroke-miterlimit="10" cx="1241.922" cy="177.688" r="27.812"/>
		<circle fill="#666666" stroke="#666666" stroke-miterlimit="10" cx="1241.862" cy="177.748" r="1.791"/>
		<line fill="none" stroke="#999999" stroke-miterlimit="10" x1="1323.862" y1="177.748" x2="1307.629" y2="193.982"/>
		
			<line fill="none" stroke="#999999" stroke-linecap="round" stroke-miterlimit="10" x1="1323.862" y1="177.748" x2="1339.798" y2="161.813"/>
		<polygon fill="#999999" stroke="#999999" stroke-miterlimit="10" points="1312.127,192.918 1305.799,195.782 1308.663,189.454 		
			"/>
		<circle fill="none" stroke="#999999" stroke-miterlimit="10" cx="1323.922" cy="177.688" r="27.812"/>
		<circle fill="#666666" stroke="#666666" stroke-miterlimit="10" cx="1323.862" cy="177.748" r="1.791"/>
		<line fill="none" stroke="#999999" stroke-miterlimit="10" x1="1405.862" y1="177.748" x2="1389.629" y2="193.982"/>
		
			<line fill="none" stroke="#999999" stroke-linecap="round" stroke-miterlimit="10" x1="1405.862" y1="177.748" x2="1421.798" y2="161.813"/>
		<polygon fill="#999999" stroke="#999999" stroke-miterlimit="10" points="1394.127,192.918 1387.799,195.782 1390.663,189.454 		
			"/>
		<circle fill="none" stroke="#999999" stroke-miterlimit="10" cx="1405.922" cy="177.688" r="27.812"/>
		<circle fill="#666666" stroke="#666666" stroke-miterlimit="10" cx="1405.862" cy="177.748" r="1.791"/>
		<g>
			<path fill="#999999" stroke="#999999" stroke-miterlimit="10" d="M215.5,249.5h-40.595c-0.67-1.66-1.405-3.04-3.405-3.92V170.5
				h-15v75.08c-1,0.34-1.178,0.77-1.668,1.26c-0.75,0.75-1.356,1.66-1.767,2.66H91.5v6h61.565c0.67,1.66,1.435,3.04,3.435,3.92
				V387.5h15V259.42c2-0.88,2.735-2.26,3.405-3.92H215.5V249.5z"/>
			<polygon fill="#999999" stroke="#999999" stroke-miterlimit="10" points="317.5,226.5 317.5,260.5 1058.5,260.5 1058.5,227.732 
							"/>
		</g>
		<rect x="1058.5" y="227.5" fill="#999999" stroke="#999999" stroke-miterlimit="10" width="418" height="33"/>
		<rect x="1497.5" y="284.5" fill="#999999" stroke="#999999" stroke-miterlimit="10" width="15" height="103"/>
		<path fill="#999999" stroke="#999999" stroke-miterlimit="10" d="M711.5,197.87v0.26c0,2.5-2,4.59-4,5.19v23.18h-6v-23.18
			c-2-0.39-2.784-1.44-3.454-2.82h-147.74c-0.99,1.22-2.5,2-4.19,2h-3.26c-2.97,0-5.355-2.4-5.355-5.37v-0.26c0-2.5,2-4.59,4-5.19
			v-78.36c-2-0.39-2.784-1.44-3.454-2.82H381.5v-6h157.165c0.99-1.22,2.5-2,4.19-2h3.26c2.97,0,5.385,2.4,5.385,5.37v0.26
			c0,2.5-2,4.59-4,5.19v78.36c2,0.39,2.755,1.44,3.425,2.82h147.74c0.99-1.22,2.5-2,4.19-2h3.26
			C709.085,192.5,711.5,194.9,711.5,197.87z"/>
		<path fill="#999999" stroke="#999999" stroke-miterlimit="10" d="M188.5,130.5h-88.194c-0.99-1.22-2.5-2-4.19-2h-3.26
			c-2.97,0-5.355,2.4-5.355,5.37v0.26c0,2.5,2,4.59,4,5.19v79.18h6v-79.18c2-0.39,2.755-1.44,3.425-2.82H188.5V130.5z"/>
		<rect x="0.5" y="793.5" fill="#333333" stroke="#333333" stroke-miterlimit="10" width="1765" height="32"/>
		<rect x="1497.5" y="208.5" fill="#999999" stroke="#999999" stroke-miterlimit="10" width="15" height="11"/>
		<rect x="1483.5" y="278.5" fill="#999999" stroke="#999999" stroke-miterlimit="10" width="43" height="6"/>
		<path fill="#808080" stroke="#808080" stroke-miterlimit="10" d="M1534.5,270.268c0,4.547-3.686,8.232-8.232,8.232h-42.535
			c-4.547,0-8.232-3.686-8.232-8.232v-42.535c0-4.547,3.686-8.232,8.232-8.232h42.535c4.547,0,8.232,3.686,8.232,8.232V270.268z"/>
		<circle fill="#C8C8C8" stroke="#C8C8C8" stroke-miterlimit="10" cx="1505.485" cy="248.5" r="20.924"/>
		<rect x="1487.5" y="109.5" fill="#999999" stroke="#999999" stroke-miterlimit="10" width="34" height="99"/>
		<rect x="1494.5" y="104.5" fill="#999999" stroke="#999999" stroke-miterlimit="10" width="19" height="5"/>
		<path fill="#999999" stroke="#999999" stroke-miterlimit="10" d="M385.5,238.5c0-6.627-7.209-12-16.078-12H210.161
			c-8.87,0-16.661,5.373-16.661,12v10c0,6.627,7.791,12,16.661,12h159.261c8.869,0,16.078-5.373,16.078-12V238.5z"/>
		<rect x="187.5" y="104.5" fill="#999999" stroke="#999999" stroke-miterlimit="10" width="205" height="6"/>
		<rect x="72.5" y="278.5" fill="#999999" stroke="#999999" stroke-miterlimit="10" width="43" height="6"/>
		<path fill="#808080" stroke="#808080" stroke-miterlimit="10" d="M123.5,270.268c0,4.547-3.686,8.232-8.232,8.232H72.732
			c-4.547,0-8.232-3.686-8.232-8.232v-42.535c0-4.547,3.686-8.232,8.232-8.232h42.535c4.547,0,8.232,3.686,8.232,8.232V270.268z"/>
		<circle fill="#C8C8C8" stroke="#C8C8C8" stroke-miterlimit="10" cx="94.485" cy="248.5" r="20.924"/>
		<rect x="86.5" y="284.5" fill="#999999" stroke="#999999" stroke-miterlimit="10" width="15" height="103"/>
		<rect x="62.5" y="385.5" fill="#808080" stroke="#808080" stroke-miterlimit="10" width="1636" height="408"/>
		<g>
			<path fill="#999999" stroke="#999999" stroke-width="5" stroke-miterlimit="10" d="M1069.5,460.44v94.119
				c0,5.49-4.451,9.94-9.94,9.94H942.44c-5.49,0-9.94-4.45-9.94-9.94V460.44c0-5.49,4.45-9.94,9.94-9.94h43.3
				c-3.11,1.57-5.24,4.78-5.24,8.5c0.04,3.42,5.88,8.79,9.5,9.5c7.13,2.54,14.92,2.29,21,0c5.96-2.83,9.5-7,9.5-9.5
				c0-3.72-2.13-6.93-5.24-8.5h44.3C1065.049,450.5,1069.5,454.95,1069.5,460.44z"/>
			<path fill="#808080" stroke="#808080" stroke-width="5" stroke-miterlimit="10" d="M1058.5,547.146
				c0,4.614-3.74,8.354-8.354,8.354h-98.291c-4.614,0-8.354-3.74-8.354-8.354v-79.291c0-4.614,3.74-8.354,8.354-8.354h98.291
				c4.614,0,8.354,3.74,8.354,8.354V547.146z"/>
			<rect x="994.5" y="469.5" fill="#999999" stroke="#999999" stroke-miterlimit="10" width="12" height="170"/>
			<rect x="956.5" y="481.5" fill="#C8C8C8" stroke="#C8C8C8" stroke-width="5" stroke-miterlimit="10" width="88" height="72"/>
			<rect x="998.5" y="481.5" fill="#808080" stroke="#808080" stroke-miterlimit="10" width="5" height="72"/>
			<rect x="1038.5" y="481.5" fill="#808080" stroke="#808080" stroke-miterlimit="10" width="4" height="72"/>
			<rect x="958.5" y="481.5" fill="#808080" stroke="#808080" stroke-miterlimit="10" width="4" height="72"/>
			<path fill="#999999" stroke="#999999" stroke-width="5" stroke-miterlimit="10" d="M1020.5,459c0,2.5-3.54,6.67-9.5,9.5
				c-6.08,2.29-13.87,2.54-21,0c-3.62-0.71-9.46-6.08-9.5-9.5c0-3.72,2.13-6.93,5.24-8.5c1.14-0.57,2.42-0.92,3.76-0.99v-7.01
				c0-6.08,4.92-11,11-11c3.04,0,5.79,1.23,7.78,3.22c1.989,1.99,3.22,4.74,3.22,7.78v7.01c1.34,0.07,2.62,0.42,3.76,0.99
				C1018.37,452.07,1020.5,455.28,1020.5,459z"/>
			<rect x="974" y="570" fill="none" stroke="#999999" stroke-width="8" stroke-miterlimit="10" width="53" height="25"/>
			<path fill="#999999" stroke="#999999" stroke-miterlimit="10" d="M1032.5,598.23v3.27h4v22h-12v13h6v6h-6v7h-4v-7h-3.36
				c-0.88,4.19-3.29,7.81-6.64,10.24V789.5h-20V652.74c-2.81-2.04-4.95-4.9-6.09-8.24h-3.91v5h-4v-5h-85.21
				c-1.62,1.84-3.99,3-6.64,3h-3.301c-4.89,0-8.85-3.96-8.85-8.85v-0.301c0-3.51,2.04-6.54,5-7.97V460.5h11v169.88
				c1.45,0.7,2.68,1.78,3.55,3.12h84.45v-10h-12v-22h4v-3.27c-2.32-0.74-4-2.91-4-5.48v-10.5c0-3.18,2.57-5.75,5.75-5.75h0.5
				c3.18,0,5.75,2.57,5.75,5.75v10.5c0,2.57-1.68,4.74-4,5.48v3.27h4v11h4v21h3.92c2.271-6.69,8.62-11.5,16.08-11.5
				c8.54,0,15.61,6.3,16.81,14.5h3.19v-24h4v-11h4v-3.27c-2.32-0.74-4-2.91-4-5.48v-10.5c0-3.18,2.57-5.75,5.75-5.75h0.5
				c3.18,0,5.75,2.57,5.75,5.75v10.5C1036.5,595.32,1034.82,597.49,1032.5,598.23z"/>
			<line fill="none" stroke="#999999" stroke-width="5" stroke-miterlimit="10" x1="1000.5" y1="432" x2="1000.5" y2="418"/>
		</g>
		<rect x="124.5" y="730.5" fill="#999999" stroke="#999999" stroke-miterlimit="10" width="408" height="59"/>
		<rect x="124.5" y="607.5" fill="#999999" stroke="#999999" stroke-miterlimit="10" width="226" height="99"/>
		<rect x="124.5" y="712.5" fill="#999999" stroke="#999999" stroke-miterlimit="10" width="461" height="13"/>
		<rect x="532.5" y="635.5" fill="#999999" stroke="#999999" stroke-miterlimit="10" width="37" height="77"/>
		<path fill="#999999" stroke="#999999" stroke-miterlimit="10" d="M613.985,577.51c-0.43,0.391-0.95,0.63-1.49,0.721
			c-0.279,7.5-1.82,14.67-4.41,21.319c0.41,0.16,0.791,0.42,1.11,0.771c1.09,1.22,1,3.09-0.21,4.189c-0.93,0.84-2.24,0.99-3.3,0.471
			c-3.21,6.46-7.44,12.31-12.479,17.35c1.079,1.22,0.989,3.08-0.221,4.18c-1.21,1.09-3.07,1.01-4.17-0.18
			c-11.46,9.57-26.21,15.33-42.301,15.33c-36.469,0-66.059-29.561-66.059-66.03c0-17.12,6.529-32.729,17.229-44.46
			c-0.979-1.21-0.86-3,0.31-4.06c1.1-0.99,2.74-1.011,3.85-0.12c4.91-4.51,10.5-8.29,16.601-11.15
			c-0.71-1.189-0.521-2.76,0.55-3.729c1.221-1.101,3.1-1,4.2,0.21c0.33,0.37,0.566,0.81,0.668,1.26
			c6.17-2.26,12.637-3.61,19.637-3.92v-0.07c0-1.63,1.359-2.96,3-2.96s3,1.33,3,2.96v0.07c7,0.29,12.822,1.53,18.732,3.59
			c0.16-0.42,0.417-0.81,0.767-1.14c1.221-1.101,3.098-1,4.198,0.21c0.79,0.88,0.959,2.109,0.529,3.13
			c6.43,2.899,12.309,6.81,17.439,11.52c1.221-0.95,2.979-0.81,4.029,0.351c0.979,1.1,1.011,2.72,0.12,3.83
			c4.199,4.59,7.75,9.779,10.52,15.42c1.131-0.471,2.49-0.21,3.36,0.75c1.09,1.22,1,3.09-0.21,4.189c-0.24,0.21-0.5,0.38-0.779,0.5
			c2.439,6.38,3.93,13.23,4.27,20.38c0.64,0.101,1.25,0.41,1.72,0.931C615.285,574.54,615.195,576.41,613.985,577.51z"/>
		<circle fill="#999999" stroke="#999999" stroke-miterlimit="10" cx="1361.981" cy="513.312" r="2.967"/>
		<path fill="#666666" stroke="#666666" stroke-miterlimit="10" d="M599.485,571.62c0,15.16-7.76,28.51-19.529,36.3l-0.021,0.021
			L429.835,711.15c-17.76,14.59-40.5,23.34-65.279,23.34c-56.85,0-102.94-46.09-102.94-102.94
			c0-56.85,46.091-102.939,102.94-102.939l191.43-0.49C580.005,528.12,599.485,547.59,599.485,571.62z"/>
		<path fill="#E6E6E6" stroke="#E6E6E6" stroke-width="5" stroke-miterlimit="10" d="M585.43,574.586
			c0,13.899-7.114,26.138-17.904,33.279l-0.019,0.02l-137.612,94.623c-16.282,13.376-37.13,21.397-59.848,21.397
			c-52.12,0-94.376-42.256-94.376-94.375c0-52.121,42.256-94.376,94.376-94.376l175.502-0.449
			C567.569,534.705,585.43,552.556,585.43,574.586z"/>
		<rect x="124.5" y="385.5" fill="#999999" stroke="#999999" stroke-miterlimit="10" width="11" height="80"/>
		<rect x="124.5" y="465.5" fill="#999999" stroke="#999999" stroke-miterlimit="10" width="11" height="142"/>
		<rect x="124.5" y="454.5" fill="#999999" stroke="#999999" stroke-miterlimit="10" width="1292" height="11"/>
		<path fill="#999999" stroke="#999999" stroke-miterlimit="10" d="M143.485,458.5c0,5.522-4.735,10-10.577,10h-3.846
			c-5.842,0-10.577-4.478-10.577-10l0,0c0-5.522,4.735-10,10.577-10h3.846C138.75,448.5,143.485,452.978,143.485,458.5
			L143.485,458.5z"/>
		<path fill="#999999" stroke="#999999" stroke-width="5" stroke-miterlimit="10" d="M1278.5,460.44v94.119
			c0,5.49-4.465,9.94-9.955,9.94h-117.119c-5.49,0-9.926-4.45-9.926-9.94V460.44c0-5.49,4.436-9.94,9.926-9.94h43.3
			c-3.11,1.57-5.24,4.78-5.24,8.5c0.04,3.42,5.88,8.79,9.5,9.5c7.13,2.54,14.92,2.29,21,0c5.96-2.83,9.5-7,9.5-9.5
			c0-3.72-2.13-6.93-5.24-8.5h44.3C1274.035,450.5,1278.5,454.95,1278.5,460.44z"/>
		<path fill="#808080" stroke="#808080" stroke-width="5" stroke-miterlimit="10" d="M1267.5,547.146
			c0,4.614-3.74,8.354-8.354,8.354h-98.291c-4.614,0-8.354-3.74-8.354-8.354v-79.291c0-4.614,3.74-8.354,8.354-8.354h98.291
			c4.614,0,8.354,3.74,8.354,8.354V547.146z"/>
		<rect x="1203.5" y="469.5" fill="#999999" stroke="#999999" stroke-miterlimit="10" width="12" height="170"/>
		<rect x="1165.5" y="481.5" fill="#C8C8C8" stroke="#C8C8C8" stroke-width="5" stroke-miterlimit="10" width="88" height="72"/>
		<rect x="1207.5" y="481.5" fill="#808080" stroke="#808080" stroke-miterlimit="10" width="5" height="72"/>
		<rect x="1247.5" y="481.5" fill="#808080" stroke="#808080" stroke-miterlimit="10" width="4" height="72"/>
		<rect x="1167.5" y="481.5" fill="#808080" stroke="#808080" stroke-miterlimit="10" width="4" height="72"/>
		<path fill="#999999" stroke="#999999" stroke-width="5" stroke-miterlimit="10" d="M1229.485,459c0,2.5-3.54,6.67-9.5,9.5
			c-6.08,2.29-13.87,2.54-21,0c-3.62-0.71-9.46-6.08-9.5-9.5c0-3.72,2.138-6.93,5.247-8.5c1.141-0.57,2.768-0.92,3.768-0.99v-7.01
			c0-6.08,4.912-11,10.992-11c3.041,0,5.794,1.23,7.784,3.22c1.989,1.99,3.224,4.74,3.224,7.78v7.01c1,0.07,2.613,0.42,3.752,0.99
			C1227.363,452.07,1229.485,455.28,1229.485,459z"/>
		<rect x="1183" y="570" fill="none" stroke="#999999" stroke-width="8" stroke-miterlimit="10" width="53" height="25"/>
		<path fill="#999999" stroke="#999999" stroke-miterlimit="10" d="M1241.5,598.23v3.27h4v22h-12v13h6v6h-6v7h-4v-7h-3.375
			c-0.88,4.19-3.625,7.81-6.625,10.24V789.5h-20V652.74c-3-2.04-4.965-4.9-6.104-8.24h-3.896v5h-4v-5h-85.225
			c-1.62,1.84-3.99,3-6.641,3h-3.3c-4.89,0-8.835-3.96-8.835-8.85v-0.301c0-3.51,2-6.54,5-7.97V460.5h11v169.88
			c1,0.7,2.665,1.78,3.535,3.12h84.465v-10h-12v-22h4v-3.27c-2-0.74-4-2.91-4-5.48v-10.5c0-3.18,2.556-5.75,5.734-5.75h0.5
			c3.181,0,5.766,2.57,5.766,5.75v10.5c0,2.57-2,4.74-4,5.48v3.27h4v11h4v21h3.905c2.271-6.69,8.62-11.5,16.08-11.5
			c8.54,0,15.61,6.3,16.81,14.5h3.205v-24h4v-11h4v-3.27c-2-0.74-4-2.91-4-5.48v-10.5c0-3.18,2.556-5.75,5.734-5.75h0.5
			c3.181,0,5.766,2.57,5.766,5.75v10.5C1245.5,595.32,1243.5,597.49,1241.5,598.23z"/>
		<path fill="#999999" stroke="#999999" stroke-width="5" stroke-miterlimit="10" d="M1487.5,460.44v94.119
			c0,5.49-4.465,9.94-9.955,9.94h-117.119c-5.49,0-9.926-4.45-9.926-9.94V460.44c0-5.49,4.436-9.94,9.926-9.94h43.3
			c-3.11,1.57-5.24,4.78-5.24,8.5c0.04,3.42,5.88,8.79,9.5,9.5c7.13,2.54,14.92,2.29,21,0c5.96-2.83,9.5-7,9.5-9.5
			c0-3.72-2.13-6.93-5.24-8.5h44.3C1483.035,450.5,1487.5,454.95,1487.5,460.44z"/>
		<path fill="#808080" stroke="#808080" stroke-width="5" stroke-miterlimit="10" d="M1476.5,547.146
			c0,4.614-3.74,8.354-8.354,8.354h-98.291c-4.614,0-8.354-3.74-8.354-8.354v-79.291c0-4.614,3.74-8.354,8.354-8.354h98.291
			c4.614,0,8.354,3.74,8.354,8.354V547.146z"/>
		<rect x="1412.5" y="469.5" fill="#999999" stroke="#999999" stroke-miterlimit="10" width="12" height="170"/>
		<rect x="1374.5" y="481.5" fill="#C8C8C8" stroke="#C8C8C8" stroke-width="5" stroke-miterlimit="10" width="88" height="72"/>
		<rect x="1416.5" y="481.5" fill="#808080" stroke="#808080" stroke-miterlimit="10" width="5" height="72"/>
		<rect x="1456.5" y="481.5" fill="#808080" stroke="#808080" stroke-miterlimit="10" width="4" height="72"/>
		<rect x="1376.5" y="481.5" fill="#808080" stroke="#808080" stroke-miterlimit="10" width="4" height="72"/>
		<path fill="#999999" stroke="#999999" stroke-width="5" stroke-miterlimit="10" d="M1438.485,459c0,2.5-3.54,6.67-9.5,9.5
			c-6.08,2.29-13.87,2.54-21,0c-3.62-0.71-9.46-6.08-9.5-9.5c0-3.72,2.138-6.93,5.247-8.5c1.141-0.57,2.768-0.92,3.768-0.99v-7.01
			c0-6.08,4.912-11,10.992-11c3.041,0,5.793,1.23,7.784,3.22c1.989,1.99,3.224,4.74,3.224,7.78v7.01c1,0.07,2.613,0.42,3.752,0.99
			C1436.363,452.07,1438.485,455.28,1438.485,459z"/>
		<rect x="1392" y="570" fill="none" stroke="#999999" stroke-width="8" stroke-miterlimit="10" width="53" height="25"/>
		<path fill="#999999" stroke="#999999" stroke-miterlimit="10" d="M1450.5,598.23v3.27h4v22h-12v13h6v6h-6v7h-4v-7h-3.375
			c-0.88,4.19-3.625,7.81-6.625,10.24V789.5h-20V652.74c-3-2.04-4.965-4.9-6.104-8.24h-3.896v5h-4v-5h-85.225
			c-1.62,1.84-3.99,3-6.641,3h-3.299c-4.891,0-8.836-3.96-8.836-8.85v-0.301c0-3.51,2-6.54,5-7.97V460.5h11v169.88
			c1,0.7,2.665,1.78,3.535,3.12h84.465v-10h-12v-22h4v-3.27c-2-0.74-4-2.91-4-5.48v-10.5c0-3.18,2.556-5.75,5.734-5.75h0.5
			c3.181,0,5.766,2.57,5.766,5.75v10.5c0,2.57-2,4.74-4,5.48v3.27h4v11h4v21h3.905c2.271-6.69,8.62-11.5,16.08-11.5
			c8.54,0,15.61,6.3,16.81,14.5h3.205v-24h4v-11h4v-3.27c-2-0.74-4-2.91-4-5.48v-10.5c0-3.18,2.556-5.75,5.734-5.75h0.5
			c3.181,0,5.766,2.57,5.766,5.75v10.5C1454.5,595.32,1452.5,597.49,1450.5,598.23z"/>
		<path fill="#999999" stroke="#999999" stroke-miterlimit="10" d="M1610.5,418.917c0-1.887-2.098-3.417-4.43-3.417h-604.34
			c-2.33,0-4.23,1.53-4.23,3.417v0.166c0,1.887,1.9,3.417,4.23,3.417h604.34c2.332,0,4.43-1.53,4.43-3.417V418.917z"/>
		<line fill="none" stroke="#999999" stroke-width="5" stroke-miterlimit="10" x1="1209.5" y1="432" x2="1209.5" y2="418"/>
		<line fill="none" stroke="#999999" stroke-width="5" stroke-miterlimit="10" x1="1418.5" y1="432" x2="1418.5" y2="419"/>
		<path fill="#999999" stroke="#999999" stroke-miterlimit="10" d="M1610.5,614.348c0,3.121-1.567,5.652-3.5,5.652l0,0
			c-1.934,0-3.5-2.531-3.5-5.652V421.152c0-3.121,1.566-5.652,3.5-5.652l0,0c1.933,0,3.5,2.531,3.5,5.652V614.348z"/>
		<rect x="1638.5" y="440.5" fill="#999999" stroke="#999999" stroke-miterlimit="10" width="12" height="10"/>
		<rect x="1614.5" y="425.5" fill="#999999" stroke="#999999" stroke-miterlimit="10" width="4" height="37"/>
		<rect x="1614.5" y="425.5" fill="#999999" stroke="#999999" stroke-miterlimit="10" width="32" height="4"/>
		<rect x="1642.5" y="425.5" fill="#999999" stroke="#999999" stroke-miterlimit="10" width="4" height="19"/>
		<path fill="#999999" stroke="#999999" stroke-miterlimit="10" d="M1663.5,607.5v26c0,6.63-5.385,12-12.015,12h-0.985v144h-12v-144
			c-7,0-12-5.37-12-12v-26c0-4.85,3-9.02,7-10.92V450.5h22v145.69C1660.5,597.83,1663.5,602.27,1663.5,607.5z"/>
		<path fill="#999999" stroke="#999999" stroke-miterlimit="10" d="M1654.544,613.5c0.796,0,1.441,1.567,1.441,3.5l0,0
			c0,1.933-0.646,3.5-1.441,3.5h-49.243c-0.795,0-1.44-1.567-1.44-3.5l0,0c0-1.933,0.646-3.5,1.44-3.5H1654.544z"/>
		<path fill="#999999" stroke="#999999" stroke-miterlimit="10" d="M1615.5,616.5c0,3.313-2.687,6-6,6h-4c-3.313,0-6-2.687-6-6l0,0
			c0-3.313,2.687-6,6-6h4C1612.813,610.5,1615.5,613.187,1615.5,616.5L1615.5,616.5z"/>
		<rect x="1186.5" y="789.5" fill="#333333" stroke="#333333" stroke-miterlimit="10" width="47" height="4"/>
		<rect x="976.5" y="789.5" fill="#333333" stroke="#333333" stroke-miterlimit="10" width="47" height="4"/>
		<rect x="1395.5" y="789.5" fill="#333333" stroke="#333333" stroke-miterlimit="10" width="47" height="4"/>
		<rect x="1621.5" y="789.5" fill="#333333" stroke="#333333" stroke-miterlimit="10" width="47" height="4"/>
		<rect x="113.5" y="789.5" fill="#333333" stroke="#333333" stroke-miterlimit="10" width="431" height="4"/>
		<rect x="1416.5" y="462.5" fill="#999999" stroke="#999999" stroke-miterlimit="10" width="202" height="6"/>
		<g>
			<path fill="#808080" stroke="#808080" stroke-miterlimit="10" d="M146.5,107.009c0,9.976,0,28.592,0,37.055
				c0,7.66,4.55,6.436,7.473,6.436c8.001,0,85.878,0,85.878,0c2.349-1,2.783-3.132,2.789-4.287c0-6.592-3.377-7.488-3.377-7.488
				l-85.29-34.207c0,0-3.951-2.035-5.865-2.317C146.566,102.201,146.5,103.984,146.5,107.009z"/>
			<path fill="#E6E6E6" stroke="#999999" stroke-width="0.25" stroke-miterlimit="10" d="M163.683,115.141
				c0,0,3.848-0.019,6.49-0.019s2.814,3.384,3.967,5.794c1.22,2.287,3.601,1.696,6.508,0c2.418-1.689,13.474-10.216,13.474-10.216
				s2.196-2.033,0.011-5.286C182.798,92.099,163.683,92.2,163.683,92.2s-19.18-0.102-30.514,13.214
				c-2.186,3.252,0.018,5.286,0.018,5.286s11.059,8.527,13.477,10.216c2.908,1.696,5.291,2.287,6.51,0
				c1.152-2.41,1.326-5.794,3.969-5.794S163.683,115.141,163.683,115.141z"/>
			<rect x="160.5" y="147.5" fill="#808080" stroke="#808080" stroke-miterlimit="10" width="7" height="23"/>
			<circle fill="#999999" stroke="#999999" stroke-width="0.25" stroke-miterlimit="10" cx="163.651" cy="133.342" r="13.846"/>
			<rect x="193.5" y="134.5" fill="#999999" stroke="#999999" stroke-miterlimit="10" width="44" height="20"/>
			<rect x="206.5" y="136.5" fill="#C8C8C8" stroke="#C8C8C8" stroke-miterlimit="10" width="23" height="2"/>
			<rect x="206.5" y="150.5" fill="#C8C8C8" stroke="#C8C8C8" stroke-miterlimit="10" width="23" height="2"/>
			<rect x="201.5" y="131.5" fill="#C8C8C8" stroke="#999999" stroke-miterlimit="10" width="5" height="27"/>
			<rect x="229.5" y="131.5" fill="#C8C8C8" stroke="#999999" stroke-miterlimit="10" width="5" height="27"/>
			<rect x="199.5" y="135.5" fill="#C8C8C8" stroke="#C8C8C8" stroke-miterlimit="10" width="1" height="4"/>
			<rect x="235.5" y="135.5" fill="#C8C8C8" stroke="#C8C8C8" stroke-miterlimit="10" width="1" height="4"/>
			<path fill="#999999" stroke="#999999" stroke-miterlimit="10" d="M247.711,144.702c0,3.284-2.662,5.949-5.946,5.949
				c-0.461,0-0.906-0.15-1.336-0.15H237.5v-12h2.929c0.43,0,0.875,0.052,1.336,0.052
				C245.049,138.552,247.711,141.417,247.711,144.702z"/>
			<path fill="#C8C8C8" stroke="#C8C8C8" stroke-miterlimit="10" d="M192.5,142.5v5h-31.401c-3.133,0-5.765,0.336-6.555,0.62
				c-0.157,0.058-0.242,0.182-0.242,0.243c-0.652,0.442-1.439,0.73-2.286,0.73c-2.265,0-4.099-1.827-4.099-4.101
				c0-2.275,1.834-4.109,4.099-4.109c0.847,0,1.634,0.26,2.286,0.703c0,0.061,0.082,0.243,0.24,0.297
				c0.792,0.287,3.448,0.618,6.605,0.618H192.5z"/>
			<polygon fill="#333333" stroke="#333333" stroke-width="0.25" stroke-miterlimit="10" points="157.797,146.25 202.28,101.422 
				195.497,94.585 151.014,139.414 147.013,150.282 			"/>
			<path fill="#C1272D" stroke="#C1272D" stroke-miterlimit="10" d="M230.697,66.343c2.799,2.799,3.058,7.078,0.577,9.558
				l-27.323,27.324l-10.135-10.135l27.323-27.324C223.62,63.286,227.898,63.544,230.697,66.343z"/>
			<circle fill="#C8C8C8" stroke="#C8C8C8" stroke-width="0.25" stroke-miterlimit="10" cx="163.651" cy="133.342" r="3.02"/>
			<circle fill="#C8C8C8" stroke="#C8C8C8" stroke-width="0.25" stroke-miterlimit="10" cx="149.747" cy="117.942" r="3.049"/>
			<circle fill="#C8C8C8" stroke="#C8C8C8" stroke-width="0.25" stroke-miterlimit="10" cx="242.451" cy="144.702" r="2.973"/>
			<circle fill="#C8C8C8" stroke="#C8C8C8" stroke-width="0.25" stroke-miterlimit="10" cx="152.11" cy="145.007" r="2.439"/>
			<rect x="199.5" y="149.5" fill="#C8C8C8" stroke="#C8C8C8" stroke-miterlimit="10" width="1" height="4"/>
			<rect x="235.5" y="149.5" fill="#C8C8C8" stroke="#C8C8C8" stroke-miterlimit="10" width="1" height="4"/>
		</g>
		<g>
			<path fill="#808080" stroke="#808080" stroke-miterlimit="10" d="M806.5,324.01c0,9.976,0,28.592,0,37.055
				c0,7.66,4.55,6.436,7.473,6.436c8.001,0,85.878,0,85.878,0c2.349-1,2.783-3.132,2.789-4.287c0-6.592-3.377-7.488-3.377-7.488
				l-85.29-34.207c0,0-3.951-2.034-5.865-2.316C806.566,319.201,806.5,320.984,806.5,324.01z"/>
			<path fill="#E6E6E6" stroke="#999999" stroke-width="0.25" stroke-miterlimit="10" d="M823.683,332.141
				c0,0,3.848-0.019,6.49-0.019s2.814,3.384,3.967,5.794c1.22,2.287,3.601,1.695,6.508,0c2.418-1.689,13.474-10.216,13.474-10.216
				s2.196-2.033,0.011-5.286c-11.334-13.315-30.449-13.214-30.449-13.214s-19.18-0.102-30.514,13.214
				c-2.186,3.253,0.018,5.286,0.018,5.286s11.059,8.526,13.477,10.216c2.908,1.695,5.291,2.287,6.51,0
				c1.152-2.41,1.326-5.794,3.969-5.794S823.683,332.141,823.683,332.141z"/>
			<rect x="820.5" y="364.5" fill="#808080" stroke="#808080" stroke-miterlimit="10" width="7" height="23"/>
			<circle fill="#999999" stroke="#999999" stroke-width="0.25" stroke-miterlimit="10" cx="823.651" cy="350.342" r="13.846"/>
			<rect x="853.5" y="351.5" fill="#999999" stroke="#999999" stroke-miterlimit="10" width="44" height="20"/>
			<rect x="866.5" y="353.5" fill="#C8C8C8" stroke="#C8C8C8" stroke-miterlimit="10" width="23" height="2"/>
			<rect x="866.5" y="367.5" fill="#C8C8C8" stroke="#C8C8C8" stroke-miterlimit="10" width="23" height="2"/>
			<rect x="861.5" y="348.5" fill="#C8C8C8" stroke="#999999" stroke-miterlimit="10" width="5" height="27"/>
			<rect x="889.5" y="348.5" fill="#C8C8C8" stroke="#999999" stroke-miterlimit="10" width="5" height="27"/>
			<rect x="859.5" y="352.5" fill="#C8C8C8" stroke="#C8C8C8" stroke-miterlimit="10" width="1" height="4"/>
			<rect x="895.5" y="352.5" fill="#C8C8C8" stroke="#C8C8C8" stroke-miterlimit="10" width="1" height="4"/>
			<path fill="#999999" stroke="#999999" stroke-miterlimit="10" d="M907.711,361.701c0,3.285-2.662,5.949-5.946,5.949
				c-0.461,0-0.906-0.15-1.336-0.15H897.5v-12h2.929c0.43,0,0.875,0.052,1.336,0.052
				C905.049,355.552,907.711,358.418,907.711,361.701z"/>
			<path fill="#C8C8C8" stroke="#C8C8C8" stroke-miterlimit="10" d="M852.5,359.5v5h-31.401c-3.133,0-5.765,0.336-6.555,0.619
				c-0.157,0.059-0.242,0.183-0.242,0.243c-0.652,0.442-1.439,0.729-2.286,0.729c-2.265,0-4.099-1.826-4.099-4.101
				s1.834-4.109,4.099-4.109c0.847,0,1.634,0.261,2.286,0.702c0,0.062,0.082,0.243,0.24,0.298c0.792,0.287,3.448,0.618,6.605,0.618
				H852.5z"/>
			<polygon fill="#333333" stroke="#333333" stroke-width="0.25" stroke-miterlimit="10" points="817.797,363.25 862.28,318.422 
				855.497,311.586 811.014,356.414 807.013,367.281 			"/>
			<path fill="#C1272D" stroke="#C1272D" stroke-width="0.25" stroke-miterlimit="10" d="M890.697,283.343
				c2.799,2.799,3.058,7.077,0.577,9.558l-27.323,27.324l-10.135-10.135l27.323-27.324
				C883.62,280.286,887.898,280.544,890.697,283.343z"/>
			<circle fill="#C8C8C8" stroke="#C8C8C8" stroke-width="0.25" stroke-miterlimit="10" cx="823.651" cy="350.342" r="3.02"/>
			<circle fill="#C8C8C8" stroke="#C8C8C8" stroke-width="0.25" stroke-miterlimit="10" cx="809.747" cy="334.942" r="3.049"/>
			<circle fill="#C8C8C8" stroke="#C8C8C8" stroke-width="0.25" stroke-miterlimit="10" cx="902.451" cy="361.701" r="2.973"/>
			<circle fill="#C8C8C8" stroke="#C8C8C8" stroke-width="0.25" stroke-miterlimit="10" cx="812.11" cy="362.007" r="2.439"/>
			<rect x="859.5" y="366.5" fill="#C8C8C8" stroke="#C8C8C8" stroke-miterlimit="10" width="1" height="4"/>
			<rect x="895.5" y="366.5" fill="#C8C8C8" stroke="#C8C8C8" stroke-miterlimit="10" width="1" height="4"/>
			<rect x="800.5" y="380.5" fill="#333333" stroke="#333333" stroke-miterlimit="10" width="47" height="4"/>
		</g>
		<g>
			<path fill="#808080" stroke="#808080" stroke-miterlimit="10" d="M962.5,324.01c0,9.976,0,28.592,0,37.055
				c0,7.66,4.55,6.436,7.473,6.436c8.001,0,85.877,0,85.877,0c2.35-1,2.783-3.132,2.79-4.287c0-6.592-3.377-7.488-3.377-7.488
				l-85.29-34.207c0,0-3.951-2.034-5.865-2.316C962.566,319.201,962.5,320.984,962.5,324.01z"/>
			<path fill="#E6E6E6" stroke="#999999" stroke-width="0.25" stroke-miterlimit="10" d="M979.683,332.141
				c0,0,3.848-0.019,6.49-0.019s2.814,3.384,3.967,5.794c1.22,2.287,3.601,1.695,6.508,0c2.418-1.689,13.474-10.216,13.474-10.216
				s2.196-2.033,0.011-5.286c-11.334-13.315-30.449-13.214-30.449-13.214s-19.18-0.102-30.514,13.214
				c-2.186,3.253,0.018,5.286,0.018,5.286s11.059,8.526,13.477,10.216c2.908,1.695,5.291,2.287,6.51,0
				c1.152-2.41,1.326-5.794,3.969-5.794S979.683,332.141,979.683,332.141z"/>
			<rect x="976.5" y="364.5" fill="#808080" stroke="#808080" stroke-miterlimit="10" width="7" height="23"/>
			<circle fill="#999999" stroke="#999999" stroke-width="0.25" stroke-miterlimit="10" cx="979.651" cy="350.342" r="13.846"/>
			<rect x="1009.5" y="351.5" fill="#999999" stroke="#999999" stroke-miterlimit="10" width="44" height="20"/>
			<rect x="1022.5" y="353.5" fill="#C8C8C8" stroke="#C8C8C8" stroke-miterlimit="10" width="23" height="2"/>
			<rect x="1022.5" y="367.5" fill="#C8C8C8" stroke="#C8C8C8" stroke-miterlimit="10" width="23" height="2"/>
			<rect x="1017.5" y="348.5" fill="#C8C8C8" stroke="#999999" stroke-miterlimit="10" width="5" height="27"/>
			<rect x="1045.5" y="348.5" fill="#C8C8C8" stroke="#999999" stroke-miterlimit="10" width="5" height="27"/>
			<rect x="1015.5" y="352.5" fill="#C8C8C8" stroke="#C8C8C8" stroke-miterlimit="10" width="1" height="4"/>
			<rect x="1051.5" y="352.5" fill="#C8C8C8" stroke="#C8C8C8" stroke-miterlimit="10" width="1" height="4"/>
			<path fill="#999999" stroke="#999999" stroke-miterlimit="10" d="M1063.711,361.701c0,3.285-2.662,5.949-5.946,5.949
				c-0.461,0-0.906-0.15-1.336-0.15h-2.929v-12h2.929c0.43,0,0.875,0.052,1.336,0.052
				C1061.049,355.552,1063.711,358.418,1063.711,361.701z"/>
			<path fill="#C8C8C8" stroke="#C8C8C8" stroke-miterlimit="10" d="M1008.5,359.5v5h-31.401c-3.133,0-5.765,0.336-6.555,0.619
				c-0.157,0.059-0.242,0.183-0.242,0.243c-0.652,0.442-1.439,0.729-2.286,0.729c-2.265,0-4.099-1.826-4.099-4.101
				s1.834-4.109,4.099-4.109c0.847,0,1.634,0.261,2.286,0.702c0,0.062,0.082,0.243,0.24,0.298c0.792,0.287,3.448,0.618,6.605,0.618
				H1008.5z"/>
			<polygon fill="#333333" stroke="#333333" stroke-width="0.25" stroke-miterlimit="10" points="973.797,363.25 1018.28,318.422 
				1011.497,311.586 967.014,356.414 963.013,367.281 			"/>
			<path fill="#C1272D" stroke="#C1272D" stroke-width="0.25" stroke-miterlimit="10" d="M1046.697,283.343
				c2.799,2.799,3.058,7.077,0.577,9.558l-27.323,27.324l-10.135-10.135l27.323-27.324
				C1039.62,280.286,1043.898,280.544,1046.697,283.343z"/>
			<circle fill="#C8C8C8" stroke="#C8C8C8" stroke-width="0.25" stroke-miterlimit="10" cx="979.651" cy="350.342" r="3.02"/>
			<circle fill="#C8C8C8" stroke="#C8C8C8" stroke-width="0.25" stroke-miterlimit="10" cx="965.747" cy="334.942" r="3.049"/>
			<circle fill="#C8C8C8" stroke="#C8C8C8" stroke-width="0.25" stroke-miterlimit="10" cx="1058.451" cy="361.701" r="2.973"/>
			<circle fill="#C8C8C8" stroke="#C8C8C8" stroke-width="0.25" stroke-miterlimit="10" cx="968.11" cy="362.007" r="2.439"/>
			<rect x="1015.5" y="366.5" fill="#C8C8C8" stroke="#C8C8C8" stroke-miterlimit="10" width="1" height="4"/>
			<rect x="1051.5" y="366.5" fill="#C8C8C8" stroke="#C8C8C8" stroke-miterlimit="10" width="1" height="4"/>
			<rect x="956.5" y="380.5" fill="#333333" stroke="#333333" stroke-miterlimit="10" width="47" height="4"/>
		</g>
		<g>
			<path fill="#808080" stroke="#808080" stroke-miterlimit="10" d="M1118.5,324.01c0,9.976,0,28.592,0,37.055
				c0,7.66,4.549,6.436,7.473,6.436c8.001,0,85.877,0,85.877,0c2.35-1,2.783-3.132,2.79-4.287c0-6.592-3.377-7.488-3.377-7.488
				l-85.29-34.207c0,0-3.951-2.034-5.865-2.316C1118.566,319.201,1118.5,320.984,1118.5,324.01z"/>
			<path fill="#E6E6E6" stroke="#999999" stroke-width="0.25" stroke-miterlimit="10" d="M1135.682,332.141
				c0,0,3.849-0.019,6.491-0.019c2.642,0,2.814,3.384,3.967,5.794c1.22,2.287,3.601,1.695,6.508,0
				c2.418-1.689,13.474-10.216,13.474-10.216s2.196-2.033,0.011-5.286c-11.334-13.315-30.45-13.214-30.45-13.214
				s-19.179-0.102-30.514,13.214c-2.186,3.253,0.019,5.286,0.019,5.286s11.059,8.526,13.477,10.216c2.908,1.695,5.291,2.287,6.51,0
				c1.152-2.41,1.326-5.794,3.969-5.794C1131.783,332.122,1135.682,332.141,1135.682,332.141z"/>
			<rect x="1132.5" y="364.5" fill="#808080" stroke="#808080" stroke-miterlimit="10" width="7" height="23"/>
			<circle fill="#999999" stroke="#999999" stroke-width="0.25" stroke-miterlimit="10" cx="1135.651" cy="350.342" r="13.846"/>
			<rect x="1165.5" y="351.5" fill="#999999" stroke="#999999" stroke-miterlimit="10" width="44" height="20"/>
			<rect x="1178.5" y="353.5" fill="#C8C8C8" stroke="#C8C8C8" stroke-miterlimit="10" width="23" height="2"/>
			<rect x="1178.5" y="367.5" fill="#C8C8C8" stroke="#C8C8C8" stroke-miterlimit="10" width="23" height="2"/>
			<rect x="1173.5" y="348.5" fill="#C8C8C8" stroke="#999999" stroke-miterlimit="10" width="5" height="27"/>
			<rect x="1201.485" y="348.5" fill="#C8C8C8" stroke="#999999" stroke-miterlimit="10" width="5" height="27"/>
			<rect x="1171.5" y="352.5" fill="#C8C8C8" stroke="#C8C8C8" stroke-miterlimit="10" width="1" height="4"/>
			<rect x="1207.5" y="352.5" fill="#C8C8C8" stroke="#C8C8C8" stroke-miterlimit="10" width="1" height="4"/>
			<path fill="#999999" stroke="#999999" stroke-miterlimit="10" d="M1219.711,361.701c0,3.285-2.662,5.949-5.946,5.949
				c-0.461,0-0.906-0.15-1.336-0.15h-2.929v-12h2.929c0.43,0,0.875,0.052,1.336,0.052
				C1217.049,355.552,1219.711,358.418,1219.711,361.701z"/>
			<path fill="#C8C8C8" stroke="#C8C8C8" stroke-miterlimit="10" d="M1164.5,359.5v5h-31.402c-3.133,0-5.764,0.336-6.554,0.619
				c-0.157,0.059-0.243,0.183-0.243,0.243c-0.651,0.442-1.438,0.729-2.285,0.729c-2.265,0-4.099-1.826-4.099-4.101
				s1.834-4.109,4.099-4.109c0.847,0,1.634,0.261,2.285,0.702c0,0.062,0.083,0.243,0.241,0.298c0.792,0.287,3.448,0.618,6.605,0.618
				H1164.5z"/>
			<polygon fill="#333333" stroke="#333333" stroke-width="0.25" stroke-miterlimit="10" points="1129.797,363.25 1174.28,318.422 
				1167.497,311.586 1123.014,356.414 1119.013,367.281 			"/>
			<path fill="#C1272D" stroke="#C1272D" stroke-width="0.25" stroke-miterlimit="10" d="M1202.697,283.343
				c2.799,2.799,3.058,7.077,0.577,9.558l-27.323,27.324l-10.135-10.135l27.323-27.324
				C1195.62,280.286,1199.898,280.544,1202.697,283.343z"/>
			<circle fill="#C8C8C8" stroke="#C8C8C8" stroke-width="0.25" stroke-miterlimit="10" cx="1135.651" cy="350.342" r="3.02"/>
			<circle fill="#C8C8C8" stroke="#C8C8C8" stroke-width="0.25" stroke-miterlimit="10" cx="1121.747" cy="334.942" r="3.049"/>
			<circle fill="#C8C8C8" stroke="#C8C8C8" stroke-width="0.25" stroke-miterlimit="10" cx="1214.451" cy="361.701" r="2.973"/>
			<circle fill="#C8C8C8" stroke="#C8C8C8" stroke-width="0.25" stroke-miterlimit="10" cx="1124.11" cy="362.007" r="2.439"/>
			<rect x="1171.5" y="366.5" fill="#C8C8C8" stroke="#C8C8C8" stroke-miterlimit="10" width="1" height="4"/>
			<rect x="1207.5" y="366.5" fill="#C8C8C8" stroke="#C8C8C8" stroke-miterlimit="10" width="1" height="4"/>
			<rect x="1112.5" y="380.5" fill="#333333" stroke="#333333" stroke-miterlimit="10" width="47" height="4"/>
		</g>
		<g>
			<path fill="#808080" stroke="#808080" stroke-miterlimit="10" d="M1274.5,324.01c0,9.976,0,28.592,0,37.055
				c0,7.66,4.549,6.436,7.473,6.436c8.001,0,85.877,0,85.877,0c2.35-1,2.783-3.132,2.79-4.287c0-6.592-3.377-7.488-3.377-7.488
				l-85.29-34.207c0,0-3.951-2.034-5.865-2.316C1274.566,319.201,1274.5,320.984,1274.5,324.01z"/>
			<path fill="#E6E6E6" stroke="#999999" stroke-width="0.25" stroke-miterlimit="10" d="M1291.682,332.141
				c0,0,3.849-0.019,6.491-0.019c2.642,0,2.814,3.384,3.967,5.794c1.22,2.287,3.601,1.695,6.508,0
				c2.418-1.689,13.474-10.216,13.474-10.216s2.196-2.033,0.011-5.286c-11.334-13.315-30.45-13.214-30.45-13.214
				s-19.179-0.102-30.514,13.214c-2.186,3.253,0.019,5.286,0.019,5.286s11.059,8.526,13.477,10.216c2.908,1.695,5.291,2.287,6.51,0
				c1.152-2.41,1.326-5.794,3.969-5.794C1287.783,332.122,1291.682,332.141,1291.682,332.141z"/>
			<rect x="1288.5" y="364.5" fill="#808080" stroke="#808080" stroke-miterlimit="10" width="7" height="23"/>
			<circle fill="#999999" stroke="#999999" stroke-width="0.25" stroke-miterlimit="10" cx="1291.651" cy="350.342" r="13.846"/>
			<rect x="1321.5" y="351.5" fill="#999999" stroke="#999999" stroke-miterlimit="10" width="44" height="20"/>
			<rect x="1334.5" y="353.5" fill="#C8C8C8" stroke="#C8C8C8" stroke-miterlimit="10" width="23" height="2"/>
			<rect x="1334.5" y="367.5" fill="#C8C8C8" stroke="#C8C8C8" stroke-miterlimit="10" width="23" height="2"/>
			<rect x="1329.5" y="348.5" fill="#C8C8C8" stroke="#999999" stroke-miterlimit="10" width="5" height="27"/>
			<rect x="1357.5" y="348.5" fill="#C8C8C8" stroke="#999999" stroke-miterlimit="10" width="5" height="27"/>
			<rect x="1327.5" y="352.5" fill="#C8C8C8" stroke="#C8C8C8" stroke-miterlimit="10" width="1" height="4"/>
			<rect x="1363.5" y="352.5" fill="#C8C8C8" stroke="#C8C8C8" stroke-miterlimit="10" width="1" height="4"/>
			<path fill="#999999" stroke="#999999" stroke-miterlimit="10" d="M1375.711,361.701c0,3.285-2.662,5.949-5.946,5.949
				c-0.461,0-0.906-0.15-1.336-0.15h-2.929v-12h2.929c0.43,0,0.875,0.052,1.336,0.052
				C1373.049,355.552,1375.711,358.418,1375.711,361.701z"/>
			<path fill="#C8C8C8" stroke="#C8C8C8" stroke-miterlimit="10" d="M1320.5,359.5v5h-31.402c-3.133,0-5.764,0.336-6.554,0.619
				c-0.157,0.059-0.243,0.183-0.243,0.243c-0.651,0.442-1.438,0.729-2.285,0.729c-2.265,0-4.099-1.826-4.099-4.101
				s1.834-4.109,4.099-4.109c0.847,0,1.634,0.261,2.285,0.702c0,0.062,0.083,0.243,0.241,0.298c0.792,0.287,3.448,0.618,6.605,0.618
				H1320.5z"/>
			<polygon fill="#333333" stroke="#333333" stroke-width="0.25" stroke-miterlimit="10" points="1285.797,363.25 1330.28,318.422 
				1323.497,311.586 1279.014,356.414 1275.013,367.281 			"/>
			<path fill="#C1272D" stroke="#C1272D" stroke-width="0.25" stroke-miterlimit="10" d="M1358.697,283.343
				c2.799,2.799,3.058,7.077,0.577,9.558l-27.323,27.324l-10.135-10.135l27.323-27.324
				C1351.62,280.286,1355.898,280.544,1358.697,283.343z"/>
			<circle fill="#C8C8C8" stroke="#C8C8C8" stroke-width="0.25" stroke-miterlimit="10" cx="1291.651" cy="350.342" r="3.02"/>
			<circle fill="#C8C8C8" stroke="#C8C8C8" stroke-width="0.25" stroke-miterlimit="10" cx="1277.747" cy="334.942" r="3.049"/>
			<circle fill="#C8C8C8" stroke="#C8C8C8" stroke-width="0.25" stroke-miterlimit="10" cx="1370.451" cy="361.701" r="2.973"/>
			<circle fill="#C8C8C8" stroke="#C8C8C8" stroke-width="0.25" stroke-miterlimit="10" cx="1280.11" cy="362.007" r="2.439"/>
			<rect x="1327.5" y="366.5" fill="#C8C8C8" stroke="#C8C8C8" stroke-miterlimit="10" width="1" height="4"/>
			<rect x="1363.5" y="366.5" fill="#C8C8C8" stroke="#C8C8C8" stroke-miterlimit="10" width="1" height="4"/>
			<rect x="1268.5" y="380.5" fill="#333333" stroke="#333333" stroke-miterlimit="10" width="47" height="4"/>
		</g>
		<g>
			<path fill="#808080" stroke="#808080" stroke-miterlimit="10" d="M1430.5,324.01c0,9.976,0,28.592,0,37.055
				c0,7.66,4.549,6.436,7.473,6.436c8.001,0,85.877,0,85.877,0c2.35-1,2.783-3.132,2.79-4.287c0-6.592-3.377-7.488-3.377-7.488
				l-85.29-34.207c0,0-3.951-2.034-5.865-2.316C1430.566,319.201,1430.5,320.984,1430.5,324.01z"/>
			<path fill="#E6E6E6" stroke="#999999" stroke-width="0.25" stroke-miterlimit="10" d="M1447.682,332.141
				c0,0,3.849-0.019,6.491-0.019c2.642,0,2.814,3.384,3.967,5.794c1.22,2.287,3.601,1.695,6.508,0
				c2.418-1.689,13.474-10.216,13.474-10.216s2.196-2.033,0.011-5.286c-11.334-13.315-30.45-13.214-30.45-13.214
				s-19.179-0.102-30.514,13.214c-2.186,3.253,0.019,5.286,0.019,5.286s11.059,8.526,13.477,10.216c2.908,1.695,5.291,2.287,6.51,0
				c1.152-2.41,1.326-5.794,3.969-5.794C1443.783,332.122,1447.682,332.141,1447.682,332.141z"/>
			<rect x="1444.5" y="364.5" fill="#808080" stroke="#808080" stroke-miterlimit="10" width="7" height="23"/>
			<circle fill="#999999" stroke="#999999" stroke-width="0.25" stroke-miterlimit="10" cx="1447.651" cy="350.342" r="13.846"/>
			<rect x="1477.5" y="351.5" fill="#999999" stroke="#999999" stroke-miterlimit="10" width="44" height="20"/>
			<rect x="1490.5" y="353.5" fill="#C8C8C8" stroke="#C8C8C8" stroke-miterlimit="10" width="23" height="2"/>
			<rect x="1490.5" y="367.5" fill="#C8C8C8" stroke="#C8C8C8" stroke-miterlimit="10" width="23" height="2"/>
			<rect x="1485.5" y="348.5" fill="#C8C8C8" stroke="#999999" stroke-miterlimit="10" width="5" height="27"/>
			<rect x="1513.5" y="348.5" fill="#C8C8C8" stroke="#999999" stroke-miterlimit="10" width="5" height="27"/>
			<rect x="1483.5" y="352.5" fill="#C8C8C8" stroke="#C8C8C8" stroke-miterlimit="10" width="1" height="4"/>
			<rect x="1519.5" y="352.5" fill="#C8C8C8" stroke="#C8C8C8" stroke-miterlimit="10" width="1" height="4"/>
			<path fill="#999999" stroke="#999999" stroke-miterlimit="10" d="M1531.711,361.701c0,3.285-2.662,5.949-5.946,5.949
				c-0.461,0-0.906-0.15-1.336-0.15h-2.929v-12h2.929c0.43,0,0.875,0.052,1.336,0.052
				C1529.049,355.552,1531.711,358.418,1531.711,361.701z"/>
			<path fill="#C8C8C8" stroke="#C8C8C8" stroke-miterlimit="10" d="M1476.5,359.5v5h-31.402c-3.133,0-5.764,0.336-6.554,0.619
				c-0.157,0.059-0.243,0.183-0.243,0.243c-0.651,0.442-1.438,0.729-2.285,0.729c-2.265,0-4.099-1.826-4.099-4.101
				s1.834-4.109,4.099-4.109c0.847,0,1.634,0.261,2.285,0.702c0,0.062,0.083,0.243,0.241,0.298c0.792,0.287,3.448,0.618,6.605,0.618
				H1476.5z"/>
			<polygon fill="#333333" stroke="#333333" stroke-width="0.25" stroke-miterlimit="10" points="1441.797,363.25 1486.28,318.422 
				1479.497,311.586 1435.014,356.414 1431.013,367.281 			"/>
			<path fill="#C1272D" stroke="#C1272D" stroke-width="0.25" stroke-miterlimit="10" d="M1514.697,283.343
				c2.799,2.799,3.058,7.077,0.577,9.558l-27.323,27.324l-10.135-10.135l27.323-27.324
				C1507.62,280.286,1511.898,280.544,1514.697,283.343z"/>
			<circle fill="#C8C8C8" stroke="#C8C8C8" stroke-width="0.25" stroke-miterlimit="10" cx="1447.651" cy="350.342" r="3.02"/>
			<circle fill="#C8C8C8" stroke="#C8C8C8" stroke-width="0.25" stroke-miterlimit="10" cx="1433.747" cy="334.942" r="3.049"/>
			<circle fill="#C8C8C8" stroke="#C8C8C8" stroke-width="0.25" stroke-miterlimit="10" cx="1526.451" cy="361.701" r="2.973"/>
			<circle fill="#C8C8C8" stroke="#C8C8C8" stroke-width="0.25" stroke-miterlimit="10" cx="1436.11" cy="362.007" r="2.439"/>
			<rect x="1483.5" y="366.5" fill="#C8C8C8" stroke="#C8C8C8" stroke-miterlimit="10" width="1" height="4"/>
			<rect x="1519.5" y="366.5" fill="#C8C8C8" stroke="#C8C8C8" stroke-miterlimit="10" width="1" height="4"/>
			<rect x="1424.5" y="380.5" fill="#333333" stroke="#333333" stroke-miterlimit="10" width="47" height="4"/>
		</g>
		<g>
			<path fill="#808080" stroke="#808080" stroke-miterlimit="10" d="M1586.5,324.01c0,9.976,0,28.592,0,37.055
				c0,7.66,4.549,6.436,7.473,6.436c8.001,0,85.877,0,85.877,0c2.35-1,2.783-3.132,2.79-4.287c0-6.592-3.377-7.488-3.377-7.488
				l-85.29-34.207c0,0-3.951-2.034-5.865-2.316C1586.566,319.201,1586.5,320.984,1586.5,324.01z"/>
			<path fill="#E6E6E6" stroke="#999999" stroke-width="0.25" stroke-miterlimit="10" d="M1603.682,332.141
				c0,0,3.849-0.019,6.491-0.019c2.642,0,2.814,3.384,3.967,5.794c1.22,2.287,3.601,1.695,6.508,0
				c2.418-1.689,13.474-10.216,13.474-10.216s2.196-2.033,0.011-5.286c-11.334-13.315-30.45-13.214-30.45-13.214
				s-19.18-0.102-30.514,13.214c-2.186,3.253,0.019,5.286,0.019,5.286s11.059,8.526,13.477,10.216c2.908,1.695,5.291,2.287,6.51,0
				c1.152-2.41,1.326-5.794,3.969-5.794C1599.783,332.122,1603.682,332.141,1603.682,332.141z"/>
			<rect x="1600.5" y="364.5" fill="#808080" stroke="#808080" stroke-miterlimit="10" width="7" height="23"/>
			<circle fill="#999999" stroke="#999999" stroke-width="0.25" stroke-miterlimit="10" cx="1603.651" cy="350.342" r="13.846"/>
			<rect x="1633.5" y="351.5" fill="#999999" stroke="#999999" stroke-miterlimit="10" width="44" height="20"/>
			<rect x="1646.5" y="353.5" fill="#C8C8C8" stroke="#C8C8C8" stroke-miterlimit="10" width="23" height="2"/>
			<rect x="1646.5" y="367.5" fill="#C8C8C8" stroke="#C8C8C8" stroke-miterlimit="10" width="23" height="2"/>
			<rect x="1641.5" y="348.5" fill="#C8C8C8" stroke="#999999" stroke-miterlimit="10" width="5" height="27"/>
			<rect x="1669.5" y="348.5" fill="#C8C8C8" stroke="#999999" stroke-miterlimit="10" width="5" height="27"/>
			<rect x="1639.5" y="352.5" fill="#C8C8C8" stroke="#C8C8C8" stroke-miterlimit="10" width="1" height="4"/>
			<rect x="1675.5" y="352.5" fill="#C8C8C8" stroke="#C8C8C8" stroke-miterlimit="10" width="1" height="4"/>
			<path fill="#999999" stroke="#999999" stroke-miterlimit="10" d="M1687.711,361.701c0,3.285-2.662,5.949-5.946,5.949
				c-0.461,0-0.906-0.15-1.336-0.15h-2.929v-12h2.929c0.43,0,0.875,0.052,1.336,0.052
				C1685.049,355.552,1687.711,358.418,1687.711,361.701z"/>
			<path fill="#C8C8C8" stroke="#C8C8C8" stroke-miterlimit="10" d="M1632.5,359.5v5h-31.402c-3.133,0-5.764,0.336-6.554,0.619
				c-0.157,0.059-0.243,0.183-0.243,0.243c-0.651,0.442-1.438,0.729-2.285,0.729c-2.264,0-4.099-1.826-4.099-4.101
				s1.835-4.109,4.099-4.109c0.847,0,1.634,0.261,2.285,0.702c0,0.062,0.083,0.243,0.241,0.298c0.792,0.287,3.448,0.618,6.605,0.618
				H1632.5z"/>
			<polygon fill="#333333" stroke="#333333" stroke-width="0.25" stroke-miterlimit="10" points="1597.797,363.25 1642.28,318.422 
				1635.497,311.586 1591.014,356.414 1587.013,367.281 			"/>
			<path fill="#C1272D" stroke="#C1272D" stroke-width="0.25" stroke-miterlimit="10" d="M1670.697,283.343
				c2.799,2.799,3.058,7.077,0.577,9.558l-27.323,27.324l-10.135-10.135l27.323-27.324
				C1663.62,280.286,1667.898,280.544,1670.697,283.343z"/>
			<circle fill="#C8C8C8" stroke="#C8C8C8" stroke-width="0.25" stroke-miterlimit="10" cx="1603.651" cy="350.342" r="3.02"/>
			<circle fill="#C8C8C8" stroke="#C8C8C8" stroke-width="0.25" stroke-miterlimit="10" cx="1589.747" cy="334.942" r="3.049"/>
			<circle fill="#C8C8C8" stroke="#C8C8C8" stroke-width="0.25" stroke-miterlimit="10" cx="1682.451" cy="361.701" r="2.973"/>
			<circle fill="#C8C8C8" stroke="#C8C8C8" stroke-width="0.25" stroke-miterlimit="10" cx="1592.11" cy="362.007" r="2.439"/>
			<rect x="1639.5" y="366.5" fill="#C8C8C8" stroke="#C8C8C8" stroke-miterlimit="10" width="1" height="4"/>
			<rect x="1675.5" y="366.5" fill="#C8C8C8" stroke="#C8C8C8" stroke-miterlimit="10" width="1" height="4"/>
			<rect x="1580.5" y="380.5" fill="#333333" stroke="#333333" stroke-miterlimit="10" width="47" height="4"/>
		</g>
		<g>
			<path fill="#808080" stroke="#808080" stroke-miterlimit="10" d="M656.5,324.009c0,9.976,0,28.592,0,37.055
				c0,7.661,4.55,6.436,7.473,6.436c8.001,0,85.878,0,85.878,0c2.349-1,2.783-3.132,2.789-4.287c0-6.592-3.377-7.488-3.377-7.488
				l-85.29-34.207c0,0-3.951-2.035-5.865-2.317C656.566,319.201,656.5,320.984,656.5,324.009z"/>
			<path fill="#E6E6E6" stroke="#999999" stroke-width="0.25" stroke-miterlimit="10" d="M673.683,332.141
				c0,0,3.848-0.019,6.49-0.019s2.814,3.384,3.967,5.794c1.22,2.287,3.601,1.696,6.508,0c2.418-1.689,13.474-10.216,13.474-10.216
				s2.196-2.033,0.011-5.286c-11.334-13.316-30.449-13.214-30.449-13.214s-19.18-0.102-30.514,13.214
				c-2.186,3.252,0.018,5.286,0.018,5.286s11.059,8.527,13.477,10.216c2.908,1.696,5.291,2.287,6.51,0
				c1.152-2.41,1.326-5.794,3.969-5.794S673.683,332.141,673.683,332.141z"/>
			<rect x="670.5" y="364.5" fill="#808080" stroke="#808080" stroke-miterlimit="10" width="7" height="23"/>
			<circle fill="#999999" stroke="#999999" stroke-width="0.25" stroke-miterlimit="10" cx="673.651" cy="350.342" r="13.846"/>
			<rect x="703.5" y="351.5" fill="#999999" stroke="#999999" stroke-miterlimit="10" width="44" height="20"/>
			<rect x="716.5" y="353.5" fill="#C8C8C8" stroke="#C8C8C8" stroke-miterlimit="10" width="23" height="2"/>
			<rect x="716.5" y="367.5" fill="#C8C8C8" stroke="#C8C8C8" stroke-miterlimit="10" width="23" height="2"/>
			<rect x="711.5" y="348.5" fill="#C8C8C8" stroke="#999999" stroke-miterlimit="10" width="5" height="27"/>
			<rect x="739.5" y="348.5" fill="#C8C8C8" stroke="#999999" stroke-miterlimit="10" width="5" height="27"/>
			<rect x="709.5" y="352.5" fill="#C8C8C8" stroke="#C8C8C8" stroke-miterlimit="10" width="1" height="4"/>
			<rect x="745.5" y="352.5" fill="#C8C8C8" stroke="#C8C8C8" stroke-miterlimit="10" width="1" height="4"/>
			<path fill="#999999" stroke="#999999" stroke-miterlimit="10" d="M757.711,361.702c0,3.284-2.662,5.949-5.946,5.949
				c-0.461,0-0.906-0.15-1.336-0.15H747.5v-12h2.929c0.43,0,0.875,0.052,1.336,0.052
				C755.049,355.552,757.711,358.417,757.711,361.702z"/>
			<path fill="#C8C8C8" stroke="#C8C8C8" stroke-miterlimit="10" d="M702.5,359.5v5h-31.401c-3.133,0-5.765,0.336-6.555,0.62
				c-0.157,0.058-0.242,0.182-0.242,0.243c-0.652,0.442-1.439,0.729-2.286,0.729c-2.265,0-4.099-1.826-4.099-4.101
				c0-2.275,1.834-4.109,4.099-4.109c0.847,0,1.634,0.26,2.286,0.703c0,0.061,0.082,0.243,0.24,0.297
				c0.792,0.287,3.448,0.618,6.605,0.618H702.5z"/>
			<polygon fill="#333333" stroke="#333333" stroke-width="0.25" stroke-miterlimit="10" points="667.797,363.25 712.28,318.422 
				705.497,311.585 661.014,356.414 657.013,367.281 			"/>
			<path fill="#C1272D" stroke="#C1272D" stroke-miterlimit="10" d="M740.697,283.343c2.799,2.799,3.058,7.078,0.577,9.558
				l-27.323,27.324l-10.135-10.135l27.323-27.324C733.62,280.286,737.898,280.544,740.697,283.343z"/>
			<circle fill="#C8C8C8" stroke="#C8C8C8" stroke-width="0.25" stroke-miterlimit="10" cx="673.651" cy="350.342" r="3.02"/>
			<circle fill="#C8C8C8" stroke="#C8C8C8" stroke-width="0.25" stroke-miterlimit="10" cx="659.747" cy="334.942" r="3.049"/>
			<circle fill="#C8C8C8" stroke="#C8C8C8" stroke-width="0.25" stroke-miterlimit="10" cx="752.451" cy="361.702" r="2.973"/>
			<circle fill="#C8C8C8" stroke="#C8C8C8" stroke-width="0.25" stroke-miterlimit="10" cx="662.11" cy="362.007" r="2.439"/>
			<rect x="709.5" y="366.5" fill="#C8C8C8" stroke="#C8C8C8" stroke-miterlimit="10" width="1" height="4"/>
			<rect x="745.5" y="366.5" fill="#C8C8C8" stroke="#C8C8C8" stroke-miterlimit="10" width="1" height="4"/>
			<rect x="650.5" y="380.5" fill="#333333" stroke="#333333" stroke-miterlimit="10" width="47" height="4"/>
		</g>
		<g>
			<path fill="#808080" stroke="#808080" stroke-miterlimit="10" d="M505.5,325.009c0,9.976,0,28.592,0,37.055
				c0,7.661,4.55,6.436,7.473,6.436c8.001,0,85.878,0,85.878,0c2.349-1,2.783-3.132,2.789-4.287c0-6.592-3.377-7.488-3.377-7.488
				l-85.29-34.207c0,0-3.951-2.035-5.865-2.317C505.566,320.201,505.5,321.984,505.5,325.009z"/>
			<path fill="#E6E6E6" stroke="#999999" stroke-width="0.25" stroke-miterlimit="10" d="M522.683,333.141
				c0,0,3.848-0.019,6.49-0.019s2.814,3.384,3.967,5.794c1.22,2.287,3.601,1.696,6.508,0c2.418-1.689,13.474-10.216,13.474-10.216
				s2.196-2.033,0.011-5.286c-11.334-13.316-30.449-13.214-30.449-13.214s-19.18-0.102-30.514,13.214
				c-2.186,3.252,0.018,5.286,0.018,5.286s11.059,8.527,13.477,10.216c2.908,1.696,5.291,2.287,6.51,0
				c1.152-2.41,1.326-5.794,3.969-5.794S522.683,333.141,522.683,333.141z"/>
			<rect x="519.5" y="365.5" fill="#808080" stroke="#808080" stroke-miterlimit="10" width="7" height="23"/>
			<circle fill="#999999" stroke="#999999" stroke-width="0.25" stroke-miterlimit="10" cx="522.651" cy="351.342" r="13.846"/>
			<rect x="552.5" y="352.5" fill="#999999" stroke="#999999" stroke-miterlimit="10" width="44" height="20"/>
			<rect x="565.5" y="354.5" fill="#C8C8C8" stroke="#C8C8C8" stroke-miterlimit="10" width="23" height="2"/>
			<rect x="565.5" y="368.5" fill="#C8C8C8" stroke="#C8C8C8" stroke-miterlimit="10" width="23" height="2"/>
			<rect x="560.5" y="349.5" fill="#C8C8C8" stroke="#999999" stroke-miterlimit="10" width="5" height="27"/>
			<rect x="588.5" y="349.5" fill="#C8C8C8" stroke="#999999" stroke-miterlimit="10" width="5" height="27"/>
			<rect x="558.5" y="353.5" fill="#C8C8C8" stroke="#C8C8C8" stroke-miterlimit="10" width="1" height="4"/>
			<rect x="594.5" y="353.5" fill="#C8C8C8" stroke="#C8C8C8" stroke-miterlimit="10" width="1" height="4"/>
			<path fill="#999999" stroke="#999999" stroke-miterlimit="10" d="M606.711,362.702c0,3.284-2.662,5.949-5.946,5.949
				c-0.461,0-0.906-0.15-1.336-0.15H596.5v-12h2.929c0.43,0,0.875,0.052,1.336,0.052
				C604.049,356.552,606.711,359.417,606.711,362.702z"/>
			<path fill="#C8C8C8" stroke="#C8C8C8" stroke-miterlimit="10" d="M551.5,360.5v5h-31.401c-3.133,0-5.765,0.336-6.555,0.619
				c-0.157,0.059-0.242,0.183-0.242,0.243c-0.652,0.442-1.439,0.729-2.286,0.729c-2.265,0-4.099-1.826-4.099-4.101
				c0-2.275,1.834-4.109,4.099-4.109c0.847,0,1.634,0.26,2.286,0.703c0,0.061,0.082,0.243,0.24,0.297
				c0.792,0.287,3.448,0.618,6.605,0.618H551.5z"/>
			<polygon fill="#333333" stroke="#333333" stroke-width="0.25" stroke-miterlimit="10" points="516.797,364.25 561.28,319.422 
				554.497,312.585 510.014,357.414 506.013,368.281 			"/>
			<path fill="#C1272D" stroke="#C1272D" stroke-miterlimit="10" d="M589.697,284.343c2.799,2.799,3.058,7.078,0.577,9.558
				l-27.323,27.324l-10.135-10.135l27.323-27.324C582.62,281.286,586.898,281.544,589.697,284.343z"/>
			<circle fill="#C8C8C8" stroke="#C8C8C8" stroke-width="0.25" stroke-miterlimit="10" cx="522.651" cy="351.342" r="3.02"/>
			<circle fill="#C8C8C8" stroke="#C8C8C8" stroke-width="0.25" stroke-miterlimit="10" cx="508.747" cy="335.942" r="3.049"/>
			<circle fill="#C8C8C8" stroke="#C8C8C8" stroke-width="0.25" stroke-miterlimit="10" cx="601.451" cy="362.702" r="2.973"/>
			<circle fill="#C8C8C8" stroke="#C8C8C8" stroke-width="0.25" stroke-miterlimit="10" cx="511.11" cy="363.007" r="2.439"/>
			<rect x="558.5" y="367.5" fill="#C8C8C8" stroke="#C8C8C8" stroke-miterlimit="10" width="1" height="4"/>
			<rect x="594.5" y="367.5" fill="#C8C8C8" stroke="#C8C8C8" stroke-miterlimit="10" width="1" height="4"/>
			<rect x="499.5" y="380.5" fill="#333333" stroke="#333333" stroke-miterlimit="10" width="47" height="4"/>
		</g>
		<g>
			<path fill="#808080" stroke="#808080" stroke-miterlimit="10" d="M351.5,325.009c0,9.976,0,28.592,0,37.055
				c0,7.661,4.55,6.436,7.473,6.436c8.001,0,85.878,0,85.878,0c2.349-1,2.783-3.132,2.789-4.287c0-6.592-3.377-7.488-3.377-7.488
				l-85.29-34.207c0,0-3.951-2.035-5.865-2.317C351.566,320.201,351.5,321.984,351.5,325.009z"/>
			<path fill="#E6E6E6" stroke="#999999" stroke-width="0.25" stroke-miterlimit="10" d="M368.683,333.141
				c0,0,3.848-0.019,6.49-0.019s2.814,3.384,3.967,5.794c1.22,2.287,3.601,1.696,6.508,0c2.418-1.689,13.474-10.216,13.474-10.216
				s2.196-2.033,0.011-5.286c-11.334-13.316-30.449-13.214-30.449-13.214s-19.18-0.102-30.514,13.214
				c-2.186,3.252,0.018,5.286,0.018,5.286s11.059,8.527,13.477,10.216c2.908,1.696,5.291,2.287,6.51,0
				c1.152-2.41,1.326-5.794,3.969-5.794S368.683,333.141,368.683,333.141z"/>
			<rect x="365.5" y="365.5" fill="#808080" stroke="#808080" stroke-miterlimit="10" width="7" height="23"/>
			<circle fill="#999999" stroke="#999999" stroke-width="0.25" stroke-miterlimit="10" cx="368.651" cy="351.342" r="13.846"/>
			<rect x="398.5" y="352.5" fill="#999999" stroke="#999999" stroke-miterlimit="10" width="44" height="20"/>
			<rect x="411.5" y="354.5" fill="#C8C8C8" stroke="#C8C8C8" stroke-miterlimit="10" width="23" height="2"/>
			<rect x="411.5" y="368.5" fill="#C8C8C8" stroke="#C8C8C8" stroke-miterlimit="10" width="23" height="2"/>
			<rect x="406.5" y="349.5" fill="#C8C8C8" stroke="#999999" stroke-miterlimit="10" width="5" height="27"/>
			<rect x="434.5" y="349.5" fill="#C8C8C8" stroke="#999999" stroke-miterlimit="10" width="5" height="27"/>
			<rect x="404.5" y="353.5" fill="#C8C8C8" stroke="#C8C8C8" stroke-miterlimit="10" width="1" height="4"/>
			<rect x="440.5" y="353.5" fill="#C8C8C8" stroke="#C8C8C8" stroke-miterlimit="10" width="1" height="4"/>
			<path fill="#999999" stroke="#999999" stroke-miterlimit="10" d="M452.711,362.702c0,3.284-2.662,5.949-5.946,5.949
				c-0.461,0-0.906-0.15-1.336-0.15H442.5v-12h2.929c0.43,0,0.875,0.052,1.336,0.052
				C450.049,356.552,452.711,359.417,452.711,362.702z"/>
			<path fill="#C8C8C8" stroke="#C8C8C8" stroke-miterlimit="10" d="M397.5,360.5v5h-31.401c-3.133,0-5.765,0.336-6.555,0.619
				c-0.157,0.059-0.242,0.183-0.242,0.243c-0.652,0.442-1.439,0.729-2.286,0.729c-2.265,0-4.099-1.826-4.099-4.101
				c0-2.275,1.834-4.109,4.099-4.109c0.847,0,1.634,0.26,2.286,0.703c0,0.061,0.082,0.243,0.24,0.297
				c0.792,0.287,3.448,0.618,6.605,0.618H397.5z"/>
			<polygon fill="#333333" stroke="#333333" stroke-width="0.25" stroke-miterlimit="10" points="362.797,364.25 407.28,319.422 
				400.497,312.585 356.014,357.414 352.013,368.281 			"/>
			<path fill="#C1272D" stroke="#C1272D" stroke-miterlimit="10" d="M435.697,284.343c2.799,2.799,3.058,7.078,0.577,9.558
				l-27.323,27.324l-10.135-10.135l27.323-27.324C428.62,281.286,432.898,281.544,435.697,284.343z"/>
			<circle fill="#C8C8C8" stroke="#C8C8C8" stroke-width="0.25" stroke-miterlimit="10" cx="368.651" cy="351.342" r="3.02"/>
			<circle fill="#C8C8C8" stroke="#C8C8C8" stroke-width="0.25" stroke-miterlimit="10" cx="354.747" cy="335.942" r="3.049"/>
			<circle fill="#C8C8C8" stroke="#C8C8C8" stroke-width="0.25" stroke-miterlimit="10" cx="447.451" cy="362.702" r="2.973"/>
			<circle fill="#C8C8C8" stroke="#C8C8C8" stroke-width="0.25" stroke-miterlimit="10" cx="357.11" cy="363.007" r="2.439"/>
			<rect x="404.5" y="367.5" fill="#C8C8C8" stroke="#C8C8C8" stroke-miterlimit="10" width="1" height="4"/>
			<rect x="440.5" y="367.5" fill="#C8C8C8" stroke="#C8C8C8" stroke-miterlimit="10" width="1" height="4"/>
			<rect x="345.5" y="380.5" fill="#333333" stroke="#333333" stroke-miterlimit="10" width="47" height="4"/>
		</g>
		<g>
			<path fill="#808080" stroke="#808080" stroke-miterlimit="10" d="M201.5,325.009c0,9.976,0,28.592,0,37.055
				c0,7.661,4.55,6.436,7.473,6.436c8.001,0,85.878,0,85.878,0c2.349-1,2.783-3.132,2.789-4.287c0-6.592-3.377-7.488-3.377-7.488
				l-85.29-34.207c0,0-3.951-2.035-5.865-2.317C201.566,320.201,201.5,321.984,201.5,325.009z"/>
			<path fill="#E6E6E6" stroke="#999999" stroke-width="0.25" stroke-miterlimit="10" d="M218.683,333.141
				c0,0,3.848-0.019,6.49-0.019s2.814,3.384,3.967,5.794c1.22,2.287,3.601,1.696,6.508,0c2.418-1.689,13.474-10.216,13.474-10.216
				s2.196-2.033,0.011-5.286c-11.334-13.316-30.449-13.214-30.449-13.214s-19.18-0.102-30.514,13.214
				c-2.186,3.252,0.018,5.286,0.018,5.286s11.059,8.527,13.477,10.216c2.908,1.696,5.291,2.287,6.51,0
				c1.152-2.41,1.326-5.794,3.969-5.794S218.683,333.141,218.683,333.141z"/>
			<rect x="215.5" y="365.5" fill="#808080" stroke="#808080" stroke-miterlimit="10" width="7" height="23"/>
			<circle fill="#999999" stroke="#999999" stroke-width="0.25" stroke-miterlimit="10" cx="218.651" cy="351.342" r="13.846"/>
			<rect x="248.5" y="352.5" fill="#999999" stroke="#999999" stroke-miterlimit="10" width="44" height="20"/>
			<rect x="261.5" y="354.5" fill="#C8C8C8" stroke="#C8C8C8" stroke-miterlimit="10" width="23" height="2"/>
			<rect x="261.5" y="368.5" fill="#C8C8C8" stroke="#C8C8C8" stroke-miterlimit="10" width="23" height="2"/>
			<rect x="256.5" y="349.5" fill="#C8C8C8" stroke="#999999" stroke-miterlimit="10" width="5" height="27"/>
			<rect x="284.5" y="349.5" fill="#C8C8C8" stroke="#999999" stroke-miterlimit="10" width="5" height="27"/>
			<rect x="254.5" y="353.5" fill="#C8C8C8" stroke="#C8C8C8" stroke-miterlimit="10" width="1" height="4"/>
			<rect x="290.5" y="353.5" fill="#C8C8C8" stroke="#C8C8C8" stroke-miterlimit="10" width="1" height="4"/>
			<path fill="#999999" stroke="#999999" stroke-miterlimit="10" d="M302.711,362.702c0,3.284-2.662,5.949-5.946,5.949
				c-0.461,0-0.906-0.15-1.336-0.15H292.5v-12h2.929c0.43,0,0.875,0.052,1.336,0.052
				C300.049,356.552,302.711,359.417,302.711,362.702z"/>
			<path fill="#C8C8C8" stroke="#C8C8C8" stroke-miterlimit="10" d="M247.5,360.5v5h-31.401c-3.133,0-5.765,0.336-6.555,0.619
				c-0.157,0.059-0.242,0.183-0.242,0.243c-0.652,0.442-1.439,0.729-2.286,0.729c-2.265,0-4.099-1.826-4.099-4.101
				c0-2.275,1.834-4.109,4.099-4.109c0.847,0,1.634,0.26,2.286,0.703c0,0.061,0.082,0.243,0.24,0.297
				c0.792,0.287,3.448,0.618,6.605,0.618H247.5z"/>
			<polygon fill="#333333" stroke="#333333" stroke-width="0.25" stroke-miterlimit="10" points="212.797,364.25 257.28,319.422 
				250.497,312.585 206.014,357.414 202.013,368.281 			"/>
			<path fill="#C1272D" stroke="#C1272D" stroke-miterlimit="10" d="M285.697,284.343c2.799,2.799,3.058,7.078,0.577,9.558
				l-27.323,27.324l-10.135-10.135l27.323-27.324C278.62,281.286,282.898,281.544,285.697,284.343z"/>
			<circle fill="#C8C8C8" stroke="#C8C8C8" stroke-width="0.25" stroke-miterlimit="10" cx="218.651" cy="351.342" r="3.02"/>
			<circle fill="#C8C8C8" stroke="#C8C8C8" stroke-width="0.25" stroke-miterlimit="10" cx="204.747" cy="335.942" r="3.049"/>
			<circle fill="#C8C8C8" stroke="#C8C8C8" stroke-width="0.25" stroke-miterlimit="10" cx="297.451" cy="362.702" r="2.973"/>
			<circle fill="#C8C8C8" stroke="#C8C8C8" stroke-width="0.25" stroke-miterlimit="10" cx="207.11" cy="363.007" r="2.439"/>
			<rect x="254.5" y="367.5" fill="#C8C8C8" stroke="#C8C8C8" stroke-miterlimit="10" width="1" height="4"/>
			<rect x="290.5" y="367.5" fill="#C8C8C8" stroke="#C8C8C8" stroke-miterlimit="10" width="1" height="4"/>
			<rect x="195.5" y="380.5" fill="#333333" stroke="#333333" stroke-miterlimit="10" width="47" height="4"/>
		</g>
	</g>
</g>
</svg>
