<?xml version="1.0" encoding="utf-8"?>
<!-- Generator: Adobe Illustrator 16.0.0, SVG Export Plug-In . SVG Version: 6.00 Build 0)  -->
<!DOCTYPE svg PUBLIC "-//W3C//DTD SVG 1.1//EN" "http://www.w3.org/Graphics/SVG/1.1/DTD/svg11.dtd">
<svg version="1.1" xmlns="http://www.w3.org/2000/svg" xmlns:xlink="http://www.w3.org/1999/xlink" x="0px" y="0px" width="1539px"
	 height="441px" viewBox="0 0 1539 441" enable-background="new 0 0 1539 441" xml:space="preserve">
<g id="Layer_1" display="none">
</g>
<g id="Cylinder">
</g>
<g id="Layer_6">
</g>
<g id="Pressure_gauge">
</g>
<g id="Chasis__x26__base">
</g>
<g id="Layer_8">
</g>
<g id="Motor__x26__pump">
	<g>
		<rect x="67.5" y="0.5" fill="#808080" stroke="#808080" stroke-miterlimit="10" width="1404" height="408"/>
		<rect x="0.5" y="408.5" fill="#333333" stroke="#333333" stroke-miterlimit="10" width="1538" height="32"/>
		<rect x="115.5" y="345.5" fill="#999999" stroke="#999999" stroke-miterlimit="10" width="408" height="59"/>
		<rect x="115.5" y="222.5" fill="#999999" stroke="#999999" stroke-miterlimit="10" width="226" height="99"/>
		<rect x="115.5" y="327.5" fill="#999999" stroke="#999999" stroke-miterlimit="10" width="461" height="13"/>
		<rect x="523.5" y="250.5" fill="#999999" stroke="#999999" stroke-miterlimit="10" width="37" height="77"/>
		<path fill="#999999" stroke="#999999" stroke-miterlimit="10" d="M605,192.406c-0.43,0.391-0.95,0.631-1.49,0.721
			c-0.28,7.5-1.82,14.67-4.41,21.32c0.41,0.16,0.79,0.42,1.11,0.77c1.09,1.221,1,3.09-0.21,4.189c-0.93,0.84-2.24,0.99-3.3,0.471
			c-3.21,6.461-7.44,12.311-12.48,17.35c1.08,1.221,0.99,3.08-0.22,4.18c-1.21,1.09-3.07,1.01-4.17-0.18
			c-11.46,9.57-26.21,15.33-42.3,15.33c-36.47,0-66.06-29.561-66.06-66.029c0-17.121,6.53-32.73,17.23-44.461
			c-0.98-1.209-0.86-3,0.31-4.059c1.1-0.99,2.74-1.012,3.85-0.121c4.91-4.51,10.5-8.289,16.6-11.15
			c-0.71-1.189-0.52-2.76,0.55-3.729c1.22-1.102,3.1-1,4.2,0.209c0.33,0.371,0.56,0.811,0.66,1.26c6.17-2.26,12.76-3.609,19.63-3.92
			v-0.07c0-1.629,1.36-2.959,3-2.959s3,1.33,3,2.959v0.07c6.54,0.291,12.83,1.531,18.74,3.59c0.16-0.42,0.42-0.809,0.77-1.139
			c1.22-1.102,3.1-1,4.2,0.209c0.79,0.881,0.96,2.109,0.53,3.131c6.43,2.898,12.31,6.809,17.44,11.52
			c1.22-0.951,2.98-0.811,4.03,0.35c0.98,1.1,1.01,2.721,0.12,3.83c4.2,4.59,7.75,9.779,10.52,15.42
			c1.13-0.471,2.49-0.209,3.36,0.75c1.09,1.221,1,3.09-0.21,4.189c-0.24,0.211-0.5,0.381-0.78,0.5
			c2.44,6.381,3.93,13.23,4.27,20.381c0.64,0.1,1.25,0.41,1.72,0.93C606.3,189.438,606.21,191.307,605,192.406z"/>
		<circle fill="#999999" stroke="#999999" stroke-miterlimit="10" cx="1023.996" cy="128.208" r="2.967"/>
		<path fill="#FFAC59" stroke="#FFAC59" stroke-miterlimit="10" d="M590.5,186.518c0,15.16-7.76,28.51-19.53,36.299l-0.02,0.021
			l-150.1,103.209c-17.76,14.59-40.5,23.34-65.28,23.34c-56.85,0-102.94-46.09-102.94-102.939s46.09-102.939,102.94-102.939
			l191.43-0.49C571.02,143.018,590.5,162.486,590.5,186.518z"/>
		<path fill="#E6E6E6" stroke="#E6E6E6" stroke-width="5" stroke-miterlimit="10" d="M576.444,189.482
			c0,13.9-7.114,26.139-17.904,33.279l-0.02,0.02l-137.611,94.623c-16.283,13.377-37.13,21.398-59.848,21.398
			c-52.121,0-94.376-42.256-94.376-94.375c0-52.121,42.255-94.377,94.376-94.377l175.502-0.449
			C558.584,149.602,576.444,167.453,576.444,189.482z"/>
		<rect x="115.5" y="0.5" fill="#999999" stroke="#999999" stroke-miterlimit="10" width="11" height="80"/>
		<rect x="115.5" y="80.5" fill="#999999" stroke="#999999" stroke-miterlimit="10" width="11" height="142"/>
		<rect x="115.5" y="69.5" fill="#999999" stroke="#999999" stroke-miterlimit="10" width="1108" height="11"/>
		<path fill="#999999" stroke="#999999" stroke-miterlimit="10" d="M134.5,73.5c0,5.523-4.735,10-10.577,10h-3.846
			c-5.842,0-10.577-4.477-10.577-10l0,0c0-5.521,4.735-10,10.577-10h3.846C129.765,63.5,134.5,67.979,134.5,73.5L134.5,73.5z"/>
		<path fill="#999999" stroke="#999999" stroke-width="5" stroke-miterlimit="10" d="M940.5,75.338v94.119
			c0,5.49-4.45,10.043-9.94,10.043H813.44c-5.49,0-9.94-4.553-9.94-10.043V75.338c0-5.49,4.45-9.838,9.94-9.838h43.3
			c-3.11,1-5.24,4.729-5.24,8.448c0.04,3.42,5.88,8.765,9.5,9.474c7.13,2.541,14.92,2.278,21-0.013c5.96-2.83,9.5-6.954,9.5-9.454
			c0-3.719-2.13-7.455-5.24-8.455h44.3C936.05,65.5,940.5,69.848,940.5,75.338z"/>
		<path fill="#808080" stroke="#808080" stroke-width="5" stroke-miterlimit="10" d="M929.5,162.043c0,4.613-3.74,8.457-8.354,8.457
			h-98.291c-4.614,0-8.354-3.844-8.354-8.457V82.752c0-4.615,3.74-8.252,8.354-8.252h98.291c4.614,0,8.354,3.637,8.354,8.252
			V162.043z"/>
		<rect x="865.5" y="84.5" fill="#999999" stroke="#999999" stroke-miterlimit="10" width="12" height="170"/>
		<rect x="827.5" y="96.5" fill="#C8C8C8" stroke="#C8C8C8" stroke-width="5" stroke-miterlimit="10" width="88" height="72"/>
		<rect x="869.5" y="96.5" fill="#808080" stroke="#808080" stroke-miterlimit="10" width="5" height="72"/>
		<rect x="909.5" y="96.5" fill="#808080" stroke="#808080" stroke-miterlimit="10" width="4" height="72"/>
		<rect x="829.5" y="96.5" fill="#808080" stroke="#808080" stroke-miterlimit="10" width="4" height="72"/>
		<path fill="#999999" stroke="#999999" stroke-width="5" stroke-miterlimit="10" d="M891.5,73.896c0,2.5-3.54,6.67-9.5,9.5
			c-6.08,2.291-13.87,2.541-21,0c-3.62-0.709-9.46-6.08-9.5-9.5c0-3.719,2.13-6.93,5.24-8.5c1.14-0.57,2.42-0.92,3.76-0.99v-7.01
			c0-6.08,4.92-11,11-11c3.04,0,5.79,1.23,7.78,3.221c1.989,1.99,3.22,4.74,3.22,7.779v7.01c1.34,0.07,2.62,0.42,3.76,0.99
			C889.37,66.967,891.5,70.178,891.5,73.896z"/>
		<rect x="845" y="185" fill="none" stroke="#999999" stroke-width="8" stroke-miterlimit="10" width="53" height="25"/>
		<path fill="#999999" stroke="#999999" stroke-miterlimit="10" d="M903.5,213.127v3.373h4v22h-12v13h6v6h-6v7h-4v-7h-3.36
			c-0.88,4-3.29,7.707-6.64,10.137V404.5h-20V267.637c-2.81-2.039-4.95-5.137-6.09-8.137h-3.91v5h-4v-5h-85.21
			c-1.62,2-3.99,3-6.64,3h-3.3c-4.89,0-8.85-4.063-8.85-8.953v-0.301c0-3.51,2.04-6.539,5-7.969V75.5h11v169.777
			c1.45,0.699,2.68,2.223,3.55,3.223h84.45v-10h-12v-22h4v-3.373c-2.32-0.74-4-2.91-4-5.48v-10.5c0-3.18,2.57-5.646,5.75-5.646h0.5
			c3.18,0,5.75,2.467,5.75,5.646v10.5c0,2.57-1.68,4.74-4,5.48v3.373h4v11h4v21h3.92c2.271-7,8.62-11.5,16.08-11.5
			c8.54,0,15.61,6.5,16.81,14.5h3.19v-24h4v-11h4v-3.373c-2.32-0.74-4-2.91-4-5.48v-10.5c0-3.18,2.57-5.646,5.75-5.646h0.5
			c3.18,0,5.75,2.467,5.75,5.646v10.5C907.5,210.217,905.82,212.387,903.5,213.127z"/>
		<path fill="#999999" stroke="#999999" stroke-width="5" stroke-miterlimit="10" d="M1149.5,75.338v94.119
			c0,5.49-4.45,10.043-9.94,10.043H1022.44c-5.49,0-9.94-4.553-9.94-10.043V75.338c0-5.49,4.45-9.838,9.94-9.838h43.3
			c-3.11,1-5.24,4.729-5.24,8.448c0.04,3.42,5.88,8.765,9.5,9.474c7.13,2.541,14.92,2.278,21-0.013c5.96-2.83,9.5-6.954,9.5-9.454
			c0-3.719-2.13-7.455-5.24-8.455h44.3C1145.05,65.5,1149.5,69.848,1149.5,75.338z"/>
		<path fill="#808080" stroke="#808080" stroke-width="5" stroke-miterlimit="10" d="M1138.5,162.043
			c0,4.613-3.74,8.457-8.354,8.457h-98.291c-4.614,0-8.354-3.844-8.354-8.457V82.752c0-4.615,3.74-8.252,8.354-8.252h98.291
			c4.614,0,8.354,3.637,8.354,8.252V162.043z"/>
		<rect x="1074.5" y="84.5" fill="#999999" stroke="#999999" stroke-miterlimit="10" width="12" height="170"/>
		<rect x="1036.5" y="96.5" fill="#C8C8C8" stroke="#C8C8C8" stroke-width="5" stroke-miterlimit="10" width="88" height="72"/>
		<rect x="1078.5" y="96.5" fill="#808080" stroke="#808080" stroke-miterlimit="10" width="5" height="72"/>
		<rect x="1118.5" y="96.5" fill="#808080" stroke="#808080" stroke-miterlimit="10" width="4" height="72"/>
		<rect x="1038.5" y="96.5" fill="#808080" stroke="#808080" stroke-miterlimit="10" width="4" height="72"/>
		<path fill="#999999" stroke="#999999" stroke-width="5" stroke-miterlimit="10" d="M1100.5,73.896c0,2.5-3.54,6.67-9.5,9.5
			c-6.08,2.291-13.87,2.541-21,0c-3.62-0.709-9.46-6.08-9.5-9.5c0-3.719,2.13-6.93,5.24-8.5c1.14-0.57,2.42-0.92,3.76-0.99v-7.01
			c0-6.08,4.92-11,11-11c3.04,0,5.79,1.23,7.78,3.221c1.989,1.99,3.22,4.74,3.22,7.779v7.01c1.34,0.07,2.62,0.42,3.76,0.99
			C1098.37,66.967,1100.5,70.178,1100.5,73.896z"/>
		<rect x="1054" y="185" fill="none" stroke="#999999" stroke-width="8" stroke-miterlimit="10" width="53" height="25"/>
		<path fill="#999999" stroke="#999999" stroke-miterlimit="10" d="M1112.5,213.127v3.373h4v22h-12v13h6v6h-6v7h-4v-7h-3.36
			c-0.88,4-3.29,7.707-6.64,10.137V404.5h-20V267.637c-2.81-2.039-4.95-5.137-6.09-8.137h-3.91v5h-4v-5h-85.21
			c-1.62,2-3.99,3-6.64,3h-3.301c-4.89,0-8.85-4.063-8.85-8.953v-0.301c0-3.51,2.04-6.539,5-7.969V75.5h11v169.777
			c1.45,0.699,2.68,2.223,3.55,3.223h84.45v-10h-12v-22h4v-3.373c-2.32-0.74-4-2.91-4-5.48v-10.5c0-3.18,2.57-5.646,5.75-5.646h0.5
			c3.18,0,5.75,2.467,5.75,5.646v10.5c0,2.57-1.68,4.74-4,5.48v3.373h4v11h4v21h3.92c2.271-7,8.62-11.5,16.08-11.5
			c8.54,0,15.61,6.5,16.81,14.5h3.19v-24h4v-11h4v-3.373c-2.32-0.74-4-2.91-4-5.48v-10.5c0-3.18,2.57-5.646,5.75-5.646h0.5
			c3.18,0,5.75,2.467,5.75,5.646v10.5C1116.5,210.217,1114.82,212.387,1112.5,213.127z"/>
		<path fill="#999999" stroke="#999999" stroke-width="5" stroke-miterlimit="10" d="M1358.5,75.338v94.119
			c0,5.49-4.45,10.043-9.94,10.043H1231.44c-5.49,0-9.94-4.553-9.94-10.043V75.338c0-5.49,4.45-9.838,9.94-9.838h43.3
			c-3.11,1-5.24,4.729-5.24,8.448c0.04,3.42,5.88,8.765,9.5,9.474c7.13,2.541,14.92,2.278,21-0.013c5.96-2.83,9.5-6.954,9.5-9.454
			c0-3.719-2.13-7.455-5.24-8.455h44.3C1354.05,65.5,1358.5,69.848,1358.5,75.338z"/>
		<path fill="#808080" stroke="#808080" stroke-width="5" stroke-miterlimit="10" d="M1347.5,162.043
			c0,4.613-3.74,8.457-8.354,8.457h-98.291c-4.614,0-8.354-3.844-8.354-8.457V82.752c0-4.615,3.74-8.252,8.354-8.252h98.291
			c4.614,0,8.354,3.637,8.354,8.252V162.043z"/>
		<rect x="1283.5" y="84.5" fill="#999999" stroke="#999999" stroke-miterlimit="10" width="12" height="170"/>
		<rect x="1245.5" y="96.5" fill="#C8C8C8" stroke="#C8C8C8" stroke-width="5" stroke-miterlimit="10" width="88" height="72"/>
		<rect x="1287.5" y="96.5" fill="#808080" stroke="#808080" stroke-miterlimit="10" width="5" height="72"/>
		<rect x="1327.5" y="96.5" fill="#808080" stroke="#808080" stroke-miterlimit="10" width="4" height="72"/>
		<rect x="1247.5" y="96.5" fill="#808080" stroke="#808080" stroke-miterlimit="10" width="4" height="72"/>
		<path fill="#999999" stroke="#999999" stroke-width="5" stroke-miterlimit="10" d="M1309.5,73.896c0,2.5-3.54,6.67-9.5,9.5
			c-6.08,2.291-13.87,2.541-21,0c-3.62-0.709-9.46-6.08-9.5-9.5c0-3.719,2.13-6.93,5.24-8.5c1.14-0.57,2.42-0.92,3.76-0.99v-7.01
			c0-6.08,4.92-11,11-11c3.04,0,5.79,1.23,7.78,3.221c1.989,1.99,3.22,4.74,3.22,7.779v7.01c1.34,0.07,2.62,0.42,3.76,0.99
			C1307.37,66.967,1309.5,70.178,1309.5,73.896z"/>
		<rect x="1263" y="185" fill="none" stroke="#999999" stroke-width="8" stroke-miterlimit="10" width="53" height="25"/>
		<path fill="#999999" stroke="#999999" stroke-miterlimit="10" d="M1321.5,213.127v3.373h4v22h-12v13h6v6h-6v7h-4v-7h-3.36
			c-0.88,4-3.29,7.707-6.64,10.137V404.5h-20V267.637c-2.81-2.039-4.95-5.137-6.09-8.137h-3.91v5h-4v-5h-85.21
			c-1.62,2-3.99,3-6.64,3h-3.301c-4.89,0-8.85-4.063-8.85-8.953v-0.301c0-3.51,2.04-6.539,5-7.969V75.5h11v169.777
			c1.45,0.699,2.68,2.223,3.55,3.223h84.45v-10h-12v-22h4v-3.373c-2.32-0.74-4-2.91-4-5.48v-10.5c0-3.18,2.57-5.646,5.75-5.646h0.5
			c3.18,0,5.75,2.467,5.75,5.646v10.5c0,2.57-1.68,4.74-4,5.48v3.373h4v11h4v21h3.92c2.271-7,8.62-11.5,16.08-11.5
			c8.54,0,15.61,6.5,16.81,14.5h3.19v-24h4v-11h4v-3.373c-2.32-0.74-4-2.91-4-5.48v-10.5c0-3.18,2.57-5.646,5.75-5.646h0.5
			c3.18,0,5.75,2.467,5.75,5.646v10.5C1325.5,210.217,1323.82,212.387,1321.5,213.127z"/>
		<path fill="#999999" stroke="#999999" stroke-miterlimit="10" d="M1382.5,33.814c0-1.887-1.747-3.314-3.709-3.314H870.053
			c-1.962,0-3.553,1.428-3.553,3.314v0.166c0,1.887,1.591,3.52,3.553,3.52h508.738c1.962,0,3.709-1.633,3.709-3.52V33.814z"/>
		<line fill="none" stroke="#999999" stroke-width="5" stroke-miterlimit="10" x1="871.5" y1="47" x2="871.5" y2="33"/>
		<line fill="none" stroke="#999999" stroke-width="5" stroke-miterlimit="10" x1="1080.5" y1="47" x2="1080.5" y2="34"/>
		<line fill="none" stroke="#999999" stroke-width="5" stroke-miterlimit="10" x1="1289.5" y1="47" x2="1289.5" y2="34"/>
		<path fill="#999999" stroke="#999999" stroke-miterlimit="10" d="M1383.5,229.244c0,3.121-1.567,5.652-3.5,5.652l0,0
			c-1.933,0-3.5-2.531-3.5-5.652V36.049c0-3.121,1.567-5.652,3.5-5.652l0,0c1.933,0,3.5,2.531,3.5,5.652V229.244z"/>
		<rect x="1411.5" y="55.5" fill="#999999" stroke="#999999" stroke-miterlimit="10" width="12" height="10"/>
		<rect x="1299.5" y="73.5" fill="#999999" stroke="#999999" stroke-miterlimit="10" width="92" height="4"/>
		<rect x="1387.5" y="40.5" fill="#999999" stroke="#999999" stroke-miterlimit="10" width="4" height="37"/>
		<rect x="1387.5" y="40.5" fill="#999999" stroke="#999999" stroke-miterlimit="10" width="32" height="4"/>
		<rect x="1415.5" y="40.5" fill="#999999" stroke="#999999" stroke-miterlimit="10" width="4" height="19"/>
		<path fill="#999999" stroke="#999999" stroke-miterlimit="10" d="M1436.5,222.396v26c0,6.631-5.37,12.104-12,12.104h-1v144h-12
			V260.396c-6.63,0-12-5.369-12-12v-26c0-4.85,2.87-9.02,7-10.92V65.5h22v145.588C1433.16,212.727,1436.5,217.166,1436.5,222.396z"
			/>
		<path fill="#999999" stroke="#999999" stroke-miterlimit="10" d="M1427.559,228.5c0.796,0,1.441,1.568,1.441,3.5l0,0
			c0,1.934-0.646,3.5-1.441,3.5h-49.243c-0.795,0-1.441-1.566-1.441-3.5l0,0c0-1.932,0.646-3.5,1.441-3.5H1427.559z"/>
		<path fill="#999999" stroke="#999999" stroke-miterlimit="10" d="M1388.5,231.5c0,3.314-2.687,6-6,6h-4c-3.313,0-6-2.686-6-6l0,0
			c0-3.313,2.687-6,6-6h4C1385.813,225.5,1388.5,228.188,1388.5,231.5L1388.5,231.5z"/>
		<rect x="848.5" y="404.5" fill="#333333" stroke="#333333" stroke-miterlimit="10" width="47" height="4"/>
		<rect x="1057.5" y="404.5" fill="#333333" stroke="#333333" stroke-miterlimit="10" width="47" height="4"/>
		<rect x="1266.5" y="404.5" fill="#333333" stroke="#333333" stroke-miterlimit="10" width="47" height="4"/>
		<rect x="1394.5" y="404.5" fill="#333333" stroke="#333333" stroke-miterlimit="10" width="47" height="4"/>
		<rect x="104.5" y="404.5" fill="#333333" stroke="#333333" stroke-miterlimit="10" width="431" height="4"/>
	</g>
</g>
<g id="Valves">
</g>
</svg>
