<?xml version="1.0" encoding="utf-8"?>
<!-- Generator: Adobe Illustrator 16.0.0, SVG Export Plug-In . SVG Version: 6.00 Build 0)  -->
<!DOCTYPE svg PUBLIC "-//W3C//DTD SVG 1.1//EN" "http://www.w3.org/Graphics/SVG/1.1/DTD/svg11.dtd">
<svg version="1.1" xmlns="http://www.w3.org/2000/svg" xmlns:xlink="http://www.w3.org/1999/xlink" x="0px" y="0px" width="1824px"
	 height="441px" viewBox="0 0 1824 441" enable-background="new 0 0 1824 441" xml:space="preserve">
<g id="Layer_1" display="none">
</g>
<g id="Cylinder">
</g>
<g id="Layer_6">
</g>
<g id="Pressure_gauge">
</g>
<g id="Chasis__x26__base">
</g>
<g id="Layer_8">
</g>
<g id="Motor__x26__pump">
	<g>
		<rect x="0.5" y="408.5" fill="#333333" stroke="#333333" stroke-miterlimit="10" width="1823" height="32"/>
		<rect x="66.5" y="0.5" fill="#808080" stroke="#808080" stroke-miterlimit="10" width="1697" height="408"/>
		<path fill="#999999" stroke="#999999" stroke-miterlimit="10" d="M1676.5,32.5c0-1.657-1.346-3-3.008-3H855.756
			c-1.66,0-3.006,1.343-3.006,3l0,0c0,1.657,1.346,3,3.006,3h817.736C1675.154,35.5,1676.5,34.157,1676.5,32.5L1676.5,32.5z"/>
		<g>
			<path fill="#999999" stroke="#999999" stroke-width="5" stroke-miterlimit="10" d="M925.5,75.44v94.119
				c0,5.49-4.451,9.94-9.94,9.94h-117.12c-5.489,0-9.939-4.45-9.939-9.94V75.44c0-5.49,4.45-9.94,9.939-9.94h43.301
				c-3.111,1.57-5.24,4.78-5.24,8.5c0.04,3.42,5.88,8.79,9.5,9.5c7.129,2.54,14.92,2.29,21,0c5.96-2.83,9.5-7,9.5-9.5
				c0-3.72-2.13-6.93-5.24-8.5h44.3C921.049,65.5,925.5,69.95,925.5,75.44z"/>
			<path fill="#808080" stroke="#808080" stroke-width="5" stroke-miterlimit="10" d="M914.5,162.146
				c0,4.614-3.74,8.354-8.354,8.354h-98.292c-4.613,0-8.354-3.74-8.354-8.354V82.854c0-4.614,3.74-8.354,8.354-8.354h98.292
				c4.614,0,8.354,3.74,8.354,8.354V162.146z"/>
			<rect x="850.5" y="84.5" fill="#999999" stroke="#999999" stroke-miterlimit="10" width="12" height="170"/>
			<rect x="812.5" y="96.5" fill="#C8C8C8" stroke="#C8C8C8" stroke-width="5" stroke-miterlimit="10" width="88" height="72"/>
			<rect x="854.5" y="96.5" fill="#808080" stroke="#808080" stroke-miterlimit="10" width="5" height="72"/>
			<rect x="894.5" y="96.5" fill="#808080" stroke="#808080" stroke-miterlimit="10" width="4" height="72"/>
			<rect x="814.5" y="96.5" fill="#808080" stroke="#808080" stroke-miterlimit="10" width="4" height="72"/>
			<path fill="#999999" stroke="#999999" stroke-width="5" stroke-miterlimit="10" d="M876.5,74c0,2.5-3.54,6.67-9.5,9.5
				c-6.08,2.29-13.871,2.54-21,0c-3.62-0.71-9.46-6.08-9.5-9.5c0-3.72,2.129-6.93,5.24-8.5c1.14-0.57,2.42-0.92,3.76-0.99V57.5
				c0-6.08,4.92-11,11-11c3.04,0,5.79,1.23,7.779,3.22c1.99,1.99,3.221,4.74,3.221,7.78v7.01c1.34,0.07,2.619,0.42,3.76,0.99
				C874.37,67.07,876.5,70.28,876.5,74z"/>
			<rect x="830" y="185" fill="none" stroke="#999999" stroke-width="8" stroke-miterlimit="10" width="53" height="25"/>
			<path fill="#999999" stroke="#999999" stroke-miterlimit="10" d="M888.5,213.23v3.27h4v22h-12v13h6v6h-6v7h-4v-7h-3.361
				c-0.879,4.19-3.289,7.81-6.639,10.24V404.5h-20V267.74c-2.81-2.04-4.951-4.9-6.09-8.24h-3.91v5h-4v-5h-85.21
				c-1.62,1.84-3.99,3-6.64,3h-3.301c-4.89,0-8.85-3.96-8.85-8.85v-0.301c0-3.51,2.04-6.54,5-7.97V75.5h11v169.88
				c1.45,0.7,2.68,1.78,3.549,3.12H832.5v-10h-12v-22h4v-3.27c-2.32-0.74-4-2.91-4-5.48v-10.5c0-3.18,2.57-5.75,5.75-5.75h0.5
				c3.18,0,5.75,2.57,5.75,5.75v10.5c0,2.57-1.68,4.74-4,5.48v3.27h4v11h4v21h3.92c2.271-6.69,8.62-11.5,16.08-11.5
				c8.54,0,15.61,6.3,16.81,14.5h3.19v-24h4v-11h4v-3.27c-2.32-0.74-4-2.91-4-5.48v-10.5c0-3.18,2.57-5.75,5.75-5.75h0.5
				c3.18,0,5.75,2.57,5.75,5.75v10.5C892.5,210.32,890.82,212.49,888.5,213.23z"/>
			<line fill="none" stroke="#999999" stroke-width="5" stroke-miterlimit="10" x1="856.5" y1="47" x2="856.5" y2="33"/>
		</g>
		<rect x="106.5" y="69.5" fill="#999999" stroke="#999999" stroke-miterlimit="10" width="1377" height="11"/>
		<g>
			<path fill="#999999" stroke="#999999" stroke-width="5" stroke-miterlimit="10" d="M1134.5,75.44v94.119
				c0,5.49-4.451,9.94-9.94,9.94h-117.12c-5.489,0-9.939-4.45-9.939-9.94V75.44c0-5.49,4.45-9.94,9.939-9.94h43.301
				c-3.111,1.57-5.24,4.78-5.24,8.5c0.04,3.42,5.88,8.79,9.5,9.5c7.129,2.54,14.92,2.29,21,0c5.96-2.83,9.5-7,9.5-9.5
				c0-3.72-2.13-6.93-5.24-8.5h44.3C1130.049,65.5,1134.5,69.95,1134.5,75.44z"/>
			<path fill="#808080" stroke="#808080" stroke-width="5" stroke-miterlimit="10" d="M1123.5,162.146
				c0,4.614-3.74,8.354-8.354,8.354h-98.292c-4.613,0-8.354-3.74-8.354-8.354V82.854c0-4.614,3.74-8.354,8.354-8.354h98.292
				c4.614,0,8.354,3.74,8.354,8.354V162.146z"/>
			<rect x="1059.5" y="84.5" fill="#999999" stroke="#999999" stroke-miterlimit="10" width="12" height="170"/>
			<rect x="1021.5" y="96.5" fill="#C8C8C8" stroke="#C8C8C8" stroke-width="5" stroke-miterlimit="10" width="88" height="72"/>
			<rect x="1063.5" y="96.5" fill="#808080" stroke="#808080" stroke-miterlimit="10" width="5" height="72"/>
			<rect x="1103.5" y="96.5" fill="#808080" stroke="#808080" stroke-miterlimit="10" width="4" height="72"/>
			<rect x="1023.5" y="96.5" fill="#808080" stroke="#808080" stroke-miterlimit="10" width="4" height="72"/>
			<path fill="#999999" stroke="#999999" stroke-width="5" stroke-miterlimit="10" d="M1085.5,74c0,2.5-3.54,6.67-9.5,9.5
				c-6.08,2.29-13.871,2.54-21,0c-3.62-0.71-9.46-6.08-9.5-9.5c0-3.72,2.129-6.93,5.24-8.5c1.14-0.57,2.42-0.92,3.76-0.99V57.5
				c0-6.08,4.92-11,11-11c3.04,0,5.79,1.23,7.779,3.22c1.99,1.99,3.221,4.74,3.221,7.78v7.01c1.34,0.07,2.619,0.42,3.76,0.99
				C1083.37,67.07,1085.5,70.28,1085.5,74z"/>
			<rect x="1039" y="185" fill="none" stroke="#999999" stroke-width="8" stroke-miterlimit="10" width="53" height="25"/>
			<path fill="#999999" stroke="#999999" stroke-miterlimit="10" d="M1097.5,213.23v3.27h4v22h-12v13h6v6h-6v7h-4v-7h-3.361
				c-0.879,4.19-3.289,7.81-6.639,10.24V404.5h-20V267.74c-2.81-2.04-4.951-4.9-6.09-8.24h-3.91v5h-4v-5h-85.21
				c-1.62,1.84-3.99,3-6.64,3h-3.301c-4.89,0-8.85-3.96-8.85-8.85v-0.301c0-3.51,2.04-6.54,5-7.97V75.5h11v169.88
				c1.45,0.7,2.68,1.78,3.549,3.12h84.451v-10h-12v-22h4v-3.27c-2.32-0.74-4-2.91-4-5.48v-10.5c0-3.18,2.57-5.75,5.75-5.75h0.5
				c3.18,0,5.75,2.57,5.75,5.75v10.5c0,2.57-1.68,4.74-4,5.48v3.27h4v11h4v21h3.92c2.271-6.69,8.62-11.5,16.08-11.5
				c8.54,0,15.61,6.3,16.81,14.5h3.19v-24h4v-11h4v-3.27c-2.32-0.74-4-2.91-4-5.48v-10.5c0-3.18,2.57-5.75,5.75-5.75h0.5
				c3.18,0,5.75,2.57,5.75,5.75v10.5C1101.5,210.32,1099.82,212.49,1097.5,213.23z"/>
			<line fill="none" stroke="#999999" stroke-width="5" stroke-miterlimit="10" x1="1065.5" y1="47" x2="1065.5" y2="33"/>
		</g>
		<rect x="106.5" y="345.5" fill="#999999" stroke="#999999" stroke-miterlimit="10" width="408" height="59"/>
		<rect x="106.5" y="222.5" fill="#999999" stroke="#999999" stroke-miterlimit="10" width="226" height="99"/>
		<rect x="106.5" y="327.5" fill="#999999" stroke="#999999" stroke-miterlimit="10" width="461" height="13"/>
		<rect x="514.5" y="250.5" fill="#999999" stroke="#999999" stroke-miterlimit="10" width="37" height="77"/>
		<path fill="#999999" stroke="#999999" stroke-miterlimit="10" d="M595.985,192.51c-0.43,0.391-0.95,0.63-1.49,0.721
			c-0.279,7.5-1.82,14.67-4.409,21.319c0.409,0.16,0.791,0.42,1.109,0.771c1.09,1.22,1,3.09-0.21,4.189
			c-0.93,0.84-2.241,0.99-3.3,0.471c-3.211,6.46-7.441,12.31-12.479,17.35c1.079,1.22,0.989,3.08-0.221,4.18
			c-1.21,1.09-3.069,1.01-4.171-0.18c-11.459,9.57-26.209,15.33-42.301,15.33c-36.469,0-66.058-29.561-66.058-66.03
			c0-17.12,6.529-32.729,17.229-44.46c-0.979-1.21-0.86-3,0.31-4.06c1.099-0.99,2.739-1.011,3.85-0.12
			c4.91-4.51,10.5-8.29,16.601-11.15c-0.711-1.189-0.521-2.76,0.55-3.729c1.221-1.101,3.099-1,4.2,0.21
			c0.33,0.37,0.566,0.81,0.668,1.26c6.17-2.26,12.637-3.61,19.637-3.92v-0.07c0-1.63,1.359-2.96,3-2.96s3,1.33,3,2.96v0.07
			c7,0.29,12.822,1.53,18.732,3.59c0.16-0.42,0.417-0.81,0.768-1.14c1.22-1.101,3.097-1,4.197,0.21
			c0.789,0.88,0.959,2.109,0.529,3.13c6.43,2.899,12.309,6.81,17.439,11.52c1.221-0.95,2.979-0.81,4.029,0.351
			c0.979,1.1,1.011,2.72,0.119,3.83c4.199,4.59,7.751,9.779,10.521,15.42c1.129-0.471,2.488-0.21,3.359,0.75
			c1.09,1.22,1,3.09-0.21,4.189c-0.241,0.21-0.5,0.38-0.779,0.5c2.439,6.38,3.93,13.23,4.269,20.38
			c0.641,0.101,1.251,0.41,1.721,0.931C597.285,189.54,597.195,191.41,595.985,192.51z"/>
		<circle fill="#999999" stroke="#999999" stroke-miterlimit="10" cx="1426.981" cy="128.312" r="2.967"/>
		<path fill="#666666" stroke="#666666" stroke-miterlimit="10" d="M581.485,186.62c0,15.16-7.76,28.51-19.529,36.3l-0.021,0.021
			l-150.1,103.21c-17.761,14.59-40.5,23.34-65.28,23.34c-56.85,0-102.94-46.09-102.94-102.94c0-56.85,46.091-102.939,102.94-102.939
			l191.43-0.49C562.004,143.12,581.485,162.59,581.485,186.62z"/>
		<path fill="#E6E6E6" stroke="#E6E6E6" stroke-width="5" stroke-miterlimit="10" d="M567.43,189.586
			c0,13.899-7.115,26.138-17.904,33.279l-0.019,0.02l-137.612,94.623c-16.283,13.376-37.13,21.397-59.848,21.397
			c-52.121,0-94.376-42.256-94.376-94.375c0-52.121,42.255-94.376,94.376-94.376l175.502-0.449
			C549.569,149.705,567.43,167.556,567.43,189.586z"/>
		<rect x="106.5" y="0.5" fill="#999999" stroke="#999999" stroke-miterlimit="10" width="11" height="80"/>
		<rect x="106.5" y="80.5" fill="#999999" stroke="#999999" stroke-miterlimit="10" width="11" height="142"/>
		<path fill="#999999" stroke="#999999" stroke-miterlimit="10" d="M125.485,73.5c0,5.522-4.735,10-10.577,10h-3.846
			c-5.842,0-10.577-4.478-10.577-10l0,0c0-5.522,4.735-10,10.577-10h3.846C120.75,63.5,125.485,67.978,125.485,73.5L125.485,73.5z"
			/>
		<path fill="#999999" stroke="#999999" stroke-width="5" stroke-miterlimit="10" d="M1343.5,75.44v94.119
			c0,5.49-4.465,9.94-9.955,9.94h-117.119c-5.49,0-9.926-4.45-9.926-9.94V75.44c0-5.49,4.436-9.94,9.926-9.94h43.3
			c-3.11,1.57-5.24,4.78-5.24,8.5c0.04,3.42,5.88,8.79,9.5,9.5c7.13,2.54,14.92,2.29,21,0c5.96-2.83,9.5-7,9.5-9.5
			c0-3.72-2.13-6.93-5.241-8.5h44.301C1339.035,65.5,1343.5,69.95,1343.5,75.44z"/>
		<path fill="#808080" stroke="#808080" stroke-width="5" stroke-miterlimit="10" d="M1332.5,162.146
			c0,4.614-3.74,8.354-8.354,8.354h-98.292c-4.613,0-8.354-3.74-8.354-8.354V82.854c0-4.614,3.74-8.354,8.354-8.354h98.292
			c4.614,0,8.354,3.74,8.354,8.354V162.146z"/>
		<rect x="1268.5" y="84.5" fill="#999999" stroke="#999999" stroke-miterlimit="10" width="12" height="170"/>
		<rect x="1230.5" y="96.5" fill="#C8C8C8" stroke="#C8C8C8" stroke-width="5" stroke-miterlimit="10" width="88" height="72"/>
		<rect x="1272.5" y="96.5" fill="#808080" stroke="#808080" stroke-miterlimit="10" width="5" height="72"/>
		<rect x="1312.5" y="96.5" fill="#808080" stroke="#808080" stroke-miterlimit="10" width="4" height="72"/>
		<rect x="1232.5" y="96.5" fill="#808080" stroke="#808080" stroke-miterlimit="10" width="4" height="72"/>
		<path fill="#999999" stroke="#999999" stroke-width="5" stroke-miterlimit="10" d="M1294.485,74c0,2.5-3.54,6.67-9.5,9.5
			c-6.08,2.29-13.87,2.54-21,0c-3.62-0.71-9.46-6.08-9.5-9.5c0-3.72,2.138-6.93,5.247-8.5c1.141-0.57,2.768-0.92,3.768-0.99V57.5
			c0-6.08,4.912-11,10.992-11c3.04,0,5.794,1.23,7.784,3.22c1.989,1.99,3.224,4.74,3.224,7.78v7.01c1,0.07,2.613,0.42,3.752,0.99
			C1292.363,67.07,1294.485,70.28,1294.485,74z"/>
		<rect x="1248" y="185" fill="none" stroke="#999999" stroke-width="8" stroke-miterlimit="10" width="53" height="25"/>
		<path fill="#999999" stroke="#999999" stroke-miterlimit="10" d="M1306.5,213.23v3.27h4v22h-12v13h6v6h-6v7h-4v-7h-3.375
			c-0.881,4.19-3.625,7.81-6.625,10.24V404.5h-20V267.74c-3-2.04-4.965-4.9-6.105-8.24h-3.895v5h-4v-5h-85.225
			c-1.621,1.84-3.99,3-6.64,3h-3.3c-4.891,0-8.836-3.96-8.836-8.85v-0.301c0-3.51,2-6.54,5-7.97V75.5h11v169.88
			c1,0.7,2.666,1.78,3.535,3.12h84.465v-10h-12v-22h4v-3.27c-2-0.74-4-2.91-4-5.48v-10.5c0-3.18,2.556-5.75,5.734-5.75h0.5
			c3.182,0,5.766,2.57,5.766,5.75v10.5c0,2.57-2,4.74-4,5.48v3.27h4v11h4v21h3.905c2.271-6.69,8.62-11.5,16.08-11.5
			c8.54,0,15.61,6.3,16.81,14.5h3.205v-24h4v-11h4v-3.27c-2-0.74-4-2.91-4-5.48v-10.5c0-3.18,2.556-5.75,5.735-5.75h0.5
			c3.18,0,5.765,2.57,5.765,5.75v10.5C1310.5,210.32,1308.5,212.49,1306.5,213.23z"/>
		<path fill="#999999" stroke="#999999" stroke-width="5" stroke-miterlimit="10" d="M1552.5,75.44v94.119
			c0,5.49-4.465,9.94-9.955,9.94h-117.119c-5.491,0-9.926-4.45-9.926-9.94V75.44c0-5.49,4.435-9.94,9.926-9.94h43.3
			c-3.11,1.57-5.24,4.78-5.24,8.5c0.04,3.42,5.879,8.79,9.5,9.5c7.13,2.54,14.92,2.29,21,0c5.96-2.83,9.5-7,9.5-9.5
			c0-3.72-2.13-6.93-5.241-8.5h44.301C1548.035,65.5,1552.5,69.95,1552.5,75.44z"/>
		<path fill="#808080" stroke="#808080" stroke-width="5" stroke-miterlimit="10" d="M1541.5,162.146
			c0,4.614-3.74,8.354-8.354,8.354h-98.291c-4.614,0-8.354-3.74-8.354-8.354V82.854c0-4.614,3.74-8.354,8.354-8.354h98.291
			c4.614,0,8.354,3.74,8.354,8.354V162.146z"/>
		<rect x="1477.5" y="84.5" fill="#999999" stroke="#999999" stroke-miterlimit="10" width="12" height="170"/>
		<rect x="1439.5" y="96.5" fill="#C8C8C8" stroke="#C8C8C8" stroke-width="5" stroke-miterlimit="10" width="88" height="72"/>
		<rect x="1481.5" y="96.5" fill="#808080" stroke="#808080" stroke-miterlimit="10" width="5" height="72"/>
		<rect x="1521.5" y="96.5" fill="#808080" stroke="#808080" stroke-miterlimit="10" width="4" height="72"/>
		<rect x="1441.5" y="96.5" fill="#808080" stroke="#808080" stroke-miterlimit="10" width="4" height="72"/>
		<path fill="#999999" stroke="#999999" stroke-width="5" stroke-miterlimit="10" d="M1503.485,74c0,2.5-3.54,6.67-9.5,9.5
			c-6.08,2.29-13.87,2.54-21,0c-3.621-0.71-9.46-6.08-9.5-9.5c0-3.72,2.138-6.93,5.247-8.5c1.141-0.57,2.768-0.92,3.768-0.99V57.5
			c0-6.08,4.912-11,10.992-11c3.04,0,5.794,1.23,7.784,3.22c1.989,1.99,3.224,4.74,3.224,7.78v7.01c1,0.07,2.613,0.42,3.752,0.99
			C1501.363,67.07,1503.485,70.28,1503.485,74z"/>
		<rect x="1457" y="185" fill="none" stroke="#999999" stroke-width="8" stroke-miterlimit="10" width="53" height="25"/>
		<path fill="#999999" stroke="#999999" stroke-miterlimit="10" d="M1515.5,213.23v3.27h4v22h-12v13h6v6h-6v7h-4v-7h-3.375
			c-0.881,4.19-3.625,7.81-6.625,10.24V404.5h-20V267.74c-3-2.04-4.965-4.9-6.105-8.24h-3.895v5h-4v-5h-85.225
			c-1.62,1.84-3.991,3-6.64,3h-3.301c-4.89,0-8.835-3.96-8.835-8.85v-0.301c0-3.51,2-6.54,5-7.97V75.5h11v169.88
			c1,0.7,2.665,1.78,3.535,3.12h84.465v-10h-12v-22h4v-3.27c-2-0.74-4-2.91-4-5.48v-10.5c0-3.18,2.556-5.75,5.735-5.75h0.5
			c3.18,0,5.765,2.57,5.765,5.75v10.5c0,2.57-2,4.74-4,5.48v3.27h4v11h4v21h3.905c2.271-6.69,8.62-11.5,16.08-11.5
			c8.54,0,15.61,6.3,16.81,14.5h3.205v-24h4v-11h4v-3.27c-2-0.74-4-2.91-4-5.48v-10.5c0-3.18,2.556-5.75,5.735-5.75h0.5
			c3.18,0,5.765,2.57,5.765,5.75v10.5C1519.5,210.32,1517.5,212.49,1515.5,213.23z"/>
		<line fill="none" stroke="#999999" stroke-width="5" stroke-miterlimit="10" x1="1274.5" y1="47" x2="1274.5" y2="33"/>
		<line fill="none" stroke="#999999" stroke-width="5" stroke-miterlimit="10" x1="1483.5" y1="47" x2="1483.5" y2="34"/>
		<path fill="#999999" stroke="#999999" stroke-miterlimit="10" d="M1675.5,229.348c0,3.121-1.567,5.652-3.5,5.652l0,0
			c-1.933,0-3.5-2.531-3.5-5.652V36.152c0-3.121,1.567-5.652,3.5-5.652l0,0c1.933,0,3.5,2.531,3.5,5.652V229.348z"/>
		<rect x="1703.5" y="55.5" fill="#999999" stroke="#999999" stroke-miterlimit="10" width="12" height="10"/>
		<rect x="1679.5" y="40.5" fill="#999999" stroke="#999999" stroke-miterlimit="10" width="4" height="37"/>
		<rect x="1679.5" y="40.5" fill="#999999" stroke="#999999" stroke-miterlimit="10" width="32" height="4"/>
		<rect x="1707.5" y="40.5" fill="#999999" stroke="#999999" stroke-miterlimit="10" width="4" height="19"/>
		<path fill="#999999" stroke="#999999" stroke-miterlimit="10" d="M1728.5,222.5v26c0,6.63-5.385,12-12.015,12h-0.985v144h-12v-144
			c-7,0-12-5.37-12-12v-26c0-4.85,3-9.02,7-10.92V65.5h22v145.69C1725.5,212.83,1728.5,217.27,1728.5,222.5z"/>
		<path fill="#999999" stroke="#999999" stroke-miterlimit="10" d="M1719.544,228.5c0.796,0,1.441,1.567,1.441,3.5l0,0
			c0,1.933-0.646,3.5-1.441,3.5h-49.243c-0.795,0-1.44-1.567-1.44-3.5l0,0c0-1.933,0.646-3.5,1.44-3.5H1719.544z"/>
		<path fill="#999999" stroke="#999999" stroke-miterlimit="10" d="M1680.5,231.5c0,3.313-2.687,6-6,6h-4c-3.313,0-6-2.687-6-6l0,0
			c0-3.313,2.687-6,6-6h4C1677.813,225.5,1680.5,228.187,1680.5,231.5L1680.5,231.5z"/>
		<rect x="1251.5" y="404.5" fill="#333333" stroke="#333333" stroke-miterlimit="10" width="47" height="4"/>
		<rect x="1041.5" y="404.5" fill="#333333" stroke="#333333" stroke-miterlimit="10" width="47" height="4"/>
		<rect x="832.5" y="404.5" fill="#333333" stroke="#333333" stroke-miterlimit="10" width="47" height="4"/>
		<rect x="1460.5" y="404.5" fill="#333333" stroke="#333333" stroke-miterlimit="10" width="47" height="4"/>
		<rect x="1686.5" y="404.5" fill="#333333" stroke="#333333" stroke-miterlimit="10" width="47" height="4"/>
		<rect x="95.5" y="404.5" fill="#333333" stroke="#333333" stroke-miterlimit="10" width="431" height="4"/>
		<rect x="1481.5" y="77.5" fill="#999999" stroke="#999999" stroke-miterlimit="10" width="202" height="6"/>
	</g>
</g>
<g id="Valves">
</g>
</svg>
