<?xml version="1.0" encoding="utf-8"?>
<!-- Generator: Adobe Illustrator 17.0.0, SVG Export Plug-In . SVG Version: 6.00 Build 0)  -->
<!DOCTYPE svg PUBLIC "-//W3C//DTD SVG 1.1//EN" "http://www.w3.org/Graphics/SVG/1.1/DTD/svg11.dtd">
<svg version="1.1" xmlns="http://www.w3.org/2000/svg" xmlns:xlink="http://www.w3.org/1999/xlink" x="0px" y="0px" width="1824px"
	 height="826px" viewBox="0 0 1824 826" enable-background="new 0 0 1824 826" xml:space="preserve">
<g id="Layer_1" display="none">
</g>
<g id="Cylinder">
</g>
<g id="Layer_6">
</g>
<g id="Pressure_gauge">
</g>
<g id="Chasis__x26__base">
</g>
<g id="Layer_8">
</g>
<g id="Motor__x26__pump">
</g>
<g id="Valves">
	<g>
		<path fill="#E6E6E6" stroke="#E6E6E6" stroke-miterlimit="10" d="M603.5,48.295V432.5h-74V48.295
			c0-15.689,9.769-29.1,23.549-34.48c-0.359-0.85-0.549-1.779-0.549-2.75v-0.539c0-3.681,2.731-6.701,6.279-7.16
			c-0.18-0.291-0.279-0.631-0.279-0.99v-0.16c0-1.06,0.845-1.715,1.905-1.715h12.16c1.062,0,1.935,0.654,1.935,1.715v0.16
			c0,0.359-0.1,0.699-0.279,0.99c3.549,0.459,6.279,3.479,6.279,7.16v0.539c0,0.971-0.19,1.9-0.55,2.75
			C593.731,19.195,603.5,32.605,603.5,48.295z"/>
		<path fill="#E6E6E6" stroke="#E6E6E6" stroke-miterlimit="10" d="M687.5,48.295V432.5h-74V48.295
			c0-15.689,9.769-29.1,23.549-34.48c-0.359-0.85-0.549-1.779-0.549-2.75v-0.539c0-3.681,2.731-6.701,6.279-7.16
			c-0.18-0.291-0.279-0.631-0.279-0.99v-0.16c0-1.06,0.845-1.715,1.905-1.715h12.16c1.062,0,1.935,0.654,1.935,1.715v0.16
			c0,0.359-0.1,0.699-0.279,0.99c3.549,0.459,6.279,3.479,6.279,7.16v0.539c0,0.971-0.19,1.9-0.55,2.75
			C677.731,19.195,687.5,32.605,687.5,48.295z"/>
		<path fill="#E6E6E6" stroke="#E6E6E6" stroke-miterlimit="10" d="M771.5,48.295V432.5h-74V48.295
			c0-15.689,9.769-29.1,23.549-34.48c-0.359-0.85-0.549-1.779-0.549-2.75v-0.539c0-3.681,2.731-6.701,6.279-7.16
			c-0.18-0.291-0.279-0.631-0.279-0.99v-0.16c0-1.06,0.845-1.715,1.905-1.715h12.16c1.062,0,1.935,0.654,1.935,1.715v0.16
			c0,0.359-0.1,0.699-0.279,0.99c3.549,0.459,6.279,3.479,6.279,7.16v0.539c0,0.971-0.19,1.9-0.55,2.75
			C761.731,19.195,771.5,32.605,771.5,48.295z"/>
		<path fill="#E6E6E6" stroke="#E6E6E6" stroke-miterlimit="10" d="M855.5,48.295V432.5h-74V48.295
			c0-15.689,9.769-29.1,23.549-34.48c-0.359-0.85-0.549-1.779-0.549-2.75v-0.539c0-3.681,2.731-6.701,6.279-7.16
			c-0.18-0.291-0.279-0.631-0.279-0.99v-0.16c0-1.06,0.845-1.715,1.905-1.715h12.16c1.062,0,1.935,0.654,1.935,1.715v0.16
			c0,0.359-0.1,0.699-0.279,0.99c3.549,0.459,6.279,3.479,6.279,7.16v0.539c0,0.971-0.19,1.9-0.55,2.75
			C845.731,19.195,855.5,32.605,855.5,48.295z"/>
		<path fill="#E6E6E6" stroke="#E6E6E6" stroke-miterlimit="10" d="M939.5,48.295V432.5h-74V48.295
			c0-15.689,9.769-29.1,23.549-34.48c-0.359-0.85-0.549-1.779-0.549-2.75v-0.539c0-3.681,2.731-6.701,6.279-7.16
			c-0.18-0.291-0.279-0.631-0.279-0.99v-0.16c0-1.06,0.845-1.715,1.905-1.715h12.16c1.062,0,1.935,0.654,1.935,1.715v0.16
			c0,0.359-0.1,0.699-0.279,0.99c3.549,0.459,6.279,3.479,6.279,7.16v0.539c0,0.971-0.19,1.9-0.55,2.75
			C929.731,19.195,939.5,32.605,939.5,48.295z"/>
		<path fill="#E6E6E6" stroke="#E6E6E6" stroke-miterlimit="10" d="M1023.5,48.295V432.5h-74V48.295
			c0-15.689,9.769-29.1,23.549-34.48c-0.359-0.85-0.549-1.779-0.549-2.75v-0.539c0-3.681,2.731-6.701,6.279-7.16
			c-0.18-0.291-0.279-0.631-0.279-0.99v-0.16c0-1.06,0.845-1.715,1.905-1.715h12.16c1.062,0,1.935,0.654,1.935,1.715v0.16
			c0,0.359-0.1,0.699-0.279,0.99c3.549,0.459,6.279,3.479,6.279,7.16v0.539c0,0.971-0.19,1.9-0.55,2.75
			C1013.731,19.195,1023.5,32.605,1023.5,48.295z"/>
		<path fill="#E6E6E6" stroke="#E6E6E6" stroke-miterlimit="10" d="M1107.5,48.295V432.5h-74V48.295
			c0-15.689,9.77-29.1,23.549-34.48c-0.359-0.85-0.549-1.779-0.549-2.75v-0.539c0-3.681,2.73-6.701,6.279-7.16
			c-0.18-0.291-0.279-0.631-0.279-0.99v-0.16c0-1.06,0.845-1.715,1.905-1.715h12.16c1.062,0,1.935,0.654,1.935,1.715v0.16
			c0,0.359-0.1,0.699-0.279,0.99c3.549,0.459,6.279,3.479,6.279,7.16v0.539c0,0.971-0.189,1.9-0.55,2.75
			C1097.73,19.195,1107.5,32.605,1107.5,48.295z"/>
		<path fill="#E6E6E6" stroke="#E6E6E6" stroke-miterlimit="10" d="M1191.5,48.295V432.5h-74V48.295
			c0-15.689,9.77-29.1,23.549-34.48c-0.359-0.85-0.549-1.779-0.549-2.75v-0.539c0-3.681,2.73-6.701,6.279-7.16
			c-0.18-0.291-0.279-0.631-0.279-0.99v-0.16c0-1.06,0.845-1.715,1.905-1.715h12.16c1.062,0,1.935,0.654,1.935,1.715v0.16
			c0,0.359-0.1,0.699-0.279,0.99c3.549,0.459,6.279,3.479,6.279,7.16v0.539c0,0.971-0.189,1.9-0.55,2.75
			C1181.73,19.195,1191.5,32.605,1191.5,48.295z"/>
		<path fill="#E6E6E6" stroke="#E6E6E6" stroke-miterlimit="10" d="M1275.5,48.295V432.5h-74V48.295
			c0-15.689,9.77-29.1,23.549-34.48c-0.359-0.85-0.549-1.779-0.549-2.75v-0.539c0-3.681,2.73-6.701,6.279-7.16
			c-0.18-0.291-0.279-0.631-0.279-0.99v-0.16c0-1.06,0.845-1.715,1.905-1.715h12.16c1.062,0,1.935,0.654,1.935,1.715v0.16
			c0,0.359-0.1,0.699-0.279,0.99c3.549,0.459,6.279,3.479,6.279,7.16v0.539c0,0.971-0.189,1.9-0.55,2.75
			C1265.73,19.195,1275.5,32.605,1275.5,48.295z"/>
		<path fill="#E6E6E6" stroke="#E6E6E6" stroke-miterlimit="10" d="M1359.5,48.295V432.5h-74V48.295
			c0-15.689,9.77-29.1,23.549-34.48c-0.359-0.85-0.549-1.779-0.549-2.75v-0.539c0-3.681,2.73-6.701,6.279-7.16
			c-0.18-0.291-0.279-0.631-0.279-0.99v-0.16c0-1.06,0.845-1.715,1.905-1.715h12.16c1.062,0,1.935,0.654,1.935,1.715v0.16
			c0,0.359-0.1,0.699-0.279,0.99c3.549,0.459,6.279,3.479,6.279,7.16v0.539c0,0.971-0.189,1.9-0.55,2.75
			C1349.73,19.195,1359.5,32.605,1359.5,48.295z"/>
		<path fill="#E6E6E6" stroke="#E6E6E6" stroke-miterlimit="10" d="M1443.5,48.295V432.5h-74V48.295
			c0-15.689,9.77-29.1,23.549-34.48c-0.359-0.85-0.549-1.779-0.549-2.75v-0.539c0-3.681,2.73-6.701,6.279-7.16
			c-0.18-0.291-0.279-0.631-0.279-0.99v-0.16c0-1.06,0.845-1.715,1.905-1.715h12.16c1.062,0,1.935,0.654,1.935,1.715v0.16
			c0,0.359-0.1,0.699-0.279,0.99c3.549,0.459,6.279,3.479,6.279,7.16v0.539c0,0.971-0.189,1.9-0.55,2.75
			C1433.73,19.195,1443.5,32.605,1443.5,48.295z"/>
		<path fill="#E6E6E6" stroke="#E6E6E6" stroke-miterlimit="10" d="M1527.5,48.295V432.5h-74V48.295
			c0-15.689,9.77-29.1,23.549-34.48c-0.359-0.85-0.549-1.779-0.549-2.75v-0.539c0-3.681,2.73-6.701,6.279-7.16
			c-0.18-0.291-0.279-0.631-0.279-0.99v-0.16c0-1.06,0.845-1.715,1.905-1.715h12.16c1.062,0,1.935,0.654,1.935,1.715v0.16
			c0,0.359-0.1,0.699-0.279,0.99c3.549,0.459,6.279,3.479,6.279,7.16v0.539c0,0.971-0.189,1.9-0.55,2.75
			C1517.73,19.195,1527.5,32.605,1527.5,48.295z"/>
		<path fill="#E6E6E6" stroke="#E6E6E6" stroke-miterlimit="10" d="M1611.5,48.295V432.5h-74V48.295
			c0-15.689,9.77-29.1,23.549-34.48c-0.359-0.85-0.549-1.779-0.549-2.75v-0.539c0-3.681,2.73-6.701,6.279-7.16
			c-0.18-0.291-0.279-0.631-0.279-0.99v-0.16c0-1.06,0.845-1.715,1.905-1.715h12.16c1.062,0,1.935,0.654,1.935,1.715v0.16
			c0,0.359-0.1,0.699-0.279,0.99c3.549,0.459,6.279,3.479,6.279,7.16v0.539c0,0.971-0.189,1.9-0.55,2.75
			C1601.73,19.195,1611.5,32.605,1611.5,48.295z"/>
		<path fill="#B3B3B3" stroke="#B3B3B3" stroke-miterlimit="10" d="M597.5,74.295V458.5h-74V74.295
			c0-15.689,9.769-29.1,23.549-34.48c-0.359-0.85-0.549-1.779-0.549-2.75v-0.539c0-3.681,2.731-6.701,6.279-7.16
			c-0.18-0.291-0.279-0.631-0.279-0.99v-0.16c0-1.06,0.845-1.715,1.905-1.715h12.16c1.062,0,1.935,0.654,1.935,1.715v0.16
			c0,0.359-0.1,0.699-0.279,0.99c3.549,0.459,6.279,3.479,6.279,7.16v0.539c0,0.971-0.19,1.9-0.55,2.75
			C587.731,45.195,597.5,58.605,597.5,74.295z"/>
		<path fill="#B3B3B3" stroke="#B3B3B3" stroke-miterlimit="10" d="M681.5,74.295V458.5h-74V74.295
			c0-15.689,9.769-29.1,23.549-34.48c-0.359-0.85-0.549-1.779-0.549-2.75v-0.539c0-3.681,2.731-6.701,6.279-7.16
			c-0.18-0.291-0.279-0.631-0.279-0.99v-0.16c0-1.06,0.845-1.715,1.905-1.715h12.16c1.062,0,1.935,0.654,1.935,1.715v0.16
			c0,0.359-0.1,0.699-0.279,0.99c3.549,0.459,6.279,3.479,6.279,7.16v0.539c0,0.971-0.19,1.9-0.55,2.75
			C671.731,45.195,681.5,58.605,681.5,74.295z"/>
		<path fill="#B3B3B3" stroke="#B3B3B3" stroke-miterlimit="10" d="M765.5,74.295V458.5h-74V74.295
			c0-15.689,9.769-29.1,23.549-34.48c-0.359-0.85-0.549-1.779-0.549-2.75v-0.539c0-3.681,2.731-6.701,6.279-7.16
			c-0.18-0.291-0.279-0.631-0.279-0.99v-0.16c0-1.06,0.845-1.715,1.905-1.715h12.16c1.062,0,1.935,0.654,1.935,1.715v0.16
			c0,0.359-0.1,0.699-0.279,0.99c3.549,0.459,6.279,3.479,6.279,7.16v0.539c0,0.971-0.19,1.9-0.55,2.75
			C755.731,45.195,765.5,58.605,765.5,74.295z"/>
		<path fill="#B3B3B3" stroke="#B3B3B3" stroke-miterlimit="10" d="M849.5,74.295V458.5h-74V74.295
			c0-15.689,9.769-29.1,23.549-34.48c-0.359-0.85-0.549-1.779-0.549-2.75v-0.539c0-3.681,2.731-6.701,6.279-7.16
			c-0.18-0.291-0.279-0.631-0.279-0.99v-0.16c0-1.06,0.845-1.715,1.905-1.715h12.16c1.062,0,1.935,0.654,1.935,1.715v0.16
			c0,0.359-0.1,0.699-0.279,0.99c3.549,0.459,6.279,3.479,6.279,7.16v0.539c0,0.971-0.19,1.9-0.55,2.75
			C839.731,45.195,849.5,58.605,849.5,74.295z"/>
		<path fill="#B3B3B3" stroke="#B3B3B3" stroke-miterlimit="10" d="M933.5,74.295V458.5h-74V74.295
			c0-15.689,9.769-29.1,23.549-34.48c-0.359-0.85-0.549-1.779-0.549-2.75v-0.539c0-3.681,2.731-6.701,6.279-7.16
			c-0.18-0.291-0.279-0.631-0.279-0.99v-0.16c0-1.06,0.845-1.715,1.905-1.715h12.16c1.062,0,1.935,0.654,1.935,1.715v0.16
			c0,0.359-0.1,0.699-0.279,0.99c3.549,0.459,6.279,3.479,6.279,7.16v0.539c0,0.971-0.19,1.9-0.55,2.75
			C923.731,45.195,933.5,58.605,933.5,74.295z"/>
		<path fill="#B3B3B3" stroke="#B3B3B3" stroke-miterlimit="10" d="M1017.5,74.295V458.5h-74V74.295
			c0-15.689,9.769-29.1,23.549-34.48c-0.359-0.85-0.549-1.779-0.549-2.75v-0.539c0-3.681,2.731-6.701,6.279-7.16
			c-0.18-0.291-0.279-0.631-0.279-0.99v-0.16c0-1.06,0.845-1.715,1.905-1.715h12.16c1.062,0,1.935,0.654,1.935,1.715v0.16
			c0,0.359-0.1,0.699-0.279,0.99c3.549,0.459,6.279,3.479,6.279,7.16v0.539c0,0.971-0.19,1.9-0.55,2.75
			C1007.731,45.195,1017.5,58.605,1017.5,74.295z"/>
		<path fill="#B3B3B3" stroke="#B3B3B3" stroke-miterlimit="10" d="M1101.5,74.295V458.5h-74V74.295
			c0-15.689,9.77-29.1,23.549-34.48c-0.359-0.85-0.549-1.779-0.549-2.75v-0.539c0-3.681,2.73-6.701,6.279-7.16
			c-0.18-0.291-0.279-0.631-0.279-0.99v-0.16c0-1.06,0.845-1.715,1.905-1.715h12.16c1.062,0,1.935,0.654,1.935,1.715v0.16
			c0,0.359-0.1,0.699-0.279,0.99c3.549,0.459,6.279,3.479,6.279,7.16v0.539c0,0.971-0.189,1.9-0.55,2.75
			C1091.73,45.195,1101.5,58.605,1101.5,74.295z"/>
		<path fill="#B3B3B3" stroke="#B3B3B3" stroke-miterlimit="10" d="M1185.5,74.295V458.5h-74V74.295
			c0-15.689,9.77-29.1,23.549-34.48c-0.359-0.85-0.549-1.779-0.549-2.75v-0.539c0-3.681,2.73-6.701,6.279-7.16
			c-0.18-0.291-0.279-0.631-0.279-0.99v-0.16c0-1.06,0.845-1.715,1.905-1.715h12.16c1.062,0,1.935,0.654,1.935,1.715v0.16
			c0,0.359-0.1,0.699-0.279,0.99c3.549,0.459,6.279,3.479,6.279,7.16v0.539c0,0.971-0.189,1.9-0.55,2.75
			C1175.73,45.195,1185.5,58.605,1185.5,74.295z"/>
		<path fill="#B3B3B3" stroke="#B3B3B3" stroke-miterlimit="10" d="M1269.5,74.295V458.5h-74V74.295
			c0-15.689,9.77-29.1,23.549-34.48c-0.359-0.85-0.549-1.779-0.549-2.75v-0.539c0-3.681,2.73-6.701,6.279-7.16
			c-0.18-0.291-0.279-0.631-0.279-0.99v-0.16c0-1.06,0.845-1.715,1.905-1.715h12.16c1.062,0,1.935,0.654,1.935,1.715v0.16
			c0,0.359-0.1,0.699-0.279,0.99c3.549,0.459,6.279,3.479,6.279,7.16v0.539c0,0.971-0.189,1.9-0.55,2.75
			C1259.73,45.195,1269.5,58.605,1269.5,74.295z"/>
		<path fill="#B3B3B3" stroke="#B3B3B3" stroke-miterlimit="10" d="M1353.5,74.295V458.5h-74V74.295
			c0-15.689,9.77-29.1,23.549-34.48c-0.359-0.85-0.549-1.779-0.549-2.75v-0.539c0-3.681,2.73-6.701,6.279-7.16
			c-0.18-0.291-0.279-0.631-0.279-0.99v-0.16c0-1.06,0.845-1.715,1.905-1.715h12.16c1.062,0,1.935,0.654,1.935,1.715v0.16
			c0,0.359-0.1,0.699-0.279,0.99c3.549,0.459,6.279,3.479,6.279,7.16v0.539c0,0.971-0.189,1.9-0.55,2.75
			C1343.73,45.195,1353.5,58.605,1353.5,74.295z"/>
		<path fill="#B3B3B3" stroke="#B3B3B3" stroke-miterlimit="10" d="M1437.5,74.295V458.5h-74V74.295
			c0-15.689,9.77-29.1,23.549-34.48c-0.359-0.85-0.549-1.779-0.549-2.75v-0.539c0-3.681,2.73-6.701,6.279-7.16
			c-0.18-0.291-0.279-0.631-0.279-0.99v-0.16c0-1.06,0.845-1.715,1.905-1.715h12.16c1.062,0,1.935,0.654,1.935,1.715v0.16
			c0,0.359-0.1,0.699-0.279,0.99c3.549,0.459,6.279,3.479,6.279,7.16v0.539c0,0.971-0.189,1.9-0.55,2.75
			C1427.73,45.195,1437.5,58.605,1437.5,74.295z"/>
		<path fill="#B3B3B3" stroke="#B3B3B3" stroke-miterlimit="10" d="M1521.5,74.295V458.5h-74V74.295
			c0-15.689,9.77-29.1,23.549-34.48c-0.359-0.85-0.549-1.779-0.549-2.75v-0.539c0-3.681,2.73-6.701,6.279-7.16
			c-0.18-0.291-0.279-0.631-0.279-0.99v-0.16c0-1.06,0.845-1.715,1.905-1.715h12.16c1.062,0,1.935,0.654,1.935,1.715v0.16
			c0,0.359-0.1,0.699-0.279,0.99c3.549,0.459,6.279,3.479,6.279,7.16v0.539c0,0.971-0.189,1.9-0.55,2.75
			C1511.73,45.195,1521.5,58.605,1521.5,74.295z"/>
		<path fill="#B3B3B3" stroke="#B3B3B3" stroke-miterlimit="10" d="M1605.5,74.295V458.5h-74V74.295
			c0-15.689,9.77-29.1,23.549-34.48c-0.359-0.85-0.549-1.779-0.549-2.75v-0.539c0-3.681,2.73-6.701,6.279-7.16
			c-0.18-0.291-0.279-0.631-0.279-0.99v-0.16c0-1.06,0.845-1.715,1.905-1.715h12.16c1.062,0,1.935,0.654,1.935,1.715v0.16
			c0,0.359-0.1,0.699-0.279,0.99c3.549,0.459,6.279,3.479,6.279,7.16v0.539c0,0.971-0.189,1.9-0.55,2.75
			C1595.73,45.195,1605.5,58.605,1605.5,74.295z"/>
		<rect x="1664.5" y="260.5" fill="#999999" stroke="#999999" stroke-miterlimit="10" width="10" height="60"/>
		<rect x="1529.5" y="260.5" fill="#999999" stroke="#999999" stroke-miterlimit="10" width="10" height="60"/>
		<rect x="1393.5" y="260.5" fill="#999999" stroke="#999999" stroke-miterlimit="10" width="10" height="60"/>
		<rect x="1258.5" y="260.5" fill="#999999" stroke="#999999" stroke-miterlimit="10" width="10" height="60"/>
		<rect x="1123.5" y="260.5" fill="#999999" stroke="#999999" stroke-miterlimit="10" width="10" height="60"/>
		<rect x="988.5" y="260.5" fill="#999999" stroke="#999999" stroke-miterlimit="10" width="10" height="60"/>
		<rect x="853.5" y="260.5" fill="#999999" stroke="#999999" stroke-miterlimit="10" width="10" height="60"/>
		<rect x="718.5" y="260.5" fill="#999999" stroke="#999999" stroke-miterlimit="10" width="10" height="60"/>
		<rect x="583.5" y="260.5" fill="#999999" stroke="#999999" stroke-miterlimit="10" width="10" height="60"/>
		<rect x="448.5" y="260.5" fill="#999999" stroke="#999999" stroke-miterlimit="10" width="10" height="60"/>
		<rect x="314.5" y="260.5" fill="#999999" stroke="#999999" stroke-miterlimit="10" width="10" height="60"/>
		<rect x="179.5" y="260.5" fill="#999999" stroke="#999999" stroke-miterlimit="10" width="10" height="60"/>
		<path fill="#999999" stroke="#999999" stroke-miterlimit="10" d="M1677.5,243.045c0,4.557-5.486,8.455-12.234,8.455h-67.396
			c-6.75,0-12.369-3.898-12.369-8.455v-0.5c0-4.557,5.619-8.045,12.369-8.045h67.396c6.748,0,12.234,3.488,12.234,8.045V243.045z"/>
		<rect x="1666.5" y="247.5" fill="#999999" stroke="#999999" stroke-miterlimit="10" width="6" height="17"/>
		<path fill="#FFFFFF" stroke="#808080" stroke-width="5" stroke-miterlimit="10" d="M1169.5,228.5v-85.705
			c0,0,1.528-15.295,25.104-15.295c23.574,0,286.648,0,308.684,0c22.033,0,19.213,15.962,19.213,15.962V228.5H1169.5z"/>
		<circle fill="#FFFFFF" stroke="#808080" stroke-width="5" stroke-miterlimit="10" cx="1224.862" cy="177.543" r="33.748"/>
		<circle fill="#FFFFFF" stroke="#808080" stroke-width="5" stroke-miterlimit="10" cx="1306.862" cy="177.543" r="33.748"/>
		<circle fill="#FFFFFF" stroke="#808080" stroke-width="5" stroke-miterlimit="10" cx="1388.862" cy="177.543" r="33.748"/>
		<circle fill="#FFFFFF" stroke="#808080" stroke-width="5" stroke-miterlimit="10" cx="1470.862" cy="177.543" r="33.748"/>
		<line fill="none" stroke="#999999" stroke-miterlimit="10" x1="1224.862" y1="177.543" x2="1208.629" y2="193.777"/>
		
			<line fill="none" stroke="#999999" stroke-linecap="round" stroke-miterlimit="10" x1="1224.862" y1="177.543" x2="1240.798" y2="161.607"/>
		<polygon fill="#999999" stroke="#999999" stroke-miterlimit="10" points="1213.127,192.713 1206.799,195.576 1209.663,189.249 		
			"/>
		<circle fill="none" stroke="#999999" stroke-miterlimit="10" cx="1224.922" cy="177.482" r="27.812"/>
		<circle fill="#666666" stroke="#666666" stroke-miterlimit="10" cx="1224.861" cy="177.543" r="1.791"/>
		<line fill="none" stroke="#999999" stroke-miterlimit="10" x1="1306.862" y1="177.543" x2="1290.629" y2="193.777"/>
		
			<line fill="none" stroke="#999999" stroke-linecap="round" stroke-miterlimit="10" x1="1306.862" y1="177.543" x2="1322.798" y2="161.607"/>
		<polygon fill="#999999" stroke="#999999" stroke-miterlimit="10" points="1295.127,192.713 1288.799,195.576 1291.663,189.249 		
			"/>
		<circle fill="none" stroke="#999999" stroke-miterlimit="10" cx="1306.922" cy="177.482" r="27.812"/>
		<circle fill="#666666" stroke="#666666" stroke-miterlimit="10" cx="1306.861" cy="177.543" r="1.791"/>
		<line fill="none" stroke="#999999" stroke-miterlimit="10" x1="1388.862" y1="177.543" x2="1372.629" y2="193.777"/>
		
			<line fill="none" stroke="#999999" stroke-linecap="round" stroke-miterlimit="10" x1="1388.862" y1="177.543" x2="1404.798" y2="161.607"/>
		<polygon fill="#999999" stroke="#999999" stroke-miterlimit="10" points="1377.127,192.713 1370.799,195.576 1373.663,189.249 		
			"/>
		<circle fill="none" stroke="#999999" stroke-miterlimit="10" cx="1388.922" cy="177.482" r="27.812"/>
		<circle fill="#666666" stroke="#666666" stroke-miterlimit="10" cx="1388.861" cy="177.543" r="1.791"/>
		<line fill="none" stroke="#999999" stroke-miterlimit="10" x1="1470.862" y1="177.543" x2="1454.629" y2="193.777"/>
		
			<line fill="none" stroke="#999999" stroke-linecap="round" stroke-miterlimit="10" x1="1470.862" y1="177.543" x2="1486.798" y2="161.607"/>
		<polygon fill="#999999" stroke="#999999" stroke-miterlimit="10" points="1459.127,192.713 1452.799,195.576 1455.663,189.249 		
			"/>
		<circle fill="none" stroke="#999999" stroke-miterlimit="10" cx="1470.922" cy="177.482" r="27.812"/>
		<circle fill="#666666" stroke="#666666" stroke-miterlimit="10" cx="1470.861" cy="177.543" r="1.791"/>
		<g>
			<g>
				<path fill="#FFFFFF" stroke="#999999" stroke-miterlimit="10" d="M984.5,232.048c0,5.772-5.091,10.452-11.371,10.452H722.018
					c-6.28,0-11.518-4.68-11.518-10.452V117.952c0-5.772,5.238-10.452,11.518-10.452h251.111c6.28,0,11.371,4.68,11.371,10.452
					V232.048z"/>
				<text transform="matrix(1 0 0 1 731.5 130.5)" fill="#4D4D4D" font-family="'MyriadPro-Regular'" font-size="12">MODE SELECT</text>
				<text transform="matrix(1 0 0 1 849.5 130.5)" fill="#4D4D4D" font-family="'MyriadPro-Regular'" font-size="12">OVERBOARD PRESELECT</text>
				<text transform="matrix(1 0 0 1 721.5 164.5)" font-family="'MyriadPro-Regular'" font-size="12">BOP</text>
				<text transform="matrix(1 0 0 1 764.5 164.5)" font-family="'MyriadPro-Regular'" font-size="12">DIVERTER</text>
				<text transform="matrix(1 0 0 1 844.5 164.5)"><tspan x="0" y="0" font-family="'MyriadPro-Regular'" font-size="12">PRT OPEN/</tspan><tspan x="0" y="14.4" font-family="'MyriadPro-Regular'" font-size="12">STBD CLOSE</tspan></text>
				<text transform="matrix(1 0 0 1 919.5 164.5)"><tspan x="0" y="0" font-family="'MyriadPro-Regular'" font-size="12">PRT CLOSE/</tspan><tspan x="0" y="14.4" font-family="'MyriadPro-Regular'" font-size="12">STBD OPEN</tspan></text>
				<circle fill="#FFFFFF" stroke="#000000" stroke-miterlimit="10" cx="733.941" cy="206.456" r="6.441"/>
				<circle fill="#FFFFFF" stroke="#000000" stroke-miterlimit="10" cx="786.941" cy="206.456" r="6.441"/>
				<circle fill="#FFFFFF" stroke="#000000" stroke-miterlimit="10" cx="870.941" cy="206.456" r="6.441"/>
				<circle fill="#FFFFFF" stroke="#000000" stroke-miterlimit="10" cx="943.941" cy="206.456" r="6.441"/>
			</g>
			<line fill="#4D4D4D" stroke="#4D4D4D" stroke-miterlimit="10" x1="710" y1="143.5" x2="984" y2="143.5"/>
		</g>
		<g>
			<path fill="#999999" stroke="#999999" stroke-miterlimit="10" d="M195.5,249.5h-40.595c-0.671-2-1.405-3.245-3.405-4.125V170.5
				h-15v74.875c-1,0.34-1.178,0.872-1.668,1.362c-0.75,0.75-1.356,1.763-1.767,2.763H71.5v6h61.565c0.669,1,1.435,2.835,3.435,3.715
				V387.5h15V259.215c2-0.88,2.734-2.715,3.405-3.715H195.5V249.5z"/>
			<polygon fill="#999999" stroke="#999999" stroke-miterlimit="10" points="297.5,226.295 297.5,260.5 1038.5,260.5 
				1038.5,227.527 			"/>
		</g>
		<rect x="1038.5" y="227.5" fill="#999999" stroke="#999999" stroke-miterlimit="10" width="503" height="33"/>
		<rect x="1562.5" y="284.5" fill="#999999" stroke="#999999" stroke-miterlimit="10" width="15" height="103"/>
		<path fill="#999999" stroke="#999999" stroke-miterlimit="10" d="M181.5,130.5H93.306c-0.991-1-2.5-2-4.191-2h-3.26
			c-2.971,0-5.355,2.195-5.355,5.165v0.26c0,2.5,2,4.591,4,5.19V218.5h6v-79.385c2-0.391,2.755-1.615,3.425-2.615H181.5V130.5z"/>
		<rect x="0.5" y="793.5" fill="#333333" stroke="#333333" stroke-miterlimit="10" width="1823" height="32"/>
		<rect x="1562.5" y="208.5" fill="#999999" stroke="#999999" stroke-miterlimit="10" width="15" height="11"/>
		<rect x="1548.5" y="278.5" fill="#999999" stroke="#999999" stroke-miterlimit="10" width="43" height="6"/>
		<path fill="#808080" stroke="#808080" stroke-miterlimit="10" d="M1599.5,270.268c0,4.547-3.686,8.232-8.232,8.232h-42.535
			c-4.547,0-8.232-3.685-8.232-8.232v-42.535c0-4.547,3.686-8.232,8.232-8.232h42.535c4.547,0,8.232,3.686,8.232,8.232V270.268z"/>
		<circle fill="#C8C8C8" stroke="#C8C8C8" stroke-miterlimit="10" cx="1570.485" cy="248.295" r="20.924"/>
		<rect x="1552.5" y="107.5" fill="#999999" stroke="#999999" stroke-miterlimit="10" width="34" height="101"/>
		<rect x="1559.5" y="102.5" fill="#999999" stroke="#999999" stroke-miterlimit="10" width="19" height="5"/>
		<path fill="#999999" stroke="#999999" stroke-miterlimit="10" d="M357.5,238.295c0-6.627-7.209-11.795-16.078-11.795H182.161
			c-8.87,0-16.661,5.168-16.661,11.795v10c0,6.627,7.791,12.205,16.661,12.205h159.261c8.869,0,16.078-5.578,16.078-12.205V238.295z
			"/>
		<rect x="65.5" y="278.5" fill="#999999" stroke="#999999" stroke-miterlimit="10" width="43" height="6"/>
		<path fill="#808080" stroke="#808080" stroke-miterlimit="10" d="M116.5,270.268c0,4.547-3.686,8.232-8.232,8.232H65.732
			c-4.547,0-8.232-3.685-8.232-8.232v-42.535c0-4.547,3.686-8.232,8.232-8.232h42.535c4.547,0,8.232,3.686,8.232,8.232V270.268z"/>
		<circle fill="#C8C8C8" stroke="#C8C8C8" stroke-miterlimit="10" cx="87.485" cy="248.295" r="20.924"/>
		<rect x="79.5" y="284.5" fill="#999999" stroke="#999999" stroke-miterlimit="10" width="15" height="103"/>
		<rect x="66.5" y="385.5" fill="#808080" stroke="#808080" stroke-miterlimit="10" width="1697" height="408"/>
		<rect x="106.5" y="454.5" fill="#999999" stroke="#999999" stroke-miterlimit="10" width="1377" height="11"/>
		<g>
			<path fill="#999999" stroke="#999999" stroke-width="5" stroke-miterlimit="10" d="M1134.5,460.235v94.119
				c0,5.49-4.451,10.146-9.94,10.146H1007.44c-5.49,0-9.94-4.655-9.94-10.146v-94.119c0-5.49,4.45-9.735,9.94-9.735h43.3
				c-3.11,1-5.24,4.678-5.24,8.397c0.04,3.42,5.88,8.739,9.5,9.448c7.13,2.541,14.92,2.265,21-0.025c5.96-2.83,9.5-6.91,9.5-9.41
				c0-3.72-2.131-7.41-5.24-8.41h44.3C1130.049,450.5,1134.5,454.745,1134.5,460.235z"/>
			<path fill="#808080" stroke="#808080" stroke-width="5" stroke-miterlimit="10" d="M1123.5,547.146
				c0,4.614-3.74,8.354-8.354,8.354h-98.291c-4.614,0-8.354-3.74-8.354-8.354v-79.291c0-4.614,3.74-8.354,8.354-8.354h98.291
				c4.614,0,8.354,3.74,8.354,8.354V547.146z"/>
			<rect x="1059.5" y="469.5" fill="#999999" stroke="#999999" stroke-miterlimit="10" width="12" height="170"/>
			<rect x="1021.5" y="481.5" fill="#C8C8C8" stroke="#C8C8C8" stroke-width="5" stroke-miterlimit="10" width="88" height="72"/>
			<rect x="1063.5" y="481.5" fill="#808080" stroke="#808080" stroke-miterlimit="10" width="5" height="72"/>
			<rect x="1103.5" y="481.5" fill="#808080" stroke="#808080" stroke-miterlimit="10" width="4" height="72"/>
			<rect x="1023.5" y="481.5" fill="#808080" stroke="#808080" stroke-miterlimit="10" width="4" height="72"/>
			<path fill="#999999" stroke="#999999" stroke-width="5" stroke-miterlimit="10" d="M1085.5,458.795c0,2.5-3.54,6.67-9.5,9.5
				c-6.08,2.29-13.87,2.54-21,0c-3.62-0.71-9.46-6.08-9.5-9.5c0-3.72,2.13-6.93,5.24-8.5c1.14-0.57,2.42-0.92,3.76-0.99v-7.01
				c0-6.08,4.92-11,11-11c3.04,0,5.79,1.23,7.78,3.22c1.989,1.99,3.22,4.74,3.22,7.78v7.01c1.34,0.07,2.619,0.42,3.76,0.99
				C1083.369,451.865,1085.5,455.075,1085.5,458.795z"/>
			<rect x="1039" y="570" fill="none" stroke="#999999" stroke-width="8" stroke-miterlimit="10" width="53" height="25"/>
			<path fill="#999999" stroke="#999999" stroke-miterlimit="10" d="M1097.5,598.025v3.475h4v22h-12v13h6v6h-6v7h-4v-7h-3.36
				c-0.88,4-3.29,7.604-6.64,10.035V789.5h-20V652.535c-2.81-2.04-4.951-5.035-6.09-8.035h-3.91v5h-4v-5h-85.21
				c-1.62,2-3.99,3-6.64,3h-3.301c-4.89,0-8.85-4.165-8.85-9.055v-0.301c0-3.51,2.04-6.54,5-7.97V460.5h11v169.675
				c1.45,0.7,2.68,1.325,3.549,3.325h84.451v-10h-12v-22h4v-3.475c-2.32-0.74-4-2.91-4-5.48v-10.5c0-3.18,2.57-5.545,5.75-5.545h0.5
				c3.18,0,5.75,2.365,5.75,5.545v10.5c0,2.57-1.68,4.74-4,5.48v3.475h4v11h4v21h3.92c2.271-7,8.62-11.5,16.08-11.5
				c8.54,0,15.61,6.5,16.81,14.5h3.19v-24h4v-11h4v-3.475c-2.32-0.74-4-2.91-4-5.48v-10.5c0-3.18,2.57-5.545,5.75-5.545h0.5
				c3.18,0,5.75,2.365,5.75,5.545v10.5C1101.5,595.115,1099.82,597.285,1097.5,598.025z"/>
			<line fill="none" stroke="#999999" stroke-width="5" stroke-miterlimit="10" x1="1065.5" y1="432" x2="1065.5" y2="418"/>
		</g>
		<rect x="106.5" y="730.5" fill="#999999" stroke="#999999" stroke-miterlimit="10" width="408" height="59"/>
		<rect x="106.5" y="607.5" fill="#999999" stroke="#999999" stroke-miterlimit="10" width="226" height="99"/>
		<rect x="106.5" y="712.5" fill="#999999" stroke="#999999" stroke-miterlimit="10" width="461" height="13"/>
		<rect x="514.5" y="635.5" fill="#999999" stroke="#999999" stroke-miterlimit="10" width="37" height="77"/>
		<path fill="#999999" stroke="#999999" stroke-miterlimit="10" d="M595.985,577.305c-0.43,0.391-0.95,0.63-1.49,0.721
			c-0.279,7.5-1.82,14.67-4.409,21.319c0.409,0.16,0.791,0.42,1.109,0.77c1.09,1.22,1,3.09-0.21,4.19
			c-0.93,0.84-2.24,0.99-3.3,0.471c-3.21,6.46-7.44,12.31-12.479,17.35c1.079,1.22,0.989,3.08-0.221,4.18
			c-1.21,1.09-3.07,1.01-4.171-0.18c-11.459,9.57-26.209,15.33-42.301,15.33c-36.468,0-66.058-29.561-66.058-66.03
			c0-17.12,6.529-32.729,17.229-44.46c-0.979-1.21-0.86-3,0.31-4.06c1.1-0.99,2.739-1.011,3.85-0.12
			c4.91-4.51,10.5-8.29,16.601-11.15c-0.711-1.19-0.521-2.76,0.55-3.73c1.221-1.101,3.1-1,4.2,0.21c0.33,0.37,0.566,0.81,0.668,1.26
			c6.17-2.26,12.637-3.61,19.637-3.92v-0.07c0-1.63,1.359-2.96,3-2.96s3,1.33,3,2.96v0.07c7,0.29,12.822,1.53,18.732,3.59
			c0.16-0.42,0.417-0.81,0.767-1.14c1.22-1.101,3.098-1,4.198,0.21c0.789,0.88,0.959,2.109,0.529,3.13
			c6.43,2.899,12.309,6.81,17.439,11.519c1.221-0.95,2.979-0.81,4.029,0.351c0.979,1.1,1.011,2.72,0.119,3.83
			c4.199,4.59,7.751,9.779,10.521,15.42c1.129-0.471,2.489-0.21,3.359,0.75c1.09,1.22,1,3.09-0.21,4.19
			c-0.24,0.21-0.5,0.38-0.779,0.5c2.439,6.38,3.929,13.231,4.269,20.38c0.64,0.101,1.25,0.41,1.72,0.931
			C597.285,574.335,597.195,576.205,595.985,577.305z"/>
		<circle fill="#999999" stroke="#999999" stroke-miterlimit="10" cx="1426.981" cy="513.106" r="2.967"/>
		<path fill="#666666" stroke="#666666" stroke-miterlimit="10" d="M581.485,571.415c0,15.16-7.76,28.51-19.529,36.3l-0.021,0.021
			l-150.1,103.21c-17.761,14.59-40.5,23.34-65.28,23.34c-56.85,0-102.94-46.09-102.94-102.94c0-56.85,46.091-102.939,102.94-102.939
			l191.43-0.49C562.005,527.915,581.485,547.385,581.485,571.415z"/>
		<path fill="#E6E6E6" stroke="#E6E6E6" stroke-width="5" stroke-miterlimit="10" d="M567.43,574.381
			c0,13.899-7.115,26.138-17.904,33.279l-0.019,0.019l-137.612,94.623c-16.282,13.376-37.13,21.398-59.848,21.398
			c-52.12,0-94.376-42.256-94.376-94.375c0-52.121,42.256-94.376,94.376-94.376l175.502-0.449
			C549.568,534.5,567.43,552.351,567.43,574.381z"/>
		<rect x="106.5" y="385.5" fill="#999999" stroke="#999999" stroke-miterlimit="10" width="11" height="80"/>
		<rect x="106.5" y="465.5" fill="#999999" stroke="#999999" stroke-miterlimit="10" width="11" height="142"/>
		<path fill="#999999" stroke="#999999" stroke-miterlimit="10" d="M125.485,458.5c0,5.522-4.735,10-10.577,10h-3.846
			c-5.842,0-10.577-4.478-10.577-10l0,0c0-5.522,4.735-10,10.577-10h3.846C120.75,448.5,125.485,452.978,125.485,458.5
			L125.485,458.5z"/>
		<path fill="#999999" stroke="#999999" stroke-width="5" stroke-miterlimit="10" d="M1343.5,460.235v94.119
			c0,5.49-4.465,10.146-9.955,10.146h-117.119c-5.49,0-9.926-4.655-9.926-10.146v-94.119c0-5.49,4.436-9.735,9.926-9.735h43.3
			c-3.11,1-5.24,4.678-5.24,8.397c0.04,3.42,5.88,8.739,9.5,9.448c7.13,2.541,14.92,2.265,21-0.025c5.96-2.83,9.5-6.91,9.5-9.41
			c0-3.72-2.13-7.41-5.24-8.41h44.3C1339.035,450.5,1343.5,454.745,1343.5,460.235z"/>
		<path fill="#808080" stroke="#808080" stroke-width="5" stroke-miterlimit="10" d="M1332.5,547.146
			c0,4.614-3.74,8.354-8.354,8.354h-98.291c-4.614,0-8.354-3.74-8.354-8.354v-79.291c0-4.614,3.74-8.354,8.354-8.354h98.291
			c4.614,0,8.354,3.74,8.354,8.354V547.146z"/>
		<rect x="1268.5" y="469.5" fill="#999999" stroke="#999999" stroke-miterlimit="10" width="12" height="170"/>
		<rect x="1230.5" y="481.5" fill="#C8C8C8" stroke="#C8C8C8" stroke-width="5" stroke-miterlimit="10" width="88" height="72"/>
		<rect x="1272.5" y="481.5" fill="#808080" stroke="#808080" stroke-miterlimit="10" width="5" height="72"/>
		<rect x="1312.5" y="481.5" fill="#808080" stroke="#808080" stroke-miterlimit="10" width="4" height="72"/>
		<rect x="1232.5" y="481.5" fill="#808080" stroke="#808080" stroke-miterlimit="10" width="4" height="72"/>
		<path fill="#999999" stroke="#999999" stroke-width="5" stroke-miterlimit="10" d="M1294.485,458.795c0,2.5-3.54,6.67-9.5,9.5
			c-6.08,2.29-13.87,2.54-21,0c-3.62-0.71-9.46-6.08-9.5-9.5c0-3.72,2.138-6.93,5.247-8.5c1.141-0.57,2.768-0.92,3.768-0.99v-7.01
			c0-6.08,4.912-11,10.992-11c3.041,0,5.793,1.23,7.784,3.22c1.989,1.99,3.224,4.74,3.224,7.78v7.01c1,0.07,2.613,0.42,3.752,0.99
			C1292.363,451.865,1294.485,455.075,1294.485,458.795z"/>
		<rect x="1248" y="570" fill="none" stroke="#999999" stroke-width="8" stroke-miterlimit="10" width="53" height="25"/>
		<path fill="#999999" stroke="#999999" stroke-miterlimit="10" d="M1306.5,598.025v3.475h4v22h-12v13h6v6h-6v7h-4v-7h-3.375
			c-0.88,4-3.625,7.604-6.625,10.035V789.5h-20V652.535c-3-2.04-4.965-5.035-6.104-8.035h-3.896v5h-4v-5h-85.225
			c-1.62,2-3.99,3-6.641,3h-3.299c-4.891,0-8.836-4.165-8.836-9.055v-0.301c0-3.51,2-6.54,5-7.97V460.5h11v169.675
			c1,0.7,2.666,1.325,3.535,3.325h84.465v-10h-12v-22h4v-3.475c-2-0.74-4-2.91-4-5.48v-10.5c0-3.18,2.556-5.545,5.734-5.545h0.5
			c3.182,0,5.766,2.365,5.766,5.545v10.5c0,2.57-2,4.74-4,5.48v3.475h4v11h4v21h3.905c2.271-7,8.62-11.5,16.08-11.5
			c8.54,0,15.61,6.5,16.81,14.5h3.205v-24h4v-11h4v-3.475c-2-0.74-4-2.91-4-5.48v-10.5c0-3.18,2.556-5.545,5.734-5.545h0.5
			c3.182,0,5.766,2.365,5.766,5.545v10.5C1310.5,595.115,1308.5,597.285,1306.5,598.025z"/>
		<path fill="#999999" stroke="#999999" stroke-width="5" stroke-miterlimit="10" d="M1552.5,460.235v94.119
			c0,5.49-4.465,10.146-9.955,10.146h-117.119c-5.49,0-9.926-4.655-9.926-10.146v-94.119c0-5.49,4.436-9.735,9.926-9.735h43.3
			c-3.11,1-5.24,4.678-5.24,8.397c0.04,3.42,5.88,8.739,9.5,9.448c7.13,2.541,14.92,2.265,21-0.025c5.96-2.83,9.5-6.91,9.5-9.41
			c0-3.72-2.13-7.41-5.24-8.41h44.3C1548.035,450.5,1552.5,454.745,1552.5,460.235z"/>
		<path fill="#808080" stroke="#808080" stroke-width="5" stroke-miterlimit="10" d="M1541.5,547.146
			c0,4.614-3.74,8.354-8.354,8.354h-98.291c-4.614,0-8.354-3.74-8.354-8.354v-79.291c0-4.614,3.74-8.354,8.354-8.354h98.291
			c4.614,0,8.354,3.74,8.354,8.354V547.146z"/>
		<rect x="1477.5" y="469.5" fill="#999999" stroke="#999999" stroke-miterlimit="10" width="12" height="170"/>
		<rect x="1439.5" y="481.5" fill="#C8C8C8" stroke="#C8C8C8" stroke-width="5" stroke-miterlimit="10" width="88" height="72"/>
		<rect x="1481.5" y="481.5" fill="#808080" stroke="#808080" stroke-miterlimit="10" width="5" height="72"/>
		<rect x="1521.5" y="481.5" fill="#808080" stroke="#808080" stroke-miterlimit="10" width="4" height="72"/>
		<rect x="1441.5" y="481.5" fill="#808080" stroke="#808080" stroke-miterlimit="10" width="4" height="72"/>
		<path fill="#999999" stroke="#999999" stroke-width="5" stroke-miterlimit="10" d="M1503.485,458.795c0,2.5-3.54,6.67-9.5,9.5
			c-6.08,2.29-13.87,2.54-21,0c-3.62-0.71-9.46-6.08-9.5-9.5c0-3.72,2.138-6.93,5.247-8.5c1.141-0.57,2.768-0.92,3.768-0.99v-7.01
			c0-6.08,4.912-11,10.992-11c3.041,0,5.793,1.23,7.784,3.22c1.989,1.99,3.224,4.74,3.224,7.78v7.01c1,0.07,2.613,0.42,3.752,0.99
			C1501.363,451.865,1503.485,455.075,1503.485,458.795z"/>
		<rect x="1457" y="570" fill="none" stroke="#999999" stroke-width="8" stroke-miterlimit="10" width="53" height="25"/>
		<path fill="#999999" stroke="#999999" stroke-miterlimit="10" d="M1515.5,598.025v3.475h4v22h-12v13h6v6h-6v7h-4v-7h-3.375
			c-0.88,4-3.625,7.604-6.625,10.035V789.5h-20V652.535c-3-2.04-4.965-5.035-6.104-8.035h-3.896v5h-4v-5h-85.225
			c-1.62,2-3.99,3-6.641,3h-3.299c-4.891,0-8.836-4.165-8.836-9.055v-0.301c0-3.51,2-6.54,5-7.97V460.5h11v169.675
			c1,0.7,2.666,1.325,3.535,3.325h84.465v-10h-12v-22h4v-3.475c-2-0.74-4-2.91-4-5.48v-10.5c0-3.18,2.556-5.545,5.734-5.545h0.5
			c3.182,0,5.766,2.365,5.766,5.545v10.5c0,2.57-2,4.74-4,5.48v3.475h4v11h4v21h3.905c2.271-7,8.62-11.5,16.08-11.5
			c8.54,0,15.61,6.5,16.81,14.5h3.205v-24h4v-11h4v-3.475c-2-0.74-4-2.91-4-5.48v-10.5c0-3.18,2.556-5.545,5.734-5.545h0.5
			c3.182,0,5.766,2.365,5.766,5.545v10.5C1519.5,595.115,1517.5,597.285,1515.5,598.025z"/>
		<path fill="#999999" stroke="#999999" stroke-miterlimit="10" d="M1675.5,418.712c0-1.887-2.098-3.212-4.43-3.212h-604.34
			c-2.33,0-4.23,1.325-4.23,3.212v0.166c0,1.887,1.9,3.622,4.23,3.622h604.34c2.332,0,4.43-1.735,4.43-3.622V418.712z"/>
		<line fill="none" stroke="#999999" stroke-width="5" stroke-miterlimit="10" x1="1274.5" y1="432" x2="1274.5" y2="418"/>
		<line fill="none" stroke="#999999" stroke-width="5" stroke-miterlimit="10" x1="1483.5" y1="432" x2="1483.5" y2="419"/>
		<path fill="#999999" stroke="#999999" stroke-miterlimit="10" d="M1675.5,614.143c0,3.121-1.567,5.652-3.5,5.652l0,0
			c-1.934,0-3.5-2.531-3.5-5.652V420.947c0-3.121,1.566-5.652,3.5-5.652l0,0c1.933,0,3.5,2.531,3.5,5.652V614.143z"/>
		<rect x="1703.5" y="440.5" fill="#999999" stroke="#999999" stroke-miterlimit="10" width="12" height="10"/>
		<rect x="1679.5" y="425.5" fill="#999999" stroke="#999999" stroke-miterlimit="10" width="4" height="37"/>
		<rect x="1679.5" y="425.5" fill="#999999" stroke="#999999" stroke-miterlimit="10" width="32" height="4"/>
		<rect x="1707.5" y="425.5" fill="#999999" stroke="#999999" stroke-miterlimit="10" width="4" height="19"/>
		<path fill="#999999" stroke="#999999" stroke-miterlimit="10" d="M1728.5,607.295v26c0,6.63-5.385,12.205-12.015,12.205h-0.985
			v144h-12V645.295c-7,0-12-5.37-12-12v-26c0-4.85,3-9.02,7-10.92V450.5h22v145.485C1725.5,597.625,1728.5,602.065,1728.5,607.295z"
			/>
		<path fill="#999999" stroke="#999999" stroke-miterlimit="10" d="M1719.544,613.5c0.796,0,1.441,1.567,1.441,3.5l0,0
			c0,1.933-0.646,3.5-1.441,3.5h-49.243c-0.795,0-1.44-1.567-1.44-3.5l0,0c0-1.933,0.646-3.5,1.44-3.5H1719.544z"/>
		<path fill="#999999" stroke="#999999" stroke-miterlimit="10" d="M1680.5,616.5c0,3.313-2.687,6-6,6h-4c-3.313,0-6-2.687-6-6l0,0
			c0-3.313,2.687-6,6-6h4C1677.813,610.5,1680.5,613.187,1680.5,616.5L1680.5,616.5z"/>
		<rect x="1251.5" y="789.5" fill="#333333" stroke="#333333" stroke-miterlimit="10" width="47" height="4"/>
		<rect x="1041.5" y="789.5" fill="#333333" stroke="#333333" stroke-miterlimit="10" width="47" height="4"/>
		<rect x="1460.5" y="789.5" fill="#333333" stroke="#333333" stroke-miterlimit="10" width="47" height="4"/>
		<rect x="1686.5" y="789.5" fill="#333333" stroke="#333333" stroke-miterlimit="10" width="47" height="4"/>
		<rect x="95.5" y="789.5" fill="#333333" stroke="#333333" stroke-miterlimit="10" width="431" height="4"/>
		<rect x="1481.5" y="462.5" fill="#999999" stroke="#999999" stroke-miterlimit="10" width="202" height="6"/>
		<g>
			<path fill="#808080" stroke="#808080" stroke-miterlimit="10" d="M1651.5,323.805c0,9.976,0,28.592,0,37.055
				c0,7.66,4.549,6.641,7.473,6.641c8.001,0,85.877,0,85.877,0c2.35-1,2.783-3.234,2.79-4.39c0-6.592-3.378-7.54-3.378-7.54
				l-85.289-34.232c0,0-3.951-2.047-5.865-2.329C1651.566,319.009,1651.5,320.779,1651.5,323.805z"/>
			<path fill="#E6E6E6" stroke="#999999" stroke-width="0.25" stroke-miterlimit="10" d="M1668.682,331.935
				c0,0,3.849-0.018,6.491-0.018c2.642,0,2.813,3.384,3.967,5.794c1.22,2.287,3.601,1.695,6.508,0
				c2.418-1.689,13.474-10.216,13.474-10.216s2.196-2.033,0.011-5.286c-11.334-13.315-30.45-13.214-30.45-13.214
				s-19.18-0.102-30.514,13.214c-2.186,3.253,0.018,5.286,0.018,5.286s11.06,8.526,13.478,10.216c2.907,1.695,5.29,2.287,6.51,0
				c1.152-2.41,1.327-5.794,3.969-5.794S1668.682,331.935,1668.682,331.935z"/>
			<rect x="1665.5" y="364.5" fill="#808080" stroke="#808080" stroke-miterlimit="10" width="7" height="23"/>
			<circle fill="#999999" stroke="#999999" stroke-width="0.25" stroke-miterlimit="10" cx="1668.651" cy="350.137" r="13.846"/>
			<rect x="1698.5" y="351.5" fill="#999999" stroke="#999999" stroke-miterlimit="10" width="44" height="20"/>
			<rect x="1711.5" y="353.5" fill="#C8C8C8" stroke="#C8C8C8" stroke-miterlimit="10" width="23" height="2"/>
			<rect x="1711.5" y="367.5" fill="#C8C8C8" stroke="#C8C8C8" stroke-miterlimit="10" width="23" height="2"/>
			<rect x="1706.5" y="348.5" fill="#C8C8C8" stroke="#999999" stroke-miterlimit="10" width="5" height="27"/>
			<rect x="1734.5" y="348.5" fill="#C8C8C8" stroke="#999999" stroke-miterlimit="10" width="5" height="27"/>
			<rect x="1704.5" y="352.5" fill="#C8C8C8" stroke="#C8C8C8" stroke-miterlimit="10" width="1" height="4"/>
			<rect x="1740.5" y="352.5" fill="#C8C8C8" stroke="#C8C8C8" stroke-miterlimit="10" width="1" height="4"/>
			<path fill="#999999" stroke="#999999" stroke-miterlimit="10" d="M1752.711,361.496c0,3.285-2.662,6.052-5.946,6.052
				c-0.461,0-0.906-0.048-1.336-0.048h-2.929v-12h2.929c0.43,0,0.875-0.051,1.336-0.051
				C1750.049,355.449,1752.711,358.213,1752.711,361.496z"/>
			<path fill="#C8C8C8" stroke="#C8C8C8" stroke-miterlimit="10" d="M1697.5,359.5v5h-31.402c-3.133,0-5.764,0.233-6.554,0.517
				c-0.157,0.059-0.243,0.132-0.243,0.192c-0.651,0.441-1.438,0.703-2.285,0.703c-2.264,0-4.098-1.839-4.098-4.113
				c0-2.274,1.834-4.115,4.098-4.115c0.847,0,1.634,0.257,2.285,0.698c0,0.062,0.083,0.345,0.242,0.4
				c0.791,0.287,3.447,0.719,6.604,0.719H1697.5z"/>
			<polygon fill="#333333" stroke="#333333" stroke-width="0.25" stroke-miterlimit="10" points="1662.797,363.045 1707.28,318.217 
				1700.497,311.381 1656.014,356.209 1652.013,367.076 			"/>
			<path fill="#C1272D" stroke="#C1272D" stroke-width="0.25" stroke-miterlimit="10" d="M1735.697,283.138
				c2.799,2.799,3.058,7.077,0.577,9.558l-27.323,27.324l-10.135-10.135l27.322-27.324
				C1728.619,280.08,1732.898,280.339,1735.697,283.138z"/>
			<circle fill="#C8C8C8" stroke="#C8C8C8" stroke-width="0.25" stroke-miterlimit="10" cx="1668.651" cy="350.137" r="3.019"/>
			<circle fill="#C8C8C8" stroke="#C8C8C8" stroke-width="0.25" stroke-miterlimit="10" cx="1654.747" cy="334.737" r="3.049"/>
			<circle fill="#C8C8C8" stroke="#C8C8C8" stroke-width="0.25" stroke-miterlimit="10" cx="1747.451" cy="361.496" r="2.973"/>
			<circle fill="#C8C8C8" stroke="#C8C8C8" stroke-width="0.25" stroke-miterlimit="10" cx="1657.109" cy="361.802" r="2.439"/>
			<rect x="1704.5" y="366.5" fill="#C8C8C8" stroke="#C8C8C8" stroke-miterlimit="10" width="1" height="4"/>
			<rect x="1740.5" y="366.5" fill="#C8C8C8" stroke="#C8C8C8" stroke-miterlimit="10" width="1" height="4"/>
			<rect x="1645.5" y="380.5" fill="#333333" stroke="#333333" stroke-miterlimit="10" width="47" height="4"/>
		</g>
		<g>
			<path fill="#808080" stroke="#808080" stroke-miterlimit="10" d="M1516.5,323.805c0,9.976,0,28.592,0,37.055
				c0,7.66,4.549,6.641,7.473,6.641c8.001,0,85.877,0,85.877,0c2.35-1,2.783-3.234,2.79-4.39c0-6.592-3.377-7.54-3.377-7.54
				l-85.29-34.232c0,0-3.951-2.047-5.865-2.329C1516.566,319.009,1516.5,320.779,1516.5,323.805z"/>
			<path fill="#E6E6E6" stroke="#999999" stroke-width="0.25" stroke-miterlimit="10" d="M1533.682,331.935
				c0,0,3.849-0.018,6.491-0.018c2.642,0,2.813,3.384,3.967,5.794c1.22,2.287,3.601,1.695,6.508,0
				c2.418-1.689,13.474-10.216,13.474-10.216s2.196-2.033,0.011-5.286c-11.334-13.315-30.45-13.214-30.45-13.214
				s-19.18-0.102-30.514,13.214c-2.186,3.253,0.018,5.286,0.018,5.286s11.06,8.526,13.478,10.216c2.907,1.695,5.29,2.287,6.51,0
				c1.152-2.41,1.327-5.794,3.969-5.794S1533.682,331.935,1533.682,331.935z"/>
			<rect x="1530.5" y="364.5" fill="#808080" stroke="#808080" stroke-miterlimit="10" width="7" height="23"/>
			<circle fill="#999999" stroke="#999999" stroke-width="0.25" stroke-miterlimit="10" cx="1533.651" cy="350.137" r="13.846"/>
			<rect x="1563.5" y="351.5" fill="#999999" stroke="#999999" stroke-miterlimit="10" width="44" height="20"/>
			<rect x="1576.5" y="353.5" fill="#C8C8C8" stroke="#C8C8C8" stroke-miterlimit="10" width="23" height="2"/>
			<rect x="1576.5" y="367.5" fill="#C8C8C8" stroke="#C8C8C8" stroke-miterlimit="10" width="23" height="2"/>
			<rect x="1571.5" y="348.5" fill="#C8C8C8" stroke="#999999" stroke-miterlimit="10" width="5" height="27"/>
			<rect x="1599.5" y="348.5" fill="#C8C8C8" stroke="#999999" stroke-miterlimit="10" width="5" height="27"/>
			<rect x="1569.5" y="352.5" fill="#C8C8C8" stroke="#C8C8C8" stroke-miterlimit="10" width="1" height="4"/>
			<rect x="1605.5" y="352.5" fill="#C8C8C8" stroke="#C8C8C8" stroke-miterlimit="10" width="1" height="4"/>
			<path fill="#999999" stroke="#999999" stroke-miterlimit="10" d="M1617.711,361.496c0,3.285-2.662,6.052-5.946,6.052
				c-0.462,0-0.906-0.048-1.336-0.048h-2.929v-12h2.929c0.43,0,0.874-0.051,1.336-0.051
				C1615.049,355.449,1617.711,358.213,1617.711,361.496z"/>
			<path fill="#C8C8C8" stroke="#C8C8C8" stroke-miterlimit="10" d="M1562.5,359.5v5h-31.402c-3.133,0-5.764,0.233-6.554,0.517
				c-0.157,0.059-0.243,0.132-0.243,0.192c-0.651,0.441-1.438,0.703-2.285,0.703c-2.264,0-4.098-1.839-4.098-4.113
				c0-2.274,1.834-4.115,4.098-4.115c0.847,0,1.634,0.257,2.285,0.698c0,0.062,0.083,0.345,0.242,0.4
				c0.791,0.287,3.447,0.719,6.604,0.719H1562.5z"/>
			<polygon fill="#333333" stroke="#333333" stroke-width="0.25" stroke-miterlimit="10" points="1527.797,363.045 1572.28,318.217 
				1565.497,311.381 1521.014,356.209 1517.013,367.076 			"/>
			<path fill="#C1272D" stroke="#C1272D" stroke-width="0.25" stroke-miterlimit="10" d="M1600.697,283.138
				c2.799,2.799,3.057,7.077,0.577,9.558l-27.323,27.324l-10.135-10.135l27.323-27.324
				C1593.619,280.08,1597.898,280.339,1600.697,283.138z"/>
			<circle fill="#C8C8C8" stroke="#C8C8C8" stroke-width="0.25" stroke-miterlimit="10" cx="1533.651" cy="350.137" r="3.019"/>
			<circle fill="#C8C8C8" stroke="#C8C8C8" stroke-width="0.25" stroke-miterlimit="10" cx="1519.747" cy="334.737" r="3.049"/>
			<circle fill="#C8C8C8" stroke="#C8C8C8" stroke-width="0.25" stroke-miterlimit="10" cx="1612.451" cy="361.496" r="2.973"/>
			<circle fill="#C8C8C8" stroke="#C8C8C8" stroke-width="0.25" stroke-miterlimit="10" cx="1522.109" cy="361.802" r="2.439"/>
			<rect x="1569.5" y="366.5" fill="#C8C8C8" stroke="#C8C8C8" stroke-miterlimit="10" width="1" height="4"/>
			<rect x="1605.5" y="366.5" fill="#C8C8C8" stroke="#C8C8C8" stroke-miterlimit="10" width="1" height="4"/>
			<rect x="1510.5" y="380.5" fill="#333333" stroke="#333333" stroke-miterlimit="10" width="47" height="4"/>
		</g>
		<g>
			<path fill="#808080" stroke="#808080" stroke-miterlimit="10" d="M1381.5,323.805c0,9.976,0,28.592,0,37.055
				c0,7.66,4.549,6.641,7.473,6.641c8.001,0,85.877,0,85.877,0c2.35-1,2.783-3.234,2.79-4.39c0-6.592-3.377-7.54-3.377-7.54
				l-85.29-34.232c0,0-3.951-2.047-5.865-2.329C1381.566,319.009,1381.5,320.779,1381.5,323.805z"/>
			<path fill="#E6E6E6" stroke="#999999" stroke-width="0.25" stroke-miterlimit="10" d="M1398.682,331.935
				c0,0,3.849-0.018,6.491-0.018c2.642,0,2.813,3.384,3.967,5.794c1.22,2.287,3.601,1.695,6.508,0
				c2.418-1.689,13.474-10.216,13.474-10.216s2.196-2.033,0.011-5.286c-11.334-13.315-30.45-13.214-30.45-13.214
				s-19.18-0.102-30.514,13.214c-2.186,3.253,0.018,5.286,0.018,5.286s11.06,8.526,13.478,10.216c2.907,1.695,5.29,2.287,6.51,0
				c1.152-2.41,1.327-5.794,3.969-5.794S1398.682,331.935,1398.682,331.935z"/>
			<rect x="1395.5" y="364.5" fill="#808080" stroke="#808080" stroke-miterlimit="10" width="7" height="23"/>
			<circle fill="#999999" stroke="#999999" stroke-width="0.25" stroke-miterlimit="10" cx="1398.651" cy="350.137" r="13.846"/>
			<rect x="1428.5" y="351.5" fill="#999999" stroke="#999999" stroke-miterlimit="10" width="44" height="20"/>
			<rect x="1441.5" y="353.5" fill="#C8C8C8" stroke="#C8C8C8" stroke-miterlimit="10" width="23" height="2"/>
			<rect x="1441.5" y="367.5" fill="#C8C8C8" stroke="#C8C8C8" stroke-miterlimit="10" width="23" height="2"/>
			<rect x="1436.5" y="348.5" fill="#C8C8C8" stroke="#999999" stroke-miterlimit="10" width="5" height="27"/>
			<rect x="1464.5" y="348.5" fill="#C8C8C8" stroke="#999999" stroke-miterlimit="10" width="5" height="27"/>
			<rect x="1434.5" y="352.5" fill="#C8C8C8" stroke="#C8C8C8" stroke-miterlimit="10" width="1" height="4"/>
			<rect x="1470.5" y="352.5" fill="#C8C8C8" stroke="#C8C8C8" stroke-miterlimit="10" width="1" height="4"/>
			<path fill="#999999" stroke="#999999" stroke-miterlimit="10" d="M1482.711,361.496c0,3.285-2.662,6.052-5.946,6.052
				c-0.462,0-0.906-0.048-1.336-0.048h-2.929v-12h2.929c0.43,0,0.874-0.051,1.336-0.051
				C1480.049,355.449,1482.711,358.213,1482.711,361.496z"/>
			<path fill="#C8C8C8" stroke="#C8C8C8" stroke-miterlimit="10" d="M1427.5,359.5v5h-31.402c-3.133,0-5.764,0.233-6.554,0.517
				c-0.157,0.059-0.243,0.132-0.243,0.192c-0.651,0.441-1.438,0.703-2.285,0.703c-2.264,0-4.098-1.839-4.098-4.113
				c0-2.274,1.834-4.115,4.098-4.115c0.847,0,1.634,0.257,2.285,0.698c0,0.062,0.083,0.345,0.242,0.4
				c0.791,0.287,3.447,0.719,6.604,0.719H1427.5z"/>
			<polygon fill="#333333" stroke="#333333" stroke-width="0.25" stroke-miterlimit="10" points="1392.797,363.045 1437.28,318.217 
				1430.497,311.381 1386.014,356.209 1382.013,367.076 			"/>
			<path fill="#C1272D" stroke="#C1272D" stroke-width="0.25" stroke-miterlimit="10" d="M1465.697,283.138
				c2.799,2.799,3.057,7.077,0.577,9.558l-27.323,27.324l-10.135-10.135l27.323-27.324
				C1458.619,280.08,1462.898,280.339,1465.697,283.138z"/>
			<circle fill="#C8C8C8" stroke="#C8C8C8" stroke-width="0.25" stroke-miterlimit="10" cx="1398.651" cy="350.137" r="3.019"/>
			<circle fill="#C8C8C8" stroke="#C8C8C8" stroke-width="0.25" stroke-miterlimit="10" cx="1384.747" cy="334.737" r="3.049"/>
			<circle fill="#C8C8C8" stroke="#C8C8C8" stroke-width="0.25" stroke-miterlimit="10" cx="1477.451" cy="361.496" r="2.973"/>
			<circle fill="#C8C8C8" stroke="#C8C8C8" stroke-width="0.25" stroke-miterlimit="10" cx="1387.109" cy="361.802" r="2.439"/>
			<rect x="1434.5" y="366.5" fill="#C8C8C8" stroke="#C8C8C8" stroke-miterlimit="10" width="1" height="4"/>
			<rect x="1470.5" y="366.5" fill="#C8C8C8" stroke="#C8C8C8" stroke-miterlimit="10" width="1" height="4"/>
			<rect x="1375.5" y="380.5" fill="#333333" stroke="#333333" stroke-miterlimit="10" width="47" height="4"/>
		</g>
		<g>
			<path fill="#808080" stroke="#808080" stroke-miterlimit="10" d="M1246.5,323.805c0,9.976,0,28.592,0,37.055
				c0,7.66,4.549,6.641,7.473,6.641c8.001,0,85.877,0,85.877,0c2.35-1,2.783-3.234,2.79-4.39c0-6.592-3.377-7.54-3.377-7.54
				l-85.29-34.232c0,0-3.951-2.047-5.865-2.329C1246.566,319.009,1246.5,320.779,1246.5,323.805z"/>
			<path fill="#E6E6E6" stroke="#999999" stroke-width="0.25" stroke-miterlimit="10" d="M1263.682,331.935
				c0,0,3.849-0.018,6.491-0.018c2.642,0,2.813,3.384,3.967,5.794c1.22,2.287,3.601,1.695,6.508,0
				c2.418-1.689,13.474-10.216,13.474-10.216s2.196-2.033,0.011-5.286c-11.334-13.315-30.45-13.214-30.45-13.214
				s-19.18-0.102-30.514,13.214c-2.186,3.253,0.018,5.286,0.018,5.286s11.06,8.526,13.478,10.216c2.907,1.695,5.29,2.287,6.51,0
				c1.152-2.41,1.327-5.794,3.969-5.794S1263.682,331.935,1263.682,331.935z"/>
			<rect x="1260.5" y="364.5" fill="#808080" stroke="#808080" stroke-miterlimit="10" width="7" height="23"/>
			<circle fill="#999999" stroke="#999999" stroke-width="0.25" stroke-miterlimit="10" cx="1263.651" cy="350.137" r="13.846"/>
			<rect x="1293.5" y="351.5" fill="#999999" stroke="#999999" stroke-miterlimit="10" width="44" height="20"/>
			<rect x="1306.5" y="353.5" fill="#C8C8C8" stroke="#C8C8C8" stroke-miterlimit="10" width="23" height="2"/>
			<rect x="1306.5" y="367.5" fill="#C8C8C8" stroke="#C8C8C8" stroke-miterlimit="10" width="23" height="2"/>
			<rect x="1301.5" y="348.5" fill="#C8C8C8" stroke="#999999" stroke-miterlimit="10" width="5" height="27"/>
			<rect x="1329.5" y="348.5" fill="#C8C8C8" stroke="#999999" stroke-miterlimit="10" width="5" height="27"/>
			<rect x="1299.5" y="352.5" fill="#C8C8C8" stroke="#C8C8C8" stroke-miterlimit="10" width="1" height="4"/>
			<rect x="1335.5" y="352.5" fill="#C8C8C8" stroke="#C8C8C8" stroke-miterlimit="10" width="1" height="4"/>
			<path fill="#999999" stroke="#999999" stroke-miterlimit="10" d="M1347.711,361.496c0,3.285-2.662,6.052-5.946,6.052
				c-0.462,0-0.906-0.048-1.336-0.048h-2.929v-12h2.929c0.43,0,0.874-0.051,1.336-0.051
				C1345.049,355.449,1347.711,358.213,1347.711,361.496z"/>
			<path fill="#C8C8C8" stroke="#C8C8C8" stroke-miterlimit="10" d="M1292.5,359.5v5h-31.402c-3.133,0-5.764,0.233-6.554,0.517
				c-0.157,0.059-0.243,0.132-0.243,0.192c-0.651,0.441-1.438,0.703-2.285,0.703c-2.264,0-4.098-1.839-4.098-4.113
				c0-2.274,1.834-4.115,4.098-4.115c0.847,0,1.634,0.257,2.285,0.698c0,0.062,0.083,0.345,0.242,0.4
				c0.791,0.287,3.447,0.719,6.604,0.719H1292.5z"/>
			<polygon fill="#333333" stroke="#333333" stroke-width="0.25" stroke-miterlimit="10" points="1257.797,363.045 1302.28,318.217 
				1295.497,311.381 1251.014,356.209 1247.013,367.076 			"/>
			<path fill="#C1272D" stroke="#C1272D" stroke-width="0.25" stroke-miterlimit="10" d="M1330.697,283.138
				c2.799,2.799,3.058,7.077,0.577,9.558l-27.323,27.324l-10.135-10.135l27.323-27.324
				C1323.619,280.08,1327.898,280.339,1330.697,283.138z"/>
			<circle fill="#C8C8C8" stroke="#C8C8C8" stroke-width="0.25" stroke-miterlimit="10" cx="1263.651" cy="350.137" r="3.019"/>
			<circle fill="#C8C8C8" stroke="#C8C8C8" stroke-width="0.25" stroke-miterlimit="10" cx="1249.747" cy="334.737" r="3.049"/>
			<circle fill="#C8C8C8" stroke="#C8C8C8" stroke-width="0.25" stroke-miterlimit="10" cx="1342.451" cy="361.496" r="2.973"/>
			<circle fill="#C8C8C8" stroke="#C8C8C8" stroke-width="0.25" stroke-miterlimit="10" cx="1252.109" cy="361.802" r="2.439"/>
			<rect x="1299.5" y="366.5" fill="#C8C8C8" stroke="#C8C8C8" stroke-miterlimit="10" width="1" height="4"/>
			<rect x="1335.5" y="366.5" fill="#C8C8C8" stroke="#C8C8C8" stroke-miterlimit="10" width="1" height="4"/>
			<rect x="1240.5" y="380.5" fill="#333333" stroke="#333333" stroke-miterlimit="10" width="47" height="4"/>
		</g>
		<g>
			<path fill="#808080" stroke="#808080" stroke-miterlimit="10" d="M1111.5,323.805c0,9.976,0,28.592,0,37.055
				c0,7.66,4.549,6.641,7.473,6.641c8.001,0,85.877,0,85.877,0c2.35-1,2.783-3.234,2.79-4.39c0-6.592-3.377-7.54-3.377-7.54
				l-85.29-34.232c0,0-3.951-2.047-5.865-2.329C1111.566,319.009,1111.5,320.779,1111.5,323.805z"/>
			<path fill="#E6E6E6" stroke="#999999" stroke-width="0.25" stroke-miterlimit="10" d="M1128.682,331.935
				c0,0,3.849-0.018,6.491-0.018c2.642,0,2.813,3.384,3.967,5.794c1.22,2.287,3.601,1.695,6.508,0
				c2.418-1.689,13.474-10.216,13.474-10.216s2.196-2.033,0.011-5.286c-11.334-13.315-30.45-13.214-30.45-13.214
				s-19.18-0.102-30.514,13.214c-2.186,3.253,0.018,5.286,0.018,5.286s11.06,8.526,13.478,10.216c2.908,1.695,5.29,2.287,6.51,0
				c1.152-2.41,1.327-5.794,3.969-5.794S1128.682,331.935,1128.682,331.935z"/>
			<rect x="1125.5" y="364.5" fill="#808080" stroke="#808080" stroke-miterlimit="10" width="7" height="23"/>
			<circle fill="#999999" stroke="#999999" stroke-width="0.25" stroke-miterlimit="10" cx="1128.651" cy="350.137" r="13.846"/>
			<rect x="1158.5" y="351.5" fill="#999999" stroke="#999999" stroke-miterlimit="10" width="44" height="20"/>
			<rect x="1171.5" y="353.5" fill="#C8C8C8" stroke="#C8C8C8" stroke-miterlimit="10" width="23" height="2"/>
			<rect x="1171.5" y="367.5" fill="#C8C8C8" stroke="#C8C8C8" stroke-miterlimit="10" width="23" height="2"/>
			<rect x="1166.5" y="348.5" fill="#C8C8C8" stroke="#999999" stroke-miterlimit="10" width="5" height="27"/>
			<rect x="1194.5" y="348.5" fill="#C8C8C8" stroke="#999999" stroke-miterlimit="10" width="5" height="27"/>
			<rect x="1164.5" y="352.5" fill="#C8C8C8" stroke="#C8C8C8" stroke-miterlimit="10" width="1" height="4"/>
			<rect x="1200.5" y="352.5" fill="#C8C8C8" stroke="#C8C8C8" stroke-miterlimit="10" width="1" height="4"/>
			<path fill="#999999" stroke="#999999" stroke-miterlimit="10" d="M1212.711,361.496c0,3.285-2.662,6.052-5.946,6.052
				c-0.462,0-0.906-0.048-1.336-0.048h-2.929v-12h2.929c0.43,0,0.874-0.051,1.336-0.051
				C1210.049,355.449,1212.711,358.213,1212.711,361.496z"/>
			<path fill="#C8C8C8" stroke="#C8C8C8" stroke-miterlimit="10" d="M1157.5,359.5v5h-31.402c-3.133,0-5.764,0.233-6.554,0.517
				c-0.157,0.059-0.243,0.132-0.243,0.192c-0.651,0.441-1.438,0.703-2.285,0.703c-2.264,0-4.098-1.839-4.098-4.113
				c0-2.274,1.834-4.115,4.098-4.115c0.847,0,1.634,0.257,2.285,0.698c0,0.062,0.083,0.345,0.242,0.4
				c0.791,0.287,3.447,0.719,6.604,0.719H1157.5z"/>
			<polygon fill="#333333" stroke="#333333" stroke-width="0.25" stroke-miterlimit="10" points="1122.797,363.045 1167.28,318.217 
				1160.497,311.381 1116.014,356.209 1112.013,367.076 			"/>
			<path fill="#C1272D" stroke="#C1272D" stroke-width="0.25" stroke-miterlimit="10" d="M1195.697,283.138
				c2.799,2.799,3.058,7.077,0.577,9.558l-27.323,27.324l-10.135-10.135l27.323-27.324
				C1188.619,280.08,1192.898,280.339,1195.697,283.138z"/>
			<circle fill="#C8C8C8" stroke="#C8C8C8" stroke-width="0.25" stroke-miterlimit="10" cx="1128.651" cy="350.137" r="3.019"/>
			<circle fill="#C8C8C8" stroke="#C8C8C8" stroke-width="0.25" stroke-miterlimit="10" cx="1114.747" cy="334.737" r="3.049"/>
			<circle fill="#C8C8C8" stroke="#C8C8C8" stroke-width="0.25" stroke-miterlimit="10" cx="1207.451" cy="361.496" r="2.973"/>
			<circle fill="#C8C8C8" stroke="#C8C8C8" stroke-width="0.25" stroke-miterlimit="10" cx="1117.109" cy="361.802" r="2.439"/>
			<rect x="1164.5" y="366.5" fill="#C8C8C8" stroke="#C8C8C8" stroke-miterlimit="10" width="1" height="4"/>
			<rect x="1200.5" y="366.5" fill="#C8C8C8" stroke="#C8C8C8" stroke-miterlimit="10" width="1" height="4"/>
			<rect x="1105.5" y="380.5" fill="#333333" stroke="#333333" stroke-miterlimit="10" width="47" height="4"/>
		</g>
		<g>
			<path fill="#808080" stroke="#808080" stroke-miterlimit="10" d="M976.5,323.805c0,9.976,0,28.592,0,37.055
				c0,7.66,4.549,6.641,7.473,6.641c8.001,0,85.877,0,85.877,0c2.35-1,2.783-3.234,2.79-4.39c0-6.592-3.377-7.54-3.377-7.54
				l-85.29-34.232c0,0-3.951-2.047-5.865-2.329C976.566,319.009,976.5,320.779,976.5,323.805z"/>
			<path fill="#E6E6E6" stroke="#999999" stroke-width="0.25" stroke-miterlimit="10" d="M993.682,331.935
				c0,0,3.849-0.018,6.491-0.018c2.642,0,2.813,3.384,3.967,5.794c1.22,2.287,3.601,1.695,6.508,0
				c2.418-1.689,13.474-10.216,13.474-10.216s2.196-2.033,0.011-5.286c-11.334-13.315-30.45-13.214-30.45-13.214
				s-19.18-0.102-30.514,13.214c-2.186,3.253,0.017,5.286,0.017,5.286s11.06,8.526,13.478,10.216c2.908,1.695,5.29,2.287,6.51,0
				c1.152-2.41,1.327-5.794,3.969-5.794S993.682,331.935,993.682,331.935z"/>
			<rect x="990.5" y="364.5" fill="#808080" stroke="#808080" stroke-miterlimit="10" width="7" height="23"/>
			<circle fill="#999999" stroke="#999999" stroke-width="0.25" stroke-miterlimit="10" cx="993.651" cy="350.137" r="13.846"/>
			<rect x="1023.5" y="351.5" fill="#999999" stroke="#999999" stroke-miterlimit="10" width="44" height="20"/>
			<rect x="1036.5" y="353.5" fill="#C8C8C8" stroke="#C8C8C8" stroke-miterlimit="10" width="23" height="2"/>
			<rect x="1036.5" y="367.5" fill="#C8C8C8" stroke="#C8C8C8" stroke-miterlimit="10" width="23" height="2"/>
			<rect x="1031.5" y="348.5" fill="#C8C8C8" stroke="#999999" stroke-miterlimit="10" width="5" height="27"/>
			<rect x="1059.5" y="348.5" fill="#C8C8C8" stroke="#999999" stroke-miterlimit="10" width="5" height="27"/>
			<rect x="1029.5" y="352.5" fill="#C8C8C8" stroke="#C8C8C8" stroke-miterlimit="10" width="1" height="4"/>
			<rect x="1065.5" y="352.5" fill="#C8C8C8" stroke="#C8C8C8" stroke-miterlimit="10" width="1" height="4"/>
			<path fill="#999999" stroke="#999999" stroke-miterlimit="10" d="M1077.711,361.496c0,3.285-2.662,6.052-5.946,6.052
				c-0.462,0-0.906-0.048-1.336-0.048h-2.929v-12h2.929c0.43,0,0.874-0.051,1.336-0.051
				C1075.049,355.449,1077.711,358.213,1077.711,361.496z"/>
			<path fill="#C8C8C8" stroke="#C8C8C8" stroke-miterlimit="10" d="M1022.5,359.5v5h-31.402c-3.133,0-5.764,0.233-6.554,0.517
				c-0.157,0.059-0.243,0.132-0.243,0.192c-0.651,0.441-1.438,0.703-2.285,0.703c-2.264,0-4.098-1.839-4.098-4.113
				c0-2.274,1.834-4.115,4.098-4.115c0.847,0,1.634,0.257,2.285,0.698c0,0.062,0.083,0.345,0.242,0.4
				c0.791,0.287,3.447,0.719,6.604,0.719H1022.5z"/>
			<polygon fill="#333333" stroke="#333333" stroke-width="0.25" stroke-miterlimit="10" points="987.797,363.045 1032.28,318.217 
				1025.497,311.381 981.014,356.209 977.013,367.076 			"/>
			<path fill="#C1272D" stroke="#C1272D" stroke-width="0.25" stroke-miterlimit="10" d="M1060.697,283.138
				c2.799,2.799,3.058,7.077,0.577,9.558l-27.323,27.324l-10.135-10.135l27.323-27.324
				C1053.619,280.08,1057.898,280.339,1060.697,283.138z"/>
			<circle fill="#C8C8C8" stroke="#C8C8C8" stroke-width="0.25" stroke-miterlimit="10" cx="993.651" cy="350.137" r="3.019"/>
			<circle fill="#C8C8C8" stroke="#C8C8C8" stroke-width="0.25" stroke-miterlimit="10" cx="979.747" cy="334.737" r="3.049"/>
			<circle fill="#C8C8C8" stroke="#C8C8C8" stroke-width="0.25" stroke-miterlimit="10" cx="1072.451" cy="361.496" r="2.973"/>
			<circle fill="#C8C8C8" stroke="#C8C8C8" stroke-width="0.25" stroke-miterlimit="10" cx="982.109" cy="361.802" r="2.439"/>
			<rect x="1029.5" y="366.5" fill="#C8C8C8" stroke="#C8C8C8" stroke-miterlimit="10" width="1" height="4"/>
			<rect x="1065.5" y="366.5" fill="#C8C8C8" stroke="#C8C8C8" stroke-miterlimit="10" width="1" height="4"/>
			<rect x="970.5" y="380.5" fill="#333333" stroke="#333333" stroke-miterlimit="10" width="47" height="4"/>
		</g>
		<g>
			<path fill="#808080" stroke="#808080" stroke-miterlimit="10" d="M841.5,323.805c0,9.976,0,28.592,0,37.055
				c0,7.66,4.549,6.641,7.473,6.641c8.001,0,85.877,0,85.877,0c2.35-1,2.783-3.234,2.79-4.39c0-6.592-3.377-7.54-3.377-7.54
				l-85.29-34.232c0,0-3.951-2.047-5.865-2.329C841.566,319.009,841.5,320.779,841.5,323.805z"/>
			<path fill="#E6E6E6" stroke="#999999" stroke-width="0.25" stroke-miterlimit="10" d="M858.682,331.935
				c0,0,3.849-0.018,6.491-0.018c2.642,0,2.813,3.384,3.967,5.794c1.22,2.287,3.601,1.695,6.508,0
				c2.418-1.689,13.474-10.216,13.474-10.216s2.196-2.033,0.011-5.286c-11.334-13.315-30.45-13.214-30.45-13.214
				s-19.18-0.102-30.514,13.214c-2.186,3.253,0.017,5.286,0.017,5.286s11.06,8.526,13.478,10.216c2.908,1.695,5.29,2.287,6.51,0
				c1.152-2.41,1.327-5.794,3.969-5.794S858.682,331.935,858.682,331.935z"/>
			<rect x="855.5" y="364.5" fill="#808080" stroke="#808080" stroke-miterlimit="10" width="7" height="23"/>
			<circle fill="#999999" stroke="#999999" stroke-width="0.25" stroke-miterlimit="10" cx="858.651" cy="350.137" r="13.846"/>
			<rect x="888.5" y="351.5" fill="#999999" stroke="#999999" stroke-miterlimit="10" width="44" height="20"/>
			<rect x="901.5" y="353.5" fill="#C8C8C8" stroke="#C8C8C8" stroke-miterlimit="10" width="23" height="2"/>
			<rect x="901.5" y="367.5" fill="#C8C8C8" stroke="#C8C8C8" stroke-miterlimit="10" width="23" height="2"/>
			<rect x="896.5" y="348.5" fill="#C8C8C8" stroke="#999999" stroke-miterlimit="10" width="5" height="27"/>
			<rect x="924.5" y="348.5" fill="#C8C8C8" stroke="#999999" stroke-miterlimit="10" width="5" height="27"/>
			<rect x="894.5" y="352.5" fill="#C8C8C8" stroke="#C8C8C8" stroke-miterlimit="10" width="1" height="4"/>
			<rect x="930.5" y="352.5" fill="#C8C8C8" stroke="#C8C8C8" stroke-miterlimit="10" width="1" height="4"/>
			<path fill="#999999" stroke="#999999" stroke-miterlimit="10" d="M942.711,361.496c0,3.285-2.662,6.052-5.946,6.052
				c-0.462,0-0.906-0.048-1.336-0.048H932.5v-12h2.929c0.43,0,0.874-0.051,1.336-0.051
				C940.049,355.449,942.711,358.213,942.711,361.496z"/>
			<path fill="#C8C8C8" stroke="#C8C8C8" stroke-miterlimit="10" d="M887.5,359.5v5h-31.402c-3.133,0-5.764,0.233-6.554,0.517
				c-0.157,0.059-0.243,0.132-0.243,0.192c-0.651,0.441-1.438,0.703-2.285,0.703c-2.264,0-4.098-1.839-4.098-4.113
				c0-2.274,1.834-4.115,4.098-4.115c0.847,0,1.634,0.257,2.285,0.698c0,0.062,0.083,0.345,0.242,0.4
				c0.791,0.287,3.447,0.719,6.604,0.719H887.5z"/>
			<polygon fill="#333333" stroke="#333333" stroke-width="0.25" stroke-miterlimit="10" points="852.797,363.045 897.28,318.217 
				890.497,311.381 846.014,356.209 842.013,367.076 			"/>
			<path fill="#C1272D" stroke="#C1272D" stroke-width="0.25" stroke-miterlimit="10" d="M925.697,283.138
				c2.799,2.799,3.058,7.077,0.577,9.558l-27.323,27.324l-10.135-10.135l27.323-27.324
				C918.619,280.08,922.898,280.339,925.697,283.138z"/>
			<circle fill="#C8C8C8" stroke="#C8C8C8" stroke-width="0.25" stroke-miterlimit="10" cx="858.651" cy="350.137" r="3.019"/>
			<circle fill="#C8C8C8" stroke="#C8C8C8" stroke-width="0.25" stroke-miterlimit="10" cx="844.747" cy="334.737" r="3.049"/>
			<circle fill="#C8C8C8" stroke="#C8C8C8" stroke-width="0.25" stroke-miterlimit="10" cx="937.451" cy="361.496" r="2.973"/>
			<circle fill="#C8C8C8" stroke="#C8C8C8" stroke-width="0.25" stroke-miterlimit="10" cx="847.109" cy="361.802" r="2.439"/>
			<rect x="894.5" y="366.5" fill="#C8C8C8" stroke="#C8C8C8" stroke-miterlimit="10" width="1" height="4"/>
			<rect x="930.5" y="366.5" fill="#C8C8C8" stroke="#C8C8C8" stroke-miterlimit="10" width="1" height="4"/>
			<rect x="835.5" y="380.5" fill="#333333" stroke="#333333" stroke-miterlimit="10" width="47" height="4"/>
		</g>
		<g>
			<path fill="#808080" stroke="#808080" stroke-miterlimit="10" d="M706.5,323.805c0,9.976,0,28.592,0,37.055
				c0,7.66,4.549,6.641,7.473,6.641c8.001,0,85.877,0,85.877,0c2.35-1,2.783-3.234,2.79-4.39c0-6.592-3.377-7.54-3.377-7.54
				l-85.29-34.232c0,0-3.951-2.047-5.865-2.329C706.566,319.009,706.5,320.779,706.5,323.805z"/>
			<path fill="#E6E6E6" stroke="#999999" stroke-width="0.25" stroke-miterlimit="10" d="M723.682,331.935
				c0,0,3.849-0.018,6.491-0.018c2.642,0,2.813,3.384,3.967,5.794c1.22,2.287,3.601,1.695,6.508,0
				c2.418-1.689,13.474-10.216,13.474-10.216s2.196-2.033,0.011-5.286c-11.334-13.315-30.45-13.214-30.45-13.214
				s-19.18-0.102-30.514,13.214c-2.186,3.253,0.017,5.286,0.017,5.286s11.06,8.526,13.478,10.216c2.908,1.695,5.29,2.287,6.51,0
				c1.152-2.41,1.327-5.794,3.969-5.794S723.682,331.935,723.682,331.935z"/>
			<rect x="720.5" y="364.5" fill="#808080" stroke="#808080" stroke-miterlimit="10" width="7" height="23"/>
			<circle fill="#999999" stroke="#999999" stroke-width="0.25" stroke-miterlimit="10" cx="723.651" cy="350.137" r="13.846"/>
			<rect x="753.5" y="351.5" fill="#999999" stroke="#999999" stroke-miterlimit="10" width="44" height="20"/>
			<rect x="766.5" y="353.5" fill="#C8C8C8" stroke="#C8C8C8" stroke-miterlimit="10" width="23" height="2"/>
			<rect x="766.5" y="367.5" fill="#C8C8C8" stroke="#C8C8C8" stroke-miterlimit="10" width="23" height="2"/>
			<rect x="761.5" y="348.5" fill="#C8C8C8" stroke="#999999" stroke-miterlimit="10" width="5" height="27"/>
			<rect x="789.5" y="348.5" fill="#C8C8C8" stroke="#999999" stroke-miterlimit="10" width="5" height="27"/>
			<rect x="759.5" y="352.5" fill="#C8C8C8" stroke="#C8C8C8" stroke-miterlimit="10" width="1" height="4"/>
			<rect x="795.5" y="352.5" fill="#C8C8C8" stroke="#C8C8C8" stroke-miterlimit="10" width="1" height="4"/>
			<path fill="#999999" stroke="#999999" stroke-miterlimit="10" d="M807.711,361.496c0,3.285-2.662,6.052-5.946,6.052
				c-0.462,0-0.906-0.048-1.336-0.048H797.5v-12h2.929c0.43,0,0.874-0.051,1.336-0.051
				C805.049,355.449,807.711,358.213,807.711,361.496z"/>
			<path fill="#C8C8C8" stroke="#C8C8C8" stroke-miterlimit="10" d="M752.5,359.5v5h-31.402c-3.133,0-5.764,0.233-6.554,0.517
				c-0.157,0.059-0.243,0.132-0.243,0.192c-0.651,0.441-1.438,0.703-2.285,0.703c-2.264,0-4.098-1.839-4.098-4.113
				c0-2.274,1.834-4.115,4.098-4.115c0.847,0,1.634,0.257,2.285,0.698c0,0.062,0.083,0.345,0.242,0.4
				c0.791,0.287,3.447,0.719,6.604,0.719H752.5z"/>
			<polygon fill="#333333" stroke="#333333" stroke-width="0.25" stroke-miterlimit="10" points="717.797,363.045 762.28,318.217 
				755.497,311.381 711.014,356.209 707.013,367.076 			"/>
			<path fill="#C1272D" stroke="#C1272D" stroke-width="0.25" stroke-miterlimit="10" d="M790.697,283.138
				c2.799,2.799,3.058,7.077,0.577,9.558l-27.323,27.324l-10.135-10.135l27.323-27.324
				C783.619,280.08,787.898,280.339,790.697,283.138z"/>
			<circle fill="#C8C8C8" stroke="#C8C8C8" stroke-width="0.25" stroke-miterlimit="10" cx="723.651" cy="350.137" r="3.02"/>
			<circle fill="#C8C8C8" stroke="#C8C8C8" stroke-width="0.25" stroke-miterlimit="10" cx="709.747" cy="334.737" r="3.049"/>
			<circle fill="#C8C8C8" stroke="#C8C8C8" stroke-width="0.25" stroke-miterlimit="10" cx="802.451" cy="361.496" r="2.973"/>
			<circle fill="#C8C8C8" stroke="#C8C8C8" stroke-width="0.25" stroke-miterlimit="10" cx="712.11" cy="361.802" r="2.439"/>
			<rect x="759.5" y="366.5" fill="#C8C8C8" stroke="#C8C8C8" stroke-miterlimit="10" width="1" height="4"/>
			<rect x="795.5" y="366.5" fill="#C8C8C8" stroke="#C8C8C8" stroke-miterlimit="10" width="1" height="4"/>
			<rect x="700.5" y="380.5" fill="#333333" stroke="#333333" stroke-miterlimit="10" width="47" height="4"/>
		</g>
		<g>
			<path fill="#808080" stroke="#808080" stroke-miterlimit="10" d="M571.5,323.805c0,9.976,0,28.592,0,37.055
				c0,7.66,4.549,6.641,7.473,6.641c8.001,0,85.877,0,85.877,0c2.35-1,2.783-3.234,2.79-4.39c0-6.592-3.377-7.54-3.377-7.54
				l-85.29-34.232c0,0-3.951-2.047-5.865-2.329C571.566,319.009,571.5,320.779,571.5,323.805z"/>
			<path fill="#E6E6E6" stroke="#999999" stroke-width="0.25" stroke-miterlimit="10" d="M588.682,331.935
				c0,0,3.849-0.018,6.491-0.018c2.642,0,2.813,3.384,3.967,5.794c1.22,2.287,3.601,1.695,6.508,0
				c2.418-1.689,13.474-10.216,13.474-10.216s2.196-2.033,0.011-5.286c-11.334-13.315-30.45-13.214-30.45-13.214
				s-19.18-0.102-30.514,13.214c-2.186,3.253,0.017,5.286,0.017,5.286s11.06,8.526,13.478,10.216c2.908,1.695,5.291,2.287,6.51,0
				c1.152-2.41,1.326-5.794,3.969-5.794C584.783,331.917,588.682,331.935,588.682,331.935z"/>
			<rect x="585.5" y="364.5" fill="#808080" stroke="#808080" stroke-miterlimit="10" width="7" height="23"/>
			<circle fill="#999999" stroke="#999999" stroke-width="0.25" stroke-miterlimit="10" cx="588.651" cy="350.137" r="13.846"/>
			<rect x="618.5" y="351.5" fill="#999999" stroke="#999999" stroke-miterlimit="10" width="44" height="20"/>
			<rect x="631.5" y="353.5" fill="#C8C8C8" stroke="#C8C8C8" stroke-miterlimit="10" width="23" height="2"/>
			<rect x="631.5" y="367.5" fill="#C8C8C8" stroke="#C8C8C8" stroke-miterlimit="10" width="23" height="2"/>
			<rect x="626.5" y="348.5" fill="#C8C8C8" stroke="#999999" stroke-miterlimit="10" width="5" height="27"/>
			<rect x="654.5" y="348.5" fill="#C8C8C8" stroke="#999999" stroke-miterlimit="10" width="5" height="27"/>
			<rect x="624.5" y="352.5" fill="#C8C8C8" stroke="#C8C8C8" stroke-miterlimit="10" width="1" height="4"/>
			<rect x="660.5" y="352.5" fill="#C8C8C8" stroke="#C8C8C8" stroke-miterlimit="10" width="1" height="4"/>
			<path fill="#999999" stroke="#999999" stroke-miterlimit="10" d="M672.711,361.496c0,3.285-2.662,6.052-5.946,6.052
				c-0.462,0-0.906-0.048-1.336-0.048H662.5v-12h2.929c0.43,0,0.874-0.051,1.336-0.051
				C670.049,355.449,672.711,358.213,672.711,361.496z"/>
			<path fill="#C8C8C8" stroke="#C8C8C8" stroke-miterlimit="10" d="M617.5,359.5v5h-31.402c-3.133,0-5.764,0.233-6.554,0.517
				c-0.157,0.059-0.243,0.132-0.243,0.192c-0.651,0.441-1.438,0.703-2.285,0.703c-2.264,0-4.098-1.839-4.098-4.113
				c0-2.274,1.834-4.115,4.098-4.115c0.847,0,1.634,0.257,2.285,0.698c0,0.062,0.083,0.345,0.242,0.4
				c0.791,0.287,3.447,0.719,6.604,0.719H617.5z"/>
			<polygon fill="#333333" stroke="#333333" stroke-width="0.25" stroke-miterlimit="10" points="582.797,363.045 627.28,318.217 
				620.497,311.381 576.014,356.209 572.013,367.076 			"/>
			<path fill="#C1272D" stroke="#C1272D" stroke-width="0.25" stroke-miterlimit="10" d="M655.697,283.138
				c2.799,2.799,3.058,7.077,0.577,9.558l-27.323,27.324l-10.135-10.135l27.323-27.324
				C648.619,280.08,652.898,280.339,655.697,283.138z"/>
			<circle fill="#C8C8C8" stroke="#C8C8C8" stroke-width="0.25" stroke-miterlimit="10" cx="588.651" cy="350.137" r="3.02"/>
			<circle fill="#C8C8C8" stroke="#C8C8C8" stroke-width="0.25" stroke-miterlimit="10" cx="574.747" cy="334.737" r="3.049"/>
			<circle fill="#C8C8C8" stroke="#C8C8C8" stroke-width="0.25" stroke-miterlimit="10" cx="667.451" cy="361.496" r="2.973"/>
			<circle fill="#C8C8C8" stroke="#C8C8C8" stroke-width="0.25" stroke-miterlimit="10" cx="577.11" cy="361.802" r="2.439"/>
			<rect x="624.5" y="366.5" fill="#C8C8C8" stroke="#C8C8C8" stroke-miterlimit="10" width="1" height="4"/>
			<rect x="660.5" y="366.5" fill="#C8C8C8" stroke="#C8C8C8" stroke-miterlimit="10" width="1" height="4"/>
			<rect x="565.5" y="380.5" fill="#333333" stroke="#333333" stroke-miterlimit="10" width="47" height="4"/>
		</g>
		<g>
			<path fill="#808080" stroke="#808080" stroke-miterlimit="10" d="M436.5,323.805c0,9.976,0,28.592,0,37.055
				c0,7.66,4.549,6.641,7.473,6.641c8.001,0,85.877,0,85.877,0c2.35-1,2.783-3.234,2.79-4.39c0-6.592-3.377-7.54-3.377-7.54
				l-85.29-34.232c0,0-3.951-2.047-5.865-2.329C436.566,319.009,436.5,320.779,436.5,323.805z"/>
			<path fill="#E6E6E6" stroke="#999999" stroke-width="0.25" stroke-miterlimit="10" d="M453.682,331.935
				c0,0,3.849-0.018,6.491-0.018c2.642,0,2.814,3.384,3.967,5.794c1.22,2.287,3.601,1.695,6.508,0
				c2.418-1.689,13.474-10.216,13.474-10.216s2.196-2.033,0.011-5.286c-11.334-13.315-30.45-13.214-30.45-13.214
				s-19.18-0.102-30.514,13.214c-2.186,3.253,0.017,5.286,0.017,5.286s11.06,8.526,13.478,10.216c2.908,1.695,5.291,2.287,6.51,0
				c1.152-2.41,1.326-5.794,3.969-5.794C449.783,331.917,453.682,331.935,453.682,331.935z"/>
			<rect x="450.5" y="364.5" fill="#808080" stroke="#808080" stroke-miterlimit="10" width="7" height="23"/>
			<circle fill="#999999" stroke="#999999" stroke-width="0.25" stroke-miterlimit="10" cx="453.651" cy="350.137" r="13.846"/>
			<rect x="483.5" y="351.5" fill="#999999" stroke="#999999" stroke-miterlimit="10" width="44" height="20"/>
			<rect x="496.5" y="353.5" fill="#C8C8C8" stroke="#C8C8C8" stroke-miterlimit="10" width="23" height="2"/>
			<rect x="496.5" y="367.5" fill="#C8C8C8" stroke="#C8C8C8" stroke-miterlimit="10" width="23" height="2"/>
			<rect x="491.5" y="348.5" fill="#C8C8C8" stroke="#999999" stroke-miterlimit="10" width="5" height="27"/>
			<rect x="519.5" y="348.5" fill="#C8C8C8" stroke="#999999" stroke-miterlimit="10" width="5" height="27"/>
			<rect x="489.5" y="352.5" fill="#C8C8C8" stroke="#C8C8C8" stroke-miterlimit="10" width="1" height="4"/>
			<rect x="525.5" y="352.5" fill="#C8C8C8" stroke="#C8C8C8" stroke-miterlimit="10" width="1" height="4"/>
			<path fill="#999999" stroke="#999999" stroke-miterlimit="10" d="M537.711,361.496c0,3.285-2.662,6.052-5.946,6.052
				c-0.462,0-0.906-0.048-1.336-0.048H527.5v-12h2.929c0.43,0,0.874-0.051,1.336-0.051
				C535.049,355.449,537.711,358.213,537.711,361.496z"/>
			<path fill="#C8C8C8" stroke="#C8C8C8" stroke-miterlimit="10" d="M482.5,359.5v5h-31.402c-3.133,0-5.764,0.233-6.554,0.517
				c-0.157,0.059-0.243,0.132-0.243,0.192c-0.651,0.441-1.439,0.703-2.285,0.703c-2.264,0-4.098-1.839-4.098-4.113
				c0-2.274,1.834-4.115,4.098-4.115c0.847,0,1.634,0.257,2.285,0.698c0,0.062,0.083,0.345,0.242,0.4
				c0.791,0.287,3.447,0.719,6.604,0.719H482.5z"/>
			<polygon fill="#333333" stroke="#333333" stroke-width="0.25" stroke-miterlimit="10" points="447.797,363.045 492.28,318.217 
				485.497,311.381 441.014,356.209 437.013,367.076 			"/>
			<path fill="#C1272D" stroke="#C1272D" stroke-width="0.25" stroke-miterlimit="10" d="M520.697,283.138
				c2.799,2.799,3.058,7.077,0.577,9.558l-27.323,27.324l-10.135-10.135l27.323-27.324
				C513.619,280.08,517.898,280.339,520.697,283.138z"/>
			<circle fill="#C8C8C8" stroke="#C8C8C8" stroke-width="0.25" stroke-miterlimit="10" cx="453.651" cy="350.137" r="3.02"/>
			<circle fill="#C8C8C8" stroke="#C8C8C8" stroke-width="0.25" stroke-miterlimit="10" cx="439.747" cy="334.737" r="3.049"/>
			<circle fill="#C8C8C8" stroke="#C8C8C8" stroke-width="0.25" stroke-miterlimit="10" cx="532.451" cy="361.496" r="2.973"/>
			<circle fill="#C8C8C8" stroke="#C8C8C8" stroke-width="0.25" stroke-miterlimit="10" cx="442.11" cy="361.802" r="2.439"/>
			<rect x="489.5" y="366.5" fill="#C8C8C8" stroke="#C8C8C8" stroke-miterlimit="10" width="1" height="4"/>
			<rect x="525.5" y="366.5" fill="#C8C8C8" stroke="#C8C8C8" stroke-miterlimit="10" width="1" height="4"/>
			<rect x="430.5" y="380.5" fill="#333333" stroke="#333333" stroke-miterlimit="10" width="47" height="4"/>
		</g>
		<g>
			<path fill="#808080" stroke="#808080" stroke-miterlimit="10" d="M301.5,323.805c0,9.976,0,28.592,0,37.055
				c0,7.66,4.549,6.641,7.473,6.641c8.001,0,85.877,0,85.877,0c2.35-1,2.783-3.234,2.79-4.39c0-6.592-3.377-7.54-3.377-7.54
				l-85.29-34.232c0,0-3.951-2.047-5.865-2.329C301.566,319.009,301.5,320.779,301.5,323.805z"/>
			<path fill="#E6E6E6" stroke="#999999" stroke-width="0.25" stroke-miterlimit="10" d="M318.682,331.935
				c0,0,3.849-0.018,6.491-0.018c2.642,0,2.814,3.384,3.967,5.794c1.22,2.287,3.601,1.695,6.508,0
				c2.418-1.689,13.474-10.216,13.474-10.216s2.196-2.033,0.011-5.286c-11.334-13.315-30.45-13.214-30.45-13.214
				s-19.18-0.102-30.514,13.214c-2.186,3.253,0.017,5.286,0.017,5.286s11.06,8.526,13.478,10.216c2.908,1.695,5.291,2.287,6.51,0
				c1.152-2.41,1.326-5.794,3.969-5.794C314.783,331.917,318.682,331.935,318.682,331.935z"/>
			<rect x="315.5" y="364.5" fill="#808080" stroke="#808080" stroke-miterlimit="10" width="7" height="23"/>
			<circle fill="#999999" stroke="#999999" stroke-width="0.25" stroke-miterlimit="10" cx="318.651" cy="350.137" r="13.846"/>
			<rect x="348.5" y="351.5" fill="#999999" stroke="#999999" stroke-miterlimit="10" width="44" height="20"/>
			<rect x="361.5" y="353.5" fill="#C8C8C8" stroke="#C8C8C8" stroke-miterlimit="10" width="23" height="2"/>
			<rect x="361.5" y="367.5" fill="#C8C8C8" stroke="#C8C8C8" stroke-miterlimit="10" width="23" height="2"/>
			<rect x="356.5" y="348.5" fill="#C8C8C8" stroke="#999999" stroke-miterlimit="10" width="5" height="27"/>
			<rect x="384.5" y="348.5" fill="#C8C8C8" stroke="#999999" stroke-miterlimit="10" width="5" height="27"/>
			<rect x="354.5" y="352.5" fill="#C8C8C8" stroke="#C8C8C8" stroke-miterlimit="10" width="1" height="4"/>
			<rect x="390.5" y="352.5" fill="#C8C8C8" stroke="#C8C8C8" stroke-miterlimit="10" width="1" height="4"/>
			<path fill="#999999" stroke="#999999" stroke-miterlimit="10" d="M402.711,361.496c0,3.285-2.662,6.052-5.946,6.052
				c-0.462,0-0.906-0.048-1.336-0.048H392.5v-12h2.929c0.43,0,0.874-0.051,1.336-0.051
				C400.049,355.449,402.711,358.213,402.711,361.496z"/>
			<path fill="#C8C8C8" stroke="#C8C8C8" stroke-miterlimit="10" d="M347.5,359.5v5h-31.402c-3.133,0-5.764,0.233-6.554,0.517
				c-0.157,0.059-0.243,0.132-0.243,0.192c-0.651,0.441-1.439,0.703-2.285,0.703c-2.264,0-4.098-1.839-4.098-4.113
				c0-2.274,1.834-4.115,4.098-4.115c0.847,0,1.634,0.257,2.285,0.698c0,0.062,0.083,0.345,0.242,0.4
				c0.791,0.287,3.447,0.719,6.604,0.719H347.5z"/>
			<polygon fill="#333333" stroke="#333333" stroke-width="0.25" stroke-miterlimit="10" points="312.797,363.045 357.28,318.217 
				350.497,311.381 306.014,356.209 302.013,367.076 			"/>
			<path fill="#C1272D" stroke="#C1272D" stroke-width="0.25" stroke-miterlimit="10" d="M385.697,283.138
				c2.799,2.799,3.058,7.077,0.577,9.558l-27.323,27.324l-10.135-10.135l27.323-27.324
				C378.619,280.08,382.898,280.339,385.697,283.138z"/>
			<circle fill="#C8C8C8" stroke="#C8C8C8" stroke-width="0.25" stroke-miterlimit="10" cx="318.651" cy="350.137" r="3.02"/>
			<circle fill="#C8C8C8" stroke="#C8C8C8" stroke-width="0.25" stroke-miterlimit="10" cx="304.747" cy="334.737" r="3.049"/>
			<circle fill="#C8C8C8" stroke="#C8C8C8" stroke-width="0.25" stroke-miterlimit="10" cx="397.451" cy="361.496" r="2.973"/>
			<circle fill="#C8C8C8" stroke="#C8C8C8" stroke-width="0.25" stroke-miterlimit="10" cx="307.11" cy="361.802" r="2.439"/>
			<rect x="354.5" y="366.5" fill="#C8C8C8" stroke="#C8C8C8" stroke-miterlimit="10" width="1" height="4"/>
			<rect x="390.5" y="366.5" fill="#C8C8C8" stroke="#C8C8C8" stroke-miterlimit="10" width="1" height="4"/>
			<rect x="295.5" y="380.5" fill="#333333" stroke="#333333" stroke-miterlimit="10" width="47" height="4"/>
		</g>
		<g>
			<path fill="#808080" stroke="#808080" stroke-miterlimit="10" d="M166.5,323.805c0,9.976,0,28.592,0,37.055
				c0,7.66,4.549,6.641,7.473,6.641c8.001,0,85.877,0,85.877,0c2.35-1,2.783-3.234,2.79-4.39c0-6.592-3.377-7.54-3.377-7.54
				l-85.29-34.232c0,0-3.951-2.047-5.865-2.329C166.566,319.009,166.5,320.779,166.5,323.805z"/>
			<path fill="#E6E6E6" stroke="#999999" stroke-width="0.25" stroke-miterlimit="10" d="M183.682,331.935
				c0,0,3.849-0.018,6.491-0.018c2.642,0,2.814,3.384,3.967,5.794c1.22,2.287,3.601,1.695,6.508,0
				c2.418-1.689,13.474-10.216,13.474-10.216s2.196-2.033,0.011-5.286c-11.334-13.315-30.45-13.214-30.45-13.214
				s-19.18-0.102-30.514,13.214c-2.186,3.253,0.018,5.286,0.018,5.286s11.06,8.526,13.478,10.216c2.908,1.695,5.291,2.287,6.51,0
				c1.152-2.41,1.326-5.794,3.969-5.794C179.783,331.917,183.682,331.935,183.682,331.935z"/>
			<rect x="180.5" y="364.5" fill="#808080" stroke="#808080" stroke-miterlimit="10" width="7" height="23"/>
			<circle fill="#999999" stroke="#999999" stroke-width="0.25" stroke-miterlimit="10" cx="183.651" cy="350.137" r="13.846"/>
			<rect x="213.5" y="351.5" fill="#999999" stroke="#999999" stroke-miterlimit="10" width="44" height="20"/>
			<rect x="226.5" y="353.5" fill="#C8C8C8" stroke="#C8C8C8" stroke-miterlimit="10" width="23" height="2"/>
			<rect x="226.5" y="367.5" fill="#C8C8C8" stroke="#C8C8C8" stroke-miterlimit="10" width="23" height="2"/>
			<rect x="221.5" y="348.5" fill="#C8C8C8" stroke="#999999" stroke-miterlimit="10" width="5" height="27"/>
			<rect x="249.5" y="348.5" fill="#C8C8C8" stroke="#999999" stroke-miterlimit="10" width="5" height="27"/>
			<rect x="219.5" y="352.5" fill="#C8C8C8" stroke="#C8C8C8" stroke-miterlimit="10" width="1" height="4"/>
			<rect x="255.5" y="352.5" fill="#C8C8C8" stroke="#C8C8C8" stroke-miterlimit="10" width="1" height="4"/>
			<path fill="#999999" stroke="#999999" stroke-miterlimit="10" d="M267.711,361.496c0,3.285-2.662,6.052-5.946,6.052
				c-0.461,0-0.906-0.048-1.336-0.048H257.5v-12h2.929c0.43,0,0.875-0.051,1.336-0.051
				C265.049,355.449,267.711,358.213,267.711,361.496z"/>
			<path fill="#C8C8C8" stroke="#C8C8C8" stroke-miterlimit="10" d="M212.5,359.5v5h-31.402c-3.133,0-5.764,0.233-6.554,0.517
				c-0.157,0.059-0.243,0.132-0.243,0.192c-0.651,0.441-1.438,0.703-2.285,0.703c-2.264,0-4.098-1.839-4.098-4.113
				c0-2.274,1.834-4.115,4.098-4.115c0.847,0,1.634,0.257,2.285,0.698c0,0.062,0.083,0.345,0.242,0.4
				c0.791,0.287,3.447,0.719,6.605,0.719H212.5z"/>
			<polygon fill="#333333" stroke="#333333" stroke-width="0.25" stroke-miterlimit="10" points="177.797,363.045 222.28,318.217 
				215.497,311.381 171.014,356.209 167.013,367.076 			"/>
			<path fill="#C1272D" stroke="#C1272D" stroke-width="0.25" stroke-miterlimit="10" d="M250.697,283.138
				c2.799,2.799,3.058,7.077,0.577,9.558l-27.323,27.324l-10.135-10.135l27.323-27.324
				C243.619,280.08,247.898,280.339,250.697,283.138z"/>
			<circle fill="#C8C8C8" stroke="#C8C8C8" stroke-width="0.25" stroke-miterlimit="10" cx="183.651" cy="350.137" r="3.02"/>
			<circle fill="#C8C8C8" stroke="#C8C8C8" stroke-width="0.25" stroke-miterlimit="10" cx="169.747" cy="334.737" r="3.049"/>
			<circle fill="#C8C8C8" stroke="#C8C8C8" stroke-width="0.25" stroke-miterlimit="10" cx="262.451" cy="361.496" r="2.973"/>
			<circle fill="#C8C8C8" stroke="#C8C8C8" stroke-width="0.25" stroke-miterlimit="10" cx="172.11" cy="361.802" r="2.439"/>
			<rect x="219.5" y="366.5" fill="#C8C8C8" stroke="#C8C8C8" stroke-miterlimit="10" width="1" height="4"/>
			<rect x="255.5" y="366.5" fill="#C8C8C8" stroke="#C8C8C8" stroke-miterlimit="10" width="1" height="4"/>
			<rect x="160.5" y="380.5" fill="#333333" stroke="#333333" stroke-miterlimit="10" width="47" height="4"/>
		</g>
		<g>
			<path fill="#999999" stroke="#999999" stroke-miterlimit="10" d="M291.5,109.5c0,1.461-0.979,3-2.189,3H167.189
				c-1.209,0-2.189-1.539-2.189-3l0,0c0-1.463,0.98-3,2.189-3h122.122C290.521,106.5,291.5,108.037,291.5,109.5L291.5,109.5z"/>
			<path fill="#999999" stroke="#999999" stroke-miterlimit="10" d="M291.5,110.25c0-1.519-1.231-2.75-2.75-2.75h-0.5
				c-1.519,0-2.75,1.231-2.75,2.75v119.5c0,1.519,1.231,2.75,2.75,2.75h0.5c1.519,0,2.75-1.231,2.75-2.75V110.25z"/>
		</g>
		<g>
			<path fill="#808080" stroke="#808080" stroke-miterlimit="10" d="M126.5,106.805c0,9.976,0,28.592,0,37.055
				c0,7.66,4.549,6.641,7.473,6.641c8.001,0,85.877,0,85.877,0c2.35-1,2.783-3.234,2.79-4.39c0-6.592-3.377-7.54-3.377-7.54
				l-85.29-34.232c0,0-3.951-2.047-5.865-2.329C126.566,102.009,126.5,103.779,126.5,106.805z"/>
			<path fill="#E6E6E6" stroke="#999999" stroke-width="0.25" stroke-miterlimit="10" d="M143.682,114.936
				c0,0,3.849-0.019,6.491-0.019c2.642,0,2.814,3.384,3.967,5.794c1.22,2.287,3.601,1.695,6.508,0
				c2.418-1.689,13.474-10.216,13.474-10.216s2.196-2.033,0.011-5.286c-11.334-13.315-30.45-13.214-30.45-13.214
				s-19.18-0.102-30.514,13.214c-2.186,3.253,0.018,5.286,0.018,5.286s11.06,8.526,13.478,10.216c2.908,1.695,5.291,2.287,6.51,0
				c1.152-2.41,1.326-5.794,3.969-5.794C139.783,114.917,143.682,114.936,143.682,114.936z"/>
			<rect x="140.5" y="147.5" fill="#808080" stroke="#808080" stroke-miterlimit="10" width="7" height="23"/>
			<circle fill="#999999" stroke="#999999" stroke-width="0.25" stroke-miterlimit="10" cx="143.651" cy="133.137" r="13.846"/>
			<rect x="173.5" y="134.5" fill="#999999" stroke="#999999" stroke-miterlimit="10" width="44" height="20"/>
			<rect x="186.5" y="136.5" fill="#C8C8C8" stroke="#C8C8C8" stroke-miterlimit="10" width="23" height="2"/>
			<rect x="186.5" y="150.5" fill="#C8C8C8" stroke="#C8C8C8" stroke-miterlimit="10" width="23" height="2"/>
			<rect x="181.5" y="131.5" fill="#C8C8C8" stroke="#999999" stroke-miterlimit="10" width="5" height="27"/>
			<rect x="209.5" y="131.5" fill="#C8C8C8" stroke="#999999" stroke-miterlimit="10" width="5" height="27"/>
			<rect x="179.5" y="135.5" fill="#C8C8C8" stroke="#C8C8C8" stroke-miterlimit="10" width="1" height="4"/>
			<rect x="215.5" y="135.5" fill="#C8C8C8" stroke="#C8C8C8" stroke-miterlimit="10" width="1" height="4"/>
			<path fill="#999999" stroke="#999999" stroke-miterlimit="10" d="M227.711,144.496c0,3.285-2.662,6.052-5.946,6.052
				c-0.461,0-0.906-0.048-1.336-0.048H217.5v-12h2.929c0.43,0,0.875-0.051,1.336-0.051
				C225.049,138.449,227.711,141.213,227.711,144.496z"/>
			<path fill="#C8C8C8" stroke="#C8C8C8" stroke-miterlimit="10" d="M172.5,142.5v5h-31.402c-3.133,0-5.764,0.233-6.554,0.517
				c-0.157,0.059-0.243,0.132-0.243,0.192c-0.651,0.441-1.438,0.703-2.285,0.703c-2.264,0-4.098-1.839-4.098-4.113
				s1.834-4.115,4.098-4.115c0.847,0,1.634,0.257,2.285,0.698c0,0.062,0.083,0.345,0.242,0.399c0.791,0.287,3.447,0.719,6.605,0.719
				H172.5z"/>
			<polygon fill="#333333" stroke="#333333" stroke-width="0.25" stroke-miterlimit="10" points="137.797,146.045 182.28,101.217 
				175.497,94.381 131.014,139.209 127.013,150.076 			"/>
			<path fill="#C1272D" stroke="#C1272D" stroke-miterlimit="10" d="M210.697,66.138c2.799,2.799,3.058,7.077,0.577,9.558
				l-27.323,27.324l-10.135-10.135l27.323-27.324C203.619,63.08,207.898,63.339,210.697,66.138z"/>
			<circle fill="#C8C8C8" stroke="#C8C8C8" stroke-width="0.25" stroke-miterlimit="10" cx="143.651" cy="133.137" r="3.02"/>
			<circle fill="#C8C8C8" stroke="#C8C8C8" stroke-width="0.25" stroke-miterlimit="10" cx="129.747" cy="117.737" r="3.049"/>
			<circle fill="#C8C8C8" stroke="#C8C8C8" stroke-width="0.25" stroke-miterlimit="10" cx="222.451" cy="144.496" r="2.973"/>
			<circle fill="#C8C8C8" stroke="#C8C8C8" stroke-width="0.25" stroke-miterlimit="10" cx="132.11" cy="144.802" r="2.439"/>
			<rect x="179.5" y="149.5" fill="#C8C8C8" stroke="#C8C8C8" stroke-miterlimit="10" width="1" height="4"/>
			<rect x="215.5" y="149.5" fill="#C8C8C8" stroke="#C8C8C8" stroke-miterlimit="10" width="1" height="4"/>
		</g>
	</g>
</g>
</svg>
