<?xml version="1.0" encoding="utf-8"?>
<!-- Generator: Adobe Illustrator 17.0.0, SVG Export Plug-In . SVG Version: 6.00 Build 0)  -->
<!DOCTYPE svg PUBLIC "-//W3C//DTD SVG 1.1//EN" "http://www.w3.org/Graphics/SVG/1.1/DTD/svg11.dtd">
<svg version="1.1" xmlns="http://www.w3.org/2000/svg" xmlns:xlink="http://www.w3.org/1999/xlink" x="0px" y="0px" width="1447px"
	 height="726px" viewBox="0 0 1447 726" enable-background="new 0 0 1447 726" xml:space="preserve">
<g id="Layer_1">
</g>
<g id="Layer_3">
</g>
<g id="Layer_2">
</g>
<g id="Layer_7">
</g>
<g id="Layer_14">
</g>
<g id="Layer_5">
</g>
<g id="Layer_11">
</g>
<g id="Layer_9">
</g>
<g id="Layer_10">
</g>
<g id="Layer_13">
</g>
<g id="Layer_6">
</g>
<g id="Layer_4">
	<g>
		<path fill="#E6E6E6" stroke="#E6E6E6" stroke-miterlimit="10" d="M487.5,128.491V422.5h-57V128.491
			c0-12.037,7.673-22.325,18.244-26.453c-0.276-0.652-0.244-1.366-0.244-2.11v-0.414c0-2.823,1.792-5.141,4.516-5.492
			c-0.137-0.223-0.516-0.484-0.516-0.762v-0.123c0-0.813,1.963-1.637,2.776-1.637h9.33c0.815,0,0.894,0.824,0.894,1.637v0.123
			c0,0.277,0.121,0.539-0.016,0.762c2.723,0.351,5.016,2.669,5.016,5.492v0.414c0,0.744-0.468,1.458-0.744,2.11
			C480.328,106.166,487.5,116.454,487.5,128.491z"/>
		<path fill="#E6E6E6" stroke="#E6E6E6" stroke-miterlimit="10" d="M553.5,128.491V422.5h-58V128.491
			c0-12.037,7.172-22.325,17.744-26.453c-0.275-0.652-0.744-1.366-0.744-2.11v-0.414c0-2.823,2.294-5.141,5.016-5.492
			c-0.137-0.223-0.016-0.484-0.016-0.762v-0.123c0-0.813,1.409-1.637,2.223-1.637h9.329c0.815,0,1.448,0.824,1.448,1.637v0.123
			c0,0.277-0.377,0.539-0.516,0.762c2.723,0.351,4.516,2.669,4.516,5.492v0.414c0,0.744,0.531,1.458,0.255,2.11
			C545.327,106.166,553.5,116.454,553.5,128.491z"/>
		<path fill="#E6E6E6" stroke="#E6E6E6" stroke-miterlimit="10" d="M617.5,128.491V422.5h-58V128.491
			c0-12.037,7.673-22.325,18.244-26.453c-0.276-0.652-0.244-1.366-0.244-2.11v-0.414c0-2.823,1.792-5.141,4.516-5.492
			c-0.137-0.223-0.516-0.484-0.516-0.762v-0.123c0-0.813,1.855-1.637,2.669-1.637h9.329c0.815,0,2.002,0.824,2.002,1.637v0.123
			c0,0.277-0.379,0.539-0.516,0.762c2.722,0.351,4.516,2.669,4.516,5.492v0.414c0,0.744,0.032,1.458-0.245,2.11
			C609.827,106.166,617.5,116.454,617.5,128.491z"/>
		<path fill="#E6E6E6" stroke="#E6E6E6" stroke-miterlimit="10" d="M681.5,128.491V422.5h-58V128.491
			c0-12.037,8.173-22.325,18.744-26.453c-0.275-0.652,0.256-1.366,0.256-2.11v-0.414c0-2.823,1.794-5.141,4.516-5.492
			c-0.138-0.223-0.516-0.484-0.516-0.762v-0.123c0-0.813,1.301-1.637,2.115-1.637h9.33c0.813,0,1.555,0.824,1.555,1.637v0.123
			c0,0.277,0.121,0.539-0.016,0.762c2.723,0.351,5.016,2.669,5.016,5.492v0.414c0,0.744-0.468,1.458-0.745,2.11
			C674.328,106.166,681.5,116.454,681.5,128.491z"/>
		<path fill="#E6E6E6" stroke="#E6E6E6" stroke-miterlimit="10" d="M745.5,128.491V422.5h-56V128.491
			c0-12.037,7.173-22.325,17.745-26.453c-0.276-0.652-0.745-1.366-0.745-2.11v-0.414c0-2.823,2.294-5.141,5.017-5.492
			c-0.14-0.223-0.017-0.484-0.017-0.762v-0.123c0-0.813,0.747-1.637,1.561-1.637h9.329c0.815,0,2.11,0.824,2.11,1.637v0.123
			c0,0.277-0.378,0.539-0.516,0.762c2.722,0.351,4.516,2.669,4.516,5.492v0.414c0,0.744-0.468,1.458-0.745,2.11
			C738.328,106.166,745.5,116.454,745.5,128.491z"/>
		<path fill="#E6E6E6" stroke="#E6E6E6" stroke-miterlimit="10" d="M810.5,128.491V422.5h-57V128.491
			c0-12.037,7.172-22.325,17.744-26.453c-0.276-0.652-0.744-1.366-0.744-2.11v-0.414c0-2.823,2.292-5.141,5.016-5.492
			c-0.138-0.223-0.016-0.484-0.016-0.762v-0.123c0-0.813,1.193-1.637,2.007-1.637h9.329c0.815,0,1.664,0.824,1.664,1.637v0.123
			c0,0.277-0.378,0.539-0.516,0.762c2.723,0.351,4.516,2.669,4.516,5.492v0.414c0,0.744,0.032,1.458-0.245,2.11
			C802.828,106.166,810.5,116.454,810.5,128.491z"/>
		<path fill="#E6E6E6" stroke="#E6E6E6" stroke-miterlimit="10" d="M874.5,128.491V422.5h-57V128.491
			c0-12.037,7.673-22.325,18.243-26.453c-0.275-0.652-0.243-1.366-0.243-2.11v-0.414c0-2.823,1.793-5.141,4.516-5.492
			c-0.138-0.223-0.516-0.484-0.516-0.762v-0.123c0-0.813,1.639-1.637,2.452-1.637h9.331c0.814,0,1.217,0.824,1.217,1.637v0.123
			c0,0.277,0.123,0.539-0.017,0.762c2.724,0.351,5.017,2.669,5.017,5.492v0.414c0,0.744-0.469,1.458-0.745,2.11
			C867.327,106.166,874.5,116.454,874.5,128.491z"/>
		<path fill="#E6E6E6" stroke="#E6E6E6" stroke-miterlimit="10" d="M938.5,128.491V422.5h-56V128.491
			c0-12.037,7.172-22.325,17.744-26.453c-0.275-0.652-0.744-1.366-0.744-2.11v-0.414c0-2.823,1.793-5.141,4.516-5.492
			c-0.137-0.223-0.516-0.484-0.516-0.762v-0.123c0-0.813,2.085-1.637,2.899-1.637h9.329c0.815,0,1.772,0.824,1.772,1.637v0.123
			c0,0.277-0.378,0.539-0.516,0.762c2.722,0.351,4.516,2.669,4.516,5.492v0.414c0,0.744-0.469,1.458-0.745,2.11
			C931.327,106.166,938.5,116.454,938.5,128.491z"/>
		<path fill="#E6E6E6" stroke="#E6E6E6" stroke-miterlimit="10" d="M1004.5,128.491V422.5h-58V128.491
			c0-12.037,7.173-22.325,17.744-26.453c-0.276-0.652-0.744-1.366-0.744-2.11v-0.414c0-2.823,2.294-5.141,5.016-5.492
			c-0.137-0.223-0.016-0.484-0.016-0.762v-0.123c0-0.813,1.532-1.637,2.345-1.637h9.33c0.813,0,1.325,0.824,1.325,1.637v0.123
			c0,0.277-0.379,0.539-0.516,0.762c2.723,0.351,4.516,2.669,4.516,5.492v0.414c0,0.744,0.532,1.458,0.255,2.11
			C996.327,106.166,1004.5,116.454,1004.5,128.491z"/>
		<path fill="#E6E6E6" stroke="#E6E6E6" stroke-miterlimit="10" d="M1068.5,128.491V422.5h-58V128.491
			c0-12.037,7.673-22.325,18.245-26.453c-0.276-0.652-0.245-1.366-0.245-2.11v-0.414c0-2.823,1.794-5.141,4.516-5.492
			c-0.138-0.223-0.516-0.484-0.516-0.762v-0.123c0-0.813,1.977-1.637,2.791-1.637h9.329c0.814,0,0.88,0.824,0.88,1.637v0.123
			c0,0.277,0.621,0.539,0.484,0.762c2.723,0.351,5.516,2.669,5.516,5.492v0.414c0,0.744-0.469,1.458-0.745,2.11
			C1061.328,106.166,1068.5,116.454,1068.5,128.491z"/>
		<path fill="#E6E6E6" stroke="#E6E6E6" stroke-miterlimit="10" d="M1132.5,128.491V422.5h-57V128.491
			c0-12.037,7.172-22.325,17.744-26.453c-0.276-0.652-0.744-1.366-0.744-2.11v-0.414c0-2.823,2.292-5.141,5.016-5.492
			c-0.137-0.223-0.016-0.484-0.016-0.762v-0.123c0-0.813,1.422-1.637,2.237-1.637h9.329c0.813,0,1.434,0.824,1.434,1.637v0.123
			c0,0.277,0.122,0.539-0.016,0.762c2.724,0.351,5.016,2.669,5.016,5.492v0.414c0,0.744-0.468,1.458-0.744,2.11
			C1125.327,106.166,1132.5,116.454,1132.5,128.491z"/>
		<path fill="#E6E6E6" stroke="#E6E6E6" stroke-miterlimit="10" d="M1197.5,128.491V422.5h-57V128.491
			c0-12.037,7.172-22.325,17.745-26.453c-0.276-0.652-0.745-1.366-0.745-2.11v-0.414c0-2.823,2.292-5.141,5.016-5.492
			c-0.137-0.223-0.016-0.484-0.016-0.762v-0.123c0-0.813,0.869-1.637,1.683-1.637h9.329c0.814,0,1.989,0.824,1.989,1.637v0.123
			c0,0.277-0.378,0.539-0.516,0.762c2.724,0.351,4.516,2.669,4.516,5.492v0.414c0,0.744,0.032,1.458-0.244,2.11
			C1189.828,106.166,1197.5,116.454,1197.5,128.491z"/>
		<path fill="#E6E6E6" stroke="#E6E6E6" stroke-miterlimit="10" d="M1261.5,128.491V422.5h-57V128.491
			c0-12.037,7.672-22.325,18.244-26.453c-0.277-0.652-0.244-1.366-0.244-2.11v-0.414c0-2.823,1.793-5.141,4.516-5.492
			c-0.137-0.223-0.516-0.484-0.516-0.762v-0.123c0-0.813,1.315-1.637,2.128-1.637h9.33c0.813,0,1.542,0.824,1.542,1.637v0.123
			c0,0.277-0.379,0.539-0.516,0.762c2.722,0.351,4.516,2.669,4.516,5.492v0.414c0,0.744,0.031,1.458-0.245,2.11
			C1253.827,106.166,1261.5,116.454,1261.5,128.491z"/>
		<path fill="#B3B3B3" stroke="#B3B3B3" stroke-miterlimit="10" d="M483.5,148.438V443.5h-57V148.438
			c0-12.036,7.673-22.324,18.244-26.453c-0.276-0.651-0.244-1.363-0.244-2.109v-0.413c0-2.825,1.794-5.142,4.516-5.493
			c-0.138-0.223-0.516-0.484-0.516-0.76v-0.123c0-0.813,1.36-0.586,2.173-0.586h9.331c0.814,0,0.496-0.227,0.496,0.586v0.123
			c0,0.275,0.122,0.537-0.016,0.76c2.723,0.352,5.016,2.668,5.016,5.493v0.413c0,0.746,0.032,1.458-0.245,2.109
			C475.828,126.113,483.5,136.401,483.5,148.438z"/>
		<path fill="#B3B3B3" stroke="#B3B3B3" stroke-miterlimit="10" d="M548.5,148.438V443.5h-58V148.438
			c0-12.036,7.673-22.324,18.243-26.453c-0.275-0.651-0.243-1.363-0.243-2.109v-0.413c0-2.825,1.793-5.142,4.516-5.493
			c-0.138-0.223-0.516-0.484-0.516-0.76v-0.123c0-0.813,1.806-0.586,2.62-0.586h9.329c0.814,0,0.051-0.227,0.051,0.586v0.123
			c0,0.275,0.622,0.537,0.484,0.76c2.723,0.352,5.516,2.668,5.516,5.493v0.413c0,0.746,0.032,1.458-0.245,2.109
			C540.828,126.113,548.5,136.401,548.5,148.438z"/>
		<path fill="#B3B3B3" stroke="#B3B3B3" stroke-miterlimit="10" d="M612.5,148.438V443.5h-57V148.438
			c0-12.036,7.172-22.324,17.745-26.453c-0.276-0.651-0.745-1.363-0.745-2.109v-0.413c0-2.825,2.293-5.142,5.016-5.493
			c-0.137-0.223-0.016-0.484-0.016-0.76v-0.123c0-0.813,1.252-0.586,2.066-0.586h9.329c0.814,0-0.395-0.227-0.395,0.586v0.123
			c0,0.275,1.121,0.537,0.984,0.76c2.723,0.352,6.016,2.668,6.016,5.493v0.413c0,0.746-0.467,1.458-0.745,2.109
			C605.327,126.113,612.5,136.401,612.5,148.438z"/>
		<path fill="#B3B3B3" stroke="#B3B3B3" stroke-miterlimit="10" d="M677.5,148.438V443.5h-58V148.438
			c0-12.036,8.172-22.324,18.744-26.453c-0.276-0.651,0.256-1.363,0.256-2.109v-0.413c0-2.825,1.793-5.142,4.516-5.493
			c-0.137-0.223-0.516-0.484-0.516-0.76v-0.123c0-0.813,0.698-0.586,1.511-0.586h9.33c0.815,0,0.159-0.227,0.159,0.586v0.123
			c0,0.275,0.621,0.537,0.484,0.76c2.723,0.352,5.516,2.668,5.516,5.493v0.413c0,0.746,0.031,1.458-0.245,2.109
			C669.828,126.113,677.5,136.401,677.5,148.438z"/>
		<path fill="#B3B3B3" stroke="#B3B3B3" stroke-miterlimit="10" d="M741.5,148.438V443.5h-57V148.438
			c0-12.036,7.672-22.324,18.243-26.453c-0.275-0.651-0.243-1.363-0.243-2.109v-0.413c0-2.825,1.794-5.142,4.516-5.493
			c-0.137-0.223-0.516-0.484-0.516-0.76v-0.123c0-0.813,1.144-0.586,1.957-0.586h9.33c0.815,0-0.287-0.227-0.287,0.586v0.123
			c0,0.275,1.122,0.537,0.984,0.76c2.723,0.352,6.016,2.668,6.016,5.493v0.413c0,0.746-0.469,1.458-0.744,2.109
			C734.327,126.113,741.5,136.401,741.5,148.438z"/>
		<path fill="#B3B3B3" stroke="#B3B3B3" stroke-miterlimit="10" d="M805.5,148.438V443.5h-56V148.438
			c0-12.036,7.172-22.324,17.744-26.453c-0.275-0.651-0.744-1.363-0.744-2.109v-0.413c0-2.825,1.792-5.142,4.516-5.493
			c-0.137-0.223-0.516-0.484-0.516-0.76v-0.123c0-0.813,1.59-0.586,2.403-0.586h9.33c0.814,0,0.267-0.227,0.267,0.586v0.123
			c0,0.275,0.622,0.537,0.484,0.76c2.722,0.352,5.516,2.668,5.516,5.493v0.413c0,0.746-0.469,1.458-0.745,2.109
			C798.327,126.113,805.5,136.401,805.5,148.438z"/>
		<path fill="#B3B3B3" stroke="#B3B3B3" stroke-miterlimit="10" d="M870.5,148.438V443.5h-57V148.438
			c0-12.036,7.173-22.324,17.744-26.453c-0.275-0.651-0.744-1.363-0.744-2.109v-0.413c0-2.825,2.294-5.142,5.016-5.493
			c-0.137-0.223-0.016-0.484-0.016-0.76v-0.123c0-0.813,1.036-0.586,1.85-0.586h9.329c0.815,0,0.821-0.227,0.821,0.586v0.123
			c0,0.275,0.122,0.537-0.016,0.76c2.723,0.352,5.016,2.668,5.016,5.493v0.413c0,0.746,0.032,1.458-0.244,2.109
			C862.828,126.113,870.5,136.401,870.5,148.438z"/>
		<path fill="#B3B3B3" stroke="#B3B3B3" stroke-miterlimit="10" d="M934.5,148.438V443.5h-57V148.438
			c0-12.036,7.673-22.324,18.244-26.453c-0.275-0.651-0.244-1.363-0.244-2.109v-0.413c0-2.825,1.794-5.142,4.516-5.493
			c-0.138-0.223-0.516-0.484-0.516-0.76v-0.123c0-0.813,1.482-0.586,2.296-0.586h9.329c0.815,0,0.375-0.227,0.375,0.586v0.123
			c0,0.275,0.622,0.537,0.484,0.76c2.723,0.352,5.516,2.668,5.516,5.493v0.413c0,0.746-0.468,1.458-0.743,2.109
			C927.328,126.113,934.5,136.401,934.5,148.438z"/>
		<path fill="#B3B3B3" stroke="#B3B3B3" stroke-miterlimit="10" d="M998.5,148.438V443.5h-56V148.438
			c0-12.036,7.173-22.324,17.744-26.453c-0.275-0.651-0.744-1.363-0.744-2.109v-0.413c0-2.825,1.792-5.142,4.516-5.493
			c-0.137-0.223-0.516-0.484-0.516-0.76v-0.123c0-0.813,1.928-0.586,2.741-0.586h9.33c0.814,0-0.071-0.227-0.071,0.586v0.123
			c0,0.275,0.621,0.537,0.484,0.76c2.724,0.352,5.516,2.668,5.516,5.493v0.413c0,0.746-0.468,1.458-0.745,2.109
			C991.328,126.113,998.5,136.401,998.5,148.438z"/>
		<path fill="#B3B3B3" stroke="#B3B3B3" stroke-miterlimit="10" d="M1064.5,148.438V443.5h-58V148.438
			c0-12.036,7.173-22.324,17.745-26.453c-0.277-0.651-0.745-1.363-0.745-2.109v-0.413c0-2.825,2.292-5.142,5.016-5.493
			c-0.138-0.223-0.016-0.484-0.016-0.76v-0.123c0-0.813,1.374-0.586,2.187-0.586h9.33c0.813,0,0.483-0.227,0.483,0.586v0.123
			c0,0.275,0.121,0.537-0.016,0.76c2.723,0.352,5.016,2.668,5.016,5.493v0.413c0,0.746,0.532,1.458,0.256,2.109
			C1056.328,126.113,1064.5,136.401,1064.5,148.438z"/>
		<path fill="#B3B3B3" stroke="#B3B3B3" stroke-miterlimit="10" d="M1128.5,148.438V443.5h-58V148.438
			c0-12.036,7.672-22.324,18.244-26.453c-0.276-0.651-0.244-1.363-0.244-2.109v-0.413c0-2.825,1.792-5.142,4.516-5.493
			c-0.138-0.223-0.516-0.484-0.516-0.76v-0.123c0-0.813,1.82-0.586,2.633-0.586h9.33c0.814,0,0.037-0.227,0.037,0.586v0.123
			c0,0.275,0.621,0.537,0.484,0.76c2.722,0.352,5.516,2.668,5.516,5.493v0.413c0,0.746,0.031,1.458-0.245,2.109
			C1120.827,126.113,1128.5,136.401,1128.5,148.438z"/>
		<path fill="#B3B3B3" stroke="#B3B3B3" stroke-miterlimit="10" d="M1192.5,148.438V443.5h-58V148.438
			c0-12.036,8.173-22.324,18.745-26.453c-0.276-0.651,0.255-1.363,0.255-2.109v-0.413c0-2.825,1.793-5.142,4.516-5.493
			c-0.137-0.223-0.516-0.484-0.516-0.76v-0.123c0-0.813,1.265-0.586,2.079-0.586h9.33c0.813,0,1.591-0.227,1.591,0.586v0.123
			c0,0.275,0.121,0.537-0.016,0.76c2.722,0.352,5.016,2.668,5.016,5.493v0.413c0,0.746-0.468,1.458-0.745,2.109
			C1185.327,126.113,1192.5,136.401,1192.5,148.438z"/>
		<path fill="#B3B3B3" stroke="#B3B3B3" stroke-miterlimit="10" d="M1257.5,148.438V443.5h-57V148.438
			c0-12.036,7.173-22.324,17.745-26.453c-0.275-0.651-0.745-1.363-0.745-2.109v-0.413c0-2.825,2.294-5.142,5.016-5.493
			c-0.138-0.223-0.016-0.484-0.016-0.76v-0.123c0-0.813,0.712-0.586,1.526-0.586h9.329c0.814,0,2.146-0.227,2.146,0.586v0.123
			c0,0.275-0.379,0.537-0.516,0.76c2.723,0.352,4.516,2.668,4.516,5.493v0.413c0,0.746,0.032,1.458-0.245,2.109
			C1249.828,126.113,1257.5,136.401,1257.5,148.438z"/>
		<rect x="1302.5" y="290.5" fill="#999999" stroke="#999999" stroke-miterlimit="10" width="7" height="47"/>
		<rect x="1198.5" y="290.5" fill="#999999" stroke="#999999" stroke-miterlimit="10" width="7" height="47"/>
		<rect x="1094.5" y="290.5" fill="#999999" stroke="#999999" stroke-miterlimit="10" width="8" height="47"/>
		<rect x="990.5" y="290.5" fill="#999999" stroke="#999999" stroke-miterlimit="10" width="7" height="47"/>
		<rect x="886.5" y="290.5" fill="#999999" stroke="#999999" stroke-miterlimit="10" width="8" height="47"/>
		<rect x="782.5" y="290.5" fill="#999999" stroke="#999999" stroke-miterlimit="10" width="9" height="47"/>
		<rect x="680.5" y="290.5" fill="#999999" stroke="#999999" stroke-miterlimit="10" width="7" height="47"/>
		<rect x="575.5" y="290.5" fill="#999999" stroke="#999999" stroke-miterlimit="10" width="8" height="47"/>
		<rect x="472.5" y="290.5" fill="#999999" stroke="#999999" stroke-miterlimit="10" width="9" height="47"/>
		<rect x="369.5" y="290.5" fill="#999999" stroke="#999999" stroke-miterlimit="10" width="7" height="47"/>
		<rect x="265.5" y="290.5" fill="#999999" stroke="#999999" stroke-miterlimit="10" width="9" height="47"/>
		<rect x="162.5" y="290.5" fill="#999999" stroke="#999999" stroke-miterlimit="10" width="8" height="47"/>
		<path fill="#999999" stroke="#999999" stroke-miterlimit="10" d="M1311.5,277.906c0,3.495-3.381,7.594-8.559,7.594h-51.707
			c-5.179,0-10.734-4.099-10.734-7.594v-0.383c0-3.497,5.556-5.023,10.734-5.023h51.707c5.178,0,8.559,1.526,8.559,5.023V277.906z"
			/>
		<rect x="1303.5" y="280.5" fill="#999999" stroke="#999999" stroke-miterlimit="10" width="5" height="14"/>
		<path fill="#FFFFFF" stroke="#808080" stroke-width="5" stroke-miterlimit="10" d="M921.5,265.5v-64.507
			c0,0,2.254-11.493,20.343-11.493c18.086,0,219.921,0,236.826,0c16.904,0,13.831,12.005,13.831,12.005V265.5H921.5z"/>
		<circle fill="#FFFFFF" stroke="#808080" stroke-width="5" stroke-miterlimit="10" cx="965.058" cy="227.652" r="25.892"/>
		<circle fill="#FFFFFF" stroke="#808080" stroke-width="5" stroke-miterlimit="10" cx="1027.969" cy="227.652" r="25.892"/>
		<circle fill="#FFFFFF" stroke="#808080" stroke-width="5" stroke-miterlimit="10" cx="1090.881" cy="227.652" r="25.892"/>
		<circle fill="#FFFFFF" stroke="#808080" stroke-width="5" stroke-miterlimit="10" cx="1153.793" cy="227.652" r="25.892"/>
		<line fill="none" stroke="#999999" stroke-miterlimit="10" x1="965.058" y1="227.652" x2="952.602" y2="240.107"/>
		
			<line fill="none" stroke="#999999" stroke-linecap="round" stroke-miterlimit="10" x1="965.058" y1="227.652" x2="977.283" y2="215.427"/>
		<polygon fill="#999999" stroke="#999999" stroke-miterlimit="10" points="956.054,239.289 951.199,241.487 953.396,236.633 		"/>
		<circle fill="none" stroke="#999999" stroke-miterlimit="10" cx="965.104" cy="227.605" r="21.338"/>
		<circle fill="#666666" stroke="#666666" stroke-miterlimit="10" cx="965.057" cy="227.652" r="1.374"/>
		<line fill="none" stroke="#999999" stroke-miterlimit="10" x1="1027.969" y1="227.652" x2="1015.515" y2="240.107"/>
		
			<line fill="none" stroke="#999999" stroke-linecap="round" stroke-miterlimit="10" x1="1027.969" y1="227.652" x2="1040.195" y2="215.427"/>
		<polygon fill="#999999" stroke="#999999" stroke-miterlimit="10" points="1018.966,239.289 1014.109,241.487 1016.308,236.633 		
			"/>
		<circle fill="none" stroke="#999999" stroke-miterlimit="10" cx="1028.016" cy="227.605" r="21.338"/>
		<circle fill="#666666" stroke="#666666" stroke-miterlimit="10" cx="1027.969" cy="227.652" r="1.373"/>
		<line fill="none" stroke="#999999" stroke-miterlimit="10" x1="1090.88" y1="227.652" x2="1078.426" y2="240.107"/>
		
			<line fill="none" stroke="#999999" stroke-linecap="round" stroke-miterlimit="10" x1="1090.88" y1="227.652" x2="1103.106" y2="215.427"/>
		<polygon fill="#999999" stroke="#999999" stroke-miterlimit="10" points="1081.877,239.289 1077.021,241.487 1079.219,236.633 		
			"/>
		<circle fill="none" stroke="#999999" stroke-miterlimit="10" cx="1090.927" cy="227.605" r="21.338"/>
		<circle fill="#666666" stroke="#666666" stroke-miterlimit="10" cx="1090.88" cy="227.652" r="1.374"/>
		<line fill="none" stroke="#999999" stroke-miterlimit="10" x1="1153.792" y1="227.652" x2="1141.337" y2="240.107"/>
		
			<line fill="none" stroke="#999999" stroke-linecap="round" stroke-miterlimit="10" x1="1153.792" y1="227.652" x2="1166.018" y2="215.427"/>
		<polygon fill="#999999" stroke="#999999" stroke-miterlimit="10" points="1144.789,239.289 1139.933,241.487 1142.131,236.633 		
			"/>
		<circle fill="none" stroke="#999999" stroke-miterlimit="10" cx="1153.838" cy="227.605" r="21.338"/>
		<circle fill="#666666" stroke="#666666" stroke-miterlimit="10" cx="1153.791" cy="227.652" r="1.373"/>
		<g>
			<path fill="#999999" stroke="#999999" stroke-miterlimit="10" d="M174.5,282.5h-30.329c-0.514,0-1.671-2.131-2.671-2.806V222.5
				h-12v57.194c0,0.26-0.628,0.489-1.004,0.866c-0.575,0.574-0.766,1.939-1.08,1.939H78.5v5h48.916c0.514,2,1.084,2.137,2.084,2.812
				V388.5h12v-98.188c1-0.675,2.157-0.812,2.671-2.812H174.5V282.5z"/>
			<polygon fill="#999999" stroke="#999999" stroke-miterlimit="10" points="252.5,265.056 252.5,290.5 822.5,290.5 822.5,266.001 
							"/>
		</g>
		<rect x="822.5" y="265.5" fill="#999999" stroke="#999999" stroke-miterlimit="10" width="384" height="25"/>
		<rect x="1223.5" y="309.5" fill="#999999" stroke="#999999" stroke-miterlimit="10" width="12" height="79"/>
		<path fill="#999999" stroke="#999999" stroke-miterlimit="10" d="M619.5,243.09v0.199c0,1.918-1,3.522-2,3.983V264.5h-5v-17.227
			c-2-0.3-1.241,0.227-1.756-2.773H497.397c-0.759,0-1.918,3-3.214,3h-2.5c-2.279,0-5.182-2.699-5.182-4.977v-0.2
			c0-1.918,1-3.521,3-3.982v-60.117c-2-0.301-0.995-1.723-1.509-1.723H367.5v-5h120.967c0.759-1,1.919-3,3.215-3h2.5
			c2.279,0,4.318,3.262,4.318,5.541v0.198c0,1.92-1,3.522-3,3.983v60.117c2,0.301,1.858,1.16,2.372,2.16h113.35
			c0.758-1,1.918-1,3.214-1h2.501C619.215,239.5,619.5,240.812,619.5,243.09z"/>
		<path fill="#999999" stroke="#999999" stroke-miterlimit="10" d="M163.5,191.5H96.912c-0.761,0-1.918-2-3.215-2h-2.502
			c-2.279,0-4.695,2.209-4.695,4.488v0.199c0,1.918,2,3.521,3,3.982v60.33h5v-60.33c1-0.301,2.373-0.67,2.887-2.67H163.5V191.5z"/>
		<rect x="25.5" y="700.5" fill="#333333" stroke="#333333" stroke-miterlimit="10" width="1398" height="25"/>
		<rect x="1223.5" y="251.5" fill="#999999" stroke="#999999" stroke-miterlimit="10" width="12" height="9"/>
		<rect x="1213.5" y="304.5" fill="#999999" stroke="#999999" stroke-miterlimit="10" width="32" height="5"/>
		<path fill="#808080" stroke="#808080" stroke-miterlimit="10" d="M1252.5,300.185c0,3.488-2.828,6.315-6.316,6.315h-33.367
			c-3.488,0-6.316-2.827-6.316-6.315v-33.369c0-3.488,2.828-6.315,6.316-6.315h33.367c3.488,0,6.316,2.827,6.316,6.315V300.185z"/>
		<circle fill="#C8C8C8" stroke="#C8C8C8" stroke-miterlimit="10" cx="1230.225" cy="281.934" r="16.053"/>
		<rect x="1215.5" y="133.5" fill="#999999" stroke="#999999" stroke-miterlimit="10" width="27" height="118"/>
		<rect x="1222.5" y="128.5" fill="#999999" stroke="#999999" stroke-miterlimit="10" width="14" height="5"/>
		<path fill="#999999" stroke="#999999" stroke-miterlimit="10" d="M299.5,274.262c0-5.084-5.426-9.762-12.23-9.762H165.082
			c-6.805,0-14.582,4.678-14.582,9.762v7.672c0,5.084,7.777,8.566,14.582,8.566H287.27c6.804,0,12.23-3.482,12.23-8.566V274.262z"/>
		<rect x="148.5" y="171.5" fill="#999999" stroke="#999999" stroke-miterlimit="10" width="227" height="5"/>
		<rect x="74.5" y="304.5" fill="#999999" stroke="#999999" stroke-miterlimit="10" width="33" height="5"/>
		<path fill="#808080" stroke="#808080" stroke-miterlimit="10" d="M115.5,300.185c0,3.488-2.827,6.315-6.315,6.315H75.815
			c-3.488,0-6.315-2.827-6.315-6.315v-33.369c0-3.488,2.827-6.315,6.315-6.315h33.369c3.488,0,6.315,2.827,6.315,6.315V300.185z"/>
		<circle fill="#C8C8C8" stroke="#C8C8C8" stroke-miterlimit="10" cx="92.446" cy="281.934" r="16.053"/>
		<rect x="85.5" y="309.5" fill="#999999" stroke="#999999" stroke-miterlimit="10" width="12" height="79"/>
		<rect x="74.5" y="387.5" fill="#808080" stroke="#808080" stroke-miterlimit="10" width="1302" height="312"/>
		<path fill="#999999" stroke="#999999" stroke-miterlimit="10" d="M1311.56,411.5c0-1.273-1.032-2-2.308-2H681.873
			c-1.273,0-2.306,0.727-2.306,2l0,0c0,1.272,1.033,2,2.306,2h627.379C1310.528,413.5,1311.56,412.772,1311.56,411.5L1311.56,411.5z
			"/>
		<g>
			<path fill="#999999" stroke="#999999" stroke-width="5" stroke-miterlimit="10" d="M733.5,444.538v72.209
				c0,4.212-1.532,8.753-5.744,8.753H637.9c-4.211,0-7.4-4.541-7.4-8.753v-72.209c0-4.212,3.188-8.038,7.4-8.038h33.221
				c-2.387,2-4.021,3.875-4.021,6.729c0.031,2.623,4.511,6.844,7.288,7.391c5.47,1.948,11.447,1.808,16.112,0.051
				c4.572-2.171,7.288-5.551,7.288-7.469c0-2.853-1.634-4.701-4.021-6.701h33.988C731.968,436.5,733.5,440.326,733.5,444.538z"/>
			<path fill="#808080" stroke="#808080" stroke-width="5" stroke-miterlimit="10" d="M726.5,511.09c0,3.54-2.87,6.41-6.41,6.41
				H644.91c-3.54,0-6.41-2.87-6.41-6.41v-60.18c0-3.54,2.87-6.41,6.41-6.41h75.181c3.54,0,6.41,2.87,6.41,6.41V511.09z"/>
			<rect x="677.5" y="452.5" fill="#999999" stroke="#999999" stroke-miterlimit="10" width="8" height="129"/>
			<rect x="647.5" y="460.5" fill="#C8C8C8" stroke="#C8C8C8" stroke-width="5" stroke-miterlimit="10" width="68" height="56"/>
			<rect x="680.5" y="460.5" fill="#808080" stroke="#808080" stroke-miterlimit="10" width="4" height="56"/>
			<rect x="711.5" y="460.5" fill="#808080" stroke="#808080" stroke-miterlimit="10" width="2" height="56"/>
			<rect x="648.5" y="460.5" fill="#808080" stroke="#808080" stroke-miterlimit="10" width="4" height="56"/>
			<path fill="#999999" stroke="#999999" stroke-width="5" stroke-miterlimit="10" d="M697.789,443.433
				c0,1.919-2.716,5.117-7.288,7.288c-4.665,1.756-10.643,1.95-16.112,0c-2.777-0.545-7.257-4.665-7.288-7.288
				c0-2.854,1.38-5.316,3.767-6.522c0.874-0.438,1.632-0.706,2.632-0.76v-5.378c0-4.665,4.028-8.438,8.692-8.438
				c2.332,0,4.377,0.942,5.903,2.469c1.527,1.528,2.405,3.638,2.405,5.97v5.378c1,0.054,2.201,0.322,3.077,0.76
				C695.963,438.116,697.789,440.579,697.789,443.433z"/>
			<rect x="661" y="529" fill="none" stroke="#999999" stroke-width="8" stroke-miterlimit="10" width="42" height="18"/>
			<path fill="#999999" stroke="#999999" stroke-miterlimit="10" d="M706.5,550.252v3.248h2v15h-8v11h4v4h-4v6h-3v-6h-2.29
				c-0.674,5-3.71,6.707-4.71,8.572V696.5h-17V592.072c-1-1.565-2.526-3.572-3.399-7.572H666.5v5h-2v-5h-65.842
				c-1.243,2-3.061,4-5.094,4h-2.532c-3.751,0-7.531-3.485-7.531-7.237v-0.23c0-2.693,1-5.018,4-6.115V444.5h9v130.417
				c0,0.538,2.073,1.583,2.74,2.583h65.26v-9h-11v-15h4v-3.248c-2-0.568-4-2.233-4-4.204v-8.056c0-2.44,3.298-4.492,5.737-4.492
				h0.384c2.439,0,4.879,2.052,4.879,4.492v8.056c0,1.971-2,3.636-4,4.204v3.248h4v9h2v15h3.607c1.742-6,6.614-8.975,12.337-8.975
				c6.552,0,11.977,3.975,12.897,10.975h2.158v-17h3v-9h3v-3.248c-1-0.568-3-2.233-3-4.204v-8.056c0-2.44,2.33-4.492,4.769-4.492
				h0.385c2.439,0,2.847,2.052,2.847,4.492v8.056C708.5,548.019,707.5,549.684,706.5,550.252z"/>
			<line fill="none" stroke="#999999" stroke-width="5" stroke-miterlimit="10" x1="681.5" y1="423" x2="681.5" y2="411"/>
		</g>
		<rect x="106.5" y="440.5" fill="#999999" stroke="#999999" stroke-miterlimit="10" width="1057" height="8"/>
		<g>
			<path fill="#999999" stroke="#999999" stroke-width="5" stroke-miterlimit="10" d="M895.5,444.538v72.209
				c0,4.212-3.185,8.753-7.396,8.753h-89.856c-4.212,0-8.748-4.541-8.748-8.753v-72.209c0-4.212,4.536-8.038,8.748-8.038h33.221
				c-2.387,2-4.021,3.875-4.021,6.729c0.031,2.623,4.511,6.844,7.289,7.391c5.469,1.948,11.446,1.808,16.111,0.051
				c4.572-2.171,7.288-5.551,7.288-7.469c0-2.853-1.634-4.701-4.02-6.701h33.987C892.315,436.5,895.5,440.326,895.5,444.538z"/>
			<path fill="#808080" stroke="#808080" stroke-width="5" stroke-miterlimit="10" d="M886.5,511.09c0,3.54-2.87,6.41-6.41,6.41
				H804.91c-3.54,0-6.41-2.87-6.41-6.41v-60.18c0-3.54,2.87-6.41,6.41-6.41h75.181c3.54,0,6.41,2.87,6.41,6.41V511.09z"/>
			<rect x="838.5" y="452.5" fill="#999999" stroke="#999999" stroke-miterlimit="10" width="9" height="129"/>
			<rect x="809.5" y="460.5" fill="#C8C8C8" stroke="#C8C8C8" stroke-width="5" stroke-miterlimit="10" width="67" height="56"/>
			<rect x="840.5" y="460.5" fill="#808080" stroke="#808080" stroke-miterlimit="10" width="3" height="56"/>
			<rect x="872.5" y="460.5" fill="#808080" stroke="#808080" stroke-miterlimit="10" width="2" height="56"/>
			<rect x="810.5" y="460.5" fill="#808080" stroke="#808080" stroke-miterlimit="10" width="3" height="56"/>
			<path fill="#999999" stroke="#999999" stroke-width="5" stroke-miterlimit="10" d="M858.137,443.433
				c0,1.919-2.716,5.117-7.288,7.288c-4.665,1.756-10.642,1.95-16.111,0c-2.778-0.545-7.258-4.665-7.289-7.288
				c0-2.854,1.707-5.316,4.094-6.522c0.874-0.438,0.958-0.706,2.958-0.76v-5.378c0-4.665,3.701-8.438,8.366-8.438
				c2.332,0,4.541,0.942,6.067,2.469c1.526,1.528,2.567,3.638,2.567,5.97v5.378c0,0.054,1.875,0.322,2.751,0.76
				C856.637,438.116,858.137,440.579,858.137,443.433z"/>
			<rect x="822" y="529" fill="none" stroke="#999999" stroke-width="8" stroke-miterlimit="10" width="40" height="18"/>
			<path fill="#999999" stroke="#999999" stroke-miterlimit="10" d="M867.5,550.252v3.248h3v15h-10v11h5v4h-5v6h-3v-6h-1.942
				c-0.674,5-3.058,6.707-6.058,8.572V696.5h-14V592.072c-3-1.565-4.179-3.572-5.052-7.572H826.5v5h-3v-5h-64.495
				c-1.243,2-3.061,4-5.094,4h-2.532c-3.752,0-6.879-3.485-6.879-7.237v-0.23c0-2.693,1-5.018,3-6.115V444.5h8v130.417
				c2,0.538,3.421,1.583,4.087,2.583H823.5v-9h-9v-15h3v-3.248c-2-0.568-3-2.233-3-4.204v-8.056c0-2.44,2.646-4.492,5.084-4.492
				h0.384c2.439,0,3.531,2.052,3.531,4.492v8.056c0,1.971-1,3.636-2,4.204v3.248h2v9h3v15h3.955c1.742-6,6.615-8.975,12.337-8.975
				c6.552,0,11.977,3.975,12.897,10.975h1.81v-17h3v-9h3v-3.248c-2-0.568-3-2.233-3-4.204v-8.056c0-2.44,2.677-4.492,5.116-4.492
				H866c2.439,0,4.5,2.052,4.5,4.492v8.056C870.5,548.019,869.5,549.684,867.5,550.252z"/>
			<line fill="none" stroke="#999999" stroke-width="5" stroke-miterlimit="10" x1="842.5" y1="423" x2="842.5" y2="411"/>
		</g>
		<rect x="106.5" y="651.5" fill="#999999" stroke="#999999" stroke-miterlimit="10" width="312" height="45"/>
		<rect x="106.5" y="557.5" fill="#999999" stroke="#999999" stroke-miterlimit="10" width="174" height="77"/>
		<rect x="106.5" y="638.5" fill="#999999" stroke="#999999" stroke-miterlimit="10" width="354" height="10"/>
		<rect x="418.5" y="579.5" fill="#999999" stroke="#999999" stroke-miterlimit="10" width="30" height="59"/>
		<path fill="#999999" stroke="#999999" stroke-miterlimit="10" d="M482.574,534.354c-0.329,0.3-0.728,0.483-1.143,0.554
			c-0.214,5.754-1.396,11.255-3.382,16.356c0.313,0.123,0.607,0.322,0.851,0.591c0.836,0.938,0.767,2.372-0.162,3.216
			c-0.713,0.643-1.72,0.759-2.531,0.359c-2.463,4.957-5.709,9.446-9.574,13.312c0.828,0.937,0.759,2.364-0.17,3.206
			c-0.928,0.838-2.354,0.776-3.2-0.137c-8.791,7.343-20.107,11.762-32.454,11.762c-27.98,0-50.681-22.68-50.681-50.66
			c0-13.134,5.01-25.109,13.22-34.11c-0.752-0.928-0.661-2.301,0.237-3.115c0.843-0.759,2.101-0.774,2.954-0.091
			c3.767-3.46,8.055-6.36,12.736-8.555c-0.545-0.914-0.4-2.117,0.422-2.861c0.936-0.844,2.377-0.767,3.222,0.162
			c0.253,0.282-0.063,0.62,0.014,0.965c4.734-1.733,9.567-2.77,14.567-3.007v-0.054c0-1.251,1.241-2.271,2.5-2.271
			s2.5,1.021,2.5,2.271v0.054c6,0.222,10.138,1.173,14.672,2.754c0.122-0.322,0.47-0.621,0.739-0.874
			c0.936-0.844,2.451-0.767,3.295,0.162c0.605,0.674,0.773,1.617,0.444,2.4c4.933,2.225,9.462,5.223,13.399,8.837
			c0.936-0.728,2.296-0.62,3.101,0.27c0.75,0.844,0.779,2.087,0.096,2.94c3.221,3.521,5.949,7.502,8.074,11.829
			c0.865-0.36,1.91-0.16,2.579,0.576c0.835,0.935,0.767,2.37-0.162,3.214c-0.185,0.162-0.383,0.292-0.597,0.383
			c1.872,4.897,3.015,10.15,3.275,15.638c0.492,0.076,0.96,0.313,1.32,0.713C483.572,532.076,483.503,533.511,482.574,534.354z"/>
		<circle fill="#999999" stroke="#999999" stroke-miterlimit="10" cx="1120.126" cy="485.102" r="2.277"/>
		<path fill="#666666" stroke="#666666" stroke-miterlimit="10" d="M471.45,529.836c0,11.631-5.954,21.873-14.983,27.851
			l-0.015,0.015l-115.159,79.184c-13.626,11.193-31.073,17.907-50.083,17.907c-43.616,0-78.978-35.361-78.978-78.979
			c0-43.615,35.362-78.977,78.978-78.977l146.867-0.375C456.504,496.463,471.45,511.399,471.45,529.836z"/>
		<path fill="#E6E6E6" stroke="#E6E6E6" stroke-width="5" stroke-miterlimit="10" d="M460.666,532.112
			c0,10.663-5.458,20.053-13.736,25.532l-0.015,0.014l-105.578,72.597c-12.492,10.263-28.486,16.417-45.915,16.417
			c-39.989,0-72.407-32.419-72.407-72.405c0-39.989,32.419-72.408,72.407-72.408l134.647-0.345
			C446.964,501.514,460.666,515.21,460.666,532.112z"/>
		<rect x="106.5" y="387.5" fill="#999999" stroke="#999999" stroke-miterlimit="10" width="8" height="61"/>
		<rect x="106.5" y="448.5" fill="#999999" stroke="#999999" stroke-miterlimit="10" width="8" height="109"/>
		<path fill="#999999" stroke="#999999" stroke-miterlimit="10" d="M121.601,443c0,4.236-3.634,7.5-8.115,7.5h-2.951
			c-4.483,0-8.115-3.264-8.115-7.5l0,0c0-4.236,3.633-7.5,8.115-7.5h2.951C117.967,435.5,121.601,438.764,121.601,443L121.601,443z"
			/>
		<path fill="#999999" stroke="#999999" stroke-width="5" stroke-miterlimit="10" d="M1055.5,444.538v72.209
			c0,4.212-2.848,8.753-7.06,8.753h-89.855c-4.212,0-8.085-4.541-8.085-8.753v-72.209c0-4.212,3.873-8.038,8.085-8.038h33.22
			c-2.386,2-4.02,3.875-4.02,6.729c0.031,2.623,4.511,6.844,7.288,7.391c5.47,1.948,11.447,1.808,16.111,0.051
			c4.573-2.171,7.289-5.551,7.289-7.469c0-2.853-1.633-4.701-4.021-6.701h33.988C1052.652,436.5,1055.5,440.326,1055.5,444.538z"/>
		<path fill="#808080" stroke="#808080" stroke-width="5" stroke-miterlimit="10" d="M1046.5,511.09c0,3.54-2.87,6.41-6.41,6.41
			h-75.18c-3.54,0-6.41-2.87-6.41-6.41v-60.18c0-3.54,2.87-6.41,6.41-6.41h75.18c3.54,0,6.41,2.87,6.41,6.41V511.09z"/>
		<rect x="997.5" y="452.5" fill="#999999" stroke="#999999" stroke-miterlimit="10" width="9" height="129"/>
		<rect x="968.5" y="460.5" fill="#C8C8C8" stroke="#C8C8C8" stroke-width="5" stroke-miterlimit="10" width="67" height="56"/>
		<rect x="1000.5" y="460.5" fill="#808080" stroke="#808080" stroke-miterlimit="10" width="5" height="56"/>
		<rect x="1031.5" y="460.5" fill="#808080" stroke="#808080" stroke-miterlimit="10" width="3" height="56"/>
		<rect x="970.5" y="460.5" fill="#808080" stroke="#808080" stroke-miterlimit="10" width="2" height="56"/>
		<path fill="#999999" stroke="#999999" stroke-width="5" stroke-miterlimit="10" d="M1018.473,443.433
			c0,1.919-2.716,5.117-7.289,7.288c-4.665,1.756-10.641,1.95-16.111,0c-2.777-0.545-7.258-4.665-7.288-7.288
			c0-2.854,1.54-5.316,3.925-6.522c0.874-0.438,1.79-0.706,2.79-0.76v-5.378c0-4.665,3.869-8.438,8.534-8.438
			c2.332,0,3.956,0.942,5.483,2.469c1.526,1.528,1.983,3.638,1.983,5.97v5.378c2,0.054,2.544,0.322,3.419,0.76
			C1016.305,438.116,1018.473,440.579,1018.473,443.433z"/>
		<rect x="983" y="529" fill="none" stroke="#999999" stroke-width="8" stroke-miterlimit="10" width="40" height="18"/>
		<path fill="#999999" stroke="#999999" stroke-miterlimit="10" d="M1027.5,550.252v3.248h3v15h-9v11h4v4h-4v6h-3v-6h-2.604
			c-0.676,5-3.396,6.707-5.396,8.572V696.5h-16V592.072c-2-1.565-2.84-3.572-3.716-7.572H987.5v5h-3v-5h-65.158
			c-1.244,2-3.062,4-5.094,4h-2.532c-3.751,0-8.216-3.485-8.216-7.237v-0.23c0-2.693,2-5.018,5-6.115V444.5h9v130.417
			c0,0.538,1.758,1.583,2.424,2.583H984.5v-9h-10v-15h5v-3.248c-4-0.568-5-2.233-5-4.204v-8.056c0-2.44,2.981-4.492,5.42-4.492
			h0.383c2.441,0,4.197,2.052,4.197,4.492v8.056c0,1.971-1,3.636-3,4.204v3.248h3v9h3v15h3.292c1.742-6,6.614-8.975,12.337-8.975
			c6.552,0,11.977,3.975,12.897,10.975h2.474v-17h3v-9h2v-3.248c-1-0.568-2-2.233-2-4.204v-8.056c0-2.44,2.014-4.492,4.453-4.492
			h0.385c2.439,0,4.162,2.052,4.162,4.492v8.056C1030.5,548.019,1028.5,549.684,1027.5,550.252z"/>
		<path fill="#999999" stroke="#999999" stroke-width="5" stroke-miterlimit="10" d="M1215.5,444.538v72.209
			c0,4.212-2.5,8.753-6.712,8.753h-89.855c-4.213,0-8.433-4.541-8.433-8.753v-72.209c0-4.212,4.22-8.038,8.433-8.038h33.22
			c-2.386,2-4.021,3.875-4.021,6.729c0.031,2.623,4.511,6.844,7.289,7.391c5.471,1.948,11.447,1.808,16.111,0.051
			c4.573-2.171,7.289-5.551,7.289-7.469c0-2.853-1.634-4.701-4.021-6.701h33.988C1213,436.5,1215.5,440.326,1215.5,444.538z"/>
		<path fill="#808080" stroke="#808080" stroke-width="5" stroke-miterlimit="10" d="M1207.5,511.09c0,3.54-2.87,6.41-6.41,6.41
			h-75.181c-3.54,0-6.41-2.87-6.41-6.41v-60.18c0-3.54,2.87-6.41,6.41-6.41h75.181c3.54,0,6.41,2.87,6.41,6.41V511.09z"/>
		<rect x="1158.5" y="452.5" fill="#999999" stroke="#999999" stroke-miterlimit="10" width="9" height="129"/>
		<rect x="1129.5" y="460.5" fill="#C8C8C8" stroke="#C8C8C8" stroke-width="5" stroke-miterlimit="10" width="68" height="56"/>
		<rect x="1162.5" y="460.5" fill="#808080" stroke="#808080" stroke-miterlimit="10" width="2" height="56"/>
		<rect x="1192.5" y="460.5" fill="#808080" stroke="#808080" stroke-miterlimit="10" width="3" height="56"/>
		<rect x="1130.5" y="460.5" fill="#808080" stroke="#808080" stroke-miterlimit="10" width="3" height="56"/>
		<path fill="#999999" stroke="#999999" stroke-width="5" stroke-miterlimit="10" d="M1178.821,443.433
			c0,1.919-2.716,5.117-7.289,7.288c-4.665,1.756-10.641,1.95-16.111,0c-2.777-0.545-7.258-4.665-7.289-7.288
			c0-2.854,1.366-5.316,3.751-6.522c0.875-0.438,2.616-0.706,2.616-0.76v-5.378c0-4.665,4.043-8.438,8.708-8.438
			c2.332,0,4.869,0.942,6.395,2.469c1.526,1.528,2.897,3.638,2.897,5.97v5.378c0,0.054,1.718,0.322,2.592,0.76
			C1177.479,438.116,1178.821,440.579,1178.821,443.433z"/>
		<rect x="1142" y="529" fill="none" stroke="#999999" stroke-width="8" stroke-miterlimit="10" width="41" height="18"/>
		<path fill="#999999" stroke="#999999" stroke-miterlimit="10" d="M1188.5,550.252v3.248h3v15h-11v11h7v4h-7v6h-3v-6h-1.257
			c-0.676,5-2.743,6.707-5.743,8.572V696.5h-15V592.072c-2-1.565-3.493-3.572-4.369-7.572h-4.631v5h-2v-5h-64.811
			c-1.243,2-3.063,4-5.094,4h-2.533c-3.751,0-6.563-3.485-6.563-7.237v-0.23c0-2.693,1-5.018,3-6.115V444.5h9v130.417
			c1,0.538,2.105,1.583,2.772,2.583h64.228v-9h-10v-15h4v-3.248c-1-0.568-4-2.233-4-4.204v-8.056c0-2.44,3.329-4.492,5.769-4.492
			h0.383c2.44,0,3.848,2.052,3.848,4.492v8.056c0,1.971-2,3.636-3,4.204v3.248h3v9h2v15h4.64c1.742-6,6.614-8.975,12.336-8.975
			c6.553,0,11.977,3.975,12.897,10.975h1.126v-17h3v-9h3v-3.248c-2-0.568-3-2.233-3-4.204v-8.056c0-2.44,3.362-4.492,5.802-4.492
			h0.383c2.439,0,4.815,2.052,4.815,4.492v8.056C1191.5,548.019,1189.5,549.684,1188.5,550.252z"/>
		<line fill="none" stroke="#999999" stroke-width="5" stroke-miterlimit="10" x1="1002.5" y1="423" x2="1002.5" y2="411"/>
		<line fill="none" stroke="#999999" stroke-width="5" stroke-miterlimit="10" x1="1163.5" y1="423" x2="1163.5" y2="413"/>
		<path fill="#999999" stroke="#999999" stroke-miterlimit="10" d="M1309.5,562.617c0,2.393-1.018,4.336-2.5,4.336l0,0
			c-1.482,0-2.5-1.942-2.5-4.336V414.395c0-2.393,1.018-4.337,2.5-4.337l0,0c1.482,0,2.5,1.943,2.5,4.337V562.617z"/>
		<rect x="1332.5" y="430.5" fill="#999999" stroke="#999999" stroke-miterlimit="10" width="8" height="6"/>
		<rect x="1312.5" y="418.5" fill="#999999" stroke="#999999" stroke-miterlimit="10" width="4" height="27"/>
		<rect x="1312.5" y="418.5" fill="#999999" stroke="#999999" stroke-miterlimit="10" width="25" height="3"/>
		<rect x="1334.5" y="418.5" fill="#999999" stroke="#999999" stroke-miterlimit="10" width="3" height="14"/>
		<path fill="#999999" stroke="#999999" stroke-miterlimit="10" d="M1350.5,557.363v19.948c0,5.088-3.176,9.188-8.263,9.188h-1.737
			v110h-8V586.518c-7,0-10-4.118-10-9.206v-19.948c0-3.721,2-6.919,5-8.378V436.5h18v112.188
			C1349.5,549.945,1350.5,553.351,1350.5,557.363z"/>
		<path fill="#999999" stroke="#999999" stroke-miterlimit="10" d="M1344.584,562.5c0.61,0,1.106,1.017,1.106,2.5l0,0
			c0,1.483-0.496,2.5-1.106,2.5h-37.781c-0.609,0-1.104-1.017-1.104-2.5l0,0c0-1.483,0.495-2.5,1.104-2.5H1344.584z"/>
		<path fill="#999999" stroke="#999999" stroke-miterlimit="10" d="M1314.5,564.141c0,2.408-1.952,4.359-4.359,4.359h-3.282
			c-2.407,0-4.359-1.952-4.359-4.359v-0.281c0-2.408,1.952-4.359,4.359-4.359h3.282c2.407,0,4.359,1.952,4.359,4.359V564.141z"/>
		<rect x="984.5" y="696.5" fill="#333333" stroke="#333333" stroke-miterlimit="10" width="37" height="3"/>
		<rect x="823.5" y="696.5" fill="#333333" stroke="#333333" stroke-miterlimit="10" width="37" height="3"/>
		<rect x="664.5" y="696.5" fill="#333333" stroke="#333333" stroke-miterlimit="10" width="35" height="3"/>
		<rect x="1145.5" y="696.5" fill="#333333" stroke="#333333" stroke-miterlimit="10" width="35" height="3"/>
		<rect x="1318.5" y="696.5" fill="#333333" stroke="#333333" stroke-miterlimit="10" width="37" height="3"/>
		<rect x="98.5" y="696.5" fill="#333333" stroke="#333333" stroke-miterlimit="10" width="329" height="3"/>
		<rect x="1162.5" y="445.5" fill="#999999" stroke="#999999" stroke-miterlimit="10" width="154" height="5"/>
		<g>
			<path fill="#808080" stroke="#808080" stroke-miterlimit="10" d="M121.5,173.381c0,7.654,0,21.936,0,28.43
				c0,5.877,4.368,4.689,6.613,4.689c6.138,0,65.886,0,65.886,0c1.802-1,2.135-2.279,2.14-3.166c0-5.059-2.591-5.683-2.591-5.683
				l-65.435-26.214c0,0-3.471-1.545-4.94-1.762C121.99,169.676,121.5,171.061,121.5,173.381z"/>
			<path fill="#E6E6E6" stroke="#999999" stroke-width="0.25" stroke-miterlimit="10" d="M135.561,179.619
				c0,0,2.953-0.015,4.98-0.015c2.027,0,2.158,2.596,3.043,4.445c0.936,1.755,2.762,1.302,4.992,0
				c1.856-1.296,10.338-7.838,10.338-7.838s1.686-1.56,0.008-4.055c-8.696-10.216-23.361-10.139-23.361-10.139
				s-14.714-0.077-23.411,10.139c-1.677,2.495,0.014,4.055,0.014,4.055s8.484,6.542,10.34,7.838c2.23,1.302,4.06,1.755,4.994,0
				c0.883-1.85,1.019-4.445,3.046-4.445C132.569,179.605,135.561,179.619,135.561,179.619z"/>
			<rect x="132.5" y="204.5" fill="#808080" stroke="#808080" stroke-miterlimit="10" width="5" height="18"/>
			<circle fill="#999999" stroke="#999999" stroke-width="0.25" stroke-miterlimit="10" cx="135.537" cy="193.583" r="10.622"/>
			<rect x="158.5" y="193.5" fill="#999999" stroke="#999999" stroke-miterlimit="10" width="34" height="17"/>
			<rect x="167.5" y="195.5" fill="#C8C8C8" stroke="#C8C8C8" stroke-miterlimit="10" width="17" height="2"/>
			<rect x="167.5" y="206.5" fill="#C8C8C8" stroke="#C8C8C8" stroke-miterlimit="10" width="17" height="3"/>
			<rect x="163.5" y="192.5" fill="#C8C8C8" stroke="#999999" stroke-miterlimit="10" width="4" height="21"/>
			<rect x="184.5" y="192.5" fill="#C8C8C8" stroke="#999999" stroke-miterlimit="10" width="5" height="21"/>
			<rect x="162.5" y="195.566" fill="#C8C8C8" stroke="#C8C8C8" stroke-miterlimit="10" width="0" height="2.93"/>
			<rect x="191.5" y="195.566" fill="#C8C8C8" stroke="#C8C8C8" stroke-miterlimit="10" width="0" height="2.93"/>
			<path fill="#999999" stroke="#999999" stroke-miterlimit="10" d="M200.03,202.297c0,2.521-2.042,4.443-4.563,4.443
				c-0.353,0-0.695-0.24-1.024-0.24H192.5v-9h1.942c0.33,0,0.671,0.061,1.024,0.061C197.987,197.561,200.03,199.779,200.03,202.297z
				"/>
			<path fill="#C8C8C8" stroke="#C8C8C8" stroke-miterlimit="10" d="M157.5,200.5v4h-23.921c-2.405,0-4.422,0.231-5.029,0.449
				c-0.12,0.043-0.186,0.126-0.186,0.17c-0.501,0.341-1.104,0.555-1.754,0.555c-1.736,0-3.144-1.404-3.144-3.15
				c0-1.744,1.407-3.153,3.144-3.153c0.65,0,1.253,0.2,1.754,0.536c0,0.048,0.063,0.134,0.186,0.174
				c0.607,0.221,2.645,0.42,5.066,0.42H157.5z"/>
			<polygon fill="#333333" stroke="#333333" stroke-width="0.25" stroke-miterlimit="10" points="131.045,203.486 165.173,169.094 
				159.969,163.849 125.842,198.241 122.772,206.58 			"/>
			<path fill="#C1272D" stroke="#C1272D" stroke-miterlimit="10" d="M186.976,142.182c2.148,2.146,2.346,5.429,0.444,7.332
				l-20.963,20.963l-7.776-7.775l20.962-20.963C181.545,139.834,184.829,140.033,186.976,142.182z"/>
			<circle fill="#C8C8C8" stroke="#C8C8C8" stroke-width="0.25" stroke-miterlimit="10" cx="135.538" cy="193.583" r="2.317"/>
			<circle fill="#C8C8C8" stroke="#C8C8C8" stroke-width="0.25" stroke-miterlimit="10" cx="124.87" cy="181.769" r="2.339"/>
			<path fill="#C8C8C8" stroke="#C8C8C8" stroke-width="0.25" stroke-miterlimit="10" d="M198.275,202.297
				c0,1.262-1.021,2.283-2.282,2.283c-1.26,0-2.281-1.021-2.281-2.283c0-1.258,1.021-2.279,2.281-2.279
				C197.253,200.018,198.275,201.039,198.275,202.297z"/>
			<circle fill="#C8C8C8" stroke="#C8C8C8" stroke-width="0.25" stroke-miterlimit="10" cx="126.683" cy="202.532" r="1.871"/>
			<rect x="162.5" y="205.818" fill="#C8C8C8" stroke="#C8C8C8" stroke-miterlimit="10" width="0" height="2.93"/>
			<rect x="191.5" y="205.818" fill="#C8C8C8" stroke="#C8C8C8" stroke-miterlimit="10" width="0" height="2.93"/>
		</g>
		<g>
			<path fill="#808080" stroke="#808080" stroke-miterlimit="10" d="M1291.5,339.866c0,7.652,0,21.936,0,28.428
				c0,5.879,4.371,4.206,6.613,4.206c6.139,0,65.887,0,65.887,0c1.802,0,2.135-2.037,2.14-2.922c0-5.057-2.591-5.563-2.591-5.563
				l-65.436-26.153c0,0-3.471-1.515-4.94-1.73C1291.991,336.132,1291.5,337.545,1291.5,339.866z"/>
			<path fill="#E6E6E6" stroke="#999999" stroke-width="0.25" stroke-miterlimit="10" d="M1305.563,346.105
				c0,0,2.952-0.014,4.98-0.014c2.027,0,2.159,2.596,3.042,4.445c0.938,1.755,2.764,1.299,4.994,0
				c1.856-1.298,10.336-7.838,10.336-7.838s1.686-1.56,0.009-4.057c-8.696-10.216-23.361-10.137-23.361-10.137
				s-14.715-0.079-23.41,10.137c-1.678,2.496,0.013,4.057,0.013,4.057s8.484,6.54,10.34,7.838c2.231,1.299,4.059,1.755,4.994,0
				c0.883-1.85,1.017-4.445,3.045-4.445C1302.572,346.091,1305.563,346.105,1305.563,346.105z"/>
			<rect x="1302.5" y="371.5" fill="#808080" stroke="#808080" stroke-miterlimit="10" width="6" height="17"/>
			<circle fill="#999999" stroke="#999999" stroke-width="0.25" stroke-miterlimit="10" cx="1305.538" cy="360.068" r="10.623"/>
			<rect x="1327.5" y="361.5" fill="#999999" stroke="#999999" stroke-miterlimit="10" width="33" height="14"/>
			<rect x="1337.5" y="362.5" fill="#C8C8C8" stroke="#C8C8C8" stroke-miterlimit="10" width="18" height="1"/>
			<rect x="1337.5" y="372.5" fill="#C8C8C8" stroke="#C8C8C8" stroke-miterlimit="10" width="18" height="2"/>
			<rect x="1334.5" y="358.5" fill="#C8C8C8" stroke="#999999" stroke-miterlimit="10" width="3" height="22"/>
			<rect x="1355.5" y="358.5" fill="#C8C8C8" stroke="#999999" stroke-miterlimit="10" width="4" height="22"/>
			<rect x="1333.5" y="361.061" fill="#C8C8C8" stroke="#C8C8C8" stroke-miterlimit="10" width="0" height="4.394"/>
			<rect x="1359.5" y="361.5" fill="#C8C8C8" stroke="#C8C8C8" stroke-miterlimit="10" width="1" height="4"/>
			<path fill="#999999" stroke="#999999" stroke-miterlimit="10" d="M1370.03,368.784c0,2.52-2.042,4.198-4.562,4.198
				c-0.354,0-0.696-0.482-1.025-0.482h-3.943v-9h3.943c0.33,0,0.671,0.302,1.025,0.302
				C1367.988,363.802,1370.03,366.265,1370.03,368.784z"/>
			<path fill="#C8C8C8" stroke="#C8C8C8" stroke-miterlimit="10" d="M1327.5,367.5v4h-23.92c-2.403,0-4.422-0.026-5.029,0.19
				c-0.122,0.045-0.186-0.002-0.186,0.045c-0.5,0.341-1.104,0.488-1.754,0.488c-1.737,0-3.144-1.435-3.144-3.18
				c0-1.746,1.407-3.172,3.144-3.172c0.65,0,1.254,0.191,1.754,0.53c0,0.046,0.063,0.385,0.184,0.427
				c0.608,0.222,2.646,0.672,5.068,0.672H1327.5z"/>
			<polygon fill="#333333" stroke="#333333" stroke-width="0.25" stroke-miterlimit="10" points="1301.047,369.973 1335.174,335.58 
				1329.972,330.334 1295.843,364.728 1292.773,373.065 			"/>
			<path fill="#C1272D" stroke="#C1272D" stroke-width="0.25" stroke-miterlimit="10" d="M1356.977,308.666
				c2.147,2.147,2.346,5.429,0.443,7.332l-20.963,20.965l-7.776-7.775l20.962-20.965
				C1351.548,306.32,1354.83,306.52,1356.977,308.666z"/>
			<circle fill="#C8C8C8" stroke="#C8C8C8" stroke-width="0.25" stroke-miterlimit="10" cx="1305.539" cy="360.068" r="2.317"/>
			<circle fill="#C8C8C8" stroke="#C8C8C8" stroke-width="0.25" stroke-miterlimit="10" cx="1294.871" cy="348.254" r="2.339"/>
			<circle fill="#C8C8C8" stroke="#C8C8C8" stroke-width="0.25" stroke-miterlimit="10" cx="1365.995" cy="368.784" r="2.281"/>
			<circle fill="#C8C8C8" stroke="#C8C8C8" stroke-width="0.25" stroke-miterlimit="10" cx="1296.684" cy="369.018" r="1.871"/>
			<rect x="1333.5" y="372.776" fill="#C8C8C8" stroke="#C8C8C8" stroke-miterlimit="10" width="0" height="2.929"/>
			<rect x="1359.5" y="372.5" fill="#C8C8C8" stroke="#C8C8C8" stroke-miterlimit="10" width="1" height="3"/>
			<rect x="1287.5" y="383.5" fill="#333333" stroke="#333333" stroke-miterlimit="10" width="35" height="2"/>
		</g>
		<g>
			<path fill="#808080" stroke="#808080" stroke-miterlimit="10" d="M1188.5,339.866c0,7.652,0,21.936,0,28.428
				c0,5.879,3.797,4.206,6.039,4.206c6.138,0,65.887,0,65.887,0c1.802,0,2.136-2.037,2.14-2.922c0-5.057-2.592-5.563-2.592-5.563
				l-65.435-26.153c0,0-3.185-1.515-4.653-1.73C1188.703,336.132,1188.5,337.545,1188.5,339.866z"/>
			<path fill="#E6E6E6" stroke="#999999" stroke-width="0.25" stroke-miterlimit="10" d="M1201.989,346.105
				c0,0,2.952-0.014,4.979-0.014s2.16,2.596,3.043,4.445c0.937,1.755,2.763,1.299,4.994,0c1.854-1.298,10.336-7.838,10.336-7.838
				s1.685-1.56,0.009-4.057c-8.695-10.216-23.361-10.137-23.361-10.137s-14.715-0.079-23.411,10.137
				c-1.677,2.496,0.014,4.057,0.014,4.057s8.483,6.54,10.339,7.838c2.231,1.299,4.06,1.755,4.994,0
				c0.885-1.85,1.018-4.445,3.045-4.445C1198.998,346.091,1201.989,346.105,1201.989,346.105z"/>
			<rect x="1198.5" y="371.5" fill="#808080" stroke="#808080" stroke-miterlimit="10" width="6" height="17"/>
			<circle fill="#999999" stroke="#999999" stroke-width="0.25" stroke-miterlimit="10" cx="1201.965" cy="360.068" r="10.623"/>
			<rect x="1224.5" y="361.5" fill="#999999" stroke="#999999" stroke-miterlimit="10" width="34" height="14"/>
			<rect x="1235.5" y="362.5" fill="#C8C8C8" stroke="#C8C8C8" stroke-miterlimit="10" width="17" height="1"/>
			<rect x="1235.5" y="372.5" fill="#C8C8C8" stroke="#C8C8C8" stroke-miterlimit="10" width="17" height="2"/>
			<rect x="1230.5" y="358.5" fill="#C8C8C8" stroke="#999999" stroke-miterlimit="10" width="5" height="22"/>
			<rect x="1252.5" y="358.5" fill="#C8C8C8" stroke="#999999" stroke-miterlimit="10" width="3" height="22"/>
			<rect x="1228.5" y="361.061" fill="#C8C8C8" stroke="#C8C8C8" stroke-miterlimit="10" width="0" height="4.394"/>
			<rect x="1257.5" y="361.061" fill="#C8C8C8" stroke="#C8C8C8" stroke-miterlimit="10" width="0" height="4.394"/>
			<path fill="#999999" stroke="#999999" stroke-miterlimit="10" d="M1266.457,368.784c0,2.52-2.042,4.198-4.562,4.198
				c-0.354,0-0.695-0.482-1.025-0.482h-2.37v-9h2.37c0.33,0,0.671,0.302,1.025,0.302
				C1264.415,363.802,1266.457,366.265,1266.457,368.784z"/>
			<path fill="#C8C8C8" stroke="#C8C8C8" stroke-miterlimit="10" d="M1223.5,367.5v4h-23.494c-2.403,0-4.423-0.026-5.028,0.19
				c-0.122,0.045-0.186-0.002-0.186,0.045c-0.501,0.341-1.105,0.488-1.754,0.488c-1.738,0-3.145-1.435-3.145-3.18
				c0-1.746,1.407-3.172,3.145-3.172c0.649,0,1.253,0.191,1.754,0.53c0,0.046,0.063,0.385,0.185,0.427
				c0.607,0.222,2.645,0.672,5.067,0.672H1223.5z"/>
			<polygon fill="#333333" stroke="#333333" stroke-width="0.25" stroke-miterlimit="10" points="1197.474,369.973 1231.602,335.58 
				1226.397,330.334 1192.269,364.728 1189.2,373.065 			"/>
			<path fill="#C1272D" stroke="#C1272D" stroke-width="0.25" stroke-miterlimit="10" d="M1253.404,308.666
				c2.147,2.147,2.345,5.429,0.443,7.332l-20.963,20.965l-7.776-7.775l20.963-20.965
				C1247.974,306.32,1251.256,306.52,1253.404,308.666z"/>
			<circle fill="#C8C8C8" stroke="#C8C8C8" stroke-width="0.25" stroke-miterlimit="10" cx="1201.965" cy="360.068" r="2.316"/>
			<circle fill="#C8C8C8" stroke="#C8C8C8" stroke-width="0.25" stroke-miterlimit="10" cx="1191.297" cy="348.254" r="2.34"/>
			<circle fill="#C8C8C8" stroke="#C8C8C8" stroke-width="0.25" stroke-miterlimit="10" cx="1262.421" cy="368.784" r="2.281"/>
			<circle fill="#C8C8C8" stroke="#C8C8C8" stroke-width="0.25" stroke-miterlimit="10" cx="1193.111" cy="369.018" r="1.872"/>
			<rect x="1228.5" y="372.776" fill="#C8C8C8" stroke="#C8C8C8" stroke-miterlimit="10" width="0" height="2.929"/>
			<rect x="1257.5" y="372.776" fill="#C8C8C8" stroke="#C8C8C8" stroke-miterlimit="10" width="0" height="2.929"/>
			<rect x="1183.5" y="383.5" fill="#333333" stroke="#333333" stroke-miterlimit="10" width="36" height="2"/>
		</g>
		<g>
			<path fill="#808080" stroke="#808080" stroke-miterlimit="10" d="M1083.5,339.866c0,7.652,0,21.936,0,28.428
				c0,5.879,5.222,4.206,7.465,4.206c6.139,0,65.888,0,65.888,0c1.802,0,2.135-2.037,2.14-2.922c0-5.057-2.592-5.563-2.592-5.563
				l-65.436-26.153c0,0-3.897-1.515-5.366-1.73C1084.417,336.132,1083.5,337.545,1083.5,339.866z"/>
			<path fill="#E6E6E6" stroke="#999999" stroke-width="0.25" stroke-miterlimit="10" d="M1098.415,346.105
				c0,0,2.952-0.014,4.979-0.014s2.159,2.596,3.042,4.445c0.937,1.755,2.764,1.299,4.994,0c1.855-1.298,10.336-7.838,10.336-7.838
				s1.686-1.56,0.01-4.057c-8.696-10.216-23.361-10.137-23.361-10.137s-14.715-0.079-23.41,10.137
				c-1.678,2.496,0.014,4.057,0.014,4.057s8.482,6.54,10.339,7.838c2.231,1.299,4.06,1.755,4.994,0
				c0.884-1.85,1.017-4.445,3.044-4.445C1095.424,346.091,1098.415,346.105,1098.415,346.105z"/>
			<rect x="1095.5" y="371.5" fill="#808080" stroke="#808080" stroke-miterlimit="10" width="5" height="17"/>
			<circle fill="#999999" stroke="#999999" stroke-width="0.25" stroke-miterlimit="10" cx="1098.391" cy="360.068" r="10.623"/>
			<rect x="1120.5" y="361.5" fill="#999999" stroke="#999999" stroke-miterlimit="10" width="34" height="14"/>
			<rect x="1130.5" y="362.5" fill="#C8C8C8" stroke="#C8C8C8" stroke-miterlimit="10" width="19" height="1"/>
			<rect x="1130.5" y="372.5" fill="#C8C8C8" stroke="#C8C8C8" stroke-miterlimit="10" width="19" height="2"/>
			<rect x="1126.5" y="358.5" fill="#C8C8C8" stroke="#999999" stroke-miterlimit="10" width="4" height="22"/>
			<rect x="1149.5" y="358.5" fill="#C8C8C8" stroke="#999999" stroke-miterlimit="10" width="2" height="22"/>
			<rect x="1125.5" y="361.5" fill="#C8C8C8" stroke="#C8C8C8" stroke-miterlimit="10" width="1" height="4"/>
			<rect x="1153.5" y="361.5" fill="#C8C8C8" stroke="#C8C8C8" stroke-miterlimit="10" width="1" height="4"/>
			<path fill="#999999" stroke="#999999" stroke-miterlimit="10" d="M1162.882,368.784c0,2.52-2.042,4.198-4.562,4.198
				c-0.354,0-0.695-0.482-1.024-0.482h-2.796v-9h2.796c0.33,0,0.671,0.302,1.024,0.302
				C1160.84,363.802,1162.882,366.265,1162.882,368.784z"/>
			<path fill="#C8C8C8" stroke="#C8C8C8" stroke-miterlimit="10" d="M1119.5,367.5v4h-23.067c-2.404,0-4.423-0.026-5.029,0.19
				c-0.121,0.045-0.185-0.002-0.185,0.045c-0.5,0.341-1.105,0.488-1.754,0.488c-1.738,0-3.144-1.435-3.144-3.18
				c0-1.746,1.406-3.172,3.144-3.172c0.649,0,1.254,0.191,1.754,0.53c0,0.046,0.063,0.385,0.184,0.427
				c0.608,0.222,2.646,0.672,5.068,0.672H1119.5z"/>
			<polygon fill="#333333" stroke="#333333" stroke-width="0.25" stroke-miterlimit="10" points="1093.899,369.973 1128.028,335.58 
				1122.823,330.334 1088.695,364.728 1085.625,373.065 			"/>
			<path fill="#C1272D" stroke="#C1272D" stroke-width="0.25" stroke-miterlimit="10" d="M1149.829,308.666
				c2.147,2.147,2.347,5.429,0.443,7.332l-20.963,20.965l-7.776-7.775l20.962-20.965
				C1144.399,306.32,1147.682,306.52,1149.829,308.666z"/>
			<circle fill="#C8C8C8" stroke="#C8C8C8" stroke-width="0.25" stroke-miterlimit="10" cx="1098.391" cy="360.068" r="2.317"/>
			<circle fill="#C8C8C8" stroke="#C8C8C8" stroke-width="0.25" stroke-miterlimit="10" cx="1087.723" cy="348.254" r="2.339"/>
			<circle fill="#C8C8C8" stroke="#C8C8C8" stroke-width="0.25" stroke-miterlimit="10" cx="1158.847" cy="368.784" r="2.282"/>
			<circle fill="#C8C8C8" stroke="#C8C8C8" stroke-width="0.25" stroke-miterlimit="10" cx="1089.537" cy="369.018" r="1.872"/>
			<rect x="1125.5" y="372.5" fill="#C8C8C8" stroke="#C8C8C8" stroke-miterlimit="10" width="1" height="3"/>
			<rect x="1153.5" y="372.5" fill="#C8C8C8" stroke="#C8C8C8" stroke-miterlimit="10" width="1" height="3"/>
			<rect x="1079.5" y="383.5" fill="#333333" stroke="#333333" stroke-miterlimit="10" width="37" height="2"/>
		</g>
		<g>
			<path fill="#808080" stroke="#808080" stroke-miterlimit="10" d="M981.5,339.866c0,7.652,0,21.936,0,28.428
				c0,5.879,3.648,4.206,5.892,4.206c6.138,0,65.886,0,65.886,0c1.802,0,2.136-2.037,2.141-2.922c0-5.057-2.592-5.563-2.592-5.563
				l-65.435-26.153c0,0-3.11-1.515-4.579-1.73C981.629,336.132,981.5,337.545,981.5,339.866z"/>
			<path fill="#E6E6E6" stroke="#999999" stroke-width="0.25" stroke-miterlimit="10" d="M994.84,346.105
				c0,0,2.954-0.014,4.98-0.014c2.028,0,2.16,2.596,3.043,4.445c0.937,1.755,2.763,1.299,4.993,0
				c1.855-1.298,10.337-7.838,10.337-7.838s1.685-1.56,0.008-4.057c-8.694-10.216-23.362-10.137-23.362-10.137
				s-14.714-0.079-23.41,10.137c-1.677,2.496,0.013,4.057,0.013,4.057s8.485,6.54,10.341,7.838c2.231,1.299,4.059,1.755,4.993,0
				c0.884-1.85,1.019-4.445,3.046-4.445C991.85,346.091,994.84,346.105,994.84,346.105z"/>
			<rect x="992.5" y="371.5" fill="#808080" stroke="#808080" stroke-miterlimit="10" width="5" height="17"/>
			<circle fill="#999999" stroke="#999999" stroke-width="0.25" stroke-miterlimit="10" cx="994.816" cy="360.068" r="10.623"/>
			<rect x="1017.5" y="361.5" fill="#999999" stroke="#999999" stroke-miterlimit="10" width="34" height="14"/>
			<rect x="1027.5" y="362.5" fill="#C8C8C8" stroke="#C8C8C8" stroke-miterlimit="10" width="17" height="1"/>
			<rect x="1027.5" y="372.5" fill="#C8C8C8" stroke="#C8C8C8" stroke-miterlimit="10" width="17" height="2"/>
			<rect x="1022.5" y="358.5" fill="#C8C8C8" stroke="#999999" stroke-miterlimit="10" width="5" height="22"/>
			<rect x="1044.5" y="358.5" fill="#C8C8C8" stroke="#999999" stroke-miterlimit="10" width="4" height="22"/>
			<rect x="1021.5" y="361.5" fill="#C8C8C8" stroke="#C8C8C8" stroke-miterlimit="10" width="1" height="4"/>
			<rect x="1048.5" y="361.5" fill="#C8C8C8" stroke="#C8C8C8" stroke-miterlimit="10" width="3" height="4"/>
			<path fill="#999999" stroke="#999999" stroke-miterlimit="10" d="M1059.309,368.784c0,2.52-2.042,4.198-4.562,4.198
				c-0.354,0-0.696-0.482-1.025-0.482h-2.222v-9h2.222c0.329,0,0.671,0.302,1.025,0.302
				C1057.267,363.802,1059.309,366.265,1059.309,368.784z"/>
			<path fill="#C8C8C8" stroke="#C8C8C8" stroke-miterlimit="10" d="M1017.5,367.5v4h-24.642c-2.404,0-4.422-0.026-5.028,0.19
				c-0.121,0.045-0.187-0.002-0.187,0.045c-0.5,0.341-1.104,0.488-1.754,0.488c-1.736,0-3.144-1.435-3.144-3.18
				c0-1.746,1.408-3.172,3.144-3.172c0.65,0,1.254,0.191,1.754,0.53c0,0.046,0.064,0.385,0.186,0.427
				c0.606,0.222,2.644,0.672,5.066,0.672H1017.5z"/>
			<polygon fill="#333333" stroke="#333333" stroke-width="0.25" stroke-miterlimit="10" points="990.326,369.973 1024.454,335.58 
				1019.25,330.334 985.122,364.728 982.052,373.065 			"/>
			<path fill="#C1272D" stroke="#C1272D" stroke-width="0.25" stroke-miterlimit="10" d="M1046.256,308.666
				c2.147,2.147,2.345,5.429,0.442,7.332l-20.962,20.965l-7.776-7.775l20.963-20.965
				C1040.826,306.32,1044.108,306.52,1046.256,308.666z"/>
			<circle fill="#C8C8C8" stroke="#C8C8C8" stroke-width="0.25" stroke-miterlimit="10" cx="994.817" cy="360.068" r="2.317"/>
			<circle fill="#C8C8C8" stroke="#C8C8C8" stroke-width="0.25" stroke-miterlimit="10" cx="984.149" cy="348.254" r="2.34"/>
			<circle fill="#C8C8C8" stroke="#C8C8C8" stroke-width="0.25" stroke-miterlimit="10" cx="1055.273" cy="368.784" r="2.281"/>
			<circle fill="#C8C8C8" stroke="#C8C8C8" stroke-width="0.25" stroke-miterlimit="10" cx="985.962" cy="369.018" r="1.872"/>
			<rect x="1021.5" y="372.5" fill="#C8C8C8" stroke="#C8C8C8" stroke-miterlimit="10" width="1" height="3"/>
			<rect x="1048.5" y="372.5" fill="#C8C8C8" stroke="#C8C8C8" stroke-miterlimit="10" width="3" height="3"/>
			<rect x="975.5" y="383.5" fill="#333333" stroke="#333333" stroke-miterlimit="10" width="37" height="2"/>
		</g>
		<g>
			<path fill="#808080" stroke="#808080" stroke-miterlimit="10" d="M877.5,339.866c0,7.652,0,21.936,0,28.428
				c0,5.879,4.074,4.206,6.317,4.206c6.139,0,65.887,0,65.887,0c1.802,0,2.135-2.037,2.14-2.922c0-5.057-2.591-5.563-2.591-5.563
				l-65.436-26.153c0,0-3.323-1.515-4.792-1.73C877.843,336.132,877.5,337.545,877.5,339.866z"/>
			<path fill="#E6E6E6" stroke="#999999" stroke-width="0.25" stroke-miterlimit="10" d="M891.267,346.105
				c0,0,2.952-0.014,4.979-0.014c2.027,0,2.16,2.596,3.044,4.445c0.937,1.755,2.764,1.299,4.993,0
				c1.856-1.298,10.338-7.838,10.338-7.838s1.686-1.56,0.008-4.057c-8.697-10.216-23.362-10.137-23.362-10.137
				s-14.714-0.079-23.411,10.137c-1.677,2.496,0.014,4.057,0.014,4.057s8.484,6.54,10.341,7.838c2.23,1.299,4.059,1.755,4.993,0
				c0.884-1.85,1.02-4.445,3.046-4.445C888.275,346.091,891.267,346.105,891.267,346.105z"/>
			<rect x="887.5" y="371.5" fill="#808080" stroke="#808080" stroke-miterlimit="10" width="7" height="17"/>
			<circle fill="#999999" stroke="#999999" stroke-width="0.25" stroke-miterlimit="10" cx="891.242" cy="360.068" r="10.623"/>
			<rect x="914.5" y="361.5" fill="#999999" stroke="#999999" stroke-miterlimit="10" width="33" height="14"/>
			<rect x="923.5" y="362.5" fill="#C8C8C8" stroke="#C8C8C8" stroke-miterlimit="10" width="17" height="1"/>
			<rect x="923.5" y="372.5" fill="#C8C8C8" stroke="#C8C8C8" stroke-miterlimit="10" width="17" height="2"/>
			<rect x="920.5" y="358.5" fill="#C8C8C8" stroke="#999999" stroke-miterlimit="10" width="3" height="22"/>
			<rect x="940.5" y="358.5" fill="#C8C8C8" stroke="#999999" stroke-miterlimit="10" width="5" height="22"/>
			<rect x="919.5" y="361.061" fill="#C8C8C8" stroke="#C8C8C8" stroke-miterlimit="10" width="0" height="4.394"/>
			<rect x="946.5" y="361.061" fill="#C8C8C8" stroke="#C8C8C8" stroke-miterlimit="10" width="0" height="4.394"/>
			<path fill="#999999" stroke="#999999" stroke-miterlimit="10" d="M955.735,368.784c0,2.52-2.043,4.198-4.563,4.198
				c-0.353,0-0.695-0.482-1.025-0.482H947.5v-9h2.648c0.33,0,0.672,0.302,1.025,0.302
				C953.692,363.802,955.735,366.265,955.735,368.784z"/>
			<path fill="#C8C8C8" stroke="#C8C8C8" stroke-miterlimit="10" d="M912.5,367.5v4h-23.216c-2.404,0-4.423-0.026-5.028,0.19
				c-0.121,0.045-0.186-0.002-0.186,0.045c-0.501,0.341-1.105,0.488-1.754,0.488c-1.736,0-3.143-1.435-3.143-3.18
				c0-1.746,1.407-3.172,3.143-3.172c0.649,0,1.253,0.191,1.754,0.53c0,0.046,0.063,0.385,0.186,0.427
				c0.606,0.222,2.645,0.672,5.066,0.672H912.5z"/>
			<polygon fill="#333333" stroke="#333333" stroke-width="0.25" stroke-miterlimit="10" points="886.751,369.973 920.879,335.58 
				915.675,330.334 881.548,364.728 878.478,373.065 			"/>
			<path fill="#C1272D" stroke="#C1272D" stroke-width="0.25" stroke-miterlimit="10" d="M942.681,308.666
				c2.148,2.147,2.347,5.429,0.443,7.332l-20.963,20.965l-7.776-7.775l20.962-20.965C937.252,306.32,940.535,306.52,942.681,308.666
				z"/>
			<circle fill="#C8C8C8" stroke="#C8C8C8" stroke-width="0.25" stroke-miterlimit="10" cx="891.243" cy="360.068" r="2.316"/>
			<circle fill="#C8C8C8" stroke="#C8C8C8" stroke-width="0.25" stroke-miterlimit="10" cx="880.575" cy="348.254" r="2.339"/>
			<circle fill="#C8C8C8" stroke="#C8C8C8" stroke-width="0.25" stroke-miterlimit="10" cx="951.699" cy="368.784" r="2.282"/>
			<circle fill="#C8C8C8" stroke="#C8C8C8" stroke-width="0.25" stroke-miterlimit="10" cx="882.388" cy="369.018" r="1.872"/>
			<rect x="919.5" y="372.776" fill="#C8C8C8" stroke="#C8C8C8" stroke-miterlimit="10" width="0" height="2.929"/>
			<rect x="946.5" y="372.776" fill="#C8C8C8" stroke="#C8C8C8" stroke-miterlimit="10" width="0" height="2.929"/>
			<rect x="873.5" y="383.5" fill="#333333" stroke="#333333" stroke-miterlimit="10" width="35" height="2"/>
		</g>
		<g>
			<path fill="#808080" stroke="#808080" stroke-miterlimit="10" d="M774.5,339.866c0,7.652,0,21.936,0,28.428
				c0,5.879,3.5,4.206,5.744,4.206c6.138,0,65.886,0,65.886,0c1.802,0,2.135-2.037,2.141-2.922c0-5.057-2.592-5.563-2.592-5.563
				l-65.435-26.153c0,0-3.038-1.515-4.505-1.73C774.557,336.132,774.5,337.545,774.5,339.866z"/>
			<path fill="#E6E6E6" stroke="#999999" stroke-width="0.25" stroke-miterlimit="10" d="M787.692,346.105
				c0,0,2.953-0.014,4.979-0.014c2.027,0,2.159,2.596,3.043,4.445c0.937,1.755,2.763,1.299,4.993,0
				c1.856-1.298,10.338-7.838,10.338-7.838s1.685-1.56,0.008-4.057c-8.696-10.216-23.362-10.137-23.362-10.137
				s-14.714-0.079-23.41,10.137c-1.677,2.496,0.014,4.057,0.014,4.057s8.484,6.54,10.34,7.838c2.23,1.299,4.06,1.755,4.993,0
				c0.885-1.85,1.019-4.445,3.046-4.445C784.702,346.091,787.692,346.105,787.692,346.105z"/>
			<rect x="785.5" y="371.5" fill="#808080" stroke="#808080" stroke-miterlimit="10" width="4" height="17"/>
			<circle fill="#999999" stroke="#999999" stroke-width="0.25" stroke-miterlimit="10" cx="787.668" cy="360.068" r="10.623"/>
			<rect x="810.5" y="361.5" fill="#999999" stroke="#999999" stroke-miterlimit="10" width="33" height="14"/>
			<rect x="821.5" y="362.5" fill="#C8C8C8" stroke="#C8C8C8" stroke-miterlimit="10" width="17" height="1"/>
			<rect x="821.5" y="372.5" fill="#C8C8C8" stroke="#C8C8C8" stroke-miterlimit="10" width="17" height="2"/>
			<rect x="815.5" y="358.5" fill="#C8C8C8" stroke="#999999" stroke-miterlimit="10" width="6" height="22"/>
			<rect x="838.5" y="358.5" fill="#C8C8C8" stroke="#999999" stroke-miterlimit="10" width="2" height="22"/>
			<rect x="814.5" y="361.061" fill="#C8C8C8" stroke="#C8C8C8" stroke-miterlimit="10" width="0" height="4.394"/>
			<rect x="842.5" y="361.061" fill="#C8C8C8" stroke="#C8C8C8" stroke-miterlimit="10" width="0" height="4.394"/>
			<path fill="#999999" stroke="#999999" stroke-miterlimit="10" d="M852.161,368.784c0,2.52-2.042,4.198-4.562,4.198
				c-0.354,0-0.696-0.482-1.025-0.482H843.5v-9h3.074c0.329,0,0.671,0.302,1.025,0.302
				C850.119,363.802,852.161,366.265,852.161,368.784z"/>
			<path fill="#C8C8C8" stroke="#C8C8C8" stroke-miterlimit="10" d="M809.5,367.5v4h-23.79c-2.404,0-4.422-0.026-5.029,0.19
				c-0.12,0.045-0.186-0.002-0.186,0.045c-0.5,0.341-1.104,0.488-1.753,0.488c-1.736,0-3.144-1.435-3.144-3.18
				c0-1.746,1.407-3.172,3.144-3.172c0.649,0,1.254,0.191,1.753,0.53c0,0.046,0.063,0.385,0.186,0.427
				c0.607,0.222,2.645,0.672,5.066,0.672H809.5z"/>
			<polygon fill="#333333" stroke="#333333" stroke-width="0.25" stroke-miterlimit="10" points="783.178,369.973 817.306,335.58 
				812.101,330.334 777.974,364.728 774.904,373.065 			"/>
			<path fill="#C1272D" stroke="#C1272D" stroke-width="0.25" stroke-miterlimit="10" d="M839.107,308.666
				c2.148,2.147,2.346,5.429,0.443,7.332l-20.962,20.965l-7.776-7.775l20.962-20.965C833.677,306.32,836.961,306.52,839.107,308.666
				z"/>
			<circle fill="#C8C8C8" stroke="#C8C8C8" stroke-width="0.25" stroke-miterlimit="10" cx="787.669" cy="360.068" r="2.317"/>
			<circle fill="#C8C8C8" stroke="#C8C8C8" stroke-width="0.25" stroke-miterlimit="10" cx="777.001" cy="348.254" r="2.34"/>
			<circle fill="#C8C8C8" stroke="#C8C8C8" stroke-width="0.25" stroke-miterlimit="10" cx="848.125" cy="368.784" r="2.281"/>
			<circle fill="#C8C8C8" stroke="#C8C8C8" stroke-width="0.25" stroke-miterlimit="10" cx="778.814" cy="369.018" r="1.872"/>
			<rect x="814.5" y="372.776" fill="#C8C8C8" stroke="#C8C8C8" stroke-miterlimit="10" width="0" height="2.929"/>
			<rect x="842.5" y="372.776" fill="#C8C8C8" stroke="#C8C8C8" stroke-miterlimit="10" width="0" height="2.929"/>
			<rect x="768.5" y="383.5" fill="#333333" stroke="#333333" stroke-miterlimit="10" width="37" height="2"/>
		</g>
		<g>
			<path fill="#808080" stroke="#808080" stroke-miterlimit="10" d="M669.5,339.866c0,7.652,0,21.936,0,28.428
				c0,5.879,4.926,4.206,7.169,4.206c6.139,0,65.886,0,65.886,0c1.803,0,2.136-2.037,2.14-2.922c0-5.057-2.592-5.563-2.592-5.563
				l-65.435-26.153c0,0-3.749-1.515-5.218-1.73C670.269,336.132,669.5,337.545,669.5,339.866z"/>
			<path fill="#E6E6E6" stroke="#999999" stroke-width="0.25" stroke-miterlimit="10" d="M684.119,346.105
				c0,0,2.952-0.014,4.979-0.014c2.027,0,2.159,2.596,3.043,4.445c0.938,1.755,2.764,1.299,4.994,0
				c1.856-1.298,10.338-7.838,10.338-7.838s1.685-1.56,0.008-4.057c-8.696-10.216-23.361-10.137-23.361-10.137
				s-14.714-0.079-23.412,10.137c-1.676,2.496,0.014,4.057,0.014,4.057s8.484,6.54,10.34,7.838c2.23,1.299,4.06,1.755,4.994,0
				c0.884-1.85,1.018-4.445,3.045-4.445C681.127,346.091,684.119,346.105,684.119,346.105z"/>
			<rect x="681.5" y="371.5" fill="#808080" stroke="#808080" stroke-miterlimit="10" width="4" height="17"/>
			<circle fill="#999999" stroke="#999999" stroke-width="0.25" stroke-miterlimit="10" cx="684.095" cy="360.068" r="10.622"/>
			<rect x="706.5" y="361.5" fill="#999999" stroke="#999999" stroke-miterlimit="10" width="34" height="14"/>
			<rect x="716.5" y="362.5" fill="#C8C8C8" stroke="#C8C8C8" stroke-miterlimit="10" width="17" height="1"/>
			<rect x="716.5" y="372.5" fill="#C8C8C8" stroke="#C8C8C8" stroke-miterlimit="10" width="17" height="2"/>
			<rect x="712.5" y="358.5" fill="#C8C8C8" stroke="#999999" stroke-miterlimit="10" width="4" height="22"/>
			<rect x="733.5" y="358.5" fill="#C8C8C8" stroke="#999999" stroke-miterlimit="10" width="5" height="22"/>
			<rect x="711.5" y="361.5" fill="#C8C8C8" stroke="#C8C8C8" stroke-miterlimit="10" width="1" height="4"/>
			<rect x="738.5" y="361.5" fill="#C8C8C8" stroke="#C8C8C8" stroke-miterlimit="10" width="2" height="4"/>
			<path fill="#999999" stroke="#999999" stroke-miterlimit="10" d="M748.588,368.784c0,2.52-2.044,4.198-4.563,4.198
				c-0.353,0-0.695-0.482-1.025-0.482h-2.5v-9h2.5c0.331,0,0.672,0.302,1.025,0.302
				C746.544,363.802,748.588,366.265,748.588,368.784z"/>
			<path fill="#C8C8C8" stroke="#C8C8C8" stroke-miterlimit="10" d="M706.5,367.5v4h-24.363c-2.404,0-4.422-0.026-5.029,0.19
				c-0.12,0.045-0.186-0.002-0.186,0.045c-0.5,0.341-1.103,0.488-1.753,0.488c-1.737,0-3.143-1.435-3.143-3.18
				c0-1.746,1.406-3.172,3.143-3.172c0.65,0,1.253,0.191,1.753,0.53c0,0.046,0.063,0.385,0.186,0.427
				c0.607,0.222,2.645,0.672,5.066,0.672H706.5z"/>
			<polygon fill="#333333" stroke="#333333" stroke-width="0.25" stroke-miterlimit="10" points="679.604,369.973 713.731,335.58 
				708.527,330.334 674.399,364.728 671.33,373.065 			"/>
			<path fill="#C1272D" stroke="#C1272D" stroke-width="0.25" stroke-miterlimit="10" d="M735.534,308.666
				c2.148,2.147,2.346,5.429,0.443,7.332l-20.963,20.965l-7.775-7.775l20.961-20.965C730.104,306.32,733.387,306.52,735.534,308.666
				z"/>
			<circle fill="#C8C8C8" stroke="#C8C8C8" stroke-width="0.25" stroke-miterlimit="10" cx="684.095" cy="360.068" r="2.316"/>
			<circle fill="#C8C8C8" stroke="#C8C8C8" stroke-width="0.25" stroke-miterlimit="10" cx="673.428" cy="348.254" r="2.339"/>
			<circle fill="#C8C8C8" stroke="#C8C8C8" stroke-width="0.25" stroke-miterlimit="10" cx="744.552" cy="368.784" r="2.282"/>
			<circle fill="#C8C8C8" stroke="#C8C8C8" stroke-width="0.25" stroke-miterlimit="10" cx="675.241" cy="369.018" r="1.872"/>
			<rect x="711.5" y="372.5" fill="#C8C8C8" stroke="#C8C8C8" stroke-miterlimit="10" width="1" height="3"/>
			<rect x="738.5" y="372.5" fill="#C8C8C8" stroke="#C8C8C8" stroke-miterlimit="10" width="2" height="3"/>
			<rect x="665.5" y="383.5" fill="#333333" stroke="#333333" stroke-miterlimit="10" width="37" height="2"/>
		</g>
		<g>
			<path fill="#808080" stroke="#808080" stroke-miterlimit="10" d="M567.5,339.866c0,7.652,0,21.936,0,28.428
				c0,5.879,3.352,4.206,5.596,4.206c6.138,0,65.886,0,65.886,0c1.803,0,2.135-2.037,2.141-2.922c0-5.057-2.592-5.563-2.592-5.563
				l-65.435-26.153c0,0-2.963-1.515-4.432-1.73C567.482,336.132,567.5,337.545,567.5,339.866z"/>
			<path fill="#E6E6E6" stroke="#999999" stroke-width="0.25" stroke-miterlimit="10" d="M580.545,346.105
				c0,0,2.952-0.014,4.979-0.014c2.028,0,2.16,2.596,3.043,4.445c0.937,1.755,2.763,1.299,4.993,0
				c1.856-1.298,10.338-7.838,10.338-7.838s1.685-1.56,0.008-4.057c-8.696-10.216-23.361-10.137-23.361-10.137
				s-14.715-0.079-23.412,10.137c-1.676,2.496,0.014,4.057,0.014,4.057s8.484,6.54,10.34,7.838c2.23,1.299,4.059,1.755,4.994,0
				c0.884-1.85,1.019-4.445,3.046-4.445C577.554,346.091,580.545,346.105,580.545,346.105z"/>
			<rect x="577.5" y="371.5" fill="#808080" stroke="#808080" stroke-miterlimit="10" width="6" height="17"/>
			<circle fill="#999999" stroke="#999999" stroke-width="0.25" stroke-miterlimit="10" cx="580.521" cy="360.068" r="10.623"/>
			<rect x="602.5" y="361.5" fill="#999999" stroke="#999999" stroke-miterlimit="10" width="33" height="14"/>
			<rect x="612.5" y="362.5" fill="#C8C8C8" stroke="#C8C8C8" stroke-miterlimit="10" width="18" height="1"/>
			<rect x="612.5" y="372.5" fill="#C8C8C8" stroke="#C8C8C8" stroke-miterlimit="10" width="18" height="2"/>
			<rect x="609.5" y="358.5" fill="#C8C8C8" stroke="#999999" stroke-miterlimit="10" width="3" height="22"/>
			<rect x="630.5" y="358.5" fill="#C8C8C8" stroke="#999999" stroke-miterlimit="10" width="4" height="22"/>
			<rect x="608.5" y="361.061" fill="#C8C8C8" stroke="#C8C8C8" stroke-miterlimit="10" width="0" height="4.394"/>
			<rect x="634.5" y="361.5" fill="#C8C8C8" stroke="#C8C8C8" stroke-miterlimit="10" width="1" height="4"/>
			<path fill="#999999" stroke="#999999" stroke-miterlimit="10" d="M645.013,368.784c0,2.52-2.042,4.198-4.561,4.198
				c-0.354,0-0.696-0.482-1.025-0.482H635.5v-9h3.926c0.329,0,0.671,0.302,1.025,0.302
				C642.971,363.802,645.013,366.265,645.013,368.784z"/>
			<path fill="#C8C8C8" stroke="#C8C8C8" stroke-miterlimit="10" d="M602.5,367.5v4h-23.938c-2.404,0-4.421-0.026-5.028,0.19
				c-0.121,0.045-0.186-0.002-0.186,0.045c-0.5,0.341-1.103,0.488-1.753,0.488c-1.736,0-3.144-1.435-3.144-3.18
				c0-1.746,1.408-3.172,3.144-3.172c0.65,0,1.253,0.191,1.753,0.53c0,0.046,0.064,0.385,0.185,0.427
				c0.608,0.222,2.644,0.672,5.067,0.672H602.5z"/>
			<polygon fill="#333333" stroke="#333333" stroke-width="0.25" stroke-miterlimit="10" points="576.03,369.973 610.157,335.58 
				604.954,330.334 570.826,364.728 567.756,373.065 			"/>
			<path fill="#C1272D" stroke="#C1272D" stroke-width="0.25" stroke-miterlimit="10" d="M631.96,308.666
				c2.147,2.147,2.346,5.429,0.443,7.332l-20.962,20.965l-7.776-7.775l20.962-20.965C626.53,306.32,629.813,306.52,631.96,308.666z"
				/>
			<circle fill="#C8C8C8" stroke="#C8C8C8" stroke-width="0.25" stroke-miterlimit="10" cx="580.521" cy="360.068" r="2.317"/>
			<circle fill="#C8C8C8" stroke="#C8C8C8" stroke-width="0.25" stroke-miterlimit="10" cx="569.854" cy="348.254" r="2.339"/>
			<circle fill="#C8C8C8" stroke="#C8C8C8" stroke-width="0.25" stroke-miterlimit="10" cx="640.978" cy="368.784" r="2.281"/>
			<circle fill="#C8C8C8" stroke="#C8C8C8" stroke-width="0.25" stroke-miterlimit="10" cx="571.667" cy="369.018" r="1.871"/>
			<rect x="608.5" y="372.776" fill="#C8C8C8" stroke="#C8C8C8" stroke-miterlimit="10" width="0" height="2.929"/>
			<rect x="634.5" y="372.5" fill="#C8C8C8" stroke="#C8C8C8" stroke-miterlimit="10" width="1" height="3"/>
			<rect x="562.5" y="383.5" fill="#333333" stroke="#333333" stroke-miterlimit="10" width="35" height="2"/>
		</g>
		<g>
			<path fill="#808080" stroke="#808080" stroke-miterlimit="10" d="M463.5,339.866c0,7.652,0,21.936,0,28.428
				c0,5.879,3.779,4.206,6.022,4.206c6.139,0,65.887,0,65.887,0c1.803,0,2.136-2.037,2.14-2.922c0-5.057-2.591-5.563-2.591-5.563
				l-65.435-26.153c0,0-3.175-1.515-4.644-1.73C463.695,336.132,463.5,337.545,463.5,339.866z"/>
			<path fill="#E6E6E6" stroke="#999999" stroke-width="0.25" stroke-miterlimit="10" d="M476.971,346.105
				c0,0,2.953-0.014,4.98-0.014c2.027,0,2.16,2.596,3.043,4.445c0.937,1.755,2.763,1.299,4.992,0
				c1.855-1.298,10.338-7.838,10.338-7.838s1.685-1.56,0.009-4.057c-8.696-10.216-23.362-10.137-23.362-10.137
				s-14.714-0.079-23.41,10.137c-1.677,2.496,0.013,4.057,0.013,4.057s8.484,6.54,10.34,7.838c2.231,1.299,4.06,1.755,4.995,0
				c0.884-1.85,1.018-4.445,3.045-4.445C473.979,346.091,476.971,346.105,476.971,346.105z"/>
			<rect x="473.5" y="371.5" fill="#808080" stroke="#808080" stroke-miterlimit="10" width="5" height="17"/>
			<circle fill="#999999" stroke="#999999" stroke-width="0.25" stroke-miterlimit="10" cx="476.947" cy="360.068" r="10.622"/>
			<rect x="499.5" y="361.5" fill="#999999" stroke="#999999" stroke-miterlimit="10" width="34" height="14"/>
			<rect x="508.5" y="362.5" fill="#C8C8C8" stroke="#C8C8C8" stroke-miterlimit="10" width="19" height="1"/>
			<rect x="508.5" y="372.5" fill="#C8C8C8" stroke="#C8C8C8" stroke-miterlimit="10" width="19" height="2"/>
			<rect x="506.5" y="358.5" fill="#C8C8C8" stroke="#999999" stroke-miterlimit="10" width="2" height="22"/>
			<rect x="527.5" y="358.5" fill="#C8C8C8" stroke="#999999" stroke-miterlimit="10" width="3" height="22"/>
			<rect x="503.5" y="361.061" fill="#C8C8C8" stroke="#C8C8C8" stroke-miterlimit="10" width="0" height="4.394"/>
			<rect x="532.5" y="361.061" fill="#C8C8C8" stroke="#C8C8C8" stroke-miterlimit="10" width="0" height="4.394"/>
			<path fill="#999999" stroke="#999999" stroke-miterlimit="10" d="M541.44,368.784c0,2.52-2.043,4.198-4.563,4.198
				c-0.354,0-0.695-0.482-1.025-0.482H533.5v-9h2.352c0.33,0,0.671,0.302,1.025,0.302
				C539.397,363.802,541.44,366.265,541.44,368.784z"/>
			<path fill="#C8C8C8" stroke="#C8C8C8" stroke-miterlimit="10" d="M498.5,367.5v4h-23.511c-2.403,0-4.422-0.026-5.028,0.19
				c-0.121,0.045-0.188-0.002-0.188,0.045c-0.5,0.341-1.103,0.488-1.752,0.488c-1.737,0-3.144-1.435-3.144-3.18
				c0-1.746,1.406-3.172,3.144-3.172c0.65,0,1.253,0.191,1.752,0.53c0,0.046,0.064,0.385,0.186,0.427
				c0.607,0.222,2.645,0.672,5.066,0.672H498.5z"/>
			<polygon fill="#333333" stroke="#333333" stroke-width="0.25" stroke-miterlimit="10" points="472.457,369.973 506.583,335.58 
				501.38,330.334 467.252,364.728 464.183,373.065 			"/>
			<path fill="#C1272D" stroke="#C1272D" stroke-width="0.25" stroke-miterlimit="10" d="M528.387,308.666
				c2.146,2.147,2.346,5.429,0.443,7.332l-20.964,20.965l-7.774-7.775l20.961-20.965C522.956,306.32,526.239,306.52,528.387,308.666
				z"/>
			<circle fill="#C8C8C8" stroke="#C8C8C8" stroke-width="0.25" stroke-miterlimit="10" cx="476.948" cy="360.068" r="2.316"/>
			<circle fill="#C8C8C8" stroke="#C8C8C8" stroke-width="0.25" stroke-miterlimit="10" cx="466.28" cy="348.254" r="2.339"/>
			<circle fill="#C8C8C8" stroke="#C8C8C8" stroke-width="0.25" stroke-miterlimit="10" cx="537.404" cy="368.784" r="2.281"/>
			<circle fill="#C8C8C8" stroke="#C8C8C8" stroke-width="0.25" stroke-miterlimit="10" cx="468.094" cy="369.018" r="1.871"/>
			<rect x="503.5" y="372.776" fill="#C8C8C8" stroke="#C8C8C8" stroke-miterlimit="10" width="0" height="2.929"/>
			<rect x="532.5" y="372.776" fill="#C8C8C8" stroke="#C8C8C8" stroke-miterlimit="10" width="0" height="2.929"/>
			<rect x="459.5" y="383.5" fill="#333333" stroke="#333333" stroke-miterlimit="10" width="36" height="2"/>
		</g>
		<g>
			<path fill="#808080" stroke="#808080" stroke-miterlimit="10" d="M359.5,339.866c0,7.652,0,21.936,0,28.428
				c0,5.879,4.205,4.206,6.448,4.206c6.138,0,65.886,0,65.886,0c1.803,0,2.135-2.037,2.141-2.922c0-5.057-2.591-5.563-2.591-5.563
				l-65.436-26.153c0,0-3.39-1.515-4.857-1.73C359.909,336.132,359.5,337.545,359.5,339.866z"/>
			<path fill="#E6E6E6" stroke="#999999" stroke-width="0.25" stroke-miterlimit="10" d="M373.397,346.105
				c0,0,2.953-0.014,4.98-0.014c2.027,0,2.159,2.596,3.042,4.445c0.937,1.755,2.763,1.299,4.993,0
				c1.855-1.298,10.338-7.838,10.338-7.838s1.684-1.56,0.008-4.057c-8.697-10.216-23.362-10.137-23.362-10.137
				s-14.715-0.079-23.411,10.137c-1.676,2.496,0.014,4.057,0.014,4.057s8.484,6.54,10.34,7.838c2.23,1.299,4.059,1.755,4.994,0
				c0.884-1.85,1.018-4.445,3.044-4.445C370.406,346.091,373.397,346.105,373.397,346.105z"/>
			<rect x="371.5" y="371.5" fill="#808080" stroke="#808080" stroke-miterlimit="10" width="4" height="17"/>
			<circle fill="#999999" stroke="#999999" stroke-width="0.25" stroke-miterlimit="10" cx="373.373" cy="360.068" r="10.623"/>
			<rect x="396.5" y="361.5" fill="#999999" stroke="#999999" stroke-miterlimit="10" width="33" height="14"/>
			<rect x="405.5" y="362.5" fill="#C8C8C8" stroke="#C8C8C8" stroke-miterlimit="10" width="18" height="1"/>
			<rect x="405.5" y="372.5" fill="#C8C8C8" stroke="#C8C8C8" stroke-miterlimit="10" width="18" height="2"/>
			<rect x="401.5" y="358.5" fill="#C8C8C8" stroke="#999999" stroke-miterlimit="10" width="4" height="22"/>
			<rect x="423.5" y="358.5" fill="#C8C8C8" stroke="#999999" stroke-miterlimit="10" width="3" height="22"/>
			<rect x="400.5" y="361.5" fill="#C8C8C8" stroke="#C8C8C8" stroke-miterlimit="10" width="1" height="4"/>
			<rect x="427.5" y="361.061" fill="#C8C8C8" stroke="#C8C8C8" stroke-miterlimit="10" width="0" height="4.394"/>
			<path fill="#999999" stroke="#999999" stroke-miterlimit="10" d="M437.865,368.784c0,2.52-2.042,4.198-4.561,4.198
				c-0.354,0-0.695-0.482-1.025-0.482H429.5v-9h2.779c0.33,0,0.671,0.302,1.025,0.302
				C435.823,363.802,437.865,366.265,437.865,368.784z"/>
			<path fill="#C8C8C8" stroke="#C8C8C8" stroke-miterlimit="10" d="M393.5,367.5v4h-22.086c-2.403,0-4.421-0.026-5.027,0.19
				c-0.121,0.045-0.187-0.002-0.187,0.045c-0.499,0.341-1.104,0.488-1.753,0.488c-1.737,0-3.144-1.435-3.144-3.18
				c0-1.746,1.407-3.172,3.144-3.172c0.649,0,1.254,0.191,1.753,0.53c0,0.046,0.064,0.385,0.186,0.427
				c0.607,0.222,2.644,0.672,5.067,0.672H393.5z"/>
			<polygon fill="#333333" stroke="#333333" stroke-width="0.25" stroke-miterlimit="10" points="368.882,369.973 403.01,335.58 
				397.806,330.334 363.678,364.728 360.608,373.065 			"/>
			<path fill="#C1272D" stroke="#C1272D" stroke-width="0.25" stroke-miterlimit="10" d="M424.813,308.666
				c2.147,2.147,2.346,5.429,0.442,7.332l-20.963,20.965l-7.775-7.775l20.962-20.965C419.383,306.32,422.665,306.52,424.813,308.666
				z"/>
			<circle fill="#C8C8C8" stroke="#C8C8C8" stroke-width="0.25" stroke-miterlimit="10" cx="373.374" cy="360.068" r="2.317"/>
			<circle fill="#C8C8C8" stroke="#C8C8C8" stroke-width="0.25" stroke-miterlimit="10" cx="362.706" cy="348.254" r="2.339"/>
			<circle fill="#C8C8C8" stroke="#C8C8C8" stroke-width="0.25" stroke-miterlimit="10" cx="433.83" cy="368.784" r="2.281"/>
			<circle fill="#C8C8C8" stroke="#C8C8C8" stroke-width="0.25" stroke-miterlimit="10" cx="364.519" cy="369.018" r="1.871"/>
			<rect x="400.5" y="372.5" fill="#C8C8C8" stroke="#C8C8C8" stroke-miterlimit="10" width="1" height="3"/>
			<rect x="427.5" y="372.776" fill="#C8C8C8" stroke="#C8C8C8" stroke-miterlimit="10" width="0" height="2.929"/>
			<rect x="354.5" y="383.5" fill="#333333" stroke="#333333" stroke-miterlimit="10" width="37" height="2"/>
		</g>
		<g>
			<path fill="#808080" stroke="#808080" stroke-miterlimit="10" d="M256.5,339.866c0,7.652,0,21.936,0,28.428
				c0,5.879,3.631,4.206,5.875,4.206c6.138,0,65.886,0,65.886,0c1.803,0,2.135-2.037,2.141-2.922c0-5.057-2.592-5.563-2.592-5.563
				l-65.435-26.153c0,0-3.103-1.515-4.57-1.73C256.622,336.132,256.5,337.545,256.5,339.866z"/>
			<path fill="#E6E6E6" stroke="#999999" stroke-width="0.25" stroke-miterlimit="10" d="M269.823,346.105
				c0,0,2.954-0.014,4.98-0.014c2.027,0,2.159,2.596,3.044,4.445c0.935,1.755,2.763,1.299,4.992,0
				c1.855-1.298,10.338-7.838,10.338-7.838s1.685-1.56,0.009-4.057c-8.697-10.216-23.363-10.137-23.363-10.137
				s-14.714-0.079-23.41,10.137c-1.677,2.496,0.013,4.057,0.013,4.057s8.485,6.54,10.34,7.838c2.23,1.299,4.06,1.755,4.995,0
				c0.883-1.85,1.018-4.445,3.045-4.445C266.832,346.091,269.823,346.105,269.823,346.105z"/>
			<rect x="267.5" y="371.5" fill="#808080" stroke="#808080" stroke-miterlimit="10" width="5" height="17"/>
			<circle fill="#999999" stroke="#999999" stroke-width="0.25" stroke-miterlimit="10" cx="269.8" cy="360.068" r="10.623"/>
			<rect x="291.5" y="361.5" fill="#999999" stroke="#999999" stroke-miterlimit="10" width="34" height="14"/>
			<rect x="302.5" y="362.5" fill="#C8C8C8" stroke="#C8C8C8" stroke-miterlimit="10" width="17" height="1"/>
			<rect x="302.5" y="372.5" fill="#C8C8C8" stroke="#C8C8C8" stroke-miterlimit="10" width="17" height="2"/>
			<rect x="298.5" y="358.5" fill="#C8C8C8" stroke="#999999" stroke-miterlimit="10" width="4" height="22"/>
			<rect x="319.5" y="358.5" fill="#C8C8C8" stroke="#999999" stroke-miterlimit="10" width="5" height="22"/>
			<rect x="295.5" y="361.5" fill="#C8C8C8" stroke="#C8C8C8" stroke-miterlimit="10" width="3" height="4"/>
			<rect x="324.5" y="361.5" fill="#C8C8C8" stroke="#C8C8C8" stroke-miterlimit="10" width="1" height="4"/>
			<path fill="#999999" stroke="#999999" stroke-miterlimit="10" d="M334.292,368.784c0,2.52-2.043,4.198-4.562,4.198
				c-0.355,0-0.696-0.482-1.025-0.482H325.5v-9h3.205c0.329,0,0.67,0.302,1.025,0.302
				C332.249,363.802,334.292,366.265,334.292,368.784z"/>
			<path fill="#C8C8C8" stroke="#C8C8C8" stroke-miterlimit="10" d="M291.5,367.5v4h-23.659c-2.403,0-4.422-0.026-5.028,0.19
				c-0.121,0.045-0.186-0.002-0.186,0.045c-0.5,0.341-1.104,0.488-1.753,0.488c-1.736,0-3.144-1.435-3.144-3.18
				c0-1.746,1.408-3.172,3.144-3.172c0.65,0,1.253,0.191,1.753,0.53c0,0.046,0.064,0.385,0.186,0.427
				c0.606,0.222,2.645,0.672,5.066,0.672H291.5z"/>
			<polygon fill="#333333" stroke="#333333" stroke-width="0.25" stroke-miterlimit="10" points="265.309,369.973 299.435,335.58 
				294.232,330.334 260.104,364.728 257.034,373.065 			"/>
			<path fill="#C1272D" stroke="#C1272D" stroke-width="0.25" stroke-miterlimit="10" d="M321.239,308.666
				c2.147,2.147,2.346,5.429,0.443,7.332l-20.963,20.965l-7.775-7.775l20.962-20.965C315.808,306.32,319.091,306.52,321.239,308.666
				z"/>
			<circle fill="#C8C8C8" stroke="#C8C8C8" stroke-width="0.25" stroke-miterlimit="10" cx="269.8" cy="360.068" r="2.317"/>
			<circle fill="#C8C8C8" stroke="#C8C8C8" stroke-width="0.25" stroke-miterlimit="10" cx="259.132" cy="348.254" r="2.34"/>
			<circle fill="#C8C8C8" stroke="#C8C8C8" stroke-width="0.25" stroke-miterlimit="10" cx="330.256" cy="368.784" r="2.281"/>
			<circle fill="#C8C8C8" stroke="#C8C8C8" stroke-width="0.25" stroke-miterlimit="10" cx="260.945" cy="369.018" r="1.871"/>
			<rect x="295.5" y="372.5" fill="#C8C8C8" stroke="#C8C8C8" stroke-miterlimit="10" width="3" height="3"/>
			<rect x="324.5" y="372.5" fill="#C8C8C8" stroke="#C8C8C8" stroke-miterlimit="10" width="1" height="3"/>
			<rect x="251.5" y="383.5" fill="#333333" stroke="#333333" stroke-miterlimit="10" width="36" height="2"/>
		</g>
		<g>
			<path fill="#808080" stroke="#808080" stroke-miterlimit="10" d="M153.5,339.866c0,7.652,0,21.936,0,28.428
				c0,5.879,3.057,4.206,5.301,4.206c6.139,0,65.886,0,65.886,0c1.802,0,2.135-2.037,2.141-2.922c0-5.057-2.592-5.563-2.592-5.563
				l-65.435-26.153c0,0-2.815-1.515-4.284-1.73C153.335,336.132,153.5,337.545,153.5,339.866z"/>
			<path fill="#E6E6E6" stroke="#999999" stroke-width="0.25" stroke-miterlimit="10" d="M166.249,346.105
				c0,0,2.953-0.014,4.98-0.014c2.026,0,2.159,2.596,3.042,4.445c0.937,1.755,2.763,1.299,4.993,0
				c1.855-1.298,10.338-7.838,10.338-7.838s1.685-1.56,0.008-4.057c-8.697-10.216-23.362-10.137-23.362-10.137
				s-14.714-0.079-23.411,10.137c-1.676,2.496,0.014,4.057,0.014,4.057s8.483,6.54,10.34,7.838c2.23,1.299,4.059,1.755,4.994,0
				c0.883-1.85,1.019-4.445,3.045-4.445C163.258,346.091,166.249,346.105,166.249,346.105z"/>
			<rect x="162.5" y="371.5" fill="#808080" stroke="#808080" stroke-miterlimit="10" width="6" height="17"/>
			<circle fill="#999999" stroke="#999999" stroke-width="0.25" stroke-miterlimit="10" cx="166.226" cy="360.068" r="10.622"/>
			<rect x="187.5" y="361.5" fill="#999999" stroke="#999999" stroke-miterlimit="10" width="35" height="14"/>
			<rect x="197.5" y="362.5" fill="#C8C8C8" stroke="#C8C8C8" stroke-miterlimit="10" width="18" height="1"/>
			<rect x="197.5" y="372.5" fill="#C8C8C8" stroke="#C8C8C8" stroke-miterlimit="10" width="18" height="2"/>
			<rect x="195.5" y="358.5" fill="#C8C8C8" stroke="#999999" stroke-miterlimit="10" width="2" height="22"/>
			<rect x="215.5" y="358.5" fill="#C8C8C8" stroke="#999999" stroke-miterlimit="10" width="5" height="22"/>
			<rect x="193.5" y="361.061" fill="#C8C8C8" stroke="#C8C8C8" stroke-miterlimit="10" width="0" height="4.394"/>
			<rect x="220.5" y="361.5" fill="#C8C8C8" stroke="#C8C8C8" stroke-miterlimit="10" width="1" height="4"/>
			<path fill="#999999" stroke="#999999" stroke-miterlimit="10" d="M230.718,368.784c0,2.52-2.042,4.198-4.563,4.198
				c-0.353,0-0.695-0.482-1.024-0.482H222.5v-9h2.631c0.329,0,0.671,0.302,1.024,0.302
				C228.676,363.802,230.718,366.265,230.718,368.784z"/>
			<path fill="#C8C8C8" stroke="#C8C8C8" stroke-miterlimit="10" d="M187.5,367.5v4h-23.233c-2.403,0-4.422-0.026-5.027,0.19
				c-0.121,0.045-0.187-0.002-0.187,0.045c-0.499,0.341-1.104,0.488-1.753,0.488c-1.736,0-3.143-1.435-3.143-3.18
				c0-1.746,1.407-3.172,3.143-3.172c0.649,0,1.254,0.191,1.753,0.53c0,0.046,0.064,0.385,0.186,0.427
				c0.606,0.222,2.645,0.672,5.066,0.672H187.5z"/>
			<polygon fill="#333333" stroke="#333333" stroke-width="0.25" stroke-miterlimit="10" points="161.734,369.973 195.862,335.58 
				190.658,330.334 156.53,364.728 153.461,373.065 			"/>
			<path fill="#C1272D" stroke="#C1272D" stroke-width="0.25" stroke-miterlimit="10" d="M217.664,308.666
				c2.148,2.147,2.346,5.429,0.443,7.332l-20.963,20.965l-7.776-7.775l20.962-20.965C212.234,306.32,215.518,306.52,217.664,308.666
				z"/>
			<circle fill="#C8C8C8" stroke="#C8C8C8" stroke-width="0.25" stroke-miterlimit="10" cx="166.226" cy="360.068" r="2.317"/>
			<circle fill="#C8C8C8" stroke="#C8C8C8" stroke-width="0.25" stroke-miterlimit="10" cx="155.558" cy="348.254" r="2.34"/>
			<circle fill="#C8C8C8" stroke="#C8C8C8" stroke-width="0.25" stroke-miterlimit="10" cx="226.682" cy="368.784" r="2.281"/>
			<circle fill="#C8C8C8" stroke="#C8C8C8" stroke-width="0.25" stroke-miterlimit="10" cx="157.371" cy="369.018" r="1.871"/>
			<rect x="193.5" y="372.776" fill="#C8C8C8" stroke="#C8C8C8" stroke-miterlimit="10" width="0" height="2.929"/>
			<rect x="220.5" y="372.5" fill="#C8C8C8" stroke="#C8C8C8" stroke-miterlimit="10" width="1" height="3"/>
			<rect x="148.5" y="383.5" fill="#333333" stroke="#333333" stroke-miterlimit="10" width="35" height="2"/>
		</g>
	</g>
</g>
<g id="Layer_12">
</g>
<g id="Layer_15">
</g>
<g id="Layer_8">
</g>
</svg>
