<?xml version="1.0" encoding="utf-8"?>
<!-- Generator: Adobe Illustrator 17.0.0, SVG Export Plug-In . SVG Version: 6.00 Build 0)  -->
<!DOCTYPE svg PUBLIC "-//W3C//DTD SVG 1.1//EN" "http://www.w3.org/Graphics/SVG/1.1/DTD/svg11.dtd">
<svg version="1.1" xmlns="http://www.w3.org/2000/svg" xmlns:xlink="http://www.w3.org/1999/xlink" x="0px" y="0px" width="1399px"
	 height="635px" viewBox="0 0 1399 635" enable-background="new 0 0 1399 635" xml:space="preserve">
<g id="Layer_1">
</g>
<g id="Layer_3">
</g>
<g id="Layer_2">
</g>
<g id="Layer_7">
</g>
<g id="Layer_14">
</g>
<g id="Layer_5">
</g>
<g id="Layer_11">
</g>
<g id="Layer_9">
</g>
<g id="Layer_10">
</g>
<g id="Layer_13">
</g>
<g id="Layer_6">
</g>
<g id="Layer_4">
	<g>
		<path fill="#E6E6E6" stroke="#E6E6E6" stroke-miterlimit="10" d="M462.5,37.491V331.5h-57V37.491
			c0-12.037,7.673-22.325,18.244-26.453c-0.276-0.652-0.244-1.366-0.244-2.11V8.514c0-2.823,1.792-5.141,4.516-5.492
			c-0.137-0.223-0.516-0.484-0.516-0.762V2.137c0-0.812,1.463-1.637,2.276-1.637h9.33c0.815,0,1.394,0.824,1.394,1.637V2.26
			c0,0.277,0.121,0.539-0.016,0.762c2.723,0.351,5.016,2.669,5.016,5.492v0.414c0,0.744-0.468,1.458-0.744,2.11
			C455.328,15.166,462.5,25.454,462.5,37.491z"/>
		<path fill="#E6E6E6" stroke="#E6E6E6" stroke-miterlimit="10" d="M528.5,37.491V331.5h-58V37.491
			c0-12.037,7.172-22.325,17.744-26.453c-0.275-0.652-0.744-1.366-0.744-2.11V8.514c0-2.823,2.293-5.141,5.016-5.492
			c-0.137-0.223-0.016-0.484-0.016-0.762V2.137c0-0.812,0.909-1.637,1.723-1.637h9.329c0.815,0,1.948,0.824,1.948,1.637V2.26
			c0,0.277-0.377,0.539-0.516,0.762c2.723,0.351,4.516,2.669,4.516,5.492v0.414c0,0.744,0.531,1.458,0.255,2.11
			C520.327,15.166,528.5,25.454,528.5,37.491z"/>
		<path fill="#E6E6E6" stroke="#E6E6E6" stroke-miterlimit="10" d="M592.5,37.491V331.5h-58V37.491
			c0-12.037,7.673-22.325,18.244-26.453c-0.276-0.652-0.244-1.366-0.244-2.11V8.514c0-2.823,1.792-5.141,4.516-5.492
			c-0.137-0.223-0.516-0.484-0.516-0.762V2.137c0-0.812,1.355-1.637,2.169-1.637h9.329c0.815,0,2.502,0.824,2.502,1.637V2.26
			c0,0.277-0.379,0.539-0.516,0.762c2.722,0.351,4.516,2.669,4.516,5.492v0.414c0,0.744,0.032,1.458-0.245,2.11
			C584.827,15.166,592.5,25.454,592.5,37.491z"/>
		<path fill="#E6E6E6" stroke="#E6E6E6" stroke-miterlimit="10" d="M656.5,37.491V331.5h-58V37.491
			c0-12.037,8.173-22.325,18.744-26.453c-0.275-0.652,0.256-1.366,0.256-2.11V8.514c0-2.823,1.794-5.141,4.516-5.492
			c-0.138-0.223-0.516-0.484-0.516-0.762V2.137c0-0.812,0.801-1.637,1.615-1.637h9.33c0.813,0,2.055,0.824,2.055,1.637V2.26
			c0,0.277,0.121,0.539-0.016,0.762c2.723,0.351,5.016,2.669,5.016,5.492v0.414c0,0.744-0.468,1.458-0.745,2.11
			C649.328,15.166,656.5,25.454,656.5,37.491z"/>
		<path fill="#E6E6E6" stroke="#E6E6E6" stroke-miterlimit="10" d="M720.5,37.491V331.5h-56V37.491
			c0-12.037,7.173-22.325,17.745-26.453c-0.276-0.652-0.745-1.366-0.745-2.11V8.514c0-2.823,2.294-5.141,5.017-5.492
			c-0.14-0.223-0.017-0.484-0.017-0.762V2.137c0-0.812,0.247-1.637,1.061-1.637h9.329c0.815,0,2.61,0.824,2.61,1.637V2.26
			c0,0.277-0.378,0.539-0.516,0.762c2.722,0.351,4.516,2.669,4.516,5.492v0.414c0,0.744-0.468,1.458-0.745,2.11
			C713.328,15.166,720.5,25.454,720.5,37.491z"/>
		<path fill="#E6E6E6" stroke="#E6E6E6" stroke-miterlimit="10" d="M785.5,37.491V331.5h-57V37.491
			c0-12.037,7.172-22.325,17.744-26.453c-0.276-0.652-0.744-1.366-0.744-2.11V8.514c0-2.823,2.292-5.141,5.016-5.492
			c-0.138-0.223-0.016-0.484-0.016-0.762V2.137c0-0.812,0.693-1.637,1.507-1.637h9.329c0.815,0,2.164,0.824,2.164,1.637V2.26
			c0,0.277-0.378,0.539-0.516,0.762c2.723,0.351,4.516,2.669,4.516,5.492v0.414c0,0.744,0.032,1.458-0.245,2.11
			C777.828,15.166,785.5,25.454,785.5,37.491z"/>
		<path fill="#E6E6E6" stroke="#E6E6E6" stroke-miterlimit="10" d="M849.5,37.491V331.5h-57V37.491
			c0-12.037,7.673-22.325,18.243-26.453c-0.275-0.652-0.243-1.366-0.243-2.11V8.514c0-2.823,1.793-5.141,4.516-5.492
			c-0.138-0.223-0.516-0.484-0.516-0.762V2.137c0-0.812,1.139-1.637,1.952-1.637h9.331c0.814,0,1.717,0.824,1.717,1.637V2.26
			c0,0.277,0.123,0.539-0.017,0.762c2.724,0.351,5.017,2.669,5.017,5.492v0.414c0,0.744-0.469,1.458-0.745,2.11
			C842.327,15.166,849.5,25.454,849.5,37.491z"/>
		<path fill="#E6E6E6" stroke="#E6E6E6" stroke-miterlimit="10" d="M913.5,37.491V331.5h-56V37.491
			c0-12.037,7.172-22.325,17.744-26.453c-0.275-0.652-0.744-1.366-0.744-2.11V8.514c0-2.823,1.793-5.141,4.516-5.492
			c-0.137-0.223-0.516-0.484-0.516-0.762V2.137c0-0.812,1.585-1.637,2.399-1.637h9.329c0.815,0,2.272,0.824,2.272,1.637V2.26
			c0,0.277-0.378,0.539-0.516,0.762c2.722,0.351,4.516,2.669,4.516,5.492v0.414c0,0.744-0.469,1.458-0.745,2.11
			C906.327,15.166,913.5,25.454,913.5,37.491z"/>
		<path fill="#E6E6E6" stroke="#E6E6E6" stroke-miterlimit="10" d="M979.5,37.491V331.5h-58V37.491
			c0-12.037,7.173-22.325,17.744-26.453c-0.276-0.652-0.744-1.366-0.744-2.11V8.514c0-2.823,2.294-5.141,5.016-5.492
			c-0.137-0.223-0.016-0.484-0.016-0.762V2.137c0-0.812,1.032-1.637,1.845-1.637h9.33c0.813,0,1.825,0.824,1.825,1.637V2.26
			c0,0.277-0.379,0.539-0.516,0.762c2.723,0.351,4.516,2.669,4.516,5.492v0.414c0,0.744,0.532,1.458,0.255,2.11
			C971.327,15.166,979.5,25.454,979.5,37.491z"/>
		<path fill="#E6E6E6" stroke="#E6E6E6" stroke-miterlimit="10" d="M1043.5,37.491V331.5h-58V37.491
			c0-12.037,7.673-22.325,18.245-26.453c-0.276-0.652-0.245-1.366-0.245-2.11V8.514c0-2.823,1.794-5.141,4.516-5.492
			c-0.138-0.223-0.516-0.484-0.516-0.762V2.137c0-0.812,1.477-1.637,2.291-1.637h9.329c0.814,0,1.38,0.824,1.38,1.637V2.26
			c0,0.277,0.621,0.539,0.484,0.762c2.723,0.351,5.516,2.669,5.516,5.492v0.414c0,0.744-0.469,1.458-0.745,2.11
			C1036.328,15.166,1043.5,25.454,1043.5,37.491z"/>
		<path fill="#E6E6E6" stroke="#E6E6E6" stroke-miterlimit="10" d="M1107.5,37.491V331.5h-57V37.491
			c0-12.037,7.172-22.325,17.744-26.453c-0.276-0.652-0.744-1.366-0.744-2.11V8.514c0-2.823,2.292-5.141,5.016-5.492
			c-0.137-0.223-0.016-0.484-0.016-0.762V2.137c0-0.812,0.922-1.637,1.737-1.637h9.329c0.813,0,1.934,0.824,1.934,1.637V2.26
			c0,0.277,0.122,0.539-0.016,0.762c2.724,0.351,5.016,2.669,5.016,5.492v0.414c0,0.744-0.468,1.458-0.744,2.11
			C1100.327,15.166,1107.5,25.454,1107.5,37.491z"/>
		<path fill="#E6E6E6" stroke="#E6E6E6" stroke-miterlimit="10" d="M1172.5,37.491V331.5h-57V37.491
			c0-12.037,7.172-22.325,17.745-26.453c-0.276-0.652-0.745-1.366-0.745-2.11V8.514c0-2.823,2.292-5.141,5.016-5.492
			c-0.137-0.223-0.016-0.484-0.016-0.762V2.137c0-0.812,0.369-1.637,1.183-1.637h9.329c0.814,0,2.489,0.824,2.489,1.637V2.26
			c0,0.277-0.378,0.539-0.516,0.762c2.724,0.351,4.516,2.669,4.516,5.492v0.414c0,0.744,0.032,1.458-0.244,2.11
			C1164.828,15.166,1172.5,25.454,1172.5,37.491z"/>
		<path fill="#E6E6E6" stroke="#E6E6E6" stroke-miterlimit="10" d="M1236.5,37.491V331.5h-57V37.491
			c0-12.037,7.672-22.325,18.244-26.453c-0.277-0.652-0.244-1.366-0.244-2.11V8.514c0-2.823,1.793-5.141,4.516-5.492
			c-0.137-0.223-0.516-0.484-0.516-0.762V2.137c0-0.812,0.815-1.637,1.628-1.637h9.33c0.813,0,2.042,0.824,2.042,1.637V2.26
			c0,0.277-0.379,0.539-0.516,0.762c2.722,0.351,4.516,2.669,4.516,5.492v0.414c0,0.744,0.031,1.458-0.245,2.11
			C1228.827,15.166,1236.5,25.454,1236.5,37.491z"/>
		<path fill="#B3B3B3" stroke="#B3B3B3" stroke-miterlimit="10" d="M458.5,57.438V352.5h-57V57.438
			c0-12.036,7.673-22.324,18.244-26.453c-0.276-0.651-0.244-1.363-0.244-2.109v-0.413c0-2.825,1.794-5.142,4.516-5.493
			c-0.138-0.223-0.516-0.484-0.516-0.76v-0.123c0-0.813,0.86-0.586,1.673-0.586h9.331c0.814,0,0.996-0.228,0.996,0.586v0.123
			c0,0.275,0.122,0.537-0.016,0.76c2.723,0.351,5.016,2.668,5.016,5.493v0.413c0,0.746,0.032,1.458-0.245,2.109
			C450.828,35.113,458.5,45.401,458.5,57.438z"/>
		<path fill="#B3B3B3" stroke="#B3B3B3" stroke-miterlimit="10" d="M523.5,57.438V352.5h-58V57.438
			c0-12.036,7.673-22.324,18.243-26.453c-0.275-0.651-0.243-1.363-0.243-2.109v-0.413c0-2.825,1.793-5.142,4.516-5.493
			c-0.138-0.223-0.516-0.484-0.516-0.76v-0.123c0-0.813,1.306-0.586,2.12-0.586h9.329c0.814,0,0.551-0.228,0.551,0.586v0.123
			c0,0.275,0.622,0.537,0.484,0.76c2.723,0.351,5.516,2.668,5.516,5.493v0.413c0,0.746,0.032,1.458-0.245,2.109
			C515.828,35.113,523.5,45.401,523.5,57.438z"/>
		<path fill="#B3B3B3" stroke="#B3B3B3" stroke-miterlimit="10" d="M587.5,57.438V352.5h-57V57.438
			c0-12.036,7.172-22.324,17.745-26.453c-0.276-0.651-0.745-1.363-0.745-2.109v-0.413c0-2.825,2.293-5.142,5.016-5.493
			c-0.137-0.223-0.016-0.484-0.016-0.76v-0.123c0-0.813,0.752-0.586,1.566-0.586h9.329c0.814,0,0.105-0.228,0.105,0.586v0.123
			c0,0.275,1.121,0.537,0.984,0.76c2.723,0.351,6.016,2.668,6.016,5.493v0.413c0,0.746-0.467,1.458-0.745,2.109
			C580.327,35.113,587.5,45.401,587.5,57.438z"/>
		<path fill="#B3B3B3" stroke="#B3B3B3" stroke-miterlimit="10" d="M652.5,57.438V352.5h-58V57.438
			c0-12.036,8.172-22.324,18.744-26.453c-0.276-0.651,0.256-1.363,0.256-2.109v-0.413c0-2.825,1.793-5.142,4.516-5.493
			c-0.137-0.223-0.516-0.484-0.516-0.76v-0.123c0-0.813,0.198-0.586,1.011-0.586h9.33c0.815,0,0.659-0.228,0.659,0.586v0.123
			c0,0.275,0.621,0.537,0.484,0.76c2.723,0.351,5.516,2.668,5.516,5.493v0.413c0,0.746,0.031,1.458-0.245,2.109
			C644.828,35.113,652.5,45.401,652.5,57.438z"/>
		<path fill="#B3B3B3" stroke="#B3B3B3" stroke-miterlimit="10" d="M716.5,57.438V352.5h-57V57.438
			c0-12.036,7.672-22.324,18.243-26.453c-0.275-0.651-0.243-1.363-0.243-2.109v-0.413c0-2.825,1.794-5.142,4.516-5.493
			c-0.137-0.223-0.516-0.484-0.516-0.76v-0.123c0-0.813,0.644-0.586,1.457-0.586h9.33c0.815,0,0.213-0.228,0.213,0.586v0.123
			c0,0.275,1.122,0.537,0.984,0.76c2.723,0.351,6.016,2.668,6.016,5.493v0.413c0,0.746-0.469,1.458-0.744,2.109
			C709.327,35.113,716.5,45.401,716.5,57.438z"/>
		<path fill="#B3B3B3" stroke="#B3B3B3" stroke-miterlimit="10" d="M780.5,57.438V352.5h-56V57.438
			c0-12.036,7.172-22.324,17.744-26.453c-0.275-0.651-0.744-1.363-0.744-2.109v-0.413c0-2.825,1.792-5.142,4.516-5.493
			c-0.137-0.223-0.516-0.484-0.516-0.76v-0.123c0-0.813,1.09-0.586,1.903-0.586h9.33c0.814,0,0.767-0.228,0.767,0.586v0.123
			c0,0.275,0.622,0.537,0.484,0.76c2.722,0.351,5.516,2.668,5.516,5.493v0.413c0,0.746-0.469,1.458-0.745,2.109
			C773.327,35.113,780.5,45.401,780.5,57.438z"/>
		<path fill="#B3B3B3" stroke="#B3B3B3" stroke-miterlimit="10" d="M845.5,57.438V352.5h-57V57.438
			c0-12.036,7.173-22.324,17.744-26.453c-0.275-0.651-0.744-1.363-0.744-2.109v-0.413c0-2.825,2.294-5.142,5.016-5.493
			c-0.137-0.223-0.016-0.484-0.016-0.76v-0.123c0-0.813,0.536-0.586,1.35-0.586h9.329c0.815,0,1.321-0.228,1.321,0.586v0.123
			c0,0.275,0.122,0.537-0.016,0.76c2.723,0.351,5.016,2.668,5.016,5.493v0.413c0,0.746,0.032,1.458-0.244,2.109
			C837.828,35.113,845.5,45.401,845.5,57.438z"/>
		<path fill="#B3B3B3" stroke="#B3B3B3" stroke-miterlimit="10" d="M909.5,57.438V352.5h-57V57.438
			c0-12.036,7.673-22.324,18.244-26.453c-0.275-0.651-0.244-1.363-0.244-2.109v-0.413c0-2.825,1.794-5.142,4.516-5.493
			c-0.138-0.223-0.516-0.484-0.516-0.76v-0.123c0-0.813,0.982-0.586,1.796-0.586h9.329c0.815,0,0.875-0.228,0.875,0.586v0.123
			c0,0.275,0.622,0.537,0.484,0.76c2.723,0.351,5.516,2.668,5.516,5.493v0.413c0,0.746-0.468,1.458-0.743,2.109
			C902.328,35.113,909.5,45.401,909.5,57.438z"/>
		<path fill="#B3B3B3" stroke="#B3B3B3" stroke-miterlimit="10" d="M973.5,57.438V352.5h-56V57.438
			c0-12.036,7.173-22.324,17.744-26.453c-0.275-0.651-0.744-1.363-0.744-2.109v-0.413c0-2.825,1.792-5.142,4.516-5.493
			c-0.137-0.223-0.516-0.484-0.516-0.76v-0.123c0-0.813,1.428-0.586,2.241-0.586h9.33c0.814,0,0.429-0.228,0.429,0.586v0.123
			c0,0.275,0.621,0.537,0.484,0.76c2.724,0.351,5.516,2.668,5.516,5.493v0.413c0,0.746-0.468,1.458-0.745,2.109
			C966.328,35.113,973.5,45.401,973.5,57.438z"/>
		<path fill="#B3B3B3" stroke="#B3B3B3" stroke-miterlimit="10" d="M1039.5,57.438V352.5h-58V57.438
			c0-12.036,7.173-22.324,17.745-26.453c-0.277-0.651-0.745-1.363-0.745-2.109v-0.413c0-2.825,2.292-5.142,5.016-5.493
			c-0.138-0.223-0.016-0.484-0.016-0.76v-0.123c0-0.813,0.873-0.586,1.687-0.586h9.33c0.813,0,0.983-0.228,0.983,0.586v0.123
			c0,0.275,0.121,0.537-0.016,0.76c2.723,0.351,5.016,2.668,5.016,5.493v0.413c0,0.746,0.532,1.458,0.256,2.109
			C1031.328,35.113,1039.5,45.401,1039.5,57.438z"/>
		<path fill="#B3B3B3" stroke="#B3B3B3" stroke-miterlimit="10" d="M1103.5,57.438V352.5h-58V57.438
			c0-12.036,7.672-22.324,18.244-26.453c-0.276-0.651-0.244-1.363-0.244-2.109v-0.413c0-2.825,1.792-5.142,4.516-5.493
			c-0.138-0.223-0.516-0.484-0.516-0.76v-0.123c0-0.813,1.32-0.586,2.133-0.586h9.33c0.814,0,0.537-0.228,0.537,0.586v0.123
			c0,0.275,0.621,0.537,0.484,0.76c2.722,0.351,5.516,2.668,5.516,5.493v0.413c0,0.746,0.031,1.458-0.245,2.109
			C1095.827,35.113,1103.5,45.401,1103.5,57.438z"/>
		<path fill="#B3B3B3" stroke="#B3B3B3" stroke-miterlimit="10" d="M1167.5,57.438V352.5h-58V57.438
			c0-12.036,8.173-22.324,18.745-26.453c-0.276-0.651,0.255-1.363,0.255-2.109v-0.413c0-2.825,1.793-5.142,4.516-5.493
			c-0.137-0.223-0.516-0.484-0.516-0.76v-0.123c0-0.813,0.765-0.586,1.579-0.586h9.33c0.813,0,2.091-0.228,2.091,0.586v0.123
			c0,0.275,0.121,0.537-0.016,0.76c2.722,0.351,5.016,2.668,5.016,5.493v0.413c0,0.746-0.468,1.458-0.745,2.109
			C1160.327,35.113,1167.5,45.401,1167.5,57.438z"/>
		<path fill="#B3B3B3" stroke="#B3B3B3" stroke-miterlimit="10" d="M1232.5,57.438V352.5h-57V57.438
			c0-12.036,7.173-22.324,17.745-26.453c-0.275-0.651-0.745-1.363-0.745-2.109v-0.413c0-2.825,2.294-5.142,5.016-5.493
			c-0.138-0.223-0.016-0.484-0.016-0.76v-0.123c0-0.813,0.212-0.586,1.026-0.586h9.329c0.814,0,2.646-0.228,2.646,0.586v0.123
			c0,0.275-0.379,0.537-0.516,0.76c2.723,0.351,4.516,2.668,4.516,5.493v0.413c0,0.746,0.032,1.458-0.245,2.109
			C1224.828,35.113,1232.5,45.401,1232.5,57.438z"/>
		<rect x="1277.5" y="199.5" fill="#999999" stroke="#999999" stroke-miterlimit="10" width="7" height="47"/>
		<rect x="1173.5" y="199.5" fill="#999999" stroke="#999999" stroke-miterlimit="10" width="7" height="47"/>
		<rect x="1069.5" y="199.5" fill="#999999" stroke="#999999" stroke-miterlimit="10" width="8" height="47"/>
		<rect x="965.5" y="199.5" fill="#999999" stroke="#999999" stroke-miterlimit="10" width="7" height="47"/>
		<rect x="861.5" y="199.5" fill="#999999" stroke="#999999" stroke-miterlimit="10" width="8" height="47"/>
		<rect x="757.5" y="199.5" fill="#999999" stroke="#999999" stroke-miterlimit="10" width="9" height="47"/>
		<rect x="655.5" y="199.5" fill="#999999" stroke="#999999" stroke-miterlimit="10" width="7" height="47"/>
		<rect x="550.5" y="199.5" fill="#999999" stroke="#999999" stroke-miterlimit="10" width="8" height="47"/>
		<rect x="447.5" y="199.5" fill="#999999" stroke="#999999" stroke-miterlimit="10" width="9" height="47"/>
		<rect x="344.5" y="199.5" fill="#999999" stroke="#999999" stroke-miterlimit="10" width="7" height="47"/>
		<rect x="240.5" y="199.5" fill="#999999" stroke="#999999" stroke-miterlimit="10" width="9" height="47"/>
		<rect x="137.5" y="199.5" fill="#999999" stroke="#999999" stroke-miterlimit="10" width="8" height="47"/>
		<path fill="#999999" stroke="#999999" stroke-miterlimit="10" d="M1286.5,186.906c0,3.495-3.881,7.594-9.059,7.594h-51.707
			c-5.179,0-10.234-4.099-10.234-7.594v-0.383c0-3.497,5.056-5.023,10.234-5.023h51.707c5.178,0,9.059,1.526,9.059,5.023V186.906z"
			/>
		<rect x="1278.5" y="189.5" fill="#999999" stroke="#999999" stroke-miterlimit="10" width="5" height="14"/>
		<path fill="#FFFFFF" stroke="#808080" stroke-width="5" stroke-miterlimit="10" d="M896.5,174.5v-64.507
			c0,0,1.754-11.493,19.843-11.493c18.086,0,219.921,0,236.826,0c16.904,0,14.331,12.005,14.331,12.005V174.5H896.5z"/>
		<circle fill="#FFFFFF" stroke="#808080" stroke-width="5" stroke-miterlimit="10" cx="939.558" cy="136.652" r="25.892"/>
		<circle fill="#FFFFFF" stroke="#808080" stroke-width="5" stroke-miterlimit="10" cx="1002.469" cy="136.652" r="25.892"/>
		<circle fill="#FFFFFF" stroke="#808080" stroke-width="5" stroke-miterlimit="10" cx="1065.381" cy="136.652" r="25.892"/>
		<circle fill="#FFFFFF" stroke="#808080" stroke-width="5" stroke-miterlimit="10" cx="1128.293" cy="136.652" r="25.892"/>
		<line fill="none" stroke="#999999" stroke-miterlimit="10" x1="939.558" y1="136.652" x2="927.102" y2="149.107"/>
		
			<line fill="none" stroke="#999999" stroke-linecap="round" stroke-miterlimit="10" x1="939.558" y1="136.652" x2="951.783" y2="124.427"/>
		<polygon fill="#999999" stroke="#999999" stroke-miterlimit="10" points="930.554,148.289 925.699,150.487 927.896,145.633 		"/>
		<circle fill="none" stroke="#999999" stroke-miterlimit="10" cx="939.604" cy="136.606" r="21.338"/>
		<circle fill="#666666" stroke="#666666" stroke-miterlimit="10" cx="939.557" cy="136.652" r="1.374"/>
		<line fill="none" stroke="#999999" stroke-miterlimit="10" x1="1002.469" y1="136.652" x2="990.015" y2="149.107"/>
		
			<line fill="none" stroke="#999999" stroke-linecap="round" stroke-miterlimit="10" x1="1002.469" y1="136.652" x2="1014.695" y2="124.427"/>
		<polygon fill="#999999" stroke="#999999" stroke-miterlimit="10" points="993.466,148.289 988.609,150.487 990.808,145.633 		"/>
		<circle fill="none" stroke="#999999" stroke-miterlimit="10" cx="1002.516" cy="136.606" r="21.338"/>
		<circle fill="#666666" stroke="#666666" stroke-miterlimit="10" cx="1002.469" cy="136.652" r="1.373"/>
		<line fill="none" stroke="#999999" stroke-miterlimit="10" x1="1065.38" y1="136.652" x2="1052.926" y2="149.107"/>
		
			<line fill="none" stroke="#999999" stroke-linecap="round" stroke-miterlimit="10" x1="1065.38" y1="136.652" x2="1077.606" y2="124.427"/>
		<polygon fill="#999999" stroke="#999999" stroke-miterlimit="10" points="1056.377,148.289 1051.521,150.487 1053.719,145.633 		
			"/>
		<circle fill="none" stroke="#999999" stroke-miterlimit="10" cx="1065.427" cy="136.606" r="21.338"/>
		<circle fill="#666666" stroke="#666666" stroke-miterlimit="10" cx="1065.38" cy="136.652" r="1.374"/>
		<line fill="none" stroke="#999999" stroke-miterlimit="10" x1="1128.292" y1="136.652" x2="1115.837" y2="149.107"/>
		
			<line fill="none" stroke="#999999" stroke-linecap="round" stroke-miterlimit="10" x1="1128.292" y1="136.652" x2="1140.518" y2="124.427"/>
		<polygon fill="#999999" stroke="#999999" stroke-miterlimit="10" points="1119.289,148.289 1114.433,150.487 1116.631,145.633 		
			"/>
		<circle fill="none" stroke="#999999" stroke-miterlimit="10" cx="1128.338" cy="136.606" r="21.338"/>
		<circle fill="#666666" stroke="#666666" stroke-miterlimit="10" cx="1128.291" cy="136.652" r="1.373"/>
		<g>
			<path fill="#999999" stroke="#999999" stroke-miterlimit="10" d="M149.5,191.5h-30.829c-0.514,0-1.171-2.131-2.171-2.806V131.5
				h-12v57.194c0,0.26-0.878,0.489-1.254,0.866c-0.575,0.574-1.016,1.939-1.33,1.939H53.5v5h48.416c0.514,2,1.584,2.137,2.584,2.811
				V297.5h12v-98.189c1-0.675,1.657-0.811,2.171-2.811H149.5V191.5z"/>
			<polygon fill="#999999" stroke="#999999" stroke-miterlimit="10" points="227.5,174.056 227.5,199.5 797.5,199.5 797.5,175.001 
							"/>
		</g>
		<rect x="797.5" y="174.5" fill="#999999" stroke="#999999" stroke-miterlimit="10" width="384" height="25"/>
		<rect x="1198.5" y="218.5" fill="#999999" stroke="#999999" stroke-miterlimit="10" width="12" height="79"/>
		<path fill="#999999" stroke="#999999" stroke-miterlimit="10" d="M594.5,152.09v0.199c0,1.918-1,3.522-2,3.983V173.5h-5v-17.227
			c-2-0.3-1.741,0.227-2.256-2.773H471.897c-0.759,0-1.918,3-3.214,3h-2.5c-2.279,0-4.682-2.699-4.682-4.977v-0.2
			c0-1.918,1-3.521,3-3.982V87.223c-2-0.301-1.495-1.723-2.009-1.723H342.5v-5h120.467c0.759-1,1.919-3,3.215-3h2.5
			c2.279,0,4.818,3.262,4.818,5.541v0.198c0,1.92-1,3.522-3,3.983v60.117c2,0.301,1.358,1.16,1.872,2.16h113.35
			c0.758-1,1.918-1,3.214-1h2.501C593.715,148.5,594.5,149.811,594.5,152.09z"/>
		<path fill="#999999" stroke="#999999" stroke-miterlimit="10" d="M138.5,100.5H71.412c-0.761,0-1.918-2-3.215-2h-2.502
			c-2.279,0-4.195,2.209-4.195,4.488v0.199c0,1.918,2,3.521,3,3.982v60.33h5v-60.33c1-0.301,1.873-0.67,2.387-2.67H138.5V100.5z"/>
		<rect x="0.5" y="609.5" fill="#333333" stroke="#333333" stroke-miterlimit="10" width="1398" height="25"/>
		<rect x="1198.5" y="160.5" fill="#999999" stroke="#999999" stroke-miterlimit="10" width="12" height="9"/>
		<rect x="1188.5" y="213.5" fill="#999999" stroke="#999999" stroke-miterlimit="10" width="32" height="5"/>
		<path fill="#808080" stroke="#808080" stroke-miterlimit="10" d="M1227.5,209.185c0,3.488-2.828,6.315-6.316,6.315h-33.367
			c-3.488,0-6.316-2.827-6.316-6.315v-33.369c0-3.488,2.828-6.315,6.316-6.315h33.367c3.488,0,6.316,2.827,6.316,6.315V209.185z"/>
		<circle fill="#C8C8C8" stroke="#C8C8C8" stroke-miterlimit="10" cx="1204.725" cy="190.934" r="16.053"/>
		<rect x="1190.5" y="42.5" fill="#999999" stroke="#999999" stroke-miterlimit="10" width="27" height="118"/>
		<rect x="1197.5" y="37.5" fill="#999999" stroke="#999999" stroke-miterlimit="10" width="14" height="5"/>
		<path fill="#999999" stroke="#999999" stroke-miterlimit="10" d="M274.5,183.262c0-5.084-5.926-9.762-12.73-9.762H139.582
			c-6.805,0-14.082,4.678-14.082,9.762v7.672c0,5.084,7.277,8.566,14.082,8.566H261.77c6.804,0,12.73-3.482,12.73-8.566V183.262z"/>
		<rect x="123.5" y="80.5" fill="#999999" stroke="#999999" stroke-miterlimit="10" width="227" height="5"/>
		<rect x="49.5" y="213.5" fill="#999999" stroke="#999999" stroke-miterlimit="10" width="33" height="5"/>
		<path fill="#808080" stroke="#808080" stroke-miterlimit="10" d="M90.5,209.185c0,3.488-2.827,6.315-6.315,6.315H50.815
			c-3.488,0-6.315-2.827-6.315-6.315v-33.369c0-3.488,2.827-6.315,6.315-6.315h33.369c3.488,0,6.315,2.827,6.315,6.315V209.185z"/>
		<circle fill="#C8C8C8" stroke="#C8C8C8" stroke-miterlimit="10" cx="66.946" cy="190.934" r="16.053"/>
		<rect x="60.5" y="218.5" fill="#999999" stroke="#999999" stroke-miterlimit="10" width="12" height="79"/>
		<rect x="49.5" y="296.5" fill="#808080" stroke="#808080" stroke-miterlimit="10" width="1302" height="312"/>
		<path fill="#999999" stroke="#999999" stroke-miterlimit="10" d="M1286.06,320.5c0-1.273-1.032-2-2.308-2H656.373
			c-1.273,0-2.306,0.727-2.306,2l0,0c0,1.272,1.033,2,2.306,2h627.379C1285.028,322.5,1286.06,321.772,1286.06,320.5L1286.06,320.5z
			"/>
		<g>
			<path fill="#999999" stroke="#999999" stroke-width="5" stroke-miterlimit="10" d="M708.5,353.538v72.209
				c0,4.212-2.032,8.753-6.244,8.753H612.4c-4.211,0-6.9-4.541-6.9-8.753v-72.209c0-4.212,2.688-8.038,6.9-8.038h33.221
				c-2.387,2-4.021,3.875-4.021,6.728c0.031,2.623,4.511,6.844,7.288,7.391c5.47,1.948,11.447,1.808,16.112,0.051
				c4.572-2.171,7.288-5.551,7.288-7.469c0-2.854-1.634-4.701-4.021-6.701h33.988C706.468,345.5,708.5,349.326,708.5,353.538z"/>
			<path fill="#808080" stroke="#808080" stroke-width="5" stroke-miterlimit="10" d="M701.5,420.09c0,3.54-2.87,6.41-6.41,6.41
				H619.91c-3.54,0-6.41-2.87-6.41-6.41v-60.18c0-3.54,2.87-6.41,6.41-6.41h75.181c3.54,0,6.41,2.87,6.41,6.41V420.09z"/>
			<rect x="652.5" y="361.5" fill="#999999" stroke="#999999" stroke-miterlimit="10" width="8" height="129"/>
			<rect x="622.5" y="369.5" fill="#C8C8C8" stroke="#C8C8C8" stroke-width="5" stroke-miterlimit="10" width="68" height="56"/>
			<rect x="655.5" y="369.5" fill="#808080" stroke="#808080" stroke-miterlimit="10" width="4" height="56"/>
			<rect x="686.5" y="369.5" fill="#808080" stroke="#808080" stroke-miterlimit="10" width="2" height="56"/>
			<rect x="623.5" y="369.5" fill="#808080" stroke="#808080" stroke-miterlimit="10" width="4" height="56"/>
			<path fill="#999999" stroke="#999999" stroke-width="5" stroke-miterlimit="10" d="M672.289,352.433
				c0,1.919-2.716,5.117-7.288,7.288c-4.665,1.756-10.643,1.95-16.112,0c-2.777-0.545-7.257-4.665-7.288-7.288
				c0-2.853,1.63-5.316,4.017-6.521c0.874-0.438,1.882-0.706,2.882-0.76v-5.378c0-4.665,3.778-8.438,8.442-8.438
				c2.332,0,4.502,0.942,6.028,2.469c1.527,1.528,2.53,3.638,2.53,5.97v5.378c1,0.054,1.951,0.322,2.827,0.76
				C670.713,347.116,672.289,349.579,672.289,352.433z"/>
			<rect x="636" y="438" fill="none" stroke="#999999" stroke-width="8" stroke-miterlimit="10" width="42" height="18"/>
			<path fill="#999999" stroke="#999999" stroke-miterlimit="10" d="M681.5,459.252v3.248h2v15h-8v11h4v4h-4v6h-3v-6h-2.79
				c-0.674,5-3.21,6.707-4.21,8.572V605.5h-17V501.072c-1-1.564-3.026-3.572-3.899-7.572H641.5v5h-2v-5h-66.342
				c-1.243,2-3.061,4-5.094,4h-2.532c-3.751,0-7.031-3.485-7.031-7.237v-0.23c0-2.693,1-5.018,4-6.115V353.5h9v130.417
				c0,0.538,1.573,1.583,2.24,2.583h65.76v-9h-11v-15h4v-3.248c-2-0.568-4-2.233-4-4.204v-8.056c0-2.44,2.798-4.492,5.237-4.492
				h0.384c2.439,0,5.379,2.052,5.379,4.492v8.056c0,1.971-2,3.636-4,4.204v3.248h4v9h2v15h3.107c1.742-6,6.614-8.975,12.337-8.975
				c6.552,0,11.977,3.975,12.897,10.975h2.658v-17h3v-9h3v-3.248c-1-0.568-3-2.233-3-4.204v-8.056c0-2.44,1.83-4.492,4.269-4.492
				h0.385c2.439,0,3.347,2.052,3.347,4.492v8.056C683.5,457.019,682.5,458.684,681.5,459.252z"/>
			<line fill="none" stroke="#999999" stroke-width="5" stroke-miterlimit="10" x1="656.5" y1="332" x2="656.5" y2="320"/>
		</g>
		<rect x="81.5" y="349.5" fill="#999999" stroke="#999999" stroke-miterlimit="10" width="1057" height="8"/>
		<g>
			<path fill="#999999" stroke="#999999" stroke-width="5" stroke-miterlimit="10" d="M870.5,353.538v72.209
				c0,4.212-3.685,8.753-7.896,8.753h-89.856c-4.212,0-8.248-4.541-8.248-8.753v-72.209c0-4.212,4.036-8.038,8.248-8.038h33.221
				c-2.387,2-4.021,3.875-4.021,6.728c0.031,2.623,4.511,6.844,7.289,7.391c5.469,1.948,11.446,1.808,16.111,0.051
				c4.572-2.171,7.288-5.551,7.288-7.469c0-2.854-1.634-4.701-4.02-6.701h33.987C866.815,345.5,870.5,349.326,870.5,353.538z"/>
			<path fill="#808080" stroke="#808080" stroke-width="5" stroke-miterlimit="10" d="M861.5,420.09c0,3.54-2.87,6.41-6.41,6.41
				H779.91c-3.54,0-6.41-2.87-6.41-6.41v-60.18c0-3.54,2.87-6.41,6.41-6.41h75.181c3.54,0,6.41,2.87,6.41,6.41V420.09z"/>
			<rect x="813.5" y="361.5" fill="#999999" stroke="#999999" stroke-miterlimit="10" width="9" height="129"/>
			<rect x="784.5" y="369.5" fill="#C8C8C8" stroke="#C8C8C8" stroke-width="5" stroke-miterlimit="10" width="67" height="56"/>
			<rect x="815.5" y="369.5" fill="#808080" stroke="#808080" stroke-miterlimit="10" width="3" height="56"/>
			<rect x="847.5" y="369.5" fill="#808080" stroke="#808080" stroke-miterlimit="10" width="2" height="56"/>
			<rect x="785.5" y="369.5" fill="#808080" stroke="#808080" stroke-miterlimit="10" width="3" height="56"/>
			<path fill="#999999" stroke="#999999" stroke-width="5" stroke-miterlimit="10" d="M832.637,352.433
				c0,1.919-2.716,5.117-7.288,7.288c-4.665,1.756-10.642,1.95-16.111,0c-2.778-0.545-7.258-4.665-7.289-7.288
				c0-2.853,1.957-5.316,4.344-6.521c0.874-0.438,1.208-0.706,3.208-0.76v-5.378c0-4.665,3.451-8.438,8.116-8.438
				c2.332,0,4.666,0.942,6.192,2.469c1.526,1.528,2.692,3.638,2.692,5.97v5.378c0,0.054,1.625,0.322,2.501,0.76
				C831.387,347.116,832.637,349.579,832.637,352.433z"/>
			<rect x="797" y="438" fill="none" stroke="#999999" stroke-width="8" stroke-miterlimit="10" width="40" height="18"/>
			<path fill="#999999" stroke="#999999" stroke-miterlimit="10" d="M842.5,459.252v3.248h3v15h-10v11h5v4h-5v6h-3v-6h-2.442
				c-0.674,5-2.558,6.707-5.558,8.572V605.5h-14V501.072c-3-1.564-4.679-3.572-5.552-7.572H801.5v5h-3v-5h-64.995
				c-1.243,2-3.061,4-5.094,4h-2.532c-3.752,0-6.379-3.485-6.379-7.237v-0.23c0-2.693,1-5.018,3-6.115V353.5h8v130.417
				c2,0.538,2.921,1.583,3.587,2.583H798.5v-9h-9v-15h3v-3.248c-2-0.568-3-2.233-3-4.204v-8.056c0-2.44,2.146-4.492,4.584-4.492
				h0.384c2.439,0,4.031,2.052,4.031,4.492v8.056c0,1.971-1,3.636-2,4.204v3.248h2v9h3v15h3.455c1.742-6,6.615-8.975,12.337-8.975
				c6.552,0,11.977,3.975,12.897,10.975h2.31v-17h3v-9h3v-3.248c-2-0.568-3-2.233-3-4.204v-8.056c0-2.44,2.177-4.492,4.616-4.492
				h0.384c2.439,0,5,2.052,5,4.492v8.056C845.5,457.019,844.5,458.684,842.5,459.252z"/>
			<line fill="none" stroke="#999999" stroke-width="5" stroke-miterlimit="10" x1="817.5" y1="332" x2="817.5" y2="320"/>
		</g>
		<rect x="81.5" y="560.5" fill="#999999" stroke="#999999" stroke-miterlimit="10" width="312" height="45"/>
		<rect x="81.5" y="466.5" fill="#999999" stroke="#999999" stroke-miterlimit="10" width="174" height="77"/>
		<rect x="81.5" y="547.5" fill="#999999" stroke="#999999" stroke-miterlimit="10" width="354" height="10"/>
		<rect x="393.5" y="488.5" fill="#999999" stroke="#999999" stroke-miterlimit="10" width="30" height="59"/>
		<path fill="#999999" stroke="#999999" stroke-miterlimit="10" d="M457.074,443.354c-0.329,0.3-0.728,0.483-1.143,0.554
			c-0.214,5.754-1.396,11.255-3.382,16.355c0.313,0.123,0.607,0.322,0.851,0.591c0.836,0.938,0.767,2.372-0.162,3.216
			c-0.713,0.643-1.72,0.759-2.531,0.359c-2.463,4.957-5.709,9.446-9.574,13.312c0.828,0.936,0.759,2.364-0.17,3.206
			c-0.928,0.838-2.354,0.776-3.2-0.137c-8.791,7.343-20.107,11.762-32.454,11.762c-27.98,0-50.681-22.68-50.681-50.66
			c0-13.134,5.01-25.109,13.22-34.11c-0.752-0.928-0.661-2.301,0.237-3.115c0.843-0.759,2.101-0.774,2.954-0.091
			c3.767-3.46,8.055-6.36,12.736-8.555c-0.545-0.914-0.4-2.117,0.422-2.861c0.936-0.844,2.377-0.767,3.222,0.162
			c0.253,0.282,0.187,0.62,0.264,0.965c4.734-1.733,9.817-2.77,14.817-3.007v-0.054c0-1.251,1.241-2.271,2.5-2.271
			s2.5,1.02,2.5,2.271v0.054c6,0.222,9.888,1.173,14.422,2.754c0.122-0.322,0.345-0.621,0.614-0.874
			c0.936-0.844,2.388-0.767,3.233,0.162c0.605,0.674,0.742,1.617,0.413,2.4c4.933,2.225,9.447,5.223,13.383,8.837
			c0.936-0.729,2.288-0.62,3.093,0.27c0.75,0.844,0.775,2.087,0.092,2.939c3.221,3.522,5.947,7.502,8.072,11.829
			c0.865-0.36,1.909-0.16,2.578,0.576c0.835,0.936,0.767,2.37-0.163,3.214c-0.185,0.162-0.383,0.292-0.597,0.383
			c1.872,4.896,3.015,10.15,3.275,15.638c0.492,0.076,0.96,0.314,1.32,0.713C458.072,441.076,458.003,442.511,457.074,443.354z"/>
		<circle fill="#999999" stroke="#999999" stroke-miterlimit="10" cx="1094.626" cy="394.102" r="2.277"/>
		<path fill="#666666" stroke="#666666" stroke-miterlimit="10" d="M445.95,438.836c0,11.631-5.954,21.873-14.983,27.851
			l-0.015,0.015l-115.159,79.184c-13.626,11.193-31.073,17.907-50.083,17.907c-43.616,0-78.978-35.361-78.978-78.979
			c0-43.615,35.362-78.977,78.978-78.977l146.867-0.375C431.004,405.463,445.95,420.399,445.95,438.836z"/>
		<path fill="#E6E6E6" stroke="#E6E6E6" stroke-width="5" stroke-miterlimit="10" d="M435.166,441.112
			c0,10.663-5.458,20.053-13.736,25.532l-0.015,0.014l-105.578,72.597c-12.492,10.263-28.486,16.417-45.915,16.417
			c-39.989,0-72.407-32.419-72.407-72.405c0-39.989,32.419-72.408,72.407-72.408l134.647-0.345
			C421.464,410.514,435.166,424.21,435.166,441.112z"/>
		<rect x="81.5" y="296.5" fill="#999999" stroke="#999999" stroke-miterlimit="10" width="8" height="61"/>
		<rect x="81.5" y="357.5" fill="#999999" stroke="#999999" stroke-miterlimit="10" width="8" height="109"/>
		<path fill="#999999" stroke="#999999" stroke-miterlimit="10" d="M96.101,352c0,4.236-3.634,7.5-8.115,7.5h-2.951
			c-4.483,0-8.115-3.264-8.115-7.5l0,0c0-4.236,3.633-7.5,8.115-7.5h2.951C92.467,344.5,96.101,347.764,96.101,352L96.101,352z"/>
		<path fill="#999999" stroke="#999999" stroke-width="5" stroke-miterlimit="10" d="M1030.5,353.538v72.209
			c0,4.212-3.348,8.753-7.56,8.753h-89.855c-4.212,0-7.585-4.541-7.585-8.753v-72.209c0-4.212,3.373-8.038,7.585-8.038h33.22
			c-2.386,2-4.02,3.875-4.02,6.728c0.031,2.623,4.511,6.844,7.288,7.391c5.47,1.948,11.447,1.808,16.111,0.051
			c4.573-2.171,7.289-5.551,7.289-7.469c0-2.854-1.633-4.701-4.021-6.701h33.988C1027.152,345.5,1030.5,349.326,1030.5,353.538z"/>
		<path fill="#808080" stroke="#808080" stroke-width="5" stroke-miterlimit="10" d="M1021.5,420.09c0,3.54-2.87,6.41-6.41,6.41
			h-75.18c-3.54,0-6.41-2.87-6.41-6.41v-60.18c0-3.54,2.87-6.41,6.41-6.41h75.18c3.54,0,6.41,2.87,6.41,6.41V420.09z"/>
		<rect x="972.5" y="361.5" fill="#999999" stroke="#999999" stroke-miterlimit="10" width="9" height="129"/>
		<rect x="943.5" y="369.5" fill="#C8C8C8" stroke="#C8C8C8" stroke-width="5" stroke-miterlimit="10" width="67" height="56"/>
		<rect x="975.5" y="369.5" fill="#808080" stroke="#808080" stroke-miterlimit="10" width="5" height="56"/>
		<rect x="1006.5" y="369.5" fill="#808080" stroke="#808080" stroke-miterlimit="10" width="3" height="56"/>
		<rect x="945.5" y="369.5" fill="#808080" stroke="#808080" stroke-miterlimit="10" width="2" height="56"/>
		<path fill="#999999" stroke="#999999" stroke-width="5" stroke-miterlimit="10" d="M992.973,352.433
			c0,1.919-2.716,5.117-7.289,7.288c-4.665,1.756-10.641,1.95-16.111,0c-2.777-0.545-7.258-4.665-7.288-7.288
			c0-2.853,1.79-5.316,4.175-6.521c0.874-0.438,2.04-0.706,3.04-0.76v-5.378c0-4.665,3.619-8.438,8.284-8.438
			c2.332,0,4.081,0.942,5.608,2.469c1.526,1.528,2.108,3.638,2.108,5.97v5.378c2,0.054,2.294,0.322,3.169,0.76
			C991.055,347.116,992.973,349.579,992.973,352.433z"/>
		<rect x="958" y="438" fill="none" stroke="#999999" stroke-width="8" stroke-miterlimit="10" width="40" height="18"/>
		<path fill="#999999" stroke="#999999" stroke-miterlimit="10" d="M1002.5,459.252v3.248h3v15h-9v11h4v4h-4v6h-3v-6h-3.104
			c-0.676,5-2.896,6.707-4.896,8.572V605.5h-16V501.072c-2-1.564-3.34-3.572-4.216-7.572H962.5v5h-3v-5h-65.658
			c-1.244,2-3.062,4-5.094,4h-2.532c-3.751,0-7.716-3.485-7.716-7.237v-0.23c0-2.693,2-5.018,5-6.115V353.5h9v130.417
			c0,0.538,1.258,1.583,1.924,2.583H959.5v-9h-10v-15h5v-3.248c-4-0.568-5-2.233-5-4.204v-8.056c0-2.44,2.481-4.492,4.92-4.492
			h0.383c2.441,0,4.697,2.052,4.697,4.492v8.056c0,1.971-1,3.636-3,4.204v3.248h3v9h3v15h2.792c1.742-6,6.614-8.975,12.337-8.975
			c6.552,0,11.977,3.975,12.897,10.975h2.974v-17h3v-9h2v-3.248c-1-0.568-2-2.233-2-4.204v-8.056c0-2.44,1.514-4.492,3.953-4.492
			h0.385c2.439,0,4.662,2.052,4.662,4.492v8.056C1005.5,457.019,1003.5,458.684,1002.5,459.252z"/>
		<path fill="#999999" stroke="#999999" stroke-width="5" stroke-miterlimit="10" d="M1190.5,353.538v72.209
			c0,4.212-3,8.753-7.212,8.753h-89.855c-4.213,0-7.933-4.541-7.933-8.753v-72.209c0-4.212,3.72-8.038,7.933-8.038h33.22
			c-2.386,2-4.021,3.875-4.021,6.728c0.031,2.623,4.511,6.844,7.289,7.391c5.471,1.948,11.447,1.808,16.111,0.051
			c4.573-2.171,7.289-5.551,7.289-7.469c0-2.854-1.634-4.701-4.021-6.701h33.988C1187.5,345.5,1190.5,349.326,1190.5,353.538z"/>
		<path fill="#808080" stroke="#808080" stroke-width="5" stroke-miterlimit="10" d="M1182.5,420.09c0,3.54-2.87,6.41-6.41,6.41
			h-75.181c-3.54,0-6.41-2.87-6.41-6.41v-60.18c0-3.54,2.87-6.41,6.41-6.41h75.181c3.54,0,6.41,2.87,6.41,6.41V420.09z"/>
		<rect x="1133.5" y="361.5" fill="#999999" stroke="#999999" stroke-miterlimit="10" width="9" height="129"/>
		<rect x="1104.5" y="369.5" fill="#C8C8C8" stroke="#C8C8C8" stroke-width="5" stroke-miterlimit="10" width="68" height="56"/>
		<rect x="1137.5" y="369.5" fill="#808080" stroke="#808080" stroke-miterlimit="10" width="2" height="56"/>
		<rect x="1167.5" y="369.5" fill="#808080" stroke="#808080" stroke-miterlimit="10" width="3" height="56"/>
		<rect x="1105.5" y="369.5" fill="#808080" stroke="#808080" stroke-miterlimit="10" width="3" height="56"/>
		<path fill="#999999" stroke="#999999" stroke-width="5" stroke-miterlimit="10" d="M1153.321,352.433
			c0,1.919-2.716,5.117-7.289,7.288c-4.665,1.756-10.641,1.95-16.111,0c-2.777-0.545-7.258-4.665-7.289-7.288
			c0-2.853,1.616-5.316,4.001-6.521c0.875-0.438,2.866-0.706,2.866-0.76v-5.378c0-4.665,3.793-8.438,8.458-8.438
			c2.332,0,4.994,0.942,6.52,2.469c1.526,1.528,3.022,3.638,3.022,5.97v5.378c0,0.054,1.468,0.322,2.342,0.76
			C1152.229,347.116,1153.321,349.579,1153.321,352.433z"/>
		<rect x="1117" y="438" fill="none" stroke="#999999" stroke-width="8" stroke-miterlimit="10" width="41" height="18"/>
		<path fill="#999999" stroke="#999999" stroke-miterlimit="10" d="M1163.5,459.252v3.248h3v15h-11v11h7v4h-7v6h-3v-6h-1.757
			c-0.676,5-2.243,6.707-5.243,8.572V605.5h-15V501.072c-2-1.564-3.993-3.572-4.869-7.572h-4.131v5h-2v-5h-65.311
			c-1.243,2-3.063,4-5.094,4h-2.533c-3.751,0-6.063-3.485-6.063-7.237v-0.23c0-2.693,1-5.018,3-6.115V353.5h9v130.417
			c1,0.538,1.605,1.583,2.272,2.583h64.728v-9h-10v-15h4v-3.248c-1-0.568-4-2.233-4-4.204v-8.056c0-2.44,2.829-4.492,5.269-4.492
			h0.383c2.44,0,4.348,2.052,4.348,4.492v8.056c0,1.971-2,3.636-3,4.204v3.248h3v9h2v15h4.14c1.742-6,6.614-8.975,12.336-8.975
			c6.553,0,11.977,3.975,12.897,10.975h1.626v-17h3v-9h3v-3.248c-2-0.568-3-2.233-3-4.204v-8.056c0-2.44,2.862-4.492,5.302-4.492
			h0.383c2.439,0,5.315,2.052,5.315,4.492v8.056C1166.5,457.019,1164.5,458.684,1163.5,459.252z"/>
		<line fill="none" stroke="#999999" stroke-width="5" stroke-miterlimit="10" x1="977.5" y1="332" x2="977.5" y2="320"/>
		<line fill="none" stroke="#999999" stroke-width="5" stroke-miterlimit="10" x1="1138.5" y1="332" x2="1138.5" y2="322"/>
		<path fill="#999999" stroke="#999999" stroke-miterlimit="10" d="M1284.5,471.617c0,2.394-1.018,4.336-2.5,4.336l0,0
			c-1.482,0-2.5-1.942-2.5-4.336V323.395c0-2.393,1.018-4.337,2.5-4.337l0,0c1.482,0,2.5,1.943,2.5,4.337V471.617z"/>
		<rect x="1307.5" y="339.5" fill="#999999" stroke="#999999" stroke-miterlimit="10" width="8" height="6"/>
		<rect x="1287.5" y="327.5" fill="#999999" stroke="#999999" stroke-miterlimit="10" width="4" height="27"/>
		<rect x="1287.5" y="327.5" fill="#999999" stroke="#999999" stroke-miterlimit="10" width="25" height="3"/>
		<rect x="1309.5" y="327.5" fill="#999999" stroke="#999999" stroke-miterlimit="10" width="3" height="14"/>
		<path fill="#999999" stroke="#999999" stroke-miterlimit="10" d="M1325.5,466.363v19.948c0,5.088-3.676,9.189-8.763,9.189h-1.237
			v110h-8V495.518c-7,0-10-4.118-10-9.206v-19.948c0-3.721,2-6.919,5-8.378V345.5h18v112.188
			C1324.5,458.945,1325.5,462.351,1325.5,466.363z"/>
		<path fill="#999999" stroke="#999999" stroke-miterlimit="10" d="M1319.084,471.5c0.61,0,1.106,1.017,1.106,2.5l0,0
			c0,1.483-0.496,2.5-1.106,2.5h-37.781c-0.609,0-1.104-1.017-1.104-2.5l0,0c0-1.483,0.495-2.5,1.104-2.5H1319.084z"/>
		<path fill="#999999" stroke="#999999" stroke-miterlimit="10" d="M1289.5,473.141c0,2.407-1.952,4.359-4.359,4.359h-3.282
			c-2.407,0-4.359-1.952-4.359-4.359v-0.281c0-2.407,1.952-4.359,4.359-4.359h3.282c2.407,0,4.359,1.952,4.359,4.359V473.141z"/>
		<rect x="959.5" y="605.5" fill="#333333" stroke="#333333" stroke-miterlimit="10" width="37" height="3"/>
		<rect x="798.5" y="605.5" fill="#333333" stroke="#333333" stroke-miterlimit="10" width="37" height="3"/>
		<rect x="639.5" y="605.5" fill="#333333" stroke="#333333" stroke-miterlimit="10" width="35" height="3"/>
		<rect x="1120.5" y="605.5" fill="#333333" stroke="#333333" stroke-miterlimit="10" width="35" height="3"/>
		<rect x="1293.5" y="605.5" fill="#333333" stroke="#333333" stroke-miterlimit="10" width="37" height="3"/>
		<rect x="73.5" y="605.5" fill="#333333" stroke="#333333" stroke-miterlimit="10" width="329" height="3"/>
		<rect x="1137.5" y="354.5" fill="#999999" stroke="#999999" stroke-miterlimit="10" width="154" height="5"/>
		<g>
			<path fill="#808080" stroke="#808080" stroke-miterlimit="10" d="M96.5,82.381c0,7.654,0,21.936,0,28.43
				c0,5.877,3.868,4.689,6.113,4.689c6.138,0,65.886,0,65.886,0c1.802-1,2.135-2.279,2.14-3.166c0-5.059-2.591-5.683-2.591-5.683
				l-65.435-26.214c0,0-3.221-1.545-4.69-1.762C96.74,78.676,96.5,80.061,96.5,82.381z"/>
			<path fill="#E6E6E6" stroke="#999999" stroke-width="0.25" stroke-miterlimit="10" d="M110.061,88.619
				c0,0,2.953-0.015,4.98-0.015c2.027,0,2.158,2.596,3.043,4.445c0.936,1.755,2.762,1.302,4.992,0
				c1.856-1.296,10.338-7.838,10.338-7.838s1.686-1.56,0.008-4.055c-8.696-10.216-23.361-10.139-23.361-10.139
				S95.347,70.941,86.65,81.157c-1.677,2.495,0.014,4.055,0.014,4.055s8.484,6.542,10.34,7.838c2.23,1.302,4.06,1.755,4.994,0
				c0.883-1.85,1.019-4.445,3.046-4.445C107.069,88.604,110.061,88.619,110.061,88.619z"/>
			<rect x="107.5" y="113.5" fill="#808080" stroke="#808080" stroke-miterlimit="10" width="5" height="18"/>
			<circle fill="#999999" stroke="#999999" stroke-width="0.25" stroke-miterlimit="10" cx="110.037" cy="102.583" r="10.622"/>
			<rect x="133.5" y="102.5" fill="#999999" stroke="#999999" stroke-miterlimit="10" width="34" height="17"/>
			<rect x="142.5" y="104.5" fill="#C8C8C8" stroke="#C8C8C8" stroke-miterlimit="10" width="17" height="2"/>
			<rect x="142.5" y="115.5" fill="#C8C8C8" stroke="#C8C8C8" stroke-miterlimit="10" width="17" height="3"/>
			<rect x="138.5" y="101.5" fill="#C8C8C8" stroke="#999999" stroke-miterlimit="10" width="4" height="21"/>
			<rect x="159.5" y="101.5" fill="#C8C8C8" stroke="#999999" stroke-miterlimit="10" width="5" height="21"/>
			<rect x="137.5" y="104.566" fill="#C8C8C8" stroke="#C8C8C8" stroke-miterlimit="10" width="0" height="2.93"/>
			<rect x="166.5" y="104.566" fill="#C8C8C8" stroke="#C8C8C8" stroke-miterlimit="10" width="0" height="2.93"/>
			<path fill="#999999" stroke="#999999" stroke-miterlimit="10" d="M174.53,111.297c0,2.521-2.042,4.443-4.563,4.443
				c-0.353,0-0.695-0.24-1.024-0.24H167.5v-9h1.442c0.33,0,0.671,0.061,1.024,0.061C172.487,106.561,174.53,108.779,174.53,111.297z
				"/>
			<path fill="#C8C8C8" stroke="#C8C8C8" stroke-miterlimit="10" d="M132.5,109.5v4h-24.421c-2.405,0-4.422,0.23-5.029,0.449
				c-0.12,0.043-0.185,0.126-0.185,0.17c-0.501,0.341-1.104,0.555-1.754,0.555c-1.736,0-3.144-1.404-3.144-3.15
				c0-1.744,1.407-3.153,3.144-3.153c0.65,0,1.253,0.2,1.754,0.536c0,0.048,0.063,0.134,0.185,0.174
				c0.607,0.221,2.645,0.42,5.066,0.42H132.5z"/>
			<polygon fill="#333333" stroke="#333333" stroke-width="0.25" stroke-miterlimit="10" points="105.545,112.486 139.673,78.094 
				134.469,72.849 100.342,107.241 97.272,115.58 			"/>
			<path fill="#C1272D" stroke="#C1272D" stroke-miterlimit="10" d="M161.476,51.182c2.148,2.146,2.346,5.429,0.444,7.332
				l-20.963,20.963l-7.776-7.775l20.962-20.963C156.045,48.834,159.329,49.033,161.476,51.182z"/>
			<circle fill="#C8C8C8" stroke="#C8C8C8" stroke-width="0.25" stroke-miterlimit="10" cx="110.038" cy="102.583" r="2.317"/>
			<circle fill="#C8C8C8" stroke="#C8C8C8" stroke-width="0.25" stroke-miterlimit="10" cx="99.37" cy="90.769" r="2.339"/>
			<path fill="#C8C8C8" stroke="#C8C8C8" stroke-width="0.25" stroke-miterlimit="10" d="M172.775,111.297
				c0,1.262-1.021,2.283-2.282,2.283c-1.26,0-2.281-1.021-2.281-2.283c0-1.258,1.021-2.279,2.281-2.279
				C171.753,109.018,172.775,110.039,172.775,111.297z"/>
			<circle fill="#C8C8C8" stroke="#C8C8C8" stroke-width="0.25" stroke-miterlimit="10" cx="101.183" cy="111.532" r="1.871"/>
			<rect x="137.5" y="114.818" fill="#C8C8C8" stroke="#C8C8C8" stroke-miterlimit="10" width="0" height="2.93"/>
			<rect x="166.5" y="114.818" fill="#C8C8C8" stroke="#C8C8C8" stroke-miterlimit="10" width="0" height="2.93"/>
		</g>
		<g>
			<path fill="#808080" stroke="#808080" stroke-miterlimit="10" d="M1266.5,248.866c0,7.652,0,21.937,0,28.428
				c0,5.879,3.871,4.206,6.113,4.206c6.139,0,65.887,0,65.887,0c1.802,0,2.135-2.037,2.14-2.922c0-5.057-2.591-5.563-2.591-5.563
				l-65.436-26.153c0,0-3.221-1.515-4.69-1.73C1266.741,245.132,1266.5,246.545,1266.5,248.866z"/>
			<path fill="#E6E6E6" stroke="#999999" stroke-width="0.25" stroke-miterlimit="10" d="M1280.063,255.105
				c0,0,2.952-0.014,4.98-0.014c2.027,0,2.159,2.596,3.042,4.445c0.938,1.755,2.764,1.299,4.994,0
				c1.856-1.298,10.336-7.838,10.336-7.838s1.686-1.561,0.009-4.057c-8.696-10.216-23.361-10.137-23.361-10.137
				s-14.715-0.079-23.41,10.137c-1.678,2.496,0.013,4.057,0.013,4.057s8.484,6.54,10.34,7.838c2.231,1.299,4.059,1.755,4.994,0
				c0.883-1.85,1.017-4.445,3.045-4.445C1277.072,255.091,1280.063,255.105,1280.063,255.105z"/>
			<rect x="1277.5" y="280.5" fill="#808080" stroke="#808080" stroke-miterlimit="10" width="6" height="17"/>
			<circle fill="#999999" stroke="#999999" stroke-width="0.25" stroke-miterlimit="10" cx="1280.038" cy="269.068" r="10.623"/>
			<rect x="1302.5" y="270.5" fill="#999999" stroke="#999999" stroke-miterlimit="10" width="33" height="14"/>
			<rect x="1312.5" y="271.5" fill="#C8C8C8" stroke="#C8C8C8" stroke-miterlimit="10" width="18" height="1"/>
			<rect x="1312.5" y="281.5" fill="#C8C8C8" stroke="#C8C8C8" stroke-miterlimit="10" width="18" height="2"/>
			<rect x="1309.5" y="267.5" fill="#C8C8C8" stroke="#999999" stroke-miterlimit="10" width="3" height="22"/>
			<rect x="1330.5" y="267.5" fill="#C8C8C8" stroke="#999999" stroke-miterlimit="10" width="4" height="22"/>
			<rect x="1308.5" y="270.061" fill="#C8C8C8" stroke="#C8C8C8" stroke-miterlimit="10" width="0" height="4.394"/>
			<rect x="1334.5" y="270.5" fill="#C8C8C8" stroke="#C8C8C8" stroke-miterlimit="10" width="1" height="4"/>
			<path fill="#999999" stroke="#999999" stroke-miterlimit="10" d="M1344.53,277.784c0,2.52-2.042,4.198-4.562,4.198
				c-0.354,0-0.696-0.482-1.025-0.482h-3.443v-9h3.443c0.33,0,0.671,0.302,1.025,0.302
				C1342.488,272.802,1344.53,275.265,1344.53,277.784z"/>
			<path fill="#C8C8C8" stroke="#C8C8C8" stroke-miterlimit="10" d="M1302.5,276.5v4h-24.42c-2.403,0-4.422-0.026-5.029,0.19
				c-0.122,0.045-0.186-0.002-0.186,0.045c-0.5,0.341-1.104,0.488-1.754,0.488c-1.737,0-3.144-1.435-3.144-3.18
				c0-1.746,1.407-3.172,3.144-3.172c0.65,0,1.254,0.191,1.754,0.53c0,0.046,0.063,0.385,0.184,0.427
				c0.608,0.222,2.646,0.672,5.068,0.672H1302.5z"/>
			<polygon fill="#333333" stroke="#333333" stroke-width="0.25" stroke-miterlimit="10" points="1275.547,278.973 1309.674,244.58 
				1304.472,239.334 1270.343,273.728 1267.273,282.065 			"/>
			<path fill="#C1272D" stroke="#C1272D" stroke-width="0.25" stroke-miterlimit="10" d="M1331.477,217.666
				c2.147,2.146,2.346,5.429,0.443,7.332l-20.963,20.965l-7.776-7.775l20.962-20.965
				C1326.048,215.32,1329.33,215.52,1331.477,217.666z"/>
			<circle fill="#C8C8C8" stroke="#C8C8C8" stroke-width="0.25" stroke-miterlimit="10" cx="1280.039" cy="269.068" r="2.317"/>
			<circle fill="#C8C8C8" stroke="#C8C8C8" stroke-width="0.25" stroke-miterlimit="10" cx="1269.371" cy="257.254" r="2.339"/>
			<circle fill="#C8C8C8" stroke="#C8C8C8" stroke-width="0.25" stroke-miterlimit="10" cx="1340.495" cy="277.784" r="2.281"/>
			<circle fill="#C8C8C8" stroke="#C8C8C8" stroke-width="0.25" stroke-miterlimit="10" cx="1271.184" cy="278.018" r="1.871"/>
			<rect x="1308.5" y="281.776" fill="#C8C8C8" stroke="#C8C8C8" stroke-miterlimit="10" width="0" height="2.929"/>
			<rect x="1334.5" y="281.5" fill="#C8C8C8" stroke="#C8C8C8" stroke-miterlimit="10" width="1" height="3"/>
			<rect x="1262.5" y="292.5" fill="#333333" stroke="#333333" stroke-miterlimit="10" width="35" height="2"/>
		</g>
		<g>
			<path fill="#808080" stroke="#808080" stroke-miterlimit="10" d="M1163.5,248.866c0,7.652,0,21.937,0,28.428
				c0,5.879,3.297,4.206,5.539,4.206c6.138,0,65.887,0,65.887,0c1.802,0,2.136-2.037,2.14-2.922c0-5.057-2.592-5.563-2.592-5.563
				l-65.435-26.153c0,0-2.935-1.515-4.403-1.73C1163.453,245.132,1163.5,246.545,1163.5,248.866z"/>
			<path fill="#E6E6E6" stroke="#999999" stroke-width="0.25" stroke-miterlimit="10" d="M1176.489,255.105
				c0,0,2.952-0.014,4.979-0.014s2.16,2.596,3.043,4.445c0.937,1.755,2.763,1.299,4.994,0c1.854-1.298,10.336-7.838,10.336-7.838
				s1.685-1.561,0.009-4.057c-8.695-10.216-23.361-10.137-23.361-10.137s-14.715-0.079-23.411,10.137
				c-1.677,2.496,0.014,4.057,0.014,4.057s8.483,6.54,10.339,7.838c2.231,1.299,4.06,1.755,4.994,0
				c0.885-1.85,1.018-4.445,3.045-4.445C1173.498,255.091,1176.489,255.105,1176.489,255.105z"/>
			<rect x="1173.5" y="280.5" fill="#808080" stroke="#808080" stroke-miterlimit="10" width="6" height="17"/>
			<circle fill="#999999" stroke="#999999" stroke-width="0.25" stroke-miterlimit="10" cx="1176.465" cy="269.068" r="10.623"/>
			<rect x="1199.5" y="270.5" fill="#999999" stroke="#999999" stroke-miterlimit="10" width="34" height="14"/>
			<rect x="1210.5" y="271.5" fill="#C8C8C8" stroke="#C8C8C8" stroke-miterlimit="10" width="17" height="1"/>
			<rect x="1210.5" y="281.5" fill="#C8C8C8" stroke="#C8C8C8" stroke-miterlimit="10" width="17" height="2"/>
			<rect x="1205.5" y="267.5" fill="#C8C8C8" stroke="#999999" stroke-miterlimit="10" width="5" height="22"/>
			<rect x="1227.5" y="267.5" fill="#C8C8C8" stroke="#999999" stroke-miterlimit="10" width="3" height="22"/>
			<rect x="1203.5" y="270.061" fill="#C8C8C8" stroke="#C8C8C8" stroke-miterlimit="10" width="0" height="4.394"/>
			<rect x="1232.5" y="270.061" fill="#C8C8C8" stroke="#C8C8C8" stroke-miterlimit="10" width="0" height="4.394"/>
			<path fill="#999999" stroke="#999999" stroke-miterlimit="10" d="M1240.957,277.784c0,2.52-2.042,4.198-4.562,4.198
				c-0.354,0-0.695-0.482-1.025-0.482h-1.87v-9h1.87c0.33,0,0.671,0.302,1.025,0.302
				C1238.915,272.802,1240.957,275.265,1240.957,277.784z"/>
			<path fill="#C8C8C8" stroke="#C8C8C8" stroke-miterlimit="10" d="M1198.5,276.5v4h-23.994c-2.403,0-4.423-0.026-5.028,0.19
				c-0.122,0.045-0.186-0.002-0.186,0.045c-0.501,0.341-1.105,0.488-1.754,0.488c-1.738,0-3.145-1.435-3.145-3.18
				c0-1.746,1.407-3.172,3.145-3.172c0.649,0,1.253,0.191,1.754,0.53c0,0.046,0.063,0.385,0.185,0.427
				c0.607,0.222,2.645,0.672,5.067,0.672H1198.5z"/>
			<polygon fill="#333333" stroke="#333333" stroke-width="0.25" stroke-miterlimit="10" points="1171.974,278.973 1206.102,244.58 
				1200.897,239.334 1166.769,273.728 1163.7,282.065 			"/>
			<path fill="#C1272D" stroke="#C1272D" stroke-width="0.25" stroke-miterlimit="10" d="M1227.904,217.666
				c2.147,2.146,2.345,5.429,0.443,7.332l-20.963,20.965l-7.776-7.775l20.963-20.965
				C1222.474,215.32,1225.756,215.52,1227.904,217.666z"/>
			<circle fill="#C8C8C8" stroke="#C8C8C8" stroke-width="0.25" stroke-miterlimit="10" cx="1176.465" cy="269.068" r="2.316"/>
			<circle fill="#C8C8C8" stroke="#C8C8C8" stroke-width="0.25" stroke-miterlimit="10" cx="1165.797" cy="257.254" r="2.34"/>
			<circle fill="#C8C8C8" stroke="#C8C8C8" stroke-width="0.25" stroke-miterlimit="10" cx="1236.921" cy="277.784" r="2.281"/>
			<circle fill="#C8C8C8" stroke="#C8C8C8" stroke-width="0.25" stroke-miterlimit="10" cx="1167.611" cy="278.018" r="1.872"/>
			<rect x="1203.5" y="281.776" fill="#C8C8C8" stroke="#C8C8C8" stroke-miterlimit="10" width="0" height="2.929"/>
			<rect x="1232.5" y="281.776" fill="#C8C8C8" stroke="#C8C8C8" stroke-miterlimit="10" width="0" height="2.929"/>
			<rect x="1158.5" y="292.5" fill="#333333" stroke="#333333" stroke-miterlimit="10" width="36" height="2"/>
		</g>
		<g>
			<path fill="#808080" stroke="#808080" stroke-miterlimit="10" d="M1058.5,248.866c0,7.652,0,21.937,0,28.428
				c0,5.879,4.722,4.206,6.965,4.206c6.139,0,65.888,0,65.888,0c1.802,0,2.135-2.037,2.14-2.922c0-5.057-2.592-5.563-2.592-5.563
				l-65.436-26.153c0,0-3.647-1.515-5.116-1.73C1059.167,245.132,1058.5,246.545,1058.5,248.866z"/>
			<path fill="#E6E6E6" stroke="#999999" stroke-width="0.25" stroke-miterlimit="10" d="M1072.915,255.105
				c0,0,2.952-0.014,4.979-0.014s2.159,2.596,3.042,4.445c0.937,1.755,2.764,1.299,4.994,0c1.855-1.298,10.336-7.838,10.336-7.838
				s1.686-1.561,0.01-4.057c-8.696-10.216-23.361-10.137-23.361-10.137s-14.715-0.079-23.41,10.137
				c-1.678,2.496,0.014,4.057,0.014,4.057s8.482,6.54,10.339,7.838c2.231,1.299,4.06,1.755,4.994,0
				c0.884-1.85,1.017-4.445,3.044-4.445C1069.924,255.091,1072.915,255.105,1072.915,255.105z"/>
			<rect x="1070.5" y="280.5" fill="#808080" stroke="#808080" stroke-miterlimit="10" width="5" height="17"/>
			<circle fill="#999999" stroke="#999999" stroke-width="0.25" stroke-miterlimit="10" cx="1072.891" cy="269.068" r="10.623"/>
			<rect x="1095.5" y="270.5" fill="#999999" stroke="#999999" stroke-miterlimit="10" width="34" height="14"/>
			<rect x="1105.5" y="271.5" fill="#C8C8C8" stroke="#C8C8C8" stroke-miterlimit="10" width="19" height="1"/>
			<rect x="1105.5" y="281.5" fill="#C8C8C8" stroke="#C8C8C8" stroke-miterlimit="10" width="19" height="2"/>
			<rect x="1101.5" y="267.5" fill="#C8C8C8" stroke="#999999" stroke-miterlimit="10" width="4" height="22"/>
			<rect x="1124.5" y="267.5" fill="#C8C8C8" stroke="#999999" stroke-miterlimit="10" width="2" height="22"/>
			<rect x="1100.5" y="270.5" fill="#C8C8C8" stroke="#C8C8C8" stroke-miterlimit="10" width="1" height="4"/>
			<rect x="1128.5" y="270.5" fill="#C8C8C8" stroke="#C8C8C8" stroke-miterlimit="10" width="1" height="4"/>
			<path fill="#999999" stroke="#999999" stroke-miterlimit="10" d="M1137.382,277.784c0,2.52-2.042,4.198-4.562,4.198
				c-0.354,0-0.695-0.482-1.024-0.482h-2.296v-9h2.296c0.33,0,0.671,0.302,1.024,0.302
				C1135.34,272.802,1137.382,275.265,1137.382,277.784z"/>
			<path fill="#C8C8C8" stroke="#C8C8C8" stroke-miterlimit="10" d="M1094.5,276.5v4h-23.567c-2.404,0-4.423-0.026-5.029,0.19
				c-0.121,0.045-0.185-0.002-0.185,0.045c-0.5,0.341-1.105,0.488-1.754,0.488c-1.738,0-3.144-1.435-3.144-3.18
				c0-1.746,1.406-3.172,3.144-3.172c0.649,0,1.254,0.191,1.754,0.53c0,0.046,0.063,0.385,0.184,0.427
				c0.608,0.222,2.646,0.672,5.068,0.672H1094.5z"/>
			<polygon fill="#333333" stroke="#333333" stroke-width="0.25" stroke-miterlimit="10" points="1068.399,278.973 1102.528,244.58 
				1097.323,239.334 1063.195,273.728 1060.125,282.065 			"/>
			<path fill="#C1272D" stroke="#C1272D" stroke-width="0.25" stroke-miterlimit="10" d="M1124.329,217.666
				c2.147,2.146,2.347,5.429,0.443,7.332l-20.963,20.965l-7.776-7.775l20.962-20.965
				C1118.899,215.32,1122.182,215.52,1124.329,217.666z"/>
			<circle fill="#C8C8C8" stroke="#C8C8C8" stroke-width="0.25" stroke-miterlimit="10" cx="1072.891" cy="269.068" r="2.317"/>
			<circle fill="#C8C8C8" stroke="#C8C8C8" stroke-width="0.25" stroke-miterlimit="10" cx="1062.223" cy="257.254" r="2.339"/>
			<circle fill="#C8C8C8" stroke="#C8C8C8" stroke-width="0.25" stroke-miterlimit="10" cx="1133.347" cy="277.784" r="2.282"/>
			<circle fill="#C8C8C8" stroke="#C8C8C8" stroke-width="0.25" stroke-miterlimit="10" cx="1064.037" cy="278.018" r="1.872"/>
			<rect x="1100.5" y="281.5" fill="#C8C8C8" stroke="#C8C8C8" stroke-miterlimit="10" width="1" height="3"/>
			<rect x="1128.5" y="281.5" fill="#C8C8C8" stroke="#C8C8C8" stroke-miterlimit="10" width="1" height="3"/>
			<rect x="1054.5" y="292.5" fill="#333333" stroke="#333333" stroke-miterlimit="10" width="37" height="2"/>
		</g>
		<g>
			<path fill="#808080" stroke="#808080" stroke-miterlimit="10" d="M956.5,248.866c0,7.652,0,21.937,0,28.428
				c0,5.879,3.148,4.206,5.392,4.206c6.138,0,65.886,0,65.886,0c1.802,0,2.136-2.037,2.141-2.922c0-5.057-2.592-5.563-2.592-5.563
				l-65.435-26.153c0,0-2.86-1.515-4.329-1.73C956.379,245.132,956.5,246.545,956.5,248.866z"/>
			<path fill="#E6E6E6" stroke="#999999" stroke-width="0.25" stroke-miterlimit="10" d="M969.34,255.105
				c0,0,2.954-0.014,4.98-0.014c2.028,0,2.16,2.596,3.043,4.445c0.937,1.755,2.763,1.299,4.993,0
				c1.855-1.298,10.337-7.838,10.337-7.838s1.685-1.561,0.008-4.057c-8.694-10.216-23.362-10.137-23.362-10.137
				s-14.714-0.079-23.41,10.137c-1.677,2.496,0.013,4.057,0.013,4.057s8.485,6.54,10.341,7.838c2.231,1.299,4.059,1.755,4.993,0
				c0.884-1.85,1.019-4.445,3.046-4.445C966.35,255.091,969.34,255.105,969.34,255.105z"/>
			<rect x="967.5" y="280.5" fill="#808080" stroke="#808080" stroke-miterlimit="10" width="5" height="17"/>
			<circle fill="#999999" stroke="#999999" stroke-width="0.25" stroke-miterlimit="10" cx="969.316" cy="269.068" r="10.623"/>
			<rect x="992.5" y="270.5" fill="#999999" stroke="#999999" stroke-miterlimit="10" width="34" height="14"/>
			<rect x="1002.5" y="271.5" fill="#C8C8C8" stroke="#C8C8C8" stroke-miterlimit="10" width="17" height="1"/>
			<rect x="1002.5" y="281.5" fill="#C8C8C8" stroke="#C8C8C8" stroke-miterlimit="10" width="17" height="2"/>
			<rect x="997.5" y="267.5" fill="#C8C8C8" stroke="#999999" stroke-miterlimit="10" width="5" height="22"/>
			<rect x="1019.5" y="267.5" fill="#C8C8C8" stroke="#999999" stroke-miterlimit="10" width="4" height="22"/>
			<rect x="996.5" y="270.5" fill="#C8C8C8" stroke="#C8C8C8" stroke-miterlimit="10" width="1" height="4"/>
			<rect x="1023.5" y="270.5" fill="#C8C8C8" stroke="#C8C8C8" stroke-miterlimit="10" width="3" height="4"/>
			<path fill="#999999" stroke="#999999" stroke-miterlimit="10" d="M1033.809,277.784c0,2.52-2.042,4.198-4.562,4.198
				c-0.354,0-0.696-0.482-1.025-0.482h-1.722v-9h1.722c0.329,0,0.671,0.302,1.025,0.302
				C1031.767,272.802,1033.809,275.265,1033.809,277.784z"/>
			<path fill="#C8C8C8" stroke="#C8C8C8" stroke-miterlimit="10" d="M992.5,276.5v4h-25.142c-2.404,0-4.422-0.026-5.028,0.19
				c-0.121,0.045-0.187-0.002-0.187,0.045c-0.5,0.341-1.104,0.488-1.754,0.488c-1.736,0-3.144-1.435-3.144-3.18
				c0-1.746,1.408-3.172,3.144-3.172c0.65,0,1.254,0.191,1.754,0.53c0,0.046,0.064,0.385,0.186,0.427
				c0.606,0.222,2.644,0.672,5.066,0.672H992.5z"/>
			<polygon fill="#333333" stroke="#333333" stroke-width="0.25" stroke-miterlimit="10" points="964.826,278.973 998.954,244.58 
				993.75,239.334 959.622,273.728 956.552,282.065 			"/>
			<path fill="#C1272D" stroke="#C1272D" stroke-width="0.25" stroke-miterlimit="10" d="M1020.756,217.666
				c2.147,2.146,2.345,5.429,0.442,7.332l-20.962,20.965l-7.776-7.775l20.963-20.965
				C1015.326,215.32,1018.608,215.52,1020.756,217.666z"/>
			<circle fill="#C8C8C8" stroke="#C8C8C8" stroke-width="0.25" stroke-miterlimit="10" cx="969.317" cy="269.068" r="2.317"/>
			<circle fill="#C8C8C8" stroke="#C8C8C8" stroke-width="0.25" stroke-miterlimit="10" cx="958.649" cy="257.254" r="2.34"/>
			<circle fill="#C8C8C8" stroke="#C8C8C8" stroke-width="0.25" stroke-miterlimit="10" cx="1029.773" cy="277.784" r="2.281"/>
			<circle fill="#C8C8C8" stroke="#C8C8C8" stroke-width="0.25" stroke-miterlimit="10" cx="960.462" cy="278.018" r="1.872"/>
			<rect x="996.5" y="281.5" fill="#C8C8C8" stroke="#C8C8C8" stroke-miterlimit="10" width="1" height="3"/>
			<rect x="1023.5" y="281.5" fill="#C8C8C8" stroke="#C8C8C8" stroke-miterlimit="10" width="3" height="3"/>
			<rect x="950.5" y="292.5" fill="#333333" stroke="#333333" stroke-miterlimit="10" width="37" height="2"/>
		</g>
		<g>
			<path fill="#808080" stroke="#808080" stroke-miterlimit="10" d="M852.5,248.866c0,7.652,0,21.937,0,28.428
				c0,5.879,3.574,4.206,5.817,4.206c6.139,0,65.887,0,65.887,0c1.802,0,2.135-2.037,2.14-2.922c0-5.057-2.591-5.563-2.591-5.563
				l-65.436-26.153c0,0-3.073-1.515-4.542-1.73C852.593,245.132,852.5,246.545,852.5,248.866z"/>
			<path fill="#E6E6E6" stroke="#999999" stroke-width="0.25" stroke-miterlimit="10" d="M865.767,255.105
				c0,0,2.952-0.014,4.979-0.014c2.027,0,2.16,2.596,3.044,4.445c0.937,1.755,2.764,1.299,4.993,0
				c1.856-1.298,10.338-7.838,10.338-7.838s1.686-1.561,0.008-4.057c-8.697-10.216-23.362-10.137-23.362-10.137
				s-14.714-0.079-23.411,10.137c-1.677,2.496,0.014,4.057,0.014,4.057s8.484,6.54,10.341,7.838c2.23,1.299,4.059,1.755,4.993,0
				c0.884-1.85,1.02-4.445,3.046-4.445C862.775,255.091,865.767,255.105,865.767,255.105z"/>
			<rect x="862.5" y="280.5" fill="#808080" stroke="#808080" stroke-miterlimit="10" width="7" height="17"/>
			<circle fill="#999999" stroke="#999999" stroke-width="0.25" stroke-miterlimit="10" cx="865.742" cy="269.068" r="10.623"/>
			<rect x="889.5" y="270.5" fill="#999999" stroke="#999999" stroke-miterlimit="10" width="33" height="14"/>
			<rect x="898.5" y="271.5" fill="#C8C8C8" stroke="#C8C8C8" stroke-miterlimit="10" width="17" height="1"/>
			<rect x="898.5" y="281.5" fill="#C8C8C8" stroke="#C8C8C8" stroke-miterlimit="10" width="17" height="2"/>
			<rect x="895.5" y="267.5" fill="#C8C8C8" stroke="#999999" stroke-miterlimit="10" width="3" height="22"/>
			<rect x="915.5" y="267.5" fill="#C8C8C8" stroke="#999999" stroke-miterlimit="10" width="5" height="22"/>
			<rect x="894.5" y="270.061" fill="#C8C8C8" stroke="#C8C8C8" stroke-miterlimit="10" width="0" height="4.394"/>
			<rect x="921.5" y="270.061" fill="#C8C8C8" stroke="#C8C8C8" stroke-miterlimit="10" width="0" height="4.394"/>
			<path fill="#999999" stroke="#999999" stroke-miterlimit="10" d="M930.235,277.784c0,2.52-2.043,4.198-4.563,4.198
				c-0.353,0-0.695-0.482-1.025-0.482H922.5v-9h2.148c0.33,0,0.672,0.302,1.025,0.302
				C928.192,272.802,930.235,275.265,930.235,277.784z"/>
			<path fill="#C8C8C8" stroke="#C8C8C8" stroke-miterlimit="10" d="M887.5,276.5v4h-23.716c-2.404,0-4.423-0.026-5.028,0.19
				c-0.121,0.045-0.186-0.002-0.186,0.045c-0.501,0.341-1.105,0.488-1.754,0.488c-1.736,0-3.143-1.435-3.143-3.18
				c0-1.746,1.407-3.172,3.143-3.172c0.649,0,1.253,0.191,1.754,0.53c0,0.046,0.063,0.385,0.186,0.427
				c0.606,0.222,2.645,0.672,5.066,0.672H887.5z"/>
			<polygon fill="#333333" stroke="#333333" stroke-width="0.25" stroke-miterlimit="10" points="861.251,278.973 895.379,244.58 
				890.175,239.334 856.048,273.728 852.978,282.065 			"/>
			<path fill="#C1272D" stroke="#C1272D" stroke-width="0.25" stroke-miterlimit="10" d="M917.181,217.666
				c2.148,2.146,2.347,5.429,0.443,7.332l-20.963,20.965l-7.776-7.775l20.962-20.965C911.752,215.32,915.035,215.52,917.181,217.666
				z"/>
			<circle fill="#C8C8C8" stroke="#C8C8C8" stroke-width="0.25" stroke-miterlimit="10" cx="865.743" cy="269.068" r="2.316"/>
			<circle fill="#C8C8C8" stroke="#C8C8C8" stroke-width="0.25" stroke-miterlimit="10" cx="855.075" cy="257.254" r="2.339"/>
			<circle fill="#C8C8C8" stroke="#C8C8C8" stroke-width="0.25" stroke-miterlimit="10" cx="926.199" cy="277.784" r="2.282"/>
			<circle fill="#C8C8C8" stroke="#C8C8C8" stroke-width="0.25" stroke-miterlimit="10" cx="856.888" cy="278.018" r="1.872"/>
			<rect x="894.5" y="281.776" fill="#C8C8C8" stroke="#C8C8C8" stroke-miterlimit="10" width="0" height="2.929"/>
			<rect x="921.5" y="281.776" fill="#C8C8C8" stroke="#C8C8C8" stroke-miterlimit="10" width="0" height="2.929"/>
			<rect x="848.5" y="292.5" fill="#333333" stroke="#333333" stroke-miterlimit="10" width="35" height="2"/>
		</g>
		<g>
			<path fill="#808080" stroke="#808080" stroke-miterlimit="10" d="M749.5,248.866c0,7.652,0,21.937,0,28.428
				c0,5.879,3,4.206,5.244,4.206c6.138,0,65.886,0,65.886,0c1.802,0,2.135-2.037,2.141-2.922c0-5.057-2.592-5.563-2.592-5.563
				l-65.435-26.153c0,0-2.788-1.515-4.255-1.73C749.307,245.132,749.5,246.545,749.5,248.866z"/>
			<path fill="#E6E6E6" stroke="#999999" stroke-width="0.25" stroke-miterlimit="10" d="M762.192,255.105
				c0,0,2.953-0.014,4.979-0.014c2.027,0,2.159,2.596,3.043,4.445c0.937,1.755,2.763,1.299,4.993,0
				c1.856-1.298,10.338-7.838,10.338-7.838s1.685-1.561,0.008-4.057c-8.696-10.216-23.362-10.137-23.362-10.137
				s-14.714-0.079-23.41,10.137c-1.677,2.496,0.014,4.057,0.014,4.057s8.484,6.54,10.34,7.838c2.23,1.299,4.06,1.755,4.993,0
				c0.885-1.85,1.019-4.445,3.046-4.445C759.202,255.091,762.192,255.105,762.192,255.105z"/>
			<rect x="760.5" y="280.5" fill="#808080" stroke="#808080" stroke-miterlimit="10" width="4" height="17"/>
			<circle fill="#999999" stroke="#999999" stroke-width="0.25" stroke-miterlimit="10" cx="762.168" cy="269.068" r="10.623"/>
			<rect x="785.5" y="270.5" fill="#999999" stroke="#999999" stroke-miterlimit="10" width="33" height="14"/>
			<rect x="796.5" y="271.5" fill="#C8C8C8" stroke="#C8C8C8" stroke-miterlimit="10" width="17" height="1"/>
			<rect x="796.5" y="281.5" fill="#C8C8C8" stroke="#C8C8C8" stroke-miterlimit="10" width="17" height="2"/>
			<rect x="790.5" y="267.5" fill="#C8C8C8" stroke="#999999" stroke-miterlimit="10" width="6" height="22"/>
			<rect x="813.5" y="267.5" fill="#C8C8C8" stroke="#999999" stroke-miterlimit="10" width="2" height="22"/>
			<rect x="789.5" y="270.061" fill="#C8C8C8" stroke="#C8C8C8" stroke-miterlimit="10" width="0" height="4.394"/>
			<rect x="817.5" y="270.061" fill="#C8C8C8" stroke="#C8C8C8" stroke-miterlimit="10" width="0" height="4.394"/>
			<path fill="#999999" stroke="#999999" stroke-miterlimit="10" d="M826.661,277.784c0,2.52-2.042,4.198-4.562,4.198
				c-0.354,0-0.696-0.482-1.025-0.482H818.5v-9h2.574c0.329,0,0.671,0.302,1.025,0.302
				C824.619,272.802,826.661,275.265,826.661,277.784z"/>
			<path fill="#C8C8C8" stroke="#C8C8C8" stroke-miterlimit="10" d="M784.5,276.5v4h-24.29c-2.404,0-4.422-0.026-5.029,0.19
				c-0.12,0.045-0.186-0.002-0.186,0.045c-0.5,0.341-1.104,0.488-1.753,0.488c-1.736,0-3.144-1.435-3.144-3.18
				c0-1.746,1.407-3.172,3.144-3.172c0.649,0,1.254,0.191,1.753,0.53c0,0.046,0.063,0.385,0.186,0.427
				c0.607,0.222,2.645,0.672,5.066,0.672H784.5z"/>
			<polygon fill="#333333" stroke="#333333" stroke-width="0.25" stroke-miterlimit="10" points="757.678,278.973 791.806,244.58 
				786.601,239.334 752.474,273.728 749.404,282.065 			"/>
			<path fill="#C1272D" stroke="#C1272D" stroke-width="0.25" stroke-miterlimit="10" d="M813.607,217.666
				c2.148,2.146,2.346,5.429,0.443,7.332l-20.962,20.965l-7.776-7.775l20.962-20.965C808.177,215.32,811.461,215.52,813.607,217.666
				z"/>
			<circle fill="#C8C8C8" stroke="#C8C8C8" stroke-width="0.25" stroke-miterlimit="10" cx="762.169" cy="269.068" r="2.317"/>
			<circle fill="#C8C8C8" stroke="#C8C8C8" stroke-width="0.25" stroke-miterlimit="10" cx="751.501" cy="257.254" r="2.34"/>
			<circle fill="#C8C8C8" stroke="#C8C8C8" stroke-width="0.25" stroke-miterlimit="10" cx="822.625" cy="277.784" r="2.281"/>
			<circle fill="#C8C8C8" stroke="#C8C8C8" stroke-width="0.25" stroke-miterlimit="10" cx="753.314" cy="278.018" r="1.872"/>
			<rect x="789.5" y="281.776" fill="#C8C8C8" stroke="#C8C8C8" stroke-miterlimit="10" width="0" height="2.929"/>
			<rect x="817.5" y="281.776" fill="#C8C8C8" stroke="#C8C8C8" stroke-miterlimit="10" width="0" height="2.929"/>
			<rect x="743.5" y="292.5" fill="#333333" stroke="#333333" stroke-miterlimit="10" width="37" height="2"/>
		</g>
		<g>
			<path fill="#808080" stroke="#808080" stroke-miterlimit="10" d="M644.5,248.866c0,7.652,0,21.937,0,28.428
				c0,5.879,4.426,4.206,6.669,4.206c6.139,0,65.886,0,65.886,0c1.803,0,2.136-2.037,2.14-2.922c0-5.057-2.592-5.563-2.592-5.563
				l-65.435-26.153c0,0-3.499-1.515-4.968-1.73C645.019,245.132,644.5,246.545,644.5,248.866z"/>
			<path fill="#E6E6E6" stroke="#999999" stroke-width="0.25" stroke-miterlimit="10" d="M658.619,255.105
				c0,0,2.952-0.014,4.979-0.014c2.027,0,2.159,2.596,3.043,4.445c0.938,1.755,2.764,1.299,4.994,0
				c1.856-1.298,10.338-7.838,10.338-7.838s1.685-1.561,0.008-4.057c-8.696-10.216-23.361-10.137-23.361-10.137
				s-14.714-0.079-23.412,10.137c-1.676,2.496,0.014,4.057,0.014,4.057s8.484,6.54,10.34,7.838c2.23,1.299,4.06,1.755,4.994,0
				c0.884-1.85,1.018-4.445,3.045-4.445C655.627,255.091,658.619,255.105,658.619,255.105z"/>
			<rect x="656.5" y="280.5" fill="#808080" stroke="#808080" stroke-miterlimit="10" width="4" height="17"/>
			<circle fill="#999999" stroke="#999999" stroke-width="0.25" stroke-miterlimit="10" cx="658.595" cy="269.068" r="10.622"/>
			<rect x="681.5" y="270.5" fill="#999999" stroke="#999999" stroke-miterlimit="10" width="34" height="14"/>
			<rect x="691.5" y="271.5" fill="#C8C8C8" stroke="#C8C8C8" stroke-miterlimit="10" width="17" height="1"/>
			<rect x="691.5" y="281.5" fill="#C8C8C8" stroke="#C8C8C8" stroke-miterlimit="10" width="17" height="2"/>
			<rect x="687.5" y="267.5" fill="#C8C8C8" stroke="#999999" stroke-miterlimit="10" width="4" height="22"/>
			<rect x="708.5" y="267.5" fill="#C8C8C8" stroke="#999999" stroke-miterlimit="10" width="5" height="22"/>
			<rect x="686.5" y="270.5" fill="#C8C8C8" stroke="#C8C8C8" stroke-miterlimit="10" width="1" height="4"/>
			<rect x="713.5" y="270.5" fill="#C8C8C8" stroke="#C8C8C8" stroke-miterlimit="10" width="2" height="4"/>
			<path fill="#999999" stroke="#999999" stroke-miterlimit="10" d="M723.088,277.784c0,2.52-2.044,4.198-4.563,4.198
				c-0.353,0-0.695-0.482-1.025-0.482h-2v-9h2c0.331,0,0.672,0.302,1.025,0.302C721.044,272.802,723.088,275.265,723.088,277.784z"
				/>
			<path fill="#C8C8C8" stroke="#C8C8C8" stroke-miterlimit="10" d="M681.5,276.5v4h-24.863c-2.404,0-4.422-0.026-5.029,0.19
				c-0.12,0.045-0.186-0.002-0.186,0.045c-0.5,0.341-1.103,0.488-1.753,0.488c-1.737,0-3.143-1.435-3.143-3.18
				c0-1.746,1.406-3.172,3.143-3.172c0.65,0,1.253,0.191,1.753,0.53c0,0.046,0.063,0.385,0.186,0.427
				c0.607,0.222,2.645,0.672,5.066,0.672H681.5z"/>
			<polygon fill="#333333" stroke="#333333" stroke-width="0.25" stroke-miterlimit="10" points="654.104,278.973 688.231,244.58 
				683.027,239.334 648.899,273.728 645.83,282.065 			"/>
			<path fill="#C1272D" stroke="#C1272D" stroke-width="0.25" stroke-miterlimit="10" d="M710.034,217.666
				c2.148,2.146,2.346,5.429,0.443,7.332l-20.963,20.965l-7.775-7.775l20.961-20.965C704.604,215.32,707.887,215.52,710.034,217.666
				z"/>
			<circle fill="#C8C8C8" stroke="#C8C8C8" stroke-width="0.25" stroke-miterlimit="10" cx="658.595" cy="269.068" r="2.316"/>
			<circle fill="#C8C8C8" stroke="#C8C8C8" stroke-width="0.25" stroke-miterlimit="10" cx="647.928" cy="257.254" r="2.339"/>
			<circle fill="#C8C8C8" stroke="#C8C8C8" stroke-width="0.25" stroke-miterlimit="10" cx="719.052" cy="277.784" r="2.282"/>
			<circle fill="#C8C8C8" stroke="#C8C8C8" stroke-width="0.25" stroke-miterlimit="10" cx="649.741" cy="278.018" r="1.872"/>
			<rect x="686.5" y="281.5" fill="#C8C8C8" stroke="#C8C8C8" stroke-miterlimit="10" width="1" height="3"/>
			<rect x="713.5" y="281.5" fill="#C8C8C8" stroke="#C8C8C8" stroke-miterlimit="10" width="2" height="3"/>
			<rect x="640.5" y="292.5" fill="#333333" stroke="#333333" stroke-miterlimit="10" width="37" height="2"/>
		</g>
		<g>
			<path fill="#808080" stroke="#808080" stroke-miterlimit="10" d="M542.5,248.866c0,7.652,0,21.937,0,28.428
				c0,5.879,2.852,4.206,5.096,4.206c6.138,0,65.886,0,65.886,0c1.803,0,2.135-2.037,2.141-2.922c0-5.057-2.592-5.563-2.592-5.563
				l-65.435-26.153c0,0-2.713-1.515-4.182-1.73C542.232,245.132,542.5,246.545,542.5,248.866z"/>
			<path fill="#E6E6E6" stroke="#999999" stroke-width="0.25" stroke-miterlimit="10" d="M555.045,255.105
				c0,0,2.952-0.014,4.979-0.014c2.028,0,2.16,2.596,3.043,4.445c0.937,1.755,2.763,1.299,4.993,0
				c1.856-1.298,10.338-7.838,10.338-7.838s1.685-1.561,0.008-4.057c-8.696-10.216-23.361-10.137-23.361-10.137
				s-14.715-0.079-23.412,10.137c-1.676,2.496,0.014,4.057,0.014,4.057s8.484,6.54,10.34,7.838c2.23,1.299,4.059,1.755,4.994,0
				c0.884-1.85,1.019-4.445,3.046-4.445C552.054,255.091,555.045,255.105,555.045,255.105z"/>
			<rect x="552.5" y="280.5" fill="#808080" stroke="#808080" stroke-miterlimit="10" width="6" height="17"/>
			<circle fill="#999999" stroke="#999999" stroke-width="0.25" stroke-miterlimit="10" cx="555.021" cy="269.068" r="10.623"/>
			<rect x="577.5" y="270.5" fill="#999999" stroke="#999999" stroke-miterlimit="10" width="33" height="14"/>
			<rect x="587.5" y="271.5" fill="#C8C8C8" stroke="#C8C8C8" stroke-miterlimit="10" width="18" height="1"/>
			<rect x="587.5" y="281.5" fill="#C8C8C8" stroke="#C8C8C8" stroke-miterlimit="10" width="18" height="2"/>
			<rect x="584.5" y="267.5" fill="#C8C8C8" stroke="#999999" stroke-miterlimit="10" width="3" height="22"/>
			<rect x="605.5" y="267.5" fill="#C8C8C8" stroke="#999999" stroke-miterlimit="10" width="4" height="22"/>
			<rect x="583.5" y="270.061" fill="#C8C8C8" stroke="#C8C8C8" stroke-miterlimit="10" width="0" height="4.394"/>
			<rect x="609.5" y="270.5" fill="#C8C8C8" stroke="#C8C8C8" stroke-miterlimit="10" width="1" height="4"/>
			<path fill="#999999" stroke="#999999" stroke-miterlimit="10" d="M619.513,277.784c0,2.52-2.042,4.198-4.561,4.198
				c-0.354,0-0.696-0.482-1.025-0.482H610.5v-9h3.426c0.329,0,0.671,0.302,1.025,0.302
				C617.471,272.802,619.513,275.265,619.513,277.784z"/>
			<path fill="#C8C8C8" stroke="#C8C8C8" stroke-miterlimit="10" d="M577.5,276.5v4h-24.438c-2.404,0-4.421-0.026-5.028,0.19
				c-0.121,0.045-0.186-0.002-0.186,0.045c-0.5,0.341-1.103,0.488-1.753,0.488c-1.736,0-3.144-1.435-3.144-3.18
				c0-1.746,1.408-3.172,3.144-3.172c0.65,0,1.253,0.191,1.753,0.53c0,0.046,0.064,0.385,0.185,0.427
				c0.608,0.222,2.644,0.672,5.067,0.672H577.5z"/>
			<polygon fill="#333333" stroke="#333333" stroke-width="0.25" stroke-miterlimit="10" points="550.53,278.973 584.657,244.58 
				579.454,239.334 545.326,273.728 542.256,282.065 			"/>
			<path fill="#C1272D" stroke="#C1272D" stroke-width="0.25" stroke-miterlimit="10" d="M606.46,217.666
				c2.147,2.146,2.346,5.429,0.443,7.332l-20.962,20.965l-7.776-7.775l20.962-20.965C601.03,215.32,604.313,215.52,606.46,217.666z"
				/>
			<circle fill="#C8C8C8" stroke="#C8C8C8" stroke-width="0.25" stroke-miterlimit="10" cx="555.021" cy="269.068" r="2.317"/>
			<circle fill="#C8C8C8" stroke="#C8C8C8" stroke-width="0.25" stroke-miterlimit="10" cx="544.354" cy="257.254" r="2.339"/>
			<circle fill="#C8C8C8" stroke="#C8C8C8" stroke-width="0.25" stroke-miterlimit="10" cx="615.478" cy="277.784" r="2.281"/>
			<circle fill="#C8C8C8" stroke="#C8C8C8" stroke-width="0.25" stroke-miterlimit="10" cx="546.167" cy="278.018" r="1.871"/>
			<rect x="583.5" y="281.776" fill="#C8C8C8" stroke="#C8C8C8" stroke-miterlimit="10" width="0" height="2.929"/>
			<rect x="609.5" y="281.5" fill="#C8C8C8" stroke="#C8C8C8" stroke-miterlimit="10" width="1" height="3"/>
			<rect x="537.5" y="292.5" fill="#333333" stroke="#333333" stroke-miterlimit="10" width="35" height="2"/>
		</g>
		<g>
			<path fill="#808080" stroke="#808080" stroke-miterlimit="10" d="M438.5,248.866c0,7.652,0,21.937,0,28.428
				c0,5.879,3.279,4.206,5.522,4.206c6.139,0,65.887,0,65.887,0c1.803,0,2.136-2.037,2.14-2.922c0-5.057-2.591-5.563-2.591-5.563
				l-65.435-26.153c0,0-2.925-1.515-4.394-1.73C438.445,245.132,438.5,246.545,438.5,248.866z"/>
			<path fill="#E6E6E6" stroke="#999999" stroke-width="0.25" stroke-miterlimit="10" d="M451.471,255.105
				c0,0,2.953-0.014,4.98-0.014c2.027,0,2.16,2.596,3.043,4.445c0.937,1.755,2.763,1.299,4.992,0
				c1.855-1.298,10.338-7.838,10.338-7.838s1.685-1.561,0.009-4.057c-8.696-10.216-23.362-10.137-23.362-10.137
				s-14.714-0.079-23.41,10.137c-1.677,2.496,0.013,4.057,0.013,4.057s8.484,6.54,10.34,7.838c2.231,1.299,4.06,1.755,4.995,0
				c0.884-1.85,1.018-4.445,3.045-4.445C448.479,255.091,451.471,255.105,451.471,255.105z"/>
			<rect x="448.5" y="280.5" fill="#808080" stroke="#808080" stroke-miterlimit="10" width="5" height="17"/>
			<circle fill="#999999" stroke="#999999" stroke-width="0.25" stroke-miterlimit="10" cx="451.447" cy="269.068" r="10.622"/>
			<rect x="474.5" y="270.5" fill="#999999" stroke="#999999" stroke-miterlimit="10" width="34" height="14"/>
			<rect x="483.5" y="271.5" fill="#C8C8C8" stroke="#C8C8C8" stroke-miterlimit="10" width="19" height="1"/>
			<rect x="483.5" y="281.5" fill="#C8C8C8" stroke="#C8C8C8" stroke-miterlimit="10" width="19" height="2"/>
			<rect x="481.5" y="267.5" fill="#C8C8C8" stroke="#999999" stroke-miterlimit="10" width="2" height="22"/>
			<rect x="502.5" y="267.5" fill="#C8C8C8" stroke="#999999" stroke-miterlimit="10" width="3" height="22"/>
			<rect x="478.5" y="270.061" fill="#C8C8C8" stroke="#C8C8C8" stroke-miterlimit="10" width="0" height="4.394"/>
			<rect x="507.5" y="270.061" fill="#C8C8C8" stroke="#C8C8C8" stroke-miterlimit="10" width="0" height="4.394"/>
			<path fill="#999999" stroke="#999999" stroke-miterlimit="10" d="M515.94,277.784c0,2.52-2.043,4.198-4.563,4.198
				c-0.354,0-0.695-0.482-1.025-0.482H508.5v-9h1.852c0.33,0,0.671,0.302,1.025,0.302
				C513.897,272.802,515.94,275.265,515.94,277.784z"/>
			<path fill="#C8C8C8" stroke="#C8C8C8" stroke-miterlimit="10" d="M473.5,276.5v4h-24.011c-2.403,0-4.422-0.026-5.028,0.19
				c-0.121,0.045-0.188-0.002-0.188,0.045c-0.5,0.341-1.103,0.488-1.752,0.488c-1.737,0-3.144-1.435-3.144-3.18
				c0-1.746,1.406-3.172,3.144-3.172c0.65,0,1.253,0.191,1.752,0.53c0,0.046,0.064,0.385,0.186,0.427
				c0.607,0.222,2.645,0.672,5.066,0.672H473.5z"/>
			<polygon fill="#333333" stroke="#333333" stroke-width="0.25" stroke-miterlimit="10" points="446.957,278.973 481.083,244.58 
				475.88,239.334 441.752,273.728 438.683,282.065 			"/>
			<path fill="#C1272D" stroke="#C1272D" stroke-width="0.25" stroke-miterlimit="10" d="M502.887,217.666
				c2.147,2.146,2.346,5.429,0.443,7.332l-20.964,20.965l-7.774-7.775l20.961-20.965C497.456,215.32,500.739,215.52,502.887,217.666
				z"/>
			<circle fill="#C8C8C8" stroke="#C8C8C8" stroke-width="0.25" stroke-miterlimit="10" cx="451.448" cy="269.068" r="2.316"/>
			<circle fill="#C8C8C8" stroke="#C8C8C8" stroke-width="0.25" stroke-miterlimit="10" cx="440.78" cy="257.254" r="2.339"/>
			<circle fill="#C8C8C8" stroke="#C8C8C8" stroke-width="0.25" stroke-miterlimit="10" cx="511.904" cy="277.784" r="2.281"/>
			<circle fill="#C8C8C8" stroke="#C8C8C8" stroke-width="0.25" stroke-miterlimit="10" cx="442.594" cy="278.018" r="1.871"/>
			<rect x="478.5" y="281.776" fill="#C8C8C8" stroke="#C8C8C8" stroke-miterlimit="10" width="0" height="2.929"/>
			<rect x="507.5" y="281.776" fill="#C8C8C8" stroke="#C8C8C8" stroke-miterlimit="10" width="0" height="2.929"/>
			<rect x="434.5" y="292.5" fill="#333333" stroke="#333333" stroke-miterlimit="10" width="36" height="2"/>
		</g>
		<g>
			<path fill="#808080" stroke="#808080" stroke-miterlimit="10" d="M334.5,248.866c0,7.652,0,21.937,0,28.428
				c0,5.879,3.705,4.206,5.948,4.206c6.138,0,65.886,0,65.886,0c1.803,0,2.135-2.037,2.141-2.922c0-5.057-2.591-5.563-2.591-5.563
				l-65.436-26.153c0,0-3.14-1.515-4.607-1.73C334.659,245.132,334.5,246.545,334.5,248.866z"/>
			<path fill="#E6E6E6" stroke="#999999" stroke-width="0.25" stroke-miterlimit="10" d="M347.897,255.105
				c0,0,2.953-0.014,4.98-0.014c2.027,0,2.159,2.596,3.042,4.445c0.937,1.755,2.763,1.299,4.993,0
				c1.855-1.298,10.338-7.838,10.338-7.838s1.684-1.561,0.008-4.057c-8.697-10.216-23.362-10.137-23.362-10.137
				s-14.715-0.079-23.411,10.137c-1.676,2.496,0.014,4.057,0.014,4.057s8.484,6.54,10.34,7.838c2.23,1.299,4.059,1.755,4.994,0
				c0.884-1.85,1.018-4.445,3.044-4.445C344.906,255.091,347.897,255.105,347.897,255.105z"/>
			<rect x="346.5" y="280.5" fill="#808080" stroke="#808080" stroke-miterlimit="10" width="4" height="17"/>
			<circle fill="#999999" stroke="#999999" stroke-width="0.25" stroke-miterlimit="10" cx="347.873" cy="269.068" r="10.623"/>
			<rect x="371.5" y="270.5" fill="#999999" stroke="#999999" stroke-miterlimit="10" width="33" height="14"/>
			<rect x="380.5" y="271.5" fill="#C8C8C8" stroke="#C8C8C8" stroke-miterlimit="10" width="18" height="1"/>
			<rect x="380.5" y="281.5" fill="#C8C8C8" stroke="#C8C8C8" stroke-miterlimit="10" width="18" height="2"/>
			<rect x="376.5" y="267.5" fill="#C8C8C8" stroke="#999999" stroke-miterlimit="10" width="4" height="22"/>
			<rect x="398.5" y="267.5" fill="#C8C8C8" stroke="#999999" stroke-miterlimit="10" width="3" height="22"/>
			<rect x="375.5" y="270.5" fill="#C8C8C8" stroke="#C8C8C8" stroke-miterlimit="10" width="1" height="4"/>
			<rect x="402.5" y="270.061" fill="#C8C8C8" stroke="#C8C8C8" stroke-miterlimit="10" width="0" height="4.394"/>
			<path fill="#999999" stroke="#999999" stroke-miterlimit="10" d="M412.365,277.784c0,2.52-2.042,4.198-4.561,4.198
				c-0.354,0-0.695-0.482-1.025-0.482H404.5v-9h2.279c0.33,0,0.671,0.302,1.025,0.302
				C410.323,272.802,412.365,275.265,412.365,277.784z"/>
			<path fill="#C8C8C8" stroke="#C8C8C8" stroke-miterlimit="10" d="M368.5,276.5v4h-22.586c-2.403,0-4.421-0.026-5.027,0.19
				c-0.121,0.045-0.187-0.002-0.187,0.045c-0.499,0.341-1.104,0.488-1.753,0.488c-1.737,0-3.144-1.435-3.144-3.18
				c0-1.746,1.407-3.172,3.144-3.172c0.649,0,1.254,0.191,1.753,0.53c0,0.046,0.064,0.385,0.186,0.427
				c0.607,0.222,2.644,0.672,5.067,0.672H368.5z"/>
			<polygon fill="#333333" stroke="#333333" stroke-width="0.25" stroke-miterlimit="10" points="343.382,278.973 377.51,244.58 
				372.306,239.334 338.178,273.728 335.108,282.065 			"/>
			<path fill="#C1272D" stroke="#C1272D" stroke-width="0.25" stroke-miterlimit="10" d="M399.313,217.666
				c2.147,2.146,2.346,5.429,0.442,7.332l-20.963,20.965l-7.775-7.775l20.962-20.965C393.883,215.32,397.165,215.52,399.313,217.666
				z"/>
			<circle fill="#C8C8C8" stroke="#C8C8C8" stroke-width="0.25" stroke-miterlimit="10" cx="347.874" cy="269.068" r="2.317"/>
			<circle fill="#C8C8C8" stroke="#C8C8C8" stroke-width="0.25" stroke-miterlimit="10" cx="337.206" cy="257.254" r="2.339"/>
			<circle fill="#C8C8C8" stroke="#C8C8C8" stroke-width="0.25" stroke-miterlimit="10" cx="408.33" cy="277.784" r="2.281"/>
			<circle fill="#C8C8C8" stroke="#C8C8C8" stroke-width="0.25" stroke-miterlimit="10" cx="339.019" cy="278.018" r="1.871"/>
			<rect x="375.5" y="281.5" fill="#C8C8C8" stroke="#C8C8C8" stroke-miterlimit="10" width="1" height="3"/>
			<rect x="402.5" y="281.776" fill="#C8C8C8" stroke="#C8C8C8" stroke-miterlimit="10" width="0" height="2.929"/>
			<rect x="329.5" y="292.5" fill="#333333" stroke="#333333" stroke-miterlimit="10" width="37" height="2"/>
		</g>
		<g>
			<path fill="#808080" stroke="#808080" stroke-miterlimit="10" d="M231.5,248.866c0,7.652,0,21.937,0,28.428
				c0,5.879,3.131,4.206,5.374,4.206c6.138,0,65.886,0,65.886,0c1.803,0,2.135-2.037,2.141-2.922c0-5.057-2.592-5.563-2.592-5.563
				l-65.435-26.153c0,0-2.853-1.515-4.32-1.73C231.372,245.132,231.5,246.545,231.5,248.866z"/>
			<path fill="#E6E6E6" stroke="#999999" stroke-width="0.25" stroke-miterlimit="10" d="M244.323,255.105
				c0,0,2.954-0.014,4.98-0.014c2.027,0,2.159,2.596,3.044,4.445c0.936,1.755,2.763,1.299,4.992,0
				c1.855-1.298,10.338-7.838,10.338-7.838s1.685-1.561,0.009-4.057c-8.697-10.216-23.363-10.137-23.363-10.137
				s-14.714-0.079-23.41,10.137c-1.677,2.496,0.013,4.057,0.013,4.057s8.485,6.54,10.34,7.838c2.23,1.299,4.06,1.755,4.995,0
				c0.883-1.85,1.018-4.445,3.045-4.445C241.333,255.091,244.323,255.105,244.323,255.105z"/>
			<rect x="242.5" y="280.5" fill="#808080" stroke="#808080" stroke-miterlimit="10" width="5" height="17"/>
			<circle fill="#999999" stroke="#999999" stroke-width="0.25" stroke-miterlimit="10" cx="244.3" cy="269.068" r="10.623"/>
			<rect x="266.5" y="270.5" fill="#999999" stroke="#999999" stroke-miterlimit="10" width="34" height="14"/>
			<rect x="277.5" y="271.5" fill="#C8C8C8" stroke="#C8C8C8" stroke-miterlimit="10" width="17" height="1"/>
			<rect x="277.5" y="281.5" fill="#C8C8C8" stroke="#C8C8C8" stroke-miterlimit="10" width="17" height="2"/>
			<rect x="273.5" y="267.5" fill="#C8C8C8" stroke="#999999" stroke-miterlimit="10" width="4" height="22"/>
			<rect x="294.5" y="267.5" fill="#C8C8C8" stroke="#999999" stroke-miterlimit="10" width="5" height="22"/>
			<rect x="270.5" y="270.5" fill="#C8C8C8" stroke="#C8C8C8" stroke-miterlimit="10" width="3" height="4"/>
			<rect x="299.5" y="270.5" fill="#C8C8C8" stroke="#C8C8C8" stroke-miterlimit="10" width="1" height="4"/>
			<path fill="#999999" stroke="#999999" stroke-miterlimit="10" d="M308.792,277.784c0,2.52-2.043,4.198-4.562,4.198
				c-0.355,0-0.696-0.482-1.025-0.482H300.5v-9h2.705c0.329,0,0.67,0.302,1.025,0.302
				C306.749,272.802,308.792,275.265,308.792,277.784z"/>
			<path fill="#C8C8C8" stroke="#C8C8C8" stroke-miterlimit="10" d="M266.5,276.5v4h-24.159c-2.403,0-4.422-0.026-5.028,0.19
				c-0.121,0.045-0.186-0.002-0.186,0.045c-0.5,0.341-1.104,0.488-1.753,0.488c-1.736,0-3.144-1.435-3.144-3.18
				c0-1.746,1.408-3.172,3.144-3.172c0.65,0,1.253,0.191,1.753,0.53c0,0.046,0.063,0.385,0.186,0.427
				c0.607,0.222,2.645,0.672,5.066,0.672H266.5z"/>
			<polygon fill="#333333" stroke="#333333" stroke-width="0.25" stroke-miterlimit="10" points="239.809,278.973 273.935,244.58 
				268.732,239.334 234.605,273.728 231.534,282.065 			"/>
			<path fill="#C1272D" stroke="#C1272D" stroke-width="0.25" stroke-miterlimit="10" d="M295.739,217.666
				c2.147,2.146,2.346,5.429,0.443,7.332l-20.963,20.965l-7.775-7.775l20.962-20.965C290.308,215.32,293.591,215.52,295.739,217.666
				z"/>
			<circle fill="#C8C8C8" stroke="#C8C8C8" stroke-width="0.25" stroke-miterlimit="10" cx="244.3" cy="269.068" r="2.317"/>
			<circle fill="#C8C8C8" stroke="#C8C8C8" stroke-width="0.25" stroke-miterlimit="10" cx="233.632" cy="257.254" r="2.34"/>
			<circle fill="#C8C8C8" stroke="#C8C8C8" stroke-width="0.25" stroke-miterlimit="10" cx="304.756" cy="277.784" r="2.281"/>
			<circle fill="#C8C8C8" stroke="#C8C8C8" stroke-width="0.25" stroke-miterlimit="10" cx="235.445" cy="278.018" r="1.871"/>
			<rect x="270.5" y="281.5" fill="#C8C8C8" stroke="#C8C8C8" stroke-miterlimit="10" width="3" height="3"/>
			<rect x="299.5" y="281.5" fill="#C8C8C8" stroke="#C8C8C8" stroke-miterlimit="10" width="1" height="3"/>
			<rect x="226.5" y="292.5" fill="#333333" stroke="#333333" stroke-miterlimit="10" width="36" height="2"/>
		</g>
		<g>
			<path fill="#808080" stroke="#808080" stroke-miterlimit="10" d="M128.5,248.866c0,7.652,0,21.937,0,28.428
				c0,5.879,2.557,4.206,4.801,4.206c6.139,0,65.886,0,65.886,0c1.802,0,2.135-2.037,2.141-2.922c0-5.057-2.592-5.563-2.592-5.563
				l-65.435-26.153c0,0-2.565-1.515-4.034-1.73C128.085,245.132,128.5,246.545,128.5,248.866z"/>
			<path fill="#E6E6E6" stroke="#999999" stroke-width="0.25" stroke-miterlimit="10" d="M140.749,255.105
				c0,0,2.953-0.014,4.98-0.014c2.026,0,2.159,2.596,3.042,4.445c0.937,1.755,2.763,1.299,4.993,0
				c1.855-1.298,10.338-7.838,10.338-7.838s1.685-1.561,0.008-4.057c-8.697-10.216-23.362-10.137-23.362-10.137
				s-14.714-0.079-23.411,10.137c-1.676,2.496,0.014,4.057,0.014,4.057s8.483,6.54,10.34,7.838c2.23,1.299,4.059,1.755,4.994,0
				c0.883-1.85,1.019-4.445,3.045-4.445C137.758,255.091,140.749,255.105,140.749,255.105z"/>
			<rect x="137.5" y="280.5" fill="#808080" stroke="#808080" stroke-miterlimit="10" width="6" height="17"/>
			<circle fill="#999999" stroke="#999999" stroke-width="0.25" stroke-miterlimit="10" cx="140.726" cy="269.068" r="10.622"/>
			<rect x="162.5" y="270.5" fill="#999999" stroke="#999999" stroke-miterlimit="10" width="35" height="14"/>
			<rect x="172.5" y="271.5" fill="#C8C8C8" stroke="#C8C8C8" stroke-miterlimit="10" width="18" height="1"/>
			<rect x="172.5" y="281.5" fill="#C8C8C8" stroke="#C8C8C8" stroke-miterlimit="10" width="18" height="2"/>
			<rect x="170.5" y="267.5" fill="#C8C8C8" stroke="#999999" stroke-miterlimit="10" width="2" height="22"/>
			<rect x="190.5" y="267.5" fill="#C8C8C8" stroke="#999999" stroke-miterlimit="10" width="5" height="22"/>
			<rect x="168.5" y="270.061" fill="#C8C8C8" stroke="#C8C8C8" stroke-miterlimit="10" width="0" height="4.394"/>
			<rect x="195.5" y="270.5" fill="#C8C8C8" stroke="#C8C8C8" stroke-miterlimit="10" width="1" height="4"/>
			<path fill="#999999" stroke="#999999" stroke-miterlimit="10" d="M205.218,277.784c0,2.52-2.042,4.198-4.563,4.198
				c-0.353,0-0.695-0.482-1.024-0.482H197.5v-9h2.131c0.329,0,0.671,0.302,1.024,0.302
				C203.176,272.802,205.218,275.265,205.218,277.784z"/>
			<path fill="#C8C8C8" stroke="#C8C8C8" stroke-miterlimit="10" d="M162.5,276.5v4h-23.733c-2.403,0-4.422-0.026-5.027,0.19
				c-0.121,0.045-0.187-0.002-0.187,0.045c-0.499,0.341-1.104,0.488-1.753,0.488c-1.736,0-3.143-1.435-3.143-3.18
				c0-1.746,1.407-3.172,3.143-3.172c0.649,0,1.254,0.191,1.753,0.53c0,0.046,0.064,0.385,0.186,0.427
				c0.606,0.222,2.645,0.672,5.066,0.672H162.5z"/>
			<polygon fill="#333333" stroke="#333333" stroke-width="0.25" stroke-miterlimit="10" points="136.234,278.973 170.362,244.58 
				165.158,239.334 131.03,273.728 127.961,282.065 			"/>
			<path fill="#C1272D" stroke="#C1272D" stroke-width="0.25" stroke-miterlimit="10" d="M192.164,217.666
				c2.148,2.146,2.346,5.429,0.443,7.332l-20.963,20.965l-7.776-7.775l20.962-20.965C186.734,215.32,190.018,215.52,192.164,217.666
				z"/>
			<circle fill="#C8C8C8" stroke="#C8C8C8" stroke-width="0.25" stroke-miterlimit="10" cx="140.726" cy="269.068" r="2.317"/>
			<circle fill="#C8C8C8" stroke="#C8C8C8" stroke-width="0.25" stroke-miterlimit="10" cx="130.058" cy="257.254" r="2.34"/>
			<circle fill="#C8C8C8" stroke="#C8C8C8" stroke-width="0.25" stroke-miterlimit="10" cx="201.182" cy="277.784" r="2.281"/>
			<circle fill="#C8C8C8" stroke="#C8C8C8" stroke-width="0.25" stroke-miterlimit="10" cx="131.871" cy="278.018" r="1.871"/>
			<rect x="168.5" y="281.776" fill="#C8C8C8" stroke="#C8C8C8" stroke-miterlimit="10" width="0" height="2.929"/>
			<rect x="195.5" y="281.5" fill="#C8C8C8" stroke="#C8C8C8" stroke-miterlimit="10" width="1" height="3"/>
			<rect x="123.5" y="292.5" fill="#333333" stroke="#333333" stroke-miterlimit="10" width="35" height="2"/>
		</g>
	</g>
</g>
<g id="Layer_12">
	<g id="Arrow_26" opacity="0.6">
	</g>
</g>
<g id="Layer_15">
</g>
<g id="Layer_8">
</g>
</svg>
