<?xml version="1.0" encoding="utf-8"?>
<!-- Generator: Adobe Illustrator 17.0.0, SVG Export Plug-In . SVG Version: 6.00 Build 0)  -->
<!DOCTYPE svg PUBLIC "-//W3C//DTD SVG 1.1//EN" "http://www.w3.org/Graphics/SVG/1.1/DTD/svg11.dtd">
<svg version="1.1" id="Layer_1" xmlns="http://www.w3.org/2000/svg" xmlns:xlink="http://www.w3.org/1999/xlink" x="0px" y="0px"
	 width="153px" height="155.235px" viewBox="0 0 153 155.235" enable-background="new 0 0 153 155.235" xml:space="preserve">
<g>
	<g>
		<rect x="61.653" y="10" fill="#999999" width="10" height="50"/>
		<rect x="61.653" y="10" fill="none" stroke="#999999" stroke-miterlimit="10" width="10" height="50"/>
		<g>
			<defs>
				<rect id="SVGID_27_" x="0" y="0" width="153" height="135"/>
			</defs>
			<clipPath id="SVGID_2_">
				<use xlink:href="#SVGID_27_"  overflow="visible"/>
			</clipPath>
			<path clip-path="url(#SVGID_2_)" fill="#808080" d="M49.653,72.558v37.055c0,7.66,4.978,7.387,7.901,7.387h85.878
				c2.348-1,2.783-3.607,2.789-4.763c0-6.592-3.377-7.725-3.377-7.725l-85.29-34.326c0,0-4.165-2.094-6.079-2.377
				C49.933,67.809,49.653,69.533,49.653,72.558"/>
			<path clip-path="url(#SVGID_2_)" fill="none" stroke="#808080" stroke-miterlimit="10" d="M49.653,72.558v37.055
				c0,7.66,4.978,7.387,7.901,7.387h85.878c2.348-1,2.783-3.607,2.789-4.763c0-6.592-3.377-7.725-3.377-7.725l-85.29-34.326
				c0,0-4.165-2.094-6.079-2.377C49.933,67.809,49.653,69.533,49.653,72.558z"/>
			<path clip-path="url(#SVGID_2_)" fill="#E6E6E6" d="M67.263,80.69c0,0,3.848-0.019,6.49-0.019c2.643,0,2.815,3.384,3.967,5.794
				c1.22,2.287,3.601,1.696,6.508,0c2.418-1.689,13.473-10.216,13.473-10.216s2.197-2.033,0.011-5.286
				C86.378,57.648,67.263,57.749,67.263,57.749s-19.18-0.101-30.514,13.214c-2.185,3.253,0.018,5.286,0.018,5.286
				s11.059,8.527,13.476,10.216c2.909,1.696,5.291,2.287,6.51,0c1.153-2.41,1.326-5.794,3.969-5.794
				C63.365,80.671,67.263,80.69,67.263,80.69"/>
			<path clip-path="url(#SVGID_2_)" fill="none" stroke="#999999" stroke-width="0.25" stroke-miterlimit="10" d="M67.263,80.69
				c0,0,3.848-0.019,6.49-0.019c2.643,0,2.815,3.384,3.967,5.794c1.22,2.287,3.601,1.696,6.508,0
				c2.418-1.689,13.473-10.216,13.473-10.216s2.197-2.033,0.011-5.286C86.378,57.648,67.263,57.749,67.263,57.749
				s-19.18-0.101-30.514,13.214c-2.185,3.253,0.018,5.286,0.018,5.286s11.059,8.527,13.476,10.216c2.909,1.696,5.291,2.287,6.51,0
				c1.153-2.41,1.326-5.794,3.969-5.794C63.365,80.671,67.263,80.69,67.263,80.69z"/>
			<rect x="63.653" y="114" clip-path="url(#SVGID_2_)" fill="#808080" width="7" height="18"/>
			
				<rect x="63.653" y="114" clip-path="url(#SVGID_2_)" fill="none" stroke="#808080" stroke-miterlimit="10" width="7" height="18"/>
			<path clip-path="url(#SVGID_2_)" fill="#C8C8C8" d="M117.653,109v5H86.68c-3.133,0-5.765-0.139-6.555,0.144
				c-0.157,0.058-0.242-0.056-0.242,0.005c-0.653,0.442-1.44,0.611-2.286,0.611c-2.265,0-4.099-1.886-4.099-4.161
				s1.834-4.139,4.099-4.139c0.846,0,1.633,0.246,2.286,0.688c0,0.061,0.082,0.711,0.24,0.766c0.792,0.287,3.448,1.086,6.606,1.086
				H117.653z"/>
			<path clip-path="url(#SVGID_2_)" fill="none" stroke="#C8C8C8" stroke-miterlimit="10" d="M117.653,109v5H86.68
				c-3.133,0-5.765-0.139-6.555,0.144c-0.157,0.058-0.242-0.056-0.242,0.005c-0.653,0.442-1.44,0.611-2.286,0.611
				c-2.265,0-4.099-1.886-4.099-4.161s1.834-4.139,4.099-4.139c0.846,0,1.633,0.246,2.286,0.688c0,0.061,0.082,0.711,0.24,0.766
				c0.792,0.287,3.448,1.086,6.606,1.086H117.653z"/>
			<path clip-path="url(#SVGID_2_)" fill="#999999" d="M81.078,98.891c0,7.647-6.199,13.846-13.846,13.846
				c-7.646,0-13.845-6.199-13.845-13.846c0-7.646,6.199-13.845,13.845-13.845C74.879,85.046,81.078,91.245,81.078,98.891"/>
			
				<circle clip-path="url(#SVGID_2_)" fill="none" stroke="#999999" stroke-width="0.25" stroke-miterlimit="10" cx="67.233" cy="98.891" r="13.846"/>
			<rect x="96.653" y="101" clip-path="url(#SVGID_2_)" fill="#999999" width="44" height="20"/>
			
				<rect x="96.653" y="101" clip-path="url(#SVGID_2_)" fill="none" stroke="#999999" stroke-miterlimit="10" width="44" height="20"/>
			<rect x="109.653" y="103" clip-path="url(#SVGID_2_)" fill="#C8C8C8" width="23" height="2"/>
			
				<rect x="109.653" y="103" clip-path="url(#SVGID_2_)" fill="none" stroke="#C8C8C8" stroke-miterlimit="10" width="23" height="2"/>
			<rect x="109.653" y="117" clip-path="url(#SVGID_2_)" fill="#C8C8C8" width="23" height="2"/>
			
				<rect x="109.653" y="117" clip-path="url(#SVGID_2_)" fill="none" stroke="#C8C8C8" stroke-miterlimit="10" width="23" height="2"/>
			<rect x="104.653" y="98" clip-path="url(#SVGID_2_)" fill="#C8C8C8" width="5" height="27"/>
			
				<rect x="104.653" y="98" clip-path="url(#SVGID_2_)" fill="none" stroke="#999999" stroke-miterlimit="10" width="5" height="27"/>
			<rect x="132.653" y="98" clip-path="url(#SVGID_2_)" fill="#C8C8C8" width="5" height="27"/>
			
				<rect x="132.653" y="98" clip-path="url(#SVGID_2_)" fill="none" stroke="#999999" stroke-miterlimit="10" width="5" height="27"/>
			<rect x="102.653" y="102" clip-path="url(#SVGID_2_)" fill="#C8C8C8" width="1" height="4"/>
			
				<rect x="102.653" y="102" clip-path="url(#SVGID_2_)" fill="none" stroke="#C8C8C8" stroke-miterlimit="10" width="1" height="4"/>
			<rect x="138.653" y="102" clip-path="url(#SVGID_2_)" fill="#C8C8C8" width="1" height="4"/>
			
				<rect x="138.653" y="102" clip-path="url(#SVGID_2_)" fill="none" stroke="#C8C8C8" stroke-miterlimit="10" width="1" height="4"/>
			<path clip-path="url(#SVGID_2_)" fill="#999999" d="M151.292,110.25c0,3.284-2.662,6.424-5.946,6.424
				c-0.461,0-0.907,0.326-1.336,0.326h-3.357v-12h3.357c0.429,0,0.875-0.424,1.336-0.424
				C148.63,104.576,151.292,106.966,151.292,110.25"/>
			<path clip-path="url(#SVGID_2_)" fill="none" stroke="#999999" stroke-miterlimit="10" d="M151.292,110.25
				c0,3.284-2.662,6.424-5.946,6.424c-0.461,0-0.907,0.326-1.336,0.326h-3.357v-12h3.357c0.429,0,0.875-0.424,1.336-0.424
				C148.63,104.576,151.292,106.966,151.292,110.25z"/>
			<polygon clip-path="url(#SVGID_2_)" fill="#333333" points="73.656,112.693 30.458,66.625 37.431,59.984 80.63,106.052 
				84.322,117.028 			"/>
			<polygon clip-path="url(#SVGID_2_)" fill="none" stroke="#333333" stroke-width="0.25" stroke-miterlimit="10" points="
				73.656,112.693 30.458,66.625 37.431,59.984 80.63,106.052 84.322,117.028 			"/>
			<path clip-path="url(#SVGID_2_)" fill="#39B54A" d="M3.044,30.757c-2.877,2.718-3.257,6.988-0.847,9.538l26.54,28.085
				l10.417-9.845L12.613,30.45C10.204,27.901,5.92,28.038,3.044,30.757"/>
			<path clip-path="url(#SVGID_2_)" fill="none" stroke="#39B54A" stroke-width="0.25" stroke-miterlimit="10" d="M3.044,30.757
				c-2.877,2.718-3.257,6.988-0.847,9.538l26.54,28.085l10.417-9.845L12.613,30.45C10.204,27.901,5.92,28.038,3.044,30.757z"/>
			<path clip-path="url(#SVGID_2_)" fill="#C8C8C8" d="M70.252,98.891c0,1.668-1.352,3.02-3.02,3.02
				c-1.667,0-3.019-1.352-3.019-3.02s1.352-3.02,3.019-3.02C68.9,95.871,70.252,97.223,70.252,98.891"/>
			
				<circle clip-path="url(#SVGID_2_)" fill="none" stroke="#C8C8C8" stroke-width="0.25" stroke-miterlimit="10" cx="67.232" cy="98.891" r="3.02"/>
			<path clip-path="url(#SVGID_2_)" fill="#C8C8C8" d="M84.377,83.491c0,1.685-1.365,3.05-3.049,3.05s-3.05-1.365-3.05-3.05
				c0-1.684,1.366-3.049,3.05-3.049S84.377,81.807,84.377,83.491"/>
			
				<circle clip-path="url(#SVGID_2_)" fill="none" stroke="#C8C8C8" stroke-width="0.25" stroke-miterlimit="10" cx="81.327" cy="83.491" r="3.05"/>
			<path clip-path="url(#SVGID_2_)" fill="#C8C8C8" d="M149.005,110.25c0,1.642-1.331,2.973-2.974,2.973
				c-1.641,0-2.972-1.331-2.972-2.973c0-1.642,1.331-2.973,2.972-2.973C147.674,107.277,149.005,108.608,149.005,110.25"/>
			
				<circle clip-path="url(#SVGID_2_)" fill="none" stroke="#C8C8C8" stroke-width="0.25" stroke-miterlimit="10" cx="146.032" cy="110.25" r="2.973"/>
			<rect x="102.653" y="116" clip-path="url(#SVGID_2_)" fill="#C8C8C8" width="1" height="4"/>
			
				<rect x="102.653" y="116" clip-path="url(#SVGID_2_)" fill="none" stroke="#C8C8C8" stroke-miterlimit="10" width="1" height="4"/>
			<rect x="138.653" y="116" clip-path="url(#SVGID_2_)" fill="#C8C8C8" width="1" height="4"/>
			
				<rect x="138.653" y="116" clip-path="url(#SVGID_2_)" fill="none" stroke="#C8C8C8" stroke-miterlimit="10" width="1" height="4"/>
			<path clip-path="url(#SVGID_2_)" fill="#C8C8C8" d="M80.131,110.555c0,1.347-1.092,2.439-2.439,2.439
				c-1.348,0-2.44-1.092-2.44-2.439c0-1.348,1.092-2.44,2.44-2.44C79.039,108.116,80.131,109.207,80.131,110.555"/>
			
				<circle clip-path="url(#SVGID_2_)" fill="none" stroke="#C8C8C8" stroke-width="0.25" stroke-miterlimit="10" cx="77.691" cy="110.555" r="2.44"/>
			<path clip-path="url(#SVGID_2_)" fill="#C8C8C8" d="M57.131,111.555c0,1.347-1.092,2.439-2.439,2.439
				c-1.348,0-2.44-1.092-2.44-2.439c0-1.348,1.092-2.44,2.44-2.44C56.039,109.116,57.131,110.207,57.131,111.555"/>
			
				<circle clip-path="url(#SVGID_2_)" fill="none" stroke="#C8C8C8" stroke-width="0.25" stroke-miterlimit="10" cx="54.691" cy="111.555" r="2.44"/>
			<rect x="43.653" y="131" clip-path="url(#SVGID_2_)" fill="#333333" width="47" height="4"/>
			
				<rect x="43.653" y="131" clip-path="url(#SVGID_2_)" fill="none" stroke="#333333" stroke-miterlimit="10" width="47" height="4"/>
		</g>
	</g>
	<line fill="none" stroke="#D31A1F" stroke-width="5" stroke-miterlimit="10" x1="139.658" y1="24.074" x2="10.264" y2="153.467"/>
</g>
</svg>
