<?xml version="1.0" encoding="utf-8"?>
<!-- Generator: Adobe Illustrator 17.0.0, SVG Export Plug-In . SVG Version: 6.00 Build 0)  -->
<!DOCTYPE svg PUBLIC "-//W3C//DTD SVG 1.1//EN" "http://www.w3.org/Graphics/SVG/1.1/DTD/svg11.dtd">
<svg version="1.1" id="Layer_1" xmlns="http://www.w3.org/2000/svg" xmlns:xlink="http://www.w3.org/1999/xlink" x="0px" y="0px"
	 width="151.306px" height="132.929px" viewBox="0 0 151.306 132.929" enable-background="new 0 0 151.306 132.929"
	 xml:space="preserve">
<g>
	<path fill="#808080" d="M49.167,50.252v37.055c0,7.66,4.978,7.387,7.901,7.387h85.878c2.348-1,2.783-3.607,2.789-4.763
		c0-6.592-3.377-7.725-3.377-7.725L57.068,47.88c0,0-4.165-2.094-6.079-2.377C49.447,45.503,49.167,47.227,49.167,50.252"/>
	<path fill="none" stroke="#808080" stroke-miterlimit="10" d="M49.167,50.252v37.055c0,7.66,4.978,7.387,7.901,7.387h85.878
		c2.348-1,2.783-3.607,2.789-4.763c0-6.592-3.377-7.725-3.377-7.725L57.068,47.88c0,0-4.165-2.094-6.079-2.377
		C49.447,45.503,49.167,47.227,49.167,50.252z"/>
	<path fill="#E6E6E6" d="M66.778,58.384c0,0,3.848-0.019,6.49-0.019c2.643,0,2.815,3.384,3.967,5.794
		c1.22,2.287,3.601,1.696,6.508,0c2.418-1.689,13.473-10.216,13.473-10.216s2.197-2.033,0.011-5.286
		C85.893,35.342,66.778,35.443,66.778,35.443s-19.18-0.101-30.514,13.214c-2.185,3.253,0.018,5.286,0.018,5.286
		s11.059,8.527,13.476,10.216c2.909,1.696,5.291,2.287,6.51,0c1.153-2.41,1.326-5.794,3.969-5.794
		C62.88,58.365,66.778,58.384,66.778,58.384"/>
	<path fill="none" stroke="#999999" stroke-width="0.25" stroke-miterlimit="10" d="M66.778,58.384c0,0,3.848-0.019,6.49-0.019
		c2.643,0,2.815,3.384,3.967,5.794c1.22,2.287,3.601,1.696,6.508,0c2.418-1.689,13.473-10.216,13.473-10.216
		s2.197-2.033,0.011-5.286C85.893,35.342,66.778,35.443,66.778,35.443s-19.18-0.101-30.514,13.214
		c-2.185,3.253,0.018,5.286,0.018,5.286s11.059,8.527,13.476,10.216c2.909,1.696,5.291,2.287,6.51,0
		c1.153-2.41,1.326-5.794,3.969-5.794C62.88,58.365,66.778,58.384,66.778,58.384z"/>
	<rect x="63.167" y="91.694" fill="#808080" width="7" height="18"/>
	<rect x="63.167" y="91.694" fill="none" stroke="#808080" stroke-miterlimit="10" width="7" height="18"/>
	<path fill="#C8C8C8" d="M117.167,86.694v5H86.194c-3.133,0-5.765-0.139-6.555,0.144c-0.157,0.058-0.242-0.056-0.242,0.005
		c-0.653,0.442-1.44,0.611-2.286,0.611c-2.265,0-4.099-1.886-4.099-4.161c0-2.275,1.834-4.139,4.099-4.139
		c0.846,0,1.633,0.246,2.286,0.688c0,0.061,0.082,0.711,0.24,0.766c0.792,0.287,3.448,1.086,6.606,1.086H117.167z"/>
	<path fill="none" stroke="#C8C8C8" stroke-miterlimit="10" d="M117.167,86.694v5H86.194c-3.133,0-5.765-0.139-6.555,0.144
		c-0.157,0.058-0.242-0.056-0.242,0.005c-0.653,0.442-1.44,0.611-2.286,0.611c-2.265,0-4.099-1.886-4.099-4.161
		c0-2.275,1.834-4.139,4.099-4.139c0.846,0,1.633,0.246,2.286,0.688c0,0.061,0.082,0.711,0.24,0.766
		c0.792,0.287,3.448,1.086,6.606,1.086H117.167z"/>
	<path fill="#999999" d="M80.592,76.585c0,7.647-6.199,13.846-13.846,13.846c-7.646,0-13.845-6.199-13.845-13.846
		c0-7.646,6.199-13.845,13.845-13.845C74.393,62.74,80.592,68.939,80.592,76.585"/>
	<circle fill="none" stroke="#999999" stroke-width="0.25" stroke-miterlimit="10" cx="66.747" cy="76.585" r="13.846"/>
	<rect x="96.167" y="78.694" fill="#999999" width="44" height="20"/>
	<rect x="96.167" y="78.694" fill="none" stroke="#999999" stroke-miterlimit="10" width="44" height="20"/>
	<rect x="109.167" y="80.694" fill="#C8C8C8" width="23" height="2"/>
	<rect x="109.167" y="80.694" fill="none" stroke="#C8C8C8" stroke-miterlimit="10" width="23" height="2"/>
	<rect x="109.167" y="94.694" fill="#C8C8C8" width="23" height="2"/>
	<rect x="109.167" y="94.694" fill="none" stroke="#C8C8C8" stroke-miterlimit="10" width="23" height="2"/>
	<rect x="104.167" y="75.694" fill="#C8C8C8" width="5" height="27"/>
	<rect x="104.167" y="75.694" fill="none" stroke="#999999" stroke-miterlimit="10" width="5" height="27"/>
	<rect x="132.167" y="75.694" fill="#C8C8C8" width="5" height="27"/>
	<rect x="132.167" y="75.694" fill="none" stroke="#999999" stroke-miterlimit="10" width="5" height="27"/>
	<rect x="102.167" y="79.694" fill="#C8C8C8" width="1" height="4"/>
	<rect x="102.167" y="79.694" fill="none" stroke="#C8C8C8" stroke-miterlimit="10" width="1" height="4"/>
	<rect x="138.167" y="79.694" fill="#C8C8C8" width="1" height="4"/>
	<rect x="138.167" y="79.694" fill="none" stroke="#C8C8C8" stroke-miterlimit="10" width="1" height="4"/>
	<path fill="#999999" d="M150.806,87.944c0,3.284-2.662,6.424-5.946,6.424c-0.461,0-0.907,0.326-1.336,0.326h-3.357v-12h3.357
		c0.429,0,0.875-0.424,1.336-0.424C148.144,82.27,150.806,84.66,150.806,87.944"/>
	<path fill="none" stroke="#999999" stroke-miterlimit="10" d="M150.806,87.944c0,3.284-2.662,6.424-5.946,6.424
		c-0.461,0-0.907,0.326-1.336,0.326h-3.357v-12h3.357c0.429,0,0.875-0.424,1.336-0.424C148.144,82.27,150.806,84.66,150.806,87.944z
		"/>
	<polygon fill="#333333" points="73.17,90.387 29.972,44.319 36.945,37.678 80.144,83.746 83.836,94.722 	"/>
	<polygon fill="none" stroke="#333333" stroke-width="0.25" stroke-miterlimit="10" points="73.17,90.387 29.972,44.319 
		36.945,37.678 80.144,83.746 83.836,94.722 	"/>
	<path fill="#39B54A" d="M2.558,8.451c-2.877,2.718-3.257,6.988-0.847,9.538l26.54,28.085l10.417-9.845L12.127,8.144
		C9.718,5.595,5.434,5.732,2.558,8.451"/>
	<path fill="none" stroke="#39B54A" stroke-width="0.25" stroke-miterlimit="10" d="M2.558,8.451
		c-2.877,2.718-3.257,6.988-0.847,9.538l26.54,28.085l10.417-9.845L12.127,8.144C9.718,5.595,5.434,5.732,2.558,8.451z"/>
	<path fill="#C8C8C8" d="M69.766,76.585c0,1.668-1.352,3.02-3.02,3.02c-1.667,0-3.019-1.352-3.019-3.02
		c0-1.668,1.352-3.02,3.019-3.02C68.414,73.565,69.766,74.917,69.766,76.585"/>
	<circle fill="none" stroke="#C8C8C8" stroke-width="0.25" stroke-miterlimit="10" cx="66.746" cy="76.585" r="3.02"/>
	<path fill="#C8C8C8" d="M83.891,61.185c0,1.685-1.365,3.05-3.049,3.05s-3.05-1.365-3.05-3.05c0-1.684,1.366-3.049,3.05-3.049
		S83.891,59.501,83.891,61.185"/>
	<circle fill="none" stroke="#C8C8C8" stroke-width="0.25" stroke-miterlimit="10" cx="80.841" cy="61.185" r="3.05"/>
	<path fill="#C8C8C8" d="M148.519,87.944c0,1.642-1.331,2.973-2.974,2.973c-1.641,0-2.972-1.331-2.972-2.973
		s1.331-2.973,2.972-2.973C147.188,84.971,148.519,86.302,148.519,87.944"/>
	<circle fill="none" stroke="#C8C8C8" stroke-width="0.25" stroke-miterlimit="10" cx="145.546" cy="87.945" r="2.973"/>
	<rect x="102.167" y="93.694" fill="#C8C8C8" width="1" height="4"/>
	<rect x="102.167" y="93.694" fill="none" stroke="#C8C8C8" stroke-miterlimit="10" width="1" height="4"/>
	<rect x="138.167" y="93.694" fill="#C8C8C8" width="1" height="4"/>
	<rect x="138.167" y="93.694" fill="none" stroke="#C8C8C8" stroke-miterlimit="10" width="1" height="4"/>
	<path fill="#C8C8C8" d="M79.645,88.25c0,1.347-1.092,2.439-2.439,2.439c-1.348,0-2.44-1.092-2.44-2.439
		c0-1.348,1.092-2.44,2.44-2.44C78.553,85.81,79.645,86.902,79.645,88.25"/>
	<circle fill="none" stroke="#C8C8C8" stroke-width="0.25" stroke-miterlimit="10" cx="77.205" cy="88.249" r="2.44"/>
	<path fill="#C8C8C8" d="M56.645,89.25c0,1.347-1.092,2.439-2.439,2.439c-1.348,0-2.44-1.092-2.44-2.439
		c0-1.348,1.092-2.44,2.44-2.44C55.553,86.81,56.645,87.902,56.645,89.25"/>
	<circle fill="none" stroke="#C8C8C8" stroke-width="0.25" stroke-miterlimit="10" cx="54.205" cy="89.249" r="2.44"/>
	<rect x="43.167" y="108.694" fill="#333333" width="47" height="4"/>
	<rect x="43.167" y="108.694" fill="none" stroke="#333333" stroke-miterlimit="10" width="47" height="4"/>
	<line fill="none" stroke="#D31A1F" stroke-width="5" stroke-miterlimit="10" x1="139.172" y1="1.768" x2="9.778" y2="131.161"/>
</g>
</svg>
