<?xml version="1.0" encoding="utf-8"?>
<!-- Generator: Adobe Illustrator 17.0.0, SVG Export Plug-In . SVG Version: 6.00 Build 0)  -->
<!DOCTYPE svg PUBLIC "-//W3C//DTD SVG 1.1//EN" "http://www.w3.org/Graphics/SVG/1.1/DTD/svg11.dtd">
<svg version="1.1" xmlns="http://www.w3.org/2000/svg" xmlns:xlink="http://www.w3.org/1999/xlink" x="0px" y="0px" width="153px"
	 height="135px" viewBox="0 0 153 135" enable-background="new 0 0 153 135" xml:space="preserve">
<g id="Layer_1">
</g>
<g id="Layer_3">
</g>
<g id="Layer_2">
</g>
<g id="Layer_7">
</g>
<g id="Layer_14">
</g>
<g id="Layer_5">
</g>
<g id="Layer_11">
</g>
<g id="Layer_9">
</g>
<g id="Layer_10">
</g>
<g id="Layer_13">
</g>
<g id="Layer_6">
</g>
<g id="Layer_4">
</g>
<g id="Layer_12">
	<g id="Arrow_26" opacity="0.6">
	</g>
</g>
<g id="Layer_15">
</g>
<g id="Layer_8">
	<g>
		<path fill="#808080" stroke="#808080" stroke-miterlimit="10" d="M49.347,75.489c0,9.976,0,28.592,0,37.055
			c0,7.66,4.473,6.456,7.396,6.456c8.001,0,85.878,0,85.878,0c2.349-1,2.783-3.142,2.789-4.297c0-6.592-3.377-7.493-3.377-7.493
			L56.743,73c0,0-3.912-2.035-5.826-2.318C49.374,70.682,49.347,72.464,49.347,75.489z"/>
		<path fill="#E6E6E6" stroke="#999999" stroke-width="0.25" stroke-miterlimit="10" d="M66.453,83.62c0,0,3.848-0.019,6.49-0.019
			s2.814,3.384,3.967,5.794c1.22,2.287,3.601,1.695,6.508,0c2.418-1.689,13.474-10.216,13.474-10.216s2.196-2.033,0.011-5.286
			C85.568,60.578,66.453,60.68,66.453,60.68s-19.18-0.102-30.514,13.214c-2.186,3.253,0.018,5.286,0.018,5.286
			s11.059,8.526,13.476,10.216c2.908,1.695,5.291,2.287,6.51,0c1.152-2.41,1.326-5.794,3.969-5.794
			C62.554,83.602,66.453,83.62,66.453,83.62z"/>
		<rect x="63.347" y="116" fill="#808080" stroke="#808080" stroke-miterlimit="10" width="7" height="17"/>
		<circle fill="#999999" stroke="#999999" stroke-width="0.25" stroke-miterlimit="10" cx="66.421" cy="101.821" r="13.846"/>
		<path fill="#C8C8C8" stroke="#C8C8C8" stroke-miterlimit="10" d="M107.347,111v5H75.869c-3.133,0-5.765,0.326-6.555,0.609
			c-0.157,0.059-0.242,0.178-0.242,0.238c-0.652,0.442-1.439,0.727-2.286,0.727c-2.265,0-4.099-1.827-4.099-4.102
			s1.834-4.11,4.099-4.11c0.847,0,1.634,0.26,2.286,0.702c0,0.062,0.082,0.253,0.24,0.308c0.792,0.287,3.448,0.628,6.605,0.628
			H107.347z"/>
		<rect x="96.347" y="103" fill="#999999" stroke="#999999" stroke-miterlimit="10" width="44" height="20"/>
		<rect x="109.347" y="105" fill="#C8C8C8" stroke="#C8C8C8" stroke-miterlimit="10" width="23" height="2"/>
		<rect x="109.347" y="119" fill="#C8C8C8" stroke="#C8C8C8" stroke-miterlimit="10" width="23" height="2"/>
		<rect x="104.347" y="100" fill="#C8C8C8" stroke="#999999" stroke-miterlimit="10" width="5" height="27"/>
		<rect x="132.347" y="100" fill="#C8C8C8" stroke="#999999" stroke-miterlimit="10" width="5" height="27"/>
		<rect x="102.347" y="104" fill="#C8C8C8" stroke="#C8C8C8" stroke-miterlimit="10" width="1" height="4"/>
		<rect x="138.347" y="104" fill="#C8C8C8" stroke="#C8C8C8" stroke-miterlimit="10" width="1" height="4"/>
		<path fill="#999999" stroke="#999999" stroke-miterlimit="10" d="M150.481,113.181c0,3.285-2.662,5.959-5.946,5.959
			c-0.461,0-0.906-0.14-1.336-0.14h-2.852v-12h2.852c0.43,0,0.875,0.042,1.336,0.042
			C147.819,107.042,150.481,109.897,150.481,113.181z"/>
		<polygon fill="#333333" stroke="#333333" stroke-width="0.25" stroke-miterlimit="10" points="71.63,110.052 71.386,46.899 
			61.755,46.861 61.999,110.015 66.855,120.528 		"/>
		<path fill="#333333" stroke="#333333" stroke-miterlimit="10" d="M66.847,2c3.958,0,7.5,2.843,7.5,6.351V47h-15V8.351
			C59.347,4.843,62.889,2,66.847,2z">
			 <animate attributeName="fill" attributeType="XML" from="black" to="grey" dur=".5s" repeatCount="indefinite"/>   
             <animate attributeName="stroke" attributeType="XML" from="black" to="grey" dur=".5s" repeatCount="indefinite"/> 
</path>
		<circle fill="#C8C8C8" stroke="#C8C8C8" stroke-width="0.25" stroke-miterlimit="10" cx="66.421" cy="101.821" r="3.02"/>
		<circle fill="#C8C8C8" stroke="#C8C8C8" stroke-width="0.25" stroke-miterlimit="10" cx="52.517" cy="86.422" r="3.049"/>
		<circle fill="#C8C8C8" stroke="#C8C8C8" stroke-width="0.25" stroke-miterlimit="10" cx="80.517" cy="86.422" r="3.049"/>
		<circle fill="#C8C8C8" stroke="#C8C8C8" stroke-width="0.25" stroke-miterlimit="10" cx="145.221" cy="113.181" r="2.973"/>
		<circle fill="#C8C8C8" stroke="#C8C8C8" stroke-width="0.25" stroke-miterlimit="10" cx="66.73" cy="113.194" r="2.439"/>
		<rect x="102.347" y="118" fill="#C8C8C8" stroke="#C8C8C8" stroke-miterlimit="10" width="1" height="4"/>
		<rect x="138.347" y="118" fill="#C8C8C8" stroke="#C8C8C8" stroke-miterlimit="10" width="1" height="4"/>
		<circle fill="#C8C8C8" stroke="#C8C8C8" stroke-width="0.25" stroke-miterlimit="10" cx="52.88" cy="115.486" r="2.44"/>
		<rect x="43.347" y="131" fill="#333333" stroke="#333333" stroke-miterlimit="10" width="47" height="4"/>
	</g>
</g>
</svg>
