<?xml version="1.0" encoding="utf-8"?>
<!-- Generator: Adobe Illustrator 17.0.0, SVG Export Plug-In . SVG Version: 6.00 Build 0)  -->
<!DOCTYPE svg PUBLIC "-//W3C//DTD SVG 1.1//EN" "http://www.w3.org/Graphics/SVG/1.1/DTD/svg11.dtd">
<svg version="1.1" xmlns="http://www.w3.org/2000/svg" xmlns:xlink="http://www.w3.org/1999/xlink" x="0px" y="0px" width="96.42px"
	 height="33.15px" viewBox="0 0 96.42 33.15" enable-background="new 0 0 96.42 33.15" xml:space="preserve">
<g id="Layer_1">
</g>
<g id="Layer_3">
</g>
<g id="Layer_2">
	<g>
		<path fill-rule="evenodd" clip-rule="evenodd" fill="#000001" d="M34.026,24.02c0.041,0.106,0.068,0.217,0.068,0.33
			c0,1.833-6.246,3.322-13.941,3.322c-7.699,0-13.941-1.489-13.941-3.322c0-0.217,0.084-0.425,0.25-0.627
			c-1.232-0.204-2.348-0.443-3.297-0.718C1.173,23.585,0,24.296,0,25.063c0,1.976,7.784,3.583,17.39,3.583
			c9.605,0,17.389-1.607,17.389-3.583C34.778,24.701,34.513,24.35,34.026,24.02z"/>
		<path fill-rule="evenodd" clip-rule="evenodd" fill="#EC1C24" d="M34.026,19.481c0.041,0.107,0.068,0.217,0.068,0.33
			c0,1.838-6.246,3.326-13.941,3.326c-7.699,0-13.941-1.488-13.941-3.326c0-1.102,2.242-2.078,5.694-2.683
			C4.989,17.604,0,18.943,0,20.523c0,1.983,7.784,3.584,17.39,3.584c9.605,0,17.389-1.601,17.389-3.584
			C34.778,20.161,34.513,19.812,34.026,19.481z"/>
		<path fill-rule="evenodd" clip-rule="evenodd" fill="#EC1C24" d="M34.026,28.523c0.041,0.11,0.068,0.22,0.068,0.33
			c0,1.839-6.246,3.324-13.941,3.324c-7.699,0-13.941-1.485-13.941-3.324c0-0.216,0.084-0.425,0.25-0.627
			c-1.232-0.203-2.348-0.442-3.297-0.717C1.173,28.092,0,28.805,0,29.571c0,1.976,7.784,3.579,17.39,3.579
			c9.605,0,17.389-1.604,17.389-3.579C34.778,29.207,34.513,28.854,34.026,28.523z"/>
		<path fill-rule="evenodd" clip-rule="evenodd" fill="#000001" d="M38.866,3.195l-8.859-0.121l0,0
			c-1.33,0.06-2.309,0.646-2.932,1.757l-4.816,8.57c-0.283,0.513-0.356,1.004-0.213,1.472c0.113,0.358,0.345,0.595,0.701,0.721
			c0-0.014-0.01-0.023-0.016-0.037c-0.141-0.467-0.074-0.959,0.211-1.471l4.814-8.574c0.629-1.107,1.601-1.695,2.932-1.755l0,0
			l8.859,0.122l1.455-2.587h-1.066L38.866,3.195z"/>
		<path fill-rule="evenodd" clip-rule="evenodd" fill="#000001" d="M31.708,18.15H20.092c-2.557,0-4.485-0.521-5.769-1.562
			c1.243,1.492,3.393,2.242,6.457,2.242h11.611l1.453-2.588l-1.076,0.016L31.708,18.15z"/>
		<path fill-rule="evenodd" clip-rule="evenodd" fill="#000001" d="M56.288,3.243h-1.926l-3.929,6.996h1.065l3.55-6.313h1.923
			c0.291,0,0.538,0.053,0.748,0.141c-0.018-0.053-0.034-0.108-0.061-0.159C57.401,3.466,56.946,3.243,56.288,3.243z"/>
		<path fill-rule="evenodd" clip-rule="evenodd" fill="#000001" d="M68.149,3.152c0.455,0.598,0.678,1.275,0.671,2.046
			c-0.028,2.348-1.36,4.226-4.005,5.63c-2.43,1.287-5.367,1.932-8.817,1.932h-6.983l-3.014,5.391h-9.872l-0.381,0.681h10.935
			l3.02-5.39h6.977c3.453,0,6.39-0.641,8.822-1.931c2.639-1.405,3.977-3.285,4.002-5.63C69.513,4.795,69.05,3.892,68.149,3.152z"/>
		<path fill-rule="evenodd" clip-rule="evenodd" fill="#000001" d="M95.355,1.292L94.28,3.195l-8.855-0.121V3.07
			c-1.33,0.064-2.305,0.65-2.93,1.761l-4.816,8.57c-0.287,0.513-0.355,1.004-0.21,1.472c0.108,0.358,0.341,0.595,0.696,0.721
			c-0.009-0.014-0.01-0.023-0.014-0.037c-0.145-0.467-0.074-0.959,0.207-1.471l4.817-8.574c0.63-1.107,1.602-1.695,2.931-1.755
			v0.002l8.855,0.12l1.458-2.587H95.355z"/>
		<path fill-rule="evenodd" clip-rule="evenodd" fill="#000001" d="M87.127,18.15H75.51c-2.558,0-4.483-0.521-5.772-1.562
			c1.246,1.492,3.391,2.242,6.458,2.242H87.81l1.451-2.588l-1.072,0.016L87.127,18.15z"/>
		<path fill-rule="evenodd" clip-rule="evenodd" fill="#EC1C24" d="M94.028,2.584L95.483,0h-9.85l0,0h-0.079
			c-1.959,0.027-3.823,0.197-5.595,0.501c-1.902,0.328-3.434,0.784-4.6,1.364c-2.807,1.405-5.021,3.705-6.64,6.908
			c-0.649,1.291-0.978,2.486-0.978,3.583c0,0.912,0.223,1.72,0.668,2.43c1.162,1.836,3.438,2.755,6.85,2.755h11.61l1.452-2.587
			l-9.705,0.129c-0.764,0.007-1.234-0.265-1.406-0.816c-0.143-0.474-0.073-0.96,0.211-1.474l4.815-8.571
			c0.628-1.11,1.601-1.694,2.929-1.759v0.005L94.028,2.584L94.028,2.584z M38.611,2.584L40.065,0h-9.847h-0.002h-0.078
			c-1.961,0.027-3.826,0.197-5.594,0.501c-1.902,0.328-3.435,0.784-4.598,1.364c-2.811,1.405-5.022,3.705-6.643,6.908
			c-0.652,1.291-0.981,2.486-0.981,3.583c0,0.912,0.227,1.72,0.668,2.43c1.162,1.836,3.446,2.755,6.851,2.755h11.609l1.453-2.587
			l-9.705,0.129c-0.765,0.007-1.233-0.265-1.404-0.816c-0.143-0.474-0.076-0.96,0.208-1.474l4.816-8.571
			c0.628-1.11,1.604-1.694,2.932-1.759v0.005L38.611,2.584L38.611,2.584z M50.181,9.633h2.547c1.277,0,2.25-0.602,2.915-1.797
			l1.616-2.887c0.207-0.375,0.312-0.714,0.312-1.02c0-0.227-0.054-0.438-0.166-0.631c-0.261-0.442-0.712-0.663-1.366-0.663h-1.93
			L50.181,9.633L50.181,9.633z M34.809,17.541l9.82-17.522h16.486c1.704,0,3.274,0.33,4.716,0.996
			c1.842,0.844,2.751,2.032,2.734,3.572c-0.026,2.351-1.359,4.228-4.004,5.635c-2.431,1.282-5.371,1.927-8.821,1.927h-6.976
			l-3.021,5.393H34.809z"/>
		<path fill-rule="evenodd" clip-rule="evenodd" fill="#000001" d="M56.807,23.317c-0.048-0.362-0.395-0.636-0.788-0.636
			c-0.714,0-0.987,0.607-0.987,1.243c0,0.6,0.274,1.208,0.987,1.208c0.485,0,0.762-0.331,0.818-0.811h0.774
			c-0.081,0.906-0.704,1.479-1.593,1.479c-1.122,0-1.777-0.837-1.777-1.877c0-1.075,0.655-1.915,1.777-1.915
			c0.795,0,1.465,0.47,1.56,1.308H56.807z"/>
		<path fill-rule="evenodd" clip-rule="evenodd" fill="#000001" d="M59.773,25.133c0.717,0,0.982-0.608,0.982-1.208
			c0-0.636-0.266-1.243-0.982-1.243c-0.715,0-0.983,0.607-0.983,1.243C58.79,24.524,59.058,25.133,59.773,25.133L59.773,25.133z
			 M59.773,22.013c1.123,0,1.78,0.835,1.78,1.912c0,1.044-0.657,1.877-1.78,1.877c-1.12,0-1.78-0.833-1.78-1.877
			C57.992,22.848,58.652,22.013,59.773,22.013z"/>
		<polygon fill-rule="evenodd" clip-rule="evenodd" fill="#000001" points="62.097,22.097 62.885,22.097 64.397,24.524 
			64.406,24.524 64.406,22.097 65.153,22.097 65.153,25.718 64.356,25.718 62.849,23.295 62.841,23.295 62.841,25.718 
			62.097,25.718 		"/>
		<path fill-rule="evenodd" clip-rule="evenodd" fill="#000001" d="M66.394,24.517c0,0.481,0.378,0.665,0.799,0.665
			c0.28,0,0.704-0.078,0.704-0.447c0-0.392-0.539-0.458-1.073-0.602c-0.535-0.142-1.079-0.346-1.079-1.025
			c0-0.742,0.7-1.095,1.353-1.095c0.756,0,1.45,0.331,1.45,1.165h-0.772c-0.025-0.439-0.333-0.547-0.715-0.547
			c-0.25,0-0.545,0.104-0.545,0.409c0,0.279,0.17,0.317,1.08,0.551c0.264,0.063,1.074,0.229,1.074,1.049
			c0,0.666-0.52,1.162-1.506,1.162c-0.799,0-1.55-0.392-1.541-1.285H66.394z"/>
		<path fill-rule="evenodd" clip-rule="evenodd" fill="#000001" d="M70.761,25.133c0.719,0,0.984-0.608,0.984-1.208
			c0-0.636-0.266-1.243-0.984-1.243c-0.715,0-0.981,0.607-0.981,1.243C69.779,24.524,70.046,25.133,70.761,25.133L70.761,25.133z
			 M70.761,22.013c1.123,0,1.78,0.835,1.78,1.912c0,1.044-0.657,1.877-1.78,1.877c-1.119,0-1.777-0.833-1.777-1.877
			C68.983,22.848,69.642,22.013,70.761,22.013z"/>
		<polygon fill-rule="evenodd" clip-rule="evenodd" fill="#000001" points="73.086,22.097 73.878,22.097 73.878,25.046 
			75.646,25.046 75.646,25.718 73.086,25.718 		"/>
		<rect x="76.091" y="22.097" fill-rule="evenodd" clip-rule="evenodd" fill="#000001" width="0.797" height="3.621"/>
		<path fill-rule="evenodd" clip-rule="evenodd" fill="#000001" d="M78.38,25.046h0.71c0.463,0,0.903-0.285,0.903-1.082
			c0-0.731-0.254-1.198-1.044-1.198H78.38V25.046L78.38,25.046z M77.583,22.097h1.561c0.941,0,1.644,0.592,1.644,1.792
			c0,1.045-0.537,1.829-1.644,1.829h-1.561V22.097z"/>
		<path fill-rule="evenodd" clip-rule="evenodd" fill="#000001" d="M82.251,24.316h0.939l-0.454-1.327h-0.013L82.251,24.316
			L82.251,24.316z M82.327,22.097h0.82l1.354,3.621h-0.829l-0.272-0.806h-1.35l-0.288,0.806h-0.808L82.327,22.097z"/>
		<polygon fill-rule="evenodd" clip-rule="evenodd" fill="#000001" points="85.237,22.766 84.155,22.766 84.155,22.097 
			87.122,22.097 87.122,22.766 86.038,22.766 86.038,25.718 85.237,25.718 		"/>
		<polygon fill-rule="evenodd" clip-rule="evenodd" fill="#000001" points="87.533,22.097 90.242,22.097 90.242,22.766 
			88.331,22.766 88.331,23.54 90.087,23.54 90.087,24.161 88.331,24.161 88.331,25.046 90.283,25.046 90.283,25.718 87.533,25.718 
					"/>
		<path fill-rule="evenodd" clip-rule="evenodd" fill="#000001" d="M91.616,25.046h0.709c0.461,0,0.901-0.285,0.901-1.082
			c0-0.731-0.253-1.198-1.044-1.198h-0.566V25.046L91.616,25.046z M90.819,22.097h1.563c0.936,0,1.641,0.592,1.641,1.792
			c0,1.045-0.535,1.829-1.641,1.829h-1.563V22.097z"/>
		<path fill-rule="evenodd" clip-rule="evenodd" fill="#000001" d="M41.197,29.882h0.616c0.37,0,0.703-0.081,0.703-0.542
			c0-0.457-0.333-0.543-0.703-0.543h-0.616V29.882L41.197,29.882z M40.401,28.181h1.631c0.903,0,1.252,0.573,1.252,1.159
			c0,0.588-0.349,1.163-1.252,1.163h-0.835V31.8h-0.796V28.181z"/>
		<path fill-rule="evenodd" clip-rule="evenodd" fill="#000001" d="M44.579,29.816h0.871c0.354,0,0.547-0.149,0.547-0.518
			c0-0.349-0.192-0.502-0.547-0.502h-0.871V29.816L44.579,29.816z M43.782,28.181h1.956c0.644,0,1.052,0.453,1.052,0.999
			c0,0.425-0.168,0.742-0.573,0.905v0.009c0.392,0.107,0.507,0.483,0.529,0.849c0.016,0.227,0.013,0.655,0.151,0.857h-0.795
			c-0.096-0.229-0.085-0.582-0.125-0.867c-0.058-0.384-0.201-0.547-0.603-0.547h-0.796V31.8h-0.797V28.181z"/>
		<polygon fill-rule="evenodd" clip-rule="evenodd" fill="#000001" points="47.44,28.181 50.149,28.181 50.149,28.848 
			48.237,28.848 48.237,29.625 49.994,29.625 49.994,30.247 48.237,30.247 48.237,31.131 50.189,31.131 50.189,31.8 47.44,31.8 		
			"/>
		<path fill-rule="evenodd" clip-rule="evenodd" fill="#000001" d="M51.269,30.597c0,0.485,0.372,0.669,0.797,0.669
			c0.285,0,0.711-0.081,0.711-0.449c0-0.391-0.543-0.459-1.074-0.599c-0.541-0.14-1.082-0.35-1.082-1.028
			c0-0.738,0.695-1.098,1.352-1.098c0.756,0,1.451,0.33,1.451,1.17h-0.768c-0.03-0.438-0.34-0.549-0.717-0.549
			c-0.258,0-0.546,0.105-0.546,0.409c0,0.281,0.169,0.314,1.079,0.549c0.264,0.065,1.07,0.232,1.07,1.055
			c0,0.662-0.523,1.162-1.504,1.162c-0.799,0-1.551-0.399-1.54-1.291H51.269z"/>
		<path fill-rule="evenodd" clip-rule="evenodd" fill="#000001" d="M54.558,30.597c0,0.485,0.372,0.669,0.801,0.669
			c0.277,0,0.707-0.081,0.707-0.449c0-0.391-0.543-0.459-1.074-0.599c-0.541-0.14-1.08-0.35-1.08-1.028
			c0-0.738,0.693-1.098,1.351-1.098c0.757,0,1.45,0.33,1.45,1.17h-0.768c-0.027-0.438-0.34-0.549-0.719-0.549
			c-0.252,0-0.545,0.105-0.545,0.409c0,0.281,0.17,0.314,1.079,0.549c0.264,0.065,1.074,0.232,1.074,1.055
			c0,0.662-0.522,1.162-1.507,1.162c-0.802,0-1.552-0.399-1.539-1.291H54.558z"/>
		<path fill-rule="evenodd" clip-rule="evenodd" fill="#000001" d="M60.382,30.429c0,0.979-0.582,1.459-1.553,1.459
			s-1.539-0.473-1.539-1.459v-2.248h0.795v2.248c0,0.398,0.101,0.786,0.744,0.786c0.572,0,0.754-0.246,0.754-0.786v-2.248h0.799
			V30.429z"/>
		<path fill-rule="evenodd" clip-rule="evenodd" fill="#000001" d="M61.859,29.816h0.872c0.351,0,0.547-0.149,0.547-0.518
			c0-0.349-0.196-0.502-0.547-0.502h-0.872V29.816L61.859,29.816z M61.06,28.181h1.955c0.648,0,1.053,0.453,1.053,0.999
			c0,0.425-0.168,0.742-0.568,0.905v0.009c0.387,0.107,0.503,0.483,0.531,0.849c0.011,0.227,0.004,0.655,0.148,0.857h-0.797
			c-0.096-0.229-0.083-0.582-0.124-0.867c-0.059-0.384-0.202-0.547-0.608-0.547h-0.79V31.8h-0.8V28.181z"/>
		<polygon fill-rule="evenodd" clip-rule="evenodd" fill="#000001" points="64.721,28.181 67.425,28.181 67.425,28.848 
			65.519,28.848 65.519,29.625 67.271,29.625 67.271,30.247 65.519,30.247 65.519,31.131 67.47,31.131 67.47,31.8 64.721,31.8 		"/>
		<path fill-rule="evenodd" clip-rule="evenodd" fill="#000001" d="M71.83,29.395c-0.056-0.356-0.399-0.635-0.792-0.635
			c-0.717,0-0.984,0.611-0.984,1.241c0,0.606,0.268,1.214,0.984,1.214c0.486,0,0.758-0.332,0.816-0.811h0.771
			c-0.08,0.901-0.703,1.483-1.588,1.483c-1.121,0-1.781-0.837-1.781-1.887c0-1.07,0.66-1.909,1.781-1.909
			c0.795,0,1.464,0.47,1.561,1.303H71.83z"/>
		<path fill-rule="evenodd" clip-rule="evenodd" fill="#000001" d="M74.794,31.215c0.711,0,0.981-0.607,0.981-1.208
			c0-0.636-0.27-1.243-0.981-1.243c-0.716,0-0.985,0.608-0.985,1.243C73.809,30.607,74.078,31.215,74.794,31.215L74.794,31.215z
			 M74.794,28.092c1.122,0,1.775,0.839,1.775,1.915c0,1.044-0.653,1.881-1.775,1.881c-1.121,0-1.779-0.837-1.779-1.881
			C73.015,28.931,73.673,28.092,74.794,28.092z"/>
		<polygon fill-rule="evenodd" clip-rule="evenodd" fill="#000001" points="77.114,28.181 77.903,28.181 79.412,30.607 
			79.428,30.607 79.428,28.181 80.169,28.181 80.169,31.8 79.372,31.8 77.867,29.374 77.86,29.374 77.86,31.8 77.114,31.8 		"/>
		<polygon fill-rule="evenodd" clip-rule="evenodd" fill="#000001" points="81.669,28.848 80.585,28.848 80.585,28.181 
			83.55,28.181 83.55,28.848 82.466,28.848 82.466,31.8 81.669,31.8 		"/>
		<path fill-rule="evenodd" clip-rule="evenodd" fill="#000001" d="M84.763,29.816h0.871c0.357,0,0.549-0.149,0.549-0.518
			c0-0.349-0.191-0.502-0.549-0.502h-0.871V29.816L84.763,29.816z M83.967,28.181h1.952c0.649,0,1.06,0.453,1.06,0.999
			c0,0.425-0.171,0.742-0.573,0.905v0.009c0.393,0.107,0.5,0.483,0.525,0.849c0.015,0.227,0.015,0.655,0.152,0.857h-0.792
			c-0.098-0.229-0.087-0.582-0.13-0.867c-0.055-0.384-0.201-0.547-0.6-0.547h-0.799V31.8h-0.796V28.181z"/>
		<path fill-rule="evenodd" clip-rule="evenodd" fill="#000001" d="M89.249,31.215c0.714,0,0.982-0.607,0.982-1.208
			c0-0.636-0.268-1.243-0.982-1.243c-0.717,0-0.983,0.608-0.983,1.243C88.266,30.607,88.532,31.215,89.249,31.215L89.249,31.215z
			 M89.249,28.092c1.12,0,1.78,0.839,1.78,1.915c0,1.044-0.66,1.881-1.78,1.881c-1.123,0-1.776-0.837-1.776-1.881
			C87.473,28.931,88.126,28.092,89.249,28.092z"/>
		<polygon fill-rule="evenodd" clip-rule="evenodd" fill="#000001" points="91.571,28.181 92.368,28.181 92.368,31.131 
			94.132,31.131 94.132,31.8 91.571,31.8 		"/>
	</g>
</g>
</svg>
