<?xml version="1.0" encoding="utf-8"?>
<!-- Generator: Adobe Illustrator 17.0.0, SVG Export Plug-In . SVG Version: 6.00 Build 0)  -->
<!DOCTYPE svg PUBLIC "-//W3C//DTD SVG 1.1//EN" "http://www.w3.org/Graphics/SVG/1.1/DTD/svg11.dtd">
<svg version="1.1" id="Layer_1" xmlns="http://www.w3.org/2000/svg" xmlns:xlink="http://www.w3.org/1999/xlink" x="0px" y="0px"
	 width="156px" height="37.501px" viewBox="0 0 156 37.501" enable-background="new 0 0 156 37.501" xml:space="preserve">
<g>
	<rect y="0" fill="#333333" width="156" height="37.501"/>
	<g opacity="0.8">
		<g>
			<defs>
				<rect id="SVGID_8_" x="16.907" y="3.459" width="83.981" height="28.873"/>
			</defs>
			<clipPath id="SVGID_1_">
				<use xlink:href="#SVGID_8_"  overflow="visible"/>
			</clipPath>
			<path clip-path="url(#SVGID_1_)" fill-rule="evenodd" clip-rule="evenodd" fill="#000001" d="M46.541,24.377
				c0.038,0.094,0.059,0.188,0.059,0.289c0,1.598-5.438,2.896-12.142,2.896c-6.706,0-12.143-1.298-12.143-2.896
				c0-0.186,0.075-0.369,0.217-0.547c-1.071-0.177-2.042-0.386-2.87-0.624c-1.734,0.506-2.755,1.125-2.755,1.792
				c0,1.72,6.782,3.121,15.146,3.121c8.365,0,15.146-1.401,15.146-3.121C47.199,24.972,46.967,24.666,46.541,24.377"/>
			<path clip-path="url(#SVGID_1_)" fill-rule="evenodd" clip-rule="evenodd" fill="#EC1C24" d="M46.541,20.425
				c0.038,0.094,0.059,0.187,0.059,0.288c0,1.601-5.438,2.898-12.142,2.898c-6.706,0-12.143-1.297-12.143-2.898
				c0-0.958,1.953-1.809,4.959-2.335c-6.021,0.411-10.367,1.579-10.367,2.956c0,1.727,6.782,3.121,15.146,3.121
				c8.365,0,15.146-1.394,15.146-3.121C47.199,21.02,46.967,20.713,46.541,20.425"/>
			<path clip-path="url(#SVGID_1_)" fill-rule="evenodd" clip-rule="evenodd" fill="#EC1C24" d="M46.541,28.301
				c0.038,0.095,0.059,0.192,0.059,0.29c0,1.6-5.438,2.895-12.142,2.895c-6.706,0-12.143-1.295-12.143-2.895
				c0-0.187,0.075-0.372,0.217-0.548c-1.071-0.176-2.042-0.387-2.87-0.623c-1.734,0.505-2.755,1.127-2.755,1.793
				c0,1.722,6.782,3.119,15.146,3.119c8.365,0,15.146-1.397,15.146-3.119C47.199,28.897,46.967,28.591,46.541,28.301"/>
			<path clip-path="url(#SVGID_1_)" fill-rule="evenodd" clip-rule="evenodd" fill="#000001" d="M50.757,6.241l-7.716-0.104
				c-1.156,0.051-2.01,0.563-2.554,1.528l-4.192,7.465c-0.249,0.447-0.31,0.875-0.186,1.283c0.097,0.31,0.3,0.517,0.61,0.626
				c-0.002-0.012-0.009-0.02-0.013-0.033c-0.125-0.405-0.064-0.834,0.182-1.279l4.196-7.468c0.545-0.964,1.395-1.476,2.552-1.53
				h-0.001l7.716,0.106l1.268-2.253h-0.931L50.757,6.241z"/>
			<path clip-path="url(#SVGID_1_)" fill-rule="evenodd" clip-rule="evenodd" fill="#000001" d="M44.524,19.266H34.407
				c-2.228,0-3.905-0.453-5.026-1.359c1.082,1.3,2.953,1.953,5.623,1.953H45.12l1.263-2.252l-0.934,0.012L44.524,19.266z"/>
			<path clip-path="url(#SVGID_1_)" fill-rule="evenodd" clip-rule="evenodd" fill="#000001" d="M65.933,6.282h-1.676l-3.422,6.096
				h0.927l3.09-5.501h1.677c0.253,0,0.467,0.047,0.652,0.123c-0.017-0.047-0.03-0.094-0.055-0.139
				C66.902,6.477,66.505,6.282,65.933,6.282"/>
			<path clip-path="url(#SVGID_1_)" fill-rule="evenodd" clip-rule="evenodd" fill="#000001" d="M76.264,6.202
				c0.396,0.521,0.59,1.113,0.584,1.783c-0.023,2.045-1.185,3.68-3.488,4.904c-2.115,1.12-4.676,1.683-7.681,1.683h-6.08
				l-2.627,4.693h-8.598l-0.333,0.594h9.525l2.63-4.693h6.079c3.005,0,5.566-0.559,7.679-1.684c2.304-1.223,3.467-2.858,3.488-4.903
				C77.451,7.637,77.052,6.848,76.264,6.202"/>
			<path clip-path="url(#SVGID_1_)" fill-rule="evenodd" clip-rule="evenodd" fill="#000001" d="M99.959,4.582l-0.934,1.659
				L91.31,6.137V6.132c-1.16,0.056-2.008,0.568-2.554,1.533l-4.194,7.465c-0.248,0.447-0.307,0.875-0.183,1.283
				c0.097,0.311,0.298,0.517,0.609,0.626c-0.006-0.012-0.01-0.019-0.014-0.033c-0.124-0.403-0.065-0.834,0.183-1.278l4.195-7.469
				c0.546-0.964,1.396-1.476,2.552-1.53V6.73l7.715,0.105l1.269-2.253H99.959z"/>
			<path clip-path="url(#SVGID_1_)" fill-rule="evenodd" clip-rule="evenodd" fill="#000001" d="M92.793,19.266H82.677
				c-2.229,0-3.907-0.453-5.029-1.359c1.083,1.3,2.954,1.953,5.624,1.953h10.115l1.265-2.252l-0.935,0.012L92.793,19.266z"/>
			<path clip-path="url(#SVGID_1_)" fill-rule="evenodd" clip-rule="evenodd" fill="#EC1C24" d="M98.803,5.709l1.268-2.25h-8.577
				h-0.07c-1.707,0.022-3.333,0.172-4.873,0.435c-1.657,0.285-2.991,0.682-4.004,1.188c-2.446,1.223-4.376,3.226-5.785,6.017
				c-0.567,1.125-0.852,2.166-0.852,3.119c0,0.796,0.193,1.5,0.584,2.118c1.008,1.6,2.993,2.4,5.96,2.4h10.117l1.265-2.253
				l-8.456,0.112c-0.667,0.006-1.073-0.229-1.223-0.713c-0.125-0.411-0.065-0.834,0.184-1.281l4.194-7.466
				c0.544-0.968,1.395-1.476,2.552-1.533v0.003L98.803,5.709z M50.535,5.709l1.268-2.25h-8.576h-0.002h-0.068
				c-1.711,0.022-3.333,0.172-4.873,0.435c-1.657,0.285-2.993,0.682-4.004,1.188c-2.448,1.223-4.375,3.226-5.785,6.017
				c-0.569,1.125-0.853,2.166-0.853,3.119c0,0.796,0.196,1.5,0.581,2.118c1.01,1.6,2.998,2.4,5.965,2.4h10.115l1.264-2.253
				l-8.454,0.112c-0.666,0.006-1.075-0.229-1.224-0.713c-0.126-0.411-0.064-0.834,0.182-1.281l4.195-7.466
				c0.547-0.968,1.396-1.476,2.552-1.533v0.003L50.535,5.709z M60.612,11.847h2.22c1.112,0,1.957-0.524,2.538-1.564l1.408-2.516
				c0.18-0.326,0.27-0.621,0.27-0.888c0-0.198-0.046-0.382-0.143-0.549c-0.224-0.387-0.62-0.576-1.193-0.576h-1.677L60.612,11.847z
				 M47.224,18.736l8.555-15.264h14.357c1.483,0,2.853,0.29,4.108,0.869c1.603,0.735,2.395,1.77,2.382,3.112
				c-0.022,2.048-1.184,3.681-3.487,4.905c-2.118,1.119-4.676,1.68-7.682,1.68h-6.08l-2.628,4.698H47.224z"/>
			<path clip-path="url(#SVGID_1_)" fill-rule="evenodd" clip-rule="evenodd" fill="#000001" d="M66.387,23.767
				c-0.045-0.314-0.346-0.554-0.689-0.554c-0.622,0-0.859,0.532-0.859,1.084c0,0.523,0.237,1.052,0.859,1.052
				c0.422,0,0.662-0.288,0.713-0.705h0.672c-0.07,0.788-0.612,1.288-1.385,1.288c-0.976,0-1.549-0.728-1.549-1.635
				c0-0.936,0.573-1.67,1.549-1.67c0.693,0,1.276,0.411,1.358,1.14H66.387z"/>
			<path clip-path="url(#SVGID_1_)" fill-rule="evenodd" clip-rule="evenodd" fill="#000001" d="M68.967,25.349
				c0.623,0,0.857-0.53,0.857-1.052c0-0.554-0.234-1.084-0.857-1.084c-0.621,0-0.856,0.53-0.856,1.084
				C68.111,24.819,68.346,25.349,68.967,25.349 M68.967,22.631c0.977,0,1.551,0.726,1.551,1.666c0,0.907-0.574,1.635-1.551,1.635
				c-0.974,0-1.55-0.728-1.55-1.635C67.417,23.357,67.993,22.631,68.967,22.631"/>
			<polygon clip-path="url(#SVGID_1_)" fill-rule="evenodd" clip-rule="evenodd" fill="#000001" points="70.991,22.704 
				71.679,22.704 72.994,24.819 73.002,24.819 73.002,22.704 73.653,22.704 73.653,25.857 72.959,25.857 71.647,23.748 
				71.638,23.748 71.638,25.857 70.991,25.857 			"/>
			<path clip-path="url(#SVGID_1_)" fill-rule="evenodd" clip-rule="evenodd" fill="#000001" d="M74.735,24.811
				c0,0.42,0.326,0.581,0.695,0.581c0.244,0,0.615-0.069,0.615-0.39c0-0.342-0.471-0.4-0.936-0.523
				c-0.468-0.124-0.938-0.304-0.938-0.896c0-0.646,0.607-0.952,1.177-0.952c0.657,0,1.263,0.289,1.263,1.015h-0.673
				c-0.022-0.383-0.29-0.478-0.622-0.478c-0.219,0-0.476,0.093-0.476,0.358c0,0.244,0.149,0.276,0.941,0.478
				c0.228,0.057,0.936,0.201,0.936,0.915c0,0.58-0.455,1.013-1.312,1.013c-0.698,0-1.351-0.342-1.342-1.121H74.735z"/>
			<path clip-path="url(#SVGID_1_)" fill-rule="evenodd" clip-rule="evenodd" fill="#000001" d="M78.539,25.349
				c0.622,0,0.856-0.53,0.856-1.052c0-0.554-0.234-1.084-0.856-1.084c-0.622,0-0.855,0.53-0.855,1.084
				C77.684,24.819,77.917,25.349,78.539,25.349 M78.539,22.631c0.976,0,1.55,0.726,1.55,1.666c0,0.907-0.574,1.635-1.55,1.635
				c-0.975,0-1.55-0.728-1.55-1.635C76.989,23.357,77.564,22.631,78.539,22.631"/>
			<polygon clip-path="url(#SVGID_1_)" fill-rule="evenodd" clip-rule="evenodd" fill="#000001" points="80.561,22.704 
				81.253,22.704 81.253,25.272 82.79,25.272 82.79,25.857 80.561,25.857 			"/>
			
				<rect x="83.18" y="22.704" clip-path="url(#SVGID_1_)" fill-rule="evenodd" clip-rule="evenodd" fill="#000001" width="0.693" height="3.153"/>
			<path clip-path="url(#SVGID_1_)" fill-rule="evenodd" clip-rule="evenodd" fill="#000001" d="M85.176,25.272h0.617
				c0.403,0,0.787-0.247,0.787-0.94c0-0.639-0.222-1.045-0.91-1.045h-0.494V25.272z M84.481,22.704h1.36
				c0.819,0,1.431,0.514,1.431,1.561c0,0.91-0.468,1.592-1.431,1.592h-1.36V22.704z"/>
			<path clip-path="url(#SVGID_1_)" fill-rule="evenodd" clip-rule="evenodd" fill="#000001" d="M88.547,24.637h0.816l-0.395-1.157
				h-0.011L88.547,24.637z M88.613,22.704h0.712l1.179,3.153h-0.721l-0.237-0.703h-1.178l-0.249,0.703h-0.701L88.613,22.704z"/>
			<polygon clip-path="url(#SVGID_1_)" fill-rule="evenodd" clip-rule="evenodd" fill="#000001" points="91.147,23.287 
				90.202,23.287 90.202,22.704 92.786,22.704 92.786,23.287 91.843,23.287 91.843,25.857 91.147,25.857 			"/>
			<polygon clip-path="url(#SVGID_1_)" fill-rule="evenodd" clip-rule="evenodd" fill="#000001" points="93.147,22.704 
				95.505,22.704 95.505,23.287 93.84,23.287 93.84,23.961 95.37,23.961 95.37,24.502 93.84,24.502 93.84,25.272 95.54,25.272 
				95.54,25.857 93.147,25.857 			"/>
			<path clip-path="url(#SVGID_1_)" fill-rule="evenodd" clip-rule="evenodd" fill="#000001" d="M96.702,25.272h0.618
				c0.4,0,0.787-0.247,0.787-0.94c0-0.639-0.222-1.045-0.911-1.045h-0.494V25.272z M96.008,22.704h1.36
				c0.817,0,1.43,0.514,1.43,1.561c0,0.91-0.466,1.592-1.43,1.592h-1.36V22.704z"/>
			<path clip-path="url(#SVGID_1_)" fill-rule="evenodd" clip-rule="evenodd" fill="#000001" d="M52.789,29.484h0.537
				c0.324,0,0.609-0.07,0.609-0.47c0-0.401-0.285-0.474-0.609-0.474h-0.537V29.484z M52.094,28.002h1.422
				c0.786,0,1.09,0.501,1.09,1.012c0,0.51-0.304,1.011-1.09,1.011h-0.727v1.129h-0.695V28.002z"/>
			<path clip-path="url(#SVGID_1_)" fill-rule="evenodd" clip-rule="evenodd" fill="#000001" d="M55.733,29.429h0.76
				c0.307,0,0.476-0.132,0.476-0.449c0-0.307-0.169-0.44-0.476-0.44h-0.76V29.429z M55.041,28.002h1.702
				c0.563,0,0.919,0.394,0.919,0.871c0,0.369-0.15,0.647-0.499,0.789v0.008c0.34,0.091,0.44,0.42,0.46,0.738
				c0.012,0.199,0.009,0.572,0.131,0.746H57.06c-0.084-0.199-0.073-0.506-0.109-0.755c-0.05-0.333-0.176-0.475-0.527-0.475h-0.691
				v1.23h-0.693V28.002z"/>
			<polygon clip-path="url(#SVGID_1_)" fill-rule="evenodd" clip-rule="evenodd" fill="#000001" points="58.227,28.002 
				60.585,28.002 60.585,28.584 58.92,28.584 58.92,29.262 60.449,29.262 60.449,29.801 58.92,29.801 58.92,30.573 60.619,30.573 
				60.619,31.154 58.227,31.154 			"/>
			<path clip-path="url(#SVGID_1_)" fill-rule="evenodd" clip-rule="evenodd" fill="#000001" d="M61.561,30.108
				c0,0.42,0.325,0.581,0.696,0.581c0.243,0,0.615-0.07,0.615-0.391c0-0.34-0.473-0.399-0.937-0.52
				c-0.468-0.124-0.939-0.305-0.939-0.897c0-0.645,0.607-0.957,1.177-0.957c0.658,0,1.264,0.289,1.264,1.019h-0.671
				c-0.022-0.381-0.292-0.477-0.623-0.477c-0.223,0-0.478,0.091-0.478,0.356c0,0.246,0.152,0.274,0.941,0.479
				c0.23,0.057,0.934,0.203,0.934,0.918c0,0.578-0.454,1.013-1.31,1.013c-0.695,0-1.352-0.348-1.341-1.124H61.561z"/>
			<path clip-path="url(#SVGID_1_)" fill-rule="evenodd" clip-rule="evenodd" fill="#000001" d="M64.424,30.108
				c0,0.42,0.327,0.581,0.699,0.581c0.241,0,0.613-0.07,0.613-0.391c0-0.34-0.472-0.399-0.935-0.52
				c-0.468-0.124-0.941-0.305-0.941-0.897c0-0.645,0.609-0.957,1.18-0.957c0.657,0,1.262,0.289,1.262,1.019h-0.67
				c-0.026-0.381-0.293-0.477-0.623-0.477c-0.222,0-0.477,0.091-0.477,0.356c0,0.246,0.149,0.274,0.941,0.479
				c0.227,0.057,0.934,0.203,0.934,0.918c0,0.578-0.455,1.013-1.31,1.013c-0.7,0-1.352-0.348-1.343-1.124H64.424z"/>
			<path clip-path="url(#SVGID_1_)" fill-rule="evenodd" clip-rule="evenodd" fill="#000001" d="M69.495,29.96
				c0,0.854-0.505,1.272-1.348,1.272c-0.847,0-1.34-0.413-1.34-1.272v-1.958h0.691v1.958c0,0.347,0.087,0.687,0.649,0.687
				c0.496,0,0.654-0.216,0.654-0.687v-1.958h0.694V29.96z"/>
			<path clip-path="url(#SVGID_1_)" fill-rule="evenodd" clip-rule="evenodd" fill="#000001" d="M70.783,29.429h0.76
				c0.309,0,0.476-0.132,0.476-0.449c0-0.307-0.167-0.44-0.476-0.44h-0.76V29.429z M70.087,28.002h1.702
				c0.565,0,0.921,0.394,0.921,0.871c0,0.369-0.148,0.647-0.497,0.789v0.008c0.338,0.091,0.437,0.42,0.459,0.738
				c0.013,0.199,0.008,0.572,0.132,0.746h-0.692c-0.086-0.199-0.076-0.506-0.111-0.755c-0.048-0.333-0.176-0.475-0.526-0.475h-0.692
				v1.23h-0.696V28.002z"/>
			<polygon clip-path="url(#SVGID_1_)" fill-rule="evenodd" clip-rule="evenodd" fill="#000001" points="73.277,28.002 
				75.634,28.002 75.634,28.584 73.97,28.584 73.97,29.262 75.496,29.262 75.496,29.801 73.97,29.801 73.97,30.573 75.671,30.573 
				75.671,31.154 73.277,31.154 			"/>
			<path clip-path="url(#SVGID_1_)" fill-rule="evenodd" clip-rule="evenodd" fill="#000001" d="M79.467,29.061
				c-0.044-0.312-0.344-0.552-0.688-0.552c-0.624,0-0.857,0.532-0.857,1.081c0,0.528,0.233,1.057,0.857,1.057
				c0.423,0,0.661-0.291,0.714-0.707h0.672c-0.071,0.786-0.613,1.293-1.386,1.293c-0.976,0-1.553-0.731-1.553-1.643
				c0-0.935,0.577-1.665,1.553-1.665c0.693,0,1.275,0.409,1.359,1.136H79.467z"/>
			<path clip-path="url(#SVGID_1_)" fill-rule="evenodd" clip-rule="evenodd" fill="#000001" d="M82.049,30.647
				c0.623,0,0.854-0.53,0.854-1.053c0-0.553-0.231-1.083-0.854-1.083c-0.622,0-0.857,0.53-0.857,1.083
				C81.192,30.117,81.427,30.647,82.049,30.647 M82.049,27.925c0.977,0,1.55,0.729,1.55,1.669c0,0.908-0.573,1.639-1.55,1.639
				c-0.975,0-1.549-0.731-1.549-1.639C80.5,28.654,81.074,27.925,82.049,27.925"/>
			<polygon clip-path="url(#SVGID_1_)" fill-rule="evenodd" clip-rule="evenodd" fill="#000001" points="84.072,28.002 
				84.76,28.002 86.075,30.117 86.085,30.117 86.085,28.002 86.734,28.002 86.734,31.154 86.041,31.154 84.728,29.043 84.72,29.043 
				84.72,31.154 84.072,31.154 			"/>
			<polygon clip-path="url(#SVGID_1_)" fill-rule="evenodd" clip-rule="evenodd" fill="#000001" points="88.042,28.584 
				87.096,28.584 87.096,28.002 89.677,28.002 89.677,28.584 88.732,28.584 88.732,31.154 88.042,31.154 			"/>
			<path clip-path="url(#SVGID_1_)" fill-rule="evenodd" clip-rule="evenodd" fill="#000001" d="M90.732,29.429h0.761
				c0.309,0,0.478-0.132,0.478-0.449c0-0.307-0.169-0.44-0.478-0.44h-0.761V29.429z M90.04,28.002h1.7
				c0.567,0,0.922,0.394,0.922,0.871c0,0.369-0.148,0.647-0.498,0.789v0.008c0.339,0.091,0.437,0.42,0.46,0.738
				c0.012,0.199,0.009,0.572,0.131,0.746h-0.693c-0.084-0.199-0.074-0.506-0.11-0.755c-0.048-0.333-0.177-0.475-0.526-0.475h-0.694
				v1.23H90.04V28.002z"/>
			<path clip-path="url(#SVGID_1_)" fill-rule="evenodd" clip-rule="evenodd" fill="#000001" d="M94.641,30.647
				c0.622,0,0.855-0.53,0.855-1.053c0-0.553-0.233-1.083-0.855-1.083c-0.623,0-0.857,0.53-0.857,1.083
				C93.784,30.117,94.018,30.647,94.641,30.647 M94.641,27.925c0.975,0,1.549,0.729,1.549,1.669c0,0.908-0.574,1.639-1.549,1.639
				c-0.977,0-1.55-0.731-1.55-1.639C93.091,28.654,93.664,27.925,94.641,27.925"/>
			<polygon clip-path="url(#SVGID_1_)" fill-rule="evenodd" clip-rule="evenodd" fill="#000001" points="96.663,28.002 
				97.356,28.002 97.356,30.573 98.892,30.573 98.892,31.154 96.663,31.154 			"/>
		</g>
		<rect x="16.907" y="3.459" fill="none" width="83.981" height="28.873"/>
	</g>
</g>
</svg>
