<?xml version="1.0" encoding="utf-8"?>
<!-- Generator: Adobe Illustrator 16.0.0, SVG Export Plug-In . SVG Version: 6.00 Build 0)  -->
<!DOCTYPE svg PUBLIC "-//W3C//DTD SVG 1.1//EN" "http://www.w3.org/Graphics/SVG/1.1/DTD/svg11.dtd">
<svg version="1.1" xmlns="http://www.w3.org/2000/svg" xmlns:xlink="http://www.w3.org/1999/xlink" x="0px" y="0px" width="1089px"
	 height="459px" viewBox="0 0 1089 459" enable-background="new 0 0 1089 459" xml:space="preserve">
<g id="Layer_1" display="none">
</g>
<g id="Cylinder">
	<g>
		<path fill="#E6E6E6" stroke="#E6E6E6" stroke-miterlimit="10" d="M80.5,48.396V432.5h-74V48.396c0-15.689,9.77-29.1,23.55-34.479
			c-0.36-0.851-0.55-1.78-0.55-2.75v-0.54c0-3.68,2.73-6.7,6.28-7.16c-0.18-0.29-0.28-0.63-0.28-0.99v-0.16
			c0-1.06,0.86-1.816,1.92-1.816h12.16c1.06,0,1.92,0.757,1.92,1.816v0.16c0,0.36-0.1,0.7-0.28,0.99c3.55,0.46,6.28,3.48,6.28,7.16
			v0.54c0,0.97-0.19,1.899-0.55,2.75C70.73,19.297,80.5,32.707,80.5,48.396z"/>
		<path fill="#E6E6E6" stroke="#E6E6E6" stroke-miterlimit="10" d="M164.5,48.396V432.5h-74V48.396c0-15.689,9.77-29.1,23.55-34.479
			c-0.36-0.851-0.55-1.78-0.55-2.75v-0.54c0-3.68,2.73-6.7,6.28-7.16c-0.18-0.29-0.28-0.63-0.28-0.99v-0.16
			c0-1.06,0.86-1.816,1.92-1.816h12.16c1.06,0,1.92,0.757,1.92,1.816v0.16c0,0.36-0.1,0.7-0.28,0.99c3.55,0.46,6.28,3.48,6.28,7.16
			v0.54c0,0.97-0.19,1.899-0.55,2.75C154.73,19.297,164.5,32.707,164.5,48.396z"/>
		<path fill="#E6E6E6" stroke="#E6E6E6" stroke-miterlimit="10" d="M248.5,48.396V432.5h-74V48.396c0-15.689,9.77-29.1,23.55-34.479
			c-0.36-0.851-0.55-1.78-0.55-2.75v-0.54c0-3.68,2.73-6.7,6.28-7.16c-0.18-0.29-0.28-0.63-0.28-0.99v-0.16
			c0-1.06,0.86-1.816,1.92-1.816h12.16c1.06,0,1.92,0.757,1.92,1.816v0.16c0,0.36-0.1,0.7-0.28,0.99c3.55,0.46,6.28,3.48,6.28,7.16
			v0.54c0,0.97-0.19,1.899-0.55,2.75C238.73,19.297,248.5,32.707,248.5,48.396z"/>
		<path fill="#E6E6E6" stroke="#E6E6E6" stroke-miterlimit="10" d="M332.5,48.396V432.5h-74V48.396c0-15.689,9.77-29.1,23.55-34.479
			c-0.36-0.851-0.55-1.78-0.55-2.75v-0.54c0-3.68,2.73-6.7,6.28-7.16c-0.18-0.29-0.28-0.63-0.28-0.99v-0.16
			c0-1.06,0.86-1.816,1.92-1.816h12.16c1.06,0,1.92,0.757,1.92,1.816v0.16c0,0.36-0.1,0.7-0.28,0.99c3.55,0.46,6.28,3.48,6.28,7.16
			v0.54c0,0.97-0.19,1.899-0.55,2.75C322.73,19.297,332.5,32.707,332.5,48.396z"/>
		<path fill="#E6E6E6" stroke="#E6E6E6" stroke-miterlimit="10" d="M416.5,48.396V432.5h-74V48.396c0-15.689,9.77-29.1,23.55-34.479
			c-0.36-0.851-0.55-1.78-0.55-2.75v-0.54c0-3.68,2.73-6.7,6.28-7.16c-0.18-0.29-0.28-0.63-0.28-0.99v-0.16
			c0-1.06,0.86-1.816,1.92-1.816h12.16c1.06,0,1.92,0.757,1.92,1.816v0.16c0,0.36-0.1,0.7-0.28,0.99c3.55,0.46,6.28,3.48,6.28,7.16
			v0.54c0,0.97-0.19,1.899-0.55,2.75C406.73,19.297,416.5,32.707,416.5,48.396z"/>
		<path fill="#E6E6E6" stroke="#E6E6E6" stroke-miterlimit="10" d="M500.5,48.396V432.5h-74V48.396c0-15.689,9.77-29.1,23.55-34.479
			c-0.36-0.851-0.55-1.78-0.55-2.75v-0.54c0-3.68,2.73-6.7,6.28-7.16c-0.18-0.29-0.28-0.63-0.28-0.99v-0.16
			c0-1.06,0.86-1.816,1.92-1.816h12.16c1.06,0,1.92,0.757,1.92,1.816v0.16c0,0.36-0.1,0.7-0.28,0.99c3.55,0.46,6.28,3.48,6.28,7.16
			v0.54c0,0.97-0.19,1.899-0.55,2.75C490.73,19.297,500.5,32.707,500.5,48.396z"/>
		<path fill="#E6E6E6" stroke="#E6E6E6" stroke-miterlimit="10" d="M584.5,48.396V432.5h-74V48.396c0-15.689,9.77-29.1,23.55-34.479
			c-0.36-0.851-0.55-1.78-0.55-2.75v-0.54c0-3.68,2.73-6.7,6.279-7.16c-0.18-0.29-0.279-0.63-0.279-0.99v-0.16
			c0-1.06,0.859-1.816,1.92-1.816h12.16c1.061,0,1.92,0.757,1.92,1.816v0.16c0,0.36-0.1,0.7-0.279,0.99
			c3.549,0.46,6.279,3.48,6.279,7.16v0.54c0,0.97-0.189,1.899-0.55,2.75C574.73,19.297,584.5,32.707,584.5,48.396z"/>
		<path fill="#E6E6E6" stroke="#E6E6E6" stroke-miterlimit="10" d="M668.5,48.396V432.5h-74V48.396c0-15.689,9.77-29.1,23.55-34.479
			c-0.36-0.851-0.55-1.78-0.55-2.75v-0.54c0-3.68,2.73-6.7,6.279-7.16c-0.18-0.29-0.279-0.63-0.279-0.99v-0.16
			c0-1.06,0.859-1.816,1.92-1.816h12.16c1.061,0,1.92,0.757,1.92,1.816v0.16c0,0.36-0.1,0.7-0.279,0.99
			c3.549,0.46,6.279,3.48,6.279,7.16v0.54c0,0.97-0.189,1.899-0.55,2.75C658.73,19.297,668.5,32.707,668.5,48.396z"/>
		<path fill="#E6E6E6" stroke="#E6E6E6" stroke-miterlimit="10" d="M752.5,48.396V432.5h-74V48.396c0-15.689,9.77-29.1,23.55-34.479
			c-0.36-0.851-0.55-1.78-0.55-2.75v-0.54c0-3.68,2.73-6.7,6.279-7.16c-0.18-0.29-0.279-0.63-0.279-0.99v-0.16
			c0-1.06,0.859-1.816,1.92-1.816h12.16c1.061,0,1.92,0.757,1.92,1.816v0.16c0,0.36-0.1,0.7-0.279,0.99
			c3.549,0.46,6.279,3.48,6.279,7.16v0.54c0,0.97-0.189,1.899-0.55,2.75C742.73,19.297,752.5,32.707,752.5,48.396z"/>
		<path fill="#E6E6E6" stroke="#E6E6E6" stroke-miterlimit="10" d="M836.5,48.396V432.5h-74V48.396c0-15.689,9.77-29.1,23.55-34.479
			c-0.36-0.851-0.55-1.78-0.55-2.75v-0.54c0-3.68,2.73-6.7,6.279-7.16c-0.18-0.29-0.279-0.63-0.279-0.99v-0.16
			c0-1.06,0.859-1.816,1.92-1.816h12.16c1.061,0,1.92,0.757,1.92,1.816v0.16c0,0.36-0.1,0.7-0.279,0.99
			c3.549,0.46,6.279,3.48,6.279,7.16v0.54c0,0.97-0.189,1.899-0.55,2.75C826.73,19.297,836.5,32.707,836.5,48.396z"/>
		<path fill="#E6E6E6" stroke="#E6E6E6" stroke-miterlimit="10" d="M920.5,48.396V432.5h-74V48.396c0-15.689,9.77-29.1,23.55-34.479
			c-0.36-0.851-0.55-1.78-0.55-2.75v-0.54c0-3.68,2.73-6.7,6.279-7.16c-0.18-0.29-0.279-0.63-0.279-0.99v-0.16
			c0-1.06,0.859-1.816,1.92-1.816h12.16c1.061,0,1.92,0.757,1.92,1.816v0.16c0,0.36-0.1,0.7-0.279,0.99
			c3.549,0.46,6.279,3.48,6.279,7.16v0.54c0,0.97-0.189,1.899-0.55,2.75C910.73,19.297,920.5,32.707,920.5,48.396z"/>
		<path fill="#E6E6E6" stroke="#E6E6E6" stroke-miterlimit="10" d="M1004.5,48.396V432.5h-74V48.396
			c0-15.689,9.77-29.1,23.55-34.479c-0.36-0.851-0.55-1.78-0.55-2.75v-0.54c0-3.68,2.73-6.7,6.279-7.16
			c-0.18-0.29-0.279-0.63-0.279-0.99v-0.16c0-1.06,0.859-1.816,1.92-1.816h12.16c1.061,0,1.92,0.757,1.92,1.816v0.16
			c0,0.36-0.1,0.7-0.279,0.99c3.549,0.46,6.279,3.48,6.279,7.16v0.54c0,0.97-0.189,1.899-0.55,2.75
			C994.73,19.297,1004.5,32.707,1004.5,48.396z"/>
		<path fill="#E6E6E6" stroke="#E6E6E6" stroke-miterlimit="10" d="M1088.5,48.396V432.5h-74V48.396
			c0-15.689,9.77-29.1,23.55-34.479c-0.36-0.851-0.55-1.78-0.55-2.75v-0.54c0-3.68,2.73-6.7,6.279-7.16
			c-0.18-0.29-0.279-0.63-0.279-0.99v-0.16c0-1.06,0.859-1.816,1.92-1.816h12.16c1.061,0,1.92,0.757,1.92,1.816v0.16
			c0,0.36-0.1,0.7-0.279,0.99c3.549,0.46,6.279,3.48,6.279,7.16v0.54c0,0.97-0.189,1.899-0.55,2.75
			C1078.73,19.297,1088.5,32.707,1088.5,48.396z"/>
		<path fill="#B3B3B3" stroke="#B3B3B3" stroke-miterlimit="10" d="M74.5,74.396V458.5h-74V74.396c0-15.689,9.77-29.1,23.55-34.479
			c-0.36-0.851-0.55-1.78-0.55-2.75v-0.54c0-3.68,2.73-6.7,6.28-7.16c-0.18-0.29-0.28-0.63-0.28-0.99v-0.16
			c0-1.06,0.86-1.816,1.92-1.816h12.16c1.06,0,1.92,0.757,1.92,1.816v0.16c0,0.36-0.1,0.7-0.28,0.99c3.55,0.46,6.28,3.48,6.28,7.16
			v0.54c0,0.97-0.19,1.899-0.55,2.75C64.73,45.297,74.5,58.707,74.5,74.396z">
		<animate attributeName="fill" attributeType="XML" from="#f78332" to="#cccccc" dur="1s" repeatCount="indefinite"/>   
            <animate attributeName="stroke" attributeType="XML" from="#cccccc" to="#000000" dur="1s" repeatCount="indefinite"/>
            </path> 





		<path fill="#B3B3B3" stroke="#B3B3B3" stroke-miterlimit="10" d="M158.5,74.396V458.5h-74V74.396c0-15.689,9.77-29.1,23.55-34.479
			c-0.36-0.851-0.55-1.78-0.55-2.75v-0.54c0-3.68,2.73-6.7,6.28-7.16c-0.18-0.29-0.28-0.63-0.28-0.99v-0.16
			c0-1.06,0.86-1.816,1.92-1.816h12.16c1.06,0,1.92,0.757,1.92,1.816v0.16c0,0.36-0.1,0.7-0.28,0.99c3.55,0.46,6.28,3.48,6.28,7.16
			v0.54c0,0.97-0.19,1.899-0.55,2.75C148.73,45.297,158.5,58.707,158.5,74.396z">
		<animate attributeName="fill" attributeType="XML" from="#f78332" to="#cccccc" dur="1s" repeatCount="indefinite"/>   
            <animate attributeName="stroke" attributeType="XML" from="#cccccc" to="#000000" dur=".5s" repeatCount="indefinite"/>
            </path> 




		<path fill="#B3B3B3" stroke="#B3B3B3" stroke-miterlimit="10" d="M242.5,74.396V458.5h-74V74.396c0-15.689,9.77-29.1,23.55-34.479
			c-0.36-0.851-0.55-1.78-0.55-2.75v-0.54c0-3.68,2.73-6.7,6.28-7.16c-0.18-0.29-0.28-0.63-0.28-0.99v-0.16
			c0-1.06,0.86-1.816,1.92-1.816h12.16c1.06,0,1.92,0.757,1.92,1.816v0.16c0,0.36-0.1,0.7-0.28,0.99c3.55,0.46,6.28,3.48,6.28,7.16
			v0.54c0,0.97-0.19,1.899-0.55,2.75C232.73,45.297,242.5,58.707,242.5,74.396z">
		<animate attributeName="fill" attributeType="XML" from="#f78332" to="#cccccc" dur="1s" repeatCount="indefinite"/>   
            <animate attributeName="stroke" attributeType="XML" from="#cccccc" to="#000000" dur=".5s" repeatCount="indefinite"/>
            </path> 




		<path fill="#B3B3B3" stroke="#B3B3B3" stroke-miterlimit="10" d="M326.5,74.396V458.5h-74V74.396c0-15.689,9.77-29.1,23.55-34.479
			c-0.36-0.851-0.55-1.78-0.55-2.75v-0.54c0-3.68,2.73-6.7,6.28-7.16c-0.18-0.29-0.28-0.63-0.28-0.99v-0.16
			c0-1.06,0.86-1.816,1.92-1.816h12.16c1.06,0,1.92,0.757,1.92,1.816v0.16c0,0.36-0.1,0.7-0.28,0.99c3.55,0.46,6.28,3.48,6.28,7.16
			v0.54c0,0.97-0.19,1.899-0.55,2.75C316.73,45.297,326.5,58.707,326.5,74.396z">
		<animate attributeName="fill" attributeType="XML" from="#f78332" to="#cccccc" dur="1s" repeatCount="indefinite"/>   
            <animate attributeName="stroke" attributeType="XML" from="#cccccc" to="#000000" dur=".5s" repeatCount="indefinite"/>
            </path> 



		<path fill="#B3B3B3" stroke="#B3B3B3" stroke-miterlimit="10" d="M410.5,74.396V458.5h-74V74.396c0-15.689,9.77-29.1,23.55-34.479
			c-0.36-0.851-0.55-1.78-0.55-2.75v-0.54c0-3.68,2.73-6.7,6.28-7.16c-0.18-0.29-0.28-0.63-0.28-0.99v-0.16
			c0-1.06,0.86-1.816,1.92-1.816h12.16c1.06,0,1.92,0.757,1.92,1.816v0.16c0,0.36-0.1,0.7-0.28,0.99c3.55,0.46,6.28,3.48,6.28,7.16
			v0.54c0,0.97-0.19,1.899-0.55,2.75C400.73,45.297,410.5,58.707,410.5,74.396z">
		<animate attributeName="fill" attributeType="XML" from="#f78332" to="#cccccc" dur="1s" repeatCount="indefinite"/>   
            <animate attributeName="stroke" attributeType="XML" from="#cccccc" to="#000000" dur=".5s" repeatCount="indefinite"/>
            </path> 



		<path fill="#B3B3B3" stroke="#B3B3B3" stroke-miterlimit="10" d="M494.5,74.396V458.5h-74V74.396c0-15.689,9.77-29.1,23.55-34.479
			c-0.36-0.851-0.55-1.78-0.55-2.75v-0.54c0-3.68,2.73-6.7,6.28-7.16c-0.18-0.29-0.28-0.63-0.28-0.99v-0.16
			c0-1.06,0.86-1.816,1.92-1.816h12.16c1.06,0,1.92,0.757,1.92,1.816v0.16c0,0.36-0.1,0.7-0.28,0.99c3.55,0.46,6.28,3.48,6.28,7.16
			v0.54c0,0.97-0.19,1.899-0.55,2.75C484.73,45.297,494.5,58.707,494.5,74.396z">
		<animate attributeName="fill" attributeType="XML" from="#f78332" to="#cccccc" dur="1s" repeatCount="indefinite"/>   
            <animate attributeName="stroke" attributeType="XML" from="#cccccc" to="#000000" dur=".5s" repeatCount="indefinite"/>
            </path> 


		<path fill="#B3B3B3" stroke="#B3B3B3" stroke-miterlimit="10" d="M578.5,74.396V458.5h-74V74.396c0-15.689,9.77-29.1,23.55-34.479
			c-0.36-0.851-0.55-1.78-0.55-2.75v-0.54c0-3.68,2.73-6.7,6.28-7.16c-0.18-0.29-0.28-0.63-0.28-0.99v-0.16
			c0-1.06,0.86-1.816,1.92-1.816h12.16c1.061,0,1.92,0.757,1.92,1.816v0.16c0,0.36-0.1,0.7-0.279,0.99
			c3.549,0.46,6.279,3.48,6.279,7.16v0.54c0,0.97-0.189,1.899-0.55,2.75C568.73,45.297,578.5,58.707,578.5,74.396z">
		<animate attributeName="fill" attributeType="XML" from="#f78332" to="#cccccc" dur="1s" repeatCount="indefinite"/>   
            <animate attributeName="stroke" attributeType="XML" from="#cccccc" to="#000000" dur=".5s" repeatCount="indefinite"/>
            </path> 


		<path fill="#B3B3B3" stroke="#B3B3B3" stroke-miterlimit="10" d="M662.5,74.396V458.5h-74V74.396c0-15.689,9.77-29.1,23.55-34.479
			c-0.36-0.851-0.55-1.78-0.55-2.75v-0.54c0-3.68,2.73-6.7,6.279-7.16c-0.18-0.29-0.279-0.63-0.279-0.99v-0.16
			c0-1.06,0.859-1.816,1.92-1.816h12.16c1.061,0,1.92,0.757,1.92,1.816v0.16c0,0.36-0.1,0.7-0.279,0.99
			c3.549,0.46,6.279,3.48,6.279,7.16v0.54c0,0.97-0.189,1.899-0.55,2.75C652.73,45.297,662.5,58.707,662.5,74.396z">
		<animate attributeName="fill" attributeType="XML" from="#f78332" to="#cccccc" dur="1s" repeatCount="indefinite"/>   
            <animate attributeName="stroke" attributeType="XML" from="#cccccc" to="#000000" dur=".5s" repeatCount="indefinite"/>
            </path> 


		<path fill="#B3B3B3" stroke="#B3B3B3" stroke-miterlimit="10" d="M746.5,74.396V458.5h-74V74.396c0-15.689,9.77-29.1,23.55-34.479
			c-0.36-0.851-0.55-1.78-0.55-2.75v-0.54c0-3.68,2.73-6.7,6.279-7.16c-0.18-0.29-0.279-0.63-0.279-0.99v-0.16
			c0-1.06,0.859-1.816,1.92-1.816h12.16c1.061,0,1.92,0.757,1.92,1.816v0.16c0,0.36-0.1,0.7-0.279,0.99
			c3.549,0.46,6.279,3.48,6.279,7.16v0.54c0,0.97-0.189,1.899-0.55,2.75C736.73,45.297,746.5,58.707,746.5,74.396z">
		<animate attributeName="fill" attributeType="XML" from="#f78332" to="#cccccc" dur="1s" repeatCount="indefinite"/>   
            <animate attributeName="stroke" attributeType="XML" from="#cccccc" to="#000000" dur=".5s" repeatCount="indefinite"/>
            </path> 


		<path fill="#B3B3B3" stroke="#B3B3B3" stroke-miterlimit="10" d="M830.5,74.396V458.5h-74V74.396c0-15.689,9.77-29.1,23.55-34.479
			c-0.36-0.851-0.55-1.78-0.55-2.75v-0.54c0-3.68,2.73-6.7,6.279-7.16c-0.18-0.29-0.279-0.63-0.279-0.99v-0.16
			c0-1.06,0.859-1.816,1.92-1.816h12.16c1.061,0,1.92,0.757,1.92,1.816v0.16c0,0.36-0.1,0.7-0.279,0.99
			c3.549,0.46,6.279,3.48,6.279,7.16v0.54c0,0.97-0.189,1.899-0.55,2.75C820.73,45.297,830.5,58.707,830.5,74.396z">
		<animate attributeName="fill" attributeType="XML" from="#f78332" to="#cccccc" dur="1s" repeatCount="indefinite"/>   
            <animate attributeName="stroke" attributeType="XML" from="#cccccc" to="#000000" dur=".5s" repeatCount="indefinite"/>
            </path> 


		<path fill="#B3B3B3" stroke="#B3B3B3" stroke-miterlimit="10" d="M914.5,74.396V458.5h-74V74.396c0-15.689,9.77-29.1,23.55-34.479
			c-0.36-0.851-0.55-1.78-0.55-2.75v-0.54c0-3.68,2.73-6.7,6.279-7.16c-0.18-0.29-0.279-0.63-0.279-0.99v-0.16
			c0-1.06,0.859-1.816,1.92-1.816h12.16c1.061,0,1.92,0.757,1.92,1.816v0.16c0,0.36-0.1,0.7-0.279,0.99
			c3.549,0.46,6.279,3.48,6.279,7.16v0.54c0,0.97-0.189,1.899-0.55,2.75C904.73,45.297,914.5,58.707,914.5,74.396z">
		<animate attributeName="fill" attributeType="XML" from="#f78332" to="#cccccc" dur="1s" repeatCount="indefinite"/>   
            <animate attributeName="stroke" attributeType="XML" from="#cccccc" to="#000000" dur=".5s" repeatCount="indefinite"/>
            </path> 

		<path fill="#B3B3B3" stroke="#B3B3B3" stroke-miterlimit="10" d="M998.5,74.396V458.5h-74V74.396c0-15.689,9.77-29.1,23.55-34.479
			c-0.36-0.851-0.55-1.78-0.55-2.75v-0.54c0-3.68,2.73-6.7,6.279-7.16c-0.18-0.29-0.279-0.63-0.279-0.99v-0.16
			c0-1.06,0.859-1.816,1.92-1.816h12.16c1.061,0,1.92,0.757,1.92,1.816v0.16c0,0.36-0.1,0.7-0.279,0.99
			c3.549,0.46,6.279,3.48,6.279,7.16v0.54c0,0.97-0.189,1.899-0.55,2.75C988.73,45.297,998.5,58.707,998.5,74.396z">
		<animate attributeName="fill" attributeType="XML" from="#f78332" to="#cccccc" dur="1s" repeatCount="indefinite"/>   
                <animate attributeName="stroke" attributeType="XML" from="#cccccc" to="#000000" dur=".5s" repeatCount="indefinite"/>
            </path> 

		<path fill="#B3B3B3" stroke="#B3B3B3" stroke-miterlimit="10" d="M1082.5,74.396V458.5h-74V74.396
			c0-15.689,9.77-29.1,23.55-34.479c-0.36-0.851-0.55-1.78-0.55-2.75v-0.54c0-3.68,2.73-6.7,6.279-7.16
			c-0.18-0.29-0.279-0.63-0.279-0.99v-0.16c0-1.06,0.859-1.816,1.92-1.816h12.16c1.061,0,1.92,0.757,1.92,1.816v0.16
			c0,0.36-0.1,0.7-0.279,0.99c3.549,0.46,6.279,3.48,6.279,7.16v0.54c0,0.97-0.189,1.899-0.55,2.75
			C1072.73,45.297,1082.5,58.707,1082.5,74.396z">
			<animate attributeName="fill" attributeType="XML" from="#f78332" to="#cccccc" dur="1s" repeatCount="indefinite"/>   
            <animate attributeName="stroke" attributeType="XML" from="#cccccc" to="#000000" dur=".5s" repeatCount="indefinite"/>
            </path> 
	</g>
</g>
<g id="Layer_6">
</g>
<g id="Pressure_gauge">
</g>
<g id="Chasis__x26__base">
</g>
<g id="Layer_8">
</g>
<g id="Motor__x26__pump">
</g>
<g id="Valves">
</g>
</svg>
