<?xml version="1.0" encoding="utf-8"?>
<!-- Generator: Adobe Illustrator 17.0.0, SVG Export Plug-In . SVG Version: 6.00 Build 0)  -->
<!DOCTYPE svg PUBLIC "-//W3C//DTD SVG 1.1//EN" "http://www.w3.org/Graphics/SVG/1.1/DTD/svg11.dtd">
<svg version="1.1" xmlns="http://www.w3.org/2000/svg" xmlns:xlink="http://www.w3.org/1999/xlink" x="0px" y="0px" width="1922px"
	 height="53px" viewBox="0 0 1922 53" enable-background="new 0 0 1922 53" xml:space="preserve">
<g id="Layer_1">
</g>
<g id="Layer_3">
</g>
<g id="Layer_2">
</g>
<g id="Layer_7">
</g>
<g id="Layer_14">
</g>
<g id="Layer_5">
</g>
<g id="Layer_11">
</g>
<g id="Layer_9">
</g>
<g id="Layer_10">
</g>
<g id="Layer_13">
</g>
<g id="Layer_6">
</g>
<g id="Layer_4">
</g>
<g id="Layer_12">
	<g id="Arrow_26" opacity="0.6">
	</g>
</g>
<g id="Layer_15">
</g>
<g id="Layer_8">
	<g>
		<polyline fill="#333333" stroke="#4D4D4D" stroke-linejoin="round" stroke-miterlimit="10" points="1.5,52.5 1920.5,52.5 1921,52 
			1921,15 1921.5,14.5 975.75,14.5 959.771,0.5 943.792,14.5 0.5,14.5 1,15 1,52 		"/>
		<polyline fill="none" stroke="#B3B3B3" stroke-linecap="round" stroke-linejoin="round" stroke-miterlimit="10" points="
			963.693,14.5 960.271,11.5 956.85,14.5 		"/>
		<g opacity="0.4">
			<path fill-rule="evenodd" clip-rule="evenodd" fill="#000001" d="M47.541,39.377c0.038,0.094,0.059,0.188,0.059,0.289
				c0,1.598-5.438,2.895-12.142,2.895c-6.705,0-12.142-1.297-12.142-2.895c0-0.188,0.075-0.369,0.216-0.547
				c-1.071-0.177-2.042-0.386-2.87-0.624c-1.734,0.506-2.755,1.125-2.755,1.792c0,1.72,6.783,3.121,15.146,3.121
				c8.365,0,15.146-1.401,15.146-3.121C48.199,39.972,47.967,39.666,47.541,39.377z"/>
			<path fill-rule="evenodd" clip-rule="evenodd" fill="#EC1C24" d="M47.541,35.425c0.038,0.094,0.059,0.188,0.059,0.288
				c0,1.601-5.438,2.897-12.142,2.897c-6.705,0-12.142-1.296-12.142-2.897c0-0.958,1.953-1.81,4.959-2.335
				c-6.021,0.411-10.368,1.579-10.368,2.956c0,1.727,6.783,3.121,15.146,3.121c8.365,0,15.146-1.395,15.146-3.121
				C48.199,36.02,47.967,35.713,47.541,35.425z"/>
			<path fill-rule="evenodd" clip-rule="evenodd" fill="#EC1C24" d="M47.541,43.301c0.038,0.095,0.059,0.192,0.059,0.29
				c0,1.6-5.438,2.894-12.142,2.894c-6.705,0-12.142-1.294-12.142-2.894c0-0.188,0.075-0.372,0.216-0.548
				c-1.071-0.176-2.042-0.387-2.87-0.623c-1.734,0.505-2.755,1.127-2.755,1.793c0,1.722,6.783,3.119,15.146,3.119
				c8.365,0,15.146-1.397,15.146-3.119C48.199,43.896,47.967,43.591,47.541,43.301z"/>
			<path fill-rule="evenodd" clip-rule="evenodd" fill="#000001" d="M51.757,21.241l-7.716-0.104l0,0
				c-1.156,0.052-2.009,0.563-2.553,1.528l-4.193,7.465c-0.249,0.447-0.31,0.875-0.186,1.283c0.098,0.311,0.301,0.517,0.611,0.626
				c-0.002-0.012-0.009-0.02-0.013-0.033c-0.125-0.404-0.064-0.834,0.182-1.278l4.196-7.469c0.544-0.964,1.395-1.476,2.552-1.529
				h-0.001l7.716,0.105l1.268-2.253h-0.931L51.757,21.241z"/>
			<path fill-rule="evenodd" clip-rule="evenodd" fill="#000001" d="M45.524,34.266H35.407c-2.228,0-3.905-0.453-5.026-1.359
				c1.083,1.301,2.954,1.953,5.624,1.953H46.12l1.263-2.252l-0.934,0.012L45.524,34.266z"/>
			<path fill-rule="evenodd" clip-rule="evenodd" fill="#000001" d="M66.933,21.282h-1.676l-3.422,6.096h0.927l3.09-5.501h1.677
				c0.253,0,0.467,0.047,0.652,0.123c-0.017-0.047-0.03-0.094-0.055-0.139C67.902,21.478,67.505,21.282,66.933,21.282z"/>
			<path fill-rule="evenodd" clip-rule="evenodd" fill="#000001" d="M77.264,21.202c0.396,0.521,0.59,1.113,0.584,1.783
				c-0.024,2.045-1.186,3.68-3.489,4.903c-2.114,1.12-4.676,1.684-7.681,1.684h-6.08l-2.628,4.693h-8.597l-0.333,0.594h9.525
				l2.63-4.693h6.08c3.005,0,5.565-0.559,7.679-1.684c2.304-1.224,3.467-2.858,3.488-4.903
				C78.451,22.637,78.052,21.848,77.264,21.202z"/>
			<path fill-rule="evenodd" clip-rule="evenodd" fill="#000001" d="M100.959,19.582l-0.934,1.659l-7.716-0.104v-0.005
				c-1.159,0.057-2.007,0.568-2.553,1.533l-4.194,7.465c-0.248,0.447-0.307,0.875-0.183,1.283c0.096,0.311,0.298,0.517,0.608,0.626
				c-0.006-0.012-0.01-0.02-0.014-0.033c-0.124-0.404-0.065-0.834,0.184-1.278l4.195-7.469c0.546-0.964,1.396-1.476,2.552-1.529
				v0.001l7.715,0.104l1.269-2.253H100.959z"/>
			<path fill-rule="evenodd" clip-rule="evenodd" fill="#000001" d="M93.793,34.266H83.677c-2.229,0-3.907-0.453-5.029-1.359
				c1.084,1.301,2.954,1.953,5.624,1.953h10.116l1.265-2.252l-0.936,0.012L93.793,34.266z"/>
			<path fill-rule="evenodd" clip-rule="evenodd" fill="#EC1C24" d="M99.803,20.709l1.269-2.25h-8.577l0,0h-0.071
				c-1.707,0.022-3.332,0.171-4.872,0.436c-1.657,0.285-2.991,0.682-4.004,1.188c-2.446,1.224-4.376,3.227-5.785,6.018
				c-0.567,1.125-0.852,2.166-0.852,3.119c0,0.796,0.193,1.499,0.583,2.117c1.008,1.601,2.994,2.4,5.961,2.4h10.116l1.265-2.253
				l-8.455,0.112c-0.667,0.006-1.074-0.229-1.224-0.713c-0.125-0.411-0.064-0.835,0.185-1.281l4.194-7.466
				c0.544-0.969,1.394-1.476,2.551-1.533v0.003L99.803,20.709L99.803,20.709z M51.535,20.709l1.268-2.25h-8.576h-0.002h-0.068
				c-1.71,0.022-3.333,0.171-4.873,0.436c-1.657,0.285-2.993,0.682-4.004,1.188c-2.448,1.224-4.375,3.227-5.785,6.018
				c-0.569,1.125-0.853,2.166-0.853,3.119c0,0.796,0.196,1.499,0.581,2.117c1.01,1.601,2.998,2.4,5.965,2.4h10.115l1.264-2.253
				l-8.454,0.112c-0.667,0.006-1.075-0.229-1.224-0.713c-0.126-0.411-0.064-0.835,0.182-1.281l4.196-7.466
				c0.546-0.969,1.395-1.476,2.552-1.533v0.003L51.535,20.709L51.535,20.709z M61.612,26.848h2.22c1.111,0,1.957-0.524,2.538-1.565
				l1.408-2.516c0.18-0.326,0.27-0.621,0.27-0.889c0-0.197-0.046-0.382-0.143-0.549c-0.225-0.387-0.621-0.576-1.193-0.576h-1.677
				L61.612,26.848L61.612,26.848z M48.224,33.736l8.555-15.264h14.356c1.484,0,2.854,0.29,4.108,0.869
				c1.603,0.734,2.395,1.769,2.382,3.111c-0.022,2.048-1.185,3.682-3.488,4.905c-2.118,1.119-4.675,1.68-7.682,1.68h-6.08
				l-2.628,4.698H48.224z"/>
			<path fill-rule="evenodd" clip-rule="evenodd" fill="#000001" d="M67.387,38.767c-0.045-0.315-0.346-0.554-0.689-0.554
				c-0.622,0-0.858,0.53-0.858,1.084c0,0.522,0.237,1.052,0.858,1.052c0.422,0,0.662-0.288,0.714-0.705h0.672
				c-0.07,0.788-0.612,1.288-1.386,1.288c-0.976,0-1.548-0.729-1.548-1.635c0-0.937,0.573-1.67,1.548-1.67
				c0.693,0,1.276,0.409,1.358,1.14H67.387z"/>
			<path fill-rule="evenodd" clip-rule="evenodd" fill="#000001" d="M69.967,40.349c0.623,0,0.857-0.529,0.857-1.052
				c0-0.554-0.234-1.084-0.857-1.084c-0.621,0-0.856,0.53-0.856,1.084C69.111,39.819,69.346,40.349,69.967,40.349L69.967,40.349z
				 M69.967,37.631c0.977,0,1.551,0.725,1.551,1.666c0,0.907-0.574,1.635-1.551,1.635c-0.974,0-1.55-0.727-1.55-1.635
				C68.417,38.356,68.993,37.631,69.967,37.631z"/>
			<polygon fill-rule="evenodd" clip-rule="evenodd" fill="#000001" points="71.991,37.704 72.679,37.704 73.994,39.819 
				74.002,39.819 74.002,37.704 74.653,37.704 74.653,40.857 73.959,40.857 72.647,38.748 72.638,38.748 72.638,40.857 
				71.991,40.857 			"/>
			<path fill-rule="evenodd" clip-rule="evenodd" fill="#000001" d="M75.735,39.811c0,0.42,0.326,0.581,0.695,0.581
				c0.245,0,0.615-0.069,0.615-0.391c0-0.342-0.471-0.399-0.936-0.522c-0.468-0.124-0.939-0.304-0.939-0.896
				c0-0.646,0.608-0.952,1.177-0.952c0.657,0,1.263,0.289,1.263,1.015h-0.673c-0.022-0.383-0.291-0.478-0.622-0.478
				c-0.22,0-0.476,0.093-0.476,0.357c0,0.244,0.148,0.276,0.941,0.479c0.228,0.057,0.936,0.2,0.936,0.915
				c0,0.58-0.455,1.013-1.313,1.013c-0.698,0-1.351-0.342-1.342-1.121H75.735z"/>
			<path fill-rule="evenodd" clip-rule="evenodd" fill="#000001" d="M79.539,40.349c0.622,0,0.856-0.529,0.856-1.052
				c0-0.554-0.234-1.084-0.856-1.084c-0.622,0-0.855,0.53-0.855,1.084C78.683,39.819,78.916,40.349,79.539,40.349L79.539,40.349z
				 M79.539,37.631c0.976,0,1.55,0.725,1.55,1.666c0,0.907-0.575,1.635-1.55,1.635c-0.975,0-1.55-0.727-1.55-1.635
				C77.988,38.356,78.564,37.631,79.539,37.631z"/>
			<polygon fill-rule="evenodd" clip-rule="evenodd" fill="#000001" points="81.561,37.704 82.253,37.704 82.253,40.272 
				83.79,40.272 83.79,40.857 81.561,40.857 			"/>
			<rect x="84.18" y="37.704" fill-rule="evenodd" clip-rule="evenodd" fill="#000001" width="0.693" height="3.153"/>
			<path fill-rule="evenodd" clip-rule="evenodd" fill="#000001" d="M86.176,40.272h0.617c0.403,0,0.787-0.247,0.787-0.94
				c0-0.639-0.221-1.045-0.91-1.045h-0.494V40.272L86.176,40.272z M85.481,37.704h1.36c0.818,0,1.431,0.514,1.431,1.56
				c0,0.911-0.468,1.594-1.431,1.594h-1.36V37.704z"/>
			<path fill-rule="evenodd" clip-rule="evenodd" fill="#000001" d="M89.547,39.637h0.815l-0.395-1.156h-0.011L89.547,39.637
				L89.547,39.637z M89.613,37.704h0.712l1.179,3.153h-0.721l-0.237-0.703h-1.178l-0.249,0.703h-0.701L89.613,37.704z"/>
			<polygon fill-rule="evenodd" clip-rule="evenodd" fill="#000001" points="92.147,38.287 91.203,38.287 91.203,37.704 
				93.786,37.704 93.786,38.287 92.844,38.287 92.844,40.857 92.147,40.857 			"/>
			<polygon fill-rule="evenodd" clip-rule="evenodd" fill="#000001" points="94.147,37.704 96.505,37.704 96.505,38.287 
				94.84,38.287 94.84,38.961 96.371,38.961 96.371,39.502 94.84,39.502 94.84,40.272 96.54,40.272 96.54,40.857 94.147,40.857 			
				"/>
			<path fill-rule="evenodd" clip-rule="evenodd" fill="#000001" d="M97.702,40.272h0.617c0.401,0,0.787-0.247,0.787-0.94
				c0-0.639-0.222-1.045-0.911-1.045h-0.494V40.272L97.702,40.272z M97.008,37.704h1.36c0.817,0,1.429,0.514,1.429,1.56
				c0,0.911-0.466,1.594-1.429,1.594h-1.36V37.704z"/>
			<path fill-rule="evenodd" clip-rule="evenodd" fill="#000001" d="M53.789,44.484h0.537c0.324,0,0.609-0.07,0.609-0.471
				c0-0.4-0.285-0.474-0.609-0.474h-0.537V44.484L53.789,44.484z M53.094,43.002h1.422c0.786,0,1.09,0.501,1.09,1.012
				c0,0.511-0.304,1.012-1.09,1.012h-0.727v1.129h-0.695V43.002z"/>
			<path fill-rule="evenodd" clip-rule="evenodd" fill="#000001" d="M56.734,44.429h0.759c0.307,0,0.476-0.132,0.476-0.45
				c0-0.306-0.169-0.438-0.476-0.438h-0.759V44.429L56.734,44.429z M56.041,43.002h1.702c0.563,0,0.919,0.394,0.919,0.871
				c0,0.369-0.15,0.646-0.499,0.789v0.008c0.34,0.091,0.44,0.42,0.46,0.738c0.012,0.199,0.009,0.571,0.131,0.746h-0.693
				c-0.084-0.199-0.073-0.506-0.109-0.755c-0.049-0.333-0.175-0.476-0.526-0.476h-0.691v1.23h-0.693V43.002z"/>
			<polygon fill-rule="evenodd" clip-rule="evenodd" fill="#000001" points="59.227,43.002 61.584,43.002 61.584,43.584 
				59.92,43.584 59.92,44.262 61.448,44.262 61.448,44.801 59.92,44.801 59.92,45.573 61.619,45.573 61.619,46.154 59.227,46.154 
							"/>
			<path fill-rule="evenodd" clip-rule="evenodd" fill="#000001" d="M62.561,45.108c0,0.42,0.325,0.581,0.696,0.581
				c0.243,0,0.614-0.07,0.614-0.391c0-0.341-0.473-0.399-0.936-0.521c-0.468-0.124-0.939-0.305-0.939-0.897
				c0-0.645,0.607-0.956,1.177-0.956c0.658,0,1.265,0.288,1.265,1.019h-0.671c-0.022-0.381-0.292-0.477-0.624-0.477
				c-0.222,0-0.477,0.091-0.477,0.355c0,0.246,0.152,0.274,0.941,0.479c0.23,0.057,0.934,0.202,0.934,0.918
				c0,0.577-0.455,1.013-1.311,1.013c-0.694,0-1.352-0.348-1.34-1.124H62.561z"/>
			<path fill-rule="evenodd" clip-rule="evenodd" fill="#000001" d="M65.424,45.108c0,0.42,0.327,0.581,0.699,0.581
				c0.242,0,0.613-0.07,0.613-0.391c0-0.341-0.471-0.399-0.935-0.521c-0.468-0.124-0.941-0.305-0.941-0.897
				c0-0.645,0.608-0.956,1.18-0.956c0.657,0,1.262,0.288,1.262,1.019h-0.669c-0.026-0.381-0.293-0.477-0.624-0.477
				c-0.221,0-0.477,0.091-0.477,0.355c0,0.246,0.149,0.274,0.941,0.479c0.227,0.057,0.934,0.202,0.934,0.918
				c0,0.577-0.455,1.013-1.31,1.013c-0.7,0-1.352-0.348-1.343-1.124H65.424z"/>
			<path fill-rule="evenodd" clip-rule="evenodd" fill="#000001" d="M70.495,44.96c0,0.854-0.505,1.272-1.348,1.272
				c-0.848,0-1.341-0.413-1.341-1.272v-1.958h0.691v1.958c0,0.347,0.087,0.687,0.649,0.687c0.495,0,0.653-0.216,0.653-0.687v-1.958
				h0.694V44.96z"/>
			<path fill-rule="evenodd" clip-rule="evenodd" fill="#000001" d="M71.784,44.429h0.759c0.309,0,0.476-0.132,0.476-0.45
				c0-0.306-0.167-0.438-0.476-0.438h-0.759V44.429L71.784,44.429z M71.087,43.002h1.702c0.564,0,0.921,0.394,0.921,0.871
				c0,0.369-0.148,0.646-0.497,0.789v0.008c0.337,0.091,0.437,0.42,0.459,0.738c0.013,0.199,0.008,0.571,0.132,0.746h-0.692
				c-0.085-0.199-0.076-0.506-0.111-0.755c-0.048-0.333-0.176-0.476-0.526-0.476h-0.692v1.23h-0.696V43.002z"/>
			<polygon fill-rule="evenodd" clip-rule="evenodd" fill="#000001" points="74.277,43.002 76.634,43.002 76.634,43.584 
				74.97,43.584 74.97,44.262 76.496,44.262 76.496,44.801 74.97,44.801 74.97,45.573 76.671,45.573 76.671,46.154 74.277,46.154 
							"/>
			<path fill-rule="evenodd" clip-rule="evenodd" fill="#000001" d="M80.467,44.061c-0.044-0.312-0.344-0.552-0.688-0.552
				c-0.623,0-0.857,0.532-0.857,1.081c0,0.527,0.233,1.057,0.857,1.057c0.423,0,0.661-0.291,0.714-0.707h0.672
				c-0.071,0.786-0.612,1.293-1.386,1.293c-0.976,0-1.552-0.73-1.552-1.643c0-0.936,0.577-1.665,1.552-1.665
				c0.693,0,1.275,0.409,1.359,1.136H80.467z"/>
			<path fill-rule="evenodd" clip-rule="evenodd" fill="#000001" d="M83.049,45.646c0.623,0,0.854-0.529,0.854-1.053
				c0-0.553-0.231-1.083-0.854-1.083c-0.622,0-0.857,0.53-0.857,1.083C82.192,45.117,82.427,45.646,83.049,45.646L83.049,45.646z
				 M83.049,42.925c0.977,0,1.55,0.729,1.55,1.669c0,0.908-0.574,1.639-1.55,1.639c-0.975,0-1.549-0.73-1.549-1.639
				C81.501,43.654,82.074,42.925,83.049,42.925z"/>
			<polygon fill-rule="evenodd" clip-rule="evenodd" fill="#000001" points="85.072,43.002 85.76,43.002 87.075,45.117 
				87.085,45.117 87.085,43.002 87.734,43.002 87.734,46.154 87.041,46.154 85.728,44.043 85.72,44.043 85.72,46.154 85.072,46.154 
							"/>
			<polygon fill-rule="evenodd" clip-rule="evenodd" fill="#000001" points="89.042,43.584 88.096,43.584 88.096,43.002 
				90.677,43.002 90.677,43.584 89.732,43.584 89.732,46.154 89.042,46.154 			"/>
			<path fill-rule="evenodd" clip-rule="evenodd" fill="#000001" d="M91.732,44.429h0.76c0.309,0,0.478-0.132,0.478-0.45
				c0-0.306-0.169-0.438-0.478-0.438h-0.76V44.429L91.732,44.429z M91.04,43.002h1.7c0.567,0,0.922,0.394,0.922,0.871
				c0,0.369-0.148,0.646-0.499,0.789v0.008c0.34,0.091,0.437,0.42,0.46,0.738c0.012,0.199,0.009,0.571,0.131,0.746h-0.692
				c-0.084-0.199-0.075-0.506-0.11-0.755c-0.048-0.333-0.177-0.476-0.526-0.476h-0.694v1.23H91.04V43.002z"/>
			<path fill-rule="evenodd" clip-rule="evenodd" fill="#000001" d="M95.641,45.646c0.622,0,0.855-0.529,0.855-1.053
				c0-0.553-0.233-1.083-0.855-1.083c-0.623,0-0.857,0.53-0.857,1.083C94.784,45.117,95.018,45.646,95.641,45.646L95.641,45.646z
				 M95.641,42.925c0.975,0,1.549,0.729,1.549,1.669c0,0.908-0.574,1.639-1.549,1.639c-0.977,0-1.55-0.73-1.55-1.639
				C94.091,43.654,94.665,42.925,95.641,42.925z"/>
			<polygon fill-rule="evenodd" clip-rule="evenodd" fill="#000001" points="97.663,43.002 98.356,43.002 98.356,45.573 
				99.892,45.573 99.892,46.154 97.663,46.154 			"/>
		</g>
	</g>
</g>
</svg>
