<?xml version="1.0" encoding="utf-8"?>
<!-- Generator: Adobe Illustrator 17.0.0, SVG Export Plug-In . SVG Version: 6.00 Build 0)  -->
<!DOCTYPE svg PUBLIC "-//W3C//DTD SVG 1.1//EN" "http://www.w3.org/Graphics/SVG/1.1/DTD/svg11.dtd">
<svg version="1.1" xmlns="http://www.w3.org/2000/svg" xmlns:xlink="http://www.w3.org/1999/xlink" x="0px" y="0px" width="153px"
	 height="135px" viewBox="0 0 153 135" enable-background="new 0 0 153 135" xml:space="preserve">
<g id="Layer_1">
</g>
<g id="Layer_3">
</g>
<g id="Layer_2">
</g>
<g id="Layer_7">
</g>
<g id="Layer_14">
</g>
<g id="Layer_5">
</g>
<g id="Layer_11">
</g>
<g id="Layer_9">
</g>
<g id="Layer_10">
</g>
<g id="Layer_13">
</g>
<g id="Layer_6">
</g>
<g id="Layer_4">
</g>
<g id="Layer_12">
	<g id="Arrow_26" opacity="0.6">
	</g>
</g>
<g id="Layer_15">
</g>
<g id="Layer_8">
	<rect x="62.653" y="12" fill="#999999" stroke="#999999" stroke-miterlimit="10" width="10" height="50"/>
	<g>
		<path fill="#808080" stroke="#808080" stroke-miterlimit="10" d="M50.653,74.558c0,9.976,0,28.592,0,37.055
			c0,7.66,4.645,6.387,7.567,6.387c8.001,0,85.878,0,85.878,0c2.349-1,2.783-3.107,2.789-4.263c0-6.592-3.377-7.476-3.377-7.476
			L58.22,72.061c0,0-3.998-2.032-5.912-2.314C50.766,69.746,50.653,71.533,50.653,74.558z"/>
		<path fill="#E6E6E6" stroke="#999999" stroke-width="0.25" stroke-miterlimit="10" d="M67.93,82.69c0,0,3.848-0.019,6.49-0.019
			s2.814,3.384,3.967,5.794c1.22,2.287,3.601,1.696,6.508,0c2.418-1.689,13.474-10.216,13.474-10.216s2.196-2.033,0.011-5.286
			C87.045,59.647,67.93,59.749,67.93,59.749s-19.18-0.102-30.514,13.214c-2.186,3.252,0.018,5.286,0.018,5.286
			s11.059,8.527,13.476,10.216c2.908,1.696,5.291,2.287,6.51,0c1.152-2.41,1.326-5.794,3.969-5.794
			C64.032,82.671,67.93,82.69,67.93,82.69z"/>
		<rect x="64.653" y="115" fill="#808080" stroke="#808080" stroke-miterlimit="10" width="7" height="18"/>
		<path fill="#C8C8C8" stroke="#C8C8C8" stroke-miterlimit="10" d="M118.653,110v5H87.346c-3.133,0-5.765,0.361-6.555,0.644
			c-0.157,0.058-0.242,0.194-0.242,0.255c-0.652,0.442-1.439,0.736-2.286,0.736c-2.265,0-4.099-1.824-4.099-4.098
			c0-2.275,1.834-4.108,4.099-4.108c0.847,0,1.634,0.261,2.286,0.703c0,0.061,0.082,0.219,0.24,0.273
			c0.792,0.287,3.448,0.594,6.605,0.594H118.653z"/>
		<circle fill="#999999" stroke="#999999" stroke-width="0.25" stroke-miterlimit="10" cx="67.899" cy="100.891" r="13.846"/>
		<rect x="97.653" y="102" fill="#999999" stroke="#999999" stroke-miterlimit="10" width="44" height="20"/>
		<rect x="110.653" y="104" fill="#C8C8C8" stroke="#C8C8C8" stroke-miterlimit="10" width="23" height="2"/>
		<rect x="110.653" y="118" fill="#C8C8C8" stroke="#C8C8C8" stroke-miterlimit="10" width="23" height="2"/>
		<rect x="105.653" y="99" fill="#C8C8C8" stroke="#999999" stroke-miterlimit="10" width="5" height="27"/>
		<rect x="133.653" y="99" fill="#C8C8C8" stroke="#999999" stroke-miterlimit="10" width="5" height="27"/>
		<rect x="103.653" y="103" fill="#C8C8C8" stroke="#C8C8C8" stroke-miterlimit="10" width="1" height="4"/>
		<rect x="139.653" y="103" fill="#C8C8C8" stroke="#C8C8C8" stroke-miterlimit="10" width="1" height="4"/>
		<path fill="#999999" stroke="#999999" stroke-miterlimit="10" d="M151.959,112.25c0,3.284-2.662,5.924-5.946,5.924
			c-0.461,0-0.906-0.175-1.336-0.175h-3.023v-12h3.023c0.43,0,0.875,0.076,1.336,0.076
			C149.296,106.076,151.959,108.966,151.959,112.25z"/>
		<polygon fill="#333333" stroke="#333333" stroke-width="0.25" stroke-miterlimit="10" points="74.323,114.693 31.125,68.625 
			38.098,61.983 81.296,108.052 84.989,119.027 		"/>
		<path fill="#39B54A" stroke="#39B54A" stroke-width="0.25" stroke-miterlimit="10" d="M3.71,32.757
			c-2.877,2.718-3.257,6.988-0.847,9.538l26.54,28.085l10.417-9.845L13.28,32.45C10.871,29.902,6.586,30.038,3.71,32.757z"/>
		<circle fill="#C8C8C8" stroke="#C8C8C8" stroke-width="0.25" stroke-miterlimit="10" cx="67.899" cy="100.891" r="3.02"/>
		<circle fill="#C8C8C8" stroke="#C8C8C8" stroke-width="0.25" stroke-miterlimit="10" cx="81.994" cy="85.491" r="3.049"/>
		<circle fill="#C8C8C8" stroke="#C8C8C8" stroke-width="0.25" stroke-miterlimit="10" cx="146.698" cy="112.25" r="2.973"/>
		<rect x="103.653" y="117" fill="#C8C8C8" stroke="#C8C8C8" stroke-miterlimit="10" width="1" height="4"/>
		<rect x="139.653" y="117" fill="#C8C8C8" stroke="#C8C8C8" stroke-miterlimit="10" width="1" height="4"/>
		<circle fill="#C8C8C8" stroke="#C8C8C8" stroke-width="0.25" stroke-miterlimit="10" cx="78.358" cy="112.555" r="2.44"/>
		<circle fill="#C8C8C8" stroke="#C8C8C8" stroke-width="0.25" stroke-miterlimit="10" cx="55.358" cy="113.555" r="2.44"/>
		<rect x="44.653" y="131" fill="#333333" stroke="#333333" stroke-miterlimit="10" width="47" height="4"/>
	</g>
</g>
</svg>
