<?xml version="1.0" encoding="utf-8"?>
<!-- Generator: Adobe Illustrator 17.0.0, SVG Export Plug-In . SVG Version: 6.00 Build 0)  -->
<!DOCTYPE svg PUBLIC "-//W3C//DTD SVG 1.1//EN" "http://www.w3.org/Graphics/SVG/1.1/DTD/svg11.dtd">
<svg version="1.1" xmlns="http://www.w3.org/2000/svg" xmlns:xlink="http://www.w3.org/1999/xlink" x="0px" y="0px"
	 width="338.87px" height="207.37px" viewBox="0 0 338.87 207.37" enable-background="new 0 0 338.87 207.37" xml:space="preserve">
<g id="Layer_1">
</g>
<g id="Layer_3">
</g>
<g id="Layer_2">
</g>
<g id="Layer_7">
</g>
<g id="Layer_14">
</g>
<g id="Layer_5">
</g>
<g id="Layer_11">
</g>
<g id="Layer_9">
</g>
<g id="Layer_10">
</g>
<g id="Layer_13">
</g>
<g id="Layer_6">
</g>
<g id="Layer_4">
</g>
<g id="Layer_12">
	<g id="Arrow_26" opacity="0.6">
	</g>
</g>
<g id="Layer_15">
</g>
<g id="Layer_8">
	<g>
		<path fill="#39B54A" stroke="#39B54A" stroke-miterlimit="10" d="M294.87,0.5L103.44,0.99C46.591,0.99,0.5,47.08,0.5,103.93
			c0,56.851,46.091,102.94,102.94,102.94c24.78,0,47.52-8.75,65.28-23.34l150.1-103.21l0.02-0.021
			c11.771-7.79,19.53-21.14,19.53-36.3C338.37,19.97,318.889,0.5,294.87,0.5z M306.558,81.214l-0.019,0.02l-138.278,93.648
			c-16.377,13.26-37.28,21.135-59.997,20.974c-52.12-0.368-94.075-42.922-93.707-95.04c0.368-52.12,42.921-94.075,95.041-93.707
			l175.5,0.791c22.02,0.156,39.754,18.132,39.598,40.162C324.599,61.961,317.397,74.148,306.558,81.214z"/>
	</g>
	<g id="Arrow_26_1_">
	</g>
</g>
<g id="Layer_17">
</g>
</svg>
