<?xml version="1.0" encoding="utf-8"?>
<!-- Generator: Adobe Illustrator 17.0.0, SVG Export Plug-In . SVG Version: 6.00 Build 0)  -->
<!DOCTYPE svg PUBLIC "-//W3C//DTD SVG 1.1//EN" "http://www.w3.org/Graphics/SVG/1.1/DTD/svg11.dtd">
<svg version="1.1" id="Layer_1" xmlns="http://www.w3.org/2000/svg" xmlns:xlink="http://www.w3.org/1999/xlink" x="0px" y="0px"
	 width="438.308px" height="139px" viewBox="0 0 438.308 139" enable-background="new 0 0 438.308 139" xml:space="preserve">
<g>
	<path fill="#FFFFFF" stroke="#808080" stroke-width="5" stroke-miterlimit="10" d="M2.5,136.5V50.499
		c0,0,1.527-14.999,25.104-14.999h308.683c22.032,0,19.213,15.666,19.213,15.666V136.5H2.5z"/>
	<path fill="#808080" d="M336,36V10.837C336,4.579,330.627,0,324,0H32c-6.627,0-12,4.579-12,10.837V36H336z"/>
	<text transform="matrix(1 0 0 1 25.2675 14.4991)" fill="#FFFFFF" font-family="'MyriadPro-Regular'" font-size="14">M</text>
	<text transform="matrix(1 0 0 1 36.6074 14.4991)" fill="#FFFFFF" font-family="'MyriadPro-Regular'" font-size="14">ani</text>
	<text transform="matrix(1 0 0 1 54.4013 14.4991)" fill="#FFFFFF" font-family="'MyriadPro-Regular'" font-size="14">f</text>
	<text transform="matrix(1 0 0 1 58.3217 14.4991)" fill="#FFFFFF" font-family="'MyriadPro-Regular'" font-size="14">old</text>
	<text transform="matrix(1 0 0 1 26.7656 31.2989)" fill="#FFFFFF" font-family="'MyriadPro-Regular'" font-size="14">P</text>
	<text transform="matrix(1 0 0 1 34.0034 31.2989)" fill="#FFFFFF" font-family="'MyriadPro-Regular'" font-size="14">r</text>
	<text transform="matrix(1 0 0 1 38.4413 31.2989)" fill="#FFFFFF" font-family="'MyriadPro-Regular'" font-size="14">essu</text>
	<text transform="matrix(1 0 0 1 64.2573 31.2989)" fill="#FFFFFF" font-family="'MyriadPro-Regular'" font-size="14">r</text>
	<text transform="matrix(1 0 0 1 68.6957 31.2989)" fill="#FFFFFF" font-family="'MyriadPro-Regular'" font-size="14">e</text>
	<text transform="matrix(1 0 0 1 95.8417 14.4991)" fill="#FFFFFF" font-family="'MyriadPro-Regular'" font-size="14">A</text>
	<text transform="matrix(1 0 0 1 104.2416 14.4991)" fill="#FFFFFF" font-family="'MyriadPro-Regular'" font-size="14">c</text>
	<text transform="matrix(1 0 0 1 110.4438 14.4991)" fill="#FFFFFF" font-family="'MyriadPro-Regular'" font-size="14">cumul</text>
	<text transform="matrix(1 0 0 1 147.1235 14.4991)" fill="#FFFFFF" font-family="'MyriadPro-Regular'" font-size="14">a</text>
	<text transform="matrix(1 0 0 1 153.8154 14.4991)" fill="#FFFFFF" font-family="'MyriadPro-Regular'" font-size="14">t</text>
	<text transform="matrix(1 0 0 1 158.3798 14.4991)" fill="#FFFFFF" font-family="'MyriadPro-Regular'" font-size="14">or</text>
	<text transform="matrix(1 0 0 1 108.7636 31.2989)" fill="#FFFFFF" font-family="'MyriadPro-Regular'" font-size="14">P</text>
	<text transform="matrix(1 0 0 1 115.9877 31.2989)" fill="#FFFFFF" font-family="'MyriadPro-Regular'" font-size="14">r</text>
	<text transform="matrix(1 0 0 1 120.4394 31.2989)" fill="#FFFFFF" font-family="'MyriadPro-Regular'" font-size="14">essu</text>
	<text transform="matrix(1 0 0 1 146.2558 31.2989)" fill="#FFFFFF" font-family="'MyriadPro-Regular'" font-size="14">r</text>
	<text transform="matrix(1 0 0 1 150.6938 31.2989)" fill="#FFFFFF" font-family="'MyriadPro-Regular'" font-size="14">e</text>
	<text transform="matrix(1 0 0 1 192.0214 14.4991)" fill="#FFFFFF" font-family="'MyriadPro-Regular'" font-size="14">A</text>
	<text transform="matrix(1 0 0 1 200.5615 14.4991)" fill="#FFFFFF" font-family="'MyriadPro-Regular'" font-size="14">nnular</text>
	<text transform="matrix(1 0 0 1 190.7617 31.2989)" fill="#FFFFFF" font-family="'MyriadPro-Regular'" font-size="14">P</text>
	<text transform="matrix(1 0 0 1 197.9999 31.2989)" fill="#FFFFFF" font-family="'MyriadPro-Regular'" font-size="14">r</text>
	<text transform="matrix(1 0 0 1 202.4374 31.2989)" fill="#FFFFFF" font-family="'MyriadPro-Regular'" font-size="14">essu</text>
	<text transform="matrix(1 0 0 1 228.2538 31.2989)" fill="#FFFFFF" font-family="'MyriadPro-Regular'" font-size="14">r</text>
	<text transform="matrix(1 0 0 1 232.6913 31.2989)" fill="#FFFFFF" font-family="'MyriadPro-Regular'" font-size="14">e</text>
	<text transform="matrix(1 0 0 1 260.2158 14.4991)" fill="#FFFFFF" font-family="'MyriadPro-Regular'" font-size="14">Shear </text>
	<text transform="matrix(1 0 0 1 296.1953 14.4991)" fill="#FFFFFF" font-family="'MyriadPro-Regular'" font-size="14">B</text>
	<text transform="matrix(1 0 0 1 303.8261 14.4991)" fill="#FFFFFF" font-family="'MyriadPro-Regular'" font-size="14">oost</text>
	<text transform="matrix(1 0 0 1 270.3378 31.2989)" fill="#FFFFFF" font-family="'MyriadPro-Regular'" font-size="14">P</text>
	<text transform="matrix(1 0 0 1 277.5761 31.2989)" fill="#FFFFFF" font-family="'MyriadPro-Regular'" font-size="14">r</text>
	<text transform="matrix(1 0 0 1 282.0136 31.2989)" fill="#FFFFFF" font-family="'MyriadPro-Regular'" font-size="14">essu</text>
	<text transform="matrix(1 0 0 1 307.83 31.2989)" fill="#FFFFFF" font-family="'MyriadPro-Regular'" font-size="14">r</text>
	<text transform="matrix(1 0 0 1 312.2812 31.2989)" fill="#FFFFFF" font-family="'MyriadPro-Regular'" font-size="14">e</text>
	<path fill="none" stroke="#808080" stroke-width="5" stroke-miterlimit="10" d="M435.782,136.5c0-10.333,0.026-88.543,0.026-88.543
		c0-6.886-4.955-11.457-12.211-11.457h-52.555c-7.256,0-14.234,4.571-14.234,11.457c0,0-0.323,86.523,0,88.543H435.782z"/>
	<path fill="#808080" d="M432.307,38c0,0,0.002,0.123,0.002,0.101V18.288c0-10.101-5.373-18.288-12-18.288h-48
		c-6.627,0-12,8.187-12,18.288v19.813c0,0.022,0.002-0.101,0.002-0.101S432.307,38,432.307,38z"/>
	<text transform="matrix(1 0 0 1 377.748 14.4991)" fill="#FFFFFF" font-family="'MyriadPro-Regular'" font-size="14">R</text>
	<text transform="matrix(1 0 0 1 385.4062 14.4991)" fill="#FFFFFF" font-family="'MyriadPro-Regular'" font-size="14">ig </text>
	<text transform="matrix(1 0 0 1 399.4765 14.4991)" fill="#FFFFFF" font-family="'MyriadPro-Regular'" font-size="14">A</text>
	<text transform="matrix(1 0 0 1 408.0156 14.4991)" fill="#FFFFFF" font-family="'MyriadPro-Regular'" font-size="14">ir</text>
	<text transform="matrix(1 0 0 1 372.3437 31.2989)" fill="#FFFFFF" font-family="'MyriadPro-Regular'" font-size="14">P</text>
	<text transform="matrix(1 0 0 1 379.582 31.2989)" fill="#FFFFFF" font-family="'MyriadPro-Regular'" font-size="14">r</text>
	<text transform="matrix(1 0 0 1 384.0195 31.2989)" fill="#FFFFFF" font-family="'MyriadPro-Regular'" font-size="14">essu</text>
	<text transform="matrix(1 0 0 1 409.8359 31.2989)" fill="#FFFFFF" font-family="'MyriadPro-Regular'" font-size="14">r</text>
	<text transform="matrix(1 0 0 1 414.2744 31.2989)" fill="#FFFFFF" font-family="'MyriadPro-Regular'" font-size="14">e</text>
</g>
</svg>
