<?xml version="1.0" encoding="utf-8"?>
<!-- Generator: Adobe Illustrator 17.1.0, SVG Export Plug-In . SVG Version: 6.00 Build 0)  -->
<!DOCTYPE svg PUBLIC "-//W3C//DTD SVG 1.1//EN" "http://www.w3.org/Graphics/SVG/1.1/DTD/svg11.dtd">
<svg version="1.1" xmlns="http://www.w3.org/2000/svg" xmlns:xlink="http://www.w3.org/1999/xlink" x="0px" y="0px" width="20.68px"
	 height="20.68px" viewBox="0 0 20.68 20.68" enable-background="new 0 0 20.68 20.68" xml:space="preserve">
<g id="Layer_1">
</g>
<g id="Layer_3">
</g>
<g id="Layer_2">
</g>
<g id="Layer_7">
</g>
<g id="Layer_14">
</g>
<g id="Layer_5">
</g>
<g id="Layer_11">
</g>
<g id="Layer_9">
</g>
<g id="Layer_10">
</g>
<g id="Layer_13">
</g>
<g id="Layer_6">
</g>
<g id="Layer_4">
</g>
<g id="Layer_12">
	<g id="Arrow_26" opacity="0.6">
	</g>
</g>
<g id="Layer_15">
</g>
<g id="Layer_8">
	<g id="Arrow_26_1_">
	</g>
	<g>
		<path fill="#FBB03B" d="M10.34,20.179c-5.426,0-9.84-4.414-9.84-9.84S4.915,0.5,10.34,0.5s9.84,4.414,9.84,9.84
			S15.766,20.179,10.34,20.179z"/>
		<path fill="#FBB03B" d="M10.34,1c5.15,0,9.34,4.19,9.34,9.34s-4.19,9.34-9.34,9.34S1,15.49,1,10.34S5.19,1,10.34,1 M10.34,0
			C4.629,0,0,4.629,0,10.34c0,5.71,4.629,10.34,10.34,10.34c5.711,0,10.34-4.629,10.34-10.34C20.68,4.629,16.051,0,10.34,0L10.34,0z
			"/>
	</g>
</g>
<g id="Layer_17">
</g>
</svg>
