<?xml version="1.0" encoding="utf-8"?>
<!-- Generator: Adobe Illustrator 17.0.0, SVG Export Plug-In . SVG Version: 6.00 Build 0)  -->
<!DOCTYPE svg PUBLIC "-//W3C//DTD SVG 1.1//EN" "http://www.w3.org/Graphics/SVG/1.1/DTD/svg11.dtd">
<svg version="1.1" id="Layer_1" xmlns="http://www.w3.org/2000/svg" xmlns:xlink="http://www.w3.org/1999/xlink" x="0px" y="0px"
	 width="1699.5px" height="311.574px" viewBox="0 0 1699.5 311.574" enable-background="new 0 0 1699.5 311.574"
	 xml:space="preserve">
<g>
	<rect x="1653.5" y="156.5" fill="#999999" width="10" height="133"/>
	<path fill="#999999" d="M1699.5,148.249c0,4.557-11.748,8.251-26.201,8.251h-144.324c-14.456,0-26.475-3.694-26.475-8.251v-0.5
		c0-4.557,12.019-8.249,26.475-8.249h144.324c14.453,0,26.201,3.692,26.201,8.249V148.249z"/>
	<path fill="#F78332" d="M138.5,154.5H97.905c-0.671-2-1.405-3.041-3.405-3.921V75.5h-15v75.079c-1,0.34-1.178,0.77-1.668,1.26
		c-0.75,0.75-1.357,1.661-1.767,2.661H14.5v6h61.565c0.669,2,1.435,3.039,3.435,3.919V292.5h15V164.419
		c2-0.88,2.734-1.919,3.405-3.919H138.5V154.5z"/>
	<path fill="#999999" stroke="#999999" stroke-miterlimit="10" d="M138.5,154.5H97.905c-0.671-2-1.405-3.041-3.405-3.921V75.5h-15
		v75.079c-1,0.34-1.178,0.77-1.668,1.26c-0.75,0.75-1.357,1.661-1.767,2.661H14.5v6h61.565c0.669,2,1.435,3.039,3.435,3.919V292.5
		h15V164.419c2-0.88,2.734-1.919,3.405-3.919H138.5V154.5z"/>
	<rect x="1581.5" y="189.5" fill="#999999" width="15" height="103"/>
	<path fill="#999999" d="M124.5,36.5H36.306c-0.992-1-2.5-2-4.191-2h-3.26c-2.97,0-5.355,2.399-5.355,5.369v0.26
		c0,2.5,2,4.591,4,5.19V124.5h6V45.319c2-0.39,2.755-1.819,3.425-2.819H124.5V36.5z"/>
	<rect x="1581.5" y="113.5" fill="#999999" width="15" height="11"/>
	<rect x="1567.5" y="183.5" fill="#999999" width="43" height="6"/>
	<path fill="#808080" d="M1618.5,175.268c0,4.547-3.686,8.232-8.233,8.232h-42.535c-4.546,0-8.232-3.685-8.232-8.232v-42.535
		c0-4.547,3.686-8.233,8.232-8.233h42.535c4.547,0,8.233,3.686,8.233,8.233V175.268z"/>
	<path fill="#C8C8C8" d="M1610.409,153.499c0,11.557-9.367,20.924-20.924,20.924c-11.556,0-20.924-9.367-20.924-20.924
		c0-11.557,9.368-20.924,20.924-20.924C1601.042,132.575,1610.409,141.942,1610.409,153.499"/>
	<polygon fill="#999999" points="1617.5,20.5 1617.5,49.5 1605.5,49.5 1605.5,113.5 1571.5,113.5 1571.5,8.5 1605.5,8.5 
		1605.5,20.5 	"/>
	<rect x="1578.5" y="0.5" fill="#999999" width="19" height="8"/>
	<rect x="1578.5" y="0.5" fill="none" stroke="#999999" stroke-miterlimit="10" width="19" height="8"/>
	<path fill="#999999" d="M534.5,102.869v0.26c0,2.5-2,4.59-4,5.19v23.18h-6v-23.18c-2-0.39-2.78-1.82-3.46-2.82H373.3
		c-0.99,1-2.5,2-4.19,2h-3.26c-2.97,0-5.35-2.4-5.35-5.37v-0.26c0-2.5,2-4.59,4-5.19v-78.36c-2-0.39-2.78-1.82-3.46-2.82H103.5v-6
		h258.17c0.98-1,2.5-2,4.18-2h3.26c2.98,0,5.39,2.4,5.39,5.37v0.26c0,2.5-2,4.59-4,5.19v78.36c2,0.39,2.75,1.82,3.42,2.82h147.75
		c0.98-1,2.5-2,4.18-2h3.26C532.09,97.499,534.5,99.899,534.5,102.869z"/>
	<rect x="8.5" y="183.5" fill="#999999" width="43" height="6"/>
	<rect x="8.5" y="183.5" fill="none" stroke="#999999" stroke-miterlimit="10" width="43" height="6"/>
	<path fill="#808080" d="M59.5,175.268c0,4.547-3.686,8.232-8.232,8.232H8.732c-4.546,0-8.232-3.685-8.232-8.232v-42.535
		c0-4.547,3.686-8.233,8.232-8.233h42.536c4.546,0,8.232,3.686,8.232,8.233V175.268z"/>
	<path fill="none" stroke="#808080" stroke-miterlimit="10" d="M59.5,175.268c0,4.547-3.686,8.232-8.232,8.232H8.732
		c-4.546,0-8.232-3.685-8.232-8.232v-42.535c0-4.547,3.686-8.233,8.232-8.233h42.536c4.546,0,8.232,3.686,8.232,8.233V175.268z"/>
	<path fill="#C8C8C8" d="M51.409,153.499c0,11.557-9.366,20.924-20.924,20.924c-11.556,0-20.924-9.367-20.924-20.924
		c0-11.557,9.368-20.924,20.924-20.924C42.043,132.575,51.409,141.942,51.409,153.499"/>
	<circle fill="none" stroke="#C8C8C8" stroke-miterlimit="10" cx="30.485" cy="153.499" r="20.924"/>
	<rect x="22.5" y="189.5" fill="#999999" width="15" height="103"/>
	<rect x="22.5" y="289.5" fill="#999999" width="1677" height="22.074"/>
	<path fill="#808080" d="M1530,155.423c0,6.627-5.373,12-12,12H140.646c-6.627,0-12-5.373-12-12V144.5c0-6.627,5.373-12,12-12H1518
		c6.627,0,12,5.373,12,12V155.423z">
		<animate attributeName="fill" attributeType="XML" from="#f78332" to="#cccccc" dur="1s" repeatCount="indefinite"/>
        <animate attributeName="stroke" attributeType="XML" from="#ffffff" to="#000000" dur="1s" repeatCount="indefinite"/>
                </path>
</g>
</svg>
