<?xml version="1.0" encoding="utf-8"?>
<!-- Generator: Adobe Illustrator 17.0.0, SVG Export Plug-In . SVG Version: 6.00 Build 0)  -->
<!DOCTYPE svg PUBLIC "-//W3C//DTD SVG 1.1//EN" "http://www.w3.org/Graphics/SVG/1.1/DTD/svg11.dtd">
<svg version="1.1" xmlns="http://www.w3.org/2000/svg" xmlns:xlink="http://www.w3.org/1999/xlink" x="0px" y="0px" width="1700px"
	 height="293px" viewBox="0 0 1700 293" enable-background="new 0 0 1700 293" xml:space="preserve">
<g id="Layer_1">
</g>
<g id="Layer_3">
</g>
<g id="Layer_2">
</g>
<g id="Layer_7">
</g>
<g id="Layer_14">
</g>
<g id="Layer_5">
</g>
<g id="Layer_11">
</g>
<g id="Layer_9">
</g>
<g id="Layer_10">
</g>
<g id="Layer_13">
</g>
<g id="Layer_6">
</g>
<g id="Layer_4">
</g>
<g id="Layer_12">
	<g id="Arrow_26" opacity="0.6">
	</g>
</g>
<g id="Layer_15">
</g>
<g id="Layer_8">
	<g>
		<rect x="1653.5" y="156.5" fill="#999999" stroke="#999999" stroke-miterlimit="10" width="10" height="133"/>
		<path fill="#999999" stroke="#999999" stroke-miterlimit="10" d="M1699.5,148.506c0,4.557-11.748,7.994-26.201,7.994h-144.324
			c-14.456,0-26.475-3.437-26.475-7.994v-0.5c0-4.557,12.019-8.506,26.475-8.506h144.324c14.453,0,26.201,3.95,26.201,8.506V148.506
			z"/>
		<path fill="#999999" stroke="#999999" stroke-miterlimit="10" d="M138.5,154.5H97.905c-0.671-1-1.405-2.784-3.405-3.664V75.5h-15
			v75.336c-1,0.34-1.178,0.641-1.668,1.132c-0.75,0.75-1.357,1.532-1.767,2.532H14.5v6h61.565c0.669,2,1.435,3.296,3.435,4.176
			V292.5h15V164.676c2-0.88,2.734-2.176,3.405-4.176H138.5V154.5z"/>
		
		<rect x="981.5" y="132.5" fill="#F78332" stroke="#F78332" stroke-miterlimit="10" width="549" height="33"/>
		<rect x="1581.5" y="189.5" fill="#999999" stroke="#999999" stroke-miterlimit="10" width="15" height="103"/>
		<path fill="#999999" stroke="#999999" stroke-miterlimit="10" d="M534.5,103.126v0.26c0,2.5-2,4.591-4,5.19V131.5h-6v-22.923
			c-2-0.391-2.784-1.077-3.455-3.077h-147.74c-0.99,1-2.5,2-4.19,2h-3.26c-2.971,0-5.355-2.144-5.355-5.114v-0.26
			c0-2.5,2-4.591,4-5.19V18.577c-2-0.391-2.784-1.077-3.455-3.077H204.5v-6h157.166c0.988-1,2.5-2,4.19-2h3.26
			c2.971,0,5.385,2.657,5.385,5.626v0.26c0,2.5-2,4.591-4,5.19v78.359c2,0.391,2.755,1.564,3.425,2.564h147.741
			c0.988-1,2.5-2,4.189-2h3.26C532.086,97.5,534.5,100.157,534.5,103.126z"/>
		<path fill="#999999" stroke="#999999" stroke-miterlimit="10" d="M124.5,35.5H36.306c-0.991-1-2.5-2-4.19-2h-3.26
			c-2.971,0-5.355,2.657-5.355,5.626v0.26c0,2.5,2,4.591,4,5.19V123.5h6V44.577c2-0.391,2.755-1.077,3.425-3.077H124.5V35.5z"/>
		<rect x="1581.5" y="113.5" fill="#999999" stroke="#999999" stroke-miterlimit="10" width="15" height="11"/>
		<rect x="1567.5" y="183.5" fill="#999999" stroke="#999999" stroke-miterlimit="10" width="43" height="6"/>
		<path fill="#808080" stroke="#808080" stroke-miterlimit="10" d="M1618.5,175.268c0,4.547-3.686,8.232-8.233,8.232h-42.533
			c-4.547,0-8.233-3.686-8.233-8.232v-42.535c0-4.547,3.686-8.232,8.233-8.232h42.533c4.547,0,8.233,3.686,8.233,8.232V175.268z"/>
		<circle fill="#C8C8C8" stroke="#C8C8C8" stroke-miterlimit="10" cx="1589.485" cy="153.756" r="20.924"/>
		<polygon fill="#999999" stroke="#999999" stroke-miterlimit="10" points="1617.5,20.5 1617.5,49.5 1605.5,49.5 1605.5,113.5 
			1571.5,113.5 1571.5,8.5 1605.5,8.5 1605.5,20.5 		"/>
		<rect x="1578.5" y="0.5" fill="#999999" stroke="#999999" stroke-miterlimit="10" width="19" height="8"/>
		<path fill="#F78332" stroke="#F78332" stroke-miterlimit="10" d="M300.5,143.756c0-6.627-7.209-12.256-16.078-12.256H125.16
			c-8.869,0-16.66,5.629-16.66,12.256v10c0,6.627,7.791,11.744,16.66,11.744h159.262c8.869,0,16.078-5.117,16.078-11.744V143.756z"
			/>
		<rect x="103.5" y="9.5" fill="#999999" stroke="#999999" stroke-miterlimit="10" width="222" height="6"/>
		<rect x="8.5" y="183.5" fill="#999999" stroke="#999999" stroke-miterlimit="10" width="43" height="6"/>
		<path fill="#808080" stroke="#808080" stroke-miterlimit="10" d="M59.5,175.268c0,4.547-3.686,8.232-8.232,8.232H8.732
			c-4.547,0-8.232-3.686-8.232-8.232v-42.535c0-4.547,3.686-8.232,8.232-8.232h42.535c4.547,0,8.232,3.686,8.232,8.232V175.268z"/>
		<circle fill="#C8C8C8" stroke="#C8C8C8" stroke-miterlimit="10" cx="30.485" cy="153.756" r="20.924"/>
		<rect x="22.5" y="189.5" fill="#999999" stroke="#999999" stroke-miterlimit="10" width="15" height="103"/>
	</g>
</g>
</svg>
