<?xml version="1.0" encoding="utf-8"?>
<!-- Generator: Adobe Illustrator 17.0.0, SVG Export Plug-In . SVG Version: 6.00 Build 0)  -->
<!DOCTYPE svg PUBLIC "-//W3C//DTD SVG 1.1//EN" "http://www.w3.org/Graphics/SVG/1.1/DTD/svg11.dtd">
<svg version="1.1" id="Layer_1" xmlns="http://www.w3.org/2000/svg" xmlns:xlink="http://www.w3.org/1999/xlink" x="0px" y="0px"
	 width="132.777px" height="46.184px" viewBox="18.14 -65.999 132.777 46.184"
	 enable-background="new 18.14 -65.999 132.777 46.184" xml:space="preserve">
<symbol  id="Arrow_26_2_" viewBox="-22.86 -13.14 45.72 26.28">
	<polygon fill="none" points="-22.86,-13.14 22.86,-13.14 22.86,13.14 -22.86,13.14 	"/>
	<g>
		<polygon fill="#231F20" points="-22.86,-6.339 0.069,-6.339 0.069,-13.14 22.86,0.001 0.069,13.14 0.069,6.339 -22.86,6.339 		"/>
	</g>
</symbol>
<g>
	
		<use xlink:href="#Arrow_26_2_"  width="45.72" height="26.28" x="-22.86" y="-13.14" transform="matrix(-0.5 0 0 0.5 29.5703 -42.4863)" overflow="visible"/>
	<g>
		<path d="M77.369-65.999c0.323,0.164,0.633,0.355,0.971,0.486c0.557,0.216,0.802,0.661,0.863,1.414
			c0.014,0.168,0.369,0.312,0.39,0.329c-0.439,0.811-0.85,1.57-1.382,2.553c-0.657-0.491-1.547-1.026-2.259-1.718
			c-1.214-1.179-2.471-2.201-4.309-2.433c-0.332-0.042-0.617-0.412-0.923-0.631C72.936-65.999,75.153-65.999,77.369-65.999z"/>
		<path d="M147.078-60.913c-0.801,0.51-1.601,1.02-2.464,1.57c0.598,0.643,1.252,1.348,1.906,2.052
			c-0.192,0.143-0.383,0.287-0.575,0.43c-0.525-0.671-1.163-1.292-1.548-2.026c-0.459-0.878-1.248-1.247-2.188-0.827
			c-0.195,0.087-0.473,0.018-0.713,0.018c-0.768,0.001-1.535,0-2.337,0c0.053,0.937,0.226,1.413,1.182,1.581
			c1.461,0.257,2.482,1.051,2.349,2.861c-0.199-0.284-0.329-0.469-0.369-0.526c-0.745,0.393-1.596,0.689-2.198,1.223
			c-0.311,0.276-0.308,0.998-0.213,1.478c0.09,0.452,0.489,0.85,0.527,1.409c-0.959-0.836-1.918-1.671-2.913-2.539
			c-0.105,0.156-0.208,0.474-0.438,0.618c-0.69,0.43-0.343,0.719,0.162,0.796c0.645,0.098,1.085,0.1,0.856,0.935
			c-0.092,0.335,0.368,0.798,0.571,1.204c0.208,0.417,0.693,0.953,0.56,1.232c-0.396,0.827-0.907,1.691-1.624,2.279
			c-0.617,0.507-1.593,0.625-2.379,0.975c-0.353,0.157-0.63,0.458-0.954,0.703c0.416,0.556,0.946,1.026,1.137,1.593
			c0.162,0.483-0.041,1.083-0.158,1.617c-0.013,0.062-0.575,0.134-0.769,0.026c-0.511-0.285-0.96-0.666-1.513-1.067
			c-0.544,1.01-0.575,1.812,0.361,2.617c0.411,0.354,0.56,0.969,0.614,1.56c-0.488-1.127-2.146-1.719-1.682-3.33
			c0.2-0.692,0.205-1.453-0.992-1.834c-0.663-0.211-1.092-1.195-1.508-1.891c-0.45-0.753-1.182-0.595-1.474-0.194
			c-1.097,1.507-2.933,2.621-2.973,5.083c-0.457-0.538-0.765-0.758-0.863-1.041c-0.378-1.094-0.611-2.236-1.06-3.302
			c-0.22-0.522-0.909-0.863-1.187-1.377c-0.757-1.397-2.031-1.596-3.544-1.771c-0.922-0.106-2.298-0.156-2.539-1.534
			c-0.029-0.164-0.381-0.279-0.584-0.417c-0.092,0.182-0.243,0.358-0.268,0.548c-0.164,1.257,0.626,2.193,1.834,1.933
			c1.114-0.24,0.92,0.813,1.52,1.005c-0.188,0.418-0.249,1.008-0.588,1.223c-1.34,0.852-2.768,1.587-4.405,2.5
			c-0.621-1.654-1.204-3.175-1.76-4.704c-0.203-0.559-0.273-1.168-0.545-1.691c-0.102-0.196-0.605-0.214-0.935-0.317
			c-0.363,2.36,0.722,4.33,1.803,6.15c0.466,0.785,2.084,0.984,3.267,1.487c-0.706,1.043-0.716,2.75-2.443,3.686
			c-0.805,0.437-1.428,1.307-1.879,2.104c-0.271,0.479-0.296,1.337-0.002,1.779c0.814,1.223,0.211,2.112-0.63,2.872
			c-0.864,0.782-1.4,1.61-1.42,2.731c-0.003,0.183-0.177,0.367-0.282,0.545c-0.226,0.382-0.59,0.739-0.666,1.143
			c-0.269,1.44-2.946,2.87-4.286,2.201c-0.25-0.125-0.447-0.445-0.544-0.713c-0.949-2.629-2.291-5.157-1.6-8.116
			c0.3-1.284,0.017-2.666-0.964-3.814c-0.222-0.26-0.261-0.76-0.184-1.111c0.253-1.142-0.836-2.192-2.113-1.966
			c-0.514,0.091-1.021,0.244-1.538,0.281c-2.625,0.189-4.545-1.184-4.792-3.615c-0.068-0.674,0.532-1.403,0.811-2.112
			c1.002-2.545,2.615-4.825,5.159-6.037c1.461-0.696,3.529-0.31,5.326-0.375c0.148-0.005,0.388,0.238,0.449,0.408
			c0.36,1,1.658,1.464,2.739,1.294c1.076-0.169,2.22,0.007,3.33,0.09c0.108,0.008,0.18,0.421,0.254,0.607
			c0.535-0.734,1.075-1.475,1.811-2.484c-0.682,0-1.178-0.116-1.565,0.023c-0.905,0.327-1.008-0.156-1.137-0.763
			c-0.066-0.311-0.26-0.598-0.396-0.896c-0.26,0.298-0.541,0.583-0.768,0.9c-0.076,0.107,0.032,0.317-0.03,0.443
			c-0.08,0.161-0.248,0.286-0.378,0.426c-0.092-0.137-0.236-0.266-0.266-0.413c-0.113-0.564-0.081-1.176-0.314-1.688
			c-0.195-0.428-0.685-0.74-1.066-1.126c-0.917,1.058,1.697,1.145,0.188,2.11c-0.041-0.048-0.112-0.115-0.163-0.193
			c-1.003-1.54-1.496-1.724-3.24-0.972c-0.882,0.38-1.647,0.988-2.521,1.39c-0.502,0.231-1.113,0.284-1.683,0.33
			c-0.059,0.005-0.359-0.727-0.232-0.862c0.466-0.496,1.023-1.177,1.625-1.253c1.414-0.178,1.442-0.143,1.726-1.354
			c0.071-0.304,0.867-0.49,1.354-0.672c0.403-0.151,0.957-0.1,1.248-0.341c1.289-1.07,2.814-0.778,4.305-0.795
			c0.342-0.004,0.762-0.153,0.995-0.372c0.198-0.187,0.179-0.571,0.256-0.869c-0.325,0.035-0.686-0.002-0.965,0.122
			c-0.374,0.165-0.684,0.454-0.928,0.624c-0.263-0.437-0.463-0.768-0.82-1.36c0.335-0.202,0.9-0.607,1.525-0.905
			c1.03-0.492,2.106-0.901,3.149-1.371c1.447-0.652,3.108-0.451,4.269,0.511c0.175,0.145,0.48,0.257,0.705,0.232
			c1.28-0.142,2.559-0.305,3.828-0.516c0.371-0.062,0.708-0.302,1.221-0.533c0.041,0.366,0.084,0.749,0.138,1.239
			c0.273-0.048,0.763-0.135,1.424-0.252c-1.766-0.878-0.105-1.206,0.155-1.304c1.104-0.414,2.283-0.66,3.441-0.943
			c0.181-0.044,0.446-0.027,0.589,0.068c1.541,1.031,3.671,1.862,5.637,1.178c1.906-0.663,3.069,0.522,4.591,0.654
			c1.184,0.103,2.389,0.055,3.557,0.229c1.047,0.156,2.049,0.555,3.087,0.786c0.858,0.191,1.739,0.293,2.609,0.435
			C147.132-61.134,147.105-61.023,147.078-60.913z"/>
		<path d="M75.716-56.375c-2.412-0.289-3.05,1.363-3.722,2.533c-0.702,1.222-2.16,2.438-0.997,4.17
			c-0.141,0.026-0.282,0.053-0.422,0.079c-0.189-0.415-0.558-0.84-0.53-1.242c0.065-0.923-0.509-0.878-1.153-0.824
			c-0.765,0.064-1.53,0.221-2.291,0.201c-0.937-0.025-1.286,0.484-1.294,1.165c-0.012,1.009,0.125,2.021,0.243,3.028
			c0.018,0.153,0.285,0.408,0.42,0.4c0.449-0.028,0.911-0.108,1.33-0.259c0.356-0.129,0.659-0.386,0.985-0.586
			c-0.015,0.34-0.044,0.68-0.043,1.021c0.002,0.606-0.255,1.368,0.939,1.254c0.155-0.015,0.471,0.335,0.505,0.544
			c0.077,0.472,0.024,0.963,0.024,1.539c-0.299-0.094-0.583-0.1-0.655-0.218c-1.175-1.902-3.518-1.931-5.307-2.837
			c-0.699-0.354-1.186-0.688-1.428-1.484c-0.268-0.88-0.905-1.667-1.409-2.48c-0.292-0.471-0.638-0.912-1.228-1.314
			c0.308,0.662,0.616,1.323,0.923,1.985c-0.13,0.052-0.259,0.104-0.389,0.156c-0.835-1.781-1.775-3.53-2.446-5.363
			c-0.222-0.606,0.312-1.424,0.387-2.155c0.056-0.548,0.108-1.201-0.154-1.649c-0.517-0.883-1.154-1.75-1.926-2.45
			c-0.931-0.844-1.987-0.161-2.937,0.151c-1.025,0.337-2.003,0.795-3.057,1.053c0.512-0.383,1.023-0.766,1.537-1.15
			c-0.208-0.109-0.466-0.245-0.691-0.363c0.4-0.473,1.673-0.175,1.142-1.31c-0.023-0.05,0.02-0.151,0.067-0.2
			c0.486-0.519,1.762,0.103,1.869-1.171c0.017-0.203,1.541-0.462,2.347-0.411c2.009,0.126,4.021,0.342,6.004,0.669
			c1.087,0.179,2.054,0.945,3.256,0.648c0.587-0.145,1.156-0.354,1.849-0.57c0.462,0.172,1.203,0.449,1.883,0.703
			c-0.624,0.326-1.426,0.746-2.291,1.198c0.022,0.156,0.156,0.518,0.106,0.857c-0.15,1.019,0.254,1.526,1.393,1.462
			c0.627-0.035,1.21-0.092,1.269,0.772c0.011,0.166,0.664,0.294,1.048,0.451c0-1.27,0-2.331,0-3.765
			c0.743,0.612,1.271,1.133,1.895,1.522c0.299,0.187,0.781,0.124,1.518,0.217c0.58,0.408,1.493,1.051,2.409,1.696
			c-0.61,1.047-2.386-0.333-2.722,0.95C74.553-57.293,75.024-56.921,75.716-56.375z"/>
		<path d="M71.945-19.897c-0.069-0.446-0.286-0.924-0.182-1.332c0.859-3.381,1.544-6.793,2.158-10.217
			c0.062-0.347,0.033-0.8-0.162-1.079c-1.091-1.562-2.247-3.085-3.376-4.625c-0.062-0.085-0.138-0.222-0.105-0.296
			c0.451-1.005,0.928-2,1.378-3.006c0.139-0.312,0.356-0.673,0.295-0.969c-0.259-1.254,0.696-1.791,1.551-2.606
			c0.108,0.422,0.169,0.662,0.155,0.605c0.85,0,1.589,0.046,2.319-0.01c1.449-0.111,2.087,0.267,2.618,1.546
			c0.092,0.222,0.436,0.466,0.694,0.499c1.862,0.235,2.435,1.03,1.796,2.589c1.901-0.166,3.557,0.534,5.15,1.328
			c1.004,0.501,0.906,1.297,0.21,2.185c-0.574,0.734-0.761,1.719-1.276,2.505c-0.587,0.895-1.289,1.742-2.054,2.515
			c-0.561,0.567-1.378,0.918-1.938,1.486c-0.336,0.341-0.318,0.96-0.599,1.371c-0.41,0.6-0.86,1.234-1.461,1.645
			c-0.401,0.274-1.092,0.184-1.675,0.26c0.313,0.664,0.147,0.903-0.792,1.268c-1.071,0.416-1.884,1.465-2.72,2.315
			c-0.629,0.64-1.117,1.399-1.668,2.105C72.155-19.843,72.05-19.87,71.945-19.897z"/>
		<path d="M146.04-24.466c-0.461-0.075-0.85-0.066-1.166-0.203c-0.903-0.391-1.654-0.848-2.739-0.108
			c-0.71,0.484-1.817,0.477-2.754,0.654c-0.109,0.021-0.361-0.173-0.392-0.299c-0.27-1.097-0.606-2.193-0.702-3.306
			c-0.041-0.472,0.3-1.206,0.716-1.435c1.35-0.745,2.294-1.763,3.086-3.483c0.247,0.517,0.371,0.776,0.662,1.385
			c0.207-1.857,1.195-1.96,2.434-1.597c-0.133,0.745,0.599,1.987,1.265,2.145c0.47,0.112,0.669-0.204,1.3-2.195
			c0.535,1.203,0.935,2.234,1.448,3.215c0.406,0.778,1.033,1.46,1.413,2.246c1.026,2.122-0.654,4.42-3.135,4.51
			C145.944-22.881,146.065-23.814,146.04-24.466z"/>
		<path d="M143.779-37.64c3.041-0.217,5.549,1.305,6.751,4.083c-0.438-0.184-0.8-0.231-0.957-0.421
			c-0.657-0.8-0.631-0.796-1.792-0.652c-0.252,0.031-0.599-0.068-0.789-0.225C145.945-35.725,144.933-36.632,143.779-37.64z"/>
	</g>
</g>
</svg>
