<?xml version="1.0" encoding="utf-8"?>
<!-- Generator: Adobe Illustrator 17.0.0, SVG Export Plug-In . SVG Version: 6.00 Build 0)  -->
<!DOCTYPE svg PUBLIC "-//W3C//DTD SVG 1.1//EN" "http://www.w3.org/Graphics/SVG/1.1/DTD/svg11.dtd">
<svg version="1.1" id="Layer_1" xmlns="http://www.w3.org/2000/svg" xmlns:xlink="http://www.w3.org/1999/xlink" x="0px" y="0px"
	 width="267.055px" height="33.898px" viewBox="0 0 267.055 33.898" enable-background="new 0 0 267.055 33.898"
	 xml:space="preserve">
<g>
	<text transform="matrix(1 0 0 1 122.2377 23.8432)"><tspan x="0" y="0" fill="#333333" font-family="'MyriadPro-Regular'" font-size="17.6159">ALL RIG </tspan><tspan x="59.945" y="0" fill="#333333" font-family="'MyriadPro-Regular'" font-size="17.6159">L</tspan><tspan x="67.591" y="0" fill="#333333" font-family="'MyriadPro-Regular'" font-size="17.6159">O</tspan><tspan x="79.728" y="0" fill="#333333" font-family="'MyriadPro-Regular'" font-size="17.6159">C</tspan><tspan x="90.016" y="0" fill="#333333" font-family="'MyriadPro-Regular'" font-size="17.6159" letter-spacing="-1">A</tspan><tspan x="99.439" y="0" fill="#333333" font-family="'MyriadPro-Regular'" font-size="17.6159">TIONS</tspan></text>
	<g opacity="0.6">
		<g>
			<defs>
				<rect id="SVGID_20_" x="0" y="12.436" width="16.779" height="9.645"/>
			</defs>
			<clipPath id="SVGID_22_">
				<use xlink:href="#SVGID_20_"  overflow="visible"/>
			</clipPath>
			<g clip-path="url(#SVGID_22_)">
				<defs>
					<rect id="SVGID_21_" x="0" y="12.436" width="16.779" height="9.645"/>
				</defs>
				<clipPath id="SVGID_23_">
					<use xlink:href="#SVGID_21_"  overflow="visible"/>
				</clipPath>
				<polygon clip-path="url(#SVGID_23_)" fill="#231F20" points="16.779,14.932 8.364,14.932 8.364,12.436 0,17.259 8.364,22.081 
					8.364,19.585 16.779,19.585 				"/>
			</g>
		</g>
	</g>
	<path d="M43.474,0c0.237,0.12,0.465,0.261,0.713,0.357c0.408,0.159,0.589,0.485,0.633,1.038c0.01,0.123,0.271,0.229,0.286,0.241
		c-0.322,0.595-0.624,1.152-1.014,1.874c-0.482-0.361-1.135-0.754-1.658-1.261c-0.891-0.865-1.814-1.616-3.163-1.786
		C39.026,0.432,38.818,0.161,38.593,0H43.474z"/>
	<path d="M94.64,3.733c-0.588,0.374-1.175,0.749-1.809,1.152c0.438,0.472,0.918,0.989,1.398,1.505
		c-0.14,0.106-0.281,0.211-0.421,0.316c-0.386-0.492-0.854-0.948-1.136-1.487c-0.337-0.644-0.916-0.915-1.606-0.607
		c-0.143,0.064-0.346,0.013-0.523,0.013c-0.564,0.001-1.127,0-1.715,0c0.04,0.688,0.166,1.037,0.868,1.16
		c1.072,0.189,1.822,0.771,1.725,2.1c-0.146-0.209-0.241-0.345-0.271-0.387c-0.547,0.289-1.171,0.506-1.613,0.898
		c-0.228,0.203-0.226,0.733-0.156,1.086c0.066,0.331,0.359,0.624,0.386,1.034c-0.703-0.614-1.407-1.227-2.138-1.864
		c-0.077,0.115-0.153,0.348-0.321,0.453c-0.506,0.316-0.252,0.528,0.12,0.584c0.473,0.072,0.796,0.073,0.628,0.686
		c-0.067,0.246,0.27,0.586,0.42,0.884c0.152,0.305,0.509,0.699,0.41,0.904c-0.291,0.607-0.666,1.241-1.191,1.673
		c-0.453,0.371-1.169,0.459-1.746,0.715c-0.259,0.115-0.463,0.336-0.701,0.516c0.305,0.408,0.694,0.753,0.835,1.169
		c0.119,0.355-0.03,0.795-0.116,1.187c-0.01,0.046-0.422,0.099-0.564,0.02c-0.375-0.209-0.704-0.489-1.11-0.783
		c-0.399,0.741-0.422,1.33,0.265,1.921c0.302,0.26,0.411,0.711,0.451,1.145c-0.359-0.827-1.576-1.262-1.235-2.444
		c0.146-0.508,0.15-1.066-0.728-1.346c-0.487-0.155-0.802-0.877-1.107-1.388c-0.33-0.553-0.868-0.437-1.082-0.142
		c-0.805,1.106-2.153,1.923-2.182,3.731c-0.335-0.396-0.562-0.557-0.633-0.764c-0.277-0.803-0.448-1.641-0.778-2.424
		c-0.161-0.383-0.666-0.633-0.871-1.011c-0.556-1.025-1.491-1.171-2.601-1.299c-0.677-0.078-1.687-0.115-1.864-1.126
		c-0.021-0.12-0.28-0.205-0.429-0.306c-0.068,0.134-0.178,0.264-0.197,0.403c-0.12,0.922,0.459,1.609,1.346,1.419
		c0.818-0.176,0.675,0.597,1.115,0.738c-0.138,0.307-0.182,0.74-0.431,0.898c-0.984,0.626-2.032,1.165-3.233,1.835
		c-0.456-1.214-0.884-2.33-1.293-3.453c-0.149-0.41-0.2-0.857-0.4-1.24c-0.075-0.145-0.444-0.158-0.686-0.233
		c-0.266,1.732,0.53,3.178,1.323,4.514c0.342,0.576,1.53,0.722,2.398,1.091c-0.518,0.766-0.526,2.018-1.793,2.706
		c-0.591,0.321-1.048,0.959-1.379,1.544c-0.198,0.352-0.217,0.981-0.001,1.306c0.597,0.898,0.155,1.551-0.462,2.109
		c-0.634,0.574-1.028,1.182-1.042,2.005c-0.002,0.134-0.13,0.269-0.207,0.4c-0.166,0.28-0.434,0.542-0.489,0.839
		c-0.197,1.056-2.162,2.107-3.146,1.616c-0.183-0.092-0.328-0.326-0.399-0.523c-0.697-1.93-1.682-3.785-1.174-5.956
		c0.22-0.942,0.012-1.957-0.708-2.799c-0.162-0.191-0.192-0.558-0.134-0.816c0.185-0.838-0.614-1.608-1.551-1.442
		c-0.377,0.067-0.749,0.179-1.129,0.206c-1.927,0.139-3.336-0.869-3.517-2.653c-0.05-0.495,0.391-1.03,0.596-1.55
		c0.735-1.868,1.919-3.542,3.786-4.431c1.072-0.511,2.591-0.228,3.909-0.275c0.109-0.004,0.285,0.175,0.33,0.299
		c0.264,0.735,1.217,1.075,2.011,0.951c0.79-0.124,1.629,0.005,2.443,0.065c0.079,0.006,0.133,0.309,0.186,0.446
		c0.393-0.539,0.789-1.082,1.329-1.823c-0.501,0-0.865-0.086-1.149,0.017c-0.665,0.24-0.741-0.115-0.835-0.56
		c-0.048-0.228-0.191-0.439-0.291-0.658c-0.191,0.219-0.397,0.428-0.564,0.661c-0.056,0.079,0.023,0.233-0.022,0.326
		c-0.059,0.118-0.182,0.209-0.277,0.312c-0.068-0.101-0.173-0.194-0.195-0.303c-0.084-0.414-0.059-0.863-0.23-1.239
		c-0.143-0.314-0.503-0.543-0.782-0.827c-0.673,0.777,1.246,0.84,0.138,1.549c-0.03-0.036-0.082-0.085-0.12-0.142
		c-0.736-1.13-1.098-1.265-2.378-0.713c-0.647,0.279-1.209,0.725-1.85,1.02c-0.368,0.17-0.816,0.208-1.235,0.243
		c-0.044,0.004-0.264-0.534-0.17-0.633c0.343-0.363,0.751-0.864,1.193-0.92c1.038-0.13,1.058-0.105,1.267-0.994
		c0.053-0.222,0.636-0.359,0.995-0.493c0.296-0.111,0.702-0.073,0.915-0.25c0.946-0.785,2.065-0.57,3.16-0.584
		c0.251-0.003,0.559-0.112,0.73-0.273c0.145-0.137,0.131-0.42,0.188-0.638c-0.238,0.026-0.504-0.001-0.708,0.09
		c-0.275,0.121-0.502,0.333-0.681,0.458c-0.193-0.321-0.34-0.564-0.601-0.998c0.246-0.148,0.661-0.445,1.119-0.664
		c0.756-0.361,1.546-0.662,2.311-1.007c1.062-0.479,2.281-0.331,3.133,0.375c0.128,0.106,0.352,0.189,0.517,0.17
		c0.94-0.104,1.879-0.224,2.81-0.379c0.272-0.046,0.52-0.222,0.895-0.391c0.03,0.269,0.062,0.55,0.102,0.909
		c0.2-0.035,0.56-0.099,1.045-0.185c-1.296-0.644-0.077-0.886,0.114-0.957c0.81-0.304,1.675-0.484,2.526-0.692
		C80.1,0.998,80.295,1.01,80.4,1.08c1.131,0.757,2.694,1.367,4.138,0.865c1.399-0.487,2.253,0.383,3.37,0.481
		c0.869,0.076,1.754,0.04,2.611,0.168c0.769,0.115,1.505,0.407,2.267,0.577c0.63,0.14,1.276,0.215,1.915,0.319
		C94.68,3.571,94.659,3.652,94.64,3.733"/>
	<path d="M42.26,7.064c-1.77-0.212-2.239,1-2.732,1.859c-0.516,0.896-1.585,1.789-0.732,3.061c-0.103,0.019-0.207,0.039-0.31,0.058
		c-0.139-0.305-0.41-0.617-0.389-0.912c0.048-0.678-0.374-0.644-0.846-0.605c-0.562,0.047-1.124,0.162-1.682,0.148
		c-0.688-0.019-0.944,0.354-0.951,0.854c-0.008,0.741,0.092,1.483,0.178,2.223c0.013,0.112,0.209,0.299,0.309,0.294
		c0.33-0.021,0.669-0.079,0.975-0.191c0.262-0.095,0.484-0.283,0.723-0.429c-0.011,0.25-0.032,0.499-0.032,0.749
		c0.001,0.445-0.187,1.004,0.689,0.92c0.114-0.01,0.346,0.246,0.371,0.4c0.057,0.346,0.018,0.707,0.018,1.13
		c-0.219-0.069-0.428-0.073-0.481-0.16c-0.863-1.396-2.582-1.417-3.895-2.082c-0.514-0.26-0.871-0.505-1.049-1.089
		c-0.197-0.646-0.664-1.224-1.034-1.82c-0.214-0.346-0.468-0.67-0.901-0.964c0.226,0.485,0.452,0.971,0.677,1.457
		c-0.095,0.038-0.19,0.076-0.285,0.115c-0.614-1.308-1.304-2.591-1.795-3.936c-0.163-0.445,0.229-1.045,0.284-1.582
		c0.041-0.402,0.079-0.882-0.113-1.21c-0.38-0.648-0.847-1.284-1.414-1.798c-0.683-0.619-1.458-0.118-2.156,0.111
		c-0.752,0.247-1.47,0.584-2.244,0.773c0.376-0.281,0.752-0.562,1.128-0.844c-0.153-0.081-0.341-0.18-0.506-0.266
		c0.294-0.347,1.228-0.128,0.838-0.962c-0.018-0.037,0.015-0.111,0.048-0.148c0.357-0.38,1.293,0.076,1.372-0.859
		c0.012-0.149,1.131-0.339,1.723-0.302c1.475,0.092,2.951,0.251,4.407,0.49c0.798,0.131,1.508,0.694,2.39,0.476
		c0.431-0.106,0.848-0.26,1.357-0.418c0.338,0.126,0.883,0.33,1.382,0.516c-0.458,0.239-1.047,0.548-1.681,0.879
		c0.016,0.115,0.114,0.38,0.077,0.629c-0.11,0.749,0.186,1.12,1.022,1.074c0.459-0.026,0.888-0.068,0.931,0.567
		c0.008,0.121,0.488,0.216,0.77,0.331V2.834c0.545,0.448,0.933,0.832,1.391,1.117c0.219,0.137,0.573,0.091,1.114,0.159
		c0.426,0.299,1.096,0.771,1.768,1.245c-0.448,0.768-1.751-0.244-1.998,0.697C41.407,6.39,41.752,6.663,42.26,7.064"/>
	<path d="M39.493,33.839c-0.051-0.327-0.21-0.678-0.134-0.978c0.631-2.482,1.133-4.986,1.584-7.499
		c0.046-0.255,0.024-0.587-0.119-0.792c-0.802-1.147-1.65-2.265-2.479-3.395c-0.046-0.062-0.101-0.164-0.077-0.217
		c0.331-0.738,0.682-1.469,1.011-2.207c0.103-0.228,0.262-0.494,0.217-0.711c-0.19-0.92,0.51-1.314,1.138-1.913
		c0.079,0.31,0.124,0.486,0.114,0.445c0.623,0,1.166,0.034,1.702-0.007c1.063-0.081,1.532,0.196,1.922,1.135
		c0.068,0.163,0.32,0.342,0.509,0.366c1.367,0.173,1.787,0.755,1.318,1.9c1.395-0.122,2.611,0.392,3.78,0.975
		c0.737,0.368,0.665,0.952,0.154,1.604c-0.421,0.539-0.558,1.262-0.937,1.839c-0.431,0.657-0.946,1.279-1.508,1.846
		c-0.412,0.416-1.011,0.673-1.422,1.09c-0.247,0.25-0.233,0.705-0.44,1.007c-0.302,0.44-0.632,0.906-1.072,1.207
		c-0.294,0.201-0.802,0.136-1.229,0.192c0.23,0.487,0.108,0.662-0.581,0.93c-0.786,0.306-1.383,1.076-1.996,1.699
		c-0.462,0.47-0.82,1.027-1.224,1.545C39.647,33.878,39.57,33.859,39.493,33.839"/>
	<path d="M93.878,30.485c-0.338-0.055-0.624-0.048-0.856-0.149c-0.663-0.287-1.215-0.622-2.01-0.079
		c-0.521,0.355-1.334,0.35-2.021,0.479c-0.08,0.015-0.265-0.126-0.288-0.219c-0.198-0.805-0.445-1.61-0.515-2.427
		c-0.029-0.346,0.22-0.885,0.526-1.053c0.991-0.547,1.684-1.294,2.265-2.556c0.181,0.379,0.272,0.57,0.486,1.017
		c0.151-1.364,0.877-1.439,1.787-1.172c-0.098,0.547,0.44,1.458,0.929,1.574c0.345,0.082,0.491-0.15,0.955-1.61
		c0.392,0.882,0.686,1.639,1.062,2.36c0.298,0.571,0.758,1.072,1.038,1.649c0.753,1.558-0.481,3.245-2.302,3.31
		C93.807,31.649,93.896,30.964,93.878,30.485"/>
	<path d="M92.218,20.815c2.232-0.159,4.073,0.958,4.955,2.997c-0.321-0.136-0.587-0.17-0.702-0.31
		c-0.482-0.587-0.464-0.584-1.315-0.478c-0.185,0.023-0.44-0.05-0.579-0.165C93.808,22.22,93.065,21.555,92.218,20.815"/>
</g>
</svg>
