<?xml version="1.0" encoding="utf-8"?>
<!-- Generator: Adobe Illustrator 17.0.0, SVG Export Plug-In . SVG Version: 6.00 Build 0)  -->
<!DOCTYPE svg PUBLIC "-//W3C//DTD SVG 1.1//EN" "http://www.w3.org/Graphics/SVG/1.1/DTD/svg11.dtd">
<svg version="1.1" id="Layer_1" xmlns="http://www.w3.org/2000/svg" xmlns:xlink="http://www.w3.org/1999/xlink" x="0px" y="0px"
	 width="209.653px" height="34.397px" viewBox="0 0 209.653 34.397" enable-background="new 0 0 209.653 34.397"
	 xml:space="preserve">
<g>
	<line fill="none" stroke="#676767" stroke-linecap="round" stroke-linejoin="round" x1="11.51" y1="5.638" x2="11.51" y2="33.53"/>
	
		<line fill="none" stroke="#676767" stroke-linecap="round" stroke-linejoin="round" x1="21.786" y1="5.638" x2="21.786" y2="33.53"/>
	
		<line fill="none" stroke="#676767" stroke-linecap="round" stroke-linejoin="round" x1="32.062" y1="5.638" x2="32.062" y2="33.53"/>
	
		<line fill="none" stroke="#676767" stroke-linecap="round" stroke-linejoin="round" x1="0.867" y1="24.355" x2="31.695" y2="24.355"/>
	
		<line fill="none" stroke="#676767" stroke-linecap="round" stroke-linejoin="round" x1="0.867" y1="14.813" x2="31.695" y2="14.813"/>
	
		<line fill="none" stroke="#676767" stroke-linecap="round" stroke-linejoin="round" x1="0.867" y1="5.271" x2="31.695" y2="5.271"/>
	<polyline fill="none" stroke="#333333" stroke-linecap="round" stroke-linejoin="round" points="39.035,33.897 0.991,33.897 
		0.5,33.712 0.5,0.5 	"/>
	<polyline fill="none" stroke="#333333" stroke-linecap="round" stroke-linejoin="round" points="34.381,23.264 26.24,26.532 
		18.304,21.469 10.163,25.06 5.216,21.469 0.578,26.532 	"/>
	<text transform="matrix(1 0 0 1 91.6456 23.85)"><tspan x="0" y="0" fill="#333333" font-family="'MyriadPro-Regular'" font-size="17.6159">PRESSURE </tspan><tspan x="78.16" y="0" fill="#333333" font-family="'MyriadPro-Regular'" font-size="17.6159">L</tspan><tspan x="85.806" y="0" fill="#333333" font-family="'MyriadPro-Regular'" font-size="17.6159">OGS</tspan></text>
</g>
</svg>
