<?xml version="1.0" encoding="utf-8"?>
<!-- Generator: Adobe Illustrator 17.0.0, SVG Export Plug-In . SVG Version: 6.00 Build 0)  -->
<!DOCTYPE svg PUBLIC "-//W3C//DTD SVG 1.1//EN" "http://www.w3.org/Graphics/SVG/1.1/DTD/svg11.dtd">
<svg version="1.1" xmlns="http://www.w3.org/2000/svg" xmlns:xlink="http://www.w3.org/1999/xlink" x="0px" y="0px" width="275px"
	 height="136px" viewBox="0 0 275 136" enable-background="new 0 0 275 136" xml:space="preserve">
<g id="Layer_1" display="none">
</g>
<g id="Cylinder">
</g>
<g id="Layer_6">
</g>
<g id="Pressure_gauge">
</g>
<g id="Chasis__x26__base">
</g>
<g id="Layer_8">
</g>
<g id="Motor__x26__pump">
</g>
<g id="Valves">
	<g>
		<path fill="#FFFFFF" stroke="#999999" stroke-miterlimit="10" d="M274.5,125.306c0,5.772-4.591,10.194-10.871,10.194H12.518
			c-6.28,0-12.018-4.422-12.018-10.194V11.209C0.5,5.438,6.238,0.5,12.518,0.5h251.111c6.28,0,10.871,4.938,10.871,10.709V125.306z"
			/>
		<line fill="#4D4D4D" stroke="#4D4D4D" stroke-miterlimit="10" x1="0" y1="36.5" x2="274" y2="36.5"/>
		<text transform="matrix(1 0 0 1 18 23.7578)" fill="#4D4D4D" font-family="'MyriadPro-Regular'" font-size="12">MODE SELECT</text>
		<text transform="matrix(1 0 0 1 124 23.7578)" fill="#4D4D4D" font-family="'MyriadPro-Regular'" font-size="12">OVERBOARD PRESELECT</text>
		<text transform="matrix(1 0 0 1 10 57.7578)" font-family="'MyriadPro-Regular'" font-size="12">BOP</text>
		<text transform="matrix(1 0 0 1 49 57.7578)" font-family="'MyriadPro-Regular'" font-size="12">DIVERTER</text>
		<text transform="matrix(1 0 0 1 121 57.7578)"><tspan x="0" y="0" font-family="'MyriadPro-Regular'" font-size="12">PRT OPEN/</tspan><tspan x="0" y="14.4" font-family="'MyriadPro-Regular'" font-size="12">STBD CLOSE</tspan></text>
		<text transform="matrix(1 0 0 1 197 57.7578)"><tspan x="0" y="0" font-family="'MyriadPro-Regular'" font-size="12">PRT CLOSE/</tspan><tspan x="0" y="14.4" font-family="'MyriadPro-Regular'" font-size="12">STBD OPEN</tspan></text>
		<circle fill="#99CC00" stroke="#000000" stroke-miterlimit="10" cx="22.441" cy="99.714" r="6.441"/>
		<circle fill="#FFFFFF" stroke="#000000" stroke-miterlimit="10" cx="71.441" cy="99.714" r="6.441"/>
		<circle fill="none" stroke="#000000" stroke-miterlimit="10" cx="147.441" cy="99.714" r="6.441"/>
		<circle fill="#FFFFFF" stroke="#000000" stroke-miterlimit="10" cx="221.441" cy="99.714" r="6.441"/>
	</g>
</g>
</svg>
