<?xml version="1.0" encoding="utf-8"?>
<!-- Generator: Adobe Illustrator 17.0.0, SVG Export Plug-In . SVG Version: 6.00 Build 0)  -->
<!DOCTYPE svg PUBLIC "-//W3C//DTD SVG 1.1//EN" "http://www.w3.org/Graphics/SVG/1.1/DTD/svg11.dtd">
<svg version="1.1" xmlns="http://www.w3.org/2000/svg" xmlns:xlink="http://www.w3.org/1999/xlink" x="0px" y="0px" width="275px"
	 height="136px" viewBox="0 0 275 136" enable-background="new 0 0 275 136" xml:space="preserve">
<g id="Layer_1" display="none">
</g>
<g id="Cylinder">
</g>
<g id="Layer_6">
</g>
<g id="Pressure_gauge">
</g>
<g id="Chasis__x26__base">
</g>
<g id="Layer_8">
</g>
<g id="Motor__x26__pump">
</g>
<g id="Valves">
	<g>
		<path fill="#FFFFFF" stroke="#999999" stroke-miterlimit="10" d="M274.5,125.048c0,5.772-5.091,10.452-11.371,10.452H12.018
			c-6.28,0-11.518-4.68-11.518-10.452V10.952C0.5,5.18,5.738,0.5,12.018,0.5h251.111c6.28,0,11.371,4.68,11.371,10.452V125.048z"/>
		<line fill="#4D4D4D" stroke="#4D4D4D" stroke-miterlimit="10" x1="0" y1="36.5" x2="274" y2="36.5"/>
		<text transform="matrix(1 0 0 1 17.5 23.5)" fill="#4D4D4D" font-family="'MyriadPro-Regular'" font-size="12">MODE SELECT</text>
		<text transform="matrix(1 0 0 1 124.5 23.5)" fill="#4D4D4D" font-family="'MyriadPro-Regular'" font-size="12">OVERBOARD PRESELECT</text>
		<text transform="matrix(1 0 0 1 10.5 57.5)" font-family="'MyriadPro-Regular'" font-size="12">BOP</text>
		<text transform="matrix(1 0 0 1 49.5 57.5)" font-family="'MyriadPro-Regular'" font-size="12">DIVERTER</text>
		<text transform="matrix(1 0 0 1 121.5 57.5)"><tspan x="0" y="0" font-family="'MyriadPro-Regular'" font-size="12">PRT OPEN/</tspan><tspan x="0" y="14.4" font-family="'MyriadPro-Regular'" font-size="12">STBD CLOSE</tspan></text>
		<text transform="matrix(1 0 0 1 195.5 57.5)"><tspan x="0" y="0" font-family="'MyriadPro-Regular'" font-size="12">PRT CLOSE/</tspan><tspan x="0" y="14.4" font-family="'MyriadPro-Regular'" font-size="12">STBD OPEN</tspan></text>
		<circle fill="none" stroke="#000000" stroke-miterlimit="10" cx="22.941" cy="99.456" r="6.441"/>
		<circle fill="#99CC00" stroke="#000000" stroke-miterlimit="10" cx="71.941" cy="99.456" r="6.441"/>
		<circle fill="#99CC00" stroke="#000000" stroke-miterlimit="10" cx="147.941" cy="99.456" r="6.441"/>
		<circle fill="#99CC00" stroke="#000000" stroke-miterlimit="10" cx="219.941" cy="99.456" r="6.441"/>
	</g>
</g>
</svg>
