<?xml version="1.0" encoding="utf-8"?>
<!-- Generator: Adobe Illustrator 16.0.0, SVG Export Plug-In . SVG Version: 6.00 Build 0)  -->
<!DOCTYPE svg PUBLIC "-//W3C//DTD SVG 1.1//EN" "http://www.w3.org/Graphics/SVG/1.1/DTD/svg11.dtd">
<svg version="1.1" id="Layer_1" xmlns="http://www.w3.org/2000/svg" xmlns:xlink="http://www.w3.org/1999/xlink" x="0px" y="0px"
	 width="29.481px" height="24.66px" viewBox="0 0 29.481 24.66" enable-background="new 0 0 29.481 24.66" xml:space="preserve">
<symbol  id="Plus" viewBox="-17.077 -17.076 34.154 34.154">
	<polygon fill="#FBCA7E" points="5.123,17.078 -5.123,17.078 -5.123,5.123 -17.077,5.123 -17.077,-5.123 -5.123,-5.123 
		-5.123,-17.076 5.123,-17.076 5.123,-5.123 17.077,-5.123 17.077,5.123 5.123,5.123 	"/>
</symbol>
<g>
	<path fill="#FFFFFF" d="M11.56,0c0.515,0,1.027,0,1.541,0c0.182,0.03,0.362,0.062,0.545,0.088c2.187,0.302,3.608,1.886,3.653,4.087
		c0.02,0.914,0.013,1.829,0.013,2.744c0,0.166,0.036,0.308,0.13,0.451c0.51,0.786,0.374,1.823-0.32,2.453
		c-0.125,0.113-0.203,0.24-0.252,0.398c-0.232,0.764-0.538,1.507-1.04,2.125c-0.354,0.438-0.462,0.887-0.406,1.414
		c0.009,0.08,0.008,0.16,0.013,0.24c0.089,1.542,1.209,2.737,2.734,2.909c0.551,0.062,1.105,0.015,1.659,0.022
		c0.163,0.002,0.315,0.029,0.467,0.092c1.269,0.532,2.265,1.408,3.114,2.469c0.492,0.616,0.871,1.304,1.25,1.99
		c0,0.658,0,1.316,0,1.975c-0.18,0.623-0.582,1.023-1.203,1.204c-7.418,0-14.836,0-22.253,0C0.582,24.479,0.18,24.079,0,23.456
		c0-0.658,0-1.316,0-1.975c0.124-0.223,0.247-0.447,0.373-0.669c0.852-1.493,1.961-2.733,3.49-3.559
		c0.4-0.216,0.811-0.369,1.282-0.328c0.343,0.03,0.689,0.007,1.034,0.006c1.286-0.004,2.438-0.828,2.871-2.04
		c0.211-0.589,0.181-1.199,0.188-1.808c0.002-0.145-0.034-0.257-0.127-0.371c-0.585-0.725-1.026-1.53-1.298-2.423
		c-0.061-0.198-0.158-0.356-0.311-0.5C6.86,9.181,6.722,8.183,7.184,7.43c0.119-0.195,0.164-0.387,0.167-0.611
		c0.017-1.042-0.064-2.086,0.056-3.125c0.199-1.713,1.338-3.022,3-3.468C10.786,0.123,11.176,0.078,11.56,0z"/>
	
		<use xlink:href="#Plus"  width="34.154" height="34.154" id="XMLID_2_" x="-17.077" y="-17.076" transform="matrix(0.3229 0 0 -0.3229 23.9668 11.5171)" overflow="visible"/>
</g>
</svg>
