<?xml version="1.0" encoding="utf-8"?>
<!-- Generator: Adobe Illustrator 16.0.0, SVG Export Plug-In . SVG Version: 6.00 Build 0)  -->
<!DOCTYPE svg PUBLIC "-//W3C//DTD SVG 1.1//EN" "http://www.w3.org/Graphics/SVG/1.1/DTD/svg11.dtd">
<svg version="1.1" xmlns="http://www.w3.org/2000/svg" xmlns:xlink="http://www.w3.org/1999/xlink" x="0px" y="0px" width="1920px"
	 height="1080px" viewBox="0 0 1920 1080" enable-background="new 0 0 1920 1080" xml:space="preserve">
<g id="Layer_1" display="none">
</g>
<g id="Cylinder">
</g>
<g id="Layer_6">
</g>
<g id="Pressure_gauge">
</g>
<g id="Chasis__x26__base">
</g>
<g id="Layer_8">
</g>
<g id="Motor__x26__pump">
</g>
<g id="Valves">
	<g>
		<path fill="#808080" stroke="#808080" stroke-miterlimit="10" d="M537.5,281.906c0,9.977,0,28.592,0,37.055
			c0,7.66,4.564,6.539,7.487,6.539c8.001,0,85.878,0,85.878,0c2.349-1,2.783-3.183,2.789-4.339c0-6.592-3.377-7.513-3.377-7.513
			l-85.29-34.221c0,0-3.958-2.04-5.872-2.323C537.573,277.104,537.5,278.881,537.5,281.906z"/>
		<path fill="#E6E6E6" stroke="#999999" stroke-width="0.25" stroke-miterlimit="10" d="M554.697,290.038
			c0,0,3.848-0.019,6.49-0.019s2.814,3.383,3.967,5.793c1.219,2.287,3.601,1.696,6.508,0c2.418-1.688,13.474-10.215,13.474-10.215
			s2.196-2.033,0.011-5.286c-11.334-13.315-30.449-13.214-30.449-13.214s-19.18-0.102-30.514,13.214
			c-2.186,3.253,0.018,5.286,0.018,5.286s11.059,8.526,13.477,10.215c2.908,1.696,5.291,2.287,6.51,0
			c1.152-2.41,1.326-5.793,3.969-5.793S554.697,290.038,554.697,290.038z"/>
		<rect x="551.5" y="322.5" fill="#808080" stroke="#808080" stroke-miterlimit="10" width="7" height="23"/>
		<circle fill="#999999" stroke="#999999" stroke-width="0.25" stroke-miterlimit="10" cx="554.666" cy="308.239" r="13.846"/>
		<rect x="584.5" y="309.5" fill="#999999" stroke="#999999" stroke-miterlimit="10" width="44" height="20"/>
		<rect x="597.5" y="311.5" fill="#C8C8C8" stroke="#C8C8C8" stroke-miterlimit="10" width="23" height="2"/>
		<rect x="597.5" y="325.5" fill="#C8C8C8" stroke="#C8C8C8" stroke-miterlimit="10" width="23" height="2"/>
		<rect x="592.5" y="306.5" fill="#C8C8C8" stroke="#999999" stroke-miterlimit="10" width="5" height="27"/>
		<rect x="620.5" y="306.5" fill="#C8C8C8" stroke="#999999" stroke-miterlimit="10" width="5" height="27"/>
		<rect x="590.5" y="310.5" fill="#C8C8C8" stroke="#C8C8C8" stroke-miterlimit="10" width="1" height="4"/>
		<rect x="626.5" y="310.5" fill="#C8C8C8" stroke="#C8C8C8" stroke-miterlimit="10" width="1" height="4"/>
		<path fill="#999999" stroke="#999999" stroke-miterlimit="10" d="M638.726,319.599c0,3.284-2.662,6-5.946,6
			c-0.461,0-0.907-0.099-1.336-0.099H628.5v-12h2.943c0.429,0,0.875,0.001,1.336,0.001
			C636.063,313.501,638.726,316.314,638.726,319.599z"/>
		<path fill="#C8C8C8" stroke="#C8C8C8" stroke-miterlimit="10" d="M583.5,317.5v5h-31.387c-3.133,0-5.765,0.285-6.555,0.568
			c-0.157,0.058-0.242,0.156-0.242,0.217c-0.652,0.441-1.44,0.717-2.286,0.717c-2.265,0-4.099-1.833-4.099-4.106
			c0-2.275,1.834-4.113,4.099-4.113c0.846,0,1.634,0.259,2.286,0.701c0,0.062,0.082,0.294,0.24,0.349
			c0.792,0.287,3.448,0.668,6.605,0.668H583.5z"/>
		<polygon fill="#333333" stroke="#333333" stroke-width="0.25" stroke-miterlimit="10" points="548.812,321.146 593.295,276.318 
			586.512,269.482 542.028,314.311 538.027,325.179 		"/>
		<path fill="#C1272D" stroke="#C1272D" stroke-miterlimit="10" d="M621.712,241.24c2.799,2.799,3.058,7.077,0.577,9.557
			l-27.323,27.324l-10.135-10.135l27.323-27.324C614.635,238.183,618.913,238.441,621.712,241.24z"/>
		<circle fill="#C8C8C8" stroke="#C8C8C8" stroke-width="0.25" stroke-miterlimit="10" cx="554.666" cy="308.239" r="3.02"/>
		<circle fill="#C8C8C8" stroke="#C8C8C8" stroke-width="0.25" stroke-miterlimit="10" cx="540.761" cy="292.84" r="3.049"/>
		<circle fill="#C8C8C8" stroke="#C8C8C8" stroke-width="0.25" stroke-miterlimit="10" cx="633.465" cy="319.599" r="2.973"/>
		<circle fill="#C8C8C8" stroke="#C8C8C8" stroke-width="0.25" stroke-miterlimit="10" cx="543.125" cy="319.904" r="2.439"/>
		<rect x="590.5" y="324.5" fill="#C8C8C8" stroke="#C8C8C8" stroke-miterlimit="10" width="1" height="4"/>
		<rect x="626.5" y="324.5" fill="#C8C8C8" stroke="#C8C8C8" stroke-miterlimit="10" width="1" height="4"/>
	</g>
</g>
</svg>
