<?xml version="1.0" encoding="utf-8"?>
<!-- Generator: Adobe Illustrator 17.0.0, SVG Export Plug-In . SVG Version: 6.00 Build 0)  -->
<!DOCTYPE svg PUBLIC "-//W3C//DTD SVG 1.1//EN" "http://www.w3.org/Graphics/SVG/1.1/DTD/svg11.dtd">
<svg version="1.1" xmlns="http://www.w3.org/2000/svg" xmlns:xlink="http://www.w3.org/1999/xlink" x="0px" y="0px" width="153px"
	 height="135px" viewBox="0 0 153 135" enable-background="new 0 0 153 135" xml:space="preserve">
<g id="Layer_1">
</g>
<g id="Layer_3">
</g>
<g id="Layer_2">
</g>
<g id="Layer_7">
</g>
<g id="Layer_14">
</g>
<g id="Layer_5">
</g>
<g id="Layer_11">
</g>
<g id="Layer_9">
</g>
<g id="Layer_10">
</g>
<g id="Layer_13">
</g>
<g id="Layer_6">
</g>
<g id="Layer_4">
</g>
<g id="Layer_12">
	<g id="Arrow_26" opacity="0.6">
	</g>
</g>
<g id="Layer_15">
</g>
<g id="Layer_8">
	<g>
		<rect x="62.5" y="10.5" fill="#999999" stroke="#999999" stroke-miterlimit="10" width="10" height="50"/>
		<g>
			<path fill="#808080" stroke="#808080" stroke-miterlimit="10" d="M49.5,74.01c0,9.976,0,28.592,0,37.055
				c0,7.66,4.244,6.436,7.167,6.436c8.001,0,85.878,0,85.878,0c2.349-1,2.783-3.132,2.789-4.287c0-6.592-3.378-7.488-3.378-7.488
				L56.667,71.518c0,0-3.798-2.034-5.712-2.316C49.414,69.201,49.5,70.984,49.5,74.01z"/>
			<path fill="#E6E6E6" stroke="#999999" stroke-width="0.25" stroke-miterlimit="10" d="M66.377,82.141c0,0,3.848-0.019,6.49-0.019
				c2.642,0,2.814,3.384,3.966,5.794c1.221,2.287,3.602,1.695,6.509,0C85.76,86.227,96.814,77.7,96.814,77.7
				s2.197-2.033,0.012-5.286C85.492,59.099,66.377,59.2,66.377,59.2s-19.18-0.102-30.514,13.214
				c-2.185,3.253,0.018,5.286,0.018,5.286s11.058,8.526,13.477,10.216c2.908,1.695,5.291,2.287,6.51,0
				c1.151-2.41,1.326-5.794,3.969-5.794S66.377,82.141,66.377,82.141z"/>
			<rect x="63.5" y="114.5" fill="#808080" stroke="#808080" stroke-miterlimit="10" width="7" height="19"/>
			<circle fill="#999999" stroke="#999999" stroke-width="0.25" stroke-miterlimit="10" cx="66.346" cy="100.342" r="13.846"/>
			<rect x="96.5" y="101.5" fill="#999999" stroke="#999999" stroke-miterlimit="10" width="44" height="20"/>
			<rect x="109.5" y="103.5" fill="#C8C8C8" stroke="#C8C8C8" stroke-miterlimit="10" width="23" height="2"/>
			<rect x="109.5" y="117.5" fill="#C8C8C8" stroke="#C8C8C8" stroke-miterlimit="10" width="23" height="2"/>
			<rect x="104.5" y="98.5" fill="#C8C8C8" stroke="#999999" stroke-miterlimit="10" width="5" height="27"/>
			<rect x="132.5" y="98.5" fill="#C8C8C8" stroke="#999999" stroke-miterlimit="10" width="5" height="27"/>
			<rect x="102.5" y="102.5" fill="#C8C8C8" stroke="#C8C8C8" stroke-miterlimit="10" width="1" height="4"/>
			<rect x="138.5" y="102.5" fill="#C8C8C8" stroke="#C8C8C8" stroke-miterlimit="10" width="1" height="4"/>
			<path fill="#999999" stroke="#999999" stroke-miterlimit="10" d="M150.405,111.701c0,3.285-2.662,5.949-5.946,5.949
				c-0.461,0-0.906-0.15-1.336-0.15H140.5v-12h2.623c0.43,0,0.875,0.052,1.336,0.052
				C147.743,105.552,150.405,108.418,150.405,111.701z"/>
			<path fill="#C8C8C8" stroke="#C8C8C8" stroke-miterlimit="10" d="M95.5,109.5v5H63.793c-3.133,0-5.765,0.336-6.555,0.619
				c-0.158,0.059-0.242,0.183-0.242,0.243c-0.652,0.442-1.439,0.729-2.286,0.729c-2.265,0-4.099-1.826-4.099-4.101
				s1.834-4.109,4.099-4.109c0.847,0,1.634,0.261,2.286,0.702c0,0.062,0.082,0.243,0.24,0.298c0.792,0.287,3.448,0.618,6.606,0.618
				H95.5z"/>
			<polygon fill="#333333" stroke="#333333" stroke-width="0.25" stroke-miterlimit="10" points="60.491,113.25 104.975,68.422 
				98.191,61.586 53.708,106.414 49.707,117.281 			"/>
			<path fill="#C1272D" stroke="#C1272D" stroke-width="0.25" stroke-miterlimit="10" d="M133.392,33.343
				c2.799,2.799,3.058,7.077,0.577,9.558l-27.323,27.324L96.51,60.09l27.323-27.324C126.314,30.285,130.593,30.544,133.392,33.343z">

				 <animate attributeName="fill" attributeType="XML" from="red" to="#000022" dur=".5s" repeatCount="indefinite"/>
                    <animate attributeName="stroke" attributeType="XML" from="#cccccc" to="#000022" dur=".5s" repeatCount="indefinite"/>
			</path>
			<circle fill="#C8C8C8" stroke="#C8C8C8" stroke-width="0.25" stroke-miterlimit="10" cx="66.346" cy="100.342" r="3.02"/>
			<circle fill="#C8C8C8" stroke="#C8C8C8" stroke-width="0.25" stroke-miterlimit="10" cx="52.441" cy="84.942" r="3.049"/>
			<circle fill="#C8C8C8" stroke="#C8C8C8" stroke-width="0.25" stroke-miterlimit="10" cx="145.145" cy="111.701" r="2.973"/>
			<circle fill="#C8C8C8" stroke="#C8C8C8" stroke-width="0.25" stroke-miterlimit="10" cx="54.805" cy="112.007" r="2.439"/>
			<rect x="102.5" y="116.5" fill="#C8C8C8" stroke="#C8C8C8" stroke-miterlimit="10" width="1" height="4"/>
			<rect x="138.5" y="116.5" fill="#C8C8C8" stroke="#C8C8C8" stroke-miterlimit="10" width="1" height="4"/>
			<rect x="43.5" y="130.5" fill="#333333" stroke="#333333" stroke-miterlimit="10" width="47" height="4"/>
		</g>
	</g>
</g>
</svg>
