<?xml version="1.0" encoding="utf-8"?>
<!-- Generator: Adobe Illustrator 16.0.0, SVG Export Plug-In . SVG Version: 6.00 Build 0)  -->
<!DOCTYPE svg PUBLIC "-//W3C//DTD SVG 1.1//EN" "http://www.w3.org/Graphics/SVG/1.1/DTD/svg11.dtd">
<svg version="1.1" xmlns="http://www.w3.org/2000/svg" xmlns:xlink="http://www.w3.org/1999/xlink" x="0px" y="0px"
	 width="271.515px" height="394.648px" viewBox="0 0 271.515 394.648" enable-background="new 0 0 271.515 394.648"
	 xml:space="preserve">
<g id="Layer_1">
</g>
<g id="Layer_3">
</g>
<g id="Layer_2">
</g>
<g id="Layer_7">
</g>
<g id="Layer_14">
</g>
<g id="Layer_5">
	<g opacity="0.4">
		<line fill="none" stroke="#666666" stroke-miterlimit="10" x1="106.515" y1="254.5" x2="156.515" y2="254.5"/>
		<line fill="none" stroke="#666666" stroke-miterlimit="10" x1="105.515" y1="268.5" x2="157.515" y2="268.5"/>
		<line fill="none" stroke="#666666" stroke-miterlimit="10" x1="105.515" y1="276.5" x2="157.515" y2="276.5"/>
		<line fill="none" stroke="#666666" stroke-miterlimit="10" x1="120.015" y1="255" x2="120.015" y2="277"/>
		<line fill="none" stroke="#666666" stroke-miterlimit="10" x1="143.015" y1="255" x2="143.015" y2="277"/>
		<line fill="none" stroke="#666666" stroke-miterlimit="10" x1="105.642" y1="268.379" x2="120.408" y2="254.896"/>
		<line fill="none" stroke="#666666" stroke-miterlimit="10" x1="120.408" y1="254.896" x2="143.092" y2="268.379"/>
		<line fill="none" stroke="#666666" stroke-miterlimit="10" x1="143.092" y1="268.379" x2="155.505" y2="254.683"/>
		<line fill="none" stroke="#666666" stroke-miterlimit="10" x1="106.926" y1="254.683" x2="120.408" y2="268.379"/>
		<line fill="none" stroke="#666666" stroke-miterlimit="10" x1="120.408" y1="268.379" x2="143.092" y2="254.896"/>
		<line fill="none" stroke="#666666" stroke-miterlimit="10" x1="143.092" y1="254.896" x2="157.003" y2="268.379"/>
		<line fill="none" stroke="#666666" stroke-miterlimit="10" x1="105.515" y1="271.5" x2="157.515" y2="271.5"/>
		<ellipse fill="#4D4D4D" stroke="#4D4D4D" stroke-miterlimit="10" cx="182.683" cy="311.207" rx="13.482" ry="2.541"/>
		<rect x="131.515" y="114" fill="#666666" stroke="#666666" stroke-width="2" stroke-miterlimit="10" width="2" height="196"/>
		<rect x="130.015" y="78.5" fill="#666666" stroke="#666666" stroke-width="3" stroke-miterlimit="10" width="4" height="17"/>
		<line fill="none" stroke="#4D4D4D" stroke-width="3" stroke-miterlimit="10" x1="124.474" y1="22.915" x2="102.646" y2="310.11"/>
		<line fill="none" stroke="#4D4D4D" stroke-width="3" stroke-miterlimit="10" x1="140.738" y1="22.915" x2="159.999" y2="310.11"/>
		<line fill="none" stroke="#4D4D4D" stroke-width="3" stroke-miterlimit="10" x1="124.515" y1="23.5" x2="140.515" y2="23.5"/>
		<line fill="none" stroke="#4D4D4D" stroke-width="3" stroke-miterlimit="10" x1="102.515" y1="310.5" x2="159.515" y2="310.5"/>
		<line fill="none" stroke="#4D4D4D" stroke-width="3" stroke-miterlimit="10" x1="121.515" y1="61.5" x2="143.515" y2="61.5"/>
		<line fill="none" stroke="#4D4D4D" stroke-width="3" stroke-miterlimit="10" x1="119.515" y1="92.5" x2="145.515" y2="92.5"/>
		<line fill="none" stroke="#4D4D4D" stroke-width="3" stroke-miterlimit="10" x1="116.515" y1="124.5" x2="147.515" y2="124.5"/>
		<line fill="none" stroke="#4D4D4D" stroke-width="3" stroke-miterlimit="10" x1="114.515" y1="155.5" x2="149.515" y2="155.5"/>
		<line fill="none" stroke="#4D4D4D" stroke-width="3" stroke-miterlimit="10" x1="112.515" y1="186.5" x2="151.515" y2="186.5"/>
		<line fill="none" stroke="#4D4D4D" stroke-width="3" stroke-miterlimit="10" x1="110.515" y1="217.5" x2="153.515" y2="217.5"/>
		<line fill="none" stroke="#4D4D4D" stroke-width="3" stroke-miterlimit="10" x1="107.515" y1="249.5" x2="155.515" y2="249.5"/>
		<line fill="none" stroke="#4D4D4D" stroke-width="3" stroke-miterlimit="10" x1="104.515" y1="280.5" x2="157.515" y2="280.5"/>
		<line fill="none" stroke="#4D4D4D" stroke-width="3" stroke-miterlimit="10" x1="103.515" y1="295.5" x2="159.515" y2="295.5"/>
		<line fill="none" stroke="#4D4D4D" stroke-width="3" stroke-miterlimit="10" x1="140.738" y1="23.129" x2="121.478" y2="61.65"/>
		<line fill="none" stroke="#4D4D4D" stroke-width="3" stroke-miterlimit="10" x1="124.474" y1="23.129" x2="143.306" y2="61.65"/>
		<line fill="none" stroke="#4D4D4D" stroke-width="3" stroke-miterlimit="10" x1="121.478" y1="61.65" x2="145.432" y2="92.895"/>
		<line fill="none" stroke="#4D4D4D" stroke-width="3" stroke-miterlimit="10" x1="145.432" y1="92.895" x2="116.77" y2="124.14"/>
		<line fill="none" stroke="#4D4D4D" stroke-width="3" stroke-miterlimit="10" x1="116.77" y1="124.14" x2="149.622" y2="155.385"/>
		
			<line fill="none" stroke="#4D4D4D" stroke-width="3" stroke-miterlimit="10" x1="149.622" y1="155.385" x2="112.062" y2="186.629"/>
		
			<line fill="none" stroke="#4D4D4D" stroke-width="3" stroke-miterlimit="10" x1="112.062" y1="186.629" x2="153.813" y2="217.873"/>
		
			<line fill="none" stroke="#4D4D4D" stroke-width="3" stroke-miterlimit="10" x1="153.813" y1="217.873" x2="107.354" y2="249.119"/>
		
			<line fill="none" stroke="#4D4D4D" stroke-width="3" stroke-miterlimit="10" x1="107.354" y1="249.119" x2="157.858" y2="280.363"/>
		<line fill="none" stroke="#4D4D4D" stroke-width="3" stroke-miterlimit="10" x1="124.015" y1="23" x2="124.015" y2="2"/>
		<line fill="none" stroke="#4D4D4D" stroke-width="3" stroke-miterlimit="10" x1="140.015" y1="2" x2="140.015" y2="23"/>
		<line fill="none" stroke="#4D4D4D" stroke-miterlimit="10" x1="123.515" y1="9.5" x2="140.515" y2="9.5"/>
		<line fill="none" stroke="#4D4D4D" stroke-miterlimit="10" x1="123.515" y1="15.5" x2="140.515" y2="15.5"/>
		<line fill="none" stroke="#4D4D4D" stroke-miterlimit="10" x1="123.515" y1="14.5" x2="140.515" y2="14.5"/>
		<line fill="none" stroke="#4D4D4D" stroke-miterlimit="10" x1="133.015" y1="3" x2="133.015" y2="9"/>
		<polygon fill="none" stroke="#4D4D4D" stroke-miterlimit="10" points="124.046,2.5 140.738,2.5 132.392,9.135 		"/>
		<rect x="124.015" y="16.5" fill="#4D4D4D" stroke="#4D4D4D" stroke-miterlimit="10" width="16" height="7"/>
		<rect x="115.015" y="137.5" fill="#4D4D4D" stroke="#4D4D4D" stroke-width="3" stroke-miterlimit="10" width="34" height="18"/>
		<rect x="104.015" y="137.5" fill="none" stroke="#4D4D4D" stroke-width="3" stroke-miterlimit="10" width="10" height="17"/>
		<line fill="none" stroke="#4D4D4D" stroke-width="3" stroke-miterlimit="10" x1="106.015" y1="138" x2="106.015" y2="155"/>
		<line fill="none" stroke="#4D4D4D" stroke-width="3" stroke-miterlimit="10" x1="110.015" y1="138" x2="110.015" y2="155"/>
		<path fill="#4D4D4D" stroke="#4D4D4D" stroke-width="3" stroke-miterlimit="10" d="M132.434,64.541c0,0-4.994,0.254-5.05,5.529
			c0.264,2.138,0.621,1.21,1.881,6.988c1.129,4.173,5.267,4.066,6.337,0c0.713-4.174,1.603-4.74,1.746-6.771
			C137.564,64.432,132.434,64.541,132.434,64.541z"/>
		<path fill="#4D4D4D" stroke="#4D4D4D" stroke-width="3" stroke-miterlimit="10" d="M136.015,109.648
			c0,2.127-1.725,3.852-3.852,3.852h-0.297c-2.127,0-3.852-1.725-3.852-3.852V97.352c0-2.127,1.725-3.852,3.852-3.852h0.297
			c2.127,0,3.852,1.725,3.852,3.852V109.648z"/>
		<circle fill="#999999" stroke="#999999" stroke-width="2" stroke-miterlimit="10" cx="132.497" cy="76.697" r="0.532"/>
		<circle fill="#E6E6E6" stroke="#E6E6E6" stroke-miterlimit="10" cx="132.497" cy="76.697" r="0.348"/>
		<path fill="#4D4D4D" stroke="#4D4D4D" stroke-width="2" stroke-miterlimit="10" d="M135.515,90.5c0,0.276-0.224,0.5-0.5,0.5h-5
			c-0.276,0-0.5-0.224-0.5-0.5l0,0c0-0.276,0.224-0.5,0.5-0.5h5C135.291,90,135.515,90.224,135.515,90.5L135.515,90.5z"/>
		<line fill="none" stroke="#4D4D4D" stroke-width="3" stroke-miterlimit="10" x1="133.015" y1="65" x2="133.015" y2="24"/>
		<rect x="131.015" y="0.5" fill="#4D4D4D" stroke="#4D4D4D" stroke-miterlimit="10" width="2" height="2"/>
		<line fill="none" stroke="#4D4D4D" stroke-miterlimit="10" x1="145.432" y1="25.483" x2="153.151" y2="137.586"/>
		<line fill="none" stroke="#4D4D4D" stroke-miterlimit="10" x1="145.515" y1="25.5" x2="140.515" y2="25.5"/>
		<line fill="none" stroke="#4D4D4D" stroke-miterlimit="10" x1="146.515" y1="29.5" x2="141.515" y2="29.5"/>
		<line fill="none" stroke="#4D4D4D" stroke-miterlimit="10" x1="146.515" y1="33.5" x2="141.515" y2="33.5"/>
		<line fill="none" stroke="#4D4D4D" stroke-miterlimit="10" x1="146.515" y1="37.5" x2="141.515" y2="37.5"/>
		<line fill="none" stroke="#4D4D4D" stroke-miterlimit="10" x1="146.515" y1="41.5" x2="141.515" y2="41.5"/>
		<line fill="none" stroke="#4D4D4D" stroke-miterlimit="10" x1="146.515" y1="44.5" x2="141.515" y2="44.5"/>
		<line fill="none" stroke="#4D4D4D" stroke-miterlimit="10" x1="147.515" y1="48.5" x2="142.515" y2="48.5"/>
		<line fill="none" stroke="#4D4D4D" stroke-miterlimit="10" x1="147.515" y1="52.5" x2="142.515" y2="52.5"/>
		<line fill="none" stroke="#4D4D4D" stroke-miterlimit="10" x1="147.515" y1="56.5" x2="142.515" y2="56.5"/>
		<line fill="none" stroke="#4D4D4D" stroke-miterlimit="10" x1="148.515" y1="60.5" x2="143.515" y2="60.5"/>
		<line fill="none" stroke="#4D4D4D" stroke-miterlimit="10" x1="148.515" y1="64.5" x2="143.515" y2="64.5"/>
		<line fill="none" stroke="#4D4D4D" stroke-miterlimit="10" x1="148.515" y1="68.5" x2="143.515" y2="68.5"/>
		<line fill="none" stroke="#4D4D4D" stroke-miterlimit="10" x1="148.515" y1="71.5" x2="143.515" y2="71.5"/>
		<line fill="none" stroke="#4D4D4D" stroke-miterlimit="10" x1="148.515" y1="76.5" x2="143.515" y2="76.5"/>
		<line fill="none" stroke="#4D4D4D" stroke-miterlimit="10" x1="149.515" y1="79.5" x2="144.515" y2="79.5"/>
		<line fill="none" stroke="#4D4D4D" stroke-miterlimit="10" x1="149.515" y1="83.5" x2="144.515" y2="83.5"/>
		<line fill="none" stroke="#4D4D4D" stroke-miterlimit="10" x1="149.515" y1="87.5" x2="144.515" y2="87.5"/>
		<line fill="none" stroke="#4D4D4D" stroke-miterlimit="10" x1="150.515" y1="91.5" x2="145.515" y2="91.5"/>
		<line fill="none" stroke="#4D4D4D" stroke-miterlimit="10" x1="150.515" y1="95.5" x2="145.515" y2="95.5"/>
		<line fill="none" stroke="#4D4D4D" stroke-miterlimit="10" x1="150.515" y1="98.5" x2="146.515" y2="98.5"/>
		<line fill="none" stroke="#4D4D4D" stroke-miterlimit="10" x1="150.515" y1="102.5" x2="146.515" y2="102.5"/>
		<line fill="none" stroke="#4D4D4D" stroke-miterlimit="10" x1="150.515" y1="106.5" x2="146.515" y2="106.5"/>
		<line fill="none" stroke="#4D4D4D" stroke-miterlimit="10" x1="151.515" y1="110.5" x2="146.515" y2="110.5"/>
		<line fill="none" stroke="#4D4D4D" stroke-miterlimit="10" x1="151.515" y1="114.5" x2="146.515" y2="114.5"/>
		<line fill="none" stroke="#4D4D4D" stroke-miterlimit="10" x1="151.515" y1="118.5" x2="147.515" y2="118.5"/>
		<line fill="none" stroke="#4D4D4D" stroke-miterlimit="10" x1="151.515" y1="121.5" x2="147.515" y2="121.5"/>
		<line fill="none" stroke="#4D4D4D" stroke-miterlimit="10" x1="152.515" y1="125.5" x2="147.515" y2="125.5"/>
		<line fill="none" stroke="#4D4D4D" stroke-miterlimit="10" x1="152.515" y1="129.5" x2="148.515" y2="129.5"/>
		<line fill="none" stroke="#4D4D4D" stroke-miterlimit="10" x1="152.515" y1="133.5" x2="148.515" y2="133.5"/>
		<line fill="none" stroke="#4D4D4D" stroke-miterlimit="10" x1="153.515" y1="137.5" x2="148.515" y2="137.5"/>
		<line fill="none" stroke="#4D4D4D" stroke-miterlimit="10" x1="153.515" y1="141.5" x2="148.515" y2="141.5"/>
		<line fill="none" stroke="#4D4D4D" stroke-miterlimit="10" x1="153.515" y1="144.5" x2="148.515" y2="144.5"/>
		<line fill="none" stroke="#4D4D4D" stroke-miterlimit="10" x1="153.515" y1="148.5" x2="148.515" y2="148.5"/>
		<line fill="none" stroke="#4D4D4D" stroke-miterlimit="10" x1="153.515" y1="151.5" x2="148.515" y2="151.5"/>
		<line fill="none" stroke="#4D4D4D" stroke-miterlimit="10" x1="149.515" y1="155.5" x2="153.515" y2="155.5"/>
		<line fill="none" stroke="#4D4D4D" stroke-miterlimit="10" x1="150.515" y1="158.5" x2="153.515" y2="158.5"/>
		<line fill="none" stroke="#4D4D4D" stroke-miterlimit="10" x1="150.515" y1="162.5" x2="153.515" y2="162.5"/>
		<line fill="none" stroke="#4D4D4D" stroke-miterlimit="10" x1="150.515" y1="165.5" x2="154.515" y2="165.5"/>
		<line fill="none" stroke="#4D4D4D" stroke-miterlimit="10" x1="150.515" y1="168.5" x2="154.515" y2="168.5"/>
		<line fill="none" stroke="#4D4D4D" stroke-miterlimit="10" x1="150.515" y1="172.5" x2="154.515" y2="172.5"/>
		<line fill="none" stroke="#4D4D4D" stroke-miterlimit="10" x1="150.515" y1="175.5" x2="154.515" y2="175.5"/>
		<line fill="none" stroke="#4D4D4D" stroke-miterlimit="10" x1="151.515" y1="179.5" x2="155.515" y2="179.5"/>
		<line fill="none" stroke="#4D4D4D" stroke-miterlimit="10" x1="151.515" y1="182.5" x2="155.515" y2="182.5"/>
		<line fill="none" stroke="#4D4D4D" stroke-miterlimit="10" x1="151.515" y1="186.5" x2="155.515" y2="186.5"/>
		<line fill="none" stroke="#4D4D4D" stroke-miterlimit="10" x1="151.515" y1="189.5" x2="155.515" y2="189.5"/>
		<line fill="none" stroke="#4D4D4D" stroke-miterlimit="10" x1="152.515" y1="193.5" x2="156.515" y2="193.5"/>
		<line fill="none" stroke="#4D4D4D" stroke-miterlimit="10" x1="152.515" y1="196.5" x2="156.515" y2="196.5"/>
		<line fill="none" stroke="#4D4D4D" stroke-miterlimit="10" x1="152.515" y1="200.5" x2="156.515" y2="200.5"/>
		<line fill="none" stroke="#4D4D4D" stroke-miterlimit="10" x1="152.515" y1="203.5" x2="156.515" y2="203.5"/>
		<line fill="none" stroke="#4D4D4D" stroke-miterlimit="10" x1="153.515" y1="206.5" x2="157.515" y2="206.5"/>
		<line fill="none" stroke="#4D4D4D" stroke-miterlimit="10" x1="153.515" y1="210.5" x2="157.515" y2="210.5"/>
		<line fill="none" stroke="#4D4D4D" stroke-miterlimit="10" x1="153.515" y1="213.5" x2="157.515" y2="213.5"/>
		<line fill="none" stroke="#4D4D4D" stroke-miterlimit="10" x1="153.515" y1="216.5" x2="157.515" y2="216.5"/>
		<line fill="none" stroke="#4D4D4D" stroke-miterlimit="10" x1="153.515" y1="220.5" x2="157.515" y2="220.5"/>
		<line fill="none" stroke="#4D4D4D" stroke-miterlimit="10" x1="153.515" y1="223.5" x2="157.515" y2="223.5"/>
		<line fill="none" stroke="#4D4D4D" stroke-miterlimit="10" x1="154.515" y1="227.5" x2="158.515" y2="227.5"/>
		<line fill="none" stroke="#4D4D4D" stroke-miterlimit="10" x1="154.515" y1="230.5" x2="158.515" y2="230.5"/>
		<line fill="none" stroke="#4D4D4D" stroke-miterlimit="10" x1="154.515" y1="234.5" x2="158.515" y2="234.5"/>
		<line fill="none" stroke="#4D4D4D" stroke-miterlimit="10" x1="154.515" y1="237.5" x2="158.515" y2="237.5"/>
		<line fill="none" stroke="#4D4D4D" stroke-miterlimit="10" x1="155.515" y1="241.5" x2="159.515" y2="241.5"/>
		<line fill="none" stroke="#4D4D4D" stroke-miterlimit="10" x1="155.515" y1="244.5" x2="159.515" y2="244.5"/>
		<line fill="none" stroke="#4D4D4D" stroke-miterlimit="10" x1="155.515" y1="248.5" x2="159.515" y2="248.5"/>
		<line fill="none" stroke="#4D4D4D" stroke-miterlimit="10" x1="155.515" y1="251.5" x2="159.515" y2="251.5"/>
		<line fill="none" stroke="#4D4D4D" stroke-miterlimit="10" x1="156.515" y1="254.5" x2="159.515" y2="254.5"/>
		<line fill="none" stroke="#4D4D4D" stroke-miterlimit="10" x1="156.515" y1="258.5" x2="159.515" y2="258.5"/>
		<line fill="none" stroke="#4D4D4D" stroke-miterlimit="10" x1="156.515" y1="261.5" x2="160.515" y2="261.5"/>
		<line fill="none" stroke="#4D4D4D" stroke-miterlimit="10" x1="156.515" y1="264.5" x2="160.515" y2="264.5"/>
		<line fill="none" stroke="#4D4D4D" stroke-miterlimit="10" x1="157.515" y1="268.5" x2="160.515" y2="268.5"/>
		<line fill="none" stroke="#4D4D4D" stroke-miterlimit="10" x1="157.515" y1="271.5" x2="160.515" y2="271.5"/>
		<line fill="none" stroke="#4D4D4D" stroke-miterlimit="10" x1="157.515" y1="274.5" x2="161.515" y2="274.5"/>
		<line fill="none" stroke="#4D4D4D" stroke-miterlimit="10" x1="157.515" y1="278.5" x2="161.515" y2="278.5"/>
		<line fill="none" stroke="#4D4D4D" stroke-miterlimit="10" x1="157.515" y1="281.5" x2="161.515" y2="281.5"/>
		<line fill="none" stroke="#4D4D4D" stroke-miterlimit="10" x1="157.515" y1="285.5" x2="161.515" y2="285.5"/>
		<line fill="none" stroke="#4D4D4D" stroke-miterlimit="10" x1="158.515" y1="288.5" x2="162.515" y2="288.5"/>
		<line fill="none" stroke="#4D4D4D" stroke-miterlimit="10" x1="158.515" y1="292.5" x2="162.515" y2="292.5"/>
		<line fill="none" stroke="#4D4D4D" stroke-miterlimit="10" x1="158.515" y1="295.5" x2="162.515" y2="295.5"/>
		<line fill="none" stroke="#4D4D4D" stroke-miterlimit="10" x1="158.515" y1="299.5" x2="162.515" y2="299.5"/>
		<line fill="none" stroke="#4D4D4D" stroke-miterlimit="10" x1="159.515" y1="302.5" x2="162.515" y2="302.5"/>
		<line fill="none" stroke="#4D4D4D" stroke-miterlimit="10" x1="159.515" y1="306.5" x2="162.515" y2="306.5"/>
		<line fill="none" stroke="#4D4D4D" stroke-miterlimit="10" x1="159.515" y1="309.5" x2="163.515" y2="309.5"/>
		<line fill="none" stroke="#4D4D4D" stroke-miterlimit="10" x1="153.579" y1="155.385" x2="163.423" y2="310.11"/>
		<line fill="none" stroke="#4D4D4D" stroke-miterlimit="10" x1="153.151" y1="137.408" x2="153.579" y2="155.385"/>
		<line fill="none" stroke="#4D4D4D" stroke-miterlimit="10" x1="68.515" y1="326.5" x2="196.515" y2="326.5"/>
		<line fill="none" stroke="#4D4D4D" stroke-miterlimit="10" x1="196.379" y1="326.588" x2="172.411" y2="336.005"/>
		<line fill="none" stroke="#4D4D4D" stroke-miterlimit="10" x1="172.515" y1="336.5" x2="90.515" y2="336.5"/>
		<line fill="none" stroke="#4D4D4D" stroke-miterlimit="10" x1="90.661" y1="336.005" x2="68.405" y2="326.588"/>
		<rect x="68.015" y="308.5" fill="#B3B3B3" stroke="#4D4D4D" stroke-miterlimit="10" width="27" height="18"/>
		<rect x="169.015" y="311.5" fill="#B3B3B3" stroke="#4D4D4D" stroke-miterlimit="10" width="27" height="15"/>
		<rect x="72.015" y="311.5" fill="#E6E6E6" stroke="#4D4D4D" stroke-miterlimit="10" width="2" height="7"/>
		<rect x="77.015" y="311.5" fill="#E6E6E6" stroke="#4D4D4D" stroke-miterlimit="10" width="2" height="7"/>
		<rect x="124.015" y="310.5" fill="#4D4D4D" stroke="#4D4D4D" stroke-miterlimit="10" width="16" height="16"/>
		<rect x="95.015" y="310.5" fill="#4D4D4D" stroke="#4D4D4D" stroke-miterlimit="10" width="13" height="16"/>
		<rect x="153.015" y="310.5" fill="#4D4D4D" stroke="#4D4D4D" stroke-miterlimit="10" width="11" height="16"/>
		<rect x="90.015" y="326.5" fill="#4D4D4D" stroke="#4D4D4D" stroke-miterlimit="10" width="82" height="10"/>
		<rect x="107.015" y="318.5" fill="#4D4D4D" stroke="#4D4D4D" stroke-miterlimit="10" width="19" height="8"/>
		<rect x="139.015" y="320.5" fill="#4D4D4D" stroke="#4D4D4D" stroke-miterlimit="10" width="14" height="8"/>
		<rect x="138.015" y="314.5" fill="#4D4D4D" stroke="#4D4D4D" stroke-miterlimit="10" width="16" height="2"/>
		<rect x="112.015" y="310.5" fill="#4D4D4D" stroke="#4D4D4D" stroke-miterlimit="10" width="2" height="8"/>
		<rect x="119.015" y="310.5" fill="#4D4D4D" stroke="#4D4D4D" stroke-miterlimit="10" width="1" height="9"/>
		<rect x="143.015" y="316.5" fill="#4D4D4D" stroke="#4D4D4D" stroke-miterlimit="10" width="1" height="7"/>
		<rect x="146.015" y="316.5" fill="#4D4D4D" stroke="#4D4D4D" stroke-miterlimit="10" width="1" height="7"/>
		<rect x="149.015" y="316.5" fill="#4D4D4D" stroke="#4D4D4D" stroke-miterlimit="10" width="1" height="7"/>
		<line fill="none" stroke="#4D4D4D" stroke-miterlimit="10" x1="68.191" y1="326.588" x2="0.351" y2="393.572"/>
		<line fill="none" stroke="#4D4D4D" stroke-miterlimit="10" x1="68.191" y1="322.309" x2="0.351" y2="389.292"/>
		<line fill="none" stroke="#4D4D4D" stroke-miterlimit="10" x1="68.191" y1="318.028" x2="0.351" y2="385.012"/>
		<line fill="none" stroke="#4D4D4D" stroke-miterlimit="10" x1="0.015" y1="385" x2="0.015" y2="393"/>
		<line fill="none" stroke="#4D4D4D" stroke-miterlimit="10" x1="8.015" y1="378" x2="8.015" y2="386"/>
		<line fill="none" stroke="#4D4D4D" stroke-miterlimit="10" x1="15.015" y1="370" x2="15.015" y2="379"/>
		<line fill="none" stroke="#4D4D4D" stroke-miterlimit="10" x1="23.015" y1="362" x2="23.015" y2="371"/>
		<line fill="none" stroke="#4D4D4D" stroke-miterlimit="10" x1="31.015" y1="354" x2="31.015" y2="363"/>
		<line fill="none" stroke="#4D4D4D" stroke-miterlimit="10" x1="39.015" y1="348" x2="39.015" y2="356"/>
		<line fill="none" stroke="#4D4D4D" stroke-miterlimit="10" x1="47.015" y1="340" x2="47.015" y2="348"/>
		<line fill="none" stroke="#4D4D4D" stroke-miterlimit="10" x1="54.015" y1="332" x2="54.015" y2="341"/>
		<line fill="none" stroke="#4D4D4D" stroke-miterlimit="10" x1="62.015" y1="324" x2="62.015" y2="333"/>
		<rect x="164.015" y="320.5" fill="#4D4D4D" stroke="#4D4D4D" stroke-miterlimit="10" width="5" height="6"/>
		<line fill="none" stroke="#4D4D4D" stroke-miterlimit="10" x1="185.479" y1="330.871" x2="223.772" y2="368.177"/>
		<line fill="none" stroke="#4D4D4D" stroke-miterlimit="10" x1="187.358" y1="330.133" x2="223.772" y2="365.609"/>
		<line fill="none" stroke="#4D4D4D" stroke-miterlimit="10" x1="191.166" y1="328.822" x2="223.772" y2="360.473"/>
		<line fill="none" stroke="#4D4D4D" stroke-miterlimit="10" x1="223.015" y1="360" x2="223.015" y2="368"/>
		<line fill="none" stroke="#4D4D4D" stroke-miterlimit="10" x1="220.015" y1="357" x2="220.015" y2="364"/>
		<line fill="none" stroke="#4D4D4D" stroke-miterlimit="10" x1="216.015" y1="353" x2="216.015" y2="361"/>
		<line fill="none" stroke="#4D4D4D" stroke-miterlimit="10" x1="212.015" y1="349" x2="212.015" y2="357"/>
		<line fill="none" stroke="#4D4D4D" stroke-miterlimit="10" x1="208.015" y1="345" x2="208.015" y2="353"/>
		<line fill="none" stroke="#4D4D4D" stroke-miterlimit="10" x1="204.015" y1="341" x2="204.015" y2="349"/>
		<line fill="none" stroke="#4D4D4D" stroke-miterlimit="10" x1="201.015" y1="338" x2="201.015" y2="345"/>
		<line fill="none" stroke="#4D4D4D" stroke-miterlimit="10" x1="196.015" y1="334" x2="196.015" y2="342"/>
		<line fill="none" stroke="#4D4D4D" stroke-miterlimit="10" x1="193.015" y1="330" x2="193.015" y2="338"/>
		<line fill="none" stroke="#4D4D4D" stroke-miterlimit="10" x1="189.015" y1="330" x2="189.015" y2="334"/>
		<line fill="none" stroke="#4D4D4D" stroke-miterlimit="10" x1="223.515" y1="367.5" x2="228.515" y2="367.5"/>
		<line fill="none" stroke="#4D4D4D" stroke-miterlimit="10" x1="228.015" y1="368" x2="228.015" y2="360"/>
		<line fill="none" stroke="#4D4D4D" stroke-miterlimit="10" x1="227.515" y1="360.5" x2="223.515" y2="360.5"/>
		<line fill="none" stroke="#4D4D4D" stroke-miterlimit="10" x1="223.515" y1="365.5" x2="227.515" y2="365.5"/>
		<rect x="223.015" y="367.5" fill="#4D4D4D" stroke="#4D4D4D" stroke-miterlimit="10" width="3" height="7"/>
		<rect x="219.015" y="363.5" fill="#4D4D4D" stroke="#4D4D4D" stroke-miterlimit="10" width="1" height="11"/>
		<line fill="none" stroke="#4D4D4D" stroke-miterlimit="10" x1="105.015" y1="336" x2="105.015" y2="393"/>
		<line fill="none" stroke="#4D4D4D" stroke-miterlimit="10" x1="159.015" y1="336" x2="159.015" y2="393"/>
		<line fill="none" stroke="#4D4D4D" stroke-miterlimit="10" x1="169.015" y1="336" x2="169.015" y2="393"/>
		<line fill="none" stroke="#4D4D4D" stroke-miterlimit="10" x1="159.515" y1="338.5" x2="169.515" y2="338.5"/>
		<line fill="none" stroke="#4D4D4D" stroke-miterlimit="10" x1="159.515" y1="348.5" x2="169.515" y2="348.5"/>
		<line fill="none" stroke="#4D4D4D" stroke-miterlimit="10" x1="159.515" y1="358.5" x2="169.515" y2="358.5"/>
		<line fill="none" stroke="#4D4D4D" stroke-miterlimit="10" x1="159.515" y1="367.5" x2="169.515" y2="367.5"/>
		<line fill="none" stroke="#4D4D4D" stroke-miterlimit="10" x1="159.515" y1="377.5" x2="169.515" y2="377.5"/>
		<line fill="none" stroke="#4D4D4D" stroke-miterlimit="10" x1="159.515" y1="387.5" x2="169.515" y2="387.5"/>
		<line fill="none" stroke="#4D4D4D" stroke-miterlimit="10" x1="168.987" y1="338.572" x2="159.143" y2="348.417"/>
		<line fill="none" stroke="#4D4D4D" stroke-miterlimit="10" x1="159.143" y1="348.417" x2="168.987" y2="358.262"/>
		<line fill="none" stroke="#4D4D4D" stroke-miterlimit="10" x1="168.987" y1="358.262" x2="159.143" y2="368.105"/>
		<line fill="none" stroke="#4D4D4D" stroke-miterlimit="10" x1="159.143" y1="368.105" x2="168.987" y2="377.949"/>
		<line fill="none" stroke="#4D4D4D" stroke-miterlimit="10" x1="168.987" y1="377.949" x2="159.143" y2="387.794"/>
		<line fill="none" stroke="#4D4D4D" stroke-miterlimit="10" x1="159.143" y1="387.794" x2="169.201" y2="393.572"/>
		<line fill="none" stroke="#4D4D4D" stroke-miterlimit="10" x1="164.015" y1="336" x2="164.015" y2="393"/>
		<line fill="none" stroke="#4D4D4D" stroke-miterlimit="10" x1="90.015" y1="336" x2="90.015" y2="393"/>
		<line fill="none" stroke="#4D4D4D" stroke-miterlimit="10" x1="100.015" y1="336" x2="100.015" y2="393"/>
		<line fill="none" stroke="#4D4D4D" stroke-miterlimit="10" x1="90.515" y1="338.5" x2="100.515" y2="338.5"/>
		<line fill="none" stroke="#4D4D4D" stroke-miterlimit="10" x1="90.515" y1="348.5" x2="100.515" y2="348.5"/>
		<line fill="none" stroke="#4D4D4D" stroke-miterlimit="10" x1="90.515" y1="358.5" x2="100.515" y2="358.5"/>
		<line fill="none" stroke="#4D4D4D" stroke-miterlimit="10" x1="90.515" y1="367.5" x2="100.515" y2="367.5"/>
		<line fill="none" stroke="#4D4D4D" stroke-miterlimit="10" x1="90.515" y1="377.5" x2="100.515" y2="377.5"/>
		<line fill="none" stroke="#4D4D4D" stroke-miterlimit="10" x1="90.515" y1="387.5" x2="100.515" y2="387.5"/>
		<line fill="none" stroke="#4D4D4D" stroke-miterlimit="10" x1="100.077" y1="338.572" x2="90.233" y2="348.417"/>
		<line fill="none" stroke="#4D4D4D" stroke-miterlimit="10" x1="90.233" y1="348.417" x2="100.077" y2="358.262"/>
		<line fill="none" stroke="#4D4D4D" stroke-miterlimit="10" x1="100.077" y1="358.262" x2="90.233" y2="368.105"/>
		<line fill="none" stroke="#4D4D4D" stroke-miterlimit="10" x1="90.233" y1="368.105" x2="100.077" y2="377.949"/>
		<line fill="none" stroke="#4D4D4D" stroke-miterlimit="10" x1="100.077" y1="377.949" x2="90.233" y2="387.794"/>
		<line fill="none" stroke="#4D4D4D" stroke-miterlimit="10" x1="90.233" y1="387.794" x2="100.292" y2="393.572"/>
		<line fill="none" stroke="#4D4D4D" stroke-miterlimit="10" x1="95.015" y1="336" x2="95.015" y2="393"/>
		<rect x="127.015" y="336.5" fill="#4D4D4D" stroke="#4D4D4D" stroke-miterlimit="10" width="3" height="57"/>
		<path fill="#4D4D4D" stroke="#4D4D4D" stroke-miterlimit="10" d="M133.034,374c0,1.654-1.309,2.5-2.924,2.5h-2.925
			c-1.616,0-2.924-0.846-2.924-2.5l0,0c0-1.654,1.309-2.5,2.924-2.5h2.925C131.725,371.5,133.034,372.346,133.034,374L133.034,374z"
			/>
		<path fill="#4D4D4D" stroke="#4D4D4D" stroke-miterlimit="10" d="M136.015,378c0,0.276-0.224,0.5-0.5,0.5h-12
			c-0.276,0-0.5-0.224-0.5-0.5l0,0c0-0.276,0.224-0.5,0.5-0.5h12C135.791,377.5,136.015,377.724,136.015,378L136.015,378z"/>
		<path fill="#4D4D4D" stroke="#4D4D4D" stroke-miterlimit="10" d="M135.015,382.323c0,0.649-0.527,1.177-1.177,1.177h-11.646
			c-0.65,0-1.177-0.527-1.177-1.177v-0.646c0-0.649,0.527-1.177,1.177-1.177h11.646c0.65,0,1.177,0.527,1.177,1.177V382.323z"/>
		<path fill="#4D4D4D" stroke="#4D4D4D" stroke-miterlimit="10" d="M135.015,385.323c0,0.649-0.527,1.177-1.177,1.177h-11.646
			c-0.65,0-1.177-0.527-1.177-1.177v-0.646c0-0.649,0.527-1.177,1.177-1.177h11.646c0.65,0,1.177,0.527,1.177,1.177V385.323z"/>
		<line fill="none" stroke="#4D4D4D" stroke-miterlimit="10" x1="120.515" y1="381.5" x2="137.515" y2="381.5"/>
		<line fill="none" stroke="#4D4D4D" stroke-miterlimit="10" x1="120.515" y1="384.5" x2="137.515" y2="384.5"/>
		<rect x="126.015" y="385.5" fill="#4D4D4D" stroke="#4D4D4D" stroke-miterlimit="10" width="5" height="5"/>
		<path fill="#4D4D4D" stroke="#4D4D4D" stroke-miterlimit="10" d="M132.015,391.161c0,0.187-0.151,0.339-0.338,0.339h-5.323
			c-0.187,0-0.338-0.152-0.338-0.339v-0.322c0-0.187,0.151-0.339,0.338-0.339h5.323c0.187,0,0.338,0.152,0.338,0.339V391.161z"/>
		<line fill="none" stroke="#4D4D4D" stroke-miterlimit="10" x1="155.015" y1="336" x2="155.015" y2="393"/>
		
			<line fill="none" stroke="#4D4D4D" stroke-width="3" stroke-miterlimit="10" x1="100.292" y1="336.219" x2="159.357" y2="393.572"/>
		<rect x="171.015" y="374.5" fill="#808080" stroke="#808080" stroke-miterlimit="10" width="100" height="19"/>
	</g>
</g>
<g id="Layer_11">
</g>
<g id="Layer_9">
</g>
<g id="Layer_10">
</g>
<g id="Layer_13">
</g>
<g id="Layer_6">
</g>
<g id="Layer_4">
</g>
<g id="Layer_12">
</g>
<g id="Layer_15">
</g>
<g id="Layer_8">
</g>
</svg>
