<?xml version="1.0" encoding="utf-8"?>
<!-- Generator: Adobe Illustrator 17.0.0, SVG Export Plug-In . SVG Version: 6.00 Build 0)  -->
<!DOCTYPE svg PUBLIC "-//W3C//DTD SVG 1.1//EN" "http://www.w3.org/Graphics/SVG/1.1/DTD/svg11.dtd">
<svg version="1.1" xmlns="http://www.w3.org/2000/svg" xmlns:xlink="http://www.w3.org/1999/xlink" x="0px" y="0px" width="254px"
	 height="400px" viewBox="0 0 254 400" enable-background="new 0 0 254 400" xml:space="preserve">
<g id="Layer_1">
</g>
<g id="Layer_3">
</g>
<g id="Layer_2">
</g>
<g id="Layer_7">
</g>
<g id="Layer_14">
</g>
<g id="Layer_5">
	<line opacity="0.4" fill="none" stroke="#666666" stroke-miterlimit="10" x1="100" y1="274.5" x2="144" y2="274.5"/>
	<line opacity="0.4" fill="none" stroke="#666666" stroke-miterlimit="10" x1="99" y1="287.5" x2="145" y2="287.5"/>
	<line opacity="0.4" fill="none" stroke="#666666" stroke-miterlimit="10" x1="99" y1="294.5" x2="145" y2="294.5"/>
	<line opacity="0.4" fill="none" stroke="#666666" stroke-miterlimit="10" x1="111.5" y1="275" x2="111.5" y2="295"/>
	<line opacity="0.4" fill="none" stroke="#666666" stroke-miterlimit="10" x1="132.5" y1="275" x2="132.5" y2="295"/>
	<line opacity="0.4" fill="none" stroke="#666666" stroke-miterlimit="10" x1="99.129" y1="287.007" x2="112.288" y2="274.992"/>
	<line opacity="0.4" fill="none" stroke="#666666" stroke-miterlimit="10" x1="112.288" y1="274.992" x2="132.503" y2="287.007"/>
	<line opacity="0.4" fill="none" stroke="#666666" stroke-miterlimit="10" x1="132.503" y1="287.007" x2="143.564" y2="274.802"/>
	<line opacity="0.4" fill="none" stroke="#666666" stroke-miterlimit="10" x1="100.273" y1="274.802" x2="112.288" y2="287.007"/>
	<line opacity="0.4" fill="none" stroke="#666666" stroke-miterlimit="10" x1="112.288" y1="287.007" x2="132.503" y2="274.992"/>
	<line opacity="0.4" fill="none" stroke="#666666" stroke-miterlimit="10" x1="132.503" y1="274.992" x2="144.899" y2="287.007"/>
	<line opacity="0.4" fill="none" stroke="#666666" stroke-miterlimit="10" x1="99" y1="289.5" x2="145" y2="289.5"/>
	
		<ellipse opacity="0.4" fill="#4D4D4D" stroke="#4D4D4D" stroke-miterlimit="10" cx="167.784" cy="325.173" rx="12.015" ry="2.264"/>
	
		<rect x="122" y="149" opacity="0.4" fill="#666666" stroke="#666666" stroke-width="2" stroke-miterlimit="10" width="2" height="175"/>
	
		<rect x="120.5" y="117.5" opacity="0.4" fill="#666666" stroke="#666666" stroke-width="3" stroke-miterlimit="10" width="4" height="15"/>
	
		<line opacity="0.4" fill="none" stroke="#4D4D4D" stroke-width="3" stroke-miterlimit="10" x1="115.911" y1="68.263" x2="96.459" y2="324.196"/>
	
		<line opacity="0.4" fill="none" stroke="#4D4D4D" stroke-width="3" stroke-miterlimit="10" x1="130.405" y1="68.263" x2="147.569" y2="324.196"/>
	
		<line opacity="0.4" fill="none" stroke="#4D4D4D" stroke-width="3" stroke-miterlimit="10" x1="116" y1="68.5" x2="130" y2="68.5"/>
	
		<line opacity="0.4" fill="none" stroke="#4D4D4D" stroke-width="3" stroke-miterlimit="10" x1="96" y1="324.5" x2="147" y2="324.5"/>
	
		<line opacity="0.4" fill="none" stroke="#4D4D4D" stroke-width="3" stroke-miterlimit="10" x1="113" y1="102.5" x2="133" y2="102.5"/>
	
		<line opacity="0.4" fill="none" stroke="#4D4D4D" stroke-width="3" stroke-miterlimit="10" x1="111" y1="130.5" x2="135" y2="130.5"/>
	
		<line opacity="0.4" fill="none" stroke="#4D4D4D" stroke-width="3" stroke-miterlimit="10" x1="109" y1="158.5" x2="136" y2="158.5"/>
	
		<line opacity="0.4" fill="none" stroke="#4D4D4D" stroke-width="3" stroke-miterlimit="10" x1="107" y1="186.5" x2="138" y2="186.5"/>
	
		<line opacity="0.4" fill="none" stroke="#4D4D4D" stroke-width="3" stroke-miterlimit="10" x1="105" y1="214.5" x2="140" y2="214.5"/>
	
		<line opacity="0.4" fill="none" stroke="#4D4D4D" stroke-width="3" stroke-miterlimit="10" x1="103" y1="241.5" x2="142" y2="241.5"/>
	
		<line opacity="0.4" fill="none" stroke="#4D4D4D" stroke-width="3" stroke-miterlimit="10" x1="101" y1="270.5" x2="144" y2="270.5"/>
	
		<line opacity="0.4" fill="none" stroke="#4D4D4D" stroke-width="3" stroke-miterlimit="10" x1="98" y1="297.5" x2="145" y2="297.5"/>
	
		<line opacity="0.4" fill="none" stroke="#4D4D4D" stroke-width="3" stroke-miterlimit="10" x1="97" y1="311.5" x2="147" y2="311.5"/>
	
		<line opacity="0.4" fill="none" stroke="#4D4D4D" stroke-width="3" stroke-miterlimit="10" x1="130.405" y1="68.454" x2="113.241" y2="102.782"/>
	
		<line opacity="0.4" fill="none" stroke="#4D4D4D" stroke-width="3" stroke-miterlimit="10" x1="115.911" y1="68.454" x2="132.693" y2="102.782"/>
	
		<line opacity="0.4" fill="none" stroke="#4D4D4D" stroke-width="3" stroke-miterlimit="10" x1="113.241" y1="102.782" x2="134.587" y2="130.625"/>
	
		<line opacity="0.4" fill="none" stroke="#4D4D4D" stroke-width="3" stroke-miterlimit="10" x1="134.587" y1="130.625" x2="109.046" y2="158.469"/>
	
		<line opacity="0.4" fill="none" stroke="#4D4D4D" stroke-width="3" stroke-miterlimit="10" x1="109.046" y1="158.469" x2="138.322" y2="186.313"/>
	
		<line opacity="0.4" fill="none" stroke="#4D4D4D" stroke-width="3" stroke-miterlimit="10" x1="138.322" y1="186.313" x2="104.85" y2="214.156"/>
	
		<line opacity="0.4" fill="none" stroke="#4D4D4D" stroke-width="3" stroke-miterlimit="10" x1="104.85" y1="214.156" x2="142.056" y2="241.999"/>
	
		<line opacity="0.4" fill="none" stroke="#4D4D4D" stroke-width="3" stroke-miterlimit="10" x1="142.056" y1="241.999" x2="100.654" y2="269.844"/>
	
		<line opacity="0.4" fill="none" stroke="#4D4D4D" stroke-width="3" stroke-miterlimit="10" x1="100.654" y1="269.844" x2="145.661" y2="297.687"/>
	
		<line opacity="0.4" fill="none" stroke="#4D4D4D" stroke-width="3" stroke-miterlimit="10" x1="115.5" y1="68" x2="115.5" y2="50"/>
	
		<line opacity="0.4" fill="none" stroke="#4D4D4D" stroke-width="3" stroke-miterlimit="10" x1="129.5" y1="50" x2="129.5" y2="68"/>
	<line opacity="0.4" fill="none" stroke="#4D4D4D" stroke-miterlimit="10" x1="115" y1="56.5" x2="130" y2="56.5"/>
	<line opacity="0.4" fill="none" stroke="#4D4D4D" stroke-miterlimit="10" x1="115" y1="61.5" x2="130" y2="61.5"/>
	<line opacity="0.4" fill="none" stroke="#4D4D4D" stroke-miterlimit="10" x1="115" y1="60.5" x2="130" y2="60.5"/>
	<line opacity="0.4" fill="none" stroke="#4D4D4D" stroke-miterlimit="10" x1="123.5" y1="51" x2="123.5" y2="56"/>
	<polygon opacity="0.4" fill="none" stroke="#4D4D4D" stroke-miterlimit="10" points="115.53,50.5 130.405,50.5 122.967,56.413 	"/>
	<rect x="115.5" y="62.5" opacity="0.4" fill="#4D4D4D" stroke="#4D4D4D" stroke-miterlimit="10" width="14" height="6"/>
	
		<rect x="107.5" y="170.5" opacity="0.4" fill="#4D4D4D" stroke="#4D4D4D" stroke-width="3" stroke-miterlimit="10" width="30" height="16"/>
	
		<rect x="97.5" y="170.5" opacity="0.4" fill="none" stroke="#4D4D4D" stroke-width="3" stroke-miterlimit="10" width="9" height="15"/>
	
		<line opacity="0.4" fill="none" stroke="#4D4D4D" stroke-width="3" stroke-miterlimit="10" x1="99.5" y1="171" x2="99.5" y2="186"/>
	
		<line opacity="0.4" fill="none" stroke="#4D4D4D" stroke-width="3" stroke-miterlimit="10" x1="103.5" y1="171" x2="103.5" y2="186"/>
	<path opacity="0.4" fill="#4D4D4D" stroke="#4D4D4D" stroke-width="3" stroke-miterlimit="10" d="M123.005,105.358
		c0,0-4.45,0.226-4.5,4.927c0.235,1.905,0.553,1.078,1.677,6.228c1.006,3.719,4.693,3.624,5.647,0
		c0.635-3.719,1.428-4.224,1.556-6.034C127.577,105.261,123.005,105.358,123.005,105.358z"/>
	<path opacity="0.4" fill="#4D4D4D" stroke="#4D4D4D" stroke-width="3" stroke-miterlimit="10" d="M126.5,146.068
		c0,1.896-1.537,3.432-3.432,3.432h-0.135c-1.896,0-3.432-1.537-3.432-3.432v-11.135c0-1.896,1.537-3.432,3.432-3.432h0.135
		c1.896,0,3.432,1.537,3.432,3.432V146.068z"/>
	
		<circle opacity="0.4" fill="#999999" stroke="#999999" stroke-width="2" stroke-miterlimit="10" cx="123.061" cy="116.191" r="0.474"/>
	<circle opacity="0.4" fill="#E6E6E6" stroke="#E6E6E6" stroke-miterlimit="10" cx="123.061" cy="116.191" r="0.31"/>
	<path opacity="0.4" fill="#4D4D4D" stroke="#4D4D4D" stroke-width="2" stroke-miterlimit="10" d="M125,128.554
		c0,0.246-0.199,0.446-0.446,0.446h-4.109c-0.246,0-0.446-0.199-0.446-0.446v-0.109c0-0.246,0.199-0.446,0.446-0.446h4.109
		c0.246,0,0.446,0.199,0.446,0.446V128.554z"/>
	
		<line opacity="0.4" fill="none" stroke="#4D4D4D" stroke-width="3" stroke-miterlimit="10" x1="123.5" y1="106" x2="123.5" y2="69"/>
	<rect x="121.74" y="48.288" opacity="0.4" fill="#4D4D4D" stroke="#4D4D4D" stroke-miterlimit="10" width="1.782" height="1.782"/>
	<line opacity="0.4" fill="none" stroke="#4D4D4D" stroke-miterlimit="10" x1="134.587" y1="70.552" x2="141.466" y2="170.452"/>
	<line opacity="0.4" fill="none" stroke="#4D4D4D" stroke-miterlimit="10" x1="135" y1="70.5" x2="130" y2="70.5"/>
	<line opacity="0.4" fill="none" stroke="#4D4D4D" stroke-miterlimit="10" x1="136" y1="74.5" x2="131" y2="74.5"/>
	<line opacity="0.4" fill="none" stroke="#4D4D4D" stroke-miterlimit="10" x1="136" y1="77.5" x2="131" y2="77.5"/>
	<line opacity="0.4" fill="none" stroke="#4D4D4D" stroke-miterlimit="10" x1="136" y1="81.5" x2="131" y2="81.5"/>
	<line opacity="0.4" fill="none" stroke="#4D4D4D" stroke-miterlimit="10" x1="136" y1="84.5" x2="131" y2="84.5"/>
	<line opacity="0.4" fill="none" stroke="#4D4D4D" stroke-miterlimit="10" x1="136" y1="87.5" x2="131" y2="87.5"/>
	<line opacity="0.4" fill="none" stroke="#4D4D4D" stroke-miterlimit="10" x1="136" y1="91.5" x2="132" y2="91.5"/>
	<line opacity="0.4" fill="none" stroke="#4D4D4D" stroke-miterlimit="10" x1="136" y1="94.5" x2="132" y2="94.5"/>
	<line opacity="0.4" fill="none" stroke="#4D4D4D" stroke-miterlimit="10" x1="136" y1="98.5" x2="132" y2="98.5"/>
	<line opacity="0.4" fill="none" stroke="#4D4D4D" stroke-miterlimit="10" x1="137" y1="101.5" x2="133" y2="101.5"/>
	<line opacity="0.4" fill="none" stroke="#4D4D4D" stroke-miterlimit="10" x1="137" y1="105.5" x2="133" y2="105.5"/>
	<line opacity="0.4" fill="none" stroke="#4D4D4D" stroke-miterlimit="10" x1="137" y1="108.5" x2="133" y2="108.5"/>
	<line opacity="0.4" fill="none" stroke="#4D4D4D" stroke-miterlimit="10" x1="137" y1="111.5" x2="133" y2="111.5"/>
	<line opacity="0.4" fill="none" stroke="#4D4D4D" stroke-miterlimit="10" x1="137" y1="116.5" x2="133" y2="116.5"/>
	<line opacity="0.4" fill="none" stroke="#4D4D4D" stroke-miterlimit="10" x1="138" y1="118.5" x2="134" y2="118.5"/>
	<line opacity="0.4" fill="none" stroke="#4D4D4D" stroke-miterlimit="10" x1="138" y1="122.5" x2="134" y2="122.5"/>
	<line opacity="0.4" fill="none" stroke="#4D4D4D" stroke-miterlimit="10" x1="138" y1="125.5" x2="134" y2="125.5"/>
	<line opacity="0.4" fill="none" stroke="#4D4D4D" stroke-miterlimit="10" x1="139" y1="129.5" x2="135" y2="129.5"/>
	<line opacity="0.4" fill="none" stroke="#4D4D4D" stroke-miterlimit="10" x1="139" y1="132.5" x2="135" y2="132.5"/>
	<line opacity="0.4" fill="none" stroke="#4D4D4D" stroke-miterlimit="10" x1="139" y1="135.5" x2="136" y2="135.5"/>
	<line opacity="0.4" fill="none" stroke="#4D4D4D" stroke-miterlimit="10" x1="139" y1="139.5" x2="136" y2="139.5"/>
	<line opacity="0.4" fill="none" stroke="#4D4D4D" stroke-miterlimit="10" x1="139" y1="142.5" x2="136" y2="142.5"/>
	<line opacity="0.4" fill="none" stroke="#4D4D4D" stroke-miterlimit="10" x1="140" y1="146.5" x2="136" y2="146.5"/>
	<line opacity="0.4" fill="none" stroke="#4D4D4D" stroke-miterlimit="10" x1="140" y1="149.5" x2="136" y2="149.5"/>
	<line opacity="0.4" fill="none" stroke="#4D4D4D" stroke-miterlimit="10" x1="140" y1="153.5" x2="136" y2="153.5"/>
	<line opacity="0.4" fill="none" stroke="#4D4D4D" stroke-miterlimit="10" x1="140" y1="156.5" x2="136" y2="156.5"/>
	<line opacity="0.4" fill="none" stroke="#4D4D4D" stroke-miterlimit="10" x1="141" y1="159.5" x2="136" y2="159.5"/>
	<line opacity="0.4" fill="none" stroke="#4D4D4D" stroke-miterlimit="10" x1="141" y1="163.5" x2="137" y2="163.5"/>
	<line opacity="0.4" fill="none" stroke="#4D4D4D" stroke-miterlimit="10" x1="141" y1="166.5" x2="137" y2="166.5"/>
	<line opacity="0.4" fill="none" stroke="#4D4D4D" stroke-miterlimit="10" x1="142" y1="170.5" x2="137" y2="170.5"/>
	<line opacity="0.4" fill="none" stroke="#4D4D4D" stroke-miterlimit="10" x1="142" y1="173.5" x2="137" y2="173.5"/>
	<line opacity="0.4" fill="none" stroke="#4D4D4D" stroke-miterlimit="10" x1="142" y1="176.5" x2="137" y2="176.5"/>
	<line opacity="0.4" fill="none" stroke="#4D4D4D" stroke-miterlimit="10" x1="142" y1="180.5" x2="137" y2="180.5"/>
	<line opacity="0.4" fill="none" stroke="#4D4D4D" stroke-miterlimit="10" x1="142" y1="182.5" x2="137" y2="182.5"/>
	<line opacity="0.4" fill="none" stroke="#4D4D4D" stroke-miterlimit="10" x1="138" y1="186.5" x2="142" y2="186.5"/>
	<line opacity="0.4" fill="none" stroke="#4D4D4D" stroke-miterlimit="10" x1="139" y1="189.5" x2="142" y2="189.5"/>
	<line opacity="0.4" fill="none" stroke="#4D4D4D" stroke-miterlimit="10" x1="139" y1="192.5" x2="142" y2="192.5"/>
	<line opacity="0.4" fill="none" stroke="#4D4D4D" stroke-miterlimit="10" x1="139" y1="195.5" x2="143" y2="195.5"/>
	<line opacity="0.4" fill="none" stroke="#4D4D4D" stroke-miterlimit="10" x1="139" y1="198.5" x2="143" y2="198.5"/>
	<line opacity="0.4" fill="none" stroke="#4D4D4D" stroke-miterlimit="10" x1="139" y1="201.5" x2="143" y2="201.5"/>
	<line opacity="0.4" fill="none" stroke="#4D4D4D" stroke-miterlimit="10" x1="139" y1="204.5" x2="143" y2="204.5"/>
	<line opacity="0.4" fill="none" stroke="#4D4D4D" stroke-miterlimit="10" x1="140" y1="207.5" x2="144" y2="207.5"/>
	<line opacity="0.4" fill="none" stroke="#4D4D4D" stroke-miterlimit="10" x1="140" y1="210.5" x2="144" y2="210.5"/>
	<line opacity="0.4" fill="none" stroke="#4D4D4D" stroke-miterlimit="10" x1="140" y1="214.5" x2="144" y2="214.5"/>
	<line opacity="0.4" fill="none" stroke="#4D4D4D" stroke-miterlimit="10" x1="140" y1="216.5" x2="144" y2="216.5"/>
	<line opacity="0.4" fill="none" stroke="#4D4D4D" stroke-miterlimit="10" x1="141" y1="220.5" x2="144" y2="220.5"/>
	<line opacity="0.4" fill="none" stroke="#4D4D4D" stroke-miterlimit="10" x1="141" y1="222.5" x2="144" y2="222.5"/>
	<line opacity="0.4" fill="none" stroke="#4D4D4D" stroke-miterlimit="10" x1="141" y1="226.5" x2="144" y2="226.5"/>
	<line opacity="0.4" fill="none" stroke="#4D4D4D" stroke-miterlimit="10" x1="141" y1="229.5" x2="144" y2="229.5"/>
	<line opacity="0.4" fill="none" stroke="#4D4D4D" stroke-miterlimit="10" x1="142" y1="231.5" x2="145" y2="231.5"/>
	<line opacity="0.4" fill="none" stroke="#4D4D4D" stroke-miterlimit="10" x1="142" y1="235.5" x2="145" y2="235.5"/>
	<line opacity="0.4" fill="none" stroke="#4D4D4D" stroke-miterlimit="10" x1="142" y1="238.5" x2="145" y2="238.5"/>
	<line opacity="0.4" fill="none" stroke="#4D4D4D" stroke-miterlimit="10" x1="142" y1="240.5" x2="145" y2="240.5"/>
	<line opacity="0.4" fill="none" stroke="#4D4D4D" stroke-miterlimit="10" x1="142" y1="244.5" x2="145" y2="244.5"/>
	<line opacity="0.4" fill="none" stroke="#4D4D4D" stroke-miterlimit="10" x1="142" y1="247.5" x2="145" y2="247.5"/>
	<line opacity="0.4" fill="none" stroke="#4D4D4D" stroke-miterlimit="10" x1="143" y1="250.5" x2="146" y2="250.5"/>
	<line opacity="0.4" fill="none" stroke="#4D4D4D" stroke-miterlimit="10" x1="143" y1="253.5" x2="146" y2="253.5"/>
	<line opacity="0.4" fill="none" stroke="#4D4D4D" stroke-miterlimit="10" x1="143" y1="256.5" x2="146" y2="256.5"/>
	<line opacity="0.4" fill="none" stroke="#4D4D4D" stroke-miterlimit="10" x1="143" y1="259.5" x2="146" y2="259.5"/>
	<line opacity="0.4" fill="none" stroke="#4D4D4D" stroke-miterlimit="10" x1="144" y1="263.5" x2="147" y2="263.5"/>
	<line opacity="0.4" fill="none" stroke="#4D4D4D" stroke-miterlimit="10" x1="144" y1="265.5" x2="147" y2="265.5"/>
	<line opacity="0.4" fill="none" stroke="#4D4D4D" stroke-miterlimit="10" x1="144" y1="269.5" x2="147" y2="269.5"/>
	<line opacity="0.4" fill="none" stroke="#4D4D4D" stroke-miterlimit="10" x1="144" y1="271.5" x2="147" y2="271.5"/>
	<line opacity="0.4" fill="none" stroke="#4D4D4D" stroke-miterlimit="10" x1="144" y1="274.5" x2="147" y2="274.5"/>
	<line opacity="0.4" fill="none" stroke="#4D4D4D" stroke-miterlimit="10" x1="144" y1="278.5" x2="147" y2="278.5"/>
	<line opacity="0.4" fill="none" stroke="#4D4D4D" stroke-miterlimit="10" x1="144" y1="280.5" x2="148" y2="280.5"/>
	<line opacity="0.4" fill="none" stroke="#4D4D4D" stroke-miterlimit="10" x1="144" y1="283.5" x2="148" y2="283.5"/>
	<line opacity="0.4" fill="none" stroke="#4D4D4D" stroke-miterlimit="10" x1="145" y1="287.5" x2="148" y2="287.5"/>
	<line opacity="0.4" fill="none" stroke="#4D4D4D" stroke-miterlimit="10" x1="145" y1="289.5" x2="148" y2="289.5"/>
	<line opacity="0.4" fill="none" stroke="#4D4D4D" stroke-miterlimit="10" x1="145" y1="292.5" x2="149" y2="292.5"/>
	<line opacity="0.4" fill="none" stroke="#4D4D4D" stroke-miterlimit="10" x1="145" y1="296.5" x2="149" y2="296.5"/>
	<line opacity="0.4" fill="none" stroke="#4D4D4D" stroke-miterlimit="10" x1="145" y1="298.5" x2="149" y2="298.5"/>
	<line opacity="0.4" fill="none" stroke="#4D4D4D" stroke-miterlimit="10" x1="145" y1="302.5" x2="149" y2="302.5"/>
	<line opacity="0.4" fill="none" stroke="#4D4D4D" stroke-miterlimit="10" x1="146" y1="304.5" x2="150" y2="304.5"/>
	<line opacity="0.4" fill="none" stroke="#4D4D4D" stroke-miterlimit="10" x1="146" y1="308.5" x2="150" y2="308.5"/>
	<line opacity="0.4" fill="none" stroke="#4D4D4D" stroke-miterlimit="10" x1="146" y1="311.5" x2="150" y2="311.5"/>
	<line opacity="0.4" fill="none" stroke="#4D4D4D" stroke-miterlimit="10" x1="146" y1="314.5" x2="150" y2="314.5"/>
	<line opacity="0.4" fill="none" stroke="#4D4D4D" stroke-miterlimit="10" x1="147" y1="317.5" x2="150" y2="317.5"/>
	<line opacity="0.4" fill="none" stroke="#4D4D4D" stroke-miterlimit="10" x1="147" y1="320.5" x2="150" y2="320.5"/>
	<line opacity="0.4" fill="none" stroke="#4D4D4D" stroke-miterlimit="10" x1="147" y1="323.5" x2="151" y2="323.5"/>
	<line opacity="0.4" fill="none" stroke="#4D4D4D" stroke-miterlimit="10" x1="141.848" y1="186.313" x2="150.62" y2="324.196"/>
	<line opacity="0.4" fill="none" stroke="#4D4D4D" stroke-miterlimit="10" x1="141.466" y1="170.293" x2="141.848" y2="186.313"/>
	<line opacity="0.4" fill="none" stroke="#4D4D4D" stroke-miterlimit="10" x1="66" y1="338.5" x2="180" y2="338.5"/>
	<line opacity="0.4" fill="none" stroke="#4D4D4D" stroke-miterlimit="10" x1="179.989" y1="338.88" x2="158.63" y2="347.271"/>
	<line opacity="0.4" fill="none" stroke="#4D4D4D" stroke-miterlimit="10" x1="159" y1="347.5" x2="86" y2="347.5"/>
	<line opacity="0.4" fill="none" stroke="#4D4D4D" stroke-miterlimit="10" x1="85.779" y1="347.271" x2="65.945" y2="338.88"/>
	<rect x="65.5" y="322.5" opacity="0.4" fill="#B3B3B3" stroke="#4D4D4D" stroke-miterlimit="10" width="24" height="16"/>
	<rect x="155.5" y="325.5" opacity="0.4" fill="#B3B3B3" stroke="#4D4D4D" stroke-miterlimit="10" width="24" height="13"/>
	<rect x="69.5" y="325.5" opacity="0.4" fill="#E6E6E6" stroke="#4D4D4D" stroke-miterlimit="10" width="1" height="6"/>
	<rect x="73.5" y="325.5" opacity="0.4" fill="#E6E6E6" stroke="#4D4D4D" stroke-miterlimit="10" width="2" height="6"/>
	<rect x="115.5" y="324.5" opacity="0.4" fill="#4D4D4D" stroke="#4D4D4D" stroke-miterlimit="10" width="14" height="14"/>
	<rect x="89.5" y="324.5" opacity="0.4" fill="#4D4D4D" stroke="#4D4D4D" stroke-miterlimit="10" width="12" height="14"/>
	<rect x="141.5" y="324.5" opacity="0.4" fill="#4D4D4D" stroke="#4D4D4D" stroke-miterlimit="10" width="10" height="14"/>
	<rect x="85.5" y="338.5" opacity="0.4" fill="#4D4D4D" stroke="#4D4D4D" stroke-miterlimit="10" width="73" height="9"/>
	<rect x="100.5" y="331.5" opacity="0.4" fill="#4D4D4D" stroke="#4D4D4D" stroke-miterlimit="10" width="17" height="7"/>
	<rect x="128.5" y="333.5" opacity="0.4" fill="#4D4D4D" stroke="#4D4D4D" stroke-miterlimit="10" width="13" height="7"/>
	<rect x="127.5" y="328.5" opacity="0.4" fill="#4D4D4D" stroke="#4D4D4D" stroke-miterlimit="10" width="15" height="1"/>
	<rect x="104.5" y="324.5" opacity="0.4" fill="#4D4D4D" stroke="#4D4D4D" stroke-miterlimit="10" width="2" height="7"/>
	<rect x="111.5" y="324.5" opacity="0.4" fill="#4D4D4D" stroke="#4D4D4D" stroke-miterlimit="10" width="0" height="8"/>
	<rect x="132.5" y="329.5" opacity="0.4" fill="#4D4D4D" stroke="#4D4D4D" stroke-miterlimit="10" width="1" height="7"/>
	<rect x="135.5" y="329.5" opacity="0.4" fill="#4D4D4D" stroke="#4D4D4D" stroke-miterlimit="10" width="0" height="7"/>
	<rect x="137.5" y="329.5" opacity="0.4" fill="#4D4D4D" stroke="#4D4D4D" stroke-miterlimit="10" width="1" height="7"/>
	<line opacity="0.4" fill="none" stroke="#4D4D4D" stroke-miterlimit="10" x1="65.755" y1="338.88" x2="5.3" y2="398.572"/>
	<line opacity="0.4" fill="none" stroke="#4D4D4D" stroke-miterlimit="10" x1="65.755" y1="335.066" x2="5.3" y2="394.758"/>
	<line opacity="0.4" fill="none" stroke="#4D4D4D" stroke-miterlimit="10" x1="65.755" y1="331.252" x2="5.3" y2="390.944"/>
	<line opacity="0.4" fill="none" stroke="#4D4D4D" stroke-miterlimit="10" x1="4.5" y1="391" x2="4.5" y2="398"/>
	<line opacity="0.4" fill="none" stroke="#4D4D4D" stroke-miterlimit="10" x1="12.5" y1="385" x2="12.5" y2="392"/>
	<line opacity="0.4" fill="none" stroke="#4D4D4D" stroke-miterlimit="10" x1="18.5" y1="378" x2="18.5" y2="386"/>
	<line opacity="0.4" fill="none" stroke="#4D4D4D" stroke-miterlimit="10" x1="25.5" y1="370" x2="25.5" y2="378"/>
	<line opacity="0.4" fill="none" stroke="#4D4D4D" stroke-miterlimit="10" x1="32.5" y1="363" x2="32.5" y2="371"/>
	<line opacity="0.4" fill="none" stroke="#4D4D4D" stroke-miterlimit="10" x1="39.5" y1="358" x2="39.5" y2="365"/>
	<line opacity="0.4" fill="none" stroke="#4D4D4D" stroke-miterlimit="10" x1="46.5" y1="351" x2="46.5" y2="358"/>
	<line opacity="0.4" fill="none" stroke="#4D4D4D" stroke-miterlimit="10" x1="53.5" y1="344" x2="53.5" y2="352"/>
	<line opacity="0.4" fill="none" stroke="#4D4D4D" stroke-miterlimit="10" x1="60.5" y1="337" x2="60.5" y2="345"/>
	<rect x="151.5" y="333.5" opacity="0.4" fill="#4D4D4D" stroke="#4D4D4D" stroke-miterlimit="10" width="4" height="5"/>
	<line opacity="0.4" fill="none" stroke="#4D4D4D" stroke-miterlimit="10" x1="170.276" y1="342.697" x2="204.4" y2="375.941"/>
	<line opacity="0.4" fill="none" stroke="#4D4D4D" stroke-miterlimit="10" x1="171.95" y1="342.039" x2="204.4" y2="373.653"/>
	<line opacity="0.4" fill="none" stroke="#4D4D4D" stroke-miterlimit="10" x1="175.343" y1="340.871" x2="204.4" y2="369.076"/>
	<line opacity="0.4" fill="none" stroke="#4D4D4D" stroke-miterlimit="10" x1="203.5" y1="369" x2="203.5" y2="376"/>
	<line opacity="0.4" fill="none" stroke="#4D4D4D" stroke-miterlimit="10" x1="201.5" y1="366" x2="201.5" y2="372"/>
	<line opacity="0.4" fill="none" stroke="#4D4D4D" stroke-miterlimit="10" x1="197.5" y1="362" x2="197.5" y2="370"/>
	<line opacity="0.4" fill="none" stroke="#4D4D4D" stroke-miterlimit="10" x1="193.5" y1="359" x2="193.5" y2="366"/>
	<line opacity="0.4" fill="none" stroke="#4D4D4D" stroke-miterlimit="10" x1="190.5" y1="355" x2="190.5" y2="362"/>
	<line opacity="0.4" fill="none" stroke="#4D4D4D" stroke-miterlimit="10" x1="186.5" y1="352" x2="186.5" y2="359"/>
	<line opacity="0.4" fill="none" stroke="#4D4D4D" stroke-miterlimit="10" x1="184.5" y1="349" x2="184.5" y2="355"/>
	<line opacity="0.4" fill="none" stroke="#4D4D4D" stroke-miterlimit="10" x1="179.5" y1="345" x2="179.5" y2="353"/>
	<line opacity="0.4" fill="none" stroke="#4D4D4D" stroke-miterlimit="10" x1="176.5" y1="342" x2="176.5" y2="349"/>
	<line opacity="0.4" fill="none" stroke="#4D4D4D" stroke-miterlimit="10" x1="173.5" y1="342" x2="173.5" y2="345"/>
	<line opacity="0.4" fill="none" stroke="#4D4D4D" stroke-miterlimit="10" x1="204" y1="375.5" x2="209" y2="375.5"/>
	<line opacity="0.4" fill="none" stroke="#4D4D4D" stroke-miterlimit="10" x1="208.5" y1="376" x2="208.5" y2="369"/>
	<line opacity="0.4" fill="none" stroke="#4D4D4D" stroke-miterlimit="10" x1="208" y1="369.5" x2="204" y2="369.5"/>
	<line opacity="0.4" fill="none" stroke="#4D4D4D" stroke-miterlimit="10" x1="204" y1="373.5" x2="208" y2="373.5"/>
	<rect x="203.5" y="375.5" opacity="0.4" fill="#4D4D4D" stroke="#4D4D4D" stroke-miterlimit="10" width="3" height="6"/>
	<rect x="200.5" y="371.5" opacity="0.4" fill="#4D4D4D" stroke="#4D4D4D" stroke-miterlimit="10" width="1" height="10"/>
	<line opacity="0.4" fill="none" stroke="#4D4D4D" stroke-miterlimit="10" x1="98.5" y1="347" x2="98.5" y2="398"/>
	<line opacity="0.4" fill="none" stroke="#4D4D4D" stroke-miterlimit="10" x1="146.5" y1="347" x2="146.5" y2="398"/>
	<line opacity="0.4" fill="none" stroke="#4D4D4D" stroke-miterlimit="10" x1="155.5" y1="347" x2="155.5" y2="398"/>
	<line opacity="0.4" fill="none" stroke="#4D4D4D" stroke-miterlimit="10" x1="147" y1="349.5" x2="156" y2="349.5"/>
	<line opacity="0.4" fill="none" stroke="#4D4D4D" stroke-miterlimit="10" x1="147" y1="358.5" x2="156" y2="358.5"/>
	<line opacity="0.4" fill="none" stroke="#4D4D4D" stroke-miterlimit="10" x1="147" y1="367.5" x2="156" y2="367.5"/>
	<line opacity="0.4" fill="none" stroke="#4D4D4D" stroke-miterlimit="10" x1="147" y1="375.5" x2="156" y2="375.5"/>
	<line opacity="0.4" fill="none" stroke="#4D4D4D" stroke-miterlimit="10" x1="147" y1="384.5" x2="156" y2="384.5"/>
	<line opacity="0.4" fill="none" stroke="#4D4D4D" stroke-miterlimit="10" x1="147" y1="393.5" x2="156" y2="393.5"/>
	<line opacity="0.4" fill="none" stroke="#4D4D4D" stroke-miterlimit="10" x1="155.579" y1="349.559" x2="146.806" y2="358.332"/>
	<line opacity="0.4" fill="none" stroke="#4D4D4D" stroke-miterlimit="10" x1="146.806" y1="358.332" x2="155.579" y2="367.105"/>
	<line opacity="0.4" fill="none" stroke="#4D4D4D" stroke-miterlimit="10" x1="155.579" y1="367.105" x2="146.806" y2="375.878"/>
	<line opacity="0.4" fill="none" stroke="#4D4D4D" stroke-miterlimit="10" x1="146.806" y1="375.878" x2="155.579" y2="384.65"/>
	<line opacity="0.4" fill="none" stroke="#4D4D4D" stroke-miterlimit="10" x1="155.579" y1="384.65" x2="146.806" y2="393.423"/>
	<line opacity="0.4" fill="none" stroke="#4D4D4D" stroke-miterlimit="10" x1="146.806" y1="393.423" x2="155.77" y2="398.572"/>
	<line opacity="0.4" fill="none" stroke="#4D4D4D" stroke-miterlimit="10" x1="151.5" y1="347" x2="151.5" y2="398"/>
	<line opacity="0.4" fill="none" stroke="#4D4D4D" stroke-miterlimit="10" x1="85.5" y1="347" x2="85.5" y2="398"/>
	<line opacity="0.4" fill="none" stroke="#4D4D4D" stroke-miterlimit="10" x1="94.5" y1="347" x2="94.5" y2="398"/>
	<line opacity="0.4" fill="none" stroke="#4D4D4D" stroke-miterlimit="10" x1="86" y1="349.5" x2="95" y2="349.5"/>
	<line opacity="0.4" fill="none" stroke="#4D4D4D" stroke-miterlimit="10" x1="86" y1="358.5" x2="95" y2="358.5"/>
	<line opacity="0.4" fill="none" stroke="#4D4D4D" stroke-miterlimit="10" x1="86" y1="367.5" x2="95" y2="367.5"/>
	<line opacity="0.4" fill="none" stroke="#4D4D4D" stroke-miterlimit="10" x1="86" y1="375.5" x2="95" y2="375.5"/>
	<line opacity="0.4" fill="none" stroke="#4D4D4D" stroke-miterlimit="10" x1="86" y1="384.5" x2="95" y2="384.5"/>
	<line opacity="0.4" fill="none" stroke="#4D4D4D" stroke-miterlimit="10" x1="86" y1="393.5" x2="95" y2="393.5"/>
	<line opacity="0.4" fill="none" stroke="#4D4D4D" stroke-miterlimit="10" x1="94.17" y1="349.559" x2="85.398" y2="358.332"/>
	<line opacity="0.4" fill="none" stroke="#4D4D4D" stroke-miterlimit="10" x1="85.398" y1="358.332" x2="94.17" y2="367.105"/>
	<line opacity="0.4" fill="none" stroke="#4D4D4D" stroke-miterlimit="10" x1="94.17" y1="367.105" x2="85.398" y2="375.878"/>
	<line opacity="0.4" fill="none" stroke="#4D4D4D" stroke-miterlimit="10" x1="85.398" y1="375.878" x2="94.17" y2="384.65"/>
	<line opacity="0.4" fill="none" stroke="#4D4D4D" stroke-miterlimit="10" x1="94.17" y1="384.65" x2="85.398" y2="393.423"/>
	<line opacity="0.4" fill="none" stroke="#4D4D4D" stroke-miterlimit="10" x1="85.398" y1="393.423" x2="94.361" y2="398.572"/>
	<line opacity="0.4" fill="none" stroke="#4D4D4D" stroke-miterlimit="10" x1="89.5" y1="347" x2="89.5" y2="398"/>
	<rect x="118.5" y="347.5" opacity="0.4" fill="#4D4D4D" stroke="#4D4D4D" stroke-miterlimit="10" width="2" height="51"/>
	<path opacity="0.4" fill="#4D4D4D" stroke="#4D4D4D" stroke-miterlimit="10" d="M123.54,381c0,1.474-1.167,2.5-2.606,2.5h-2.607
		c-1.44,0-2.606-1.026-2.606-2.5l0,0c0-1.474,1.166-2.5,2.606-2.5h2.607C122.373,378.5,123.54,379.526,123.54,381L123.54,381z"/>
	<path opacity="0.4" fill="#4D4D4D" stroke="#4D4D4D" stroke-miterlimit="10" d="M126.5,385.054c0,0.246-0.199,0.446-0.446,0.446
		h-11.109c-0.246,0-0.446-0.199-0.446-0.446v-0.109c0-0.246,0.199-0.446,0.446-0.446h11.109c0.246,0,0.446,0.199,0.446,0.446
		V385.054z"/>
	<path opacity="0.4" fill="#4D4D4D" stroke="#4D4D4D" stroke-miterlimit="10" d="M124.5,388.451c0,0.579-0.47,1.049-1.049,1.049
		h-9.902c-0.579,0-1.049-0.47-1.049-1.049v-0.903c0-0.579,0.47-1.049,1.049-1.049h9.902c0.579,0,1.049,0.47,1.049,1.049V388.451z"/>
	<path opacity="0.4" fill="#4D4D4D" stroke="#4D4D4D" stroke-miterlimit="10" d="M124.5,391.451c0,0.579-0.47,1.049-1.049,1.049
		h-9.902c-0.579,0-1.049-0.47-1.049-1.049v-0.903c0-0.579,0.47-1.049,1.049-1.049h9.902c0.579,0,1.049,0.47,1.049,1.049V391.451z"/>
	<line opacity="0.4" fill="none" stroke="#4D4D4D" stroke-miterlimit="10" x1="112" y1="387.5" x2="128" y2="387.5"/>
	<line opacity="0.4" fill="none" stroke="#4D4D4D" stroke-miterlimit="10" x1="112" y1="390.5" x2="128" y2="390.5"/>
	<rect x="117.5" y="391.5" opacity="0.4" fill="#4D4D4D" stroke="#4D4D4D" stroke-miterlimit="10" width="4" height="4"/>
	<path opacity="0.4" fill="#4D4D4D" stroke="#4D4D4D" stroke-miterlimit="10" d="M122.5,396.198c0,0.167-0.135,0.302-0.302,0.302
		h-4.397c-0.167,0-0.302-0.135-0.302-0.302v-0.396c0-0.167,0.135-0.302,0.302-0.302h4.397c0.167,0,0.302,0.135,0.302,0.302V396.198z
		"/>
	<line opacity="0.4" fill="none" stroke="#4D4D4D" stroke-miterlimit="10" x1="143.5" y1="347" x2="143.5" y2="398"/>
	
		<line opacity="0.4" fill="none" stroke="#4D4D4D" stroke-width="3" stroke-miterlimit="10" x1="94.361" y1="347.462" x2="146.997" y2="398.572"/>
	<rect x="157.5" y="381.5" opacity="0.4" fill="#808080" stroke="#808080" stroke-miterlimit="10" width="89" height="17"/>
</g>
<g id="Layer_11">
</g>
<g id="Layer_9">
</g>
<g id="Layer_10">
</g>
<g id="Layer_13">
</g>
<g id="Layer_6">
</g>
<g id="Layer_4">
</g>
<g id="Layer_12">
	<g id="Arrow_26" opacity="0.6">
	</g>
</g>
<g id="Layer_15">
</g>
<g id="Layer_8">
	<g id="Arrow_26_1_">
	</g>
</g>
<g id="Layer_17">
</g>
</svg>
