<?xml version="1.0" encoding="utf-8"?>
<!-- Generator: Adobe Illustrator 17.0.0, SVG Export Plug-In . SVG Version: 6.00 Build 0)  -->
<!DOCTYPE svg PUBLIC "-//W3C//DTD SVG 1.1//EN" "http://www.w3.org/Graphics/SVG/1.1/DTD/svg11.dtd">
<svg version="1.1" xmlns="http://www.w3.org/2000/svg" xmlns:xlink="http://www.w3.org/1999/xlink" x="0px" y="0px" width="1920px"
	 height="1080px" viewBox="0 0 1920 1080" enable-background="new 0 0 1920 1080" xml:space="preserve">
<g id="Layer_1">
</g>
<g id="Layer_3">
</g>
<g id="Layer_2">
</g>
<g id="Layer_7">
	<rect x="1624" y="2" opacity="0.4" fill="none" width="294" height="401"/>
</g>
<g id="Layer_14">
</g>
<g id="Layer_5">
</g>
<g id="Layer_11">
</g>
<g id="Layer_9">
</g>
<g id="Layer_10">
</g>
<g id="Layer_13">
</g>
<g id="Layer_6">
</g>
<g id="Layer_4">
	<g>
		<path fill="#E6E6E6" stroke="#E6E6E6" stroke-miterlimit="10" d="M489.5,410.491V704.5h-57V410.491
			c0-12.037,7.673-22.325,18.244-26.453c-0.276-0.652-0.244-1.366-0.244-2.11v-0.414c0-2.823,1.792-5.141,4.516-5.492
			c-0.137-0.223-0.516-0.484-0.516-0.762v-0.123c0-0.813,1.463-1.637,2.276-1.637h9.33c0.815,0,1.394,0.824,1.394,1.637v0.123
			c0,0.277,0.121,0.539-0.016,0.762c2.723,0.351,5.016,2.669,5.016,5.492v0.414c0,0.744-0.468,1.458-0.744,2.11
			C482.328,388.166,489.5,398.454,489.5,410.491z"/>
		<path fill="#E6E6E6" stroke="#E6E6E6" stroke-miterlimit="10" d="M555.5,410.491V704.5h-58V410.491
			c0-12.037,7.172-22.325,17.744-26.453c-0.275-0.652-0.744-1.366-0.744-2.11v-0.414c0-2.823,2.294-5.141,5.016-5.492
			c-0.137-0.223-0.016-0.484-0.016-0.762v-0.123c0-0.813,0.909-1.637,1.723-1.637h9.329c0.815,0,1.948,0.824,1.948,1.637v0.123
			c0,0.277-0.377,0.539-0.516,0.762c2.723,0.351,4.516,2.669,4.516,5.492v0.414c0,0.744,0.531,1.458,0.255,2.11
			C547.327,388.166,555.5,398.454,555.5,410.491z"/>
		<path fill="#E6E6E6" stroke="#E6E6E6" stroke-miterlimit="10" d="M619.5,410.491V704.5h-58V410.491
			c0-12.037,7.673-22.325,18.244-26.453c-0.276-0.652-0.244-1.366-0.244-2.11v-0.414c0-2.823,1.792-5.141,4.516-5.492
			c-0.137-0.223-0.516-0.484-0.516-0.762v-0.123c0-0.813,1.355-1.637,2.169-1.637h9.329c0.815,0,2.502,0.824,2.502,1.637v0.123
			c0,0.277-0.379,0.539-0.516,0.762c2.722,0.351,4.516,2.669,4.516,5.492v0.414c0,0.744,0.032,1.458-0.245,2.11
			C611.827,388.166,619.5,398.454,619.5,410.491z"/>
		<path fill="#E6E6E6" stroke="#E6E6E6" stroke-miterlimit="10" d="M683.5,410.491V704.5h-58V410.491
			c0-12.037,8.173-22.325,18.744-26.453c-0.275-0.652,0.256-1.366,0.256-2.11v-0.414c0-2.823,1.794-5.141,4.516-5.492
			c-0.138-0.223-0.516-0.484-0.516-0.762v-0.123c0-0.813,0.801-1.637,1.615-1.637h9.33c0.813,0,2.055,0.824,2.055,1.637v0.123
			c0,0.277,0.121,0.539-0.016,0.762c2.723,0.351,5.016,2.669,5.016,5.492v0.414c0,0.744-0.468,1.458-0.745,2.11
			C676.328,388.166,683.5,398.454,683.5,410.491z"/>
		<path fill="#E6E6E6" stroke="#E6E6E6" stroke-miterlimit="10" d="M747.5,410.491V704.5h-56V410.491
			c0-12.037,7.173-22.325,17.745-26.453c-0.276-0.652-0.745-1.366-0.745-2.11v-0.414c0-2.823,2.294-5.141,5.017-5.492
			c-0.14-0.223-0.017-0.484-0.017-0.762v-0.123c0-0.813,0.247-1.637,1.061-1.637h9.329c0.815,0,2.61,0.824,2.61,1.637v0.123
			c0,0.277-0.378,0.539-0.516,0.762c2.722,0.351,4.516,2.669,4.516,5.492v0.414c0,0.744-0.468,1.458-0.745,2.11
			C740.328,388.166,747.5,398.454,747.5,410.491z"/>
		<path fill="#E6E6E6" stroke="#E6E6E6" stroke-miterlimit="10" d="M812.5,410.491V704.5h-57V410.491
			c0-12.037,7.172-22.325,17.744-26.453c-0.276-0.652-0.744-1.366-0.744-2.11v-0.414c0-2.823,2.292-5.141,5.016-5.492
			c-0.138-0.223-0.016-0.484-0.016-0.762v-0.123c0-0.813,0.693-1.637,1.507-1.637h9.329c0.815,0,2.164,0.824,2.164,1.637v0.123
			c0,0.277-0.378,0.539-0.516,0.762c2.723,0.351,4.516,2.669,4.516,5.492v0.414c0,0.744,0.032,1.458-0.245,2.11
			C804.828,388.166,812.5,398.454,812.5,410.491z"/>
		<path fill="#E6E6E6" stroke="#E6E6E6" stroke-miterlimit="10" d="M876.5,410.491V704.5h-57V410.491
			c0-12.037,7.673-22.325,18.243-26.453c-0.275-0.652-0.243-1.366-0.243-2.11v-0.414c0-2.823,1.793-5.141,4.516-5.492
			c-0.138-0.223-0.516-0.484-0.516-0.762v-0.123c0-0.813,1.139-1.637,1.952-1.637h9.331c0.814,0,1.717,0.824,1.717,1.637v0.123
			c0,0.277,0.123,0.539-0.017,0.762c2.724,0.351,5.017,2.669,5.017,5.492v0.414c0,0.744-0.469,1.458-0.745,2.11
			C869.327,388.166,876.5,398.454,876.5,410.491z"/>
		<path fill="#E6E6E6" stroke="#E6E6E6" stroke-miterlimit="10" d="M940.5,410.491V704.5h-56V410.491
			c0-12.037,7.172-22.325,17.744-26.453c-0.275-0.652-0.744-1.366-0.744-2.11v-0.414c0-2.823,1.793-5.141,4.516-5.492
			c-0.137-0.223-0.516-0.484-0.516-0.762v-0.123c0-0.813,1.585-1.637,2.399-1.637h9.329c0.815,0,2.272,0.824,2.272,1.637v0.123
			c0,0.277-0.378,0.539-0.516,0.762c2.722,0.351,4.516,2.669,4.516,5.492v0.414c0,0.744-0.469,1.458-0.745,2.11
			C933.327,388.166,940.5,398.454,940.5,410.491z"/>
		<path fill="#E6E6E6" stroke="#E6E6E6" stroke-miterlimit="10" d="M1006.5,410.491V704.5h-58V410.491
			c0-12.037,7.173-22.325,17.744-26.453c-0.276-0.652-0.744-1.366-0.744-2.11v-0.414c0-2.823,2.294-5.141,5.016-5.492
			c-0.137-0.223-0.016-0.484-0.016-0.762v-0.123c0-0.813,1.032-1.637,1.845-1.637h9.33c0.813,0,1.825,0.824,1.825,1.637v0.123
			c0,0.277-0.379,0.539-0.516,0.762c2.723,0.351,4.516,2.669,4.516,5.492v0.414c0,0.744,0.532,1.458,0.255,2.11
			C998.327,388.166,1006.5,398.454,1006.5,410.491z"/>
		<path fill="#E6E6E6" stroke="#E6E6E6" stroke-miterlimit="10" d="M1070.5,410.491V704.5h-58V410.491
			c0-12.037,7.673-22.325,18.245-26.453c-0.276-0.652-0.245-1.366-0.245-2.11v-0.414c0-2.823,1.794-5.141,4.516-5.492
			c-0.138-0.223-0.516-0.484-0.516-0.762v-0.123c0-0.813,1.477-1.637,2.291-1.637h9.329c0.814,0,1.38,0.824,1.38,1.637v0.123
			c0,0.277,0.621,0.539,0.484,0.762c2.723,0.351,5.516,2.669,5.516,5.492v0.414c0,0.744-0.469,1.458-0.745,2.11
			C1063.328,388.166,1070.5,398.454,1070.5,410.491z"/>
		<path fill="#E6E6E6" stroke="#E6E6E6" stroke-miterlimit="10" d="M1134.5,410.491V704.5h-57V410.491
			c0-12.037,7.172-22.325,17.744-26.453c-0.276-0.652-0.744-1.366-0.744-2.11v-0.414c0-2.823,2.292-5.141,5.016-5.492
			c-0.137-0.223-0.016-0.484-0.016-0.762v-0.123c0-0.813,0.922-1.637,1.737-1.637h9.329c0.813,0,1.934,0.824,1.934,1.637v0.123
			c0,0.277,0.122,0.539-0.016,0.762c2.724,0.351,5.016,2.669,5.016,5.492v0.414c0,0.744-0.468,1.458-0.744,2.11
			C1127.327,388.166,1134.5,398.454,1134.5,410.491z"/>
		<path fill="#E6E6E6" stroke="#E6E6E6" stroke-miterlimit="10" d="M1199.5,410.491V704.5h-57V410.491
			c0-12.037,7.172-22.325,17.745-26.453c-0.276-0.652-0.745-1.366-0.745-2.11v-0.414c0-2.823,2.292-5.141,5.016-5.492
			c-0.137-0.223-0.016-0.484-0.016-0.762v-0.123c0-0.813,0.369-1.637,1.183-1.637h9.329c0.814,0,2.489,0.824,2.489,1.637v0.123
			c0,0.277-0.378,0.539-0.516,0.762c2.724,0.351,4.516,2.669,4.516,5.492v0.414c0,0.744,0.032,1.458-0.244,2.11
			C1191.828,388.166,1199.5,398.454,1199.5,410.491z"/>
		<path fill="#E6E6E6" stroke="#E6E6E6" stroke-miterlimit="10" d="M1263.5,410.491V704.5h-57V410.491
			c0-12.037,7.672-22.325,18.244-26.453c-0.277-0.652-0.244-1.366-0.244-2.11v-0.414c0-2.823,1.793-5.141,4.516-5.492
			c-0.137-0.223-0.516-0.484-0.516-0.762v-0.123c0-0.813,0.815-1.637,1.628-1.637h9.33c0.813,0,2.042,0.824,2.042,1.637v0.123
			c0,0.277-0.379,0.539-0.516,0.762c2.722,0.351,4.516,2.669,4.516,5.492v0.414c0,0.744,0.031,1.458-0.245,2.11
			C1255.827,388.166,1263.5,398.454,1263.5,410.491z"/>
		<path fill="#B3B3B3" stroke="#B3B3B3" stroke-miterlimit="10" d="M485.5,430.438V725.5h-57V430.438
			c0-12.036,7.673-22.324,18.244-26.453c-0.276-0.651-0.244-1.363-0.244-2.109v-0.413c0-2.825,1.794-5.142,4.516-5.493
			c-0.138-0.223-0.516-0.484-0.516-0.76v-0.123c0-0.813,0.86-0.586,1.673-0.586h9.331c0.814,0,0.996-0.228,0.996,0.586v0.123
			c0,0.275,0.122,0.537-0.016,0.76c2.723,0.352,5.016,2.668,5.016,5.493v0.413c0,0.746,0.032,1.458-0.245,2.109
			C477.828,408.113,485.5,418.401,485.5,430.438z"/>
		<path fill="#B3B3B3" stroke="#B3B3B3" stroke-miterlimit="10" d="M550.5,430.438V725.5h-58V430.438
			c0-12.036,7.673-22.324,18.243-26.453c-0.275-0.651-0.243-1.363-0.243-2.109v-0.413c0-2.825,1.794-5.142,4.516-5.493
			c-0.138-0.223-0.516-0.484-0.516-0.76v-0.123c0-0.813,1.306-0.586,2.12-0.586h9.329c0.814,0,0.551-0.228,0.551,0.586v0.123
			c0,0.275,0.622,0.537,0.484,0.76c2.723,0.352,5.516,2.668,5.516,5.493v0.413c0,0.746,0.032,1.458-0.245,2.109
			C542.828,408.113,550.5,418.401,550.5,430.438z"/>
		<path fill="#B3B3B3" stroke="#B3B3B3" stroke-miterlimit="10" d="M614.5,430.438V725.5h-57V430.438
			c0-12.036,7.172-22.324,17.745-26.453c-0.276-0.651-0.745-1.363-0.745-2.109v-0.413c0-2.825,2.293-5.142,5.016-5.493
			c-0.137-0.223-0.016-0.484-0.016-0.76v-0.123c0-0.813,0.752-0.586,1.566-0.586h9.329c0.814,0,0.105-0.228,0.105,0.586v0.123
			c0,0.275,1.121,0.537,0.984,0.76c2.723,0.352,6.016,2.668,6.016,5.493v0.413c0,0.746-0.467,1.458-0.745,2.109
			C607.327,408.113,614.5,418.401,614.5,430.438z"/>
		<path fill="#B3B3B3" stroke="#B3B3B3" stroke-miterlimit="10" d="M679.5,430.438V725.5h-58V430.438
			c0-12.036,8.172-22.324,18.744-26.453c-0.276-0.651,0.256-1.363,0.256-2.109v-0.413c0-2.825,1.793-5.142,4.516-5.493
			c-0.137-0.223-0.516-0.484-0.516-0.76v-0.123c0-0.813,0.198-0.586,1.011-0.586h9.33c0.815,0,0.659-0.228,0.659,0.586v0.123
			c0,0.275,0.621,0.537,0.484,0.76c2.723,0.352,5.516,2.668,5.516,5.493v0.413c0,0.746,0.031,1.458-0.245,2.109
			C671.828,408.113,679.5,418.401,679.5,430.438z"/>
		<path fill="#B3B3B3" stroke="#B3B3B3" stroke-miterlimit="10" d="M743.5,430.438V725.5h-57V430.438
			c0-12.036,7.672-22.324,18.243-26.453c-0.275-0.651-0.243-1.363-0.243-2.109v-0.413c0-2.825,1.794-5.142,4.516-5.493
			c-0.137-0.223-0.516-0.484-0.516-0.76v-0.123c0-0.813,0.644-0.586,1.457-0.586h9.33c0.815,0,0.213-0.228,0.213,0.586v0.123
			c0,0.275,1.122,0.537,0.984,0.76c2.723,0.352,6.016,2.668,6.016,5.493v0.413c0,0.746-0.469,1.458-0.744,2.109
			C736.327,408.113,743.5,418.401,743.5,430.438z"/>
		<path fill="#B3B3B3" stroke="#B3B3B3" stroke-miterlimit="10" d="M807.5,430.438V725.5h-56V430.438
			c0-12.036,7.172-22.324,17.744-26.453c-0.275-0.651-0.744-1.363-0.744-2.109v-0.413c0-2.825,1.792-5.142,4.516-5.493
			c-0.137-0.223-0.516-0.484-0.516-0.76v-0.123c0-0.813,1.09-0.586,1.903-0.586h9.33c0.814,0,0.767-0.228,0.767,0.586v0.123
			c0,0.275,0.622,0.537,0.484,0.76c2.722,0.352,5.516,2.668,5.516,5.493v0.413c0,0.746-0.469,1.458-0.745,2.109
			C800.327,408.113,807.5,418.401,807.5,430.438z"/>
		<path fill="#B3B3B3" stroke="#B3B3B3" stroke-miterlimit="10" d="M872.5,430.438V725.5h-57V430.438
			c0-12.036,7.173-22.324,17.744-26.453c-0.275-0.651-0.744-1.363-0.744-2.109v-0.413c0-2.825,2.294-5.142,5.016-5.493
			c-0.137-0.223-0.016-0.484-0.016-0.76v-0.123c0-0.813,0.536-0.586,1.35-0.586h9.329c0.815,0,1.321-0.228,1.321,0.586v0.123
			c0,0.275,0.122,0.537-0.016,0.76c2.723,0.352,5.016,2.668,5.016,5.493v0.413c0,0.746,0.032,1.458-0.244,2.109
			C864.828,408.113,872.5,418.401,872.5,430.438z"/>
		<path fill="#B3B3B3" stroke="#B3B3B3" stroke-miterlimit="10" d="M936.5,430.438V725.5h-57V430.438
			c0-12.036,7.673-22.324,18.244-26.453c-0.275-0.651-0.244-1.363-0.244-2.109v-0.413c0-2.825,1.794-5.142,4.516-5.493
			c-0.138-0.223-0.516-0.484-0.516-0.76v-0.123c0-0.813,0.982-0.586,1.796-0.586h9.329c0.815,0,0.875-0.228,0.875,0.586v0.123
			c0,0.275,0.622,0.537,0.484,0.76c2.723,0.352,5.516,2.668,5.516,5.493v0.413c0,0.746-0.468,1.458-0.743,2.109
			C929.328,408.113,936.5,418.401,936.5,430.438z"/>
		<path fill="#B3B3B3" stroke="#B3B3B3" stroke-miterlimit="10" d="M1000.5,430.438V725.5h-56V430.438
			c0-12.036,7.173-22.324,17.744-26.453c-0.275-0.651-0.744-1.363-0.744-2.109v-0.413c0-2.825,1.792-5.142,4.516-5.493
			c-0.137-0.223-0.516-0.484-0.516-0.76v-0.123c0-0.813,1.428-0.586,2.241-0.586h9.33c0.814,0,0.429-0.228,0.429,0.586v0.123
			c0,0.275,0.621,0.537,0.484,0.76c2.724,0.352,5.516,2.668,5.516,5.493v0.413c0,0.746-0.468,1.458-0.745,2.109
			C993.328,408.113,1000.5,418.401,1000.5,430.438z"/>
		<path fill="#B3B3B3" stroke="#B3B3B3" stroke-miterlimit="10" d="M1066.5,430.438V725.5h-58V430.438
			c0-12.036,7.173-22.324,17.745-26.453c-0.277-0.651-0.745-1.363-0.745-2.109v-0.413c0-2.825,2.292-5.142,5.016-5.493
			c-0.138-0.223-0.016-0.484-0.016-0.76v-0.123c0-0.813,0.874-0.586,1.687-0.586h9.33c0.813,0,0.983-0.228,0.983,0.586v0.123
			c0,0.275,0.121,0.537-0.016,0.76c2.723,0.352,5.016,2.668,5.016,5.493v0.413c0,0.746,0.532,1.458,0.256,2.109
			C1058.328,408.113,1066.5,418.401,1066.5,430.438z"/>
		<path fill="#B3B3B3" stroke="#B3B3B3" stroke-miterlimit="10" d="M1130.5,430.438V725.5h-58V430.438
			c0-12.036,7.672-22.324,18.244-26.453c-0.276-0.651-0.244-1.363-0.244-2.109v-0.413c0-2.825,1.792-5.142,4.516-5.493
			c-0.138-0.223-0.516-0.484-0.516-0.76v-0.123c0-0.813,1.32-0.586,2.133-0.586h9.33c0.814,0,0.537-0.228,0.537,0.586v0.123
			c0,0.275,0.621,0.537,0.484,0.76c2.722,0.352,5.516,2.668,5.516,5.493v0.413c0,0.746,0.031,1.458-0.245,2.109
			C1122.827,408.113,1130.5,418.401,1130.5,430.438z"/>
		<path fill="#B3B3B3" stroke="#B3B3B3" stroke-miterlimit="10" d="M1194.5,430.438V725.5h-58V430.438
			c0-12.036,8.173-22.324,18.745-26.453c-0.276-0.651,0.255-1.363,0.255-2.109v-0.413c0-2.825,1.793-5.142,4.516-5.493
			c-0.137-0.223-0.516-0.484-0.516-0.76v-0.123c0-0.813,0.765-0.586,1.579-0.586h9.33c0.813,0,2.091-0.228,2.091,0.586v0.123
			c0,0.275,0.121,0.537-0.016,0.76c2.722,0.352,5.016,2.668,5.016,5.493v0.413c0,0.746-0.468,1.458-0.745,2.109
			C1187.327,408.113,1194.5,418.401,1194.5,430.438z"/>
		<path fill="#B3B3B3" stroke="#B3B3B3" stroke-miterlimit="10" d="M1259.5,430.438V725.5h-57V430.438
			c0-12.036,7.173-22.324,17.745-26.453c-0.275-0.651-0.745-1.363-0.745-2.109v-0.413c0-2.825,2.294-5.142,5.016-5.493
			c-0.138-0.223-0.016-0.484-0.016-0.76v-0.123c0-0.813,0.212-0.586,1.026-0.586h9.329c0.814,0,2.646-0.228,2.646,0.586v0.123
			c0,0.275-0.379,0.537-0.516,0.76c2.723,0.352,4.516,2.668,4.516,5.493v0.413c0,0.746,0.032,1.458-0.245,2.109
			C1251.828,408.113,1259.5,418.401,1259.5,430.438z"/>
		<rect x="1304.5" y="572.5" fill="#999999" stroke="#999999" stroke-miterlimit="10" width="7" height="47"/>
		<rect x="1200.5" y="572.5" fill="#999999" stroke="#999999" stroke-miterlimit="10" width="7" height="47"/>
		<rect x="1096.5" y="572.5" fill="#999999" stroke="#999999" stroke-miterlimit="10" width="8" height="47"/>
		<rect x="992.5" y="572.5" fill="#999999" stroke="#999999" stroke-miterlimit="10" width="7" height="47"/>
		<rect x="888.5" y="572.5" fill="#999999" stroke="#999999" stroke-miterlimit="10" width="8" height="47"/>
		<rect x="784.5" y="572.5" fill="#999999" stroke="#999999" stroke-miterlimit="10" width="9" height="47"/>
		<rect x="682.5" y="572.5" fill="#999999" stroke="#999999" stroke-miterlimit="10" width="7" height="47"/>
		<rect x="577.5" y="572.5" fill="#999999" stroke="#999999" stroke-miterlimit="10" width="8" height="47"/>
		<rect x="474.5" y="572.5" fill="#999999" stroke="#999999" stroke-miterlimit="10" width="9" height="47"/>
		<rect x="371.5" y="572.5" fill="#999999" stroke="#999999" stroke-miterlimit="10" width="7" height="47"/>
		<rect x="267.5" y="572.5" fill="#999999" stroke="#999999" stroke-miterlimit="10" width="9" height="47"/>
		<rect x="164.5" y="572.5" fill="#999999" stroke="#999999" stroke-miterlimit="10" width="8" height="47"/>
		<path fill="#999999" stroke="#999999" stroke-miterlimit="10" d="M1313.5,559.906c0,3.495-3.881,7.594-9.059,7.594h-51.707
			c-5.179,0-10.234-4.099-10.234-7.594v-0.383c0-3.497,5.056-5.023,10.234-5.023h51.707c5.178,0,9.059,1.526,9.059,5.023V559.906z"
			/>
		<rect x="1305.5" y="562.5" fill="#999999" stroke="#999999" stroke-miterlimit="10" width="5" height="14"/>
		<path fill="#FFFFFF" stroke="#808080" stroke-width="5" stroke-miterlimit="10" d="M923.5,547.5v-64.507
			c0,0,1.754-11.493,19.843-11.493c18.086,0,219.921,0,236.826,0c16.904,0,14.331,12.005,14.331,12.005V547.5H923.5z"/>
		<circle fill="#FFFFFF" stroke="#808080" stroke-width="5" stroke-miterlimit="10" cx="966.558" cy="509.652" r="25.892"/>
		<circle fill="#FFFFFF" stroke="#808080" stroke-width="5" stroke-miterlimit="10" cx="1029.469" cy="509.652" r="25.892"/>
		<circle fill="#FFFFFF" stroke="#808080" stroke-width="5" stroke-miterlimit="10" cx="1092.381" cy="509.652" r="25.892"/>
		<circle fill="#FFFFFF" stroke="#808080" stroke-width="5" stroke-miterlimit="10" cx="1155.293" cy="509.652" r="25.892"/>
		<line fill="none" stroke="#999999" stroke-miterlimit="10" x1="966.558" y1="509.652" x2="954.102" y2="522.107"/>
		
			<line fill="none" stroke="#999999" stroke-linecap="round" stroke-miterlimit="10" x1="966.558" y1="509.652" x2="978.783" y2="497.427"/>
		<polygon fill="#999999" stroke="#999999" stroke-miterlimit="10" points="957.554,521.289 952.699,523.487 954.896,518.633 		"/>
		<circle fill="none" stroke="#999999" stroke-miterlimit="10" cx="966.604" cy="509.605" r="21.338"/>
		<circle fill="#666666" stroke="#666666" stroke-miterlimit="10" cx="966.557" cy="509.652" r="1.374"/>
		<line fill="none" stroke="#999999" stroke-miterlimit="10" x1="1029.469" y1="509.652" x2="1017.015" y2="522.107"/>
		
			<line fill="none" stroke="#999999" stroke-linecap="round" stroke-miterlimit="10" x1="1029.469" y1="509.652" x2="1041.695" y2="497.427"/>
		<polygon fill="#999999" stroke="#999999" stroke-miterlimit="10" points="1020.466,521.289 1015.609,523.487 1017.808,518.633 		
			"/>
		<circle fill="none" stroke="#999999" stroke-miterlimit="10" cx="1029.516" cy="509.605" r="21.338"/>
		<circle fill="#666666" stroke="#666666" stroke-miterlimit="10" cx="1029.469" cy="509.652" r="1.373"/>
		<line fill="none" stroke="#999999" stroke-miterlimit="10" x1="1092.38" y1="509.652" x2="1079.926" y2="522.107"/>
		
			<line fill="none" stroke="#999999" stroke-linecap="round" stroke-miterlimit="10" x1="1092.38" y1="509.652" x2="1104.606" y2="497.427"/>
		<polygon fill="#999999" stroke="#999999" stroke-miterlimit="10" points="1083.377,521.289 1078.521,523.487 1080.719,518.633 		
			"/>
		<circle fill="none" stroke="#999999" stroke-miterlimit="10" cx="1092.427" cy="509.605" r="21.338"/>
		<circle fill="#666666" stroke="#666666" stroke-miterlimit="10" cx="1092.38" cy="509.652" r="1.374"/>
		<line fill="none" stroke="#999999" stroke-miterlimit="10" x1="1155.292" y1="509.652" x2="1142.837" y2="522.107"/>
		
			<line fill="none" stroke="#999999" stroke-linecap="round" stroke-miterlimit="10" x1="1155.292" y1="509.652" x2="1167.518" y2="497.427"/>
		<polygon fill="#999999" stroke="#999999" stroke-miterlimit="10" points="1146.289,521.289 1141.433,523.487 1143.631,518.633 		
			"/>
		<circle fill="none" stroke="#999999" stroke-miterlimit="10" cx="1155.338" cy="509.605" r="21.338"/>
		<circle fill="#666666" stroke="#666666" stroke-miterlimit="10" cx="1155.291" cy="509.652" r="1.373"/>
		<g>
			<path fill="#999999" stroke="#999999" stroke-miterlimit="10" d="M176.5,564.5h-30.829c-0.514,0-1.171-2.131-2.171-2.806V504.5
				h-12v57.194c0,0.26-0.878,0.489-1.254,0.866c-0.575,0.574-1.016,1.94-1.33,1.94H80.5v5h48.416c0.514,2,1.584,2.137,2.584,2.812
				V670.5h12v-98.188c1-0.675,1.657-0.812,2.171-2.812H176.5V564.5z"/>
			<polygon fill="#999999" stroke="#999999" stroke-miterlimit="10" points="254.5,547.056 254.5,572.5 824.5,572.5 824.5,548.001 
							"/>
		</g>
		<rect x="824.5" y="547.5" fill="#999999" stroke="#999999" stroke-miterlimit="10" width="384" height="25"/>
		<rect x="1225.5" y="591.5" fill="#999999" stroke="#999999" stroke-miterlimit="10" width="12" height="79"/>
		<path fill="#999999" stroke="#999999" stroke-miterlimit="10" d="M621.5,525.09v0.199c0,1.918-1,3.522-2,3.983V546.5h-5v-17.227
			c-2-0.3-1.741,0.227-2.256-2.773H498.897c-0.759,0-1.918,3-3.214,3h-2.5c-2.279,0-4.682-2.699-4.682-4.977v-0.2
			c0-1.918,1-3.522,3-3.983v-60.117c-2-0.301-1.495-1.723-2.009-1.723H369.5v-5h120.467c0.759-1,1.919-3,3.215-3h2.5
			c2.279,0,4.818,3.262,4.818,5.541v0.198c0,1.92-1,3.522-3,3.983v60.117c2,0.301,1.358,1.16,1.872,2.16h113.35
			c0.758-1,1.918-1,3.214-1h2.501C620.715,521.5,621.5,522.812,621.5,525.09z"/>
		<path fill="#999999" stroke="#999999" stroke-miterlimit="10" d="M165.5,473.5H98.412c-0.761,0-1.918-2-3.215-2h-2.502
			c-2.279,0-4.195,2.209-4.195,4.488v0.199c0,1.918,2,3.522,3,3.982v60.33h5v-60.33c1-0.301,1.873-0.67,2.387-2.67H165.5V473.5z"/>
		<rect x="27.5" y="982.5" fill="#333333" stroke="#333333" stroke-miterlimit="10" width="1398" height="25"/>
		<rect x="1225.5" y="533.5" fill="#999999" stroke="#999999" stroke-miterlimit="10" width="12" height="9"/>
		<rect x="1215.5" y="586.5" fill="#999999" stroke="#999999" stroke-miterlimit="10" width="32" height="5"/>
		<path fill="#808080" stroke="#808080" stroke-miterlimit="10" d="M1254.5,582.185c0,3.488-2.828,6.315-6.316,6.315h-33.367
			c-3.488,0-6.316-2.827-6.316-6.315v-33.369c0-3.488,2.828-6.315,6.316-6.315h33.367c3.488,0,6.316,2.827,6.316,6.315V582.185z"/>
		<circle fill="#C8C8C8" stroke="#C8C8C8" stroke-miterlimit="10" cx="1231.725" cy="563.934" r="16.053"/>
		<rect x="1217.5" y="415.5" fill="#999999" stroke="#999999" stroke-miterlimit="10" width="27" height="118"/>
		<rect x="1224.5" y="410.5" fill="#999999" stroke="#999999" stroke-miterlimit="10" width="14" height="5"/>
		<path fill="#999999" stroke="#999999" stroke-miterlimit="10" d="M301.5,556.262c0-5.084-5.926-9.762-12.73-9.762H166.582
			c-6.805,0-14.082,4.678-14.082,9.762v7.672c0,5.084,7.277,8.566,14.082,8.566H288.77c6.804,0,12.73-3.482,12.73-8.566V556.262z"/>
		<rect x="150.5" y="453.5" fill="#999999" stroke="#999999" stroke-miterlimit="10" width="227" height="5"/>
		<rect x="76.5" y="586.5" fill="#999999" stroke="#999999" stroke-miterlimit="10" width="33" height="5"/>
		<path fill="#808080" stroke="#808080" stroke-miterlimit="10" d="M117.5,582.185c0,3.488-2.827,6.315-6.315,6.315H77.815
			c-3.488,0-6.315-2.828-6.315-6.315v-33.369c0-3.488,2.827-6.315,6.315-6.315h33.369c3.488,0,6.315,2.828,6.315,6.315V582.185z"/>
		<circle fill="#C8C8C8" stroke="#C8C8C8" stroke-miterlimit="10" cx="93.946" cy="563.934" r="16.053"/>
		<rect x="87.5" y="591.5" fill="#999999" stroke="#999999" stroke-miterlimit="10" width="12" height="79"/>
		<rect x="76.5" y="669.5" fill="#808080" stroke="#808080" stroke-miterlimit="10" width="1302" height="312"/>
		<path fill="#999999" stroke="#999999" stroke-miterlimit="10" d="M1313.06,693.5c0-1.273-1.032-2-2.308-2H683.373
			c-1.273,0-2.306,0.727-2.306,2l0,0c0,1.271,1.033,2,2.306,2h627.379C1312.028,695.5,1313.06,694.771,1313.06,693.5L1313.06,693.5z
			"/>
		<g>
			<path fill="#999999" stroke="#999999" stroke-width="5" stroke-miterlimit="10" d="M735.5,726.538v72.209
				c0,4.212-2.032,8.753-6.244,8.753H639.4c-4.211,0-6.9-4.541-6.9-8.753v-72.209c0-4.212,2.688-8.038,6.9-8.038h33.221
				c-2.387,2-4.021,3.875-4.021,6.729c0.031,2.623,4.511,6.844,7.288,7.391c5.47,1.948,11.447,1.808,16.112,0.051
				c4.572-2.171,7.288-5.551,7.288-7.469c0-2.853-1.634-4.701-4.021-6.701h33.988C733.468,718.5,735.5,722.326,735.5,726.538z"/>
			<path fill="#808080" stroke="#808080" stroke-width="5" stroke-miterlimit="10" d="M728.5,793.09c0,3.54-2.87,6.41-6.41,6.41
				H646.91c-3.54,0-6.41-2.87-6.41-6.41v-60.18c0-3.54,2.87-6.41,6.41-6.41h75.181c3.54,0,6.41,2.87,6.41,6.41V793.09z"/>
			<rect x="679.5" y="734.5" fill="#999999" stroke="#999999" stroke-miterlimit="10" width="8" height="129"/>
			<rect x="649.5" y="742.5" fill="#C8C8C8" stroke="#C8C8C8" stroke-width="5" stroke-miterlimit="10" width="68" height="56"/>
			<rect x="682.5" y="742.5" fill="#808080" stroke="#808080" stroke-miterlimit="10" width="4" height="56"/>
			<rect x="713.5" y="742.5" fill="#808080" stroke="#808080" stroke-miterlimit="10" width="2" height="56"/>
			<rect x="650.5" y="742.5" fill="#808080" stroke="#808080" stroke-miterlimit="10" width="4" height="56"/>
			<path fill="#999999" stroke="#999999" stroke-width="5" stroke-miterlimit="10" d="M699.289,725.433
				c0,1.919-2.716,5.117-7.288,7.288c-4.665,1.756-10.643,1.95-16.112,0c-2.777-0.545-7.257-4.665-7.288-7.288
				c0-2.854,1.63-5.316,4.017-6.522c0.874-0.438,1.882-0.706,2.882-0.76v-5.378c0-4.665,3.778-8.438,8.442-8.438
				c2.332,0,4.502,0.942,6.028,2.469c1.527,1.528,2.53,3.638,2.53,5.97v5.378c1,0.054,1.951,0.322,2.827,0.76
				C697.713,720.116,699.289,722.579,699.289,725.433z"/>
			<rect x="663" y="811" fill="none" stroke="#999999" stroke-width="8" stroke-miterlimit="10" width="42" height="18"/>
			<path fill="#999999" stroke="#999999" stroke-miterlimit="10" d="M708.5,832.252v3.248h2v15h-8v11h4v4h-4v6h-3v-6h-2.79
				c-0.674,5-3.21,6.707-4.21,8.572V978.5h-17V874.072c-1-1.565-3.026-3.572-3.899-7.572H668.5v5h-2v-5h-66.342
				c-1.243,2-3.061,4-5.094,4h-2.532c-3.751,0-7.031-3.485-7.031-7.237v-0.23c0-2.693,1-5.019,4-6.115V726.5h9v130.417
				c0,0.538,1.573,1.583,2.24,2.583h65.76v-9h-11v-15h4v-3.248c-2-0.568-4-2.233-4-4.204v-8.056c0-2.44,2.798-4.492,5.237-4.492
				h0.384c2.439,0,5.379,2.052,5.379,4.492v8.056c0,1.971-2,3.636-4,4.204v3.248h4v9h2v15h3.107c1.742-6,6.614-8.975,12.337-8.975
				c6.552,0,11.977,3.975,12.897,10.975h2.658v-17h3v-9h3v-3.248c-1-0.568-3-2.233-3-4.204v-8.056c0-2.44,1.83-4.492,4.269-4.492
				h0.385c2.439,0,3.347,2.052,3.347,4.492v8.056C710.5,830.019,709.5,831.684,708.5,832.252z"/>
			<line fill="none" stroke="#999999" stroke-width="5" stroke-miterlimit="10" x1="683.5" y1="705" x2="683.5" y2="693"/>
		</g>
		<rect x="108.5" y="722.5" fill="#999999" stroke="#999999" stroke-miterlimit="10" width="1057" height="8"/>
		<g>
			<path fill="#999999" stroke="#999999" stroke-width="5" stroke-miterlimit="10" d="M897.5,726.538v72.209
				c0,4.212-3.685,8.753-7.896,8.753h-89.856c-4.212,0-8.248-4.541-8.248-8.753v-72.209c0-4.212,4.036-8.038,8.248-8.038h33.221
				c-2.387,2-4.021,3.875-4.021,6.729c0.031,2.623,4.511,6.844,7.289,7.391c5.469,1.948,11.446,1.808,16.111,0.051
				c4.572-2.171,7.288-5.551,7.288-7.469c0-2.853-1.634-4.701-4.02-6.701h33.987C893.815,718.5,897.5,722.326,897.5,726.538z"/>
			<path fill="#808080" stroke="#808080" stroke-width="5" stroke-miterlimit="10" d="M888.5,793.09c0,3.54-2.87,6.41-6.41,6.41
				H806.91c-3.54,0-6.41-2.87-6.41-6.41v-60.18c0-3.54,2.87-6.41,6.41-6.41h75.181c3.54,0,6.41,2.87,6.41,6.41V793.09z"/>
			<rect x="840.5" y="734.5" fill="#999999" stroke="#999999" stroke-miterlimit="10" width="9" height="129"/>
			<rect x="811.5" y="742.5" fill="#C8C8C8" stroke="#C8C8C8" stroke-width="5" stroke-miterlimit="10" width="67" height="56"/>
			<rect x="842.5" y="742.5" fill="#808080" stroke="#808080" stroke-miterlimit="10" width="3" height="56"/>
			<rect x="874.5" y="742.5" fill="#808080" stroke="#808080" stroke-miterlimit="10" width="2" height="56"/>
			<rect x="812.5" y="742.5" fill="#808080" stroke="#808080" stroke-miterlimit="10" width="3" height="56"/>
			<path fill="#999999" stroke="#999999" stroke-width="5" stroke-miterlimit="10" d="M859.637,725.433
				c0,1.919-2.716,5.117-7.288,7.288c-4.665,1.756-10.642,1.95-16.111,0c-2.778-0.545-7.258-4.665-7.289-7.288
				c0-2.854,1.957-5.316,4.344-6.522c0.874-0.438,1.208-0.706,3.208-0.76v-5.378c0-4.665,3.451-8.438,8.116-8.438
				c2.332,0,4.666,0.942,6.192,2.469c1.526,1.528,2.692,3.638,2.692,5.97v5.378c0,0.054,1.625,0.322,2.501,0.76
				C858.387,720.116,859.637,722.579,859.637,725.433z"/>
			<rect x="824" y="811" fill="none" stroke="#999999" stroke-width="8" stroke-miterlimit="10" width="40" height="18"/>
			<path fill="#999999" stroke="#999999" stroke-miterlimit="10" d="M869.5,832.252v3.248h3v15h-10v11h5v4h-5v6h-3v-6h-2.442
				c-0.674,5-2.558,6.707-5.558,8.572V978.5h-14V874.072c-3-1.565-4.679-3.572-5.552-7.572H828.5v5h-3v-5h-64.995
				c-1.243,2-3.061,4-5.094,4h-2.532c-3.752,0-6.379-3.485-6.379-7.237v-0.23c0-2.693,1-5.019,3-6.115V726.5h8v130.417
				c2,0.538,2.921,1.583,3.587,2.583H825.5v-9h-9v-15h3v-3.248c-2-0.568-3-2.233-3-4.204v-8.056c0-2.44,2.146-4.492,4.584-4.492
				h0.384c2.439,0,4.031,2.052,4.031,4.492v8.056c0,1.971-1,3.636-2,4.204v3.248h2v9h3v15h3.455c1.742-6,6.615-8.975,12.337-8.975
				c6.552,0,11.977,3.975,12.897,10.975h2.31v-17h3v-9h3v-3.248c-2-0.568-3-2.233-3-4.204v-8.056c0-2.44,2.177-4.492,4.616-4.492
				h0.384c2.439,0,5,2.052,5,4.492v8.056C872.5,830.019,871.5,831.684,869.5,832.252z"/>
			<line fill="none" stroke="#999999" stroke-width="5" stroke-miterlimit="10" x1="844.5" y1="705" x2="844.5" y2="693"/>
		</g>
		<rect x="108.5" y="933.5" fill="#999999" stroke="#999999" stroke-miterlimit="10" width="312" height="45"/>
		<rect x="108.5" y="839.5" fill="#999999" stroke="#999999" stroke-miterlimit="10" width="174" height="77"/>
		<rect x="108.5" y="920.5" fill="#999999" stroke="#999999" stroke-miterlimit="10" width="354" height="10"/>
		<rect x="420.5" y="861.5" fill="#999999" stroke="#999999" stroke-miterlimit="10" width="30" height="59"/>
		<path fill="#999999" stroke="#999999" stroke-miterlimit="10" d="M484.074,816.354c-0.329,0.3-0.728,0.483-1.143,0.554
			c-0.214,5.754-1.396,11.255-3.382,16.355c0.313,0.123,0.607,0.322,0.851,0.591c0.836,0.938,0.767,2.372-0.162,3.216
			c-0.713,0.643-1.72,0.759-2.531,0.359c-2.463,4.957-5.709,9.446-9.574,13.312c0.828,0.936,0.759,2.364-0.17,3.206
			c-0.928,0.838-2.354,0.776-3.2-0.137c-8.791,7.343-20.107,11.762-32.454,11.762c-27.98,0-50.681-22.68-50.681-50.66
			c0-13.134,5.01-25.109,13.22-34.11c-0.752-0.928-0.661-2.301,0.237-3.115c0.843-0.759,2.101-0.774,2.954-0.091
			c3.767-3.46,8.055-6.36,12.736-8.555c-0.545-0.914-0.4-2.117,0.422-2.861c0.936-0.844,2.377-0.767,3.222,0.162
			c0.253,0.282,0.187,0.62,0.264,0.965c4.734-1.733,9.817-2.769,14.817-3.007v-0.054c0-1.251,1.241-2.271,2.5-2.271
			s2.5,1.021,2.5,2.271v0.054c6,0.222,9.888,1.173,14.422,2.754c0.122-0.322,0.345-0.621,0.614-0.874
			c0.936-0.844,2.388-0.767,3.233,0.162c0.605,0.674,0.742,1.617,0.413,2.4c4.933,2.225,9.447,5.223,13.383,8.837
			c0.936-0.729,2.288-0.62,3.093,0.269c0.75,0.844,0.775,2.087,0.092,2.94c3.221,3.521,5.947,7.502,8.072,11.829
			c0.865-0.36,1.909-0.16,2.578,0.576c0.835,0.935,0.767,2.37-0.163,3.214c-0.185,0.162-0.383,0.292-0.597,0.383
			c1.872,4.897,3.015,10.15,3.275,15.638c0.492,0.076,0.96,0.314,1.32,0.713C485.072,814.076,485.003,815.511,484.074,816.354z"/>
		<circle fill="#999999" stroke="#999999" stroke-miterlimit="10" cx="1121.626" cy="767.102" r="2.277"/>
		<path fill="#666666" stroke="#666666" stroke-miterlimit="10" d="M472.95,811.836c0,11.631-5.954,21.873-14.983,27.851
			l-0.015,0.015l-115.159,79.185c-13.626,11.193-31.073,17.907-50.083,17.907c-43.616,0-78.978-35.361-78.978-78.979
			c0-43.615,35.362-78.977,78.978-78.977l146.867-0.375C458.004,778.463,472.95,793.399,472.95,811.836z"/>
		<path fill="#E6E6E6" stroke="#E6E6E6" stroke-width="5" stroke-miterlimit="10" d="M462.166,814.112
			c0,10.663-5.458,20.053-13.736,25.532l-0.015,0.014l-105.578,72.597c-12.492,10.263-28.486,16.417-45.915,16.417
			c-39.989,0-72.407-32.419-72.407-72.405c0-39.989,32.419-72.408,72.407-72.408l134.647-0.345
			C448.464,783.514,462.166,797.21,462.166,814.112z"/>
		<rect x="108.5" y="669.5" fill="#999999" stroke="#999999" stroke-miterlimit="10" width="8" height="61"/>
		<rect x="108.5" y="730.5" fill="#999999" stroke="#999999" stroke-miterlimit="10" width="8" height="109"/>
		<path fill="#999999" stroke="#999999" stroke-miterlimit="10" d="M123.101,725c0,4.236-3.634,7.5-8.115,7.5h-2.951
			c-4.483,0-8.115-3.264-8.115-7.5l0,0c0-4.236,3.633-7.5,8.115-7.5h2.951C119.467,717.5,123.101,720.764,123.101,725L123.101,725z"
			/>
		<path fill="#999999" stroke="#999999" stroke-width="5" stroke-miterlimit="10" d="M1057.5,726.538v72.209
			c0,4.212-3.348,8.753-7.56,8.753h-89.855c-4.212,0-7.585-4.541-7.585-8.753v-72.209c0-4.212,3.373-8.038,7.585-8.038h33.22
			c-2.386,2-4.02,3.875-4.02,6.729c0.031,2.623,4.511,6.844,7.288,7.391c5.47,1.948,11.447,1.808,16.111,0.051
			c4.573-2.171,7.289-5.551,7.289-7.469c0-2.853-1.633-4.701-4.021-6.701h33.988C1054.152,718.5,1057.5,722.326,1057.5,726.538z"/>
		<path fill="#808080" stroke="#808080" stroke-width="5" stroke-miterlimit="10" d="M1048.5,793.09c0,3.54-2.87,6.41-6.41,6.41
			h-75.18c-3.54,0-6.41-2.87-6.41-6.41v-60.18c0-3.54,2.87-6.41,6.41-6.41h75.18c3.54,0,6.41,2.87,6.41,6.41V793.09z"/>
		<rect x="999.5" y="734.5" fill="#999999" stroke="#999999" stroke-miterlimit="10" width="9" height="129"/>
		<rect x="970.5" y="742.5" fill="#C8C8C8" stroke="#C8C8C8" stroke-width="5" stroke-miterlimit="10" width="67" height="56"/>
		<rect x="1002.5" y="742.5" fill="#808080" stroke="#808080" stroke-miterlimit="10" width="5" height="56"/>
		<rect x="1033.5" y="742.5" fill="#808080" stroke="#808080" stroke-miterlimit="10" width="3" height="56"/>
		<rect x="972.5" y="742.5" fill="#808080" stroke="#808080" stroke-miterlimit="10" width="2" height="56"/>
		<path fill="#999999" stroke="#999999" stroke-width="5" stroke-miterlimit="10" d="M1019.973,725.433
			c0,1.919-2.716,5.117-7.289,7.288c-4.665,1.756-10.641,1.95-16.111,0c-2.777-0.545-7.258-4.665-7.288-7.288
			c0-2.854,1.79-5.316,4.175-6.522c0.874-0.438,2.04-0.706,3.04-0.76v-5.378c0-4.665,3.619-8.438,8.284-8.438
			c2.332,0,4.081,0.942,5.608,2.469c1.526,1.528,2.108,3.638,2.108,5.97v5.378c2,0.054,2.294,0.322,3.169,0.76
			C1018.055,720.116,1019.973,722.579,1019.973,725.433z"/>
		<rect x="985" y="811" fill="none" stroke="#999999" stroke-width="8" stroke-miterlimit="10" width="40" height="18"/>
		<path fill="#999999" stroke="#999999" stroke-miterlimit="10" d="M1029.5,832.252v3.248h3v15h-9v11h4v4h-4v6h-3v-6h-3.104
			c-0.676,5-2.896,6.707-4.896,8.572V978.5h-16V874.072c-2-1.565-3.34-3.572-4.216-7.572H989.5v5h-3v-5h-65.658
			c-1.244,2-3.062,4-5.094,4h-2.532c-3.751,0-7.716-3.485-7.716-7.237v-0.23c0-2.693,2-5.019,5-6.115V726.5h9v130.417
			c0,0.538,1.258,1.583,1.924,2.583H986.5v-9h-10v-15h5v-3.248c-4-0.568-5-2.233-5-4.204v-8.056c0-2.44,2.481-4.492,4.92-4.492
			h0.383c2.441,0,4.697,2.052,4.697,4.492v8.056c0,1.971-1,3.636-3,4.204v3.248h3v9h3v15h2.792c1.742-6,6.614-8.975,12.337-8.975
			c6.552,0,11.977,3.975,12.897,10.975h2.974v-17h3v-9h2v-3.248c-1-0.568-2-2.233-2-4.204v-8.056c0-2.44,1.514-4.492,3.953-4.492
			h0.385c2.439,0,4.662,2.052,4.662,4.492v8.056C1032.5,830.019,1030.5,831.684,1029.5,832.252z"/>
		<path fill="#999999" stroke="#999999" stroke-width="5" stroke-miterlimit="10" d="M1217.5,726.538v72.209
			c0,4.212-3,8.753-7.212,8.753h-89.855c-4.213,0-7.933-4.541-7.933-8.753v-72.209c0-4.212,3.72-8.038,7.933-8.038h33.22
			c-2.386,2-4.021,3.875-4.021,6.729c0.031,2.623,4.511,6.844,7.289,7.391c5.471,1.948,11.447,1.808,16.111,0.051
			c4.573-2.171,7.289-5.551,7.289-7.469c0-2.853-1.634-4.701-4.021-6.701h33.988C1214.5,718.5,1217.5,722.326,1217.5,726.538z"/>
		<path fill="#808080" stroke="#808080" stroke-width="5" stroke-miterlimit="10" d="M1209.5,793.09c0,3.54-2.87,6.41-6.41,6.41
			h-75.181c-3.54,0-6.41-2.87-6.41-6.41v-60.18c0-3.54,2.87-6.41,6.41-6.41h75.181c3.54,0,6.41,2.87,6.41,6.41V793.09z"/>
		<rect x="1160.5" y="734.5" fill="#999999" stroke="#999999" stroke-miterlimit="10" width="9" height="129"/>
		<rect x="1131.5" y="742.5" fill="#C8C8C8" stroke="#C8C8C8" stroke-width="5" stroke-miterlimit="10" width="68" height="56"/>
		<rect x="1164.5" y="742.5" fill="#808080" stroke="#808080" stroke-miterlimit="10" width="2" height="56"/>
		<rect x="1194.5" y="742.5" fill="#808080" stroke="#808080" stroke-miterlimit="10" width="3" height="56"/>
		<rect x="1132.5" y="742.5" fill="#808080" stroke="#808080" stroke-miterlimit="10" width="3" height="56"/>
		<path fill="#999999" stroke="#999999" stroke-width="5" stroke-miterlimit="10" d="M1180.321,725.433
			c0,1.919-2.716,5.117-7.289,7.288c-4.665,1.756-10.641,1.95-16.111,0c-2.777-0.545-7.258-4.665-7.289-7.288
			c0-2.854,1.616-5.316,4.001-6.522c0.875-0.438,2.866-0.706,2.866-0.76v-5.378c0-4.665,3.793-8.438,8.458-8.438
			c2.332,0,4.994,0.942,6.52,2.469c1.526,1.528,3.022,3.638,3.022,5.97v5.378c0,0.054,1.468,0.322,2.342,0.76
			C1179.229,720.116,1180.321,722.579,1180.321,725.433z"/>
		<rect x="1144" y="811" fill="none" stroke="#999999" stroke-width="8" stroke-miterlimit="10" width="41" height="18"/>
		<path fill="#999999" stroke="#999999" stroke-miterlimit="10" d="M1190.5,832.252v3.248h3v15h-11v11h7v4h-7v6h-3v-6h-1.757
			c-0.676,5-2.243,6.707-5.243,8.572V978.5h-15V874.072c-2-1.565-3.993-3.572-4.869-7.572h-4.131v5h-2v-5h-65.311
			c-1.243,2-3.063,4-5.094,4h-2.533c-3.751,0-6.063-3.485-6.063-7.237v-0.23c0-2.693,1-5.019,3-6.115V726.5h9v130.417
			c1,0.538,1.605,1.583,2.272,2.583h64.728v-9h-10v-15h4v-3.248c-1-0.568-4-2.233-4-4.204v-8.056c0-2.44,2.829-4.492,5.269-4.492
			h0.383c2.44,0,4.348,2.052,4.348,4.492v8.056c0,1.971-2,3.636-3,4.204v3.248h3v9h2v15h4.14c1.742-6,6.614-8.975,12.336-8.975
			c6.553,0,11.977,3.975,12.897,10.975h1.626v-17h3v-9h3v-3.248c-2-0.568-3-2.233-3-4.204v-8.056c0-2.44,2.862-4.492,5.302-4.492
			h0.383c2.439,0,5.315,2.052,5.315,4.492v8.056C1193.5,830.019,1191.5,831.684,1190.5,832.252z"/>
		<line fill="none" stroke="#999999" stroke-width="5" stroke-miterlimit="10" x1="1004.5" y1="705" x2="1004.5" y2="693"/>
		<line fill="none" stroke="#999999" stroke-width="5" stroke-miterlimit="10" x1="1165.5" y1="705" x2="1165.5" y2="695"/>
		<path fill="#999999" stroke="#999999" stroke-miterlimit="10" d="M1311.5,844.617c0,2.393-1.018,4.336-2.5,4.336l0,0
			c-1.482,0-2.5-1.942-2.5-4.336V696.394c0-2.393,1.018-4.337,2.5-4.337l0,0c1.482,0,2.5,1.943,2.5,4.337V844.617z"/>
		<rect x="1334.5" y="712.5" fill="#999999" stroke="#999999" stroke-miterlimit="10" width="8" height="6"/>
		<rect x="1314.5" y="700.5" fill="#999999" stroke="#999999" stroke-miterlimit="10" width="4" height="27"/>
		<rect x="1314.5" y="700.5" fill="#999999" stroke="#999999" stroke-miterlimit="10" width="25" height="3"/>
		<rect x="1336.5" y="700.5" fill="#999999" stroke="#999999" stroke-miterlimit="10" width="3" height="14"/>
		<path fill="#999999" stroke="#999999" stroke-miterlimit="10" d="M1352.5,839.363v19.948c0,5.088-3.676,9.188-8.763,9.188h-1.237
			v110h-8V868.518c-7,0-10-4.118-10-9.206v-19.948c0-3.721,2-6.919,5-8.378V718.5h18v112.188
			C1351.5,831.945,1352.5,835.351,1352.5,839.363z"/>
		<path fill="#999999" stroke="#999999" stroke-miterlimit="10" d="M1346.084,844.5c0.61,0,1.106,1.017,1.106,2.5l0,0
			c0,1.483-0.496,2.5-1.106,2.5h-37.781c-0.609,0-1.104-1.017-1.104-2.5l0,0c0-1.483,0.495-2.5,1.104-2.5H1346.084z"/>
		<path fill="#999999" stroke="#999999" stroke-miterlimit="10" d="M1316.5,846.141c0,2.407-1.952,4.359-4.359,4.359h-3.282
			c-2.407,0-4.359-1.952-4.359-4.359v-0.281c0-2.407,1.952-4.359,4.359-4.359h3.282c2.407,0,4.359,1.952,4.359,4.359V846.141z"/>
		<rect x="986.5" y="978.5" fill="#333333" stroke="#333333" stroke-miterlimit="10" width="37" height="3"/>
		<rect x="825.5" y="978.5" fill="#333333" stroke="#333333" stroke-miterlimit="10" width="37" height="3"/>
		<rect x="666.5" y="978.5" fill="#333333" stroke="#333333" stroke-miterlimit="10" width="35" height="3"/>
		<rect x="1147.5" y="978.5" fill="#333333" stroke="#333333" stroke-miterlimit="10" width="35" height="3"/>
		<rect x="1320.5" y="978.5" fill="#333333" stroke="#333333" stroke-miterlimit="10" width="37" height="3"/>
		<rect x="100.5" y="978.5" fill="#333333" stroke="#333333" stroke-miterlimit="10" width="329" height="3"/>
		<rect x="1164.5" y="727.5" fill="#999999" stroke="#999999" stroke-miterlimit="10" width="154" height="5"/>
		<g>
			<path fill="#808080" stroke="#808080" stroke-miterlimit="10" d="M123.5,455.381c0,7.654,0,21.936,0,28.43
				c0,5.877,3.868,4.69,6.113,4.69c6.138,0,65.886,0,65.886,0c1.802-1,2.135-2.279,2.14-3.166c0-5.059-2.591-5.683-2.591-5.683
				l-65.435-26.214c0,0-3.221-1.545-4.69-1.762C123.74,451.676,123.5,453.06,123.5,455.381z"/>
			<path fill="#E6E6E6" stroke="#999999" stroke-width="0.25" stroke-miterlimit="10" d="M137.061,461.619
				c0,0,2.953-0.015,4.98-0.015c2.027,0,2.158,2.596,3.043,4.445c0.936,1.755,2.762,1.302,4.992,0
				c1.856-1.296,10.338-7.838,10.338-7.838s1.686-1.56,0.008-4.055c-8.696-10.216-23.361-10.139-23.361-10.139
				s-14.714-0.077-23.411,10.139c-1.677,2.495,0.014,4.055,0.014,4.055s8.484,6.542,10.34,7.838c2.23,1.302,4.06,1.755,4.994,0
				c0.883-1.85,1.019-4.445,3.046-4.445C134.069,461.604,137.061,461.619,137.061,461.619z"/>
			<rect x="134.5" y="486.5" fill="#808080" stroke="#808080" stroke-miterlimit="10" width="5" height="18"/>
			<circle fill="#999999" stroke="#999999" stroke-width="0.25" stroke-miterlimit="10" cx="137.037" cy="475.583" r="10.622"/>
			<rect x="160.5" y="475.5" fill="#999999" stroke="#999999" stroke-miterlimit="10" width="34" height="17"/>
			<rect x="169.5" y="477.5" fill="#C8C8C8" stroke="#C8C8C8" stroke-miterlimit="10" width="17" height="2"/>
			<rect x="169.5" y="488.5" fill="#C8C8C8" stroke="#C8C8C8" stroke-miterlimit="10" width="17" height="3"/>
			<rect x="165.5" y="474.5" fill="#C8C8C8" stroke="#999999" stroke-miterlimit="10" width="4" height="21"/>
			<rect x="186.5" y="474.5" fill="#C8C8C8" stroke="#999999" stroke-miterlimit="10" width="5" height="21"/>
			<rect x="164.5" y="477.566" fill="#C8C8C8" stroke="#C8C8C8" stroke-miterlimit="10" width="0" height="2.93"/>
			<rect x="193.5" y="477.566" fill="#C8C8C8" stroke="#C8C8C8" stroke-miterlimit="10" width="0" height="2.93"/>
			<path fill="#999999" stroke="#999999" stroke-miterlimit="10" d="M201.53,484.297c0,2.521-2.042,4.443-4.563,4.443
				c-0.353,0-0.695-0.24-1.024-0.24H194.5v-9h1.442c0.33,0,0.671,0.06,1.024,0.06C199.487,479.56,201.53,481.779,201.53,484.297z"/>
			<path fill="#C8C8C8" stroke="#C8C8C8" stroke-miterlimit="10" d="M159.5,482.5v4h-24.421c-2.405,0-4.422,0.23-5.029,0.449
				c-0.12,0.043-0.186,0.126-0.186,0.17c-0.501,0.341-1.104,0.555-1.754,0.555c-1.736,0-3.144-1.404-3.144-3.15
				c0-1.744,1.407-3.153,3.144-3.153c0.65,0,1.253,0.2,1.754,0.536c0,0.048,0.063,0.134,0.186,0.174
				c0.607,0.221,2.645,0.42,5.066,0.42H159.5z"/>
			<polygon fill="#333333" stroke="#333333" stroke-width="0.25" stroke-miterlimit="10" points="132.545,485.486 166.673,451.094 
				161.469,445.849 127.342,480.241 124.272,488.58 			"/>
			<path fill="#C1272D" stroke="#C1272D" stroke-miterlimit="10" d="M188.476,424.182c2.148,2.146,2.346,5.429,0.444,7.332
				l-20.963,20.963l-7.776-7.775l20.962-20.963C183.045,421.834,186.329,422.033,188.476,424.182z"/>
			<circle fill="#C8C8C8" stroke="#C8C8C8" stroke-width="0.25" stroke-miterlimit="10" cx="137.038" cy="475.583" r="2.317"/>
			<circle fill="#C8C8C8" stroke="#C8C8C8" stroke-width="0.25" stroke-miterlimit="10" cx="126.37" cy="463.769" r="2.339"/>
			<path fill="#C8C8C8" stroke="#C8C8C8" stroke-width="0.25" stroke-miterlimit="10" d="M199.775,484.297
				c0,1.262-1.021,2.283-2.282,2.283c-1.26,0-2.281-1.022-2.281-2.283c0-1.258,1.021-2.279,2.281-2.279
				C198.753,482.018,199.775,483.039,199.775,484.297z"/>
			<circle fill="#C8C8C8" stroke="#C8C8C8" stroke-width="0.25" stroke-miterlimit="10" cx="128.183" cy="484.532" r="1.871"/>
			<rect x="164.5" y="487.818" fill="#C8C8C8" stroke="#C8C8C8" stroke-miterlimit="10" width="0" height="2.93"/>
			<rect x="193.5" y="487.818" fill="#C8C8C8" stroke="#C8C8C8" stroke-miterlimit="10" width="0" height="2.93"/>
		</g>
		<g>
			<path fill="#808080" stroke="#808080" stroke-miterlimit="10" d="M1293.5,621.866c0,7.652,0,21.936,0,28.428
				c0,5.879,3.871,4.206,6.113,4.206c6.139,0,65.887,0,65.887,0c1.802,0,2.135-2.037,2.14-2.922c0-5.057-2.591-5.563-2.591-5.563
				l-65.436-26.153c0,0-3.221-1.515-4.69-1.731C1293.741,618.132,1293.5,619.545,1293.5,621.866z"/>
			<path fill="#E6E6E6" stroke="#999999" stroke-width="0.25" stroke-miterlimit="10" d="M1307.063,628.104
				c0,0,2.952-0.014,4.98-0.014c2.027,0,2.159,2.596,3.042,4.445c0.938,1.755,2.764,1.299,4.994,0
				c1.856-1.298,10.336-7.838,10.336-7.838s1.686-1.56,0.009-4.057c-8.696-10.216-23.361-10.137-23.361-10.137
				s-14.715-0.079-23.41,10.137c-1.678,2.496,0.013,4.057,0.013,4.057s8.484,6.54,10.34,7.838c2.231,1.299,4.059,1.755,4.994,0
				c0.883-1.85,1.017-4.445,3.045-4.445C1304.072,628.091,1307.063,628.104,1307.063,628.104z"/>
			<rect x="1304.5" y="653.5" fill="#808080" stroke="#808080" stroke-miterlimit="10" width="6" height="17"/>
			<circle fill="#999999" stroke="#999999" stroke-width="0.25" stroke-miterlimit="10" cx="1307.038" cy="642.068" r="10.623"/>
			<rect x="1329.5" y="643.5" fill="#999999" stroke="#999999" stroke-miterlimit="10" width="33" height="14"/>
			<rect x="1339.5" y="644.5" fill="#C8C8C8" stroke="#C8C8C8" stroke-miterlimit="10" width="18" height="1"/>
			<rect x="1339.5" y="654.5" fill="#C8C8C8" stroke="#C8C8C8" stroke-miterlimit="10" width="18" height="2"/>
			<rect x="1336.5" y="640.5" fill="#C8C8C8" stroke="#999999" stroke-miterlimit="10" width="3" height="22"/>
			<rect x="1357.5" y="640.5" fill="#C8C8C8" stroke="#999999" stroke-miterlimit="10" width="4" height="22"/>
			<rect x="1335.5" y="643.061" fill="#C8C8C8" stroke="#C8C8C8" stroke-miterlimit="10" width="0" height="4.394"/>
			<rect x="1361.5" y="643.5" fill="#C8C8C8" stroke="#C8C8C8" stroke-miterlimit="10" width="1" height="4"/>
			<path fill="#999999" stroke="#999999" stroke-miterlimit="10" d="M1371.53,650.784c0,2.52-2.042,4.198-4.562,4.198
				c-0.354,0-0.696-0.482-1.025-0.482h-3.443v-9h3.443c0.33,0,0.671,0.302,1.025,0.302
				C1369.488,645.802,1371.53,648.265,1371.53,650.784z"/>
			<path fill="#C8C8C8" stroke="#C8C8C8" stroke-miterlimit="10" d="M1329.5,649.5v4h-24.42c-2.403,0-4.422-0.026-5.029,0.19
				c-0.122,0.045-0.186-0.002-0.186,0.045c-0.5,0.341-1.104,0.488-1.754,0.488c-1.737,0-3.144-1.435-3.144-3.18
				c0-1.746,1.407-3.172,3.144-3.172c0.65,0,1.254,0.191,1.754,0.53c0,0.046,0.063,0.385,0.184,0.427
				c0.608,0.222,2.646,0.672,5.068,0.672H1329.5z"/>
			<polygon fill="#333333" stroke="#333333" stroke-width="0.25" stroke-miterlimit="10" points="1302.547,651.973 1336.674,617.58 
				1331.472,612.334 1297.343,646.727 1294.273,655.065 			"/>
			<path fill="#C1272D" stroke="#C1272D" stroke-width="0.25" stroke-miterlimit="10" d="M1358.477,590.666
				c2.147,2.146,2.346,5.429,0.443,7.332l-20.963,20.965l-7.776-7.775l20.962-20.965
				C1353.048,588.32,1356.33,588.519,1358.477,590.666z"/>
			<circle fill="#C8C8C8" stroke="#C8C8C8" stroke-width="0.25" stroke-miterlimit="10" cx="1307.039" cy="642.068" r="2.317"/>
			<circle fill="#C8C8C8" stroke="#C8C8C8" stroke-width="0.25" stroke-miterlimit="10" cx="1296.371" cy="630.254" r="2.339"/>
			<circle fill="#C8C8C8" stroke="#C8C8C8" stroke-width="0.25" stroke-miterlimit="10" cx="1367.495" cy="650.784" r="2.281"/>
			<circle fill="#C8C8C8" stroke="#C8C8C8" stroke-width="0.25" stroke-miterlimit="10" cx="1298.184" cy="651.018" r="1.871"/>
			<rect x="1335.5" y="654.776" fill="#C8C8C8" stroke="#C8C8C8" stroke-miterlimit="10" width="0" height="2.929"/>
			<rect x="1361.5" y="654.5" fill="#C8C8C8" stroke="#C8C8C8" stroke-miterlimit="10" width="1" height="3"/>
			<rect x="1289.5" y="665.5" fill="#333333" stroke="#333333" stroke-miterlimit="10" width="35" height="2"/>
		</g>
		<g>
			<path fill="#808080" stroke="#808080" stroke-miterlimit="10" d="M1190.5,621.866c0,7.652,0,21.936,0,28.428
				c0,5.879,3.297,4.206,5.539,4.206c6.138,0,65.887,0,65.887,0c1.802,0,2.136-2.037,2.14-2.922c0-5.057-2.592-5.563-2.592-5.563
				l-65.435-26.153c0,0-2.935-1.515-4.403-1.731C1190.453,618.132,1190.5,619.545,1190.5,621.866z"/>
			<path fill="#E6E6E6" stroke="#999999" stroke-width="0.25" stroke-miterlimit="10" d="M1203.489,628.104
				c0,0,2.952-0.014,4.979-0.014s2.16,2.596,3.043,4.445c0.937,1.755,2.763,1.299,4.994,0c1.854-1.298,10.336-7.838,10.336-7.838
				s1.685-1.56,0.009-4.057c-8.695-10.216-23.361-10.137-23.361-10.137s-14.715-0.079-23.411,10.137
				c-1.677,2.496,0.014,4.057,0.014,4.057s8.483,6.54,10.339,7.838c2.231,1.299,4.06,1.755,4.994,0
				c0.885-1.85,1.018-4.445,3.045-4.445C1200.498,628.091,1203.489,628.104,1203.489,628.104z"/>
			<rect x="1200.5" y="653.5" fill="#808080" stroke="#808080" stroke-miterlimit="10" width="6" height="17"/>
			<circle fill="#999999" stroke="#999999" stroke-width="0.25" stroke-miterlimit="10" cx="1203.465" cy="642.068" r="10.623"/>
			<rect x="1226.5" y="643.5" fill="#999999" stroke="#999999" stroke-miterlimit="10" width="34" height="14"/>
			<rect x="1237.5" y="644.5" fill="#C8C8C8" stroke="#C8C8C8" stroke-miterlimit="10" width="17" height="1"/>
			<rect x="1237.5" y="654.5" fill="#C8C8C8" stroke="#C8C8C8" stroke-miterlimit="10" width="17" height="2"/>
			<rect x="1232.5" y="640.5" fill="#C8C8C8" stroke="#999999" stroke-miterlimit="10" width="5" height="22"/>
			<rect x="1254.5" y="640.5" fill="#C8C8C8" stroke="#999999" stroke-miterlimit="10" width="3" height="22"/>
			<rect x="1230.5" y="643.061" fill="#C8C8C8" stroke="#C8C8C8" stroke-miterlimit="10" width="0" height="4.394"/>
			<rect x="1259.5" y="643.061" fill="#C8C8C8" stroke="#C8C8C8" stroke-miterlimit="10" width="0" height="4.394"/>
			<path fill="#999999" stroke="#999999" stroke-miterlimit="10" d="M1267.957,650.784c0,2.52-2.042,4.198-4.562,4.198
				c-0.354,0-0.695-0.482-1.025-0.482h-1.87v-9h1.87c0.33,0,0.671,0.302,1.025,0.302
				C1265.915,645.802,1267.957,648.265,1267.957,650.784z"/>
			<path fill="#C8C8C8" stroke="#C8C8C8" stroke-miterlimit="10" d="M1225.5,649.5v4h-23.994c-2.403,0-4.423-0.026-5.028,0.19
				c-0.122,0.045-0.186-0.002-0.186,0.045c-0.501,0.341-1.105,0.488-1.754,0.488c-1.738,0-3.145-1.435-3.145-3.18
				c0-1.746,1.407-3.172,3.145-3.172c0.649,0,1.253,0.191,1.754,0.53c0,0.046,0.063,0.385,0.185,0.427
				c0.607,0.222,2.645,0.672,5.067,0.672H1225.5z"/>
			<polygon fill="#333333" stroke="#333333" stroke-width="0.25" stroke-miterlimit="10" points="1198.974,651.973 1233.102,617.58 
				1227.897,612.334 1193.769,646.727 1190.7,655.065 			"/>
			<path fill="#C1272D" stroke="#C1272D" stroke-width="0.25" stroke-miterlimit="10" d="M1254.904,590.666
				c2.147,2.146,2.345,5.429,0.443,7.332l-20.963,20.965l-7.776-7.775l20.963-20.965
				C1249.474,588.32,1252.756,588.519,1254.904,590.666z"/>
			<circle fill="#C8C8C8" stroke="#C8C8C8" stroke-width="0.25" stroke-miterlimit="10" cx="1203.465" cy="642.068" r="2.316"/>
			<circle fill="#C8C8C8" stroke="#C8C8C8" stroke-width="0.25" stroke-miterlimit="10" cx="1192.797" cy="630.254" r="2.34"/>
			<circle fill="#C8C8C8" stroke="#C8C8C8" stroke-width="0.25" stroke-miterlimit="10" cx="1263.921" cy="650.784" r="2.281"/>
			<circle fill="#C8C8C8" stroke="#C8C8C8" stroke-width="0.25" stroke-miterlimit="10" cx="1194.611" cy="651.018" r="1.872"/>
			<rect x="1230.5" y="654.776" fill="#C8C8C8" stroke="#C8C8C8" stroke-miterlimit="10" width="0" height="2.929"/>
			<rect x="1259.5" y="654.776" fill="#C8C8C8" stroke="#C8C8C8" stroke-miterlimit="10" width="0" height="2.929"/>
			<rect x="1185.5" y="665.5" fill="#333333" stroke="#333333" stroke-miterlimit="10" width="36" height="2"/>
		</g>
		<g>
			<path fill="#808080" stroke="#808080" stroke-miterlimit="10" d="M1085.5,621.866c0,7.652,0,21.936,0,28.428
				c0,5.879,4.722,4.206,6.965,4.206c6.139,0,65.888,0,65.888,0c1.802,0,2.135-2.037,2.14-2.922c0-5.057-2.592-5.563-2.592-5.563
				l-65.436-26.153c0,0-3.647-1.515-5.116-1.731C1086.167,618.132,1085.5,619.545,1085.5,621.866z"/>
			<path fill="#E6E6E6" stroke="#999999" stroke-width="0.25" stroke-miterlimit="10" d="M1099.915,628.104
				c0,0,2.952-0.014,4.979-0.014s2.159,2.596,3.042,4.445c0.937,1.755,2.764,1.299,4.994,0c1.855-1.298,10.336-7.838,10.336-7.838
				s1.686-1.56,0.01-4.057c-8.696-10.216-23.361-10.137-23.361-10.137s-14.715-0.079-23.41,10.137
				c-1.678,2.496,0.014,4.057,0.014,4.057s8.482,6.54,10.339,7.838c2.231,1.299,4.06,1.755,4.994,0
				c0.884-1.85,1.017-4.445,3.044-4.445C1096.924,628.091,1099.915,628.104,1099.915,628.104z"/>
			<rect x="1097.5" y="653.5" fill="#808080" stroke="#808080" stroke-miterlimit="10" width="5" height="17"/>
			<circle fill="#999999" stroke="#999999" stroke-width="0.25" stroke-miterlimit="10" cx="1099.891" cy="642.068" r="10.623"/>
			<rect x="1122.5" y="643.5" fill="#999999" stroke="#999999" stroke-miterlimit="10" width="34" height="14"/>
			<rect x="1132.5" y="644.5" fill="#C8C8C8" stroke="#C8C8C8" stroke-miterlimit="10" width="19" height="1"/>
			<rect x="1132.5" y="654.5" fill="#C8C8C8" stroke="#C8C8C8" stroke-miterlimit="10" width="19" height="2"/>
			<rect x="1128.5" y="640.5" fill="#C8C8C8" stroke="#999999" stroke-miterlimit="10" width="4" height="22"/>
			<rect x="1151.5" y="640.5" fill="#C8C8C8" stroke="#999999" stroke-miterlimit="10" width="2" height="22"/>
			<rect x="1127.5" y="643.5" fill="#C8C8C8" stroke="#C8C8C8" stroke-miterlimit="10" width="1" height="4"/>
			<rect x="1155.5" y="643.5" fill="#C8C8C8" stroke="#C8C8C8" stroke-miterlimit="10" width="1" height="4"/>
			<path fill="#999999" stroke="#999999" stroke-miterlimit="10" d="M1164.382,650.784c0,2.52-2.042,4.198-4.562,4.198
				c-0.354,0-0.695-0.482-1.024-0.482h-2.296v-9h2.296c0.33,0,0.671,0.302,1.024,0.302
				C1162.34,645.802,1164.382,648.265,1164.382,650.784z"/>
			<path fill="#C8C8C8" stroke="#C8C8C8" stroke-miterlimit="10" d="M1121.5,649.5v4h-23.567c-2.404,0-4.423-0.026-5.029,0.19
				c-0.121,0.045-0.185-0.002-0.185,0.045c-0.5,0.341-1.105,0.488-1.754,0.488c-1.738,0-3.144-1.435-3.144-3.18
				c0-1.746,1.406-3.172,3.144-3.172c0.649,0,1.254,0.191,1.754,0.53c0,0.046,0.063,0.385,0.184,0.427
				c0.608,0.222,2.646,0.672,5.068,0.672H1121.5z"/>
			<polygon fill="#333333" stroke="#333333" stroke-width="0.25" stroke-miterlimit="10" points="1095.399,651.973 1129.528,617.58 
				1124.323,612.334 1090.195,646.727 1087.125,655.065 			"/>
			<path fill="#C1272D" stroke="#C1272D" stroke-width="0.25" stroke-miterlimit="10" d="M1151.329,590.666
				c2.147,2.146,2.347,5.429,0.443,7.332l-20.963,20.965l-7.776-7.775l20.962-20.965
				C1145.899,588.32,1149.182,588.519,1151.329,590.666z"/>
			<circle fill="#C8C8C8" stroke="#C8C8C8" stroke-width="0.25" stroke-miterlimit="10" cx="1099.891" cy="642.068" r="2.317"/>
			<circle fill="#C8C8C8" stroke="#C8C8C8" stroke-width="0.25" stroke-miterlimit="10" cx="1089.223" cy="630.254" r="2.339"/>
			<circle fill="#C8C8C8" stroke="#C8C8C8" stroke-width="0.25" stroke-miterlimit="10" cx="1160.347" cy="650.784" r="2.282"/>
			<circle fill="#C8C8C8" stroke="#C8C8C8" stroke-width="0.25" stroke-miterlimit="10" cx="1091.037" cy="651.018" r="1.872"/>
			<rect x="1127.5" y="654.5" fill="#C8C8C8" stroke="#C8C8C8" stroke-miterlimit="10" width="1" height="3"/>
			<rect x="1155.5" y="654.5" fill="#C8C8C8" stroke="#C8C8C8" stroke-miterlimit="10" width="1" height="3"/>
			<rect x="1081.5" y="665.5" fill="#333333" stroke="#333333" stroke-miterlimit="10" width="37" height="2"/>
		</g>
		<g>
			<path fill="#808080" stroke="#808080" stroke-miterlimit="10" d="M983.5,621.866c0,7.652,0,21.936,0,28.428
				c0,5.879,3.148,4.206,5.392,4.206c6.138,0,65.886,0,65.886,0c1.802,0,2.136-2.037,2.141-2.922c0-5.057-2.592-5.563-2.592-5.563
				l-65.435-26.153c0,0-2.86-1.515-4.329-1.731C983.379,618.132,983.5,619.545,983.5,621.866z"/>
			<path fill="#E6E6E6" stroke="#999999" stroke-width="0.25" stroke-miterlimit="10" d="M996.34,628.104
				c0,0,2.954-0.014,4.98-0.014c2.028,0,2.16,2.596,3.043,4.445c0.937,1.755,2.763,1.299,4.993,0
				c1.855-1.298,10.337-7.838,10.337-7.838s1.685-1.56,0.008-4.057c-8.694-10.216-23.362-10.137-23.362-10.137
				s-14.714-0.079-23.41,10.137c-1.677,2.496,0.013,4.057,0.013,4.057s8.485,6.54,10.341,7.838c2.231,1.299,4.059,1.755,4.993,0
				c0.884-1.85,1.019-4.445,3.046-4.445C993.35,628.091,996.34,628.104,996.34,628.104z"/>
			<rect x="994.5" y="653.5" fill="#808080" stroke="#808080" stroke-miterlimit="10" width="5" height="17"/>
			<circle fill="#999999" stroke="#999999" stroke-width="0.25" stroke-miterlimit="10" cx="996.316" cy="642.068" r="10.623"/>
			<rect x="1019.5" y="643.5" fill="#999999" stroke="#999999" stroke-miterlimit="10" width="34" height="14"/>
			<rect x="1029.5" y="644.5" fill="#C8C8C8" stroke="#C8C8C8" stroke-miterlimit="10" width="17" height="1"/>
			<rect x="1029.5" y="654.5" fill="#C8C8C8" stroke="#C8C8C8" stroke-miterlimit="10" width="17" height="2"/>
			<rect x="1024.5" y="640.5" fill="#C8C8C8" stroke="#999999" stroke-miterlimit="10" width="5" height="22"/>
			<rect x="1046.5" y="640.5" fill="#C8C8C8" stroke="#999999" stroke-miterlimit="10" width="4" height="22"/>
			<rect x="1023.5" y="643.5" fill="#C8C8C8" stroke="#C8C8C8" stroke-miterlimit="10" width="1" height="4"/>
			<rect x="1050.5" y="643.5" fill="#C8C8C8" stroke="#C8C8C8" stroke-miterlimit="10" width="3" height="4"/>
			<path fill="#999999" stroke="#999999" stroke-miterlimit="10" d="M1060.809,650.784c0,2.52-2.042,4.198-4.562,4.198
				c-0.354,0-0.696-0.482-1.025-0.482h-1.722v-9h1.722c0.329,0,0.671,0.302,1.025,0.302
				C1058.767,645.802,1060.809,648.265,1060.809,650.784z"/>
			<path fill="#C8C8C8" stroke="#C8C8C8" stroke-miterlimit="10" d="M1019.5,649.5v4h-25.142c-2.404,0-4.422-0.026-5.028,0.19
				c-0.121,0.045-0.187-0.002-0.187,0.045c-0.5,0.341-1.104,0.488-1.754,0.488c-1.736,0-3.144-1.435-3.144-3.18
				c0-1.746,1.408-3.172,3.144-3.172c0.65,0,1.254,0.191,1.754,0.53c0,0.046,0.064,0.385,0.186,0.427
				c0.606,0.222,2.644,0.672,5.066,0.672H1019.5z"/>
			<polygon fill="#333333" stroke="#333333" stroke-width="0.25" stroke-miterlimit="10" points="991.826,651.973 1025.954,617.58 
				1020.75,612.334 986.622,646.727 983.552,655.065 			"/>
			<path fill="#C1272D" stroke="#C1272D" stroke-width="0.25" stroke-miterlimit="10" d="M1047.756,590.666
				c2.147,2.146,2.345,5.429,0.442,7.332l-20.962,20.965l-7.776-7.775l20.963-20.965
				C1042.326,588.32,1045.608,588.519,1047.756,590.666z"/>
			<circle fill="#C8C8C8" stroke="#C8C8C8" stroke-width="0.25" stroke-miterlimit="10" cx="996.317" cy="642.068" r="2.317"/>
			<circle fill="#C8C8C8" stroke="#C8C8C8" stroke-width="0.25" stroke-miterlimit="10" cx="985.649" cy="630.254" r="2.34"/>
			<circle fill="#C8C8C8" stroke="#C8C8C8" stroke-width="0.25" stroke-miterlimit="10" cx="1056.773" cy="650.784" r="2.281"/>
			<circle fill="#C8C8C8" stroke="#C8C8C8" stroke-width="0.25" stroke-miterlimit="10" cx="987.462" cy="651.018" r="1.872"/>
			<rect x="1023.5" y="654.5" fill="#C8C8C8" stroke="#C8C8C8" stroke-miterlimit="10" width="1" height="3"/>
			<rect x="1050.5" y="654.5" fill="#C8C8C8" stroke="#C8C8C8" stroke-miterlimit="10" width="3" height="3"/>
			<rect x="977.5" y="665.5" fill="#333333" stroke="#333333" stroke-miterlimit="10" width="37" height="2"/>
		</g>
		<g>
			<path fill="#808080" stroke="#808080" stroke-miterlimit="10" d="M879.5,621.866c0,7.652,0,21.936,0,28.428
				c0,5.879,3.574,4.206,5.817,4.206c6.139,0,65.887,0,65.887,0c1.802,0,2.135-2.037,2.14-2.922c0-5.057-2.591-5.563-2.591-5.563
				l-65.436-26.153c0,0-3.073-1.515-4.542-1.731C879.593,618.132,879.5,619.545,879.5,621.866z"/>
			<path fill="#E6E6E6" stroke="#999999" stroke-width="0.25" stroke-miterlimit="10" d="M892.767,628.104
				c0,0,2.952-0.014,4.979-0.014c2.027,0,2.16,2.596,3.044,4.445c0.937,1.755,2.764,1.299,4.993,0
				c1.856-1.298,10.338-7.838,10.338-7.838s1.686-1.56,0.008-4.057c-8.697-10.216-23.362-10.137-23.362-10.137
				s-14.714-0.079-23.411,10.137c-1.677,2.496,0.014,4.057,0.014,4.057s8.484,6.54,10.341,7.838c2.23,1.299,4.059,1.755,4.993,0
				c0.884-1.85,1.02-4.445,3.046-4.445C889.775,628.091,892.767,628.104,892.767,628.104z"/>
			<rect x="889.5" y="653.5" fill="#808080" stroke="#808080" stroke-miterlimit="10" width="7" height="17"/>
			<circle fill="#999999" stroke="#999999" stroke-width="0.25" stroke-miterlimit="10" cx="892.742" cy="642.068" r="10.623"/>
			<rect x="916.5" y="643.5" fill="#999999" stroke="#999999" stroke-miterlimit="10" width="33" height="14"/>
			<rect x="925.5" y="644.5" fill="#C8C8C8" stroke="#C8C8C8" stroke-miterlimit="10" width="17" height="1"/>
			<rect x="925.5" y="654.5" fill="#C8C8C8" stroke="#C8C8C8" stroke-miterlimit="10" width="17" height="2"/>
			<rect x="922.5" y="640.5" fill="#C8C8C8" stroke="#999999" stroke-miterlimit="10" width="3" height="22"/>
			<rect x="942.5" y="640.5" fill="#C8C8C8" stroke="#999999" stroke-miterlimit="10" width="5" height="22"/>
			<rect x="921.5" y="643.061" fill="#C8C8C8" stroke="#C8C8C8" stroke-miterlimit="10" width="0" height="4.394"/>
			<rect x="948.5" y="643.061" fill="#C8C8C8" stroke="#C8C8C8" stroke-miterlimit="10" width="0" height="4.394"/>
			<path fill="#999999" stroke="#999999" stroke-miterlimit="10" d="M957.235,650.784c0,2.52-2.043,4.198-4.563,4.198
				c-0.353,0-0.695-0.482-1.025-0.482H949.5v-9h2.148c0.33,0,0.672,0.302,1.025,0.302
				C955.192,645.802,957.235,648.265,957.235,650.784z"/>
			<path fill="#C8C8C8" stroke="#C8C8C8" stroke-miterlimit="10" d="M914.5,649.5v4h-23.716c-2.404,0-4.423-0.026-5.028,0.19
				c-0.121,0.045-0.186-0.002-0.186,0.045c-0.501,0.341-1.105,0.488-1.754,0.488c-1.736,0-3.143-1.435-3.143-3.18
				c0-1.746,1.407-3.172,3.143-3.172c0.649,0,1.253,0.191,1.754,0.53c0,0.046,0.063,0.385,0.186,0.427
				c0.606,0.222,2.645,0.672,5.066,0.672H914.5z"/>
			<polygon fill="#333333" stroke="#333333" stroke-width="0.25" stroke-miterlimit="10" points="888.251,651.973 922.379,617.58 
				917.175,612.334 883.048,646.727 879.978,655.065 			"/>
			<path fill="#C1272D" stroke="#C1272D" stroke-width="0.25" stroke-miterlimit="10" d="M944.181,590.666
				c2.148,2.146,2.347,5.429,0.443,7.332l-20.963,20.965l-7.776-7.775l20.962-20.965
				C938.752,588.32,942.035,588.519,944.181,590.666z"/>
			<circle fill="#C8C8C8" stroke="#C8C8C8" stroke-width="0.25" stroke-miterlimit="10" cx="892.743" cy="642.068" r="2.316"/>
			<circle fill="#C8C8C8" stroke="#C8C8C8" stroke-width="0.25" stroke-miterlimit="10" cx="882.075" cy="630.254" r="2.339"/>
			<circle fill="#C8C8C8" stroke="#C8C8C8" stroke-width="0.25" stroke-miterlimit="10" cx="953.199" cy="650.784" r="2.282"/>
			<circle fill="#C8C8C8" stroke="#C8C8C8" stroke-width="0.25" stroke-miterlimit="10" cx="883.888" cy="651.018" r="1.872"/>
			<rect x="921.5" y="654.776" fill="#C8C8C8" stroke="#C8C8C8" stroke-miterlimit="10" width="0" height="2.929"/>
			<rect x="948.5" y="654.776" fill="#C8C8C8" stroke="#C8C8C8" stroke-miterlimit="10" width="0" height="2.929"/>
			<rect x="875.5" y="665.5" fill="#333333" stroke="#333333" stroke-miterlimit="10" width="35" height="2"/>
		</g>
		<g>
			<path fill="#808080" stroke="#808080" stroke-miterlimit="10" d="M776.5,621.866c0,7.652,0,21.936,0,28.428
				c0,5.879,3,4.206,5.244,4.206c6.138,0,65.886,0,65.886,0c1.802,0,2.135-2.037,2.141-2.922c0-5.057-2.592-5.563-2.592-5.563
				l-65.435-26.153c0,0-2.788-1.515-4.255-1.731C776.307,618.132,776.5,619.545,776.5,621.866z"/>
			<path fill="#E6E6E6" stroke="#999999" stroke-width="0.25" stroke-miterlimit="10" d="M789.192,628.104
				c0,0,2.953-0.014,4.979-0.014c2.027,0,2.159,2.596,3.043,4.445c0.937,1.755,2.763,1.299,4.993,0
				c1.856-1.298,10.338-7.838,10.338-7.838s1.685-1.56,0.008-4.057c-8.696-10.216-23.362-10.137-23.362-10.137
				s-14.714-0.079-23.41,10.137c-1.677,2.496,0.014,4.057,0.014,4.057s8.484,6.54,10.34,7.838c2.23,1.299,4.06,1.755,4.993,0
				c0.885-1.85,1.019-4.445,3.046-4.445C786.202,628.091,789.192,628.104,789.192,628.104z"/>
			<rect x="787.5" y="653.5" fill="#808080" stroke="#808080" stroke-miterlimit="10" width="4" height="17"/>
			<circle fill="#999999" stroke="#999999" stroke-width="0.25" stroke-miterlimit="10" cx="789.168" cy="642.068" r="10.623"/>
			<rect x="812.5" y="643.5" fill="#999999" stroke="#999999" stroke-miterlimit="10" width="33" height="14"/>
			<rect x="823.5" y="644.5" fill="#C8C8C8" stroke="#C8C8C8" stroke-miterlimit="10" width="17" height="1"/>
			<rect x="823.5" y="654.5" fill="#C8C8C8" stroke="#C8C8C8" stroke-miterlimit="10" width="17" height="2"/>
			<rect x="817.5" y="640.5" fill="#C8C8C8" stroke="#999999" stroke-miterlimit="10" width="6" height="22"/>
			<rect x="840.5" y="640.5" fill="#C8C8C8" stroke="#999999" stroke-miterlimit="10" width="2" height="22"/>
			<rect x="816.5" y="643.061" fill="#C8C8C8" stroke="#C8C8C8" stroke-miterlimit="10" width="0" height="4.394"/>
			<rect x="844.5" y="643.061" fill="#C8C8C8" stroke="#C8C8C8" stroke-miterlimit="10" width="0" height="4.394"/>
			<path fill="#999999" stroke="#999999" stroke-miterlimit="10" d="M853.661,650.784c0,2.52-2.042,4.198-4.562,4.198
				c-0.354,0-0.696-0.482-1.025-0.482H845.5v-9h2.574c0.329,0,0.671,0.302,1.025,0.302
				C851.619,645.802,853.661,648.265,853.661,650.784z"/>
			<path fill="#C8C8C8" stroke="#C8C8C8" stroke-miterlimit="10" d="M811.5,649.5v4h-24.29c-2.404,0-4.422-0.026-5.029,0.19
				c-0.12,0.045-0.186-0.002-0.186,0.045c-0.5,0.341-1.104,0.488-1.753,0.488c-1.736,0-3.144-1.435-3.144-3.18
				c0-1.746,1.407-3.172,3.144-3.172c0.649,0,1.254,0.191,1.753,0.53c0,0.046,0.063,0.385,0.186,0.427
				c0.607,0.222,2.645,0.672,5.066,0.672H811.5z"/>
			<polygon fill="#333333" stroke="#333333" stroke-width="0.25" stroke-miterlimit="10" points="784.678,651.973 818.806,617.58 
				813.601,612.334 779.474,646.727 776.404,655.065 			"/>
			<path fill="#C1272D" stroke="#C1272D" stroke-width="0.25" stroke-miterlimit="10" d="M840.607,590.666
				c2.148,2.146,2.346,5.429,0.443,7.332l-20.962,20.965l-7.776-7.775l20.962-20.965
				C835.177,588.32,838.461,588.519,840.607,590.666z"/>
			<circle fill="#C8C8C8" stroke="#C8C8C8" stroke-width="0.25" stroke-miterlimit="10" cx="789.169" cy="642.068" r="2.317"/>
			<circle fill="#C8C8C8" stroke="#C8C8C8" stroke-width="0.25" stroke-miterlimit="10" cx="778.501" cy="630.254" r="2.34"/>
			<circle fill="#C8C8C8" stroke="#C8C8C8" stroke-width="0.25" stroke-miterlimit="10" cx="849.625" cy="650.784" r="2.281"/>
			<circle fill="#C8C8C8" stroke="#C8C8C8" stroke-width="0.25" stroke-miterlimit="10" cx="780.314" cy="651.018" r="1.872"/>
			<rect x="816.5" y="654.776" fill="#C8C8C8" stroke="#C8C8C8" stroke-miterlimit="10" width="0" height="2.929"/>
			<rect x="844.5" y="654.776" fill="#C8C8C8" stroke="#C8C8C8" stroke-miterlimit="10" width="0" height="2.929"/>
			<rect x="770.5" y="665.5" fill="#333333" stroke="#333333" stroke-miterlimit="10" width="37" height="2"/>
		</g>
		<g>
			<path fill="#808080" stroke="#808080" stroke-miterlimit="10" d="M671.5,621.866c0,7.652,0,21.936,0,28.428
				c0,5.879,4.426,4.206,6.669,4.206c6.139,0,65.886,0,65.886,0c1.803,0,2.136-2.037,2.14-2.922c0-5.057-2.592-5.563-2.592-5.563
				l-65.435-26.153c0,0-3.499-1.515-4.968-1.731C672.019,618.132,671.5,619.545,671.5,621.866z"/>
			<path fill="#E6E6E6" stroke="#999999" stroke-width="0.25" stroke-miterlimit="10" d="M685.619,628.104
				c0,0,2.952-0.014,4.979-0.014c2.027,0,2.159,2.596,3.043,4.445c0.938,1.755,2.764,1.299,4.994,0
				c1.856-1.298,10.338-7.838,10.338-7.838s1.685-1.56,0.008-4.057c-8.696-10.216-23.361-10.137-23.361-10.137
				s-14.714-0.079-23.412,10.137c-1.676,2.496,0.014,4.057,0.014,4.057s8.484,6.54,10.34,7.838c2.23,1.299,4.06,1.755,4.994,0
				c0.884-1.85,1.018-4.445,3.045-4.445C682.627,628.091,685.619,628.104,685.619,628.104z"/>
			<rect x="683.5" y="653.5" fill="#808080" stroke="#808080" stroke-miterlimit="10" width="4" height="17"/>
			<circle fill="#999999" stroke="#999999" stroke-width="0.25" stroke-miterlimit="10" cx="685.595" cy="642.068" r="10.622"/>
			<rect x="708.5" y="643.5" fill="#999999" stroke="#999999" stroke-miterlimit="10" width="34" height="14"/>
			<rect x="718.5" y="644.5" fill="#C8C8C8" stroke="#C8C8C8" stroke-miterlimit="10" width="17" height="1"/>
			<rect x="718.5" y="654.5" fill="#C8C8C8" stroke="#C8C8C8" stroke-miterlimit="10" width="17" height="2"/>
			<rect x="714.5" y="640.5" fill="#C8C8C8" stroke="#999999" stroke-miterlimit="10" width="4" height="22"/>
			<rect x="735.5" y="640.5" fill="#C8C8C8" stroke="#999999" stroke-miterlimit="10" width="5" height="22"/>
			<rect x="713.5" y="643.5" fill="#C8C8C8" stroke="#C8C8C8" stroke-miterlimit="10" width="1" height="4"/>
			<rect x="740.5" y="643.5" fill="#C8C8C8" stroke="#C8C8C8" stroke-miterlimit="10" width="2" height="4"/>
			<path fill="#999999" stroke="#999999" stroke-miterlimit="10" d="M750.088,650.784c0,2.52-2.044,4.198-4.563,4.198
				c-0.353,0-0.695-0.482-1.025-0.482h-2v-9h2c0.331,0,0.672,0.302,1.025,0.302C748.044,645.802,750.088,648.265,750.088,650.784z"
				/>
			<path fill="#C8C8C8" stroke="#C8C8C8" stroke-miterlimit="10" d="M708.5,649.5v4h-24.863c-2.404,0-4.422-0.026-5.029,0.19
				c-0.12,0.045-0.186-0.002-0.186,0.045c-0.5,0.341-1.103,0.488-1.753,0.488c-1.737,0-3.143-1.435-3.143-3.18
				c0-1.746,1.406-3.172,3.143-3.172c0.65,0,1.253,0.191,1.753,0.53c0,0.046,0.063,0.385,0.186,0.427
				c0.607,0.222,2.645,0.672,5.066,0.672H708.5z"/>
			<polygon fill="#333333" stroke="#333333" stroke-width="0.25" stroke-miterlimit="10" points="681.104,651.973 715.231,617.58 
				710.027,612.334 675.899,646.727 672.83,655.065 			"/>
			<path fill="#C1272D" stroke="#C1272D" stroke-width="0.25" stroke-miterlimit="10" d="M737.034,590.666
				c2.148,2.146,2.346,5.429,0.443,7.332l-20.963,20.965l-7.775-7.775l20.961-20.965
				C731.604,588.32,734.887,588.519,737.034,590.666z"/>
			<circle fill="#C8C8C8" stroke="#C8C8C8" stroke-width="0.25" stroke-miterlimit="10" cx="685.595" cy="642.068" r="2.316"/>
			<circle fill="#C8C8C8" stroke="#C8C8C8" stroke-width="0.25" stroke-miterlimit="10" cx="674.928" cy="630.254" r="2.339"/>
			<circle fill="#C8C8C8" stroke="#C8C8C8" stroke-width="0.25" stroke-miterlimit="10" cx="746.052" cy="650.784" r="2.282"/>
			<circle fill="#C8C8C8" stroke="#C8C8C8" stroke-width="0.25" stroke-miterlimit="10" cx="676.741" cy="651.018" r="1.872"/>
			<rect x="713.5" y="654.5" fill="#C8C8C8" stroke="#C8C8C8" stroke-miterlimit="10" width="1" height="3"/>
			<rect x="740.5" y="654.5" fill="#C8C8C8" stroke="#C8C8C8" stroke-miterlimit="10" width="2" height="3"/>
			<rect x="667.5" y="665.5" fill="#333333" stroke="#333333" stroke-miterlimit="10" width="37" height="2"/>
		</g>
		<g>
			<path fill="#808080" stroke="#808080" stroke-miterlimit="10" d="M569.5,621.866c0,7.652,0,21.936,0,28.428
				c0,5.879,2.852,4.206,5.096,4.206c6.138,0,65.886,0,65.886,0c1.803,0,2.135-2.037,2.141-2.922c0-5.057-2.592-5.563-2.592-5.563
				l-65.435-26.153c0,0-2.713-1.515-4.182-1.731C569.232,618.132,569.5,619.545,569.5,621.866z"/>
			<path fill="#E6E6E6" stroke="#999999" stroke-width="0.25" stroke-miterlimit="10" d="M582.045,628.104
				c0,0,2.952-0.014,4.979-0.014c2.028,0,2.16,2.596,3.043,4.445c0.937,1.755,2.763,1.299,4.993,0
				c1.856-1.298,10.338-7.838,10.338-7.838s1.685-1.56,0.008-4.057c-8.696-10.216-23.361-10.137-23.361-10.137
				s-14.715-0.079-23.412,10.137c-1.676,2.496,0.014,4.057,0.014,4.057s8.484,6.54,10.34,7.838c2.23,1.299,4.059,1.755,4.994,0
				c0.884-1.85,1.019-4.445,3.046-4.445C579.054,628.091,582.045,628.104,582.045,628.104z"/>
			<rect x="579.5" y="653.5" fill="#808080" stroke="#808080" stroke-miterlimit="10" width="6" height="17"/>
			<circle fill="#999999" stroke="#999999" stroke-width="0.25" stroke-miterlimit="10" cx="582.021" cy="642.068" r="10.623"/>
			<rect x="604.5" y="643.5" fill="#999999" stroke="#999999" stroke-miterlimit="10" width="33" height="14"/>
			<rect x="614.5" y="644.5" fill="#C8C8C8" stroke="#C8C8C8" stroke-miterlimit="10" width="18" height="1"/>
			<rect x="614.5" y="654.5" fill="#C8C8C8" stroke="#C8C8C8" stroke-miterlimit="10" width="18" height="2"/>
			<rect x="611.5" y="640.5" fill="#C8C8C8" stroke="#999999" stroke-miterlimit="10" width="3" height="22"/>
			<rect x="632.5" y="640.5" fill="#C8C8C8" stroke="#999999" stroke-miterlimit="10" width="4" height="22"/>
			<rect x="610.5" y="643.061" fill="#C8C8C8" stroke="#C8C8C8" stroke-miterlimit="10" width="0" height="4.394"/>
			<rect x="636.5" y="643.5" fill="#C8C8C8" stroke="#C8C8C8" stroke-miterlimit="10" width="1" height="4"/>
			<path fill="#999999" stroke="#999999" stroke-miterlimit="10" d="M646.513,650.784c0,2.52-2.042,4.198-4.561,4.198
				c-0.354,0-0.696-0.482-1.025-0.482H637.5v-9h3.426c0.329,0,0.671,0.302,1.025,0.302
				C644.471,645.802,646.513,648.265,646.513,650.784z"/>
			<path fill="#C8C8C8" stroke="#C8C8C8" stroke-miterlimit="10" d="M604.5,649.5v4h-24.438c-2.404,0-4.421-0.026-5.028,0.19
				c-0.121,0.045-0.186-0.002-0.186,0.045c-0.5,0.341-1.103,0.488-1.753,0.488c-1.736,0-3.144-1.435-3.144-3.18
				c0-1.746,1.408-3.172,3.144-3.172c0.65,0,1.253,0.191,1.753,0.53c0,0.046,0.064,0.385,0.185,0.427
				c0.608,0.222,2.644,0.672,5.067,0.672H604.5z"/>
			<polygon fill="#333333" stroke="#333333" stroke-width="0.25" stroke-miterlimit="10" points="577.53,651.973 611.657,617.58 
				606.454,612.334 572.326,646.727 569.256,655.065 			"/>
			<path fill="#C1272D" stroke="#C1272D" stroke-width="0.25" stroke-miterlimit="10" d="M633.46,590.666
				c2.147,2.146,2.346,5.429,0.443,7.332l-20.962,20.965l-7.776-7.775l20.962-20.965C628.03,588.32,631.313,588.519,633.46,590.666z
				"/>
			<circle fill="#C8C8C8" stroke="#C8C8C8" stroke-width="0.25" stroke-miterlimit="10" cx="582.021" cy="642.068" r="2.317"/>
			<circle fill="#C8C8C8" stroke="#C8C8C8" stroke-width="0.25" stroke-miterlimit="10" cx="571.354" cy="630.254" r="2.339"/>
			<circle fill="#C8C8C8" stroke="#C8C8C8" stroke-width="0.25" stroke-miterlimit="10" cx="642.478" cy="650.784" r="2.281"/>
			<circle fill="#C8C8C8" stroke="#C8C8C8" stroke-width="0.25" stroke-miterlimit="10" cx="573.167" cy="651.018" r="1.871"/>
			<rect x="610.5" y="654.776" fill="#C8C8C8" stroke="#C8C8C8" stroke-miterlimit="10" width="0" height="2.929"/>
			<rect x="636.5" y="654.5" fill="#C8C8C8" stroke="#C8C8C8" stroke-miterlimit="10" width="1" height="3"/>
			<rect x="564.5" y="665.5" fill="#333333" stroke="#333333" stroke-miterlimit="10" width="35" height="2"/>
		</g>
		<g>
			<path fill="#808080" stroke="#808080" stroke-miterlimit="10" d="M465.5,621.866c0,7.652,0,21.936,0,28.428
				c0,5.879,3.279,4.206,5.522,4.206c6.139,0,65.887,0,65.887,0c1.803,0,2.136-2.037,2.14-2.922c0-5.057-2.591-5.563-2.591-5.563
				l-65.435-26.153c0,0-2.925-1.515-4.394-1.731C465.445,618.132,465.5,619.545,465.5,621.866z"/>
			<path fill="#E6E6E6" stroke="#999999" stroke-width="0.25" stroke-miterlimit="10" d="M478.471,628.104
				c0,0,2.953-0.014,4.98-0.014c2.027,0,2.16,2.596,3.043,4.445c0.937,1.755,2.763,1.299,4.992,0
				c1.855-1.298,10.338-7.838,10.338-7.838s1.685-1.56,0.009-4.057c-8.696-10.216-23.362-10.137-23.362-10.137
				s-14.714-0.079-23.41,10.137c-1.677,2.496,0.013,4.057,0.013,4.057s8.484,6.54,10.34,7.838c2.231,1.299,4.06,1.755,4.995,0
				c0.884-1.85,1.018-4.445,3.045-4.445C475.479,628.091,478.471,628.104,478.471,628.104z"/>
			<rect x="475.5" y="653.5" fill="#808080" stroke="#808080" stroke-miterlimit="10" width="5" height="17"/>
			<circle fill="#999999" stroke="#999999" stroke-width="0.25" stroke-miterlimit="10" cx="478.447" cy="642.068" r="10.622"/>
			<rect x="501.5" y="643.5" fill="#999999" stroke="#999999" stroke-miterlimit="10" width="34" height="14"/>
			<rect x="510.5" y="644.5" fill="#C8C8C8" stroke="#C8C8C8" stroke-miterlimit="10" width="19" height="1"/>
			<rect x="510.5" y="654.5" fill="#C8C8C8" stroke="#C8C8C8" stroke-miterlimit="10" width="19" height="2"/>
			<rect x="508.5" y="640.5" fill="#C8C8C8" stroke="#999999" stroke-miterlimit="10" width="2" height="22"/>
			<rect x="529.5" y="640.5" fill="#C8C8C8" stroke="#999999" stroke-miterlimit="10" width="3" height="22"/>
			<rect x="505.5" y="643.061" fill="#C8C8C8" stroke="#C8C8C8" stroke-miterlimit="10" width="0" height="4.394"/>
			<rect x="534.5" y="643.061" fill="#C8C8C8" stroke="#C8C8C8" stroke-miterlimit="10" width="0" height="4.394"/>
			<path fill="#999999" stroke="#999999" stroke-miterlimit="10" d="M542.94,650.784c0,2.52-2.043,4.198-4.563,4.198
				c-0.354,0-0.695-0.482-1.025-0.482H535.5v-9h1.852c0.33,0,0.671,0.302,1.025,0.302
				C540.897,645.802,542.94,648.265,542.94,650.784z"/>
			<path fill="#C8C8C8" stroke="#C8C8C8" stroke-miterlimit="10" d="M500.5,649.5v4h-24.011c-2.403,0-4.422-0.026-5.028,0.19
				c-0.121,0.045-0.188-0.002-0.188,0.045c-0.5,0.341-1.103,0.488-1.752,0.488c-1.737,0-3.144-1.435-3.144-3.18
				c0-1.746,1.406-3.172,3.144-3.172c0.65,0,1.253,0.191,1.752,0.53c0,0.046,0.064,0.385,0.186,0.427
				c0.607,0.222,2.645,0.672,5.066,0.672H500.5z"/>
			<polygon fill="#333333" stroke="#333333" stroke-width="0.25" stroke-miterlimit="10" points="473.957,651.973 508.083,617.58 
				502.88,612.334 468.752,646.727 465.683,655.065 			"/>
			<path fill="#C1272D" stroke="#C1272D" stroke-width="0.25" stroke-miterlimit="10" d="M529.887,590.666
				c2.146,2.146,2.346,5.429,0.443,7.332l-20.964,20.965l-7.774-7.775l20.961-20.965
				C524.456,588.32,527.739,588.519,529.887,590.666z"/>
			<circle fill="#C8C8C8" stroke="#C8C8C8" stroke-width="0.25" stroke-miterlimit="10" cx="478.448" cy="642.068" r="2.316"/>
			<circle fill="#C8C8C8" stroke="#C8C8C8" stroke-width="0.25" stroke-miterlimit="10" cx="467.78" cy="630.254" r="2.339"/>
			<circle fill="#C8C8C8" stroke="#C8C8C8" stroke-width="0.25" stroke-miterlimit="10" cx="538.904" cy="650.784" r="2.281"/>
			<circle fill="#C8C8C8" stroke="#C8C8C8" stroke-width="0.25" stroke-miterlimit="10" cx="469.594" cy="651.018" r="1.871"/>
			<rect x="505.5" y="654.776" fill="#C8C8C8" stroke="#C8C8C8" stroke-miterlimit="10" width="0" height="2.929"/>
			<rect x="534.5" y="654.776" fill="#C8C8C8" stroke="#C8C8C8" stroke-miterlimit="10" width="0" height="2.929"/>
			<rect x="461.5" y="665.5" fill="#333333" stroke="#333333" stroke-miterlimit="10" width="36" height="2"/>
		</g>
		<g>
			<path fill="#808080" stroke="#808080" stroke-miterlimit="10" d="M361.5,621.866c0,7.652,0,21.936,0,28.428
				c0,5.879,3.705,4.206,5.948,4.206c6.138,0,65.886,0,65.886,0c1.803,0,2.135-2.037,2.141-2.922c0-5.057-2.591-5.563-2.591-5.563
				l-65.436-26.153c0,0-3.14-1.515-4.607-1.731C361.659,618.132,361.5,619.545,361.5,621.866z"/>
			<path fill="#E6E6E6" stroke="#999999" stroke-width="0.25" stroke-miterlimit="10" d="M374.897,628.104
				c0,0,2.953-0.014,4.98-0.014c2.027,0,2.159,2.596,3.042,4.445c0.937,1.755,2.763,1.299,4.993,0
				c1.855-1.298,10.338-7.838,10.338-7.838s1.684-1.56,0.008-4.057c-8.697-10.216-23.362-10.137-23.362-10.137
				s-14.715-0.079-23.411,10.137c-1.676,2.496,0.014,4.057,0.014,4.057s8.484,6.54,10.34,7.838c2.23,1.299,4.059,1.755,4.994,0
				c0.884-1.85,1.018-4.445,3.044-4.445C371.906,628.091,374.897,628.104,374.897,628.104z"/>
			<rect x="373.5" y="653.5" fill="#808080" stroke="#808080" stroke-miterlimit="10" width="4" height="17"/>
			<circle fill="#999999" stroke="#999999" stroke-width="0.25" stroke-miterlimit="10" cx="374.873" cy="642.068" r="10.623"/>
			<rect x="398.5" y="643.5" fill="#999999" stroke="#999999" stroke-miterlimit="10" width="33" height="14"/>
			<rect x="407.5" y="644.5" fill="#C8C8C8" stroke="#C8C8C8" stroke-miterlimit="10" width="18" height="1"/>
			<rect x="407.5" y="654.5" fill="#C8C8C8" stroke="#C8C8C8" stroke-miterlimit="10" width="18" height="2"/>
			<rect x="403.5" y="640.5" fill="#C8C8C8" stroke="#999999" stroke-miterlimit="10" width="4" height="22"/>
			<rect x="425.5" y="640.5" fill="#C8C8C8" stroke="#999999" stroke-miterlimit="10" width="3" height="22"/>
			<rect x="402.5" y="643.5" fill="#C8C8C8" stroke="#C8C8C8" stroke-miterlimit="10" width="1" height="4"/>
			<rect x="429.5" y="643.061" fill="#C8C8C8" stroke="#C8C8C8" stroke-miterlimit="10" width="0" height="4.394"/>
			<path fill="#999999" stroke="#999999" stroke-miterlimit="10" d="M439.365,650.784c0,2.52-2.042,4.198-4.561,4.198
				c-0.354,0-0.695-0.482-1.025-0.482H431.5v-9h2.279c0.33,0,0.671,0.302,1.025,0.302
				C437.323,645.802,439.365,648.265,439.365,650.784z"/>
			<path fill="#C8C8C8" stroke="#C8C8C8" stroke-miterlimit="10" d="M395.5,649.5v4h-22.586c-2.403,0-4.421-0.026-5.027,0.19
				c-0.121,0.045-0.187-0.002-0.187,0.045c-0.499,0.341-1.104,0.488-1.753,0.488c-1.737,0-3.144-1.435-3.144-3.18
				c0-1.746,1.407-3.172,3.144-3.172c0.649,0,1.254,0.191,1.753,0.53c0,0.046,0.064,0.385,0.186,0.427
				c0.607,0.222,2.644,0.672,5.067,0.672H395.5z"/>
			<polygon fill="#333333" stroke="#333333" stroke-width="0.25" stroke-miterlimit="10" points="370.382,651.973 404.51,617.58 
				399.306,612.334 365.178,646.727 362.108,655.065 			"/>
			<path fill="#C1272D" stroke="#C1272D" stroke-width="0.25" stroke-miterlimit="10" d="M426.313,590.666
				c2.147,2.146,2.346,5.429,0.442,7.332l-20.963,20.965l-7.775-7.775l20.962-20.965
				C420.883,588.32,424.165,588.519,426.313,590.666z"/>
			<circle fill="#C8C8C8" stroke="#C8C8C8" stroke-width="0.25" stroke-miterlimit="10" cx="374.874" cy="642.068" r="2.317"/>
			<circle fill="#C8C8C8" stroke="#C8C8C8" stroke-width="0.25" stroke-miterlimit="10" cx="364.206" cy="630.254" r="2.339"/>
			<circle fill="#C8C8C8" stroke="#C8C8C8" stroke-width="0.25" stroke-miterlimit="10" cx="435.33" cy="650.784" r="2.281"/>
			<circle fill="#C8C8C8" stroke="#C8C8C8" stroke-width="0.25" stroke-miterlimit="10" cx="366.019" cy="651.018" r="1.871"/>
			<rect x="402.5" y="654.5" fill="#C8C8C8" stroke="#C8C8C8" stroke-miterlimit="10" width="1" height="3"/>
			<rect x="429.5" y="654.776" fill="#C8C8C8" stroke="#C8C8C8" stroke-miterlimit="10" width="0" height="2.929"/>
			<rect x="356.5" y="665.5" fill="#333333" stroke="#333333" stroke-miterlimit="10" width="37" height="2"/>
		</g>
		<g>
			<path fill="#808080" stroke="#808080" stroke-miterlimit="10" d="M258.5,621.866c0,7.652,0,21.936,0,28.428
				c0,5.879,3.131,4.206,5.375,4.206c6.138,0,65.886,0,65.886,0c1.803,0,2.135-2.037,2.141-2.922c0-5.057-2.592-5.563-2.592-5.563
				l-65.435-26.153c0,0-2.853-1.515-4.32-1.731C258.372,618.132,258.5,619.545,258.5,621.866z"/>
			<path fill="#E6E6E6" stroke="#999999" stroke-width="0.25" stroke-miterlimit="10" d="M271.323,628.104
				c0,0,2.954-0.014,4.98-0.014c2.027,0,2.159,2.596,3.044,4.445c0.935,1.755,2.763,1.299,4.992,0
				c1.855-1.298,10.338-7.838,10.338-7.838s1.685-1.56,0.009-4.057c-8.697-10.216-23.363-10.137-23.363-10.137
				s-14.714-0.079-23.41,10.137c-1.677,2.496,0.013,4.057,0.013,4.057s8.485,6.54,10.34,7.838c2.23,1.299,4.06,1.755,4.995,0
				c0.883-1.85,1.018-4.445,3.045-4.445C268.332,628.091,271.323,628.104,271.323,628.104z"/>
			<rect x="269.5" y="653.5" fill="#808080" stroke="#808080" stroke-miterlimit="10" width="5" height="17"/>
			<circle fill="#999999" stroke="#999999" stroke-width="0.25" stroke-miterlimit="10" cx="271.3" cy="642.068" r="10.623"/>
			<rect x="293.5" y="643.5" fill="#999999" stroke="#999999" stroke-miterlimit="10" width="34" height="14"/>
			<rect x="304.5" y="644.5" fill="#C8C8C8" stroke="#C8C8C8" stroke-miterlimit="10" width="17" height="1"/>
			<rect x="304.5" y="654.5" fill="#C8C8C8" stroke="#C8C8C8" stroke-miterlimit="10" width="17" height="2"/>
			<rect x="300.5" y="640.5" fill="#C8C8C8" stroke="#999999" stroke-miterlimit="10" width="4" height="22"/>
			<rect x="321.5" y="640.5" fill="#C8C8C8" stroke="#999999" stroke-miterlimit="10" width="5" height="22"/>
			<rect x="297.5" y="643.5" fill="#C8C8C8" stroke="#C8C8C8" stroke-miterlimit="10" width="3" height="4"/>
			<rect x="326.5" y="643.5" fill="#C8C8C8" stroke="#C8C8C8" stroke-miterlimit="10" width="1" height="4"/>
			<path fill="#999999" stroke="#999999" stroke-miterlimit="10" d="M335.792,650.784c0,2.52-2.043,4.198-4.562,4.198
				c-0.355,0-0.696-0.482-1.025-0.482H327.5v-9h2.705c0.329,0,0.67,0.302,1.025,0.302
				C333.749,645.802,335.792,648.265,335.792,650.784z"/>
			<path fill="#C8C8C8" stroke="#C8C8C8" stroke-miterlimit="10" d="M293.5,649.5v4h-24.159c-2.403,0-4.422-0.026-5.028,0.19
				c-0.121,0.045-0.186-0.002-0.186,0.045c-0.5,0.341-1.104,0.488-1.753,0.488c-1.736,0-3.144-1.435-3.144-3.18
				c0-1.746,1.408-3.172,3.144-3.172c0.65,0,1.253,0.191,1.753,0.53c0,0.046,0.064,0.385,0.186,0.427
				c0.606,0.222,2.645,0.672,5.066,0.672H293.5z"/>
			<polygon fill="#333333" stroke="#333333" stroke-width="0.25" stroke-miterlimit="10" points="266.809,651.973 300.935,617.58 
				295.732,612.334 261.604,646.727 258.534,655.065 			"/>
			<path fill="#C1272D" stroke="#C1272D" stroke-width="0.25" stroke-miterlimit="10" d="M322.739,590.666
				c2.147,2.146,2.346,5.429,0.443,7.332l-20.963,20.965l-7.775-7.775l20.962-20.965
				C317.308,588.32,320.591,588.519,322.739,590.666z"/>
			<circle fill="#C8C8C8" stroke="#C8C8C8" stroke-width="0.25" stroke-miterlimit="10" cx="271.3" cy="642.068" r="2.317"/>
			<circle fill="#C8C8C8" stroke="#C8C8C8" stroke-width="0.25" stroke-miterlimit="10" cx="260.632" cy="630.254" r="2.34"/>
			<circle fill="#C8C8C8" stroke="#C8C8C8" stroke-width="0.25" stroke-miterlimit="10" cx="331.756" cy="650.784" r="2.281"/>
			<circle fill="#C8C8C8" stroke="#C8C8C8" stroke-width="0.25" stroke-miterlimit="10" cx="262.445" cy="651.018" r="1.871"/>
			<rect x="297.5" y="654.5" fill="#C8C8C8" stroke="#C8C8C8" stroke-miterlimit="10" width="3" height="3"/>
			<rect x="326.5" y="654.5" fill="#C8C8C8" stroke="#C8C8C8" stroke-miterlimit="10" width="1" height="3"/>
			<rect x="253.5" y="665.5" fill="#333333" stroke="#333333" stroke-miterlimit="10" width="36" height="2"/>
		</g>
		<g>
			<path fill="#808080" stroke="#808080" stroke-miterlimit="10" d="M155.5,621.866c0,7.652,0,21.936,0,28.428
				c0,5.879,2.557,4.206,4.801,4.206c6.139,0,65.886,0,65.886,0c1.802,0,2.135-2.037,2.141-2.922c0-5.057-2.592-5.563-2.592-5.563
				l-65.435-26.153c0,0-2.565-1.515-4.034-1.731C155.085,618.132,155.5,619.545,155.5,621.866z"/>
			<path fill="#E6E6E6" stroke="#999999" stroke-width="0.25" stroke-miterlimit="10" d="M167.749,628.104
				c0,0,2.953-0.014,4.98-0.014c2.026,0,2.159,2.596,3.042,4.445c0.937,1.755,2.763,1.299,4.993,0
				c1.855-1.298,10.338-7.838,10.338-7.838s1.685-1.56,0.008-4.057c-8.697-10.216-23.362-10.137-23.362-10.137
				s-14.714-0.079-23.411,10.137c-1.676,2.496,0.014,4.057,0.014,4.057s8.483,6.54,10.34,7.838c2.23,1.299,4.059,1.755,4.994,0
				c0.883-1.85,1.019-4.445,3.045-4.445C164.758,628.091,167.749,628.104,167.749,628.104z"/>
			<rect x="164.5" y="653.5" fill="#808080" stroke="#808080" stroke-miterlimit="10" width="6" height="17"/>
			<circle fill="#999999" stroke="#999999" stroke-width="0.25" stroke-miterlimit="10" cx="167.726" cy="642.068" r="10.622"/>
			<rect x="189.5" y="643.5" fill="#999999" stroke="#999999" stroke-miterlimit="10" width="35" height="14"/>
			<rect x="199.5" y="644.5" fill="#C8C8C8" stroke="#C8C8C8" stroke-miterlimit="10" width="18" height="1"/>
			<rect x="199.5" y="654.5" fill="#C8C8C8" stroke="#C8C8C8" stroke-miterlimit="10" width="18" height="2"/>
			<rect x="197.5" y="640.5" fill="#C8C8C8" stroke="#999999" stroke-miterlimit="10" width="2" height="22"/>
			<rect x="217.5" y="640.5" fill="#C8C8C8" stroke="#999999" stroke-miterlimit="10" width="5" height="22"/>
			<rect x="195.5" y="643.061" fill="#C8C8C8" stroke="#C8C8C8" stroke-miterlimit="10" width="0" height="4.394"/>
			<rect x="222.5" y="643.5" fill="#C8C8C8" stroke="#C8C8C8" stroke-miterlimit="10" width="1" height="4"/>
			<path fill="#999999" stroke="#999999" stroke-miterlimit="10" d="M232.218,650.784c0,2.52-2.042,4.198-4.563,4.198
				c-0.353,0-0.695-0.482-1.024-0.482H224.5v-9h2.131c0.329,0,0.671,0.302,1.024,0.302
				C230.176,645.802,232.218,648.265,232.218,650.784z"/>
			<path fill="#C8C8C8" stroke="#C8C8C8" stroke-miterlimit="10" d="M189.5,649.5v4h-23.733c-2.403,0-4.422-0.026-5.027,0.19
				c-0.121,0.045-0.187-0.002-0.187,0.045c-0.499,0.341-1.104,0.488-1.753,0.488c-1.736,0-3.143-1.435-3.143-3.18
				c0-1.746,1.407-3.172,3.143-3.172c0.649,0,1.254,0.191,1.753,0.53c0,0.046,0.064,0.385,0.186,0.427
				c0.606,0.222,2.645,0.672,5.066,0.672H189.5z"/>
			<polygon fill="#333333" stroke="#333333" stroke-width="0.25" stroke-miterlimit="10" points="163.234,651.973 197.362,617.58 
				192.158,612.334 158.03,646.727 154.961,655.065 			"/>
			<path fill="#C1272D" stroke="#C1272D" stroke-width="0.25" stroke-miterlimit="10" d="M219.164,590.666
				c2.148,2.146,2.346,5.429,0.443,7.332l-20.963,20.965l-7.776-7.775l20.962-20.965
				C213.734,588.32,217.018,588.519,219.164,590.666z"/>
			<circle fill="#C8C8C8" stroke="#C8C8C8" stroke-width="0.25" stroke-miterlimit="10" cx="167.726" cy="642.068" r="2.317"/>
			<circle fill="#C8C8C8" stroke="#C8C8C8" stroke-width="0.25" stroke-miterlimit="10" cx="157.058" cy="630.254" r="2.34"/>
			<circle fill="#C8C8C8" stroke="#C8C8C8" stroke-width="0.25" stroke-miterlimit="10" cx="228.182" cy="650.784" r="2.281"/>
			<circle fill="#C8C8C8" stroke="#C8C8C8" stroke-width="0.25" stroke-miterlimit="10" cx="158.871" cy="651.018" r="1.871"/>
			<rect x="195.5" y="654.776" fill="#C8C8C8" stroke="#C8C8C8" stroke-miterlimit="10" width="0" height="2.929"/>
			<rect x="222.5" y="654.5" fill="#C8C8C8" stroke="#C8C8C8" stroke-miterlimit="10" width="1" height="3"/>
			<rect x="150.5" y="665.5" fill="#333333" stroke="#333333" stroke-miterlimit="10" width="35" height="2"/>
		</g>
	</g>
</g>
<g id="Layer_12">
</g>
<g id="Layer_15">
</g>
<g id="Layer_8">
</g>
</svg>
